<?xml version="1.0" encoding="UTF-8" standalone="no"?>
<svg
   xmlns:dc="http://purl.org/dc/elements/1.1/"
   xmlns:cc="http://creativecommons.org/ns#"
   xmlns:rdf="http://www.w3.org/1999/02/22-rdf-syntax-ns#"
   xmlns:svg="http://www.w3.org/2000/svg"
   xmlns="http://www.w3.org/2000/svg"
   xmlns:sodipodi="http://sodipodi.sourceforge.net/DTD/sodipodi-0.dtd"
   xmlns:inkscape="http://www.inkscape.org/namespaces/inkscape"
   width="80px"
   height="80px"
   viewBox="0 0 80 80"
   version="1.1"
   id="svg3791"
   sodipodi:docname="rectangle-7.svg"
   inkscape:version="0.92.3 (2405546, 2018-03-11)">
  <metadata
     id="metadata3797">
    <rdf:RDF>
      <cc:Work
         rdf:about="">
        <dc:format>image/svg+xml</dc:format>
        <dc:type
           rdf:resource="http://purl.org/dc/dcmitype/StillImage" />
        <dc:title>shape-6</dc:title>
      </cc:Work>
    </rdf:RDF>
  </metadata>
  <defs
     id="defs3795">
    <mask
       id="mask-2"
       fill="white">
      <circle
         r="40.5"
         cy="40.5"
         cx="40.5"
         id="use9" />
    </mask>
    <mask
       id="mask3740"
       fill="white">
      <circle
         r="40.5"
         cy="40.5"
         cx="40.5"
         id="use3738" />
    </mask>
  </defs>
  <sodipodi:namedview
     pagecolor="#ffffff"
     bordercolor="#666666"
     borderopacity="1"
     objecttolerance="10"
     gridtolerance="10"
     guidetolerance="10"
     inkscape:pageopacity="0"
     inkscape:pageshadow="2"
     inkscape:window-width="1920"
     inkscape:window-height="1024"
     id="namedview3793"
     showgrid="false"
     inkscape:zoom="10.44653"
     inkscape:cx="39.723279"
     inkscape:cy="36.14031"
     inkscape:window-x="0"
     inkscape:window-y="0"
     inkscape:window-maximized="1"
     inkscape:current-layer="svg3791"
     inkscape:snap-bbox="false"
     inkscape:object-paths="true"
     inkscape:snap-smooth-nodes="false"
     inkscape:object-nodes="false"
     inkscape:measure-start="22.5912,66.625"
     inkscape:measure-end="35.949,63.9695"
     showguides="false" />
  <!-- Generator: Sketch 53 (72520) - https://sketchapp.com -->
  <title
     id="title3783">shape-6</title>
  <desc
     id="desc3785">Created with Sketch.</desc>
  <g
     style="fill:#ff1864;fill-rule:nonzero;stroke:none;stroke-width:1"
     id="shape-6">
    <path
       d="M 40,0 C 13.333333,53.333333 26.666667,26.666667 40,0 Z m -7.479619,0.69633148 c -0.960495,0 -1.739131,0.77863522 -1.739131,1.73913042 0,0.9604952 0.778636,1.7391304 1.739131,1.7391304 0.960495,0 1.73913,-0.7786352 1.73913,-1.7391304 0,-0.9604952 -0.778635,-1.73913042 -1.73913,-1.73913042 z m 14.959238,0 c -0.960495,0 -1.73913,0.77863522 -1.73913,1.73913042 0,0.9604952 0.778635,1.7391304 1.73913,1.7391304 0.960495,0 1.739131,-0.7786352 1.739131,-1.7391304 0,-0.9604952 -0.778636,-1.73913042 -1.739131,-1.73913042 z M 25.390624,2.9551631 c -0.960495,0 -1.73913,0.7786353 -1.73913,1.7391305 0,0.9604952 0.778635,1.7391304 1.73913,1.7391304 0.960496,0 1.739131,-0.7786352 1.739131,-1.7391304 0,-0.9604952 -0.778635,-1.7391305 -1.739131,-1.7391305 z m 29.218752,0 c -0.960496,0 -1.739131,0.7786353 -1.739131,1.7391305 0,0.9604952 0.778635,1.7391304 1.739131,1.7391304 0.960495,0 1.73913,-0.7786352 1.73913,-1.7391304 0,-0.9604952 -0.778635,-1.7391305 -1.73913,-1.7391305 z M 18.783967,6.433424 c -0.960495,0 -1.739131,0.7786352 -1.739131,1.7391304 0,0.9604953 0.778636,1.7391305 1.739131,1.7391305 0.960495,0 1.73913,-0.7786352 1.73913,-1.7391305 0,-0.9604952 -0.778635,-1.7391304 -1.73913,-1.7391304 z m 42.432066,0 c -0.960495,0 -1.73913,0.7786352 -1.73913,1.7391304 0,0.9604953 0.778635,1.7391305 1.73913,1.7391305 0.960495,0 1.73913,-0.7786352 1.73913,-1.7391305 0,-0.9604952 -0.778635,-1.7391304 -1.73913,-1.7391304 z m -48.345788,4.69769 c -0.960496,0 -1.739131,0.778635 -1.739131,1.73913 0,0.461247 0.183229,0.903601 0.509379,1.229752 0.326151,0.32615 0.768505,0.50938 1.229752,0.50938 0.461246,0 0.903601,-0.183229 1.229751,-0.50938 0.326151,-0.32615 0.50938,-0.768505 0.50938,-1.229752 0,-0.461246 -0.18323,-0.9036 -0.50938,-1.229751 -0.32615,-0.32615 -0.768505,-0.509379 -1.229751,-0.509379 z m 54.25951,0 c -0.960495,0 -1.739131,0.778635 -1.739131,1.73913 0,0.461247 0.183229,0.903601 0.50938,1.229752 0.32615,0.32615 0.768505,0.50938 1.229751,0.50938 0.461246,0 0.903601,-0.18323 1.229751,-0.50938 0.32615,-0.326151 0.509379,-0.768505 0.509379,-1.229752 0,-0.960495 -0.778635,-1.73913 -1.73913,-1.73913 z M 39.902913,80.409456 C 53.315013,80.375173 0.70069611,26.736452 0.07598134,40 -0.60645612,54.489079 53.116253,0.26940789 40,0.17306818 30.760907,0.10520645 60.574627,32.756118 73.819811,40.282914 c 3.571461,2.029542 6.298382,2.773635 6.298382,-0.08874 0,-13.477831 -53.693067,40.249733 -40.21528,40.215282 z M 8.1725544,17.044837 c -0.9604952,0 -1.7391304,0.778635 -1.7391304,1.73913 0,0.960495 0.7786352,1.73913 1.7391304,1.73913 0.9604953,0 1.7391305,-0.778635 1.7391305,-1.73913 0,-0.960495 -0.7786352,-1.73913 -1.7391305,-1.73913 z m 63.6548906,0 c -0.960495,0 -1.73913,0.778635 -1.73913,1.73913 0,0.960495 0.778635,1.73913 1.73913,1.73913 0.960495,0 1.739131,-0.778635 1.739131,-1.73913 0,-0.960495 -0.778636,-1.73913 -1.739131,-1.73913 z M 4.6942936,23.651494 c -0.9604953,0 -1.7391305,0.778635 -1.7391305,1.73913 0,0.960496 0.7786352,1.739131 1.7391305,1.739131 0.9604952,0 1.7391304,-0.778635 1.7391304,-1.739131 0,-0.960495 -0.7786352,-1.73913 -1.7391304,-1.73913 z m 70.6114124,0 c -0.960495,0 -1.73913,0.778635 -1.73913,1.73913 0,0.960496 0.778635,1.739131 1.73913,1.739131 0.960495,0 1.739131,-0.778635 1.739131,-1.739131 0,-0.960495 -0.778636,-1.73913 -1.739131,-1.73913 z M 2.4354619,30.78125 c -0.9604952,0 -1.73913042,0.778636 -1.73913042,1.739131 0,0.960495 0.77863522,1.73913 1.73913042,1.73913 0.9604952,0 1.7391304,-0.778635 1.7391304,-1.73913 0,-0.960495 -0.7786352,-1.739131 -1.7391304,-1.739131 z m 75.1290751,0 c -0.960495,0 -1.73913,0.778636 -1.73913,1.739131 0,0.960495 0.778635,1.73913 1.73913,1.73913 0.960496,0 1.739131,-0.778635 1.739131,-1.73913 0,-0.960495 -0.778635,-1.739131 -1.739131,-1.739131 z M 40.289901,2.2599698 c 3.903779,0 -28.894719,41.5013852 -28.894719,38.0265232 0,-3.903779 32.508597,37.835078 28.604818,37.835078 -3.903779,0 29.145478,-41.960406 29.149006,-38.056628 C 69.151729,43.079661 36.386122,2.2599698 40.289901,2.2599698 Z M 1.7391304,38.26087 C 0.77863522,38.26087 0,39.039505 0,40 c 0,0.960495 0.77863522,1.73913 1.7391304,1.73913 0.9604953,0 1.7391305,-0.778635 1.7391305,-1.73913 0,-0.960495 -0.7786352,-1.73913 -1.7391305,-1.73913 z m 0.6963315,7.479619 c -0.9604952,0 -1.73913042,0.778635 -1.73913042,1.73913 0,0.960495 0.77863522,1.739131 1.73913042,1.739131 0.9604952,0 1.7391304,-0.778636 1.7391304,-1.739131 0,-0.960495 -0.7786352,-1.73913 -1.7391304,-1.73913 z m 75.1290751,0 c -0.960495,0 -1.73913,0.778635 -1.73913,1.73913 0,0.960495 0.778635,1.739131 1.73913,1.739131 0.960496,0 1.739131,-0.778636 1.739131,-1.739131 0,-0.960495 -0.778635,-1.73913 -1.739131,-1.73913 z M 4.6942936,52.870245 c -0.9604953,0 -1.7391305,0.778635 -1.7391305,1.739131 0,0.960495 0.7786352,1.73913 1.7391305,1.73913 0.9604952,0 1.7391304,-0.778635 1.7391304,-1.73913 0,-0.960496 -0.7786352,-1.739131 -1.7391304,-1.739131 z m 70.6114124,0 c -0.960495,0 -1.73913,0.778635 -1.73913,1.739131 0,0.960495 0.778635,1.73913 1.73913,1.73913 0.960495,0 1.739131,-0.778635 1.739131,-1.73913 0,-0.960496 -0.778636,-1.739131 -1.739131,-1.739131 z M 8.1725544,59.476903 c -0.9604952,0 -1.7391304,0.778635 -1.7391304,1.73913 0,0.960495 0.7786352,1.73913 1.7391304,1.73913 0.9604953,0 1.7391305,-0.778635 1.7391305,-1.73913 0,-0.960495 -0.7786352,-1.73913 -1.7391305,-1.73913 z m 63.6548906,0 c -0.960495,0 -1.73913,0.778635 -1.73913,1.73913 0,0.960495 0.778635,1.73913 1.73913,1.73913 0.960495,0 1.739131,-0.778635 1.739131,-1.73913 0,-0.960495 -0.778636,-1.73913 -1.739131,-1.73913 z m -58.9572,5.913721 c -0.960496,0 -1.739131,0.778636 -1.739131,1.739131 0,0.960495 0.778635,1.73913 1.739131,1.73913 0.461246,0 0.903601,-0.183229 1.229751,-0.509379 0.32615,-0.32615 0.50938,-0.768505 0.50938,-1.229751 0,-0.461246 -0.18323,-0.903601 -0.50938,-1.229751 -0.32615,-0.326151 -0.768505,-0.50938 -1.229751,-0.50938 z m 54.25951,0 c -0.960495,0 -1.739131,0.778636 -1.739131,1.739131 0,0.960495 0.778636,1.73913 1.739131,1.73913 0.960495,0 1.73913,-0.778635 1.73913,-1.73913 0,-0.960495 -0.778635,-1.739131 -1.73913,-1.739131 z m -48.345788,4.697691 c -0.960495,0 -1.739131,0.778635 -1.739131,1.73913 0,0.960495 0.778636,1.739131 1.739131,1.739131 0.960495,0 1.73913,-0.778636 1.73913,-1.739131 0,-0.960495 -0.778635,-1.73913 -1.73913,-1.73913 z m 42.432066,0 c -0.960495,0 -1.73913,0.778635 -1.73913,1.73913 0,0.960495 0.778635,1.739131 1.73913,1.739131 0.960495,0 1.73913,-0.778636 1.73913,-1.739131 0,-0.960495 -0.778635,-1.73913 -1.73913,-1.73913 z m -35.825409,3.478261 c -0.960495,0 -1.73913,0.778635 -1.73913,1.73913 0,0.960495 0.778635,1.739131 1.73913,1.739131 0.960496,0 1.739131,-0.778636 1.739131,-1.739131 0,-0.960495 -0.778635,-1.73913 -1.739131,-1.73913 z m 29.218752,0 c -0.960496,0 -1.739131,0.778635 -1.739131,1.73913 0,0.960495 0.778635,1.739131 1.739131,1.739131 0.960495,0 1.73913,-0.778636 1.73913,-1.739131 0,-0.960495 -0.778635,-1.73913 -1.73913,-1.73913 z m -22.088995,2.258831 c -0.960495,0 -1.739131,0.778635 -1.739131,1.73913 0,0.960496 0.778636,1.739131 1.739131,1.739131 0.960495,0 1.73913,-0.778635 1.73913,-1.739131 0,-0.960495 -0.778635,-1.73913 -1.73913,-1.73913 z m 14.959238,0 c -0.960495,0 -1.73913,0.778635 -1.73913,1.73913 0,0.960496 0.778635,1.739131 1.73913,1.739131 0.960495,0 1.739131,-0.778635 1.739131,-1.739131 0,-0.960495 -0.778636,-1.73913 -1.739131,-1.73913 z M 40,78.121571 C 37.531148,78.415332 38.16113,79.944109 40,80 c 2.468852,-0.293761 1.838869,-1.822538 0,-1.878429 z"
       id="Shape"
       inkscape:connector-curvature="0"
       sodipodi:nodetypes="ccsssssssssssssssssssssssssssssssssssssssssssssssssssssssssssssssssssssssssssssssssssssssssssssssssssssssssssssssssssssssssssssssssssssssssssssssssssssssssssssssssssccc" />
  </g>
  <path
     style="opacity:1;vector-effect:none;fill:#ff1864;fill-opacity:1;fill-rule:nonzero;stroke:none;stroke-width:0.09572557;stroke-linecap:butt;stroke-linejoin:miter;stroke-miterlimit:4;stroke-dasharray:none;stroke-dashoffset:0;stroke-opacity:1"
     d=""
     id="path3951"
     inkscape:connector-curvature="0" />
  <path
     style="opacity:1;vector-effect:none;fill:#ff1864;fill-opacity:1;fill-rule:nonzero;stroke:none;stroke-width:0.09572557;stroke-linecap:butt;stroke-linejoin:miter;stroke-miterlimit:4;stroke-dasharray:none;stroke-dashoffset:0;stroke-opacity:1"
     d=""
     id="path3953"
     inkscape:connector-curvature="0" />
  <path
     style="opacity:1;vector-effect:none;fill:#ff1864;fill-opacity:1;fill-rule:nonzero;stroke:none;stroke-width:0.09572557;stroke-linecap:butt;stroke-linejoin:miter;stroke-miterlimit:4;stroke-dasharray:none;stroke-dashoffset:0;stroke-opacity:1"
     d=""
     id="path3955"
     inkscape:connector-curvature="0" />
  <path
     style="opacity:1;vector-effect:none;fill:#ff1864;fill-opacity:1;fill-rule:nonzero;stroke:none;stroke-width:0.09572557;stroke-linecap:butt;stroke-linejoin:miter;stroke-miterlimit:4;stroke-dasharray:none;stroke-dashoffset:0;stroke-opacity:1"
     d=""
     id="path3957"
     inkscape:connector-curvature="0" />
  <path
     style="fill:none;stroke-width:0.09708738"
     d="m 37.640777,64.203025 c -1.719001,-0.160139 -4.317025,-0.746348 -5.945713,-1.341572 -1.34417,-0.491242 -3.883666,-1.769169 -5.025161,-2.528764 -2.938646,-1.955488 -5.498933,-4.576525 -7.314184,-7.487732 -0.545974,-0.875607 -1.530746,-2.789411 -1.864282,-3.623044 -2.373774,-5.932966 -2.373774,-12.51086 0,-18.443826 0.333536,-0.833633 1.318308,-2.747437 1.864282,-3.623044 1.815251,-2.911207 4.375538,-5.532244 7.314184,-7.487733 1.141495,-0.759594 3.680991,-2.037521 5.025161,-2.528764 1.20792,-0.441449 2.895,-0.876442 4.387011,-1.131139 1.511503,-0.258025 4.791258,-0.353493 6.410117,-0.186588 C 54.886508,17.098676 64.291262,27.53028 64.291262,40 c 0,12.328096 -9.203248,22.696705 -21.413532,24.125018 -1.141842,0.133568 -4.158228,0.178499 -5.236953,0.07801 z m 3.883596,-6.866869 c 2.210337,-0.124073 5.052271,-1.017743 7.154083,-2.249665 7.977769,-4.675955 10.995547,-14.587112 6.930601,-22.761873 -2.781772,-5.594248 -8.386268,-9.348707 -14.468211,-9.692274 -4.986199,-0.281668 -9.526952,1.369691 -13.121044,4.771799 -1.565246,1.481635 -2.772261,3.149129 -3.72736,5.149351 -2.300803,4.818473 -2.300989,10.079755 -5.24e-4,14.893012 0.677144,1.416791 1.231932,2.298271 2.198343,3.492859 2.546265,3.147458 6.168707,5.346254 10.131103,6.149508 1.028152,0.208426 2.923256,0.377514 3.640777,0.324844 0.213592,-0.01568 0.781599,-0.05058 1.262237,-0.07756 z"
     id="path3830"
     inkscape:connector-curvature="0" />
  <g
     transform="translate(-0.48132309,-0.6303827)"
     style="fill:none;fill-rule:evenodd;stroke:none;stroke-width:1"
     id="Page-1-6">
    <g
       id="Artboard-7"
       transform="translate(-1446,-412)">
      <g
         id="shape-5"
         transform="translate(1446,412)">
        <mask
           id="mask3744"
           fill="white">
          <circle
             r="40.5"
             cy="40.5"
             cx="40.5"
             id="use3742" />
        </mask>
      </g>
    </g>
  </g>
  <path
     sodipodi:nodetypes="ccccc"
     inkscape:connector-curvature="0"
     id="path3983"
     d="M 12.780677,67.129417 C 39.509679,38.431055 39.507258,38.417322 12.81577,12.758163 39.486588,38.412903 39.464475,38.368039 67.169368,12.769438 39.38775,38.262647 39.525504,38.434331 67.115075,67.228769 39.508765,38.434917 39.516551,38.43206 12.780677,67.129417 Z"
     style="opacity:1;vector-effect:none;fill:#ff1864;fill-opacity:1;fill-rule:nonzero;stroke:none;stroke-width:0.09572557;stroke-linecap:butt;stroke-linejoin:miter;stroke-miterlimit:4;stroke-dasharray:none;stroke-dashoffset:0;stroke-opacity:1" />
</svg>
