<?xml version="1.0" encoding="UTF-8"?>
<svg width="85px" height="81px" viewBox="0 0 85 81" version="1.1" xmlns="http://www.w3.org/2000/svg" xmlns:xlink="http://www.w3.org/1999/xlink">
    <!-- Generator: Sketch 53 (72520) - https://sketchapp.com -->
    <title>shape-1</title>
    <desc>Created with Sketch.</desc>
    <g id="Page-1" stroke="none" stroke-width="1" fill="none" fill-rule="evenodd">
        <g id="Artboard" transform="translate(-941.000000, -415.000000)" fill="#0065f2" fill-rule="nonzero">
            <g id="shape-1" transform="translate(941.000000, 415.000000)">
                <path d="M18.8032221,0 C9.56226672,0 2.02531646,7.53695026 2.02531646,16.7779056 C2.02531646,26.018861 9.56226672,33.5558113 18.8032221,33.5558113 C28.0441775,33.5558113 35.5811277,26.018861 35.5811277,16.7779056 C35.5811277,7.53695026 28.0441775,0 18.8032221,0 Z M52.3590334,1.86421174 L52.3590334,31.6915995 L82.1864212,31.6915995 L82.1864212,1.86421174 L52.3590334,1.86421174 Z M18.8032221,3.72842348 C26.0343242,3.72842348 31.8527043,9.54680354 31.8527043,16.7779056 C31.8527043,24.0090077 26.0343242,29.8273878 18.8032221,29.8273878 C11.57212,29.8273878 5.75373993,24.0090077 5.75373993,16.7779056 C5.75373993,9.54680354 11.57212,3.72842348 18.8032221,3.72842348 Z M56.8786481,46.61 L77.6668065,46.61 L84.1715522,67.6490845 L67.2727273,80.5620651 L50.3739024,67.6490845 L56.8786481,46.61 Z M59.4299307,50.3337169 L54.5218098,66.208645 L67.2727273,75.9520651 L80.0236447,66.208645 L75.1155238,50.3337169 L59.4299307,50.3337169 Z M18.8,46.3459473 L0.531494141,78.296893 C9.29695679,78.296893 15.3484298,78.296893 18.6859131,78.296893 C21.9767382,78.296893 28.0282112,78.296893 36.840332,78.296893 L18.8,46.3459473 Z M18.8032221,54.0912687 L30.5055205,74.5684695 L7.1082072,74.5684695 L18.8032221,54.0912687 Z" id="Shape"></path>
            </g>
        </g>
    </g>
</svg>
