<?xml version="1.0" encoding="UTF-8"?>
<svg width="80px" height="80px" viewBox="0 0 80 80" version="1.1" xmlns="http://www.w3.org/2000/svg" xmlns:xlink="http://www.w3.org/1999/xlink">
    <!-- Generator: Sketch 53 (72520) - https://sketchapp.com -->
    <title>shape-2</title>
    <desc>Created with Sketch.</desc>
    <g id="Page-1" stroke="none" stroke-width="1" fill="none" fill-rule="evenodd">
        <g id="Artboard" transform="translate(-1070.000000, -413.000000)" fill="#0065f2" fill-rule="nonzero">
            <g id="shape-2" transform="translate(1070.000000, 413.000000)">
                <path d="M11.4285714,0 C5.13930686,0 0,5.13930686 0,11.4285714 C0,17.7178362 5.13930686,22.8571429 11.4285714,22.8571429 C17.7178362,22.8571429 22.8571429,17.7178362 22.8571429,11.4285714 C22.8571429,5.13930686 17.7178362,0 11.4285714,0 Z M40,0 C33.7107352,0 28.5714286,5.13930686 28.5714286,11.4285714 C28.5714286,17.7178362 33.7107352,22.8571429 40,22.8571429 C46.2892648,22.8571429 51.4285714,17.7178362 51.4285714,11.4285714 C51.4285714,5.13930686 46.2892648,0 40,0 Z M68.5714286,0 C62.2821638,0 57.1428571,5.13930686 57.1428571,11.4285714 C57.1428571,17.7178362 62.2821638,22.8571429 68.5714286,22.8571429 C74.8606933,22.8571429 80,17.7178362 80,11.4285714 C80,5.13930686 74.8606933,0 68.5714286,0 Z M40,3.80952381 C44.2304457,3.80952381 47.6190476,7.19812648 47.6190476,11.4285714 C47.6190476,15.6590171 44.2304457,19.047619 40,19.047619 C35.7695543,19.047619 32.3809524,15.6590171 32.3809524,11.4285714 C32.3809524,7.19812648 35.7695543,3.80952381 40,3.80952381 Z M68.5714286,3.80952381 C72.8018743,3.80952381 76.1904762,7.19812648 76.1904762,11.4285714 C76.1904762,15.6590171 72.8018743,19.047619 68.5714286,19.047619 C64.3409829,19.047619 60.952381,15.6590171 60.952381,11.4285714 C60.952381,7.19812648 64.3409829,3.80952381 68.5714286,3.80952381 Z M11.4285714,28.5714286 C5.13930686,28.5714286 0,33.7107352 0,40 C0,46.2892648 5.13930686,51.4285714 11.4285714,51.4285714 C17.7178362,51.4285714 22.8571429,46.2892648 22.8571429,40 C22.8571429,33.7107352 17.7178362,28.5714286 11.4285714,28.5714286 Z M40,28.5714286 C33.7107352,28.5714286 28.5714286,33.7107352 28.5714286,40 C28.5714286,46.2892648 33.7107352,51.4285714 40,51.4285714 C46.2892648,51.4285714 51.4285714,46.2892648 51.4285714,40 C51.4285714,33.7107352 46.2892648,28.5714286 40,28.5714286 Z M68.5714286,28.5714286 C62.2821638,28.5714286 57.1428571,33.7107352 57.1428571,40 C57.1428571,46.2892648 62.2821638,51.4285714 68.5714286,51.4285714 C74.8606933,51.4285714 80,46.2892648 80,40 C80,33.7107352 74.8606933,28.5714286 68.5714286,28.5714286 Z M11.4285714,32.3809524 C15.6590171,32.3809524 19.047619,35.7695543 19.047619,40 C19.047619,44.2304457 15.6590171,47.6190476 11.4285714,47.6190476 C7.19812648,47.6190476 3.80952381,44.2304457 3.80952381,40 C3.80952381,35.7695543 7.19812648,32.3809524 11.4285714,32.3809524 Z M68.5714286,32.3809524 C72.8018743,32.3809524 76.1904762,35.7695543 76.1904762,40 C76.1904762,44.2304457 72.8018743,47.6190476 68.5714286,47.6190476 C64.3409829,47.6190476 60.952381,44.2304457 60.952381,40 C60.952381,35.7695543 64.3409829,32.3809524 68.5714286,32.3809524 Z M11.4285714,57.1428571 C5.13930686,57.1428571 0,62.2821638 0,68.5714286 C0,74.8606933 5.13930686,80 11.4285714,80 C17.7178362,80 22.8571429,74.8606933 22.8571429,68.5714286 C22.8571429,62.2821638 17.7178362,57.1428571 11.4285714,57.1428571 Z M40,57.1428571 C33.7107352,57.1428571 28.5714286,62.2821638 28.5714286,68.5714286 C28.5714286,74.8606933 33.7107352,80 40,80 C46.2892648,80 51.4285714,74.8606933 51.4285714,68.5714286 C51.4285714,62.2821638 46.2892648,57.1428571 40,57.1428571 Z M68.5714286,57.1428571 C62.2821638,57.1428571 57.1428571,62.2821638 57.1428571,68.5714286 C57.1428571,74.8606933 62.2821638,80 68.5714286,80 C74.8606933,80 80,74.8606933 80,68.5714286 C80,62.2821638 74.8606933,57.1428571 68.5714286,57.1428571 Z M11.4285714,60.952381 C15.6590171,60.952381 19.047619,64.3409829 19.047619,68.5714286 C19.047619,72.8018743 15.6590171,76.1904762 11.4285714,76.1904762 C7.19812648,76.1904762 3.80952381,72.8018743 3.80952381,68.5714286 C3.80952381,64.3409829 7.19812648,60.952381 11.4285714,60.952381 Z M40,60.952381 C44.2304457,60.952381 47.6190476,64.3409829 47.6190476,68.5714286 C47.6190476,72.8018743 44.2304457,76.1904762 40,76.1904762 C35.7695543,76.1904762 32.3809524,72.8018743 32.3809524,68.5714286 C32.3809524,64.3409829 35.7695543,60.952381 40,60.952381 Z" id="Shape"></path>
            </g>
        </g>
    </g>
</svg>
