<?xml version="1.0" encoding="UTF-8"?>
<svg width="80px" height="80px" viewBox="0 0 80 80" version="1.1" xmlns="http://www.w3.org/2000/svg" xmlns:xlink="http://www.w3.org/1999/xlink">
    <!-- Generator: Sketch 53 (72520) - https://sketchapp.com -->
    <title>shape-6</title>
    <desc>Created with Sketch.</desc>
    <g id="Page-1" stroke="none" stroke-width="1" fill="none" fill-rule="evenodd">
        <g id="Artboard" transform="translate(-1560.000000, -412.000000)" fill="#0065f2" fill-rule="nonzero">
            <g id="shape-6" transform="translate(1560.000000, 412.000000)">
                <path d="M40,0 C39.0395048,0 38.2608696,0.778635218 38.2608696,1.73913043 C38.2608696,2.69962565 39.0395048,3.47826087 40,3.47826087 C40.9604952,3.47826087 41.7391304,2.69962565 41.7391304,1.73913043 C41.7391304,0.778635218 40.9604952,0 40,0 Z M32.5203809,0.696331478 C31.5598857,0.696331478 30.7812504,1.4749667 30.7812504,2.43546191 C30.7812504,3.39595713 31.5598857,4.17459235 32.5203809,4.17459235 C33.4808761,4.17459235 34.2595113,3.39595713 34.2595113,2.43546191 C34.2595113,1.4749667 33.4808761,0.696331478 32.5203809,0.696331478 Z M47.4796191,0.696331478 C46.5191239,0.696331478 45.7404887,1.4749667 45.7404887,2.43546191 C45.7404887,3.39595713 46.5191239,4.17459235 47.4796191,4.17459235 C48.4401143,4.17459235 49.2187496,3.39595713 49.2187496,2.43546191 C49.2187496,1.4749667 48.4401143,0.696331478 47.4796191,0.696331478 Z M25.3906243,2.95516313 C24.4301291,2.95516313 23.6514939,3.73379835 23.6514939,4.69429357 C23.6514939,5.65478878 24.4301291,6.433424 25.3906243,6.433424 C26.3511196,6.433424 27.1297548,5.65478878 27.1297548,4.69429357 C27.1297548,3.73379835 26.3511196,2.95516313 25.3906243,2.95516313 L25.3906243,2.95516313 Z M54.6093757,2.95516313 C53.6488804,2.95516313 52.8702452,3.73379835 52.8702452,4.69429357 C52.8702452,5.65478878 53.6488804,6.433424 54.6093757,6.433424 C55.5698709,6.433424 56.3485061,5.65478878 56.3485061,4.69429357 C56.3485061,3.73379835 55.5698709,2.95516313 54.6093757,2.95516313 L54.6093757,2.95516313 Z M18.783967,6.433424 C17.8234717,6.433424 17.0448365,7.21205922 17.0448365,8.17255443 C17.0448365,9.13304965 17.8234717,9.91168487 18.783967,9.91168487 C19.7444622,9.91168487 20.5230974,9.13304965 20.5230974,8.17255443 C20.5230974,7.21205922 19.7444622,6.433424 18.783967,6.433424 Z M61.216033,6.433424 C60.2555378,6.433424 59.4769026,7.21205922 59.4769026,8.17255443 C59.4769026,9.13304965 60.2555378,9.91168487 61.216033,9.91168487 C62.1765283,9.91168487 62.9551635,9.13304965 62.9551635,8.17255443 C62.9551635,7.21205922 62.1765283,6.433424 61.216033,6.433424 Z M40,10.4347826 C23.70248,10.4347826 10.4347826,23.70248 10.4347826,40 C10.4347826,56.29752 23.70248,69.5652174 40,69.5652174 C56.29752,69.5652174 69.5652174,56.29752 69.5652174,40 C69.5652174,23.70248 56.29752,10.4347826 40,10.4347826 Z M12.8702445,11.1311141 C11.9097493,11.1311141 11.1311141,11.9097493 11.1311141,12.8702445 C11.1311139,13.3314907 11.3143431,13.7738455 11.6404934,14.0999959 C11.9666436,14.4261463 12.4089983,14.6093757 12.8702445,14.6093757 C13.3314908,14.6093758 13.7738457,14.4261465 14.0999961,14.0999961 C14.4261465,13.7738457 14.6093758,13.3314908 14.6093757,12.8702445 C14.6093757,12.4089983 14.4261463,11.9666436 14.0999959,11.6404934 C13.7738455,11.3143431 13.3314907,11.1311139 12.8702445,11.1311141 Z M67.1297548,11.1311141 C66.1692596,11.1311141 65.3906243,11.9097493 65.3906243,12.8702445 C65.3906242,13.3314907 65.5738534,13.7738455 65.9000036,14.0999959 C66.2261539,14.4261463 66.6685086,14.6093757 67.1297548,14.6093757 C67.591001,14.6093757 68.0333557,14.4261463 68.359506,14.0999959 C68.6856562,13.7738455 68.8688854,13.3314907 68.8688852,12.8702445 C68.8688852,11.9097493 68.09025,11.1311141 67.1297548,11.1311141 Z M40,15.6521739 C53.4778313,15.6521739 64.3478261,26.5221687 64.3478261,40 C64.3478261,53.4778313 53.4778313,64.3478261 40,64.3478261 C26.5221687,64.3478261 15.6521739,53.4778313 15.6521739,40 C15.6521739,26.5221687 26.5221687,15.6521739 40,15.6521739 Z M8.17255443,17.0448365 C7.21205922,17.0448365 6.433424,17.8234717 6.433424,18.783967 C6.433424,19.7444622 7.21205922,20.5230974 8.17255443,20.5230974 C9.13304965,20.5230974 9.91168487,19.7444622 9.91168487,18.783967 C9.91168487,17.8234717 9.13304965,17.0448365 8.17255443,17.0448365 Z M71.8274452,17.0448365 C70.86695,17.0448365 70.0883148,17.8234717 70.0883148,18.783967 C70.0883148,19.7444622 70.86695,20.5230974 71.8274452,20.5230974 C72.7879404,20.5230974 73.5665757,19.7444622 73.5665757,18.783967 C73.5665757,17.8234717 72.7879404,17.0448365 71.8274452,17.0448365 Z M40,22.6086957 C30.4568452,22.6086957 22.6086957,30.4568452 22.6086957,40 C22.6086957,49.5431548 30.4568452,57.3913043 40,57.3913043 C49.5431548,57.3913043 57.3913043,49.5431548 57.3913043,40 C57.3913043,30.4568452 49.5431548,22.6086957 40,22.6086957 Z M4.69429357,23.6514939 C3.73379835,23.6514939 2.95516313,24.4301291 2.95516313,25.3906243 C2.95516313,26.3511196 3.73379835,27.1297548 4.69429357,27.1297548 C5.65478878,27.1297548 6.433424,26.3511196 6.433424,25.3906243 C6.433424,24.4301291 5.65478878,23.6514939 4.69429357,23.6514939 L4.69429357,23.6514939 Z M75.3057061,23.6514939 C74.3452109,23.6514939 73.5665757,24.4301291 73.5665757,25.3906243 C73.5665757,26.3511196 74.3452109,27.1297548 75.3057061,27.1297548 C76.2662013,27.1297548 77.0448365,26.3511196 77.0448365,25.3906243 C77.0448365,24.4301291 76.2662013,23.6514939 75.3057061,23.6514939 L75.3057061,23.6514939 Z M2.43546191,30.7812504 C1.4749667,30.7812504 0.696331478,31.5598857 0.696331478,32.5203809 C0.696331478,33.4808761 1.4749667,34.2595113 2.43546191,34.2595113 C3.39595713,34.2595113 4.17459235,33.4808761 4.17459235,32.5203809 C4.17459235,31.5598857 3.39595713,30.7812504 2.43546191,30.7812504 Z M77.5645374,30.7812504 C76.6040422,30.7812504 75.825407,31.5598857 75.825407,32.5203809 C75.825407,33.4808761 76.6040422,34.2595113 77.5645374,34.2595113 C78.5250326,34.2595113 79.3036678,33.4808761 79.3036678,32.5203809 C79.3036678,31.5598857 78.5250326,30.7812504 77.5645374,30.7812504 Z M40,33.0434783 C43.9037791,33.0434783 46.9565217,36.0962209 46.9565217,40 C46.9565217,43.9037791 43.9037791,46.9565217 40,46.9565217 C36.0962209,46.9565217 33.0434783,43.9037791 33.0434783,40 C33.0434783,36.0962209 36.0962209,33.0434783 40,33.0434783 Z M1.73913043,38.2608696 C0.778635218,38.2608696 0,39.0395048 0,40 C0,40.9604952 0.778635218,41.7391304 1.73913043,41.7391304 C2.69962565,41.7391304 3.47826087,40.9604952 3.47826087,40 C3.47826087,39.0395048 2.69962565,38.2608696 1.73913043,38.2608696 Z M78.2608696,38.2608696 C77.3003743,38.2608696 76.5217391,39.0395048 76.5217391,40 C76.5217391,40.9604952 77.3003743,41.7391304 78.2608696,41.7391304 C79.2213648,41.7391304 80,40.9604952 80,40 C80,39.0395048 79.2213648,38.2608696 78.2608696,38.2608696 Z M2.43546191,45.7404887 C1.4749667,45.7404887 0.696331478,46.5191239 0.696331478,47.4796191 C0.696331478,48.4401143 1.4749667,49.2187496 2.43546191,49.2187496 C3.39595713,49.2187496 4.17459235,48.4401143 4.17459235,47.4796191 C4.17459235,46.5191239 3.39595713,45.7404887 2.43546191,45.7404887 Z M77.5645374,45.7404887 C76.6040422,45.7404887 75.825407,46.5191239 75.825407,47.4796191 C75.825407,48.4401143 76.6040422,49.2187496 77.5645374,49.2187496 C78.5250326,49.2187496 79.3036678,48.4401143 79.3036678,47.4796191 C79.3036678,46.5191239 78.5250326,45.7404887 77.5645374,45.7404887 Z M4.69429357,52.8702452 C3.73379835,52.8702452 2.95516313,53.6488804 2.95516313,54.6093757 C2.95516313,55.5698709 3.73379835,56.3485061 4.69429357,56.3485061 C5.65478878,56.3485061 6.433424,55.5698709 6.433424,54.6093757 C6.433424,53.6488804 5.65478878,52.8702452 4.69429357,52.8702452 Z M75.3057061,52.8702452 C74.3452109,52.8702452 73.5665757,53.6488804 73.5665757,54.6093757 C73.5665757,55.5698709 74.3452109,56.3485061 75.3057061,56.3485061 C76.2662013,56.3485061 77.0448365,55.5698709 77.0448365,54.6093757 C77.0448365,53.6488804 76.2662013,52.8702452 75.3057061,52.8702452 Z M8.17255443,59.4769026 C7.21205922,59.4769026 6.433424,60.2555378 6.433424,61.216033 C6.433424,62.1765283 7.21205922,62.9551635 8.17255443,62.9551635 C9.13304965,62.9551635 9.91168487,62.1765283 9.91168487,61.216033 C9.91168487,60.2555378 9.13304965,59.4769026 8.17255443,59.4769026 Z M71.8274452,59.4769026 C70.86695,59.4769026 70.0883148,60.2555378 70.0883148,61.216033 C70.0883148,62.1765283 70.86695,62.9551635 71.8274452,62.9551635 C72.7879404,62.9551635 73.5665757,62.1765283 73.5665757,61.216033 C73.5665757,60.2555378 72.7879404,59.4769026 71.8274452,59.4769026 Z M12.8702445,65.3906243 C11.9097493,65.3906243 11.1311141,66.1692596 11.1311141,67.1297548 C11.1311141,68.09025 11.9097493,68.8688852 12.8702445,68.8688852 C13.3314907,68.8688854 13.7738455,68.6856562 14.0999959,68.359506 C14.4261463,68.0333557 14.6093757,67.591001 14.6093757,67.1297548 C14.6093757,66.6685086 14.4261463,66.2261539 14.0999959,65.9000036 C13.7738455,65.5738534 13.3314907,65.3906242 12.8702445,65.3906243 Z M67.1297548,65.3906243 C66.1692596,65.3906243 65.3906243,66.1692596 65.3906243,67.1297548 C65.3906243,68.09025 66.1692596,68.8688852 67.1297548,68.8688852 C68.09025,68.8688852 68.8688852,68.09025 68.8688852,67.1297548 C68.8688852,66.1692596 68.09025,65.3906243 67.1297548,65.3906243 Z M18.783967,70.0883148 C17.8234717,70.0883148 17.0448365,70.86695 17.0448365,71.8274452 C17.0448365,72.7879404 17.8234717,73.5665757 18.783967,73.5665757 C19.7444622,73.5665757 20.5230974,72.7879404 20.5230974,71.8274452 C20.5230974,70.86695 19.7444622,70.0883148 18.783967,70.0883148 Z M61.216033,70.0883148 C60.2555378,70.0883148 59.4769026,70.86695 59.4769026,71.8274452 C59.4769026,72.7879404 60.2555378,73.5665757 61.216033,73.5665757 C62.1765283,73.5665757 62.9551635,72.7879404 62.9551635,71.8274452 C62.9551635,70.86695 62.1765283,70.0883148 61.216033,70.0883148 Z M25.3906243,73.5665757 C24.4301291,73.5665757 23.6514939,74.3452109 23.6514939,75.3057061 C23.6514939,76.2662013 24.4301291,77.0448365 25.3906243,77.0448365 C26.3511196,77.0448365 27.1297548,76.2662013 27.1297548,75.3057061 C27.1297548,74.3452109 26.3511196,73.5665757 25.3906243,73.5665757 Z M54.6093757,73.5665757 C53.6488804,73.5665757 52.8702452,74.3452109 52.8702452,75.3057061 C52.8702452,76.2662013 53.6488804,77.0448365 54.6093757,77.0448365 C55.5698709,77.0448365 56.3485061,76.2662013 56.3485061,75.3057061 C56.3485061,74.3452109 55.5698709,73.5665757 54.6093757,73.5665757 Z M32.5203809,75.825407 C31.5598857,75.825407 30.7812504,76.6040422 30.7812504,77.5645374 C30.7812504,78.5250326 31.5598857,79.3036678 32.5203809,79.3036678 C33.4808761,79.3036678 34.2595113,78.5250326 34.2595113,77.5645374 C34.2595113,76.6040422 33.4808761,75.825407 32.5203809,75.825407 Z M47.4796191,75.825407 C46.5191239,75.825407 45.7404887,76.6040422 45.7404887,77.5645374 C45.7404887,78.5250326 46.5191239,79.3036678 47.4796191,79.3036678 C48.4401143,79.3036678 49.2187496,78.5250326 49.2187496,77.5645374 C49.2187496,76.6040422 48.4401143,75.825407 47.4796191,75.825407 Z M40,76.5217391 C39.0395048,76.5217391 38.2608696,77.3003743 38.2608696,78.2608696 C38.2608696,79.2213648 39.0395048,80 40,80 C40.9604952,80 41.7391304,79.2213648 41.7391304,78.2608696 C41.7391304,77.3003743 40.9604952,76.5217391 40,76.5217391 Z" id="Shape"></path>
            </g>
        </g>
    </g>
</svg>
