<svg xmlns="http://www.w3.org/2000/svg" viewBox="0 0 612 1224"><defs><style>.cls-1{fill:#fff;}.cls-2{fill:#282828;}</style></defs><title>Asset 1</title><g id="Layer_2" data-name="Layer 2"><g id="Layer_1-2" data-name="Layer 1"><path class="cls-1" d="M0,0V612H235.66v3.3a70.17,70.17,0,0,0,140.34,0V612H612V0Z"/><polygon class="cls-2" points="306 523.52 300.15 527 301.25 527.47 306 524.78 306 530.16 501.37 417.53 501.37 405.35 306 517.98 306 523.52"/><polygon class="cls-2" points="306 486.5 268.03 508.49 269.93 509.44 306 488.71 306 493.14 501.37 380.51 501.37 369.12 306 481.91 306 486.5"/><polygon class="cls-2" points="306 449.48 236.08 489.82 238.61 491.4 306 452.49 306 456.13 501.37 343.49 501.37 333.05 306 445.84 306 449.48"/><path class="cls-2" d="M369.44,296.51l-21.36-12.34,153.45-88.59-.16-3.8-2.85-1.58L342.07,280.37l-20.25-11.55,47.46-27.52v-7L472.1,175,467,172.17l-97.92,56.47v-5.85l-63.59,36.7-22-12.81L440,156.35,435.72,154,279.58,244.3,258.23,232l34.64-20.09-6.49-3.79L408,137.84l-3.48-2.06L282.9,206.34l-6.17-3.48L241.93,223v7.12l-32.59,18.82L207,247.47,110.47,303v9.65L215.2,252.06l-2.38-1.43,29.11-16.77v7.44l21.52,12.34-22.63,13.13-1.58-.95L110.63,340.17v8.54l136.05-78.46-1.58-.95,22.62-13.13,22,12.81-47.62,27.37v5.06L110.63,377.35v7.59L242.09,309v5.85l20.41,11.71L110.63,414.36v3.33l3,1.74L268.35,330.2l21,12.18-47.3,27.06v6.17l-102.19,59,5.06,2.85,97.13-56.16v7.12l63.75-36.86L325,362.63l-18.82,10.92v1.9L171.85,453l4.27,2.38,129.88-75v1.9l26.42-15.19,20.88,12-34,19.77,3,1.74-16.13,9.33v2.69l-102.2,59,3.48,2.06,98.72-56.95v2.69l24.36-14.08,4.75,2.84,34-19.61v-5.7l132.25-76.25V297L369.44,373.39v-3.48l-20.89-12,153-88.27v-8.55L341.28,353.62l-19.14-11.08L369.44,315v-6.33L501.53,232.6V225L369.44,301.25Zm-111.21,9L305.68,278l20.25,11.71-22.62,13.13-24.84,14.23Zm47.14,27.36-21.2-12.18L306,308.06l25.63-14.87,21.51,12.34Z"/><polygon class="cls-2" points="180.71 232.28 375.92 119.49 373.39 117.91 178.02 230.7 174.86 228.8 110.47 265.98 110.47 276.42 183.87 234.02 180.71 232.28"/><polygon class="cls-2" points="148.6 213.77 343.97 100.98 342.07 99.87 146.7 212.66 142.74 210.29 110.47 228.96 110.47 240.19 152.55 215.99 148.6 213.77"/><polygon class="cls-2" points="116.48 195.26 311.85 82.47 310.75 81.84 115.38 194.63 110.63 191.78 110.47 191.94 110.47 204.12 121.23 197.95 116.48 195.26"/><path d="M376,612v3.3a70.17,70.17,0,0,1-140.34,0V612H0v612H612V612Z"/><path class="cls-1" d="M142.16,941.81h40.56l27.69,147.47h.5l33.28-147.47h37.94l30.06,149.28h.59l31.56-149.28h39.78L332.43,1158.5H292.18L262.37,1011h-.78L229.68,1158.5h-41Zm287.69,0h63.94l63.5,216.69H515.45l-13.81-48.22H428.8l-10.66,48.22H377.39Zm24.34,53.41-17.69,79.5h55.06l-20.31-79.5Z"/></g></g></svg>