<?xml version="1.0" encoding="UTF-8"?>
<svg width="123px" height="38px" viewBox="0 0 123 38" version="1.1" xmlns="http://www.w3.org/2000/svg" xmlns:xlink="http://www.w3.org/1999/xlink">
    <!-- Generator: Sketch 52 (66869) - http://www.bohemiancoding.com/sketch -->
    <title>airbnb</title>
    <desc>Created with Sketch.</desc>
    <g id="Components---1440px" stroke="none" stroke-width="1" fill="none" fill-rule="evenodd" opacity="0.5">
        <g id="Customers" transform="translate(-904.000000, -98.000000)" fill="#0065F2">
            <g id="Customers-1">
                <g id="Logos" transform="translate(167.000000, 40.000000)">
                    <g id="airbnb" transform="translate(737.000000, 58.000000)">
                        <path d="M64.8235022,9.54754755 C64.8235022,10.9169169 63.7091571,12.02002 62.3258322,12.02002 C60.9425073,12.02002 59.8281622,10.9169169 59.8281622,9.54754755 C59.8281622,8.17817818 60.9040816,7.07507508 62.3258322,7.07507508 C63.7475828,7.11311311 64.8235022,8.21621622 64.8235022,9.54754755 Z M54.5254167,14.5305305 L54.5254167,15.1391391 C54.5254167,15.1391391 53.3342202,13.6176176 50.7981245,13.6176176 C46.6097241,13.6176176 43.3435403,16.7747748 43.3435403,21.1491491 C43.3435403,25.4854855 46.5712984,28.6806807 50.7981245,28.6806807 C53.3726459,28.6806807 54.5254167,27.1211211 54.5254167,27.1211211 L54.5254167,27.7677678 C54.5254167,28.0720721 54.7559708,28.3003003 55.0633764,28.3003003 L58.1758574,28.3003003 L58.1758574,13.997998 L55.0633764,13.997998 C54.7559708,13.997998 54.5254167,14.2642643 54.5254167,14.5305305 Z M54.5254167,23.6976977 C53.9490313,24.5345345 52.7962605,25.2572573 51.4129356,25.2572573 C48.9536913,25.2572573 47.0708324,23.7357357 47.0708324,21.1491491 C47.0708324,18.5625626 48.9536913,17.041041 51.4129356,17.041041 C52.7578348,17.041041 53.987457,17.8018018 54.5254167,18.6006006 L54.5254167,23.6976977 Z M60.4813989,13.997998 L64.1702654,13.997998 L64.1702654,28.3003003 L60.4813989,28.3003003 L60.4813989,13.997998 Z M115.583841,13.6176176 C113.047746,13.6176176 111.856549,15.1391391 111.856549,15.1391391 L111.856549,7.11311311 L108.167683,7.11311311 L108.167683,28.3003003 L111.280164,28.3003003 C111.587569,28.3003003 111.818124,28.034034 111.818124,27.7677678 L111.818124,27.1211211 C111.818124,27.1211211 113.00932,28.6806807 115.545416,28.6806807 C119.733816,28.6806807 123,25.4854855 123,21.1491491 C123,16.8128128 119.733816,13.6176176 115.583841,13.6176176 Z M114.96903,25.2192192 C113.54728,25.2192192 112.432935,24.4964965 111.856549,23.6596597 L111.856549,18.5625626 C112.432935,17.8018018 113.662557,17.003003 114.96903,17.003003 C117.428275,17.003003 119.311134,18.5245245 119.311134,21.1111111 C119.311134,23.6976977 117.428275,25.2192192 114.96903,25.2192192 Z M106.246398,19.8178178 L106.246398,28.3383383 L102.557532,28.3383383 L102.557532,20.2362362 C102.557532,17.8778779 101.789018,16.9269269 99.7140306,16.9269269 C98.5996855,16.9269269 97.4469148,17.4974975 96.7168266,18.3343343 L96.7168266,28.3003003 L93.0279602,28.3003003 L93.0279602,13.997998 L95.9483128,13.997998 C96.2557183,13.997998 96.4862724,14.2642643 96.4862724,14.5305305 L96.4862724,15.1391391 C97.5621918,14.036036 98.9839424,13.6176176 100.405693,13.6176176 C102.019572,13.6176176 103.364471,14.0740741 104.440391,14.986987 C105.746864,16.0520521 106.246398,17.4214214 106.246398,19.8178178 Z M84.0747739,13.6176176 C81.5386782,13.6176176 80.3474818,15.1391391 80.3474818,15.1391391 L80.3474818,7.11311311 L76.6586153,7.11311311 L76.6586153,28.3003003 L79.7710964,28.3003003 C80.0785019,28.3003003 80.3090561,28.034034 80.3090561,27.7677678 L80.3090561,27.1211211 C80.3090561,27.1211211 81.5002525,28.6806807 84.0363482,28.6806807 C88.2247486,28.6806807 91.4909325,25.4854855 91.4909325,21.1491491 C91.5293582,16.8128128 88.2631743,13.6176176 84.0747739,13.6176176 Z M83.4599628,25.2192192 C82.0382122,25.2192192 80.9238671,24.4964965 80.3474818,23.6596597 L80.3474818,18.5625626 C80.9238671,17.8018018 82.1534893,17.003003 83.4599628,17.003003 C85.9192071,17.003003 87.802066,18.5245245 87.802066,21.1111111 C87.802066,23.6976977 85.9192071,25.2192192 83.4599628,25.2192192 Z M73.4692829,13.6176176 C74.5836279,13.6176176 75.1600133,13.8078078 75.1600133,13.8078078 L75.1600133,17.1931932 C75.1600133,17.1931932 72.085958,16.1661662 70.1646734,18.3343343 L70.1646734,28.3383383 L66.4758069,28.3383383 L66.4758069,13.997998 L69.588288,13.997998 C69.8956935,13.997998 70.1262477,14.2642643 70.1262477,14.5305305 L70.1262477,15.1391391 C70.8179101,14.3403403 72.3165121,13.6176176 73.4692829,13.6176176 Z M35.1588678,27.007007 C34.9667394,26.5505506 34.7746109,26.0560561 34.5824825,25.6376376 C34.2750769,24.952953 33.9676714,24.3063063 33.6986915,23.6976977 L33.6602659,23.6596597 C31.0088931,17.953954 28.1692345,12.1721722 25.1720305,6.46646647 L25.0567534,6.23823824 C24.7493479,5.66766767 24.4419423,5.05905906 24.1345368,4.45045045 C23.7502799,3.76576577 23.3660229,3.04304304 22.7512119,2.35835836 C21.5215897,0.836836837 19.7540079,0 17.871149,0 C15.9498644,0 14.2207082,0.836836837 12.9526604,2.28228228 C12.376275,2.96696697 11.9535924,3.68968969 11.5693355,4.37437437 C11.2619299,4.98298298 10.9545244,5.59159159 10.6471189,6.16216216 L10.5318418,6.39039039 C7.57306349,12.0960961 4.69113658,17.8778779 2.03976382,23.5835836 L2.00133813,23.6596597 C1.73235829,24.2682683 1.42495275,24.9149149 1.11754721,25.5995996 C0.925418752,26.018018 0.733290291,26.4744745 0.54116183,26.968969 C0.0416278331,28.3763764 -0.112074935,29.7077077 0.0800535252,31.0770771 C0.502736138,33.9299299 2.42402074,36.3263263 5.0753935,37.3913914 C6.07446149,37.8098098 7.11195518,38 8.18787456,38 C8.4952801,38 8.87953702,37.961962 9.18694255,37.9239239 C10.4549904,37.7717718 11.7614639,37.3533534 13.0295118,36.6306306 C14.6049651,35.7557558 16.1035671,34.5005005 17.7942976,32.6746747 C19.485028,34.5005005 21.0220557,35.7557558 22.5590834,36.6306306 C23.8271312,37.3533534 25.1336048,37.7717718 26.4016526,37.9239239 C26.7090582,37.961962 27.0933151,38 27.4007206,38 C28.47664,38 29.5525594,37.8098098 30.5093591,37.3913914 C33.1991576,36.3263263 35.0820165,33.8918919 35.5046991,31.0770771 C35.8121046,29.7457457 35.6584018,28.4144144 35.1588678,27.007007 Z M17.8327233,28.984985 C15.7577359,26.3983984 14.4128367,23.963964 13.9517284,21.9099099 C13.7595999,21.035035 13.7211742,20.2742743 13.8364513,19.5895896 C13.9133027,18.980981 14.1438568,18.4484484 14.4512624,17.991992 C15.1813505,16.964965 16.4109727,16.3183183 17.8327233,16.3183183 C19.2544739,16.3183183 20.5225217,16.9269269 21.2141842,17.991992 C21.5215897,18.4484484 21.7521439,18.980981 21.8289953,19.5895896 C21.9442723,20.2742743 21.9058466,21.0730731 21.7137182,21.9099099 C21.2526099,23.9259259 19.9077107,26.3603604 17.8327233,28.984985 Z M33.1607319,30.7727728 C32.891752,32.7507508 31.5468528,34.4624625 29.6678364,35.2232232 C28.7456198,35.6036036 27.7465518,35.7177177 26.7474838,35.6036036 C25.7868415,35.4894895 24.8261992,35.1851852 23.8271312,34.6146146 C22.4438063,33.8538539 21.0604814,32.6746747 19.4466023,30.9249249 C21.982698,27.8438438 23.5197257,25.029029 24.0961111,22.5185185 C24.3650909,21.3393393 24.4035166,20.2742743 24.2882396,19.2852853 C24.1345368,18.3343343 23.7887056,17.4594595 23.2507459,16.6986987 C22.0595494,14.986987 20.0614134,13.997998 17.8327233,13.997998 C15.6040331,13.997998 13.6058971,15.025025 12.4147007,16.6986987 C11.876741,17.4594595 11.5309098,18.3343343 11.377207,19.2852853 C11.2235042,20.2742743 11.2619299,21.3773774 11.5693355,22.5185185 C12.1457208,25.029029 13.7211742,27.8818819 16.2188442,30.962963 C14.6433908,32.7127127 13.2216402,33.8918919 11.8383153,34.6526527 C10.8392473,35.2232232 9.87860501,35.5275275 8.91796271,35.6416416 C7.88046902,35.7557558 6.88140103,35.6036036 5.99761011,35.2612613 C4.1147512,34.5005005 2.76985197,32.7887888 2.50087213,30.8108108 C2.38559505,29.8598599 2.46244644,28.9089089 2.84670336,27.8438438 C2.96198043,27.4634635 3.15410889,27.0830831 3.34623735,26.6266266 C3.6152172,26.018018 3.92262274,25.3713714 4.23002827,24.7247247 L4.26845396,24.6486486 C6.91982672,18.980981 9.76332794,13.1991992 12.7221062,7.56956957 L12.8373833,7.34134134 C13.1447888,6.77077077 13.4521944,6.16216216 13.7595999,5.59159159 C14.0670055,4.98298298 14.4128367,4.41241241 14.8355193,3.91791792 C15.6424588,3.00500501 16.7183782,2.51051051 17.9095747,2.51051051 C19.1007711,2.51051051 20.1766905,3.00500501 20.98363,3.91791792 C21.4063126,4.41241241 21.7521439,4.98298298 22.0595494,5.59159159 C22.3669549,6.16216216 22.6743605,6.77077077 22.981766,7.34134134 L23.0970431,7.56956957 C26.0173957,13.2372372 28.8608969,19.019019 31.5084271,24.6866867 L31.5084271,24.7247247 C31.8158326,25.3333333 32.0848125,26.018018 32.392218,26.6266266 C32.5843465,27.0830831 32.7764749,27.4634635 32.891752,27.8438438 C33.1991576,28.8328328 33.3144346,29.7837838 33.1607319,30.7727728 Z" id="Shape"></path>
                    </g>
                </g>
            </g>
        </g>
    </g>
</svg>