<?xml version="1.0" encoding="UTF-8"?>
<svg width="95px" height="49px" viewBox="0 0 95 49" version="1.1" xmlns="http://www.w3.org/2000/svg" xmlns:xlink="http://www.w3.org/1999/xlink">
    <!-- Generator: Sketch 52 (66869) - http://www.bohemiancoding.com/sketch -->
    <title>cisco</title>
    <desc>Created with Sketch.</desc>
    <g id="Components---1440px" stroke="none" stroke-width="1" fill="none" fill-rule="evenodd" opacity="0.5">
        <g id="Customers" transform="translate(-721.000000, -92.000000)" fill="#0065F2">
            <g id="Customers-1">
                <g id="Logos" transform="translate(167.000000, 40.000000)">
                    <g id="cisco" transform="translate(554.000000, 52.000000)">
                        <path d="M92.7789423,46.5890376 L93.2512362,46.5890376 L93.9022358,48.3379222 L93.9150005,48.3379222 L94.5404708,46.5890376 L95,46.5890376 L95,48.7126832 L94.6936472,48.7126832 L94.6936472,46.9762906 L94.6808825,46.9762906 L94.0298828,48.7126832 L93.7362947,48.7126832 L93.0980598,46.9762906 L93.0852951,46.9762906 L93.0852951,48.7126832 L92.7789423,48.7126832 L92.7789423,46.5890376 Z M92.6257659,46.5890376 L92.6257659,46.8388783 L91.8854133,46.8388783 L91.8854133,48.7126832 L91.5790605,48.7126832 L91.5790605,46.8388783 L90.8387079,46.8388783 L90.8387079,46.5890376 L92.6257659,46.5890376 Z M95,15.1965583 C95,14.0847674 94.0809416,13.185341 92.9448834,13.185341 C91.8088251,13.185341 90.877002,14.0847674 90.877002,15.1965583 L90.877002,19.4438496 C90.877002,20.5556405 91.8088251,21.467559 92.9448834,21.467559 C94.0809416,21.467559 95,20.5556405 95,19.4438496 L95,15.1965583 Z M83.6649468,9.63760357 C83.6649468,8.5195666 82.7458884,7.6151434 81.5715361,7.6151434 C80.4354778,7.6151434 79.5164194,8.5195666 79.5164194,9.63760357 L79.5164194,19.4438496 C79.5164194,20.5556405 80.4354778,21.467559 81.5715361,21.467559 C82.7458884,21.467559 83.6649468,20.5556405 83.6649468,19.4438496 L83.6649468,9.63760357 Z M72.2915995,2.01746335 C72.2915995,0.904423199 71.3725411,0 70.2364829,0 C69.1004246,0 68.1686015,0.904423199 68.1686015,2.01746335 L68.1686015,23.4662843 C68.1686015,24.5905672 69.1004246,25.4899936 70.2364829,25.4899936 C71.3725411,25.4899936 72.2915995,24.5905672 72.2915995,23.4662843 L72.2915995,2.01746335 Z M60.9310169,9.63760357 C60.9310169,8.5195666 60.0119585,7.6151434 58.8631355,7.6151434 C57.7270773,7.6151434 56.8080189,8.5195666 56.8080189,9.63760357 L56.8080189,19.4438496 C56.8080189,20.5556405 57.7270773,21.467559 58.8631355,21.467559 C60.0119585,21.467559 60.9310169,20.5556405 60.9310169,19.4438496 L60.9310169,9.63760357 Z M49.5704343,15.1965583 C49.5704343,14.0847674 48.6386112,13.185341 47.5025529,13.185341 C46.3664947,13.185341 45.4346716,14.0847674 45.4346716,15.1965583 L45.4346716,19.4438496 C45.4346716,20.5556405 46.3664947,21.467559 47.5025529,21.467559 C48.6386112,21.467559 49.5704343,20.5556405 49.5704343,19.4438496 L49.5704343,15.1965583 Z M38.2226164,9.63760357 C38.2226164,8.5195666 37.2907933,7.6151434 36.154735,7.6151434 C35.0059121,7.6151434 34.074089,8.5195666 34.074089,9.63760357 L34.074089,19.4438496 C34.074089,20.5556405 35.0059121,21.467559 36.154735,21.467559 C37.2907933,21.467559 38.2226164,20.5556405 38.2226164,19.4438496 L38.2226164,9.63760357 Z M26.8620338,2.01746335 C26.8620338,0.904423199 25.9302107,0 24.7941524,0 C23.6453295,0 22.7262711,0.904423199 22.7262711,2.01746335 L22.7262711,23.4662843 C22.7262711,24.5905672 23.6453295,25.4899936 24.7941524,25.4899936 C25.9302107,25.4899936 26.8620338,24.5905672 26.8620338,23.4662843 L26.8620338,2.01746335 Z M15.5014511,9.63760357 C15.5014511,8.5195666 14.5696281,7.6151434 13.4335698,7.6151434 C12.2847469,7.6151434 11.3656885,8.5195666 11.3656885,9.63760357 L11.3656885,19.4438496 C11.3656885,20.5556405 12.2847469,21.467559 13.4335698,21.467559 C14.5696281,21.467559 15.5014511,20.5556405 15.5014511,19.4438496 L15.5014511,9.63760357 Z M4.13576266,15.1965583 C4.13576266,14.0847674 3.207769,13.185341 2.0691578,13.185341 C0.929270128,13.185341 0,14.0847674 0,15.1965583 L0,19.4438496 C0,20.5556405 0.929270128,21.467559 2.0691578,21.467559 C3.207769,21.467559 4.13576266,20.5556405 4.13576266,19.4438496 L4.13576266,15.1965583 Z M46.8387886,36.2331421 C46.7749651,36.2206501 45.0134365,35.7459528 43.5710255,35.7459528 C41.9116145,35.7459528 41.0053209,36.2831103 41.0053209,37.0701083 C41.0053209,38.0444869 42.230732,38.3942639 42.9072611,38.6066284 L44.0560841,38.9564054 C46.7622004,39.8058636 48.0003762,41.6172084 48.0003762,43.5784576 C48.0003762,47.6383684 44.3496721,49 41.1584973,49 C38.9502042,49 36.8695582,48.612747 36.665323,48.5627788 L36.665323,44.840153 C37.0354993,44.9400892 38.7842631,45.4522626 40.5968505,45.4522626 C42.6647318,45.4522626 43.6220843,44.852645 43.6220843,43.9407266 C43.6220843,43.1162524 42.8051435,42.6415551 41.7712028,42.3292543 C41.5159088,42.2418101 41.1329679,42.1293818 40.8776739,42.0419375 C38.5544985,41.3298917 36.6270289,39.9932441 36.6270289,37.319949 C36.6270289,34.296877 38.9374395,32.2731676 42.7796141,32.2731676 C44.7964366,32.2731676 46.7111416,32.7478649 46.8387886,32.785341 L46.8387886,36.2331421 Z M77.7293615,36.3955386 C75.2530098,36.3955386 73.4276577,38.2943276 73.4276577,40.6428298 C73.4276577,42.9913321 75.2530098,44.8901211 77.7293615,44.8901211 C80.2057132,44.8901211 82.0438299,42.9913321 82.0438299,40.6428298 C82.0438299,38.2943276 80.2057132,36.3955386 77.7293615,36.3955386 Z M86.4476513,40.6428298 C86.4476513,45.2648821 82.8097119,49 77.7293615,49 C72.6490111,49 69.0110717,45.2648821 69.0110717,40.6428298 C69.0110717,36.0207776 72.6490111,32.2731676 77.7293615,32.2731676 C82.8097119,32.2731676 86.4476513,36.0207776 86.4476513,40.6428298 Z M21.1434483,37.1950287 C20.9775073,37.1075844 19.6372138,36.3330784 17.6459207,36.3330784 C14.9398044,36.3330784 13.0761582,38.1694073 13.0761582,40.6428298 C13.0761582,43.0413002 14.8632162,44.9525813 17.6459207,44.9525813 C19.5989197,44.9525813 20.9647426,44.1905672 21.1434483,44.090631 L21.1434483,48.4253665 C20.6200957,48.5752709 19.203214,49 17.3395679,49 C12.6549231,49 8.55362517,45.8395156 8.55362517,40.6428298 C8.55362517,35.808413 12.2719822,32.2731676 17.3395679,32.2731676 C19.3053316,32.2731676 20.7477427,32.7353728 21.1434483,32.8602932 L21.1434483,37.1950287 Z M64.620015,37.1950287 C64.454074,37.1075844 63.1137805,36.3330784 61.1224874,36.3330784 C58.4291358,36.3330784 56.5654896,38.1694073 56.5654896,40.6428298 C56.5654896,43.0413002 58.3525476,44.9525813 61.1224874,44.9525813 C63.0754864,44.9525813 64.4413093,44.1905672 64.620015,44.090631 L64.620015,48.4253665 C64.1094271,48.5752709 62.6797807,49 60.8288993,49 C56.1442545,49 52.0340213,45.8395156 52.0340213,40.6428298 C52.0340213,35.808413 55.7485489,32.2731676 60.8288993,32.2731676 C62.7818983,32.2731676 64.2370741,32.7353728 64.620015,32.8602932 L64.620015,37.1950287 Z M31.0360905,48.7126832 L26.8747985,48.7126832 L26.8747985,32.5604844 L31.0360905,32.5604844 L31.0360905,48.7126832 Z" id="Shape"></path>
                    </g>
                </g>
            </g>
        </g>
    </g>
</svg>