<?xml version="1.0" encoding="UTF-8"?>
<svg width="80px" height="38px" viewBox="0 0 80 38" version="1.1" xmlns="http://www.w3.org/2000/svg" xmlns:xlink="http://www.w3.org/1999/xlink">
    <!-- Generator: Sketch 52 (66869) - http://www.bohemiancoding.com/sketch -->
    <title>cnn</title>
    <desc>Created with Sketch.</desc>
    <g id="Components---1440px" stroke="none" stroke-width="1" fill="none" fill-rule="evenodd" opacity="0.5">
        <g id="Customers" transform="translate(-354.000000, -98.000000)" fill="#0065F2">
            <g id="Customers-1">
                <g id="Logos" transform="translate(167.000000, 40.000000)">
                    <g id="cnn" transform="translate(187.000000, 58.000000)">
                        <path d="M32.9296739,37.9805353 C29.6118643,37.7491282 26.8037741,34.9629864 26.8037741,31.0383216 L26.8037741,12.3591388 C26.8037741,11.68343 26.3033224,11.100284 25.5711801,11.100284 L19.7325767,11.100284 C7.09153704,11.0817715 8.2129196,27.2247323 18.9726315,27.2432448 L25.4414334,27.2432448 L25.4414334,31.9361813 L18.7502085,31.9361813 C14.4592984,31.9361813 11.2805033,30.334844 9.13968204,27.9559788 C6.98959318,25.5678573 5.91454875,22.3651827 5.91454875,19.1625082 C5.90528112,15.9598336 6.97105793,12.7756716 9.16748491,10.3875501 C11.3639119,8.00868488 14.6817214,6.4073476 19.232125,6.4073476 L30.2513304,6.4073476 C30.9742051,6.4073476 31.5766007,7.03677497 31.5766007,7.75876519 L31.5766007,30.5384823 C31.5673331,31.7140304 32.234602,32.6211464 33.0964911,32.8895786 C33.9583802,33.1580109 34.9685512,32.8155283 35.5616792,31.9639501 L35.5894821,31.9361813 C38.7219391,26.8174557 51.1590911,6.88867441 51.1776263,6.85164927 C51.5205284,6.37032246 51.9283039,6.27775961 52.2248679,6.37957874 C52.5214319,6.48139787 52.8179958,6.79611156 52.8179958,7.59215206 L52.8179958,30.5384823 C52.8087282,31.7140304 53.4759972,32.6211464 54.3378862,32.8895786 C55.1997753,33.1580109 56.1914111,32.8155283 56.7845391,31.9639501 L56.7845391,31.9361813 L56.8308772,31.9361813 C59.9633342,26.8174557 72.4004862,6.88867441 72.4190214,6.85164927 C72.7526559,6.37032246 73.1511638,6.27775961 73.466263,6.37957874 C73.7813622,6.48139787 74.0871938,6.77759899 74.0871938,7.5643832 L74.0871938,37.8602036 L69.3607054,37.8602036 L69.3607054,20.1806995 C69.3607054,20.1806995 66.5433476,24.9847113 61.7241829,33.2690863 C56.9976944,41.3775918 48.0729721,38.0175604 48.0729721,31.0383216 L48.0729721,20.1806995 C48.0729721,20.1806995 45.3019524,24.9847113 40.4735201,33.2690863 C38.3975723,36.8142434 35.5153411,38.1749173 32.9296739,37.9805353 Z M19.5750271,37.8602036 C-6.70795569,37.8602036 -6.45772983,0.446300136 19.9271968,0.427787566 L30.2513304,0.427787566 C34.6905225,0.427787566 37.5171479,3.04731619 37.5171479,7.89760946 L37.5171479,17.3853015 C37.5171479,17.3853015 43.3094132,7.8143029 45.5892488,4.06550752 C49.4538482,-2.31207276 58.7863459,-1.05321801 58.7585431,6.90718698 L58.7585431,17.3853015 C58.7585431,17.3853015 64.5322731,7.8143029 66.8028411,4.06550752 C70.6674404,-2.31207276 80.0277411,-1.05321801 79.9999382,6.90718698 L80,37.8694599 L75.2734498,37.8694599 L75.2734498,7.57363949 C75.2827174,6.4073476 74.6710542,5.5465131 73.8277003,5.27808084 C72.9843465,5.00039229 72.0205136,5.35213112 71.4273856,6.17594047 L71.4088504,6.17594047 L71.4088504,6.2222219 C71.4088504,6.2222219 58.9624308,26.0954655 55.7929033,31.2789851 C55.7836356,31.2882413 55.774368,31.2697288 55.7651004,31.2789851 C55.7558328,31.2789851 55.774368,31.3067539 55.7651004,31.3067539 C55.4407335,31.7417993 55.0144228,31.8343621 54.6715207,31.732543 C54.319351,31.6214676 53.9764489,31.3160102 53.9857165,30.5477385 L53.9857165,7.60140834 C53.9949841,6.44437273 53.3925885,5.53725682 52.5585024,5.25031199 C51.7244162,4.97262344 50.7698508,5.34287483 50.1859905,6.17594047 L50.1859905,6.20370933 L50.1581876,6.20370933 C50.1581876,6.20370933 37.7025004,26.1139781 34.5422405,31.2882413 C34.208606,31.7603119 33.7822953,31.8713873 33.4301256,31.7603119 C33.0779559,31.6492364 32.7350538,31.343779 32.7443214,30.5755074 L32.7443214,30.5477385 L32.7443214,7.76802147 C32.7443214,6.38883503 31.6044036,5.23179942 30.2235275,5.23179942 L19.2135898,5.23179942 C14.3758898,5.23179942 10.7151782,6.97198097 8.29632822,9.59150959 C5.87747825,12.2110382 4.6819547,15.6914013 4.6819547,19.1717644 C4.69122232,22.6428713 5.87747825,26.1510032 8.24072247,28.7705319 C10.6039667,31.3900605 14.1441992,33.130242 18.7316733,33.130242 L25.4228981,33.130242 L25.4228981,37.8694599 L19.5750271,37.8602036 Z" id="Shape" transform="translate(40.000000, 19.000000) scale(-1, 1) rotate(-180.000000) translate(-40.000000, -19.000000) "></path>
                    </g>
                </g>
            </g>
        </g>
    </g>
</svg>