<?xml version="1.0" encoding="UTF-8"?>
<svg width="99px" height="40px" viewBox="0 0 99 40" version="1.1" xmlns="http://www.w3.org/2000/svg" xmlns:xlink="http://www.w3.org/1999/xlink">
    <!-- Generator: Sketch 52 (66869) - http://www.bohemiancoding.com/sketch -->
    <title>ebay</title>
    <desc>Created with Sketch.</desc>
    <g id="Components---1440px" stroke="none" stroke-width="1" fill="none" fill-rule="evenodd" opacity="0.5">
        <g id="Customers" transform="translate(-167.000000, -97.000000)" fill="#0065F2">
            <g id="Customers-1">
                <g id="Logos" transform="translate(167.000000, 40.000000)">
                    <g id="ebay" transform="translate(0.000000, 57.000000)">
                        <path d="M12.797891,8.71769868 C5.81898067,8.71769868 0,11.701609 0,20.7118479 C0,27.8498294 3.90509666,32.3549488 12.9718805,32.3549488 C23.6432337,32.3549488 24.3198594,25.2559727 24.3198594,25.2559727 L19.1581722,25.2559727 C19.1581722,25.2559727 18.056239,29.0784983 12.6625659,29.0784983 C8.2741652,29.0784983 5.10369069,26.094588 5.10369069,21.8820088 L24.8804921,21.8820088 L24.8804921,19.2491468 C24.8804921,15.1145783 22.2706503,8.71769868 12.797891,8.71769868 Z M73.051509,13.6771733 C73.4781845,14.7091748 73.7174986,15.9435155 73.7135325,17.4158947 L73.7135325,28.3764018 C73.7135325,29.6440761 73.887522,31.6333496 73.887522,31.6333496 L69.2478032,31.6333496 C69.2478032,31.6333496 69.1318102,30.0341297 69.1318102,28.4154071 C69.1318102,28.4154071 66.7732865,32.4914676 59.4463972,32.4914676 C54.0913884,32.4914676 50.1089631,29.8781082 50.1089631,25.0804486 C50.1089631,24.8255547 50.1206927,24.5774301 50.1440884,24.3360638 C48.7487839,29.2566116 44.5739053,32.4524622 38.9349736,32.4524622 C32.3040422,32.4524622 29.8681898,28.6104339 29.8681898,28.6104339 C29.8681898,30.0536324 29.6942004,31.6528523 29.6942004,31.6528523 L24.7644991,31.6528523 C24.7644991,31.6528523 24.8804921,29.4295466 24.8804921,27.8498294 L24.8804921,1.1085991e-14 L29.9068541,0 L29.9068541,12.5402243 C29.9068541,12.5402243 32.0527241,8.79570941 38.9349736,8.79570941 C46.3005272,8.79570941 50.6502636,14.0419308 50.6502636,20.5558264 C50.6502636,21.3351165 50.5915867,22.0883126 50.4776717,22.8115693 C51.6765966,19.4596052 55.7820517,17.8059483 62.5395431,17.8059483 L68.6678383,17.8059483 L68.6678383,16.7137981 C68.6678383,13.6518771 66,12.0526572 62.5395431,12.0526572 C57.2231986,12.0526572 56.9525483,15.4461238 56.9525483,15.4461238 L51.7328647,15.4461238 C51.7328647,14.5099951 52.4094903,8.71769868 62.9068541,8.71769868 C66.4941297,8.71769868 70.4305045,9.48075219 72.4152028,12.4757154 L70.9103691,9.63432472 L76.7873462,9.63432472 L85.2355009,26.6991711 L93.6643234,9.63432472 L99,9.63432472 L83.6695958,40 L78.0826011,40 L82.5096661,31.5358362 L73.051509,13.6771733 Z M12.6239016,12.0916626 C16.7996485,12.0916626 19.6608084,14.6660166 19.6608084,18.5470502 L5.23894101,18.5470502 C5.21968366,14.4319844 8.95079086,12.0916626 12.6239016,12.0916626 Z M37.6783831,12.2281814 C32.3620387,12.2281814 29.9261863,16.479766 29.9261863,20.5753291 C29.9261863,25.0024378 32.6520211,28.9809849 37.7170475,28.9809849 C41.9507909,28.9809849 45.43058,25.6460263 45.43058,20.5363237 C45.43058,15.7776694 42.4147627,12.2281814 37.6783831,12.2281814 Z M68.6871705,21.0823988 C60.741652,21.0823988 55.3479789,21.1214042 55.3479789,25.0804486 C55.3479789,27.2647489 56.9525483,29.156509 60.7029877,29.156509 C67.5272408,29.156509 68.6871705,24.4368601 68.6871705,22.5451 L68.6871705,21.0823988 Z" id="Combined-Shape"></path>
                    </g>
                </g>
            </g>
        </g>
    </g>
</svg>