<?xml version="1.0" encoding="UTF-8"?>
<svg width="110px" height="35px" viewBox="0 0 110 35" version="1.1" xmlns="http://www.w3.org/2000/svg" xmlns:xlink="http://www.w3.org/1999/xlink">
    <!-- Generator: Sketch 52 (66869) - http://www.bohemiancoding.com/sketch -->
    <title>google</title>
    <desc>Created with Sketch.</desc>
    <g id="Components---1440px" stroke="none" stroke-width="1" fill="none" fill-rule="evenodd" opacity="0.5">
        <g id="Customers" transform="translate(-522.000000, -102.000000)" fill="#0065F2">
            <g id="Customers-1">
                <g id="Logos" transform="translate(167.000000, 40.000000)">
                    <g id="google" transform="translate(355.000000, 62.000000)">
                        <path d="M14.1240226,27.1523179 C18.2659979,27.1523179 21.3871914,25.830574 23.8305041,23.3471302 C26.345679,20.8912804 27.1265432,17.4530905 27.1265432,14.6716336 C27.1265432,13.807947 27.058642,13.0160044 26.9228395,12.3509934 L14.1240226,12.3509934 L14.1240226,16.0596026 L23.2222222,16.0596026 C22.9506173,18.1456954 22.2348251,19.6688742 21.1529321,20.7284768 C19.8265947,22.0171082 17.7578704,23.4437086 14.1240226,23.4437086 C8.52301955,23.4437086 4.14254115,19.0397351 4.14254115,13.5761589 C4.14254115,8.11258278 8.52301955,3.70584989 14.1240226,3.70584989 C17.1433642,3.70584989 19.3538323,4.86754967 20.9806327,6.35761589 L23.6635802,3.74172185 C21.3871914,1.62527594 18.3678498,0 14.1240226,0 C6.44976852,0 0,6.08995585 0,13.5761589 C0,21.0596026 6.44976852,27.1523179 14.1240226,27.1523179 Z M37.4843107,27.1523179 C42.4382716,27.1523179 46.4783951,23.4437086 46.4783951,18.4078366 C46.4783951,13.3443709 42.4382716,9.66887417 37.4843107,9.66887417 C32.5218621,9.66887417 28.4817387,13.3443709 28.4817387,18.4078366 C28.4817387,23.4437086 32.5218621,27.1523179 37.4843107,27.1523179 Z M37.4843107,23.7086093 C34.7654321,23.7086093 32.4200103,21.5231788 32.4200103,18.4078366 C32.4200103,15.2649007 34.7654321,13.1153422 37.4843107,13.1153422 C40.1975309,13.1153422 42.5401235,15.2649007 42.5401235,18.4078366 C42.5401235,21.5231788 40.1975309,23.7086093 37.4843107,23.7086093 Z M57.1049383,27.1523179 C62.0617284,27.1523179 66.1018519,23.4437086 66.1018519,18.4078366 C66.1018519,13.3443709 62.0617284,9.66887417 57.1049383,9.66887417 C52.1453189,9.66887417 48.1051955,13.3443709 48.1051955,18.4078366 C48.1051955,23.4437086 52.1453189,27.1523179 57.1049383,27.1523179 Z M57.1049383,23.7086093 C54.3888889,23.7086093 52.0434671,21.5231788 52.0434671,18.4078366 C52.0434671,15.2649007 54.3888889,13.1153422 57.1049383,13.1153422 C59.8209877,13.1153422 62.1635802,15.2649007 62.1635802,18.4078366 C62.1635802,21.5231788 59.8209877,23.7086093 57.1049383,23.7086093 Z M76.3888889,35 C81.0033436,35 84.913323,32.3537528 84.913323,25.8940397 L84.913323,10.1986755 L81.1759259,10.1986755 L81.1759259,11.6225166 L81.0401235,11.6225166 C80.1545782,10.5960265 78.4570473,9.66887417 76.3238169,9.66887417 C71.8395062,9.66887417 67.7343107,13.5099338 67.7343107,18.4437086 C67.7343107,23.3471302 71.8395062,27.1523179 76.3238169,27.1523179 C78.4570473,27.1523179 80.1545782,26.2251656 81.0401235,25.1655629 L81.1759259,25.1655629 L81.1759259,26.4238411 C81.1759259,29.7709713 79.3425926,31.5562914 76.3888889,31.5562914 C73.9812243,31.5562914 72.4845679,29.8703091 71.8706276,28.4409492 L68.4444444,29.8344371 C69.4318416,32.1550773 72.0432099,35 76.3888889,35 Z M76.6576646,23.7086093 C73.9444444,23.7086093 71.6669239,21.4928256 71.6669239,18.4437086 C71.6669239,15.3642384 73.9444444,13.1153422 76.6576646,13.1153422 C79.3425926,13.1153422 81.4475309,15.3642384 81.4475309,18.4437086 C81.4475309,21.4928256 79.3425926,23.7086093 76.6576646,23.7086093 Z M91.5648148,0.927152318 L87.6265432,0.927152318 L87.6265432,26.6225166 L91.5648148,26.6225166 L91.5648148,0.927152318 Z M102.361111,27.1523179 C106.466307,27.1523179 108.845679,24.7047461 109.830247,23.2781457 L106.771862,21.2941501 C105.756173,22.745585 104.364198,23.7086093 102.361111,23.7086093 C100.358025,23.7086093 98.9292695,22.8145695 98.0154321,21.0596026 L110,16.2224062 L109.592593,15.2317881 C108.845679,13.2781457 106.568158,9.66887417 101.919753,9.66887417 C97.3024691,9.66887417 93.4660494,13.2146799 93.4660494,18.4078366 C93.4660494,23.3112583 97.2685185,27.1523179 102.361111,27.1523179 Z M97.3703704,18.1456954 C97.2685185,14.7709713 100.052469,13.0463576 102.055556,13.0463576 C103.617284,13.0463576 104.941358,13.807947 105.385545,14.9006623 L97.3703704,18.1456954 Z" id="Shape"></path>
                    </g>
                </g>
            </g>
        </g>
    </g>
</svg>