<svg xmlns="http://www.w3.org/2000/svg" height="200" width="200" viewBox="45 -5 25 197.46"><g data-name="Layer 2"><path d="M.73 108.2l1.71 2.41 2.09-1.31-2.87-1.68-.93.58zm15.95 8.25l-7 4.37 1.7 2.41 8.17-5.1-2.87-1.68zm15.02 8.83l-13.08 8.17 1.71 2.41 14.24-8.9-2.87-1.68zm15.02 8.83l-19.15 11.97 1.7 2.41 20.32-12.7-2.87-1.68zM56.54 6.54l2.85-1.78L56.54 0v.47l-.45.27-3.35 5.57 3.8-2.37v2.6zm0 18.21l10.78-6.73-3.78-6.32-7 4.38v2.6L38.51 29.95l-3.35 5.56 21.38-13.36v2.6zm0 18.22l18.71-11.69-3.78-6.32-14.93 9.33v2.61L20.93 59.14l-3.34 5.57 38.95-24.34v2.6zm0 18.22l26.65-16.65-3.78-6.32-22.87 14.29v2.6L3.35 88.35 0 93.92l56.54-35.33v2.6zm0 18.21v2.17l11.33-7.08-2.02-.91 25.27-15.79-3.78-6.31-29.56 18.47-1.24-.56v1.33L8.8 100.56l7.12 4.22L56.54 79.4zm16.17-2.73l-16.17 10.1v2.17l-32.8 20.49 7.12 4.23 25.68-16.04v2.17l28.28-17.67-2.02-.91 16.25-10.16-3.78-6.31-20.54 12.84-2.02-.91zm40.64 18.29l-2.21-3.7-2.52 1.57-2.02-.91-50.06 31.28v2.17l-2.91 1.82 2.91 1.73 56.81-33.96m-56.81 51.23l-20.03 12.52 1.7 2.41 18.33-11.46v2.6L100.17 125l10.9-15.49-54.53 34.08v2.6zm0 18.21l-11.09 6.93 1.71 2.41 9.38-5.86v2.6l20.75-12.96 10.9-15.49-31.65 19.77v2.6zm0 18.22l-2.15 1.34 1.71 2.41.44-.28v.9l8.77-12.45-8.77 5.47v2.61zm33.12-98.33l-33.12 20.7v2.17l-17.85 11.15 7.12 4.23 10.73-6.7v2.17l45.23-28.26-2.02-.92 7.23-4.52L103.2 78l-11.52 7.2-2.02-.91z" fill="#282828" data-name="Layer 1"/></g></svg>