<?xml version="1.0" encoding="UTF-8"?>
<svg width="159px" height="22px" viewBox="0 0 159 22" version="1.1" xmlns="http://www.w3.org/2000/svg" xmlns:xlink="http://www.w3.org/1999/xlink">
    <!-- Generator: Sketch 52 (66869) - http://www.bohemiancoding.com/sketch -->
    <title>uber</title>
    <desc>Created with Sketch.</desc>
    <g id="Components---1440px" stroke="none" stroke-width="1" fill="none" fill-rule="evenodd" opacity="0.5">
        <g id="Customers" transform="translate(-1115.000000, -106.000000)" fill="#0065F2">
            <g id="Customers-1">
                <g id="Logos" transform="translate(167.000000, 40.000000)">
                    <g id="uber" transform="translate(948.000000, 66.000000)">
                        <path d="M62.0497169,19.2527066 L48.2476669,19.2432372 L48.2476669,13.1250592 C48.2476669,12.3083236 48.9435282,11.6137432 49.7689638,11.6137432 L62.0497169,11.6137432 C64.1900904,11.6137432 65.9177462,13.3229696 65.9177462,15.424229 C65.9177462,17.5491619 64.1900904,19.2579148 62.0497169,19.2579148 L62.0497169,19.2527066 Z M48.2476669,2.32852498 L62.1121045,2.34414949 C64.0557172,2.34414949 65.6298036,3.89949811 65.6298036,5.81941857 C65.6298036,7.72844921 64.0557172,9.28143049 62.1121045,9.28143049 L49.5578058,9.28143049 C49.1018967,9.31457338 48.6507866,9.41636941 48.2476669,9.58776552 L48.2476669,2.32805151 L48.2476669,2.32852498 Z M65.6537988,10.4248603 C67.0599186,9.36712854 67.9861341,7.69956755 67.9861341,5.80852876 C67.9861341,2.61260692 65.351459,0.00852245824 62.1073054,0.00852245824 L45.7488048,0.000473469902 L45.7488048,21.5703418 L62.0497169,21.5703418 C65.4858323,21.5703418 68.2692777,18.8185347 68.2692777,15.4190208 C68.2692777,13.3594268 67.2374832,11.5413023 65.6537988,10.4248603 Z M138.292126,10.8045832 C137.764231,10.8045832 137.265131,10.9106404 136.804422,11.0957672 L136.756432,2.32805151 L150.457702,2.32331681 C152.833229,2.32331681 154.757645,4.21388213 154.757645,6.56276631 C154.757645,8.90928315 152.833229,10.8121587 150.457702,10.8121587 L138.268131,10.8026893 L138.292126,10.8045832 Z M157.44511,19.2522332 C156.845229,19.7290174 155.991,19.632903 155.467904,19.0865187 L150.683257,13.0952306 C154.258545,12.9863325 157.113976,10.10006 157.113976,6.55755814 C157.113976,2.93172563 154.138569,0 150.4673,0 L134.280125,0 L134.280125,21.5717622 L136.780427,21.5717622 L136.828418,14.5440485 C136.876408,13.7609292 137.529078,13.1084877 138.340116,13.1084877 L147.549481,13.1084877 L153.52909,20.6020958 C154.906416,22.2071588 157.320335,22.4746693 159,21.1721536 L157.469105,19.2512862 L157.44511,19.2522332 Z M93.3106883,19.1021432 L93.3106883,13.2159654 C93.3106883,12.4077523 94.0065496,11.743474 94.817588,11.7283229 L105.687422,11.7283229 L105.687422,9.24734066 L94.7791957,9.24734066 C94.2739094,9.25761859 93.7753461,9.36371008 93.3106883,9.55983079 L93.3106883,2.46867207 L111.057552,2.46867207 L111.057552,0.000473469902 L90.7911903,0.000473469902 L90.7911903,21.5703418 L111.791806,21.5703418 L111.791806,19.1026167 L93.3106883,19.1026167 L93.3106883,19.1021432 Z M20.8163324,0.0525551591 L20.8163324,12.6184464 C20.8163324,16.9175531 18.7143513,19.4591395 12.4002493,19.4591395 C6.067911,19.4591395 3.9539322,16.9180265 3.9539322,12.6184464 L3.9539322,3.78539187 C3.87378817,1.69170796 2.13365488,0.00994286794 0,0.00994286794 L0,2.44831286 C0.773605863,2.44831286 1.38884328,3.04109718 1.46178875,3.78539187 L1.46178875,13.4763738 C1.46178875,18.4572772 5.42099989,21.9978851 12.3997694,21.9978851 C19.367981,21.9978851 23.3118352,18.4572772 23.3118352,13.4763738 L23.3118352,0.0535020989 L20.8163324,0.0535020989 L20.8163324,0.0525551591 Z" id="Shape"></path>
                    </g>
                </g>
            </g>
        </g>
    </g>
</svg>