<svg xmlns="http://www.w3.org/2000/svg" xmlns:xlink="http://www.w3.org/1999/xlink" viewBox="0 0 2533.56 2106.36"><script xmlns=""/><defs><style>.cls-1{opacity:0.22;}.cls-2{fill:url(#linear-gradient);}.cls-3{fill:url(#linear-gradient-2);}.cls-4,.cls-5,.cls-7{fill:none;stroke-miterlimit:10;stroke-width:3px;}.cls-4{stroke:url(#linear-gradient-3);}.cls-5{stroke:url(#linear-gradient-4);}.cls-6{fill:url(#linear-gradient-5);}.cls-7{stroke:url(#linear-gradient-6);}</style><linearGradient id="linear-gradient" x1="1999.44" y1="1515.72" x2="2438.73" y2="754.86" gradientUnits="userSpaceOnUse"><stop offset="0" stop-color="#ff1864"/><stop offset="1" stop-color="#d400a0"/></linearGradient><linearGradient id="linear-gradient-2" x1="1703.44" y1="1851.72" x2="2142.73" y2="1090.86" xlink:href="#linear-gradient"/><linearGradient id="linear-gradient-3" x1="2018.69" y1="1011.02" x2="2459.48" y2="247.56" xlink:href="#linear-gradient"/><linearGradient id="linear-gradient-4" x1="1704.69" y1="2021.02" x2="2145.48" y2="1257.56" xlink:href="#linear-gradient"/><linearGradient id="linear-gradient-5" x1="73.44" y1="847.72" x2="512.73" y2="86.86" xlink:href="#linear-gradient"/><linearGradient id="linear-gradient-6" x1="90.69" y1="1005.02" x2="531.48" y2="241.56" xlink:href="#linear-gradient"/></defs><title>bg-sub01</title><g id="Layer_2" data-name="Layer 2"><g id="Layer_1-2" data-name="Layer 1"><g class="cls-1"><path class="cls-2" d="M1944.51,850.38l145,83.74c24.68,14.25,24.69,49.87,0,64.13l-145,83.73a37,37,0,0,0-18.51,32.07v42.23a37,37,0,0,0,18.52,32.07l143.49,82.77c24.75,14.28,24.68,50-.12,64.22l-143.14,81.85a37,37,0,0,0-18.65,32.14v2.72c0,28.5,30.86,46.31,55.54,32.06l219.1-126.5a37,37,0,0,1,37,0l144.74,83.54c24.69,14.25,24.69,49.88,0,64.14l-45.79,26.44c-24.66,14.24-24.69,49.82-.06,64.1l.07,0a37,37,0,0,0,37.05.05L2493.52,1527a37,37,0,0,0,18.54-32.08v-43a37,37,0,0,0-18.52-32.07l-144.73-83.54c-24.68-14.25-24.69-49.88,0-64.13l144.64-83.53a37,37,0,0,0,18.51-32.06v-42.77a37,37,0,0,0-18.51-32.06l-144.66-83.54c-24.68-14.25-24.68-49.88,0-64.13l144.66-83.53A37,37,0,0,0,2512,818.51h0c0-28.5-30.86-46.32-55.55-32.06L2237.74,912.73a37.05,37.05,0,0,1-37,0L2056.08,829.2c-24.68-14.25-24.68-49.88,0-64.13l48.45-28c24.69-14.24,24.7-49.88,0-64.13h0a37.05,37.05,0,0,0-37,0l-122.94,70.77a37,37,0,0,0-18.56,32l0,42.52A37,37,0,0,0,1944.51,850.38Zm111.57,252.77,144.63-83.52a37,37,0,0,1,37,0L2382.13,1103c24.74,14.29,24.67,50-.13,64.2l-145.25,83.11a37,37,0,0,1-36.89-.07l-143.77-83C2031.4,1153,2031.4,1117.4,2056.08,1103.15Z"/></g><g class="cls-1"><path class="cls-3" d="M1648.51,1186.38l145,83.74c24.68,14.25,24.69,49.87,0,64.13l-145,83.73a37,37,0,0,0-18.51,32.07v42.23a37,37,0,0,0,18.52,32.07l143.49,82.77c24.75,14.28,24.68,50-.12,64.22l-143.14,81.85a37,37,0,0,0-18.65,32.14v2.72c0,28.5,30.86,46.31,55.54,32.06l219.1-126.5a37,37,0,0,1,37,0l144.74,83.54c24.69,14.25,24.69,49.88,0,64.14l-45.79,26.44c-24.66,14.24-24.69,49.82-.06,64.1l.07,0a37,37,0,0,0,37.05.05L2197.52,1863a37,37,0,0,0,18.54-32.08v-43a37,37,0,0,0-18.52-32.07l-144.73-83.54c-24.68-14.25-24.69-49.88,0-64.13l144.64-83.53a37,37,0,0,0,18.51-32.06v-42.77a37,37,0,0,0-18.51-32.06l-144.66-83.54c-24.68-14.25-24.68-49.88,0-64.13l144.66-83.53a37,37,0,0,0,18.51-32.07h0c0-28.5-30.86-46.32-55.55-32.06l-218.67,126.28a37.05,37.05,0,0,1-37,0l-144.63-83.53c-24.68-14.25-24.68-49.88,0-64.13l48.45-28c24.69-14.24,24.7-49.88,0-64.13h0a37.05,37.05,0,0,0-37,0l-122.94,70.77a37,37,0,0,0-18.56,32l0,42.52A37,37,0,0,0,1648.51,1186.38Zm111.57,252.77,144.63-83.52a37,37,0,0,1,37,0L2086.13,1439c24.74,14.29,24.67,50-.13,64.2l-145.25,83.11a37,37,0,0,1-36.89-.07l-143.77-83C1735.4,1489,1735.4,1453.4,1760.08,1439.15Z"/></g><g class="cls-1"><path class="cls-4" d="M1964.51,344.38l145,83.74c24.68,14.25,24.69,49.87,0,64.13l-145,83.73a37,37,0,0,0-18.51,32.07v42.23a37,37,0,0,0,18.52,32.07l143.49,82.77c24.75,14.28,24.68,50-.12,64.22l-143.14,81.85a37,37,0,0,0-18.65,32.14v2.72c0,28.5,30.86,46.31,55.54,32.06l219.1-126.5a37,37,0,0,1,37,0l144.74,83.54c24.69,14.25,24.69,49.88,0,64.14l-45.79,26.44c-24.66,14.24-24.69,49.82-.06,64.1l.07,0a37,37,0,0,0,37.05.05L2513.52,1021a37,37,0,0,0,18.54-32.08V945.94a37,37,0,0,0-18.52-32.07l-144.73-83.54c-24.68-14.25-24.69-49.88,0-64.13l144.64-83.53A37,37,0,0,0,2532,650.61V607.84a37,37,0,0,0-18.51-32.06l-144.66-83.54c-24.68-14.25-24.68-49.88,0-64.13l144.66-83.53A37,37,0,0,0,2532,312.51h0c0-28.5-30.86-46.32-55.55-32.06L2257.74,406.73a37.05,37.05,0,0,1-37,0L2076.08,323.2c-24.68-14.25-24.68-49.88,0-64.13l48.45-28c24.69-14.24,24.7-49.88,0-64.13h0a37.05,37.05,0,0,0-37,0l-122.94,70.77a37,37,0,0,0-18.56,32l0,42.52A37,37,0,0,0,1964.51,344.38Zm111.57,252.77,144.63-83.52a37,37,0,0,1,37,0L2402.13,597c24.74,14.29,24.67,50-.13,64.2l-145.25,83.11a37,37,0,0,1-36.89-.07l-143.77-83C2051.4,647,2051.4,611.4,2076.08,597.15Z"/></g><g class="cls-1"><path class="cls-5" d="M1650.51,1354.38l145,83.74c24.68,14.25,24.69,49.87,0,64.13l-145,83.73a37,37,0,0,0-18.51,32.07v42.23a37,37,0,0,0,18.52,32.07l143.49,82.77c24.75,14.28,24.68,50-.12,64.22l-143.14,81.85a37,37,0,0,0-18.65,32.14v2.72c0,28.5,30.86,46.31,55.54,32.06l219.1-126.5a37,37,0,0,1,37,0l144.74,83.54c24.69,14.25,24.69,49.88,0,64.14l-45.79,26.44c-24.66,14.24-24.69,49.82-.06,64.1l.07,0a37,37,0,0,0,37.05,0L2199.52,2031a37,37,0,0,0,18.54-32.08v-43a37,37,0,0,0-18.52-32.07l-144.73-83.54c-24.68-14.25-24.69-49.88,0-64.13l144.64-83.53a37,37,0,0,0,18.51-32.06v-42.77a37,37,0,0,0-18.51-32.06l-144.66-83.54c-24.68-14.25-24.68-49.88,0-64.13l144.66-83.53a37,37,0,0,0,18.51-32.07h0c0-28.5-30.86-46.32-55.55-32.06l-218.67,126.28a37.05,37.05,0,0,1-37,0l-144.63-83.53c-24.68-14.25-24.68-49.88,0-64.13l48.45-28c24.69-14.24,24.7-49.88,0-64.13h0a37.05,37.05,0,0,0-37,0l-122.94,70.77a37,37,0,0,0-18.56,32l0,42.52A37,37,0,0,0,1650.51,1354.38Zm111.57,252.77,144.63-83.52a37,37,0,0,1,37,0L2088.13,1607c24.74,14.29,24.67,50-.13,64.2l-145.25,83.11a37,37,0,0,1-36.89-.07l-143.77-83C1737.4,1657,1737.4,1621.4,1762.08,1607.15Z"/></g><g class="cls-1"><path class="cls-6" d="M18.51,182.38l145,83.74c24.68,14.25,24.69,49.87,0,64.13L18.59,414A37,37,0,0,0,.08,446.05v42.23A37,37,0,0,0,18.6,520.35l143.49,82.77c24.75,14.28,24.68,50-.12,64.22L18.83,749.19A37,37,0,0,0,.18,781.33v2.72c0,28.5,30.86,46.31,55.54,32.06l219.1-126.5a37,37,0,0,1,37,0l144.74,83.54c24.69,14.25,24.69,49.88,0,64.14L410.8,863.73c-24.66,14.24-24.69,49.82-.06,64.1l.07,0a37,37,0,0,0,37.05,0L567.52,859a37,37,0,0,0,18.54-32.08V783.94a37,37,0,0,0-18.52-32.07L422.81,668.33c-24.68-14.25-24.69-49.88,0-64.13l144.64-83.53A37,37,0,0,0,586,488.61V445.84a37,37,0,0,0-18.51-32.06L422.79,330.24c-24.68-14.25-24.68-49.88,0-64.13l144.66-83.53A37,37,0,0,0,586,150.51h0c0-28.5-30.86-46.32-55.55-32.06L311.74,244.73a37.05,37.05,0,0,1-37,0L130.08,161.2c-24.68-14.25-24.68-49.88,0-64.13l48.45-28c24.69-14.24,24.7-49.88,0-64.13h0a37.05,37.05,0,0,0-37,0L18.61,75.71a37,37,0,0,0-18.56,32l0,42.52A37,37,0,0,0,18.51,182.38ZM130.08,435.15l144.63-83.52a37,37,0,0,1,37,0L456.13,435c24.74,14.29,24.67,50-.13,64.2L310.75,582.32a37,37,0,0,1-36.89-.07l-143.77-83C105.4,485,105.4,449.4,130.08,435.15Z"/></g><g class="cls-1"><path class="cls-7" d="M36.51,338.38l145,83.74c24.68,14.25,24.69,49.87,0,64.13L36.59,570a37,37,0,0,0-18.51,32.07v42.23A37,37,0,0,0,36.6,676.35l143.49,82.77c24.75,14.28,24.68,50-.12,64.22L36.83,905.19a37,37,0,0,0-18.65,32.14v2.72c0,28.5,30.86,46.31,55.54,32.06l219.1-126.5a37,37,0,0,1,37,0l144.74,83.54c24.69,14.25,24.69,49.88,0,64.14l-45.79,26.44c-24.66,14.24-24.69,49.82-.06,64.1l.07,0a37,37,0,0,0,37.05.05L585.52,1015a37,37,0,0,0,18.54-32.08V939.94a37,37,0,0,0-18.52-32.07L440.81,824.33c-24.68-14.25-24.69-49.88,0-64.13l144.64-83.53A37,37,0,0,0,604,644.61V601.84a37,37,0,0,0-18.51-32.06L440.79,486.24c-24.68-14.25-24.68-49.88,0-64.13l144.66-83.53A37,37,0,0,0,604,306.51h0c0-28.5-30.86-46.32-55.55-32.06L329.74,400.73a37.05,37.05,0,0,1-37,0L148.08,317.2c-24.68-14.25-24.68-49.88,0-64.13l48.45-28c24.69-14.24,24.7-49.88,0-64.13h0a37.05,37.05,0,0,0-37,0L36.61,231.71a37,37,0,0,0-18.56,32L18,306.27A37,37,0,0,0,36.51,338.38ZM148.08,591.15l144.63-83.52a37,37,0,0,1,37,0L474.13,591c24.74,14.29,24.67,50-.13,64.2L328.75,738.32a37,37,0,0,1-36.89-.07l-143.77-83C123.4,641,123.4,605.4,148.08,591.15Z"/></g></g></g></svg>