<svg xmlns="http://www.w3.org/2000/svg" xmlns:xlink="http://www.w3.org/1999/xlink" version="1.1" fill-rule="evenodd" fill="none" stroke="none" stroke-linecap="square" stroke-miterlimit="10" overflow="hidden" viewBox="79629 762 164592 123063"><rect fill="#ffffff" fill-opacity="0" width="100%" height="100%"></rect><g transform="translate(79629 762) scale(0.4513888888888889)"><defs cursor="default"><filter id="shadowFilter-e5_1274" filterUnits="userSpaceOnUse" x="123495.3776" y="15175.061399999991" width="135216" height="135216"><feGaussianBlur in="SourceAlpha" stdDeviation="762" result="blur"></feGaussianBlur><feComponentTransfer color-interpolation-filters="sRGB"><feFuncR type="linear" slope="0" intercept="0"></feFuncR><feFuncG type="linear" slope="0" intercept="0"></feFuncG><feFuncB type="linear" slope="0" intercept="0"></feFuncB><feFuncA type="linear" slope="0.5" intercept="0"></feFuncA></feComponentTransfer></filter><filter id="shadowFilter-e5_1313" filterUnits="userSpaceOnUse" x="105633.0153" y="15175.061399999988" width="170927.99999999997" height="170940.00000000003"><feGaussianBlur in="SourceAlpha" stdDeviation="762" result="blur"></feGaussianBlur><feComponentTransfer color-interpolation-filters="sRGB"><feFuncR type="linear" slope="0" intercept="0"></feFuncR><feFuncG type="linear" slope="0" intercept="0"></feFuncG><feFuncB type="linear" slope="0" intercept="0"></feFuncB><feFuncA type="linear" slope="0.5" intercept="0"></feFuncA></feComponentTransfer></filter><filter id="shadowFilter-e5_1321" filterUnits="userSpaceOnUse" x="88715.1637" y="15175.061299999983" width="204768.00000000003" height="204768.00000000003"><feGaussianBlur in="SourceAlpha" stdDeviation="762" result="blur"></feGaussianBlur><feComponentTransfer color-interpolation-filters="sRGB"><feFuncR type="linear" slope="0" intercept="0"></feFuncR><feFuncG type="linear" slope="0" intercept="0"></feFuncG><feFuncB type="linear" slope="0" intercept="0"></feFuncB><feFuncA type="linear" slope="0.5" intercept="0"></feFuncA></feComponentTransfer></filter><filter id="shadowFilter-e5_1329" filterUnits="userSpaceOnUse" x="154979.0642" y="188429.2022" width="72240" height="72240"><feGaussianBlur in="SourceAlpha" stdDeviation="762" result="blur"></feGaussianBlur><feComponentTransfer color-interpolation-filters="sRGB"><feFuncR type="linear" slope="0" intercept="0"></feFuncR><feFuncG type="linear" slope="0" intercept="0"></feFuncG><feFuncB type="linear" slope="0" intercept="0"></feFuncB><feFuncA type="linear" slope="0.5" intercept="0"></feFuncA></feComponentTransfer></filter></defs><g id="editor-g5b57a7c8a7_0_0"><path fill="#fff" fill-opacity="1" d="M 0 0 L 365760 0 365760 274320 0 274320 Z"></path><g id="editor-g5b57a7c8a7_0_0-bg"><g><g><path d="M 0 0 L 365760 0 365760 274320 0 274320 Z"></path></g></g></g><g id="editor-g5b57a7c8a7_0_107"><g><g><g><g><g><clipPath id="e5_1059"><path d="M 336608 251871.3344 L 360950.96 251871.3344 360950.96 262866.1808 336608 262866.1808 Z"></path></clipPath><g clip-path="url(#e5_1059)"><image fill="#000000" width="200" height="92" preserveAspectRatio="none" transform="matrix(121.7148,0,0,121.7201202,336608,251770.18181312)" x="0" y="0" xlink:href="https://lh6.googleusercontent.com/R6mR5unf0GJ_LmIByKHaMN38FaD4ZHmN94Qzsm7XK-va9Ljp9JlST1NXix3nlK5hpV2Bw5cox-Z5ayZneoBov3PqjtcZlZA720iaCVMmMQCdvq72Kdtg3RZDT6M8tg8v4vH5EHnS8Zk"></image></g></g></g></g></g></g></g><g id="editor-g5b57a7c8a7_0_140"><g id="shapeWithShadow-192"><g filter="url(#shadowFilter-e5_1329)"><use transform="matrix(1,0,0,1,0,762)" visibility="hidden" pointer-events="none" xlink:href="#192"></use></g><g id="192"><g></g><g><path fill="#FF1864" fill-opacity="1" visibility="visible" d="M 157265.0642 223787.2022 C 157265.0642 205101.19997422493 172413.06197422493 189953.2022 191099.0642 189953.2022 200072.39891723113 189953.2022 208678.20920625483 193517.84553692353 215023.31503466563 199862.95136533433 221368.42086307646 206208.05719374513 224933.0642 214813.86748276887 224933.0642 223787.2022 224933.0642 242473.20442577504 209785.06642577506 257621.2022 191099.0642 257621.2022 172413.06197422493 257621.2022 157265.0642 242473.20442577507 157265.0642 223787.2022 Z"></path></g><g><g direction="ltr" style="opacity: 1;"><g transform="matrix(381,0,0,381,170831.81336533435,216548.2022)"><g pointer-events="none"><g id="editor-g5b57a7c8a7_0_140-paragraph-0"><g><g class="sketchy-text-background" visibility="visible"></g><g></g><g class="sketchy-text-content" visibility="visible"></g></g></g></g><rect style="opacity: 0;"></rect><rect style="opacity: 1;"></rect></g><g><path d="M 170831.81336533435 216548.2022 L 170831.81336533435 216548.2022 170831.81336533435 231178.6022 170831.81336533435 231178.6022 Z" pointer-events="visiblePainted" fill="#000000" stroke="#000000" opacity="0"></path></g><g transform="matrix(381,0,0,381,170831.81336533435,216548.2022)"></g></g></g></g></g></g><g id="editor-g5b57a7c8a7_0_141"><g id="shapeWithShadow-191"><g filter="url(#shadowFilter-e5_1321)"><use transform="matrix(1,0,0,1,0,761.9998999999953)" visibility="hidden" pointer-events="none" xlink:href="#191"></use></g><g id="191"><g></g><g><path fill="#595959" fill-opacity="1" visibility="visible" d="M 91001.1637 116797.0614 C 91001.1637 61514.46251143725 135816.56481143722 16699.0614 191099.16369999998 16699.061399999988 217646.80389995864 16699.061399999988 243107.12187331964 27245.070406897576 261879.13828321104 46017.08681678893 280651.1546931024 64789.1032266803 291197.16370000003 90249.42120004131 291197.16370000003 116797.06139999998 291197.16370000003 172079.66028856274 246381.76258856276 216895.0614 191099.1637 216895.0614 135816.56481143727 216895.0614 91001.16370000002 172079.66028856277 91001.1637 116797.0614 Z"></path></g><g><g direction="ltr" style="opacity: 1;"><g transform="matrix(381,0,0,381,123976.18911678897,109558.0614)"><g pointer-events="none"><g id="editor-g5b57a7c8a7_0_141-paragraph-0"><g><g class="sketchy-text-background" visibility="visible"></g><g></g><g class="sketchy-text-content" visibility="visible"></g></g></g></g><rect style="opacity: 0;"></rect><rect style="opacity: 1;"></rect></g><g><path d="M 123976.18911678897 109558.0614 L 123976.18911678897 109558.0614 123976.18911678897 124188.4614 123976.18911678897 124188.4614 Z" pointer-events="visiblePainted" fill="#000000" stroke="#000000" opacity="0"></path></g><g transform="matrix(381,0,0,381,123976.18911678897,109558.0614)"></g></g></g></g></g></g><g id="editor-g5b57a7c8a7_0_142"><g id="shapeWithShadow-190"><g filter="url(#shadowFilter-e5_1313)"><use transform="matrix(1,0,0,1,0,762)" visibility="hidden" pointer-events="none" xlink:href="#190"></use></g><g id="190"><g></g><g><path fill="#ADADAD" fill-opacity="1" visibility="visible" d="M 107919.0153 99883.0614 C 107919.0153 53941.80677007529 145159.07437857427 16699.0614 191097.01529999997 16699.061399999988 213157.19249187357 16699.061399999988 234313.84225898405 25463.0648089569 249912.74314553465 41063.0909137782 265511.6440320853 56663.11701859952 274275.01529999997 77821.29290918737 274275.01529999997 99883.0614 274275.01529999997 145824.31602992472 237034.95622142576 183067.0614 191097.01530000003 183067.0614 145159.07437857427 183067.0614 107919.01530000001 145824.31602992475 107919.0153 99883.0614 Z"></path></g><g><g direction="ltr" style="opacity: 1;"><g transform="matrix(380.99999999999994,0,0,381.00000000000006,135938.28745446535,92644.0614)"><g pointer-events="none"><g id="editor-g5b57a7c8a7_0_142-paragraph-0"><g><g class="sketchy-text-background" visibility="visible"></g><g></g><g class="sketchy-text-content" visibility="visible"></g></g></g></g><rect style="opacity: 0;"></rect><rect style="opacity: 1;"></rect></g><g><path d="M 135938.28745446535 92644.0614 L 135938.28745446535 92644.0614 135938.28745446535 107274.4614 135938.28745446535 107274.4614 Z" pointer-events="visiblePainted" fill="#000000" stroke="#000000" opacity="0"></path></g><g transform="matrix(380.99999999999994,0,0,381.00000000000006,135938.28745446535,92644.0614)"></g></g></g></g></g></g><g id="editor-g5b57a7c8a7_0_143"><g><g></g><g><path d="M 157265.0642 220575.6081 L 224933.0642 220575.6081 224933.0642 241623.6081 157265.0642 241623.6081 Z"></path></g><g><path fill="#000" fill-opacity="0" stroke="#000" stroke-opacity="0" stroke-width="8440.615384615385" stroke-linecap="round" stroke-linejoin="round" stroke-miterlimit="10" pointer-events="visiblePainted" d="M 157265.0642 220575.6081 L 224933.0642 220575.6081 224933.0642 241623.6081 157265.0642 241623.6081 Z"></path></g><g><g direction="ltr" style="opacity: 1;"><g transform="matrix(381,0,0,381,160922.0642,224232.6081)"><g pointer-events="none"><g id="editor-g5b57a7c8a7_0_143-paragraph-0"><g><g class="sketchy-text-background" visibility="visible"></g><g><g></g></g><g class="sketchy-text-content" visibility="visible"><g class="sketchy-text-content-text" transform="translate(0 30.72)"><text x="34.51538954006405px" style="font-family:docs-Roboto;font-size:32px;fill:#FFFFFF;font-weight:700;white-space:pre;" y="0px" text-rendering="geometricPrecision">libp2p</text></g></g></g></g></g><rect style="opacity: 0;" x="107.10930050474485" y="37.715280812055084" width="4.430769230769231" height="38.4" fill="#FFFFFF" transform="" shape-rendering="crispEdges" class=""></rect><rect style="opacity: 0;"></rect></g><g><path d="M 174072.4276147644 224232.6081 L 208125.7007852356 224232.6081 208125.7007852356 238863.0081 174072.4276147644 238863.0081 Z" pointer-events="visiblePainted" fill="#000000" stroke="#000000" opacity="0"></path></g><g transform="matrix(381,0,0,381,160922.0642,224232.6081)"></g></g></g></g></g><g id="editor-g5b57a7c8a7_0_144"><g><g></g><g><path d="M 147541.7856 186489.4758 L 234661.7856 186489.4758 234661.7856 207537.4758 147541.7856 207537.4758 Z"></path></g><g><path fill="#000" fill-opacity="0" stroke="#000" stroke-opacity="0" stroke-width="8440.615384615385" stroke-linecap="round" stroke-linejoin="round" stroke-miterlimit="10" pointer-events="visiblePainted" d="M 147541.7856 186489.4758 L 234661.7856 186489.4758 234661.7856 207537.4758 147541.7856 207537.4758 Z"></path></g><g><g direction="ltr" style="opacity: 1;"><g transform="matrix(381,0,0,381,151198.7856,190146.4758)"><g pointer-events="none"><g id="editor-g5b57a7c8a7_0_144-paragraph-0"><g><g class="sketchy-text-background" visibility="visible"></g><g></g><g class="sketchy-text-content" visibility="visible"><g class="sketchy-text-content-text" transform="translate(0 30.72)"><text x="11.582953325406763px" style="font-family:docs-Roboto;font-size:32px;fill:#FFFFFF;font-weight:700;white-space:pre;" y="0px" text-rendering="geometricPrecision">CONSENSUS</text></g></g></g></g></g><rect style="opacity: 0;"></rect><rect style="opacity: 1;"></rect></g><g><path d="M 170399.34721880493 190146.4758 L 211804.22398119507 190146.4758 211804.22398119507 198680.87579999998 170399.34721880493 198680.87579999998 Z" pointer-events="visiblePainted" fill="#000000" stroke="#000000" opacity="0"></path></g><g transform="matrix(381,0,0,381,151198.7856,190146.4758)"></g></g></g></g></g><g id="editor-g5b57a7c8a7_0_145"><g><g></g><g><path d="M 139301.2729 149858.5002 L 242909.2729 149858.5002 242909.2729 170906.5002 139301.2729 170906.5002 Z"></path></g><g><path fill="#000" fill-opacity="0" stroke="#000" stroke-opacity="0" stroke-width="8440.615384615385" stroke-linecap="round" stroke-linejoin="round" stroke-miterlimit="10" pointer-events="visiblePainted" d="M 139301.2729 149858.5002 L 242909.2729 149858.5002 242909.2729 170906.5002 139301.2729 170906.5002 Z"></path></g><g><g direction="ltr" style="opacity: 1;"><g transform="matrix(380.99999999999994,0,0,381,142958.2729,153515.5002)"><g pointer-events="none"><g id="editor-g5b57a7c8a7_0_145-paragraph-0"><g><g class="sketchy-text-background" visibility="visible"></g><g></g><g class="sketchy-text-content" visibility="visible"><g class="sketchy-text-content-text" transform="translate(0 30.72)"><text x="13.128745732344967px" style="font-family:docs-Roboto;font-size:32px;fill:#303030;font-weight:700;white-space:pre;" y="0px" text-rendering="geometricPrecision">WEBASSEMBLY</text></g></g></g></g></g><rect style="opacity: 0;"></rect><rect style="opacity: 1;"></rect></g><g><path d="M 165937.3876079468 153515.5002 L 216273.1581920532 153515.5002 216273.1581920532 162049.9002 165937.3876079468 162049.9002 Z" pointer-events="visiblePainted" fill="#000000" stroke="#000000" opacity="0"></path></g><g transform="matrix(380.99999999999994,0,0,381,142958.2729,153515.5002)"></g></g></g></g></g><g id="editor-g5b57a7c8a7_0_146"><g id="shapeWithShadow-189"><g filter="url(#shadowFilter-e5_1274)"><use transform="matrix(1,0,0,1,0,762)" visibility="hidden" pointer-events="none" xlink:href="#189"></use></g><g id="189"><g></g><g><path fill="#EEEEEE" fill-opacity="1" visibility="visible" d="M 125781.3776 82021.0614 C 125781.3776 45944.716971552916 155027.0331715529 16699.0614 191103.3776 16699.06139999999 208427.84914929868 16699.06139999999 225042.75544768514 23581.18092634981 237293.00676066766 35831.432239332324 249543.25807365018 48081.68355231484 256425.3776 64696.5898507013 256425.3776 82021.06139999999 256425.3776 118097.40582844705 227179.7220284471 147343.0614 191103.3776 147343.0614 155027.03317155293 147343.0614 125781.37760000002 118097.40582844711 125781.3776 82021.0614 Z"></path></g><g><g direction="ltr" style="opacity: 1;"><g transform="matrix(381,0,0,381,148570.74843933235,74782.0614)"><g pointer-events="none"><g id="editor-g5b57a7c8a7_0_146-paragraph-0"><g><g class="sketchy-text-background" visibility="visible"></g><g></g><g class="sketchy-text-content" visibility="visible"><g class="sketchy-text-content-text" transform="translate(0 30.72)"><text x="0px" style="font-family:Arial;font-size:32px;fill:#F3F3F3;white-space:pre;" y="0px" text-rendering="geometricPrecision">5</text></g></g></g></g></g><rect style="opacity: 0;"></rect><rect style="opacity: 1;"></rect></g><g><path d="M 148570.74843933235 74782.0614 L 155351.53222229134 74782.0614 155351.53222229134 89412.4614 148570.74843933235 89412.4614 Z" pointer-events="visiblePainted" fill="#000000" stroke="#000000" opacity="0"></path></g><g transform="matrix(381,0,0,381,148570.74843933235,74782.0614)"></g></g></g></g></g></g><g id="editor-g5b57a7c8a7_0_147"><g><g></g><g><path d="M 147540.7875 64684.5615 L 234660.7875 64684.5615 234660.7875 99352.56150000001 147540.7875 99352.56150000001 Z"></path></g><g><path fill="#000" fill-opacity="0" stroke="#000" stroke-opacity="0" stroke-width="8440.615384615385" stroke-linecap="round" stroke-linejoin="round" stroke-miterlimit="10" pointer-events="visiblePainted" d="M 147540.7875 64684.5615 L 234660.7875 64684.5615 234660.7875 99352.56150000001 147540.7875 99352.56150000001 Z"></path></g><g><g direction="ltr" style="opacity: 1;"><g transform="matrix(381,0,0,381,151197.7875,68341.56150000001)"><g pointer-events="none"><g id="editor-g5b57a7c8a7_0_147-paragraph-0"><g><g class="sketchy-text-background" visibility="visible"></g><g></g><g class="sketchy-text-content" visibility="visible"><g class="sketchy-text-content-text" transform="translate(0 30.72)"><text x="28.952284685270044px" style="font-family:docs-Roboto;font-size:32px;fill:#303030;font-weight:700;white-space:pre;" y="0px" text-rendering="geometricPrecision">MODULAR</text></g></g></g></g><g id="editor-g5b57a7c8a7_0_147-paragraph-1" transform="translate(0, 38)"><g><g class="sketchy-text-background" visibility="visible"></g><g></g><g class="sketchy-text-content" visibility="visible"><g class="sketchy-text-content-text" transform="translate(0 30.72)"><text x="35.34162031759426px" style="font-family:docs-Roboto;font-size:32px;fill:#303030;font-weight:700;white-space:pre;" y="0px" text-rendering="geometricPrecision">RUNTIME</text></g></g></g></g></g><rect style="opacity: 0;"></rect><rect style="opacity: 1;"></rect></g><g><path d="M 174258.68325576783 68341.56150000001 L 207942.89174423218 68341.56150000001 207942.89174423218 85257.9615 174258.68325576783 85257.9615 Z" pointer-events="visiblePainted" fill="#000000" stroke="#000000" opacity="0"></path></g><g transform="matrix(381,0,0,381,151197.7875,68341.56150000001)"></g></g></g></g></g></g></g></svg>