<?xml version="1.0" encoding="UTF-8" standalone="no"?><!DOCTYPE svg PUBLIC "-//W3C//DTD SVG 1.1//EN" "http://www.w3.org/Graphics/SVG/1.1/DTD/svg11.dtd"><svg width="100%" height="100%" viewBox="0 0 100 100" version="1.1" xmlns="http://www.w3.org/2000/svg" xmlns:xlink="http://www.w3.org/1999/xlink" xml:space="preserve" xmlns:serif="http://www.serif.com/" style="fill-rule:evenodd;clip-rule:evenodd;stroke-linejoin:round;stroke-miterlimit:1.41421;"><rect id="Artboard1" x="0" y="0" width="100" height="100" style="fill:none;"/><clipPath id="_clip1"><rect id="Artboard11" serif:id="Artboard1" x="0" y="0" width="100" height="100"/></clipPath><g clip-path="url(#_clip1)"><path d="M20.559,19.557l15.545,8.998c1.232,0.705 1.994,2.02 1.994,3.44c0,1.419 -0.762,2.735 -1.994,3.44l-15.539,8.998c-1.227,0.709 -1.985,2.023 -1.985,3.44l0,4.525c0,1.416 0.758,2.728 1.985,3.435l15.38,8.876c1.232,0.705 1.995,2.021 1.995,3.44c0,1.42 -0.763,2.735 -1.995,3.441l-15.349,8.775c-1.236,0.705 -2.001,2.023 -2,3.446l0,0.291c0.036,2.151 1.816,3.902 3.969,3.902c0.688,0 1.365,-0.18 1.964,-0.52l23.505,-13.566c1.226,-0.708 2.743,-0.708 3.969,0l15.513,8.956c1.229,0.707 1.989,2.022 1.989,3.44c0,1.418 -0.76,2.733 -1.989,3.44l-4.88,2.832c-1.232,0.705 -1.994,2.021 -1.994,3.44c0,1.42 0.762,2.735 1.994,3.44c1.226,0.712 2.744,0.712 3.97,0l12.824,-7.409c1.23,-0.708 1.99,-2.022 1.99,-3.441l0,-4.604c-0.001,-1.416 -0.759,-2.728 -1.985,-3.435l-15.539,-8.934c-1.229,-0.708 -1.989,-2.022 -1.989,-3.441c0,-1.418 0.76,-2.732 1.989,-3.44l15.502,-8.95c1.227,-0.709 1.985,-2.023 1.985,-3.44l0,-4.584c-0.001,-1.415 -0.759,-2.727 -1.985,-3.435l-15.502,-8.955c-1.232,-0.705 -1.994,-2.021 -1.994,-3.44c0,-1.42 0.762,-2.735 1.994,-3.44l15.502,-8.956c1.227,-0.709 1.985,-2.023 1.985,-3.44c-0.001,-2.177 -1.793,-3.967 -3.969,-3.967c-0.697,0 -1.382,0.184 -1.985,0.532l-23.436,13.533c-1.227,0.709 -2.743,0.709 -3.97,0l-15.502,-8.934c-1.229,-0.707 -1.989,-2.022 -1.989,-3.44c0,-1.418 0.76,-2.733 1.989,-3.44l5.192,-2.996c1.229,-0.707 1.989,-2.022 1.989,-3.44c0,-1.418 -0.76,-2.733 -1.989,-3.44c-1.225,-0.707 -2.739,-0.707 -3.964,0l-13.179,7.589c-1.227,0.708 -1.987,2.019 -1.99,3.435l0,4.557c-0.003,1.418 0.753,2.734 1.979,3.446Zm11.962,27.093l15.502,-8.955c1.227,-0.708 2.743,-0.708 3.97,0l15.476,8.939c1.229,0.708 1.989,2.023 1.989,3.441c0,1.418 -0.76,2.732 -1.989,3.44l-15.566,8.908c-1.225,0.703 -2.735,0.703 -3.959,0l-15.407,-8.892c-1.234,-0.706 -1.997,-2.023 -1.997,-3.445c0,-1.415 0.756,-2.727 1.981,-3.436Z" style="fill-rule:nonzero;"/></g></svg>