<svg xmlns="http://www.w3.org/2000/svg"><defs><font horiz-adv-x="1064" id="ywftsvg"><font-face ascent="1638" bbox="-407.224 -774 2138 1958" cap-height="1434" descent="-410" font-weight="700" panose-1="0 0 8 0 0 0 0 0 0 0" underline-position="0" underline-thickness="0" unicode-range="U+0020-FB02" units-per-em="2048" x-height="1024"/><glyph d="M1122 993V31q0-31-30-31H926q-31 0-31 31v788H449V31q0-31-31-31H252q-31 0-31 31v788H113q-31 0-31 31v143q0 31 31 31h108v119q0 344 332 344h125q31 0 31-31v-149q0-31-31-31H553q-104 0-104-131v-121h643q30 0 30-31zm-196 217q-31 0-31 31v162q0 31 31 31h166q31 0 30-31v-162q0-31-30-31H926z" glyph-name="uniFB01" horiz-adv-x="1265" unicode="fi"/><glyph d="M1102 1487V31q0-31-31-31H905q-31 0-31 31v1245H553q-104 0-104-131v-121h208q31 0 31-31V850q0-31-31-31H449V31q0-31-31-31H252q-31 0-31 31v788H113q-31 0-31 31v143q0 31 31 31h108v119q0 344 332 344h549z" glyph-name="uniFB02" horiz-adv-x="1224" unicode="fl"/><glyph d="M1313 819h-146V309q0-59 30-81.5t106-26.5q39-2 38-43l-6-123q-4-39-49-39-199 0-272.5 73.5T940 311v508H449V31q0-31-31-31H252q-31 0-31 31v788H113q-31 0-31 31v143q0 31 31 31h108v119q0 344 332 344h125q31 0 31-31v-149q0-31-31-31H553q-104 0-104-131v-121h491v131q0 31 31 31h166q31 0 30-31v-131h146q31 0 30-31V850q1-31-30-31z" glyph-name="f_t.liga" horiz-adv-x="1425" unicode="ft"/><glyph d="M840 1638V-410H190v2048h650zm-158-137H344v-67h133v-76H342v-68h340v68H547v76h135v67zm-135-264H342v-213h340v70H547v143zm-70-70v-73h-67v73h67zm205-198H342v-68h135v-76H342v-67h205v143h135v68zm0-123h-68V711H342v-70h340v205zm0-250H477V481h70v47h67v-96H410v164h-68V365h340v231zm0-354H342V10h340v232zm-68-68V78H410v96h204zm68-211H342v-67h143l-143-97v-67h340v67H473l143 97h66v67z" glyph-name=".notdef" horiz-adv-x="1024"/><glyph glyph-name="glyph1" horiz-adv-x="0"/><glyph glyph-name="glyph2" horiz-adv-x="681"/><glyph glyph-name="space" horiz-adv-x="614"/><glyph d="M164 1403q0 31 31 31h172q31 0 30-31V522q0-31-30-30H195q-31 0-31 30v881zM154 227q0 31 30 31h193q31 0 31-31V31q0-31-31-31H184q-31 0-30 31v196z" glyph-name="exclam" horiz-adv-x="561" unicode="!"/><glyph d="M133 1403q0 31 31 31h166q31 0 30-31V877q0-31-30-31H164q-31 0-31 31v526zm436 0q0 31 31 31h166q31 0 31-31V877q0-31-31-31H600q-31 0-31 31v526z" glyph-name="quotedbl" horiz-adv-x="929" unicode="&quot;"/><glyph d="M1047 881H922V635h125q31 0 30-31V461q0-31-30-31H922V31q0-31-31-31H719q-31 0-31 31v399H532V31q0-31-30-31H330q-31 0-31 31v399H174q-31 0-31 31v143q0 31 31 31h125v246H174q-31 0-31 30v144q0 31 31 30h125v371q0 31 31 31h172q31 0 30-31v-371h156v371q0 31 31 31h172q31 0 31-31v-371h125q31 0 30-30V911q1-30-30-30zM688 635v246H532V635h156z" glyph-name="numbersign" horiz-adv-x="1220" unicode="#"/><glyph d="M860 573q0-256-307-278V160q0-31-31-31h-96q-31 0-31 31v135Q102 313 92 559q0 31 31 31h121q29 0 32-29 4-51 35-71.5t84-24.5v250q-150 25-222.5 83T100 987q0 260 295 281v135q0 31 31 31h98q31 0 31-31v-135q127-14 207-85t84-206q0-33-29-33H698q-35 0-34 27-2 68-28 95.5t-81 31.5V846q154-29 229.5-87.5T860 573zM279 989q0-61 25.5-82.5T395 872v228q-66-4-91-27t-25-84zm403-415.5q0 61.5-29.5 85T553 692V463q63 4 96 26.5t33 84z" glyph-name="dollar" horiz-adv-x="952" unicode="$"/><glyph d="M297 1487q82 0 135-54.5t53-136.5v-22q0-82-52-135.5T297 1085h-27q-82 0-135 53.5T82 1274v22q0 82 53 136.5t135 54.5h27zm678 0h196q39 0 21-31L365 31Q347 0 324 0H127q-39 0-21 31l828 1425q18 31 41 31zm-647-199q0 41-43 41h-9q-39 0-38-41v-6q0-39 38-39h9q43 0 43 39v6zm692-887q82 0 135-54t53-136v-23q0-82-53-135T1020 0h-27q-84 0-136 53t-52 135v23q0 82 53 136t135 54h27zm31-198q0 41-43 41h-9q-39 0-38-41v-6q0-39 38-39h9q43 0 43 39v6z" glyph-name="percent" horiz-adv-x="1234" unicode="%"/><glyph d="M1389 0h-179q-16 0-36 16l-78 68Q992-31 786-31H489q-182 0-289.5 96.5T92 346v121q0 94 39 166t154 123l24 12-37 33q-60 54-73 89.5T180 941t-6 27v146q0 147 88 238.5t287 91.5h151q199 0 288-91t89-239V954H844v160q0 68-34 96.5T700 1239H549q-78 0-109.5-27.5T408 1114v-43q0-57 5.5-99T502 854l448-405v262q0 39 41 39h287q41 0 41-39V590q0-41-41-41h-94V346q0-59-8-100l231-209q14-12 8-24.5T1389 0zM768 174q123 0 160 55L481 618l-82-38q-74-33-73-125V346q0-98 38.5-135T508 174h260z" glyph-name="ampersand" horiz-adv-x="1509" unicode="&amp;"/><glyph d="M133 1403q0 31 31 31h166q31 0 30-31V877q0-31-30-31H164q-31 0-31 31v526z" glyph-name="quotesingle" horiz-adv-x="493" unicode="'"/><glyph d="M367 315q0-127 35.5-176T541 90h34q31 0 31-31v-172q0-31-31-30H467q-152 0-243 105.5T133 242v1003q0 174 91 279.5T467 1630h108q31 0 31-31v-172q0-31-31-30h-34q-102 0-138-49.5T367 1171V315z" glyph-name="parenleft" horiz-adv-x="739" unicode="("/><glyph d="M373 315v856q0 127-36 176.5T199 1397h-35q-31 0-31 30v172q0 31 31 31h108q152 0 243-105.5t91-279.5V242q0-174-91-279.5T272-143H164q-31 0-31 30V59q0 31 31 31h35q102 0 138 49t36 176z" glyph-name="parenright" horiz-adv-x="739" unicode=")"/><glyph d="M494 963q0-31-31-31H334q-31 0-31 31v94l-63-58q-29-16-43 9l-68 110q-16 27 10 41l101 51-101 50q-27 14-10 43l68 108q14 23 43 10l63-59v94q0 31 31 31h129q31 0 31-31v-94l63 59q29 12 43-10l68-108q16-29-11-43l-98-50 98-51q27-14 11-41l-68-110q-14-25-43-9l-63 58v-94z" glyph-name="asterisk" horiz-adv-x="796" unicode="*"/><glyph d="M901 778q29 0 29-30V575q0-31-31-30H645V266q0-31-31-30H442q-31 0-30 30v279H154q-31 0-31 30v173q0 31 31 30h258v277q0 31 30 30h172q31 0 31-30V778h256z" glyph-name="plus" horiz-adv-x="1052" unicode="+"/><glyph d="M313 272q31 0 31-30V37q0-127-22.5-207T231-330q-16-20-38 0l-50 43q-16 16-2 41 51 78 52 226l14 20H102Q71 0 72 31v211q0 31 30 30h211z" glyph-name="comma" horiz-adv-x="415" unicode=","/><glyph d="M154 412q-31 0-31 30v144q0 31 31 30h540q31 0 31-30V442q0-31-31-30H154z" glyph-name="hyphen" horiz-adv-x="847" unicode="-"/><glyph d="M72 242q0 31 30 30h211q31 0 31-30V31q0-31-31-31H102Q71 0 72 31v211z" glyph-name="period" horiz-adv-x="415" unicode="."/><glyph d="M727 1487h184q35 0 21-31L289-20q-12-31-41-31H63q-33 0-20 31l643 1476q14 31 41 31z" glyph-name="slash" horiz-adv-x="935" unicode="/"/><glyph d="M725 1444q203 0 307.5-112.5T1137 1018V416q0-201-104.5-313.5T725-10H524q-203 0-307 112.5T113 416v602q0 201 104.5 313.5T524 1444h201zM903 416v602q0 117-42 166t-136 49H524q-94 0-136-49t-42-166V416q0-119 42-167t136-48h201q94 0 136 48t42 167z" glyph-name="zero" horiz-adv-x="1249" unicode="0"/><glyph d="M588 1434q31 0 30-31V31q0-31-30-31H422q-31 0-31 31v1063l-74-72q-20-25-45 0l-120 121q-18 18 2 43l241 237q10 10 27 11h166z" glyph-name="one" horiz-adv-x="905" unicode="1"/><glyph d="M1059 205q31 0 31-31V31q0-31-31-31H123Q92 0 92 31q0 145 10.5 236t40 179.5 90 142.5T389 678l311 115q115 41 141.5 88t26.5 178q0 174-178 174H524q-90 0-133-44t-47-151q-4-41-41-41H150q-43 0-39 41 10 195 114.5 300.5T524 1444h166q201 0 306.5-107t105.5-299-63.5-286.5T793 596l-269-92q-111-39-147.5-109.5T340 205h719z" glyph-name="two" horiz-adv-x="1193" unicode="2"/><glyph d="M1096 388q0-175-104.5-286.5T684-10H502Q309-10 205.5 96.5T92 397q-4 39 39 39h154q37 0 41-39 4-109 46-152.5T502 201h182q94 0 136 47t42 163-44 169-167 57H506q-31 0-31 31v145q0 31 31 31h145q119 4 152 54t33 152-42 142.5-137 40.5H528q-88 0-130-44t-46-151q-4-41-41-41H158q-43 0-39 41 10 195 113.5 300.5T528 1444h129q201 0 306.5-105.5T1069 1047t-72.5-232.5T842 743q127-39 190.5-109.5T1096 388z" glyph-name="three" horiz-adv-x="1187" unicode="3"/><glyph d="M672 592v219q0 31 30 31h172q31 0 31-31V592h107q31 0 30-31V418q0-31-30-31H905V31q0-31-31-31H702q-31 0-30 31v356H127q-27 0-33 21l-18 55q-8 25 4 49l469 899q12 23 41 23h180q41 0 21-41L375 592h297z" glyph-name="four" horiz-adv-x="1134" unicode="4"/><glyph d="M686 940q410 0 410-502 0-215-103.5-331.5T684-10H504Q307-10 204.5 95.5T92 397q-4 39 39 39h154q37 0 41-39 4-111 45-153.5T504 201h180q96 0 137 52t41 185q0 297-176 297H575q-139 0-243-104H137q-31 0-31 31v38l72 703q2 31 31 31h770q31 0 31-31v-143q0-31-31-31H377l-37-359q109 70 235 70h111z" glyph-name="five" horiz-adv-x="1198" unicode="5"/><glyph d="M752 891q205 0 306-111.5T1159 459q0-469-409-469H514q-145 0-278.5 88.5T102 672q0 207 17.5 337t69 235.5T337 1397t251 47h84q238 0 344-92t110-275q0-31-30-30H926q-29 0-31 30-4 88-57.5 125T672 1239h-80q-98 0-173-43.5T340 825q80 66 209 66h203zm-2-690q94 0 135 60.5T926 442q0 250-174 250H512q-98 0-137-40t-39-177 41-205.5T514 201h236z" glyph-name="six" horiz-adv-x="1261" unicode="6"/><glyph d="M1057 1280q0-31-8-47-274-348-425-613.5T395 35q-8-35-41-35H197q-16 0-24.5 13.5T168 43q78 317 223.5 586.5T784 1221H123q-31 0-31 30v152q0 31 31 31h903q31 0 31-31v-123z" glyph-name="seven" horiz-adv-x="1148" unicode="7"/><glyph d="M1198 453q0-229-110.5-346T776-10H514q-203 0-312.5 115.5T92 453q0 264 207 362-76 45-103.5 110.5T168 1098q0 346 412 346h129q412 0 411-346 0-181-131-281 209-100 209-364zm-618 809q-119 0-162-44t-43-140 42-144.5T575 885h138q117 0 159.5 48t42.5 143-44 140.5-162 45.5H580zM758 190q109 0 159 60t50 196-47.5 199.5T731 709H559q-141 0-189-63.5T322 447t51-196 159-61h226z" glyph-name="eight" horiz-adv-x="1290" unicode="8"/><glyph d="M510 543q-205 0-306.5 111.5T102 975q0 469 410 469h236q145 0 278-89t133-593q0-207-17.5-337T1073 189.5 924.5 37 674-10h-84q-238 0-344.5 92T135 356q0 31 31 31h170q29 0 31-31 4-88 57-124.5T590 195h80q98 0 173 43.5T922 608q-80-66-209-65H510zm2 690q-94 0-135-60.5T336 992q0-250 174-251h240q98 0 137 39.5T926 958t-41 206.5-137 68.5H512z" glyph-name="nine" horiz-adv-x="1261" unicode="9"/><glyph d="M154 932q0 31 30 31h236q31 0 31-31V696q0-31-31-30H184q-31 0-30 30v236zm0-666q0 31 30 31h236q31 0 31-31V31q0-31-31-31H184q-31 0-30 31v235z" glyph-name="colon" horiz-adv-x="604" unicode=":"/><glyph d="M154 932q0 31 30 31h236q31 0 31-31V696q0-31-31-30H184q-31 0-30 30v236zm297-662V-8q0-209-123-350-16-20-39-2l-78 71q-29 23-4 47t40 67.5 17 72 2 84.5l15 18h-97q-31 0-30 31v239q0 31 30 31h236q31 0 31-31z" glyph-name="semicolon" horiz-adv-x="604" unicode=";"/><glyph d="M860 727q0-41-20-49L457 483l383-194q20-8 20-49V59q0-12-9-17t-24 1L156 393q-33 18-33 90t33 90l671 351q14 6 23.5 1t9.5-18V727z" glyph-name="less" horiz-adv-x="983" unicode="&lt;"/><glyph d="M154 672q-31 0-31 30v154q0 31 31 31h622q31 0 31-31V702q0-31-31-30H154zm0-320q-31 0-31 31v154q0 31 31 30h622q31 0 31-30V383q0-31-31-31H154z" glyph-name="equal" horiz-adv-x="929" unicode="="/><glyph d="M123 727v180q0 12 9 17.5t24-.5l671-351q33-18 33-89.5T827 393L156 43q-14-6-23.5-1T123 59v181q0 41 20 49l383 194-383 195q-20 8-20 49z" glyph-name="greater" horiz-adv-x="983" unicode="&gt;"/><glyph d="M586 1513q203 0 305-102t102-324q0-126-22.5-164T942 869.5t-28.5-33-42-36T761 745q-91-38-110.5-48.5t-38-33T594 610v-84q0-31-31-30H391q-31 0-31 30v121q0 106 54.5 157.5T639 930q70 31 95.5 61.5T760 1112t-34 133-140 43H485q-98 0-136-37t-42-129q-4-41-39-41H113q-41 0-41 41 10 205 114.5 298t298.5 93h101zM352 227q0 31 31 31h192q31 0 31-31V31q0-31-31-31H383q-31 0-31 31v196z" glyph-name="question" unicode="?"/><glyph d="M920 51q0-27-23-37-88-41-188-41h-56q-260 0-395 131.5T123 479v473q0 498 532 498h93q522 0 522-487V477q0-90-37-144t-115-54h-98q-82 0-123 88-82-92-197-93h-51q-137 0-198.5 70T389 547t64.5 193.5T670 801h145v16q0 86-23.5 113.5T705 958h-35q-84 0-148-51-27-23-45 0l-63 80q-16 23-2 41 109 113 258 113h57q137 0 204.5-75T999 811V510q0-45 37-45t37 45v453q0 164-76.5 232.5T748 1264h-93q-170 0-253-71t-83-241V502q0-342 334-342h56q96 0 174 47 37 23 37-17V51zM707 446q41 0 72.5 31t35.5 82v70H664q-51 0-72-21.5T571 536t20.5-70 63.5-20h52z" glyph-name="at" horiz-adv-x="1392" unicode="@"/><glyph d="M1061 0H881q-29 0-37 33l-72 274H377L305 33q-8-33-37-33H88Q55 0 63 33l400 1368q10 33 39 33h145q29 0 39-33L1085 33q8-33-24-33zM430 512h289l-146 555z" glyph-name="A" horiz-adv-x="1148" unicode="A"/><glyph d="M1108 485V383Q1108 0 686 0H164q-31 0-31 31v1372q0 31 31 31h514q195 0 285-92.5t90-280T961 776q147-96 147-291zm-289 558q0 114-28.5 147T678 1223H367V854h311q82 0 111.5 37.5T819 1043zm55-660v102q0 102-43 140.5T686 664H367V211h319q102 0 145 35t43 137z" glyph-name="B" horiz-adv-x="1189" unicode="B"/><glyph d="M1077 436q43 0 39-39-10-195-113.5-301T707-10H524q-203 0-307 112.5T113 416v602q0 201 104.5 313.5T524 1444h183q193 0 296-105.5t113-300.5q4-41-39-41H924q-37 0-41 41-4 106-46 150.5T707 1233H524q-94 0-136-49t-42-166V416q0-119 42-167t136-48h183q88 0 130 44t46 152q4 39 41 39h153z" glyph-name="C" horiz-adv-x="1218" unicode="C"/><glyph d="M692 1434q199 0 302.5-105.5T1098 1032V403q0-190-103.5-296.5T692 0H164q-31 0-31 31v1372q0 31 31 31h528zM864 403v629q0 106-40 148.5T692 1223H367V211h325q92 0 132 41.5T864 403z" glyph-name="D" horiz-adv-x="1189" unicode="D"/><glyph d="M938 1223H367V813h436q31 0 31-31V633q0-31-31-31H367V211h581q31 0 31-31V31q0-31-31-31H164q-31 0-31 31v1372q0 31 31 31h774q31 0 31-31v-150q0-30-31-30z" glyph-name="E" horiz-adv-x="1060" unicode="E"/><glyph d="M367 1223V813h426q31 0 30-31V633q0-31-30-31H367V31q0-31-31-31H164q-31 0-31 31v1372q0 31 31 31h772q31 0 31-31v-150q0-31-31-30H367z" glyph-name="F" horiz-adv-x="1038" unicode="F"/><glyph d="M1077 766q41 0 41-41V416q0-201-104.5-313.5T707-10H524q-203 0-307 112.5T113 416v602q0 201 104.5 313.5T524 1444h183q193 0 296-103.5t113-287.5q4-41-39-41H924q-37 0-41 41-6 98-48 139t-128 41H524q-94 0-136-49t-42-166V416q0-119 42-167t136-48h183q94 0 136 48t42 167v153H727q-39 0-39 41v115q0 41 39 41h350z" glyph-name="G" horiz-adv-x="1220" unicode="G"/><glyph d="M1036 1434q31 0 31-31V31q0-31-31-31H864q-31 0-30 31v571H367V31q0-31-31-31H164q-31 0-31 31v1372q0 31 31 31h172q31 0 31-31V813h467v590q0 31 30 31h172z" glyph-name="H" horiz-adv-x="1200" unicode="H"/><glyph d="M133 1403q0 31 31 31h176q31 0 31-31V31q0-31-31-31H164q-31 0-31 31v1372z" glyph-name="I" horiz-adv-x="503" unicode="I"/><glyph d="M440 197q114 0 170 77.5T666 465v938q0 31 30 31h172q31 0 31-31V446q0-201-129-330.5T427-14 84 115q-27 27 6 55l109 94q27 20 55-4 72-63 186-63z" glyph-name="J" horiz-adv-x="1032" unicode="J"/><glyph d="M1130 0H930q-39 0-56 29L479 651 367 510V31q0-31-31-31H164q-31 0-31 31v1372q0 31 31 31h172q31 0 31-31V836l432 565q23 33 53 33h199q18 0 21-15.5t-11-36.5L639 850l504-801q16-21 8-35t-21-14z" glyph-name="K" horiz-adv-x="1222" unicode="K"/><glyph d="M899 211q31 0 31-31V31q0-31-31-31H164q-31 0-31 31v1372q0 31 31 31h172q31 0 31-31V211h532z" glyph-name="L" horiz-adv-x="1021" unicode="L"/><glyph d="M1356 1434q31 0 30-31V31q0-31-30-31h-172q-31 0-31 31v1020L874 31Q864 0 836 0H684q-29 0-39 31L367 1051V31q0-31-31-31H164q-31 0-31 31v1372q0 31 31 31h266q33 0 41-31l287-995 291 995q8 31 41 31h266z" glyph-name="M" horiz-adv-x="1519" unicode="M"/><glyph d="M1092 1434q31 0 30-31V31q0-31-30-31H858q-27 0-37 23L367 1049V31q0-31-31-31H164q-31 0-31 31v1372q0 31 31 31h233q25 0 37-23L889 387v1016q0 31 31 31h172z" glyph-name="N" horiz-adv-x="1255" unicode="N"/><glyph d="M725 1444q203 0 307.5-112.5T1137 1018V416q0-201-104.5-313.5T725-10H524q-203 0-307 112.5T113 416v602q0 201 104.5 313.5T524 1444h201zM903 416v602q0 117-42 166t-136 49H524q-94 0-136-49t-42-166V416q0-119 42-167t136-48h201q94 0 136 48t42 167z" glyph-name="O" horiz-adv-x="1249" unicode="O"/><glyph d="M676 1434q203 0 307-106.5t104-301.5V885q0-195-104-302.5T676 475H367V31q0-31-31-31H164q-31 0-31 31v1372q0 31 31 31h512zm178-549v141q0 111-41 154t-137 43H367V686h309q96 0 137 43t41 156z" glyph-name="P" horiz-adv-x="1159" unicode="P"/><glyph d="M725 1444q203 0 307.5-112.5T1137 1018V416q0-195-99.5-308.5T743-10v-152q0-31-32-31H541q-31 0-31 31v152Q313-6 213 106.5T113 416v602q0 201 104.5 313.5T524 1444h201zM903 416v602q0 117-42 166t-136 49H524q-94 0-136-49t-42-166V416q0-119 42-167t136-48h201q94 0 136 48t42 167z" glyph-name="Q" horiz-adv-x="1249" unicode="Q"/><glyph d="M1096 0H932q-35 0-47 31L692 475H367V31q0-31-31-31H164q-31 0-31 31v1372q0 31 31 31h512q203 0 307-106.5t104-301.5V885q0-256-174-357l213-481q20-47-30-47zM367 1223V686h309q96 0 137 43t41 156v141q0 111-41 154t-137 43H367z" glyph-name="R" horiz-adv-x="1214" unicode="R"/><glyph d="M1120 412q0-203-103.5-312.5T709-10H514Q321-10 218 92.5T104 377q-4 39 39 39h154q37 0 41-39 6-96 47-136t129-40h195q98 0 138 45t40 165-55.5 162.5T647 639l-112 20q-205 37-311.5 130.5T117 1066t104.5 280.5T532 1444h136q190 0 292.5-100.5T1073 1065q4-41-39-41H881q-37 0-41 41-6 90-46 129t-126 39H532q-100 0-141-33t-41-133 36-138 159-59l112-20q339-62 425-245 38-81 38-193z" glyph-name="S" horiz-adv-x="1222" unicode="S"/><glyph d="M948 1434q31 0 31-31v-150q0-31-31-30H649V31q0-31-31-31H446q-31 0-30 31v1192H113q-31 0-31 30v150q0 31 31 31h835z" glyph-name="T" horiz-adv-x="1060" unicode="T"/><glyph d="M1118 1434q39 0 39-39V416q0-203-103.5-314.5T745-10H547q-207 0-310.5 111.5T133 416v979q0 39 41 39h154q39 0 39-39V416q0-115 43-165t137-50h198q94 0 136.5 50T924 416v979q0 39 41 39h153z" glyph-name="U" horiz-adv-x="1290" unicode="U"/><glyph d="M98 1434h181q29 0 36-33L584 369l270 1032q8 33 37 33h180q33 0 25-33L696 33Q686 0 657 0H512q-29 0-39 33L74 1401q-8 33 24 33z" glyph-name="V" horiz-adv-x="1169" unicode="V"/><glyph d="M1757 1434q37 0 27-31L1475 31q-8-31-39-31h-142q-29 0-39 31L930 1047 602 31q-8-31-39-31H424q-33 0-39 31L74 1403q-8 31 24 31h187q31 0 37-31l194-973 301 973q10 31 39 31h148q29 0 38-31l304-973 192 973q2 31 35 31h184z" glyph-name="W" horiz-adv-x="1857" unicode="W"/><glyph d="M1024 0H840q-27 0-41 29L565 485 332 29Q318 0 291 0H106Q71 0 86 29l363 688-363 688q-14 29 20 29h185q27 0 41-29l233-457 234 457q14 29 41 29h184q35 0 20-29L682 717l362-688q14-29-20-29z" glyph-name="X" horiz-adv-x="1130" unicode="X"/><glyph d="M1108 1434q35 0 20-31L715 604V31q0-31-31-31H512q-31 0-31 31v573L66 1403q-16 31 20 31h190q27 0 41-31l281-555 279 555q16 31 41 31h190z" glyph-name="Y" horiz-adv-x="1193" unicode="Y"/><glyph d="M954 1319q0-29-6-37L362 215h562q31 0 30-31V31q0-31-30-31H123Q92 0 92 31v84q0 29 6 37l586 1067H123q-31 0-31 30v154q0 31 31 31h801q31 0 30-31v-84z" glyph-name="Z" horiz-adv-x="1046" unicode="Z"/><glyph d="M543 1397H367V90h176q31 0 30-31v-172q0-31-30-30H164q-31 0-31 30v1712q0 31 31 31h379q31 0 30-31v-172q1-30-30-30z" glyph-name="bracketleft" horiz-adv-x="706" unicode="["/><glyph d="M850 0H666q-27 0-41 31L2 1456q-12 31 21 31h184q29 0 41-31L870 31q14-31-20-31z" glyph-name="backslash" horiz-adv-x="915" unicode="\"/><glyph d="M543 1630q31 0 30-31V-113q0-31-30-30H164q-31 0-31 30V59q0 31 31 31h176v1307H164q-31 0-31 30v172q0 31 31 31h379z" glyph-name="bracketright" horiz-adv-x="706" unicode="]"/><glyph d="M786 932H602q-27 0-41 31l-104 215-105-215q-14-31-41-31H127q-37 0-21 31l254 493q16 31 41 31h111q25 0 41-31l254-493q16-31-21-31z" glyph-name="asciicircum" horiz-adv-x="913" unicode="^"/><glyph d="M133 0q-31 0-31 31v143q0 31 31 31h930q31 0 31-31V31q0-31-31-31H133z" glyph-name="underscore" horiz-adv-x="1196" unicode="_"/><glyph d="M483 1124H342q-23 0-49 37l-182 236q-12 16-5 26.5t25 10.5h219q23 0 43-37l111-236q18-37-21-37z" glyph-name="grave" horiz-adv-x="612" unicode="`"/><glyph d="M920 0H731q-37 0-37 49v70Q610-10 475-10h-63q-147 0-238.5 85T82 309q0 297 326 297h286v84q0 80-31.5 108.5T549 827h-60q-121 0-231-45-51-20-68 17l-43 100q-14 35 11 49 135 84 331 84h60q190 0 281.5-86T922 680V49q0-15 4-32t-6-17zM520 195q129 0 174 98v135H412q-104 0-104.5-116.5T412 195h108z" glyph-name="a" horiz-adv-x="1050" unicode="a"/><glyph d="M606 1032q166 0 263.5-102.5T967 662V356q0-166-97.5-266T606-10h-51q-141 0-205 110V31q0-31-28-31H154q-31 0-31 31v1372q0 31 31 31h168q29 0 28-31V930q63 102 205 102h51zm133-700v358q0 137-135 137H483q-133 0-133-137V332q0-137 133-137h121q135 0 135 137z" glyph-name="b" horiz-adv-x="1058" unicode="b"/><glyph d="M715 674q-35 0-39 39-16 113-117 112H459q-133 0-133-137V332q0-137 133-137h100q66 0 97.5 18t66.5 66q20 25 55 0l99-70q25-18 6-43-39-47-58.5-67.5T765 46q-70-56-206-56H459Q293-10 192.5 99.5T92 375v284q0 166 99.5 268.5T459 1030h100q135 0 232.5-86T903 717q2-43-39-43H715z" glyph-name="c" horiz-adv-x="987" unicode="c"/><glyph d="M905 1434q31 0 31-31V31q0-31-31-31H737q-29 0-28 31v69Q641-11 504-10h-53Q285-10 188.5 91.5T92 356v306q0 166 96.5 268T451 1032h53q137 0 205-102v473q0 31 28 31h168zM575 195q133 0 134 137v358q0 137-134 137H453q-133 0-134-137V332q0-137 134-137h122z" glyph-name="d" horiz-adv-x="1058" unicode="d"/><glyph d="M559 1032q147 0 246.5-102.5T905 659V483q0-61-61-61H326v-90q0-137 133-137h100q80 0 114 15t70 56q16 20 45 0l84-55q29-20 11-45-49-61-78-89t-94.5-57.5T559-10H459Q293-10 192.5 99.5T92 375v284q0 168 99.5 270.5T459 1032h100zm119-432v90q0 137-119 137H459q-133 0-133-139v-88h352z" glyph-name="e" horiz-adv-x="997" unicode="e"/><glyph d="M678 1487q31 0 31-31v-149q0-31-31-31H553q-104 0-104-131v-121h208q31 0 31-31V850q0-31-31-31H449V31q0-31-31-31H252q-31 0-31 31v788H113q-31 0-31 31v143q0 31 31 31h108v119q0 344 332 344h125z" glyph-name="f" horiz-adv-x="759" unicode="f"/><glyph d="M905 1024q31 0 31-31V-47q0-362-404-363-139 0-210 17-39 8-39 43v121q0 16 11 27.5t28 6.5q72-16 189-16t157.5 33T709-47v147Q641-11 504-10h-53Q285-10 188.5 91.5T92 356v306q0 166 96.5 268T451 1032h53q137 0 205-102v63q0 31 28 31h168zM575 195q133 0 134 137v358q0 137-134 137H453q-133 0-134-137V332q0-137 134-137h122z" glyph-name="g" horiz-adv-x="1058" unicode="g"/><glyph d="M637 1032q305 0 305-360V31q0-31-31-31H745q-31 0-30 31v663q0 133-135 133h-27q-74 0-128-28.5T350 735V31q0-31-31-31H154q-31 0-31 31v1372q0 31 31 31h165q31 0 31-31V895q90 137 273 137h14z" glyph-name="h" unicode="h"/><glyph d="M143 1403q0 31 31 31h166q31 0 31-31v-162q0-31-31-31H174q-31 0-31 31v162zm0-410q0 31 31 31h166q31 0 31-31V31q0-31-31-31H174q-31 0-31 31v962z" glyph-name="i" horiz-adv-x="514" unicode="i"/><glyph d="M143 1403q0 31 31 31h164q31 0 31-31v-162q0-31-31-31H174q-31 0-31 31v162zm0-1509V993q0 31 31 31h166q31 0 31-31V-121q0-129-79-232.5T88-492q-29-10-39 21l-67 154q-12 29 18 38 57 20 100 67.5T143-106z" glyph-name="j" horiz-adv-x="514" unicode="j"/><glyph d="M154 1434h165q31 0 31-31V649l340 350q20 25 45 25h176q23 0 30-19.5T926 961L592 610 977 53q12-16 6-34.5T954 0H795q-43 0-64 35L438 459l-88-88V31q0-31-31-31H154q-31 0-31 31v1372q0 31 31 31z" glyph-name="k" horiz-adv-x="1056" unicode="k"/><glyph d="M123 1403q0 31 31 31h165q31 0 31-31V31q0-31-31-31H154q-31 0-31 31v1372z" glyph-name="l" horiz-adv-x="473" unicode="l"/><glyph d="M1229 1032q305 0 305-360V31q0-31-31-31h-166q-31 0-30 31v663q0 133-136 133h-26q-74 0-126-27.5T942 735V31q0-31-31-31H745q-31 0-30 31v663q0 133-135 133h-27q-74 0-128-28.5T350 735V31q0-31-31-31H154q-31 0-31 31v962q0 31 31 31h165q31 0 31-31v-98q90 137 273 137h14q209 0 274-166l31 29q90 137 272 137h15z" glyph-name="m" horiz-adv-x="1656" unicode="m"/><glyph d="M637 1032q305 0 305-360V31q0-31-31-31H745q-31 0-30 31v663q0 133-135 133h-27q-74 0-128-28.5T350 735V31q0-31-31-31H154q-31 0-31 31v962q0 31 31 31h165q31 0 31-31v-98q90 137 273 137h14z" glyph-name="n" unicode="n"/><glyph d="M557 1032q166 0 263.5-102.5T918 662V356q0-166-97.5-266T557-10H453Q287-10 189.5 90T92 356v306q0 166 97.5 268T453 1032h104zm133-700v358q0 137-133 137H453q-133 0-134-137V332q0-137 134-137h104q133 0 133 137z" glyph-name="o" horiz-adv-x="1009" unicode="o"/><glyph d="M608 1032q166 0 262.5-102.5T967 662V356q0-164-96.5-265T608-10h-53q-141 0-205 110v-479q0-31-28-31H154q-31 0-31 31V993q0 31 31 31h168q29 0 28-31v-63q63 102 205 102h53zm131-700v358q0 137-133 137H483q-133 0-133-137V332q0-137 133-137h123q133 0 133 137z" glyph-name="p" horiz-adv-x="1058" unicode="p"/><glyph d="M905 1024q31 0 31-31V-379q0-31-31-31H737q-29 0-28 31v479Q646-11 504-10h-53Q285-10 188.5 91.5T92 356v306q0 166 96.5 268T451 1032h53q141 0 205-102v63q0 31 28 31h168zM573 195q135 0 136 137v358q0 137-136 137H453q-133 0-134-137V332q0-137 134-137h120z" glyph-name="q" horiz-adv-x="1058" unicode="q"/><glyph d="M580 827h-27q-74 0-128-28.5T350 735V31q0-31-31-31H154q-31 0-31 31v962q0 31 31 31h165q31 0 31-31v-98q88 137 287 137 86 0 149-28 33-18 15-56l-64-117q-18-31-59-17t-98 13z" glyph-name="r" horiz-adv-x="860" unicode="r"/><glyph d="M885 295q0-305-365-305h-67Q127-10 92 256q-4 31 31 31h149q39 0 53.5-30t41-47 82.5-17h81q127 0 127 102 0 68-30.5 91.5T481 420q-213 16-298 85.5T98 730t92.5 227.5T446 1030h72q158 0 255-78t97-213q0-33-28-32H694q-37 0-53 36-29 84-127 84h-68q-121 0-120-90 0-49 29.5-76.5T481 621q217-20 310.5-88T885 295z" glyph-name="s" horiz-adv-x="966" unicode="s"/><glyph d="M578 819H432V309q0-59 30-81.5T565 201q43-4 39-43l-6-123q-4-39-49-39-199 0-272.5 73.5T203 311v508H102q-31 0-30 31v141q0 33 30 33h101v131q0 31 30 31h168q31 0 31-31v-131h143q33 0 33-31V850q1-31-30-31z" glyph-name="t" horiz-adv-x="690" unicode="t"/><glyph d="M428-8Q123-8 123 352v641q0 31 31 31h165q31 0 31-31V330q0-133 135-133h27q74 0 128 28.5t75 63.5v704q0 31 30 31h166q31 0 31-31V31q0-31-31-31H745q-31 0-30 31v98Q625-8 442-8h-14z" glyph-name="u" unicode="u"/><glyph d="M100 1024h166q27 0 37-35 125-416 205-710 80 295 205 710 10 35 37 35h168q37 0 24-35L618 41Q604 0 571 0H446q-35 0-49 41L76 989q-12 35 24 35z" glyph-name="v" horiz-adv-x="1017" unicode="v"/><glyph d="M1495 1024q37 0 25-35L1231 41q-12-41-49-41h-131q-35 0-47 41-113 348-201 651-39-137-205-651-12-41-47-41H420q-35 0-49 41L86 989q-12 35 25 35h165q27 0 37-35 23-86 80.5-325.5T489 279q25 94 92.5 338.5T682 989q10 35 37 35h160q35 0 41-35 33-127 100-371.5t92-338.5q41 152 102.5 399.5T1292 989q10 35 37 35h166z" glyph-name="w" horiz-adv-x="1603" unicode="w"/><glyph d="M864 0H678q-27 0-47 37L487 305 344 37Q324 0 297 0H111Q93 0 86.5 12.5T90 39l270 471L88 985q-10 14-4 26.5t25 12.5h188q27 0 47-37l143-268 146 268q20 37 47 37h186q18 0 23.5-12.5T885 985L618 512 887 39q10-14 4-26.5T864 0z" glyph-name="x" horiz-adv-x="974" unicode="x"/><glyph d="M999 1024q31 0 17-37L471-375q-14-35-43-35H260q-35 0-20 37L420 76 55 987q-14 37 19 37h170q29 0 41-35l245-637 256 637q14 35 43 35h170z" glyph-name="y" horiz-adv-x="1071" unicode="y"/><glyph d="M825 874q0-18-10-32L365 211h428q33 0 32-31V31q0-31-30-31H113Q82 0 82 31v114q0 23 10 35l451 633H133q-31 0-31 31v147q0 33 31 33h660q33 0 32-31V874z" glyph-name="z" horiz-adv-x="907" unicode="z"/><glyph d="M481 352q0-133 38-197.5T655 90h90q31 0 31-31v-172q0-31-31-30H582q-152 0-243 105.5T248 242v329q0 20-15 37l-92 113q-14 23 0 45l92 113q14 16 15 36v330q0 174 91 279.5T582 1630h163q31 0 31-31v-172q0-31-31-30h-90q-98 0-136-64.5T481 1135V895q0-20-14-37l-88-115 90-114q12-18 12-37V352z" glyph-name="braceleft" horiz-adv-x="909" unicode="{"/><glyph d="M164 1608q0 31 31 30h172q31 0 30-30V-379q0-31-30-31H195q-31 0-31 31v1987z" glyph-name="bar" horiz-adv-x="561" unicode="|"/><glyph d="M428 352v240q0 18 12 37l90 114-88 115q-14 16-14 37v240q0 133-38 197.5T254 1397h-90q-31 0-31 30v172q0 31 31 31h164q152 0 243-105.5t91-279.5V915q0-20 14-36l92-113q14-23 0-45l-92-113q-14-16-14-37V242q0-174-91.5-279.5T328-143H164q-31 0-31 30V59q0 31 31 31h90q98 0 136 64.5T428 352z" glyph-name="braceright" horiz-adv-x="909" unicode="}"/><glyph d="M1030 692q14-23-20-45-104-72-235.5-82T535 616q-164 98-328-12-18-12-35 17l-66 129q-12 25 21 45 106 72 238.5 83T602 825q158-102 328 13 23 14 35-17z" glyph-name="asciitilde" horiz-adv-x="1136" unicode="~"/><glyph d="M408 797q0-31-31-31H184q-31 0-30 31v196q0 31 30 31h193q31 0 31-31V797zM397-379q0-31-30-31H195q-31 0-31 31v881q0 33 31 33h172q31 0 30-33v-881z" glyph-name="exclamdown" horiz-adv-x="561" unicode="¡"/><glyph d="M563 195q77 0 106 26.5t51 54.5 58 3l99-70q25-18 6-43-51-61-78-89t-91.5-57.5T563-10v-221q0-31-31-31h-59q-31 0-31 31v221Q282-4 187 104.5T92 375v284q0 162 94.5 263.5T442 1030v164q0 31 31 31h59q31 0 31-31v-164q135-2 230.5-88T903 717q2-43-39-43H715q-35 0-39 39-16 109-113 112V195zM326 332q0-127 116-137v630q-117-10-116-137V332z" glyph-name="cent" horiz-adv-x="987" unicode="¢"/><glyph d="M731 1511q199 0 312.5-125.5T1157 1038q0-31-31-30H954q-33 0-32 30 0 141-44 193.5T731 1284h-92q-102 0-162.5-76T512 842h281q31 0 30-31V647q0-31-30-31H578q21-197-93-360 63 25 107.5 21.5T723 244q160-61 362 20 14 6 22.5-4t8.5-27V61q0-14-6-18t-25-12q-207-90-417 0-115 43-194 35.5T283-2q-14-8-52 41t-32 65q12 29 42.5 103t40 96.5 31 89T336 528q2 70 0 88H123q-31 0-31 31v164q0 31 31 31h147q-120 357 19 513t350 156h92z" glyph-name="sterling" horiz-adv-x="1249" unicode="£"/><glyph d="M668-10H565q-125 0-213 59l-84-86q-23-20-43 0L102 86q-20 20 0 43l117 115q-14 49-14 112v306q0 49 8 88L102 858q-20 23 0 43l123 123q20 20 43 0l64-66q92 74 233 74h103q145 0 239-78l70 70q23 20 43 0l123-123q20-20 0-43l-119-117q6-37 6-79V356q0-57-12-106l123-121q23-23 0-43L1018-37q-23-20-43 0l-88 88q-90-61-219-61zm0 205q135 0 135 137v358q0 137-135 137H565q-133 0-133-137V332q0-137 133-137h103z" glyph-name="currency" horiz-adv-x="1245" unicode="¤"/><glyph d="M1108 1434q35 0 20-31L721 618h262q31 0 31-30V442q0-31-31-30H715v-80h268q31 0 31-31V158q0-31-31-31H715V31q0-31-31-31H512q-31 0-31 31v96H213q-31 0-31 31v143q0 31 31 31h268v80H213q-31 0-31 30v146q0 31 31 30h260L66 1403q-16 31 20 31h190q27 0 41-31l281-555 279 555q16 31 41 31h190z" glyph-name="yen" horiz-adv-x="1193" unicode="¥"/><glyph d="M164 1464q0 31 31 31h172q31 0 30-31V803q0-31-30-31H195q-31 0-31 31v661zm0-1038q0 31 31 31h172q31 0 30-31v-662q0-31-30-30H195q-31 0-31 30v662z" glyph-name="brokenbar" horiz-adv-x="561" unicode="¦"/><glyph d="M1098 406q0-104-51-189 51-92 51-211 0-180-128-299T668-412h-95q-170 0-300 119T143 0v59q0 31 31 31h174q31 0 31-31l2-59q2-78 58.5-128T573-178h95q84 0 140 51t56 140-41 140.5T678 223l-117 21q-182 31-295.5 163T152 717q0 100 47 198-47 88-47 201 0 176 116.5 290T555 1520h107q168 0 294.5-123t124.5-307v-39q0-31-30-31H877q-31 0-31 31v39q0 86-54.5 142T662 1288H555q-78 0-124-52t-46-131 38-126 146-68l119-20q172-31 291-165t119-320zm-234 2q0 219-186 249l-117 21q-100 18-174 57-2-8-2-26 0-199 184-234l119-20q96-16 176-60v13z" glyph-name="section" horiz-adv-x="1241" unicode="§"/><glyph d="M102 1403q0 31 31 31h166q31 0 31-31v-162q0-31-31-31H133q-31 0-31 31v162zm478 0q0 31 30 31h164q31 0 31-31v-162q0-31-31-31H610q-31 0-30 31v162z" glyph-name="dieresis" horiz-adv-x="907" unicode="¨"/><glyph d="M745 1444q211 0 335-132t124-347V479q0-211-126-358.5T745-27H573q-207 0-333.5 147.5T113 479v486q0 215 124.5 347T573 1444h172zm0-1266q125 0 194 82t69 205v500q0 274-263 274H573q-264 0-264-274V465q0-121 70-204t194-83h172zm160 397q29 0 29-36-2-147-61.5-203.5T688 279h-45q-252 0-252 229v403q0 229 252 230h45q125 0 184.5-55.5T934 883q0-25-7-31t-22-6H784q-23 0-22 18 0 98-76 99h-45q-78 0-78-89V545q0-88 78-88h45q76 0 76 100 0 18 22 18h121z" glyph-name="copyright" horiz-adv-x="1316" unicode="©"/><glyph d="M545 963h-96q-12 0-21 22-45-23-104-22h-31q-82 0-136.5 42.5T102 1122t51.5 118 139.5 44h133q0 84-86 84h-37q-55 0-110-43-18-14-31 0l-43 57q-12 14 0 27 74 78 194 78h52q80 0 131-58.5t51-148.5v-276q0-23 4-32 3-9-6-9zm-254 116h35q57 0 100 25v63H291q-63 0-64-43 1-45 64-45z" glyph-name="ordfeminine" horiz-adv-x="653" unicode="ª"/><glyph d="M565 872V666q0-23-37-45l-161-95 161-94q37-23 37-45V180q0-16-11-20t-26 4L143 416q-31 20-30 51v119q0 31 30 51l385 252q14 8 25.5 4t11.5-21zm529 0V666q0-23-37-45l-162-95 162-94q37-23 37-45V180q0-16-11.5-20t-25.5 4L672 416q-31 20-31 51v119q0 31 31 51l385 252q14 8 25.5 4t11.5-21z" glyph-name="guillemotleft" horiz-adv-x="1206" unicode="«"/><glyph d="M899 723q31 0 31-31V289q0-31-31-31H727q-31 0-31 31v200H154q-31 0-31 31v172q0 31 31 31h745z" glyph-name="logicalnot" horiz-adv-x="1052" unicode="¬"/><glyph d="M154 412q-31 0-31 30v144q0 31 31 30h540q31 0 31-30V442q0-31-31-30H154z" glyph-name="uni00AD" horiz-adv-x="847" unicode="­"/><glyph d="M745 1444q211 0 335-132t124-347V479q0-211-126-358.5T745-27H573q-207 0-333.5 147.5T113 479v486q0 215 124.5 347T573 1444h172zm0-1266q125 0 194 82t69 205v500q0 274-263 274H573q-264 0-264-274V465q0-121 70-204t194-83h172zm166 156q0-45-41-45h-84q-37 0-36 45v174q0 61-18.5 80.5T662 608h-78V334q0-45-37-45h-88q-37 0-37 45v739q0 31 18.5 49.5T487 1141h187q113 0 175-61.5T911 912t-27.5-150.5T797 694q115-43 114-186V334zM662 770q47 0 67.5 22.5T750 875t-19.5 81-68.5 21h-78V770h78z" glyph-name="registered" horiz-adv-x="1316" unicode="®"/><glyph d="M133 1227q-31 0-31 30v146q0 31 31 31h664q31 0 30-31v-146q0-31-30-30H133z" glyph-name="macron" horiz-adv-x="929" unicode="¯"/><glyph d="M436 1444q127 0 205-84t78-215v-23q0-131-78-215t-205-84h-30q-131 0-207 83t-76 216v23q0 133 75.5 216t207.5 83h30zm101-303q0 53-28 83.5t-79 30.5h-16q-51 0-79-30.5t-28-83.5v-13q0-51 27.5-82.5T414 1014h16q51 0 79 31.5t28 82.5v13z" glyph-name="degree" horiz-adv-x="841" unicode="°"/><glyph d="M901 815q29 0 29-31V612q0-31-31-30H645V340q0-31-31-31H442q-31 0-30 31v242H154q-31 0-31 30v172q0 31 31 31h258v240q0 31 30 30h172q31 0 31-30V815h256zm0-582q29 0 29-30V31q0-31-31-31H154q-31 0-31 31v172q0 31 31 30h747z" glyph-name="plusminus" horiz-adv-x="1052" unicode="±"/><glyph d="M532 883q0-31-30-31H158q-31 0-31 31v49q0 30 11 46.5t44 49.5l144 154q4 4 42 38t38 68q0 35-24 58.5t-58 23.5-56-19.5-22-45.5v-15q0-31-31-30h-61q-31 0-31 30v27q0 68 51 119t125 51h51q80 0 130-60.5t50-126.5-33.5-114.5T399 1073L295 969l207 4q31 0 30-31v-59z" glyph-name="uni00B2" horiz-adv-x="655" unicode="²"/><glyph d="M512 1037q0-71-50-127t-130-56h-51q-74 0-125.5 51T104 1024v27q0 31 31 30h62q31 0 30-30v-15q0-27 21.5-46t56.5-19 58.5 19.5 23.5 52-22.5 54T309 1118h-47q-31 0-31 31v45q0 31 31 31h47q33 0 55.5 21.5t22.5 54-23.5 52T305 1372t-56.5-19.5T227 1307v-15q0-31-30-30h-62q-31 0-31 30v27q0 68 51.5 119t125.5 51h51q80 0 130-56.5t50-127.5-70-134q70-63 70-134z" glyph-name="uni00B3" horiz-adv-x="653" unicode="³"/><glyph d="M264 1434h217q18 0 25.5-10.5T502 1397l-183-236q-27-37-49-37H129q-39 0-20 37l112 236q18 37 43 37z" glyph-name="acute" horiz-adv-x="612" unicode="´"/><glyph d="M999 1434q31 0 31-31V31q0-31-31-31H827q-31 0-30 31v544h-88V31q0-31-31-31H506q-31 0-31 31v544q-172 8-272.5 125T102 1010t108.5 308.5T502 1434h497zM797 809v391h-88V809h88zm-461 197q0-178 139-195v387q-70-8-104.5-50T336 1006z" glyph-name="paragraph" horiz-adv-x="1155" unicode="¶"/><glyph d="M102 741q0 31 31 31h236q31 0 30-31V506q0-31-30-31H133q-31 0-31 31v235z" glyph-name="periodcentered" horiz-adv-x="501" unicode="·"/><glyph d="M223 14h162q24 0 10-18-29-38-10.5-52T473-78q71-8 114.5-45T631-258q0-156-197-156H283q-86 0-132.5 43T102-250q0 20 19 21h137q20 0 21-17 0-33 65-33h41q47 0 58.5 8.5T455-248q0 20-29 28.5T221-190q-41 5-68 49T201-2q12 16 22 16z" glyph-name="cedilla" horiz-adv-x="733" unicode="¸"/><glyph d="M246 1456q0 31 30 31h66q31 0 31-31V885q0-31-31-31h-66q-31 0-30 31v571z" glyph-name="uni00B9" horiz-adv-x="618" unicode="¹"/><glyph d="M354 524q86 0 146.5-65.5T561 307v-88q0-90-60.5-154.5T354 0h-45q-86 0-146.5 64.5T102 219v88q0 88 60.5 152.5T309 524h45zm84-227q0 39-26.5 66.5T348 391h-31q-41 0-66.5-26.5T225 297v-66q0-41 25.5-69.5T317 133h31q37 0 63.5 28.5T438 231v66z" glyph-name="ordmasculine" horiz-adv-x="663" unicode="º"/><glyph d="M565 467q0-31-30-51L150 164q-14-8-25.5-4T113 180v207q0 23 37 45l161 94-161 95q-37 23-37 45v206q0 16 11.5 20.5T150 889l385-252q31-20 30-51V467zm529 119V467q0-31-31-51L678 164q-14-8-25.5-4T641 180v207q0 23 37 45l162 94-162 95q-37 23-37 45v206q0 16 11.5 20.5T678 889l385-252q31-20 31-51z" glyph-name="guillemotright" horiz-adv-x="1206" unicode="»"/><glyph d="M1085 1487h78q39 0 21-31L356 31Q338 0 315 0h-77q-39 0-21 31l827 1425q18 31 41 31zm-839-31q0 31 30 31h66q31 0 31-31V885q0-31-31-31h-66q-31 0-30 31v571zM1358 242q31 0 31-31v-61q0-31-31-31h-29V31q0-31-31-31h-61q-31 0-31 31v88H983q-29 0-31 31l-6 59q0 8 8 24l217 388q8 14 29 14h98q31 0 31-31V242h29zm-152 4v205l-104-205h104z" glyph-name="onequarter" horiz-adv-x="1511" unicode="¼"/><glyph d="M1085 1487h78q39 0 21-31L356 31Q338 0 315 0h-77q-39 0-21 31l827 1425q18 31 41 31zm-839-31q0 31 30 31h66q31 0 31-31V885q0-31-31-31h-66q-31 0-30 31v571zM1356 90V31q0-31-31-31H981q-31 0-31 31v49q0 46 56 96l143 154q4 4 42 38t38 68q0 35-23.5 58.5T1147 518t-56.5-19.5T1069 453v-15q0-31-31-30h-61q-31 0-31 30v27q0 68 51.5 119t124.5 51h52q80 0 130-60.5t50-126.5-34-114.5-97-112.5l-105-104 207 4q31 0 31-31z" glyph-name="onehalf" horiz-adv-x="1478" unicode="½"/><glyph d="M350 854h-51q-74 0-125 51t-51 119v27q0 31 31 30h61q31 0 31-30v-15q0-27 21.5-46t56.5-19 58.5 19.5 23.5 52-23 54-55 21.5h-47q-31 0-31 31v45q0 31 31 31h47q33 0 55.5 21.5t22.5 54-24 52-58 19.5-56-19.5-22-45.5v-15q0-31-31-30h-61q-31 0-31 30v27q0 68 51 119t125 51h51q80 0 130-56.5t50-127.5-69-134q69-63 69-134t-50-127-130-56zm770 633h78q39 0 21-31L391 31Q373 0 350 0h-78q-39 0-20 31l827 1425q18 31 41 31zm273-1245q31 0 30-31v-61q0-31-30-31h-29V31q0-31-31-31h-61q-31 0-31 31v88h-223q-27 0-31 31l-6 59q0 8 8 24l217 388q6 14 29 14h98q31 0 31-31V242h29zm-152 4v205l-104-205h104z" glyph-name="threequarters" horiz-adv-x="1546" unicode="¾"/><glyph d="M713 801q0-31-31-31H489q-31 0-30 31v196q0 31 30 31h193q31 0 31-31V801zM479-485q-203 0-305 101T72-59q0 126 22.5 164t28.5 53.5 28.5 33T183 218t67 38 96 45q58 24 91.5 46t33.5 71v84q0 31 31 30h172q31 0 31-30V381q0-106-54.5-157.5T424 98q-70-31-94.5-61.5T305-84t34-133 140-43h101q98 0 136 37t42 129q4 41 39 41h155q41 0 41-43-10-203-114.5-296T580-485H479z" glyph-name="questiondown" unicode="¿"/><glyph d="M289 1905h219q20 0 43-37l111-236q18-37-21-37H500q-22 0-49 37l-183 236q-12 16-5 26.5t26 10.5zM1061 0H881q-29 0-37 33l-72 274H377L305 33q-8-33-37-33H88Q55 0 63 33l400 1368q10 33 39 33h145q29 0 39-33L1085 33q8-33-24-33zM430 512h289l-146 555z" glyph-name="Agrave" horiz-adv-x="1148" unicode="À"/><glyph d="M512 1534q-39 0-20 37l112 235q18 37 43 37h217q18 0 25.5-10t-4.5-27l-183-235q-27-37-49-37H512zM1061 0H881q-29 0-37 33l-72 274H377L305 33q-8-33-37-33H88Q55 0 63 33l400 1368q10 33 39 33h145q29 0 39-33L1085 33q8-33-24-33zM430 512h289l-146 555z" glyph-name="Aacute" horiz-adv-x="1148" unicode="Á"/><glyph d="M221 1513q-16 0-22 12.5t6 26.5l233 263q29 33 56 32h161q29 0 58-32l233-263q12-16 6-27.5t-22-11.5H756q-17-1-24 9l-13 18q-6 8-10 12l-134 150-131-150q-33-39-49-39H221zM1061 0H881q-29 0-37 33l-72 274H377L305 33q-8-33-37-33H88Q55 0 63 33l400 1368q10 33 39 33h145q29 0 39-33L1085 33q8-33-24-33zM430 512h289l-146 555z" glyph-name="Acircumflex" horiz-adv-x="1148" unicode="Â"/><glyph d="M266 1610l-63 127q-8 23 20 43 207 145 385 30 88-49 128-45t118 58q20 14 33-17l63-127q12-23-20-41-102-74-191.5-83T552 1600.5 416 1651t-117-58q-17-12-33 17zM1061 0H881q-29 0-37 33l-72 274H377L305 33q-8-33-37-33H88Q55 0 63 33l400 1368q10 33 39 33h145q29 0 39-33L1085 33q8-33-24-33zM430 512h289l-146 555z" glyph-name="Atilde" horiz-adv-x="1148" unicode="Ã"/><glyph d="M254 1620q-31 0-31 31v161q0 31 31 31h166q31 0 31-31v-161q0-31-31-31H254zm477 0q-31 0-31 31v161q0 31 31 31h164q31 0 31-31v-161q0-31-31-31H731zM1061 0H881q-29 0-37 33l-72 274H377L305 33q-8-33-37-33H88Q55 0 63 33l400 1368q10 33 39 33h145q29 0 39-33L1085 33q8-33-24-33zM430 512h289l-146 555z" glyph-name="Adieresis" horiz-adv-x="1148" unicode="Ä"/><glyph d="M561 1511q-74 0-123 49.5T389 1681v23q0 74 49 123t123 49h27q74 0 123-49t49-123v-23q0-72-48-121t-124-49h-27zm-45 191v-14q0-23 14.5-37.5T565 1636h19q23 0 37 14.5t14 37.5v14q0 23-14.5 36t-36.5 13h-19q-20 0-34.5-13t-14.5-36zM1061 0H881q-29 0-37 33l-72 274H377L305 33q-8-33-37-33H88Q55 0 63 33l400 1368q10 33 39 33h145q29 0 39-33L1085 33q8-33-24-33zM430 512h289l-146 555z" glyph-name="Aring" horiz-adv-x="1148" unicode="Å"/><glyph d="M1677 211q31 0 31-31V31q0-31-31-31H895q-31 0-31 31v268H457L303 31Q285 0 262 0H78Q39 0 57 31l787 1372q18 31 41 31h782q31 0 31-31v-150q0-31-31-30h-569V813h434q31 0 31-31V633q0-31-31-31h-434V211h579zM864 506v504L575 506h289z" glyph-name="AE" horiz-adv-x="1789" unicode="Æ"/><glyph d="M1077 436q43 0 39-39-10-193-109.5-298T719-10q-25-37-4-49 20-12 55-15 102-12 145-49t43-135q0-156-196-156H610q-86 0-132 43t-48 121q0 20 19 21h137q20 0 20-17 0-33 66-33h41q47 0 58 8.5t11 22.5q0 20-25.5 27.5t-100 16.5T552-190.5 500.5-171 479-113t43 103q-203 0-306 113.5T113 416v602q0 201 104.5 313.5T524 1444h183q193 0 296-105.5t113-300.5q4-41-39-41H924q-37 0-41 41-4 106-46 150.5T707 1233H524q-94 0-136-49t-42-166V416q0-119 42-167t136-48h183q88 0 130 44t46 152q4 39 41 39h153z" glyph-name="Ccedilla" horiz-adv-x="1218" unicode="Ç"/><glyph d="M616 1595H475q-23 0-49 37l-182 236q-12 16-5 26.5t25 10.5h219q20 0 43-37l111-236q18-37-21-37zm322-372H367V813h436q31 0 31-31V633q0-31-31-31H367V211h581q31 0 31-31V31q0-31-31-31H164q-31 0-31 31v1372q0 31 31 31h774q31 0 31-31v-150q0-30-31-30z" glyph-name="Egrave" horiz-adv-x="1060" unicode="È"/><glyph d="M623 1843h217q18 0 25-10t-5-27l-182-235q-27-37-49-37H487q-39 0-20 37l113 235q18 37 43 37zm315-620H367V813h436q31 0 31-31V633q0-31-31-31H367V211h581q31 0 31-31V31q0-31-31-31H164q-31 0-31 31v1372q0 31 31 31h774q31 0 31-31v-150q0-30-31-30z" glyph-name="Eacute" horiz-adv-x="1060" unicode="É"/><glyph d="M631 1847q29 0 57-32l234-263q12-16 6-27.5t-23-11.5H731q-17 0-30 17.5t-17 21.5l-133 150-131-150q-33-39-49-39H197q-16 0-22.5 12.5t5.5 26.5l234 263q29 33 55 32h162zm307-624H367V813h436q31 0 31-31V633q0-31-31-31H367V211h581q31 0 31-31V31q0-31-31-31H164q-31 0-31 31v1372q0 31 31 31h774q31 0 31-31v-150q0-30-31-30z" glyph-name="Ecircumflex" horiz-adv-x="1060" unicode="Ê"/><glyph d="M199 1812q0 31 30 31h166q31 0 31-31v-161q0-31-31-31H229q-31 0-30 31v161zm477 0q0 31 31 31h163q31 0 31-31v-161q0-31-31-31H707q-31 0-31 31v161zm262-589H367V813h436q31 0 31-31V633q0-31-31-31H367V211h581q31 0 31-31V31q0-31-31-31H164q-31 0-31 31v1372q0 31 31 31h774q31 0 31-31v-150q0-30-31-30z" glyph-name="Edieresis" horiz-adv-x="1060" unicode="Ë"/><glyph d="M317 1595H176q-23 0-49 37l-182 236q-12 16-5 26.5t25 10.5h219q20 0 43-37l111-236q18-37-21-37zm-184-192q0 31 31 31h176q31 0 31-31V31q0-31-31-31H164q-31 0-31 31v1372z" glyph-name="Igrave" horiz-adv-x="503" unicode="Ì"/><glyph d="M324 1843h217q18 0 25-10t-5-27l-182-235q-27-37-49-37H188q-39 0-20 37l113 235q18 37 43 37zm-191-440q0 31 31 31h176q31 0 31-31V31q0-31-31-31H164q-31 0-31 31v1372z" glyph-name="Iacute" horiz-adv-x="503" unicode="Í"/><glyph d="M332 1847q29 0 57-32l234-263q12-16 6-27.5t-23-11.5H432q-17 0-30 17.5t-17 21.5l-133 150-131-150q-33-39-49-39h-174q-16 0-22.5 12.5t5.5 26.5l234 263q29 33 55 32h162zm-199-444q0 31 31 31h176q31 0 31-31V31q0-31-31-31H164q-31 0-31 31v1372z" glyph-name="Icircumflex" horiz-adv-x="503" unicode="Î"/><glyph d="M-100 1812q0 31 30 31H96q31 0 31-31v-161q0-31-31-31H-70q-31 0-30 31v161zm477 0q0 31 31 31h163q31 0 31-31v-161q0-31-31-31H408q-31 0-31 31v161zm-244-409q0 31 31 31h176q31 0 31-31V31q0-31-31-31H164q-31 0-31 31v1372z" glyph-name="Idieresis" horiz-adv-x="503" unicode="Ï"/><glyph d="M741 1434q199 0 302.5-105.5T1147 1032V403q0-190-103.5-296.5T741 0H213q-31 0-31 31v602H61q-31 0-30 31v143q0 31 30 31h121v565q0 31 31 31h528zM913 403v629q0 106-39.5 148.5T741 1223H416V838h186q31 0 31-31V664q0-31-31-31H416V211h325q92 0 132 41.5T913 403z" glyph-name="Eth" horiz-adv-x="1239" unicode="Ð"/><glyph d="M1001 1679q12-23-20-41-102-74-191.5-83T603 1600t-136 50.5-117-57.5q-16-12-33 17l-63 127q-8 23 20 43 207 145 385 30 88-49 128-45t118 58q20 14 33-17zm91-245q31 0 30-31V31q0-31-30-31H858q-27 0-37 23L367 1049V31q0-31-31-31H164q-31 0-31 31v1372q0 31 31 31h233q25 0 37-23L889 387v1016q0 31 31 31h172z" glyph-name="Ntilde" horiz-adv-x="1255" unicode="Ñ"/><glyph d="M690 1595H549q-23 0-49 37l-183 236q-12 16-5 26.5t26 10.5h219q20 0 43-37l111-236q18-37-21-37zm35-151q203 0 307.5-112.5T1137 1018V416q0-201-104.5-313.5T725-10H524q-203 0-307 112.5T113 416v602q0 201 104.5 313.5T524 1444h201zM903 416v602q0 117-42 166t-136 49H524q-94 0-136-49t-42-166V416q0-119 42-167t136-48h201q94 0 136 48t42 167z" glyph-name="Ograve" horiz-adv-x="1249" unicode="Ò"/><glyph d="M696 1843h217q18 0 25.5-10t-4.5-27l-182-235q-27-37-50-37H561q-39 0-20 37l112 235q18 37 43 37zm29-399q203 0 307.5-112.5T1137 1018V416q0-201-104.5-313.5T725-10H524q-203 0-307 112.5T113 416v602q0 201 104.5 313.5T524 1444h201zM903 416v602q0 117-42 166t-136 49H524q-94 0-136-49t-42-166V416q0-119 42-167t136-48h201q94 0 136 48t42 167z" glyph-name="Oacute" horiz-adv-x="1249" unicode="Ó"/><glyph d="M705 1847q29 0 57-32l233-263q12-16 6-27.5t-22-11.5H805q-17-1-24 9l-13 18q-6 8-10 12l-133 150-131-150q-33-39-50-39H270q-16 0-22 12.5t6 26.5l233 263q29 33 56 32h162zm20-403q203 0 307.5-112.5T1137 1018V416q0-201-104.5-313.5T725-10H524q-203 0-307 112.5T113 416v602q0 201 104.5 313.5T524 1444h201zM903 416v602q0 117-42 166t-136 49H524q-94 0-136-49t-42-166V416q0-119 42-167t136-48h201q94 0 136 48t42 167z" glyph-name="Ocircumflex" horiz-adv-x="1249" unicode="Ô"/><glyph d="M999 1679q12-23-20-41-102-74-191.5-83T601 1600t-136 50.5-117-57.5q-16-12-33 17l-63 127q-8 23 20 43 207 145 385 30 88-49 128-45t118 58q20 14 33-17zm-274-235q203 0 307.5-112.5T1137 1018V416q0-201-104.5-313.5T725-10H524q-203 0-307 112.5T113 416v602q0 201 104.5 313.5T524 1444h201zM903 416v602q0 117-42 166t-136 49H524q-94 0-136-49t-42-166V416q0-119 42-167t136-48h201q94 0 136 48t42 167z" glyph-name="Otilde" horiz-adv-x="1249" unicode="Õ"/><glyph d="M272 1812q0 31 31 31h166q31 0 31-31v-161q0-31-31-31H303q-31 0-31 31v161zm478 0q0 31 30 31h164q31 0 31-31v-161q0-31-31-31H780q-31 0-30 31v161zm-25-368q203 0 307.5-112.5T1137 1018V416q0-201-104.5-313.5T725-10H524q-203 0-307 112.5T113 416v602q0 201 104.5 313.5T524 1444h201zM903 416v602q0 117-42 166t-136 49H524q-94 0-136-49t-42-166V416q0-119 42-167t136-48h201q94 0 136 48t42 167z" glyph-name="Odieresis" horiz-adv-x="1249" unicode="Ö"/><glyph d="M831 469q20-25 0-45L713 303q-23-23-45 0L471 498 289 315q-23-20-43 0L125 436q-27 23 0 45l182 183-194 192q-23 20 0 43l123 123q23 23 43 0l194-195 180 183q18 18 41-2l123-123q23-20 0-43L637 664z" glyph-name="multiply" horiz-adv-x="946" unicode="×"/><glyph d="M1137 1018V416q0-201-104.5-313.5T725-10H524q-49 0-92 6l-8-16q-12-31-41-31H199q-33 0-21 31l49 112Q112 201 113 416v602q0 201 104.5 313.5T524 1444h201q49 0 88-6l8 18q14 31 41 31h185q35 0 20-31l-49-110q119-113 119-328zM346 416q0-33 2-47l377 864H524q-94 0-136-49t-42-166V416zm557 0v602q0 39-2 55L520 201h205q94 0 136 48t42 167z" glyph-name="Oslash" horiz-adv-x="1249" unicode="Ø"/><glyph d="M711 1595H569q-23 0-49 37l-182 236q-12 16-5 26.5t25 10.5h220q20 0 43-37l110-236q18-37-20-37zm407-161q39 0 39-39V416q0-203-103.5-314.5T745-10H547q-207 0-310.5 111.5T133 416v979q0 39 41 39h154q39 0 39-39V416q0-115 43-165t137-50h198q94 0 136.5 50T924 416v979q0 39 41 39h153z" glyph-name="Ugrave" horiz-adv-x="1290" unicode="Ù"/><glyph d="M717 1843h217q18 0 25.5-10t-5.5-27l-182-235q-27-37-49-37H582q-39 0-21 37l113 235q18 37 43 37zm401-409q39 0 39-39V416q0-203-103.5-314.5T745-10H547q-207 0-310.5 111.5T133 416v979q0 39 41 39h154q39 0 39-39V416q0-115 43-165t137-50h198q94 0 136.5 50T924 416v979q0 39 41 39h153z" glyph-name="Uacute" horiz-adv-x="1290" unicode="Ú"/><glyph d="M725 1847q29 0 57-32l234-263q12-16 6-27.5t-23-11.5H825q-16-1-27 15-12 16-20 24l-133 150-131-150q-33-39-49-39H291q-16 0-22.5 12.5t5.5 26.5l234 263q29 33 55 32h162zm393-413q39 0 39-39V416q0-203-103.5-314.5T745-10H547q-207 0-310.5 111.5T133 416v979q0 39 41 39h154q39 0 39-39V416q0-115 43-165t137-50h198q94 0 136.5 50T924 416v979q0 39 41 39h153z" glyph-name="Ucircumflex" horiz-adv-x="1290" unicode="Û"/><glyph d="M293 1812q0 31 31 31h165q31 0 31-31v-161q0-31-31-31H324q-31 0-31 31v161zm477 0q0 31 31 31h164q31 0 30-31v-161q0-31-30-31H801q-31 0-31 31v161zm348-378q39 0 39-39V416q0-203-103.5-314.5T745-10H547q-207 0-310.5 111.5T133 416v979q0 39 41 39h154q39 0 39-39V416q0-115 43-165t137-50h198q94 0 136.5 50T924 416v979q0 39 41 39h153z" glyph-name="Udieresis" horiz-adv-x="1290" unicode="Ü"/><glyph d="M668 1843h217q18 0 25.5-10t-5.5-27l-182-235q-27-37-49-37H532q-39 0-20 37l113 235q18 37 43 37zm440-409q35 0 20-31L715 604V31q0-31-31-31H512q-31 0-31 31v573L66 1403q-16 31 20 31h190q27 0 41-31l281-555 279 555q16 31 41 31h190z" glyph-name="Yacute" horiz-adv-x="1193" unicode="Ý"/><glyph d="M651 1174q182 0 291-116t109-312.5T942.5 432 651 315H367V31q0-31-31-31H164q-31 0-31 31v1425q0 31 31 31h172q31 0 31-31v-282h284zm-18-646q184 0 184 215T633 958H367V528h266z" glyph-name="Thorn" horiz-adv-x="1153" unicode="Þ"/><glyph d="M1079 473V367q0-195-100-281T655 0h-65q-31 0-31 31v143q0 31 31 31h63q115 0 157 32.5T852 383v98q0 182-201 183h-61q-31 0-31 30v144q0 31 31 30h61q84 0 110.5 36t26.5 114v102q0 66-28.5 95.5T666 1245H473q-119 0-119-125L352 31q0-31-30-31H156q-31 0-31 31l-2 1089q0 156 93 243t257 87h193q158 0 254-88t96-242v-84q0-221-158-264 221-57 221-299z" glyph-name="germandbls" horiz-adv-x="1171" unicode="ß"/><glyph d="M233 1495h220q23 0 43-37l110-235q18-37-20-37H444q-22 0-49 37l-182 235q-12 16-5 26.5t25 10.5zM920 0H731q-37 0-37 49v70Q610-10 475-10h-63q-147 0-238.5 85T82 309q0 297 326 297h286v84q0 80-31.5 108.5T549 827h-60q-121 0-231-45-51-20-68 17l-43 100q-14 35 11 49 135 84 331 84h60q190 0 281.5-86T922 680V49q0-15 4-32t-6-17zM520 195q129 0 174 98v135H412q-104 0-104.5-116.5T412 195h108z" glyph-name="agrave" horiz-adv-x="1050" unicode="à"/><glyph d="M457 1124q-39 0-21 37l113 236q18 37 43 37h217q18 0 25.5-10.5T829 1397l-182-236q-27-37-49-37H457zM920 0H731q-37 0-37 49v70Q610-10 475-10h-63q-147 0-238.5 85T82 309q0 297 326 297h286v84q0 80-31.5 108.5T549 827h-60q-121 0-231-45-51-20-68 17l-43 100q-14 35 11 49 135 84 331 84h60q190 0 281.5-86T922 680V49q0-15 4-32t-6-17zM520 195q129 0 174 98v135H412q-104 0-104.5-116.5T412 195h108z" glyph-name="aacute" horiz-adv-x="1050" unicode="á"/><glyph d="M166 1104q-16 0-22.5 12t6.5 27l233 262q29 33 55 33h162q29 0 57-33l234-262q12-16 6-27.5t-23-11.5H700q-16 0-29 17t-18 22l-133 149-131-149q-33-39-49-39H166zM920 0H731q-37 0-37 49v70Q610-10 475-10h-63q-147 0-238.5 85T82 309q0 297 326 297h286v84q0 80-31.5 108.5T549 827h-60q-121 0-231-45-51-20-68 17l-43 100q-14 35 11 49 135 84 331 84h60q190 0 281.5-86T922 680V49q0-15 4-32t-6-17zM520 195q129 0 174 98v135H412q-104 0-104.5-116.5T412 195h108z" glyph-name="acircumflex" horiz-adv-x="1050" unicode="â"/><glyph d="M211 1200l-64 127q-8 23 21 43 207 145 385 31 88-49 128-45t118 57q20 14 32-16l64-127q12-23-21-41-102-74-191-83t-186.5 45-136 50-116.5-57q-17-13-33 16zM920 0H731q-37 0-37 49v70Q610-10 475-10h-63q-147 0-238.5 85T82 309q0 297 326 297h286v84q0 80-31.5 108.5T549 827h-60q-121 0-231-45-51-20-68 17l-43 100q-14 35 11 49 135 84 331 84h60q190 0 281.5-86T922 680V49q0-15 4-32t-6-17zM520 195q129 0 174 98v135H412q-104 0-104.5-116.5T412 195h108z" glyph-name="atilde" horiz-adv-x="1050" unicode="ã"/><glyph d="M199 1210q-31 0-31 31v162q0 31 31 31h166q31 0 30-31v-162q0-31-30-31H199zm477 0q-31 0-31 31v162q0 31 31 31h164q31 0 30-31v-162q0-31-30-31H676zM920 0H731q-37 0-37 49v70Q610-10 475-10h-63q-147 0-238.5 85T82 309q0 297 326 297h286v84q0 80-31.5 108.5T549 827h-60q-121 0-231-45-51-20-68 17l-43 100q-14 35 11 49 135 84 331 84h60q190 0 281.5-86T922 680V49q0-15 4-32t-6-17zM520 195q129 0 174 98v135H412q-104 0-104.5-116.5T412 195h108z" glyph-name="adieresis" horiz-adv-x="1050" unicode="ä"/><glyph d="M506 1102q-76 0-124 49t-48 121v22q0 74 49 123t123 49h26q74 0 123.5-49t49.5-123v-22q0-72-49.5-121T532 1102h-26zm4 239q-49 0-49-49v-14q0-23 14-37t35-14h18q23 0 37.5 14t14.5 37v14q0 23-14.5 36t-37.5 13h-18zM920 0H731q-37 0-37 49v70Q610-10 475-10h-63q-147 0-238.5 85T82 309q0 297 326 297h286v84q0 80-31.5 108.5T549 827h-60q-121 0-231-45-51-20-68 17l-43 100q-14 35 11 49 135 84 331 84h60q190 0 281.5-86T922 680V49q0-15 4-32t-6-17zM520 195q129 0 174 98v135H412q-104 0-104.5-116.5T412 195h108z" glyph-name="aring" horiz-adv-x="1050" unicode="å"/><glyph d="M1440 422H922v-90q0-137 133-137h100q80 0 114 15t70 56q16 20 45 0l84-55q29-20 11-45-49-61-78-89t-94.5-57.5T1155-10h-100q-115 0-200 54T727 190Q639-11 467-10h-57q-145 0-236.5 84T82 305q0 295 324 295h282v90q0 80-31.5 108.5T543 827h-54q-121 0-231-45-51-20-68 17l-43 100q-14 35 11 49 135 84 331 84h54q182 0 272-78 98 78 240 78h100q147 0 246.5-102.5T1501 659V483q0-61-61-61zM922 688v-88h352v90q0 137-119 137h-100q-133 0-133-139zM512 195q137 0 182 110-6 35-6 70v47H410q-102 0-102.5-114T410 195h102z" glyph-name="ae" horiz-adv-x="1593" unicode="æ"/><glyph d="M459 825q-133 0-133-137V332q0-137 133-137h100q66 0 97.5 18t66.5 66q20 25 55 0l99-70q25-18 6-43-49-59-73-84t-82-55.5T596-8q-26-39-6-51t55-15q102-12 145.5-49T834-258q0-156-197-156H485q-86 0-132 43t-48 121q0 20 19 21h137q20 0 20-17 0-33 66-33h41q47 0 58 8.5t11 22.5q0 20-25.5 27.5t-100 16.5T427-190.5 375.5-170 354-110 399-6Q258 14 175 118.5T92 375v284q0 166 99.5 268.5T459 1030h100q135 0 232.5-86T903 717q2-43-39-43H715q-35 0-39 39-16 113-117 112H459z" glyph-name="ccedilla" horiz-adv-x="987" unicode="ç"/><glyph d="M565 1186H424q-23 0-49 37l-182 235q-12 16-5 26.5t25 10.5h219q23 0 43-37l111-235q18-37-21-37zm-6-154q147 0 246.5-102.5T905 659V483q0-61-61-61H326v-90q0-137 133-137h100q80 0 114 15t70 56q16 20 45 0l84-55q29-20 11-45-49-61-78-89t-94.5-57.5T559-10H459Q293-10 192.5 99.5T92 375v284q0 168 99.5 270.5T459 1032h100zm119-432v90q0 137-119 137H459q-133 0-133-139v-88h352z" glyph-name="egrave" horiz-adv-x="997" unicode="è"/><glyph d="M571 1434h217q18 0 25.5-10.5T809 1397l-182-236q-27-37-49-37H436q-39 0-20 37l112 236q18 37 43 37zm-12-402q147 0 246.5-102.5T905 659V483q0-61-61-61H326v-90q0-137 133-137h100q80 0 114 15t70 56q16 20 45 0l84-55q29-20 11-45-49-61-78-89t-94.5-57.5T559-10H459Q293-10 192.5 99.5T92 375v284q0 168 99.5 270.5T459 1032h100zm119-432v90q0 137-119 137H459q-133 0-133-139v-88h352z" glyph-name="eacute" horiz-adv-x="997" unicode="é"/><glyph d="M418 1438h162q29 0 57-33l233-262q12-16 6-27.5t-22-11.5H680q-18 0-24.5 9t-12.5 17.5-10 12.5l-133 149-131-149q-33-39-50-39H145q-16 0-22 12.5t6 26.5l233 262q29 33 56 33zm141-406q147 0 246.5-102.5T905 659V483q0-61-61-61H326v-90q0-137 133-137h100q80 0 114 15t70 56q16 20 45 0l84-55q29-20 11-45-49-61-78-89t-94.5-57.5T559-10H459Q293-10 192.5 99.5T92 375v284q0 168 99.5 270.5T459 1032h100zm119-432v90q0 137-119 137H459q-133 0-133-139v-88h352z" glyph-name="ecircumflex" horiz-adv-x="997" unicode="ê"/><glyph d="M147 1403q0 31 31 31h166q31 0 31-31v-162q0-31-31-31H178q-31 0-31 31v162zm478 0q0 31 30 31h164q31 0 31-31v-162q0-31-31-31H655q-31 0-30 31v162zm-66-371q147 0 246.5-102.5T905 659V483q0-61-61-61H326v-90q0-137 133-137h100q80 0 114 15t70 56q16 20 45 0l84-55q29-20 11-45-49-61-78-89t-94.5-57.5T559-10H459Q293-10 192.5 99.5T92 375v284q0 168 99.5 270.5T459 1032h100zm119-432v90q0 137-119 137H459q-133 0-133-139v-88h352z" glyph-name="edieresis" horiz-adv-x="997" unicode="ë"/><glyph d="M340 1186H199q-23 0-49 37l-183 235q-12 16-5 26.5t26 10.5h219q23 0 43-37l110-235q18-37-20-37zM164 993q0 31 31 31h165q31 0 31-31V31q0-31-31-31H195q-31 0-31 31v962z" glyph-name="igrave" horiz-adv-x="555" unicode="ì"/><glyph d="M346 1434h217q18 0 25.5-10.5T584 1397l-183-236q-27-37-49-37H211q-39 0-21 37l113 236q18 37 43 37zM164 993q0 31 31 31h165q31 0 31-31V31q0-31-31-31H195q-31 0-31 31v962z" glyph-name="iacute" horiz-adv-x="555" unicode="í"/><glyph d="M193 1438h161q29 0 58-33l233-262q12-16 6-27.5t-22-11.5H455q-18 0-24.5 9t-12.5 17.5-10 12.5l-134 149-131-149q-33-39-49-39H-80q-16 0-22 12.5t6 26.5l233 262q29 33 56 33zm-29-445q0 31 31 31h165q31 0 31-31V31q0-31-31-31H195q-31 0-31 31v962z" glyph-name="icircumflex" horiz-adv-x="555" unicode="î"/><glyph d="M-78 1403q0 31 31 31h166q31 0 31-31v-162q0-31-31-31H-47q-31 0-31 31v162zm477 0q0 31 31 31h164q31 0 31-31v-162q0-31-31-31H430q-31 0-31 31v162zM164 993q0 31 31 31h165q31 0 31-31V31q0-31-31-31H195q-31 0-31 31v962z" glyph-name="idieresis" horiz-adv-x="555" unicode="ï"/><glyph d="M983 1487q18 0 24.5-10.5t-6.5-26.5l-98-127q63-102 76-227 39-352 8-682-18-203-122.5-318.5T608-20H487Q321-20 213.5 94T102 442q-8 476 410 476 165 0 198-15.5t70-38.5q4 59-4 94t-17 79-16 77q-23-33-45-33H502q-18 0-24.5 10.5t3.5 26.5l125 162h-98q-31 0-31 31v172q0 31 31 30h49q111 0 195-47 16 20 34 21h197zM506 213h65q90 0 123 23 64 42 74 156t2 168-46 79-75 30-135 7-137-59.5T340 431t41-171 125-47z" glyph-name="eth" horiz-adv-x="1112" unicode="ð"/><glyph d="M907 1270q12-23-20-41-102-74-191.5-83T509 1191t-136 50-117-57q-16-12-33 16l-63 127q-8 23 20 43 207 145 385 31 88-49 128-45t118 57q20 14 33-16zm-270-238q305 0 305-360V31q0-31-31-31H745q-31 0-30 31v663q0 133-135 133h-27q-74 0-128-28.5T350 735V31q0-31-31-31H154q-31 0-31 31v962q0 31 31 31h165q31 0 31-31v-98q90 137 273 137h14z" glyph-name="ntilde" unicode="ñ"/><glyph d="M565 1186H424q-23 0-49 37l-182 235q-12 16-5 26.5t25 10.5h219q23 0 43-37l111-235q18-37-21-37zm-8-154q166 0 263.5-102.5T918 662V356q0-166-97.5-266T557-10H453Q287-10 189.5 90T92 356v306q0 166 97.5 268T453 1032h104zm133-700v358q0 137-133 137H453q-133 0-134-137V332q0-137 134-137h104q133 0 133 137z" glyph-name="ograve" horiz-adv-x="1009" unicode="ò"/><glyph d="M571 1434h217q18 0 25.5-10.5T809 1397l-182-236q-27-37-49-37H436q-39 0-20 37l112 236q18 37 43 37zm-14-402q166 0 263.5-102.5T918 662V356q0-166-97.5-266T557-10H453Q287-10 189.5 90T92 356v306q0 166 97.5 268T453 1032h104zm133-700v358q0 137-133 137H453q-133 0-134-137V332q0-137 134-137h104q133 0 133 137z" glyph-name="oacute" horiz-adv-x="1009" unicode="ó"/><glyph d="M418 1438h162q29 0 57-33l233-262q12-16 6-27.5t-22-11.5H680q-18 0-24.5 9t-12.5 17.5-10 12.5l-133 149-131-149q-33-39-50-39H145q-16 0-22 12.5t6 26.5l233 262q29 33 56 33zm139-406q166 0 263.5-102.5T918 662V356q0-166-97.5-266T557-10H453Q287-10 189.5 90T92 356v306q0 166 97.5 268T453 1032h104zm133-700v358q0 137-133 137H453q-133 0-134-137V332q0-137 134-137h104q133 0 133 137z" glyph-name="ocircumflex" horiz-adv-x="1009" unicode="ô"/><glyph d="M874 1270q12-23-20-41-102-74-191.5-83T476 1191t-136 50-117-57q-16-12-33 16l-63 127q-8 23 20 43 207 145 385 31 88-49 128-45t118 57q20 14 33-16zm-317-238q166 0 263.5-102.5T918 662V356q0-166-97.5-266T557-10H453Q287-10 189.5 90T92 356v306q0 166 97.5 268T453 1032h104zm133-700v358q0 137-133 137H453q-133 0-134-137V332q0-137 134-137h104q133 0 133 137z" glyph-name="otilde" horiz-adv-x="1009" unicode="õ"/><glyph d="M147 1403q0 31 31 31h166q31 0 31-31v-162q0-31-31-31H178q-31 0-31 31v162zm478 0q0 31 30 31h164q31 0 31-31v-162q0-31-31-31H655q-31 0-30 31v162zm-68-371q166 0 263.5-102.5T918 662V356q0-166-97.5-266T557-10H453Q287-10 189.5 90T92 356v306q0 166 97.5 268T453 1032h104zm133-700v358q0 137-133 137H453q-133 0-134-137V332q0-137 134-137h104q133 0 133 137z" glyph-name="odieresis" horiz-adv-x="1009" unicode="ö"/><glyph d="M397 1130q0 31 31 31h197q31 0 30-31V932q0-31-30-31H428q-31 0-31 31v198zm504-352q29 0 29-30V575q0-31-31-30H154q-31 0-31 30v173q0 31 31 30h747zM397 391q0 31 31 31h197q31 0 30-31V193q0-31-30-31H428q-31 0-31 31v198z" glyph-name="divide" horiz-adv-x="1052" unicode="÷"/><glyph d="M918 356q0-166-97.5-266T557-10H453q-39 0-76 6-12-27-37-27H178q-35 0-20 31l39 82Q93 182 92 356v306q0 166 97.5 268T453 1032h104q43 0 80-6 12 18 35 18h159q37 0 21-30l-37-80q102-102 103-272V356zM319 690V346l226 481h-92q-134 0-134-137zm238-495q133 0 133 137v332L471 195h86z" glyph-name="oslash" horiz-adv-x="1009" unicode="ø"/><glyph d="M606 1186H465q-23 0-49 37l-183 235q-12 16-4.5 26.5T254 1495h219q23 0 43-37l111-235q18-37-21-37zM428-8Q123-8 123 352v641q0 31 31 31h165q31 0 31-31V330q0-133 135-133h27q74 0 128 28.5t75 63.5v704q0 31 30 31h166q31 0 31-31V31q0-31-31-31H745q-31 0-30 31v98Q625-8 442-8h-14z" glyph-name="ugrave" unicode="ù"/><glyph d="M614 1434h217q18 0 25.5-10.5T852 1397l-182-236q-27-37-49-37H479q-39 0-20 37l112 236q18 37 43 37zM428-8Q123-8 123 352v641q0 31 31 31h165q31 0 31-31V330q0-133 135-133h27q74 0 128 28.5t75 63.5v704q0 31 30 31h166q31 0 31-31V31q0-31-31-31H745q-31 0-30 31v98Q625-8 442-8h-14z" glyph-name="uacute" unicode="ú"/><glyph d="M459 1438h162q29 0 57-33l233-262q12-16 6-27.5t-22-11.5H721q-18 0-24.5 9t-12.5 17.5-10 12.5l-133 149-131-149q-33-39-50-39H186q-16 0-22 12.5t6 26.5l233 262q29 33 56 33zM428-8Q123-8 123 352v641q0 31 31 31h165q31 0 31-31V330q0-133 135-133h27q74 0 128 28.5t75 63.5v704q0 31 30 31h166q31 0 31-31V31q0-31-31-31H745q-31 0-30 31v98Q625-8 442-8h-14z" glyph-name="ucircumflex" unicode="û"/><glyph d="M190 1403q0 31 31 31h166q31 0 31-31v-162q0-31-31-31H221q-31 0-31 31v162zm478 0q0 31 30 31h164q31 0 31-31v-162q0-31-31-31H698q-31 0-30 31v162zM428-8Q123-8 123 352v641q0 31 31 31h165q31 0 31-31V330q0-133 135-133h27q74 0 128 28.5t75 63.5v704q0 31 30 31h166q31 0 31-31V31q0-31-31-31H745q-31 0-30 31v98Q625-8 442-8h-14z" glyph-name="udieresis" unicode="ü"/><glyph d="M471 1124q-39 0-20 37l112 236q18 37 43 37h217q18 0 25.5-10.5T844 1397l-182-236q-27-37-50-37H471zm528-100q31 0 17-37L471-375q-14-35-43-35H260q-35 0-20 37L420 76 55 987q-14 37 19 37h170q29 0 41-35l245-637 256 637q14 35 43 35h170z" glyph-name="yacute" horiz-adv-x="1071" unicode="ý"/><glyph d="M608 1032q166 0 262.5-102.5T967 662V356q0-164-96.5-265T608-10h-53q-141 0-205 110v-479q0-31-22-31H154q-31 0-31 31v1835q0 31 31 31h165q31 0 31-31V930q63 102 205 102h53zm131-700v358q0 137-133 137H483q-133 0-133-137V332q0-137 133-137h123q133 0 133 137z" glyph-name="thorn" horiz-adv-x="1058" unicode="þ"/><glyph d="M213 1210q-31 0-31 31v162q0 31 31 31h166q31 0 31-31v-162q0-31-31-31H213zm477 0q-31 0-31 31v162q0 31 31 31h164q31 0 31-31v-162q0-31-31-31H690zm309-186q31 0 17-37L471-375q-14-35-43-35H260q-35 0-20 37L420 76 55 987q-14 37 19 37h170q29 0 41-35l245-637 256 637q14 35 43 35h170z" glyph-name="ydieresis" horiz-adv-x="1071" unicode="ÿ"/><glyph d="M244 1636q-31 0-31 31v145q0 31 31 31h663q31 0 31-31v-145q0-31-31-31H244zM1061 0H881q-29 0-37 33l-72 274H377L305 33q-8-33-37-33H88Q55 0 63 33l400 1368q10 33 39 33h145q29 0 39-33L1085 33q8-33-24-33zM430 512h289l-146 555z" glyph-name="Amacron" horiz-adv-x="1148" unicode="Ā"/><glyph d="M188 1227q-31 0-30 30v146q0 31 30 31h664q31 0 31-31v-146q0-31-31-30H188zM920 0H731q-37 0-37 49v70Q610-10 475-10h-63q-147 0-238.5 85T82 309q0 297 326 297h286v84q0 80-31.5 108.5T549 827h-60q-121 0-231-45-51-20-68 17l-43 100q-14 35 11 49 135 84 331 84h60q190 0 281.5-86T922 680V49q0-15 4-32t-6-17zM520 195q129 0 174 98v135H412q-104 0-104.5-116.5T412 195h108z" glyph-name="amacron" horiz-adv-x="1050" unicode="ā"/><glyph d="M516 1511q-139 0-214 78t-77 223q0 31 31 31h129q31 0 31-31 4-137 116-137h84q109 0 117 137 0 31 31 31h127q31 0 31-31-2-145-76-223t-213-78H516zM1061 0H881q-29 0-37 33l-72 274H377L305 33q-8-33-37-33H88Q55 0 63 33l400 1368q10 33 39 33h145q29 0 39-33L1085 33q8-33-24-33zM430 512h289l-146 555z" glyph-name="Abreve" horiz-adv-x="1148" unicode="Ă"/><glyph d="M463 1102q-139 0-214 77.5T172 1403q0 31 31 31h129q31 0 30-31 4-137 117-137h84q109 0 117 137 0 31 31 31h127q31 0 30-31-2-145-75.5-223T580 1102H463zM920 0H731q-37 0-37 49v70Q610-10 475-10h-63q-147 0-238.5 85T82 309q0 297 326 297h286v84q0 80-31.5 108.5T549 827h-60q-121 0-231-45-51-20-68 17l-43 100q-14 35 11 49 135 84 331 84h60q190 0 281.5-86T922 680V49q0-15 4-32t-6-17zM520 195q129 0 174 98v135H412q-104 0-104.5-116.5T412 195h108z" glyph-name="abreve" horiz-adv-x="1050" unicode="ă"/><glyph d="M1055-238q20 0 20-24v-103q0-20-20-20H799q-104 0-152.5 35T598-221t42 122.5T764-60t111.5 20.5T907 0h-26q-29 0-37 33l-72 274H377L305 33q-8-33-37-33H88Q55 0 63 33l400 1368q10 33 39 33h145q29 0 39-33L1085 33v-2q2-2 2-4 25-106-10-148.5T961-172l-173-18q-29-2-28-27 0-20 45-21h250zM430 512h289l-146 555z" glyph-name="Aogonek" horiz-adv-x="1159" unicode="Ą"/><glyph d="M893-238q20 0 20-24v-103q0-20-20-20H635q-104 0-152.5 35T434-221t42 122.5T590-60t86 11.5T703.5-38 714-15.5 698 25q-4 16-4 24v70Q610-10 475-10h-63q-147 0-238.5 85T82 309q0 297 326 297h286v84q0 80-31.5 108.5T549 827h-60q-121 0-231-45-51-20-68 17l-43 100q-14 35 11 49 135 84 331 84h60q190 0 281.5-86T922 680V49q0-14 4-31v-2q2-4 2-6 20-96-15.5-135T797-172l-170-18q-31-2-31-27 0-20 45-21h252zM520 195q129 0 174 98v135H412q-104 0-104.5-116.5T412 195h108z" glyph-name="aogonek" horiz-adv-x="1015" unicode="ą"/><glyph d="M690 1843h217q18 0 25.5-10t-4.5-27l-183-235q-27-37-49-37H555q-39 0-20 37l112 235q18 37 43 37zm387-1407q43 0 39-39-10-195-113.5-301T707-10H524q-203 0-307 112.5T113 416v602q0 201 104.5 313.5T524 1444h183q193 0 296-105.5t113-300.5q4-41-39-41H924q-37 0-41 41-4 106-46 150.5T707 1233H524q-94 0-136-49t-42-166V416q0-119 42-167t136-48h183q88 0 130 44t46 152q4 39 41 39h153z" glyph-name="Cacute" horiz-adv-x="1218" unicode="Ć"/><glyph d="M565 1434h217q18 0 25.5-10.5T803 1397l-182-236q-27-37-50-37H430q-39 0-20 37l112 236q18 37 43 37zm150-760q-35 0-39 39-16 113-117 112H459q-133 0-133-137V332q0-137 133-137h100q66 0 97.5 18t66.5 66q20 25 55 0l99-70q25-18 6-43-39-47-58.5-67.5T765 46q-70-56-206-56H459Q293-10 192.5 99.5T92 375v284q0 166 99.5 268.5T459 1030h100q135 0 232.5-86T903 717q2-43-39-43H715z" glyph-name="cacute" horiz-adv-x="987" unicode="ć"/><glyph d="M506 1812q0 31 31 31h165q31 0 31-31v-161q0-31-31-31H537q-31 0-31 31v161zm571-1376q43 0 39-39-10-195-113.5-301T707-10H524q-203 0-307 112.5T113 416v602q0 201 104.5 313.5T524 1444h183q193 0 296-105.5t113-300.5q4-41-39-41H924q-37 0-41 41-4 106-46 150.5T707 1233H524q-94 0-136-49t-42-166V416q0-119 42-167t136-48h183q88 0 130 44t46 152q4 39 41 39h153z" glyph-name="Cdotaccent" horiz-adv-x="1218" unicode="Ċ"/><glyph d="M381 1403q0 31 31 31h166q31 0 30-31v-162q0-31-30-31H412q-31 0-31 31v162zm334-729q-35 0-39 39-16 113-117 112H459q-133 0-133-137V332q0-137 133-137h100q66 0 97.5 18t66.5 66q20 25 55 0l99-70q25-18 6-43-39-47-58.5-67.5T765 46q-70-56-206-56H459Q293-10 192.5 99.5T92 375v284q0 166 99.5 268.5T459 1030h100q135 0 232.5-86T903 717q2-43-39-43H715z" glyph-name="cdotaccent" horiz-adv-x="987" unicode="ċ"/><glyph d="M264 1843h174q16 0 49-39l131-149 134 149q4 4 10 12 19 26 37 27h174q16 0 22-12t-6-27l-233-262q-29-33-58-33H537q-27 0-56 33l-233 262q-12 14-6 26.5t22 12.5zm813-1407q43 0 39-39-10-195-113.5-301T707-10H524q-203 0-307 112.5T113 416v602q0 201 104.5 313.5T524 1444h183q193 0 296-105.5t113-300.5q4-41-39-41H924q-37 0-41 41-4 106-46 150.5T707 1233H524q-94 0-136-49t-42-166V416q0-119 42-167t136-48h183q88 0 130 44t46 152q4 39 41 39h153z" glyph-name="Ccaron" horiz-adv-x="1218" unicode="Č"/><glyph d="M139 1434h174q16 0 49-39l132-150 133 150q4 4 13 16 17 23 34 23h174q16 0 22.5-12.5T864 1395l-233-262q-29-33-58-33H412q-27 0-56 33l-233 262q-12 14-6 26.5t22 12.5zm576-760q-35 0-39 39-16 113-117 112H459q-133 0-133-137V332q0-137 133-137h100q66 0 97.5 18t66.5 66q20 25 55 0l99-70q25-18 6-43-39-47-58.5-67.5T765 46q-70-56-206-56H459Q293-10 192.5 99.5T92 375v284q0 166 99.5 268.5T459 1030h100q135 0 232.5-86T903 717q2-43-39-43H715z" glyph-name="ccaron" horiz-adv-x="987" unicode="č"/><glyph d="M246 1843h174q16 0 49-39l131-149 133 149q5 5 14 17 16 22 33 22h174q16 0 22.5-12t-5.5-27l-234-262q-29-33-57-33H518q-26 0-55 33l-234 262q-12 14-6 26.5t23 12.5zm446-409q199 0 302.5-105.5T1098 1032V403q0-190-103.5-296.5T692 0H164q-31 0-31 31v1372q0 31 31 31h528zM864 403v629q0 106-40 148.5T692 1223H367V211h325q92 0 132 41.5T864 403z" glyph-name="Dcaron" horiz-adv-x="1189" unicode="Ď"/><glyph d="M905 1434q31 0 31-31V31q0-31-31-31H737q-29 0-28 31v69Q641-11 504-10h-53Q285-10 188.5 91.5T92 356v306q0 166 96.5 268T451 1032h53q137 0 205-102v473q0 31 28 31h168zm316-9q31 0 30-30v-205q0-127-22.5-207T1139 823q-16-20-39 0l-49 43q-16 16-2 41 51 76 51 226l14 20h-104q-31 0-31 31v211q0 31 31 30h211zM575 195q133 0 134 137v358q0 137-134 137H453q-133 0-134-137V332q0-137 134-137h122z" glyph-name="dcaron" horiz-adv-x="1454" unicode="ď"/><glyph d="M741 1434q199 0 302.5-105.5T1147 1032V403q0-190-103.5-296.5T741 0H213q-31 0-31 31v602H61q-31 0-30 31v143q0 31 30 31h121v565q0 31 31 31h528zM913 403v629q0 106-39.5 148.5T741 1223H416V838h186q31 0 31-31V664q0-31-31-31H416V211h325q92 0 132 41.5T913 403z" glyph-name="Dcroat" horiz-adv-x="1239" unicode="Đ"/><glyph d="M987 1292q31 0 31-30v-146q0-31-31-31h-51V31q0-31-31-31H737q-29 0-28 31v69Q641-11 504-10h-53Q285-10 188.5 91.5T92 356v306q0 166 96.5 268T451 1032h53q137 0 205-102v155H324q-31 0-31 31v146q0 31 31 30h385v111q0 31 28 31h168q31 0 31-31v-111h51zM575 195q133 0 134 137v358q0 137-134 137H453q-133 0-134-137V332q0-137 134-137h122z" glyph-name="dcroat" horiz-adv-x="1069" unicode="đ"/><glyph d="M219 1636q-31 0-31 31v145q0 31 31 31h664q31 0 30-31v-145q0-31-30-31H219zm719-413H367V813h436q31 0 31-31V633q0-31-31-31H367V211h581q31 0 31-31V31q0-31-31-31H164q-31 0-31 31v1372q0 31 31 31h774q31 0 31-31v-150q0-30-31-30z" glyph-name="Emacron" horiz-adv-x="1060" unicode="Ē"/><glyph d="M168 1227q-31 0-31 30v146q0 31 31 31h663q31 0 31-31v-146q0-31-31-30H168zm391-195q147 0 246.5-102.5T905 659V483q0-61-61-61H326v-90q0-137 133-137h100q80 0 114 15t70 56q16 20 45 0l84-55q29-20 11-45-49-61-78-89t-94.5-57.5T559-10H459Q293-10 192.5 99.5T92 375v284q0 168 99.5 270.5T459 1032h100zm119-432v90q0 137-119 137H459q-133 0-133-139v-88h352z" glyph-name="emacron" horiz-adv-x="997" unicode="ē"/><glyph d="M438 1812q0 31 31 31h166q31 0 31-31v-161q0-31-31-31H469q-31 0-31 31v161zm500-589H367V813h436q31 0 31-31V633q0-31-31-31H367V211h581q31 0 31-31V31q0-31-31-31H164q-31 0-31 31v1372q0 31 31 31h774q31 0 31-31v-150q0-30-31-30z" glyph-name="Edotaccent" horiz-adv-x="1060" unicode="Ė"/><glyph d="M385 1403q0 31 31 31h166q31 0 30-31v-162q0-31-30-31H416q-31 0-31 31v162zm174-371q147 0 246.5-102.5T905 659V483q0-61-61-61H326v-90q0-137 133-137h100q80 0 114 15t70 56q16 20 45 0l84-55q29-20 11-45-49-61-78-89t-94.5-57.5T559-10H459Q293-10 192.5 99.5T92 375v284q0 168 99.5 270.5T459 1032h100zm119-432v90q0 137-119 137H459q-133 0-133-139v-88h352z" glyph-name="edotaccent" horiz-adv-x="997" unicode="ė"/><glyph d="M946-238q20 0 21-24v-103q0-20-21-20H690q-104 0-152.5 35T489-221t42 122.5 124 38T767-40t32 40H164q-31 0-31 31v1372q0 31 31 31h774q31 0 31-31v-150q0-31-31-30H367V813h436q31 0 31-31V633q0-31-31-31H367V211h581q31 0 31-31V27q25-106-10-148.5T852-172l-172-18q-29-2-29-27 0-20 45-21h250z" glyph-name="Eogonek" horiz-adv-x="1071" unicode="Ę"/><glyph d="M844 422H326v-90q0-137 133-137h100q80 0 114 15t70 56q16 20 45 0l84-55q29-20 11-45-37-43-53.5-62.5t-52.5-47T702 14q20-100-14.5-139T573-172l-170-18q-31-2-30-27 0-20 45-21h250q20 0 20-24v-103q0-20-20-20H412q-104 0-152.5 35T211-221t42 122.5 112.5 37T456-49q55 11 62 39h-59Q293-10 192.5 99.5T92 375v284q0 168 99.5 270.5T459 1032h100q147 0 246.5-102.5T905 659V483q0-61-61-61zM326 688v-88h352v90q0 137-119 137H459q-133 0-133-139z" glyph-name="eogonek" horiz-adv-x="997" unicode="ę"/><glyph d="M197 1843h174q16 0 49-39l131-149 133 149q4 4 10 12 19 26 37 27h174q16 0 22.5-12t-5.5-27l-234-262q-29-33-57-33H469q-27 0-55 33l-234 262q-12 14-6 26.5t23 12.5zm741-620H367V813h436q31 0 31-31V633q0-31-31-31H367V211h581q31 0 31-31V31q0-31-31-31H164q-31 0-31 31v1372q0 31 31 31h774q31 0 31-31v-150q0-30-31-30z" glyph-name="Ecaron" horiz-adv-x="1060" unicode="Ě"/><glyph d="M145 1434h174q16 0 50-39l131-150 133 150q4 4 13 16 17 23 34 23h174q16 0 22.5-12.5T870 1395l-233-262q-29-33-57-33H418q-27 0-56 33l-233 262q-12 14-6 26.5t22 12.5zm414-402q147 0 246.5-102.5T905 659V483q0-61-61-61H326v-90q0-137 133-137h100q80 0 114 15t70 56q16 20 45 0l84-55q29-20 11-45-49-61-78-89t-94.5-57.5T559-10H459Q293-10 192.5 99.5T92 375v284q0 168 99.5 270.5T459 1032h100zm119-432v90q0 137-119 137H459q-133 0-133-139v-88h352z" glyph-name="ecaron" horiz-adv-x="997" unicode="ě"/><glyph d="M561 1511q-139 0-214 78t-77 223q0 31 31 31h129q31 0 31-31 4-137 117-137h84q109 0 116 137 0 31 31 31h127q31 0 31-31-2-145-76-223t-213-78H561zm516-745q41 0 41-41V416q0-201-104.5-313.5T707-10H524q-203 0-307 112.5T113 416v602q0 201 104.5 313.5T524 1444h183q193 0 296-103.5t113-287.5q4-41-39-41H924q-37 0-41 41-6 98-48 139t-128 41H524q-94 0-136-49t-42-166V416q0-119 42-167t136-48h183q94 0 136 48t42 167v153H727q-39 0-39 41v115q0 41 39 41h350z" glyph-name="Gbreve" horiz-adv-x="1220" unicode="Ğ"/><glyph d="M471 1102q-139 0-214 77.5T180 1403q0 31 31 31h129q31 0 31-31 4-137 116-137h84q109 0 117 137 0 31 31 31h127q31 0 31-31-2-145-76-223t-213-78H471zm434-78q31 0 31-31V-47q0-362-404-363-139 0-210 17-39 8-39 43v121q0 16 11 27.5t28 6.5q72-16 189-16t157.5 33T709-47v147Q641-11 504-10h-53Q285-10 188.5 91.5T92 356v306q0 166 96.5 268T451 1032h53q137 0 205-102v63q0 31 28 31h168zM575 195q133 0 134 137v358q0 137-134 137H453q-133 0-134-137V332q0-137 134-137h122z" glyph-name="gbreve" horiz-adv-x="1058" unicode="ğ"/><glyph d="M537 1620q-31 0-31 31v161q0 31 31 31h165q31 0 31-31v-161q0-31-31-31H537zm540-854q41 0 41-41V416q0-201-104.5-313.5T707-10H524q-203 0-307 112.5T113 416v602q0 201 104.5 313.5T524 1444h183q193 0 296-103.5t113-287.5q4-41-39-41H924q-37 0-41 41-6 98-48 139t-128 41H524q-94 0-136-49t-42-166V416q0-119 42-167t136-48h183q94 0 136 48t42 167v153H727q-39 0-39 41v115q0 41 39 41h350z" glyph-name="Gdotaccent" horiz-adv-x="1220" unicode="Ġ"/><glyph d="M446 1210q-31 0-30 31v162q0 31 30 31h166q31 0 31-31v-162q0-31-31-31H446zm459-186q31 0 31-31V-47q0-362-404-363-139 0-210 17-39 8-39 43v121q0 16 11 27.5t28 6.5q72-16 189-16t157.5 33T709-47v147Q641-11 504-10h-53Q285-10 188.5 91.5T92 356v306q0 166 96.5 268T451 1032h53q137 0 205-102v63q0 31 28 31h168zM575 195q133 0 134 137v358q0 137-134 137H453q-133 0-134-137V332q0-137 134-137h122z" glyph-name="gdotaccent" horiz-adv-x="1058" unicode="ġ"/><glyph d="M1077 766q41 0 41-41V416q0-201-104.5-313.5T707-10H524q-203 0-307 112.5T113 416v602q0 201 104.5 313.5T524 1444h183q193 0 296-103.5t113-287.5q4-41-39-41H924q-37 0-41 41-6 98-48 139t-128 41H524q-94 0-136-49t-42-166V416q0-119 42-167t136-48h183q94 0 136 48t42 167v153H727q-39 0-39 41v115q0 41 39 41h350zM713-162q31 0 30-31v-204q0-127-22.5-207T631-764q-16-20-39 0l-49 43q-16 16-2 41 51 78 51 225l14 21H502q-31 0-31 31v210q0 31 31 31h211z" glyph-name="Gcommaaccent" horiz-adv-x="1220" unicode="Ģ"/><glyph d="M395 1124q-31 0-30 31v203q0 127 23.5 207t88.5 159q16 23 39 0l49-43q18-16 2-41-51-76-51-225l-14-20h104q31 0 31-31v-209q0-31-31-31H395zm510-100q31 0 31-31V-47q0-362-404-363-139 0-210 17-39 8-39 43v121q0 16 11 27.5t28 6.5q72-16 189-16t157.5 33T709-47v147Q641-11 504-10h-53Q285-10 188.5 91.5T92 356v306q0 166 96.5 268T451 1032h53q137 0 205-102v63q0 31 28 31h168zM575 195q133 0 134 137v358q0 137-134 137H453q-133 0-134-137V332q0-137 134-137h122z" glyph-name="gcommaaccent" horiz-adv-x="1058" unicode="ģ"/><glyph d="M1036 1434q31 0 31-31V31q0-31-31-31H864q-31 0-30 31v571H367V31q0-31-31-31H164q-31 0-31 31v1372q0 31 31 31h172q31 0 31-31v-168h467v168q0 31 30 31h172zM367 813h467v211H367V813z" glyph-name="Hbar" horiz-adv-x="1200" unicode="Ħ"/><glyph d="M698 1032q305 0 306-360V31q0-31-31-31H807q-31 0-31 31v663q0 133-135 133h-27q-74 0-128-28.5T412 735V31q0-31-31-31H215q-31 0-31 31v1075H92q-31 0-31 31v131q0 31 31 30h92v105q0 31 31 31h166q31 0 31-31v-105h188q31 0 31-30v-131q0-31-31-31H412V895q90 137 272 137h14z" glyph-name="hbar" horiz-adv-x="1126" unicode="ħ"/><glyph d="M-80 1636q-31 0-31 31v145q0 31 31 31h664q31 0 30-31v-145q0-31-30-31H-80zm213-233q0 31 31 31h176q31 0 31-31V31q0-31-31-31H164q-31 0-31 31v1372z" glyph-name="Imacron" horiz-adv-x="503" unicode="Ī"/><glyph d="M-57 1227q-31 0-31 30v146q0 31 31 31h663q31 0 31-31v-146q0-31-31-30H-57zm221-234q0 31 31 31h165q31 0 31-31V31q0-31-31-31H195q-31 0-31 31v962z" glyph-name="imacron" horiz-adv-x="555" unicode="ī"/><glyph d="M373 1403V25q-2-102-45-145.5T207-172L37-190q-31-2-31-27 0-20 45-21h250q20 0 21-24v-103q0-20-21-20H45q-104 0-152.5 35T-156-221t42 122.5 124 39 102.5 27T135 29v1374q0 31 31 31h176q31 0 31-31z" glyph-name="Iogonek" horiz-adv-x="505" unicode="Į"/><glyph d="M190 1210q-31 0-30 31v162q0 31 30 31h166q31 0 31-31v-162q0-31-31-31H190zm170-186q31 0 31-31V31q0-27-24-31 16-92-20-128t-114-44L63-190q-31-2-30-27 0-20 45-21h250q20 0 20-24v-103q0-20-20-20H72q-104 0-152.5 35T-129-221t42 122.5T38-60t111.5 21.5T180 2q-16 6-16 29v962q0 31 31 31h165z" glyph-name="iogonek" horiz-adv-x="555" unicode="į"/><glyph d="M137 1812q0 31 31 31h166q31 0 31-31v-161q0-31-31-31H168q-31 0-31 31v161zm-4-409q0 31 31 31h176q31 0 31-31V31q0-31-31-31H164q-31 0-31 31v1372z" glyph-name="Idotaccent" horiz-adv-x="503" unicode="İ"/><glyph d="M164 993q0 31 31 31h165q31 0 31-31V31q0-31-31-31H195q-31 0-31 31v962z" glyph-name="dotlessi" horiz-adv-x="555" unicode="ı"/><glyph d="M133 1403q0 31 31 31h176q31 0 31-31V31q0-31-31-31H164q-31 0-31 31v1372zM944.5 197q114.5 0 169.5 77.5t55 190.5v938q0 31 31 31h172q31 0 31-31V446q0-201-129-330.5T931-14 588 115q-27 27 6 55l108 94q27 20 56-4 72-63 186.5-63z" glyph-name="IJ" horiz-adv-x="1536" unicode="Ĳ"/><glyph d="M143 1403q0 31 31 31h166q31 0 31-31v-162q0-31-31-31H174q-31 0-31 31v162zm514 0q0 31 31 31h164q31 0 31-31v-162q0-31-31-31H688q-31 0-31 31v162zM143 993q0 31 31 31h166q31 0 31-31V31q0-31-31-31H174q-31 0-31 31v962zM657-106V993q0 31 31 31h166q31 0 31-31V-121q0-129-79-232.5T602-492q-29-10-39 21l-67 154q-12 29 18 38 57 20 100 67.5T657-106z" glyph-name="ij" horiz-adv-x="1028" unicode="ĳ"/><glyph d="M1130 0H930q-39 0-56 29L479 651 367 510V31q0-31-31-31H164q-31 0-31 31v1372q0 31 31 31h172q31 0 31-31V836l432 565q23 33 53 33h199q18 0 21-15.5t-11-36.5L639 850l504-801q16-21 8-35t-21-14zM707-162q31 0 30-31v-204q0-127-22.5-207T625-764q-16-20-39 0l-49 43q-16 16-2 41 51 78 51 225l14 21H496q-31 0-31 31v210q0 31 31 31h211z" glyph-name="Kcommaaccent" horiz-adv-x="1222" unicode="Ķ"/><glyph d="M154 1434h165q31 0 31-31V649l340 350q20 25 45 25h176q23 0 30-19.5T926 961L592 610 977 53q12-16 6-34.5T954 0H795q-43 0-64 35L438 459l-88-88V31q0-31-31-31H154q-31 0-31 31v1372q0 31 31 31zM567-162q31 0 31-31v-204q0-127-22.5-207T485-764q-16-20-39 0l-49 43q-16 16-2 41 51 78 51 225l15 21H356q-31 0-30 31v210q0 31 30 31h211z" glyph-name="kcommaaccent" horiz-adv-x="1056" unicode="ķ"/><glyph d="M313 1843h217q18 0 25.5-10t-4.5-27l-182-235q-27-37-50-37H178q-39 0-20 37l112 235q18 37 43 37zM899 211q31 0 31-31V31q0-31-31-31H164q-31 0-31 31v1372q0 31 31 31h172q31 0 31-31V211h532z" glyph-name="Lacute" horiz-adv-x="1021" unicode="Ĺ"/><glyph d="M309 1843h217q18 0 25.5-10t-4.5-27l-182-235q-27-37-50-37H174q-39 0-20 37l112 235q18 37 43 37zm-186-440q0 31 31 31h165q31 0 31-31V31q0-31-31-31H154q-31 0-31 31v1372z" glyph-name="lacute" horiz-adv-x="473" unicode="ĺ"/><glyph d="M899 211q31 0 31-31V31q0-31-31-31H164q-31 0-31 31v1372q0 31 31 31h172q31 0 31-31V211h532zM606-162q31 0 31-31v-204q0-127-22.5-207T524-764q-16-20-39 0l-49 43q-16 16-2 41 51 78 51 225l15 21H395q-31 0-30 31v210q0 31 30 31h211z" glyph-name="Lcommaaccent" horiz-adv-x="1021" unicode="Ļ"/><glyph d="M123 1403q0 31 31 31h165q31 0 31-31V31q0-31-31-31H154q-31 0-31 31v1372zM332-162q31 0 30-31v-204q0-127-22.5-207T250-764q-16-20-39 0l-49 43q-16 16-2 41 51 78 51 225l14 21H121q-31 0-31 31v210q0 31 31 31h211z" glyph-name="lcommaaccent" horiz-adv-x="473" unicode="ļ"/><glyph d="M899 211q31 0 31-31V31q0-31-31-31H164q-31 0-31 31v1372q0 31 31 31h172q31 0 31-31V211h532zm-86 1214q31 0 31-30v-205q0-127-22.5-207T731 823q-16-20-39 0l-49 43q-16 16-2 41 51 76 51 226l15 20H602q-31 0-31 31v211q0 31 31 30h211z" glyph-name="Lcaron" horiz-adv-x="1103" unicode="Ľ"/><glyph d="M123 1403q0 31 31 31h165q31 0 31-31V31q0-31-31-31H154q-31 0-31 31v1372zm547 22q31 0 30-30v-205q0-127-22.5-207T588 823q-16-20-39 0l-49 43q-16 16-2 41 51 76 51 226l14 20H459q-31 0-31 31v211q0 31 31 30h211z" glyph-name="lcaron" horiz-adv-x="763" unicode="ľ"/><glyph d="M899 211q31 0 31-31V31q0-31-31-31H164q-31 0-31 31v1372q0 31 31 31h172q31 0 31-31V211h532zM571 932q0 31 31 31h236q31 0 30-31V696q0-31-30-30H602q-31 0-31 30v236z" glyph-name="Ldot" horiz-adv-x="1021" unicode="Ŀ"/><glyph d="M123 1403q0 31 31 31h165q31 0 31-31V31q0-31-31-31H154q-31 0-31 31v1372zm291-567q0 31 30 30h236q31 0 31-30V600q0-31-31-31H444q-31 0-30 31v236z" glyph-name="ldot" horiz-adv-x="772" unicode="ŀ"/><glyph d="M1040 211q31 0 31-31V31q0-31-31-31H307q-31 0-31 31v231H98q-18 0-25 10.5t5 26.5l198 258v846q0 31 31 31h172q31 0 31-31V860l51 68q27 35 47 35h197q18 0 24.5-10.5T823 926L510 516V211h530z" glyph-name="Lslash" horiz-adv-x="1249" unicode="Ł"/><glyph d="M618 963q18 0 25.5-11.5T637 926L455 743V31q0-31-31-31H252q-31 0-31 31v526H80q-18 0-26.5 12.5T59 594l162 162v647q0 31 31 31h172q31 0 31-31V963h163z" glyph-name="lslash" horiz-adv-x="698" unicode="ł"/><glyph d="M698 1843h217q18 0 25.5-10t-4.5-27l-182-235q-27-37-49-37H563q-39 0-20 37l112 235q18 37 43 37zm394-409q31 0 30-31V31q0-31-30-31H858q-27 0-37 23L367 1049V31q0-31-31-31H164q-31 0-31 31v1372q0 31 31 31h233q25 0 37-23L889 387v1016q0 31 31 31h172z" glyph-name="Nacute" horiz-adv-x="1255" unicode="Ń"/><glyph d="M604 1434h217q18 0 25.5-10.5T842 1397l-183-236q-27-37-49-37H469q-39 0-20 37l112 236q18 37 43 37zm33-402q305 0 305-360V31q0-31-31-31H745q-31 0-30 31v663q0 133-135 133h-27q-74 0-128-28.5T350 735V31q0-31-31-31H154q-31 0-31 31v962q0 31 31 31h165q31 0 31-31v-98q90 137 273 137h14z" glyph-name="nacute" unicode="ń"/><glyph d="M1092 1434q31 0 30-31V31q0-31-30-31H858q-27 0-37 23L367 1049V31q0-31-31-31H164q-31 0-31 31v1372q0 31 31 31h233q25 0 37-23L889 387v1016q0 31 31 31h172zM721-162q31 0 31-31v-204q0-127-22.5-207T639-764q-16-20-39 0l-49 43q-16 16-2 41 51 78 51 225l14 21H510q-31 0-31 31v210q0 31 31 31h211z" glyph-name="Ncommaaccent" horiz-adv-x="1255" unicode="Ņ"/><glyph d="M637 1032q305 0 305-360V31q0-31-31-31H745q-31 0-30 31v663q0 133-135 133h-27q-74 0-128-28.5T350 735V31q0-31-31-31H154q-31 0-31 31v962q0 31 31 31h165q31 0 31-31v-98q90 137 273 137h14zM627-162q31 0 30-31v-204q0-127-22.5-207T545-764q-16-20-39 0l-49 43q-16 16-2 41 51 78 51 225l14 21H416q-31 0-31 31v210q0 31 31 31h211z" glyph-name="ncommaaccent" unicode="ņ"/><glyph d="M272 1843h174q16 0 50-39l131-149 133 149q4 4 10 12 19 26 37 27h174q16 0 22.5-12t-6.5-27l-233-262q-29-33-57-33H545q-27 0-56 33l-233 262q-12 14-6 26.5t22 12.5zm820-409q31 0 30-31V31q0-31-30-31H858q-27 0-37 23L367 1049V31q0-31-31-31H164q-31 0-31 31v1372q0 31 31 31h233q25 0 37-23L889 387v1016q0 31 31 31h172z" glyph-name="Ncaron" horiz-adv-x="1255" unicode="Ň"/><glyph d="M178 1434h174q16 0 49-39l131-150 134 150q4 4 13 16 17 23 34 23h174q16 0 22-12.5t-6-26.5l-233-262q-29-33-58-33H451q-27 0-56 33l-233 262q-12 14-6 26.5t22 12.5zm459-402q305 0 305-360V31q0-31-31-31H745q-31 0-30 31v663q0 133-135 133h-27q-74 0-128-28.5T350 735V31q0-31-31-31H154q-31 0-31 31v962q0 31 31 31h165q31 0 31-31v-98q90 137 273 137h14z" glyph-name="ncaron" unicode="ň"/><glyph d="M1130 1487q31 0 31-31V-53q0-221-132-351.5T717-535h-72q-125 0-243.5 72T233-274q-12 23 15 41l131 86q16 14 37-17 94-137 229-137h53q109 0 169.5 68.5T928-35V6L367 1014V31q0-31-31-31H164q-31 0-31 31v1425q0 31 31 31h198q27 0 37-23l529-983v975q0 31 30 31h172z" glyph-name="Eng" horiz-adv-x="1304" unicode="Ŋ"/><glyph d="M637 1032q305 0 305-360V-90q0-152-81-261.5T649-494q-27-6-39 23l-67 160q-12 27 18 37 63 18 108.5 71T715-74v768q0 133-135 133h-27q-74 0-128-28.5T350 735V31q0-31-31-31H154q-31 0-31 31v962q0 31 31 31h165q31 0 31-31v-98q90 137 273 137h14z" glyph-name="eng" horiz-adv-x="1085" unicode="ŋ"/><glyph d="M295 1636q-31 0-31 31v145q0 31 31 31h663q31 0 31-31v-145q0-31-31-31H295zm430-192q203 0 307.5-112.5T1137 1018V416q0-201-104.5-313.5T725-10H524q-203 0-307 112.5T113 416v602q0 201 104.5 313.5T524 1444h201zM903 416v602q0 117-42 166t-136 49H524q-94 0-136-49t-42-166V416q0-119 42-167t136-48h201q94 0 136 48t42 167z" glyph-name="Omacron" horiz-adv-x="1249" unicode="Ō"/><glyph d="M168 1227q-31 0-31 30v146q0 31 31 31h663q31 0 31-31v-146q0-31-31-30H168zm389-195q166 0 263.5-102.5T918 662V356q0-166-97.5-266T557-10H453Q287-10 189.5 90T92 356v306q0 166 97.5 268T453 1032h104zm133-700v358q0 137-133 137H453q-133 0-134-137V332q0-137 134-137h104q133 0 133 137z" glyph-name="omacron" horiz-adv-x="1009" unicode="ō"/><glyph d="M504 1843h217q18 0 25.5-10t-5.5-27l-182-235q-27-37-49-37H369q-39 0-21 37l113 235q18 37 43 37zm370 0h218q18 0 25-10t-5-27l-182-235q-27-37-49-37H739q-39 0-20 37l112 235q18 37 43 37zm-149-399q203 0 307.5-112.5T1137 1018V416q0-201-104.5-313.5T725-10H524q-203 0-307 112.5T113 416v602q0 201 104.5 313.5T524 1444h201zM903 416v602q0 117-42 166t-136 49H524q-94 0-136-49t-42-166V416q0-119 42-167t136-48h201q94 0 136 48t42 167z" glyph-name="Ohungarumlaut" horiz-adv-x="1249" unicode="Ő"/><glyph d="M377 1434h217q18 0 25.5-10.5T614 1397l-182-236q-27-37-49-37H242q-39 0-21 37l113 236q18 37 43 37zm371 0h217q18 0 25-10.5t-5-26.5l-182-236q-27-37-49-37H612q-39 0-20 37l113 236q18 37 43 37zm-191-402q166 0 263.5-102.5T918 662V356q0-166-97.5-266T557-10H453Q287-10 189.5 90T92 356v306q0 166 97.5 268T453 1032h104zm133-700v358q0 137-133 137H453q-133 0-134-137V332q0-137 134-137h104q133 0 133 137z" glyph-name="ohungarumlaut" horiz-adv-x="1009" unicode="ő"/><glyph d="M1718 211q31 0 31-31V31q0-31-31-31H934q-25 0-29 18-80-29-180-28H524q-203 0-307 112.5T113 416v602q0 201 104.5 313.5T524 1444h201q100 0 180-29 4 18 29 19h774q31 0 31-31v-150q0-31-31-30h-571V813h436q31 0 31-31V633q0-31-31-31h-436V211h581zm-993-10q94 0 136 48t42 167v602q0 117-42 166t-136 49H524q-94 0-136-49t-42-166V416q0-119 42-167t136-48h201z" glyph-name="OE" horiz-adv-x="1830" unicode="Œ"/><glyph d="M1143 1032q147 0 246.5-102.5T1489 659V483q0-61-62-61H918v-66q0-23-5-63 18-98 129-98h101q80 0 112.5 15t69.5 56q18 18 47 0l84-55q27-18 8-45-63-76-110-114t-96.5-50T1143-10h-101q-143 0-239 84-96-84-246-84H453Q287-10 189.5 90T92 356v306q0 166 97.5 268T453 1032h104q147 0 242-82 94 82 243 82h101zM557 195q106 0 127 92-8 35-8 88v284q0 49 8 84-23 84-127 84H453q-133 0-134-137V332q0-137 134-137h104zm705 405v90q0 137-119 137h-101q-113 0-129-100 4-41 5-65v-62h344z" glyph-name="oe" horiz-adv-x="1597" unicode="œ"/><glyph d="M551 1534q-39 0-21 37l113 235q18 37 43 37h217q18 0 25.5-10t-4.5-27l-183-235q-27-37-49-37H551zM1096 0H932q-35 0-47 31L692 475H367V31q0-31-31-31H164q-31 0-31 31v1372q0 31 31 31h512q203 0 307-106.5t104-301.5V885q0-256-174-357l213-481q20-47-30-47zM367 1223V686h309q96 0 137 43t41 156v141q0 111-41 154t-137 43H367z" glyph-name="Racute" horiz-adv-x="1214" unicode="Ŕ"/><glyph d="M526 1434h217q18 0 25.5-10.5T764 1397l-182-236q-27-37-50-37H391q-39 0-20 37l112 236q18 37 43 37zm54-607h-27q-74 0-128-28.5T350 735V31q0-31-31-31H154q-31 0-31 31v962q0 31 31 31h165q31 0 31-31v-98q88 137 287 137 86 0 149-28 33-18 15-56l-64-117q-18-31-59-17t-98 13z" glyph-name="racute" horiz-adv-x="860" unicode="ŕ"/><glyph d="M1096 0H932q-35 0-47 31L692 475H367V31q0-31-31-31H164q-31 0-31 31v1372q0 31 31 31h512q203 0 307-106.5t104-301.5V885q0-256-174-357l213-481q20-47-30-47zM367 1223V686h309q96 0 137 43t41 156v141q0 111-41 154t-137 43H367zM709-162q31 0 30-31v-204q0-127-22.5-207T627-764q-16-20-39 0l-49 43q-16 16-2 41 51 78 51 225l14 21H498q-31 0-31 31v210q0 31 31 31h211z" glyph-name="Rcommaaccent" horiz-adv-x="1214" unicode="Ŗ"/><glyph d="M580 827h-27q-74 0-128-28.5T350 735V31q0-31-31-31H154q-31 0-31 31v962q0 31 31 31h165q31 0 31-31v-98q88 137 287 137 86 0 149-28 33-18 15-56l-64-117q-18-31-59-17t-98 13zM326-162q31 0 30-31v-204q0-127-22.5-207T244-764q-16-20-39 0l-49 43q-16 16-2 41 51 78 51 225l14 21H115q-31 0-31 31v210q0 31 31 31h211z" glyph-name="rcommaaccent" horiz-adv-x="860" unicode="ŗ"/><glyph d="M260 1843h174q16 0 49-39l131-149 134 149q4 4 10 12 19 26 37 27h174q16 0 22-12t-6-27l-233-262q-29-33-58-33H532q-26 0-55 33l-233 262q-12 14-6 26.5t22 12.5zM1096 0H932q-35 0-47 31L692 475H367V31q0-31-31-31H164q-31 0-31 31v1372q0 31 31 31h512q203 0 307-106.5t104-301.5V885q0-256-174-357l213-481q20-47-30-47zM367 1223V686h309q96 0 137 43t41 156v141q0 111-41 154t-137 43H367z" glyph-name="Rcaron" horiz-adv-x="1214" unicode="Ř"/><glyph d="M115 1434h174q16 0 49-39l131-150 133 150q4 4 17 21.5t30 17.5h174q16 0 22.5-12.5T840 1395l-234-262q-29-33-57-33H387q-27 0-55 33L98 1395q-12 14-6 26.5t23 12.5zm465-607h-27q-74 0-128-28.5T350 735V31q0-31-31-31H154q-31 0-31 31v962q0 31 31 31h165q31 0 31-31v-98q88 137 287 137 86 0 149-28 33-18 15-56l-64-117q-18-31-59-17t-98 13z" glyph-name="rcaron" horiz-adv-x="860" unicode="ř"/><glyph d="M684 1843h217q18 0 25.5-10t-4.5-27l-183-235q-27-37-49-37H549q-39 0-21 37l113 235q18 37 43 37zm436-1431q0-203-103.5-312.5T709-10H514Q321-10 218 92.5T104 377q-4 39 39 39h154q37 0 41-39 6-96 47-136t129-40h195q98 0 138 45t40 165-55.5 162.5T647 639l-112 20q-205 37-311.5 130.5T117 1066t104.5 280.5T532 1444h136q190 0 292.5-100.5T1073 1065q4-41-39-41H881q-37 0-41 41-6 90-46 129t-126 39H532q-100 0-141-33t-41-133 36-138 159-59l112-20q339-62 425-245 38-81 38-193z" glyph-name="Sacute" horiz-adv-x="1222" unicode="Ś"/><glyph d="M559 1434h217q18 0 25.5-10.5T797 1397l-183-236q-27-37-49-37H424q-39 0-21 37l113 236q18 37 43 37zM885 295q0-305-365-305h-67Q127-10 92 256q-4 31 31 31h149q39 0 53.5-30t41-47 82.5-17h81q127 0 127 102 0 68-30.5 91.5T481 420q-213 16-298 85.5T98 730t92.5 227.5T446 1030h72q158 0 255-78t97-213q0-33-28-32H694q-37 0-53 36-29 84-127 84h-68q-121 0-120-90 0-49 29.5-76.5T481 621q217-20 310.5-88T885 295z" glyph-name="sacute" horiz-adv-x="966" unicode="ś"/><glyph d="M1120 412q0-201-102.5-310.5T713-10q-25-37-4-49t55-15q102-12 145-49t43-135q0-156-196-156H604q-86 0-132 43t-48 121q0 20 18 21h138q20 0 20-17 0-33 66-33h41q47 0 58 8.5t11 22.5q0 20-25.5 27.5t-100 16.5T546-190.5 494.5-171 473-113t43 103h-2Q321-10 218 92.5T104 377q-4 39 39 39h154q37 0 41-39 6-96 47-136t129-40h195q98 0 138 45t40 165-55.5 162.5T647 639l-112 20q-205 37-311.5 130.5T117 1066t104.5 280.5T532 1444h136q190 0 292.5-100.5T1073 1065q4-41-39-41H881q-37 0-41 41-6 90-46 129t-126 39H532q-100 0-141-33t-41-133 36-138 159-59l112-20q339-62 425-244 38-80 38-194z" glyph-name="Scedilla" horiz-adv-x="1222" unicode="Ş"/><glyph d="M825-258q0-156-196-156H477q-86 0-132 43t-48 121q0 20 18 21h138q20 0 20-17 0-33 66-33h41q47 0 58 8.5t11 22.5q0 20-25.5 27.5t-100 16.5T419-190.5 367.5-170 346-111 391-8Q123 17 92 256q-4 31 31 31h149q39 0 53.5-30t41-47 82.5-17h81q127 0 127 102 0 68-30.5 91.5T481 420q-213 16-298 85.5T98 730t92.5 227.5T446 1030h72q158 0 255-78t97-213q0-33-28-32H694q-37 0-53 36-29 84-127 84h-68q-121 0-120-90 0-49 29.5-76.5T481 621q217-20 310.5-88T885 295Q885 21 588-8q-26-40-6-51 21-12 55-15 102-12 145-49t43-135z" glyph-name="scedilla" horiz-adv-x="966" unicode="ş"/><glyph d="M258 1843h174q16 0 49-39l131-149 133 149q5 5 14 17 16 22 34 22h174q16 0 22-12t-6-27l-233-262q-29-33-58-33H530q-27 0-55 33l-233 262q-12 14-6 26.5t22 12.5zm862-1431q0-203-103.5-312.5T709-10H514Q321-10 218 92.5T104 377q-4 39 39 39h154q37 0 41-39 6-96 47-136t129-40h195q98 0 138 45t40 165-55.5 162.5T647 639l-112 20q-205 37-311.5 130.5T117 1066t104.5 280.5T532 1444h136q190 0 292.5-100.5T1073 1065q4-41-39-41H881q-37 0-41 41-6 90-46 129t-126 39H532q-100 0-141-33t-41-133 36-138 159-59l112-20q339-62 425-245 38-81 38-193z" glyph-name="Scaron" horiz-adv-x="1222" unicode="Š"/><glyph d="M133 1434h174q16 0 49-39l131-150 134 150q4 4 13 16 17 23 34 23h174q16 0 22-12.5t-6-26.5l-233-262q-29-33-58-33H406q-27 0-56 33l-233 262q-12 14-6 26.5t22 12.5zM885 295q0-305-365-305h-67Q127-10 92 256q-4 31 31 31h149q39 0 53.5-30t41-47 82.5-17h81q127 0 127 102 0 68-30.5 91.5T481 420q-213 16-298 85.5T98 730t92.5 227.5T446 1030h72q158 0 255-78t97-213q0-33-28-32H694q-37 0-53 36-29 84-127 84h-68q-121 0-120-90 0-49 29.5-76.5T481 621q217-20 310.5-88T885 295z" glyph-name="scaron" horiz-adv-x="966" unicode="š"/><glyph d="M948 1434q31 0 31-31v-150q0-31-31-30H649V31q0-14-10-25 0-6-9-17-26-32-6-46t90-21.5T827-123t43-135q0-156-196-156H522q-86 0-132 43t-48 121q0 20 18 21h138q20 0 20-17 0-33 66-33h41q47 0 58 8.5t11 22.5q0 20-26 28-26 7-100 16-74 8-100 12-49 7-75.5 51.5T440-2l2 2q-27 2-26 31v1192H113q-31 0-31 30v150q0 31 31 31h835z" glyph-name="Tcommaaccent" horiz-adv-x="1060" unicode="Ţ"/><glyph d="M799-258q0-156-197-156H453q-86 0-132.5 43T272-250q0 20 19 21h137q20 0 21-17 0-33 65-33h41q45 0 56.5 8.5T623-248q0 20-26 27.5T496.5-204 392-190.5 340.5-170t-20 61.5T371-2q8 10 16 14-102 29-143 100.5T203 311v508H102q-31 0-30 31v141q0 33 30 33h101v131q0 31 30 31h168q31 0 31-31v-131h143q33 0 33-31V850q0-31-30-31H432V309q0-59 30-81.5T565 201q43-4 39-43l-6-123q-4-31-33-37-42-53 11-67 11-3 34-5 102-12 145.5-49T799-258z" glyph-name="tcommaaccent" horiz-adv-x="675" unicode="ţ"/><glyph d="M176 1843h174q16 0 49-39l131-149 134 149q4 4 10 12 19 26 37 27h174q16 0 22-12t-6-27l-233-262q-29-33-58-33H449q-27 0-56 33l-233 262q-12 14-6 26.5t22 12.5zm772-409q31 0 31-31v-150q0-31-31-30H649V31q0-31-31-31H446q-31 0-30 31v1192H113q-31 0-31 30v150q0 31 31 31h835z" glyph-name="Tcaron" horiz-adv-x="1060" unicode="Ť"/><glyph d="M872 1425q31 0 31-30v-205q0-127-22.5-207T791 823q-16-20-39 0l-50 43q-16 16-2 41 51 76 52 226l14 20H662q-31 0-31 31v211q0 31 31 30h210zm-297-401q33 0 33-31V850q0-31-30-31H432V309q0-59 30-81.5T565 201q43-4 39-43l-6-123q-4-39-49-39-199 0-272.5 73.5T203 311v508H102q-31 0-30 31v141q0 33 30 33h101v131q0 31 30 31h168q31 0 31-31v-131h143z" glyph-name="tcaron" horiz-adv-x="851" unicode="ť"/><glyph d="M948 1434q31 0 31-31v-150q0-31-31-30H649V967h174q31 0 31-31V791q0-31-31-31H649V31q0-31-31-31H446q-31 0-30 31v729H160q-31 0-31 31v145q0 31 31 31h256v256H113q-31 0-31 30v150q0 31 31 31h835z" glyph-name="Tbar" horiz-adv-x="1060" unicode="Ŧ"/><glyph d="M578 395H432v-86q0-59 30-81.5T565 201q43-4 39-43l-6-123q-4-39-49-39-199 0-272.5 73.5T203 311v84H102q-31 0-30 31v172q0 31 30 31h101v190H102q-31 0-30 31v141q0 33 30 33h101v131q0 31 30 31h168q31 0 31-31v-131h143q33 0 33-31V850q0-31-30-31H432V629h146q31 0 30-31V426q1-31-30-31z" glyph-name="tbar" horiz-adv-x="702" unicode="ŧ"/><glyph d="M1020 1679q12-23-21-41-102-74-191-83-88-9-186 45t-137 50.5-116-57.5q-16-12-33 17l-64 127q-8 23 21 43 207 145 385 30 88-49 128-45t118 58q20 14 32-17zm98-245q39 0 39-39V416q0-203-103.5-314.5T745-10H547q-207 0-310.5 111.5T133 416v979q0 39 41 39h154q39 0 39-39V416q0-115 43-165t137-50h198q94 0 136.5 50T924 416v979q0 39 41 39h153z" glyph-name="Utilde" horiz-adv-x="1290" unicode="Ũ"/><glyph d="M918 1270q12-23-21-41-102-74-191.5-83T519 1191t-136 50-117-57q-16-12-33 16l-63 127q-8 23 20 43 207 145 385 31 88-49 128-45t118 57q20 14 33-16zM428-8Q123-8 123 352v641q0 31 31 31h165q31 0 31-31V330q0-133 135-133h27q74 0 128 28.5t75 63.5v704q0 31 30 31h166q31 0 31-31V31q0-31-31-31H745q-31 0-30 31v98Q625-8 442-8h-14z" glyph-name="utilde" unicode="ũ"/><glyph d="M315 1636q-31 0-30 31v145q0 31 30 31h664q31 0 31-31v-145q0-31-31-31H315zm803-202q39 0 39-39V416q0-203-103.5-314.5T745-10H547q-207 0-310.5 111.5T133 416v979q0 39 41 39h154q39 0 39-39V416q0-115 43-165t137-50h198q94 0 136.5 50T924 416v979q0 39 41 39h153z" glyph-name="Umacron" horiz-adv-x="1290" unicode="Ū"/><glyph d="M211 1227q-31 0-31 30v146q0 31 31 31h663q31 0 31-31v-146q0-31-31-30H211zM428-8Q123-8 123 352v641q0 31 31 31h165q31 0 31-31V330q0-133 135-133h27q74 0 128 28.5t75 63.5v704q0 31 30 31h166q31 0 31-31V31q0-31-31-31H745q-31 0-30 31v98Q625-8 442-8h-14z" glyph-name="umacron" unicode="ū"/><glyph d="M963 1843q31 0 30-31-2-145-75.5-223T705 1511H588q-139 0-214 78t-77 223q0 31 31 31h129q31 0 30-31 4-137 117-137h84q109 0 117 137 0 31 31 31h127zm155-409q39 0 39-39V416q0-203-103.5-314.5T745-10H547q-207 0-310.5 111.5T133 416v979q0 39 41 39h154q39 0 39-39V416q0-115 43-165t137-50h198q94 0 136.5 50T924 416v979q0 39 41 39h153z" glyph-name="Ubreve" horiz-adv-x="1290" unicode="Ŭ"/><glyph d="M858 1434q31 0 31-31-2-145-76-223t-213-78H483q-139 0-213.5 77.5T193 1403q0 31 30 31h129q31 0 31-31 4-137 117-137h84q109 0 116 137 0 31 31 31h127zM428-8Q123-8 123 352v641q0 31 31 31h165q31 0 31-31V330q0-133 135-133h27q74 0 128 28.5t75 63.5v704q0 31 30 31h166q31 0 31-31V31q0-31-31-31H745q-31 0-30 31v98Q625-8 442-8h-14z" glyph-name="ubreve" unicode="ŭ"/><glyph d="M659 1876q74 0 123-49t49-123v-23q0-72-49-121t-123-49h-26q-76 0-124 49.5T461 1681v23q0 74 49 123t123 49h26zm48-174q0 23-14.5 36t-37.5 13h-18q-23 0-36-13.5t-13-35.5v-14q0-23 14-37.5t35-14.5h18q23 0 37.5 14.5T707 1688v14zm411-268q39 0 39-39V416q0-203-103.5-314.5T745-10H547q-207 0-310.5 111.5T133 416v979q0 39 41 39h154q39 0 39-39V416q0-115 43-165t137-50h198q94 0 136.5 50T924 416v979q0 39 41 39h153z" glyph-name="Uring" horiz-adv-x="1290" unicode="Ů"/><glyph d="M555 1466q74 0 123-49t49-123v-22q0-72-48-121t-124-49h-27q-74 0-123 49t-49 121v22q0 74 49.5 123t122.5 49h27zm47-174q0 23-14.5 36t-36.5 13h-19q-20 0-34.5-13t-14.5-36v-14q0-23 14.5-37t34.5-14h19q23 0 37 14t14 37v14zM428-8Q123-8 123 352v641q0 31 31 31h165q31 0 31-31V330q0-133 135-133h27q74 0 128 28.5t75 63.5v704q0 31 30 31h166q31 0 31-31V31q0-31-31-31H745q-31 0-30 31v98Q625-8 442-8h-14z" glyph-name="uring" unicode="ů"/><glyph d="M524 1843h217q18 0 25.5-10t-4.5-27l-182-235q-27-37-50-37H389q-39 0-20 37l112 235q18 37 43 37zm371 0h217q18 0 25.5-10t-4.5-27l-183-235q-27-37-49-37H760q-39 0-21 37l113 235q18 37 43 37zm223-409q39 0 39-39V416q0-203-103.5-314.5T745-10H547q-207 0-310.5 111.5T133 416v979q0 39 41 39h154q39 0 39-39V416q0-115 43-165t137-50h198q94 0 136.5 50T924 416v979q0 39 41 39h153z" glyph-name="Uhungarumlaut" horiz-adv-x="1290" unicode="Ű"/><glyph d="M420 1434h217q18 0 25.5-10.5T657 1397l-182-236q-27-37-49-37H285q-39 0-21 37l113 236q18 37 43 37zm371 0h217q18 0 25-10.5t-5-26.5l-182-236q-27-37-49-37H655q-39 0-20 37l113 236q18 37 43 37zM428-8Q123-8 123 352v641q0 31 31 31h165q31 0 31-31V330q0-133 135-133h27q74 0 128 28.5t75 63.5v704q0 31 30 31h166q31 0 31-31V31q0-31-31-31H745q-31 0-30 31v98Q625-8 442-8h-14z" glyph-name="uhungarumlaut" unicode="ű"/><glyph d="M1118 1434q39 0 39-39V416q0-356-293-416 16-92-19.5-128T731-172l-172-18q-29-2-29-27 0-20 45-21h250q20 0 21-24v-103q0-20-21-20H569q-104 0-152 35t-48 129 42 122.5 112.5 37T614-49q55 11 62 39H547q-207 0-310.5 111.5T133 416v979q0 39 41 39h154q39 0 39-39V416q0-115 43-165t137-50h198q94 0 136.5 50T924 416v979q0 39 41 39h153z" glyph-name="Uogonek" horiz-adv-x="1290" unicode="Ų"/><glyph d="M881-238q20 0 20-24v-103q0-20-20-20H625q-104 0-152.5 35T424-221t42 122.5 125 39 103.5 25T715 27v102Q625-8 442-8h-14Q123-8 123 352v641q0 31 31 31h165q31 0 31-31V330q0-133 135-133h27q74 0 128 28.5t75 63.5v704q0 31 30 31h166q31 0 31-31V31q0-109-39-152t-117-51l-170-18q-31-2-30-27 0-20 45-21h250z" glyph-name="uogonek" unicode="ų"/><glyph d="M846 1901h162q29 0 57-33l233-262q12-16 6-27.5t-22-11.5h-174q-18 0-24.5 9t-12.5 17.5-10 12.5l-133 149-131-149q-33-39-49-39H573q-16 0-22 12.5t6 26.5l234 262q29 33 55 33zm911-467q37 0 27-31L1475 31q-8-31-39-31h-142q-29 0-39 31L930 1047 602 31q-8-31-39-31H424q-33 0-39 31L74 1403q-8 31 24 31h187q31 0 37-31l194-973 301 973q10 31 39 31h148q29 0 38-31l304-973 192 973q2 31 35 31h184z" glyph-name="Wcircumflex" horiz-adv-x="1857" unicode="Ŵ"/><glyph d="M719 1438h162q29 0 57-33l233-262q12-16 6-27.5t-22-11.5H981q-18 0-24.5 9t-12.5 17.5-10 12.5l-133 149-131-149q-33-39-49-39H446q-16 0-22 12.5t6 26.5l234 262q29 33 55 33zm776-414q37 0 25-35L1231 41q-12-41-49-41h-131q-35 0-47 41-113 348-201 651-39-137-205-651-12-41-47-41H420q-35 0-49 41L86 989q-12 35 25 35h165q27 0 37-35 23-86 80.5-325.5T489 279q25 94 92.5 338.5T682 989q10 35 37 35h160q35 0 41-35 33-127 100-371.5t92-338.5q41 152 102.5 399.5T1292 989q10 35 37 35h166z" glyph-name="wcircumflex" horiz-adv-x="1603" unicode="ŵ"/><glyph d="M676 1847q29 0 57-32l234-263q12-16 6-27.5t-23-11.5H776q-17 0-30 17.5t-17 21.5l-133 150-131-150q-33-39-49-39H242q-16 0-22.5 12.5t5.5 26.5l234 263q29 33 55 32h162zm432-413q35 0 20-31L715 604V31q0-31-31-31H512q-31 0-31 31v573L66 1403q-16 31 20 31h190q27 0 41-31l281-555 279 555q16 31 41 31h190z" glyph-name="Ycircumflex" horiz-adv-x="1193" unicode="Ŷ"/><glyph d="M180 1104q-16 0-22 12t6 27l233 262q29 33 56 33h161q29 0 58-33l233-262q12-16 6-27.5t-22-11.5H715q-18 0-24.5 9t-12.5 17.5-10 12.5l-133 149-132-149q-33-39-49-39H180zm819-80q31 0 17-37L471-375q-14-35-43-35H260q-35 0-20 37L420 76 55 987q-14 37 19 37h170q29 0 41-35l245-637 256 637q14 35 43 35h170z" glyph-name="ycircumflex" horiz-adv-x="1071" unicode="ŷ"/><glyph d="M246 1812q0 31 30 31h166q31 0 31-31v-161q0-31-31-31H276q-31 0-30 31v161zm477 0q0 31 31 31h164q31 0 30-31v-161q0-31-30-31H754q-31 0-31 31v161zm385-378q35 0 20-31L715 604V31q0-31-31-31H512q-31 0-31 31v573L66 1403q-16 31 20 31h190q27 0 41-31l281-555 279 555q16 31 41 31h190z" glyph-name="Ydieresis" horiz-adv-x="1193" unicode="Ÿ"/><glyph d="M596 1843h217q18 0 25.5-10t-4.5-27l-183-235q-27-37-49-37H461q-39 0-21 37l113 235q18 37 43 37zm358-524q0-29-6-37L362 215h562q31 0 30-31V31q0-31-30-31H123Q92 0 92 31v84q0 29 6 37l586 1067H123q-31 0-31 30v154q0 31 31 31h801q31 0 30-31v-84z" glyph-name="Zacute" horiz-adv-x="1046" unicode="Ź"/><glyph d="M539 1434h217q18 0 25-10.5t-5-26.5l-182-236q-27-37-49-37H403q-39 0-20 37l113 236q18 37 43 37zm286-560q0-18-10-32L365 211h428q33 0 32-31V31q0-31-30-31H113Q82 0 82 31v114q0 23 10 35l451 633H133q-31 0-31 31v147q0 33 31 33h660q33 0 32-31V874z" glyph-name="zacute" horiz-adv-x="907" unicode="ź"/><glyph d="M410 1812q0 31 30 31h166q31 0 31-31v-161q0-31-31-31H440q-31 0-30 31v161zm544-493q0-29-6-37L362 215h562q31 0 30-31V31q0-31-30-31H123Q92 0 92 31v84q0 29 6 37l586 1067H123q-31 0-31 30v154q0 31 31 31h801q31 0 30-31v-84z" glyph-name="Zdotaccent" horiz-adv-x="1046" unicode="Ż"/><glyph d="M352 1403q0 31 31 31h166q31 0 31-31v-162q0-31-31-31H383q-31 0-31 31v162zm473-529q0-18-10-32L365 211h428q33 0 32-31V31q0-31-30-31H113Q82 0 82 31v114q0 23 10 35l451 633H133q-31 0-31 31v147q0 33 31 33h660q33 0 32-31V874z" glyph-name="zdotaccent" horiz-adv-x="907" unicode="ż"/><glyph d="M170 1843h174q16 0 49-39l131-149 133 149q5 5 14 17 16 22 34 22h174q16 0 22-12t-6-27l-233-262q-29-33-58-33H442q-27 0-55 33l-233 262q-12 14-6 26.5t22 12.5zm784-524q0-29-6-37L362 215h562q31 0 30-31V31q0-31-30-31H123Q92 0 92 31v84q0 29 6 37l586 1067H123q-31 0-31 30v154q0 31 31 31h801q31 0 30-31v-84z" glyph-name="Zcaron" horiz-adv-x="1046" unicode="Ž"/><glyph d="M111 1434h174q16 0 49-39l131-150 133 150q4 4 10 12 20 27 37 27h174q16 0 22.5-12.5T836 1395l-234-262q-29-33-57-33H383q-27 0-55 33L94 1395q-12 14-6 26.5t23 12.5zm714-560q0-18-10-32L365 211h428q33 0 32-31V31q0-31-30-31H113Q82 0 82 31v114q0 23 10 35l451 633H133q-31 0-31 31v147q0 33 31 33h660q33 0 32-31V874z" glyph-name="zcaron" horiz-adv-x="907" unicode="ž"/><glyph d="M795 1487q31 0 30-31v-172q0-31-30-31h-19q-111 0-161-44t-50-162V-25q0-174-91-279.5T231-410H102q-31 0-30 31v172q0 31 30 31h19q111 0 161 44t50 163v698H227q-31 0-30 31v172q0 31 30 31h105v139q0 174 91 279.5T666 1487h129z" glyph-name="florin" horiz-adv-x="856" unicode="ƒ"/><glyph d="M221 1843h174q16 0 49-39l131-149 134 149q4 4 10 12 19 26 37 27h174q16 0 22-12t-6-27l-233-262q-29-33-58-33H494q-27 0-56 33l-233 262q-12 14-6 26.5t22 12.5zM1061 0H881q-29 0-37 33l-72 274H377L305 33q-8-33-37-33H88Q55 0 63 33l400 1368q10 33 39 33h145q29 0 39-33L1085 33q8-33-24-33zM430 512h289l-146 555z" glyph-name="uni01CD" horiz-adv-x="1148" unicode="Ǎ"/><glyph d="M166 1434h174q16 0 49-39l131-150 133 150q7 8 15 18 16 21 32 21h174q16 0 22.5-12.5T891 1395l-234-262q-29-33-57-33H438q-26 0-55 33l-233 262q-12 14-6 26.5t22 12.5zM920 0H731q-37 0-37 49v70Q610-10 475-10h-63q-147 0-238.5 85T82 309q0 297 326 297h286v84q0 80-31.5 108.5T549 827h-60q-121 0-231-45-51-20-68 17l-43 100q-14 35 11 49 135 84 331 84h60q190 0 281.5-86T922 680V49q0-15 4-32t-6-17zM520 195q129 0 174 98v135H412q-104 0-104.5-116.5T412 195h108z" glyph-name="uni01CE" horiz-adv-x="1050" unicode="ǎ"/><glyph d="M-102 1843H72q16 0 49-39l131-149 133 149q4 4 10 12 19 26 37 27h174q16 0 22.5-12t-5.5-27l-234-262q-29-33-57-33H170q-27 0-55 33l-234 262q-12 14-6 26.5t23 12.5zm235-440q0 31 31 31h176q31 0 31-31V31q0-31-31-31H164q-31 0-31 31v1372z" glyph-name="uni01CF" horiz-adv-x="503" unicode="Ǐ"/><glyph d="M-80 1434H94q16 0 49-39l131-150 134 150q4 4 17 21.5t30 17.5h174q16 0 22-12.5t-6-26.5l-233-262q-29-33-58-33H193q-27 0-56 33l-233 262q-12 14-6 26.5t22 12.5zm244-441q0 31 31 31h165q31 0 31-31V31q0-31-31-31H195q-31 0-31 31v962z" glyph-name="uni01D0" horiz-adv-x="555" unicode="ǐ"/><glyph d="M270 1843h174q16 0 50-39l131-149 133 149q4 4 10 12 19 26 37 27h174q16 0 22.5-12t-6.5-27l-233-262q-29-33-57-33H543q-27 0-56 33l-233 262q-12 14-6 26.5t22 12.5zm455-399q203 0 307.5-112.5T1137 1018V416q0-201-104.5-313.5T725-10H524q-203 0-307 112.5T113 416v602q0 201 104.5 313.5T524 1444h201zM903 416v602q0 117-42 166t-136 49H524q-94 0-136-49t-42-166V416q0-119 42-167t136-48h201q94 0 136 48t42 167z" glyph-name="uni01D1" horiz-adv-x="1249" unicode="Ǒ"/><glyph d="M145 1434h174q16 0 50-39l131-150 133 150q4 4 13 16 17 23 34 23h174q16 0 22.5-12.5T870 1395l-233-262q-29-33-57-33H418q-27 0-56 33l-233 262q-12 14-6 26.5t22 12.5zm412-402q166 0 263.5-102.5T918 662V356q0-166-97.5-266T557-10H453Q287-10 189.5 90T92 356v306q0 166 97.5 268T453 1032h104zm133-700v358q0 137-133 137H453q-133 0-134-137V332q0-137 134-137h104q133 0 133 137z" glyph-name="uni01D2" horiz-adv-x="1009" unicode="ǒ"/><glyph d="M188 1434h174q16 0 50-39l131-150 133 150q4 4 13 16 17 23 34 23h174q16 0 22.5-12.5T913 1395l-233-262q-29-33-57-33H461q-27 0-55 33l-234 262q-12 14-6 26.5t22 12.5zM428-8Q123-8 123 352v641q0 31 31 31h165q31 0 31-31V330q0-133 135-133h27q74 0 128 28.5t75 63.5v704q0 31 30 31h166q31 0 31-31V31q0-31-31-31H745q-31 0-30 31v98Q625-8 442-8h-14z" glyph-name="uni01D4" unicode="ǔ"/><glyph d="M264 1843h174q16 0 49-39l131-149 134 149q4 4 10 12 19 26 37 27h174q16 0 22-12t-6-27l-233-262q-29-33-58-33H537q-27 0-56 33l-233 262q-12 14-6 26.5t22 12.5zm813-1077q41 0 41-41V416q0-201-104.5-313.5T707-10H524q-203 0-307 112.5T113 416v602q0 201 104.5 313.5T524 1444h183q193 0 296-103.5t113-287.5q4-41-39-41H924q-37 0-41 41-6 98-48 139t-128 41H524q-94 0-136-49t-42-166V416q0-119 42-167t136-48h183q94 0 136 48t42 167v153H727q-39 0-39 41v115q0 41 39 41h350z" glyph-name="Gcaron" horiz-adv-x="1220" unicode="Ǧ"/><glyph d="M174 1434h174q16 0 49-39l131-150 134 150q4 4 13 16 17 23 34 23h174q16 0 22-12.5t-6-26.5l-233-262q-29-33-58-33H446q-26 0-55 33l-233 262q-12 14-6 26.5t22 12.5zm731-410q31 0 31-31V-47q0-362-404-363-139 0-210 17-39 8-39 43v121q0 16 11 27.5t28 6.5q72-16 189-16t157.5 33T709-47v147Q641-11 504-10h-53Q285-10 188.5 91.5T92 356v306q0 166 96.5 268T451 1032h53q137 0 205-102v63q0 31 28 31h168zM575 195q133 0 134 137v358q0 137-134 137H453q-133 0-134-137V332q0-137 134-137h122z" glyph-name="gcaron" horiz-adv-x="1058" unicode="ǧ"/><glyph d="M1120 412q0-203-103.5-312.5T709-10H514Q321-10 218 92.5T104 377q-4 39 39 39h154q37 0 41-39 6-96 47-136t129-40h195q98 0 138 45t40 165-55.5 162.5T647 639l-112 20q-205 37-311.5 130.5T117 1066t104.5 280.5T532 1444h136q190 0 292.5-100.5T1073 1065q4-41-39-41H881q-37 0-41 41-6 90-46 129t-126 39H532q-100 0-141-33t-41-133 36-138 159-59l112-20q339-62 425-245 38-81 38-193zM707-162q31 0 30-31v-204q0-127-22.5-207T625-764q-16-20-39 0l-49 43q-16 16-2 41 51 78 51 225l14 21H496q-31 0-31 31v210q0 31 31 31h211z" glyph-name="Scommaaccent" horiz-adv-x="1222" unicode="Ș"/><glyph d="M885 295q0-305-365-305h-67Q127-10 92 256q-4 31 31 31h149q39 0 53.5-30t41-47 82.5-17h81q127 0 127 102 0 68-30.5 91.5T481 420q-213 16-298 85.5T98 730t92.5 227.5T446 1030h72q158 0 255-78t97-213q0-33-28-32H694q-37 0-53 36-29 84-127 84h-68q-121 0-120-90 0-49 29.5-76.5T481 621q217-20 310.5-88T885 295zM582-162q31 0 30-31v-204q0-127-22.5-207T500-764q-16-20-39 0l-49 43q-16 16-2 41 51 78 51 225l14 21H371q-31 0-31 31v210q0 31 31 31h211z" glyph-name="scommaaccent" horiz-adv-x="966" unicode="ș"/><glyph d="M948 1434q31 0 31-31v-150q0-31-31-30H649V31q0-31-31-31H446q-31 0-30 31v1192H113q-31 0-31 30v150q0 31 31 31h835zM625-162q31 0 30-31v-204q0-127-22.5-207T543-764q-16-20-39 0l-49 43q-16 16-2 41 51 78 51 225l14 21H414q-31 0-31 31v210q0 31 31 31h211z" glyph-name="uni021A" horiz-adv-x="1060" unicode="Ț"/><glyph d="M578 819H432V309q0-59 30-81.5T565 201q43-4 39-43l-6-123q-4-39-49-39-199 0-272.5 73.5T203 311v508H102q-31 0-30 31v141q0 33 30 33h101v131q0 31 30 31h168q31 0 31-31v-131h143q33 0 33-31V850q1-31-30-31zm-97-981q31 0 31-31v-204q0-127-22.5-207T399-764q-16-20-39 0l-49 43q-16 16-2 41 51 78 51 225l15 21H270q-31 0-30 31v210q0 31 30 31h211z" glyph-name="uni021B" horiz-adv-x="690" unicode="ț"/><glyph d="M948 211q31 0 31-31V31q0-31-31-31H639q-17-17-20-34t11-27 84-17.5T827-123t43-135q0-156-196-156H522q-86 0-132 43t-48 121q0 20 18 21h138q20 0 20-17 0-33 66-33h41q47 0 58 8.5t11 22.5q0 20-26 28-26 7-100 16-74 8-100 12-49 7-75.5 51.5T440-2l2 2H164q-31 0-31 31v1372q0 31 31 31h774q31 0 31-31v-150q0-31-31-30H367V813h436q31 0 31-31V633q0-31-31-31H367V211h581z" glyph-name="uni0228" horiz-adv-x="1060" unicode="Ȩ"/><glyph d="M844 422H326v-90q0-137 133-137h100q80 0 114 15t70 56q16 20 45 0l84-55q29-20 11-45Q791 57 731 28T600-8q-26-39-6-51t55-15q102-12 145.5-49T838-258q0-156-197-156H489q-86 0-132 43t-48 121q0 20 19 21h137q20 0 20-17 0-33 66-33h41q47 0 58.5 8.5T662-248q0 20-26 27.5T535.5-204 431-190.5 379.5-170 358-111 403-6Q260 12 176 117.5T92 375v284q0 168 99.5 270.5T459 1032h100q147 0 246.5-102.5T905 659V483q0-61-61-61zM326 688v-88h352v90q0 137-119 137H459q-133 0-133-139z" glyph-name="uni0229" horiz-adv-x="997" unicode="ȩ"/><glyph d="M154-106V993q0 31 30 31h166q31 0 31-31V-121q0-129-79-232.5T98-492q-29-10-39 21L-8-317q-12 29 18 38 57 20 100.5 67.5T154-106z" glyph-name="uni0237" horiz-adv-x="544" unicode="ȷ"/><glyph d="M399 1438h160q29 0 57-33l236-262q12-16 6-27.5t-22-11.5H662q-16 0-50 39l-133 149-131-149q-33-39-49-39H125q-16 0-22 12.5t6 26.5l235 262q27 33 55 33z" glyph-name="circumflex" horiz-adv-x="962" unicode="ˆ"/><glyph d="M127 1434h174q16 0 49-39l131-150 133 150q8 8 19.5 23.5T662 1434h174q16 0 22-12.5t-6-26.5l-234-262q-29-33-57-33H399q-27 0-55 33l-233 262q-12 14-6 26.5t22 12.5z" glyph-name="caron" horiz-adv-x="962" unicode="ˇ"/><glyph d="M768 1434q31 0 31-31-2-145-76-223t-213-78H393q-139 0-214 77.5T102 1403q0 31 31 31h129q31 0 31-31 4-137 117-137h84q109 0 116 137 0 31 31 31h127z" glyph-name="breve" horiz-adv-x="901" unicode="˘"/><glyph d="M102 1403q0 31 31 31h166q31 0 31-31v-162q0-31-31-31H133q-31 0-31 31v162z" glyph-name="dotaccent" horiz-adv-x="432" unicode="˙"/><glyph d="M301 1466q74 0 123-49t49-123v-22q0-72-48-121t-124-49h-27q-74 0-123 49t-49 121v22q0 74 49.5 123t122.5 49h27zm47-174q0 23-14.5 36t-36.5 13h-18q-20 0-35-13t-15-36v-14q0-23 14.5-37t35.5-14h18q23 0 37 14t14 37v14z" glyph-name="ring" horiz-adv-x="575" unicode="˚"/><glyph d="M580-393q0-20-21-21H303q-104 0-152.5 35T102-250t42 123 132 39 117 25.5T410-2q-4 16 20 16h139q18 0 23-16 25-106-10-148.5T465-201l-170-18q-31-2-31-27 0-20 45-20h250q20 0 21-25v-102z" glyph-name="ogonek" horiz-adv-x="704" unicode="˛"/><glyph d="M852 1270q12-23-21-41-102-74-190.5-83T454 1191t-136.5 50-116.5-57q-16-12-33 16l-64 127q-8 23 21 43 207 145 385 31 88-49 128-45t118 57q20 14 32-16z" glyph-name="tilde" horiz-adv-x="958" unicode="˜"/><glyph d="M264 1434h217q18 0 25.5-10.5T502 1397l-183-236q-27-37-49-37H129q-39 0-20 37l112 236q18 37 43 37zm371 0h219q18 0 25.5-10.5T874 1397l-184-236q-27-37-47-37H500q-39 0-21 37l113 236q18 37 43 37z" glyph-name="hungarumlaut" horiz-adv-x="985" unicode="˝"/><glyph d="M-154-164q31 0 31-29v-204q0-127-22.5-207T-236-764q-16-20-38 0l-50 43q-16 16-2 41 51 78 52 225l14 21h-105q-31 0-30 31v210q0 29 30 29h211z" glyph-name="uni0326" horiz-adv-x="0" unicode="̦"/><glyph d="M1149 0H117Q86 0 94 33l432 1427q10 33 39 33h140q29 0 38-33L1174 33q8-33-25-33zM375 233h516l-254 918z" glyph-name="Delta" horiz-adv-x="1269" unicode="Δ"/><glyph d="M1077 600q0-207-149-367h116q31 0 31-30V31q0-31-31-31H680q-31 0-31 31v282q0 31 31 31h6q158 0 158 238v440q0 256-197 256h-94q-197 0-197-256V582q0-238 158-238h6q31 0 31-31V31q0-31-31-31H156q-31 0-31 31v172q0 31 31 30h116Q122 393 123 600v422q0 203 127 346t303 143h94q176 0 303-143t127-346V600z" glyph-name="Omega" horiz-adv-x="1200" unicode="Ω"/><glyph d="M911 1024q31 0 31-31V31q0-31-31-31H745q-31 0-30 31v98Q625-8 442-8h-14q-41 0-78 6v-377q0-31-31-31H154q-31 0-31 31V993q0 31 31 31h165q31 0 31-31V330q0-133 135-133h27q74 0 128 28.5t75 63.5v704q0 31 30 31h166z" glyph-name="mu" horiz-adv-x="1038" unicode="μ"/><glyph d="M1057 963q31 0 30-31V758q0-29-30-29h-49V31q0-31-31-31H805q-31 0-31 31v698H414V31q0-31-31-31H211q-31 0-31 31v698h-47q-31 0-31 31v172q0 31 29 31h926z" glyph-name="pi" horiz-adv-x="1189" unicode="π"/><glyph d="M199 1812q0 31 30 31h166q31 0 31-31v-161q0-31-31-31H229q-31 0-30 31v161zm477 0q0 31 31 31h163q31 0 31-31v-161q0-31-31-31H707q-31 0-31 31v161zm262-589H367V813h436q31 0 31-31V633q0-31-31-31H367V211h581q31 0 31-31V31q0-31-31-31H164q-31 0-31 31v1372q0 31 31 31h774q31 0 31-31v-150q0-30-31-30z" glyph-name="afii10023" horiz-adv-x="1060" unicode="Ё"/><glyph d="M455 1534q-39 0-21 37l113 235q18 37 43 37h217q18 0 25.5-10t-5.5-27l-182-235q-27-37-49-37H455zm471-100q31 0 30-31v-143q0-31-30-31H367V31q0-31-31-31H164q-31 0-31 31v1372q0 31 31 31h762z" glyph-name="afii10052" horiz-adv-x="1038" unicode="Ѓ"/><glyph d="M1077 436q43 0 39-39-10-195-113.5-301T707-10H524q-203 0-307 112.5T113 416v602q0 201 104.5 313.5T524 1444h183q193 0 296-105.5t113-300.5q4-41-39-41H924q-37 0-41 41-4 106-46 150.5T707 1233H524q-94 0-136-49t-42-166V850h270q31 0 31-31V668q0-31-31-31H346V416q0-119 42-167t136-48h183q88 0 130 44t46 152q4 39 41 39h153z" glyph-name="afii10053" horiz-adv-x="1218" unicode="Є"/><glyph d="M133 1403q0 31 31 31h176q31 0 31-31V31q0-31-31-31H164q-31 0-31 31v1372z" glyph-name="afii10055" horiz-adv-x="503" unicode="І"/><glyph d="M-100 1812q0 31 30 31H96q31 0 31-31v-161q0-31-31-31H-70q-31 0-30 31v161zm477 0q0 31 31 31h163q31 0 31-31v-161q0-31-31-31H408q-31 0-31 31v161zm-244-409q0 31 31 31h176q31 0 31-31V31q0-31-31-31H164q-31 0-31 31v1372z" glyph-name="afii10056" horiz-adv-x="503" unicode="Ї"/><glyph d="M440 197q114 0 170 77.5T666 465v938q0 31 30 31h172q31 0 31-31V446q0-201-129-330.5T427-14 84 115q-27 27 6 55l109 94q27 20 55-4 72-63 186-63z" glyph-name="afii10057" horiz-adv-x="1032" unicode="Ј"/><glyph d="M684 1843h217q18 0 25.5-10t-4.5-27l-183-235q-27-37-49-37H549q-39 0-21 37l113 235q18 37 43 37zM1130 0H930q-39 0-56 29L479 651 367 510V31q0-31-31-31H164q-31 0-31 31v1372q0 31 31 31h172q31 0 31-31V836l432 565q23 33 53 33h199q18 0 21-15.5t-11-36.5L639 850l504-801q16-21 8-35t-21-14z" glyph-name="afii10061" horiz-adv-x="1222" unicode="Ќ"/><glyph d="M692 1595H551q-23 0-49 37l-183 236q-12 16-4.5 26.5T340 1905h219q23 0 43-37l111-236q18-37-21-37zm-528-161h172q31 0 31-31V387l454 1024q10 23 37 23h234q31 0 30-31V31q0-31-30-31H920q-31 0-31 31v1018L434 23Q422 0 397 0H164q-31 0-31 31v1372q0 31 31 31z" glyph-name="uni040D" horiz-adv-x="1255" unicode="Ѝ"/><glyph d="M555 1511q-139 0-214 78t-77 223q0 31 31 31h129q31 0 31-31 4-137 116-137h84q109 0 117 137 0 31 31 31h127q31 0 31-31-2-145-76-223t-213-78H555zm555-77q37 0 18-37L494 35Q480 0 449 0H270q-39 0-20 37l248 532-410 828q-18 37 18 37h189q25 0 43-35l278-574 269 574q14 35 45 35h180z" glyph-name="afii10062" horiz-adv-x="1216" unicode="Ў"/><glyph d="M1061 0H881q-29 0-37 33l-72 274H377L305 33q-8-33-37-33H88Q55 0 63 33l400 1368q10 33 39 33h145q29 0 39-33L1085 33q8-33-24-33zM430 512h289l-146 555z" glyph-name="afii10017" horiz-adv-x="1148" unicode="А"/><glyph d="M676 958q203 0 307-107.5T1087 549V408q0-195-104-301.5T676 0H164q-31 0-31 31v1372q0 31 31 31h762q31 0 30-31v-152q0-23-30-22H367V958h309zm178-550v141q0 113-41 156t-137 43H367V211h309q96 0 137 43t41 154z" glyph-name="afii10018" horiz-adv-x="1169" unicode="Б"/><glyph d="M1108 485V383Q1108 0 686 0H164q-31 0-31 31v1372q0 31 31 31h514q195 0 285-92.5t90-280T961 776q147-96 147-291zm-289 558q0 114-28.5 147T678 1223H367V854h311q82 0 111.5 37.5T819 1043zm55-660v102q0 102-43 140.5T686 664H367V211h319q102 0 145 35t43 137z" glyph-name="afii10019" horiz-adv-x="1189" unicode="В"/><glyph d="M926 1434q31 0 30-31v-143q0-31-30-31H367V31q0-31-31-31H164q-31 0-31 31v1372q0 31 31 31h762z" glyph-name="afii10020" horiz-adv-x="1038" unicode="Г"/><glyph d="M1358 205q31 0 31-31v-342q0-31-31-31h-172q-31 0-31 31V0H285v-168q0-31-31-31H82q-31 0-31 31v342q0 31 31 31h72q51 0 106 139.5T315 741v662q0 31 31 31h864q31 0 31-31V205h117zm-350 0v1024H549V692q0-288-78-487h537z" glyph-name="afii10021" horiz-adv-x="1460" unicode="Д"/><glyph d="M938 1223H367V813h436q31 0 31-31V633q0-31-31-31H367V211h581q31 0 31-31V31q0-31-31-31H164q-31 0-31 31v1372q0 31 31 31h774q31 0 31-31v-150q0-30-31-30z" glyph-name="afii10022" horiz-adv-x="1060" unicode="Е"/><glyph d="M1853 0h-200q-39 0-56 29l-395 622-112-141V31q0-31-31-31H887q-31 0-31 31v479L743 651 348 29Q332 0 293 0H92Q74 0 72 18.5T80 49l504 801-422 532q-14 20-11 36t21 16h199q31 0 53-33l432-565v567q0 31 31 31h172q31 0 31-31V836l432 565q23 33 53 33h199q18 0 21-15.5t-11-36.5l-422-532 504-801q16-21 8-35t-21-14z" glyph-name="afii10024" horiz-adv-x="1945" unicode="Ж"/><glyph d="M1096 388q0-175-104.5-286.5T684-10H502Q309-10 205.5 96.5T92 397q-4 39 39 39h154q37 0 41-39 4-109 46-152.5T502 201h182q94 0 136 47t42 163-44 169-167 57H506q-31 0-31 31v145q0 31 31 31h145q119 4 152 54t33 152-42 142.5-137 40.5H528q-88 0-130-44t-46-151q-4-41-41-41H158q-43 0-39 41 10 195 113.5 300.5T528 1444h129q201 0 306.5-105.5T1069 1047t-72.5-232.5T842 743q127-39 190.5-109.5T1096 388z" glyph-name="afii10025" horiz-adv-x="1187" unicode="З"/><glyph d="M164 1434h172q31 0 31-31V387l454 1024q10 23 37 23h234q31 0 30-31V31q0-31-30-31H920q-31 0-31 31v1018L434 23Q422 0 397 0H164q-31 0-31 31v1372q0 31 31 31z" glyph-name="afii10026" horiz-adv-x="1255" unicode="И"/><glyph d="M944 1843q31 0 31-31-2-145-76-223t-213-78H569q-139 0-213.5 78T279 1812q0 31 30 31h129q31 0 31-31 4-137 117-137h84q109 0 116 137 0 31 31 31h127zm-780-409h172q31 0 31-31V387l454 1024q10 23 37 23h234q31 0 30-31V31q0-31-30-31H920q-31 0-31 31v1018L434 23Q422 0 397 0H164q-31 0-31 31v1372q0 31 31 31z" glyph-name="afii10027" horiz-adv-x="1255" unicode="Й"/><glyph d="M1130 0H930q-39 0-56 29L479 651 367 510V31q0-31-31-31H164q-31 0-31 31v1372q0 31 31 31h172q31 0 31-31V836l432 565q23 33 53 33h199q18 0 21-15.5t-11-36.5L639 850l504-801q16-21 8-35t-21-14z" glyph-name="afii10028" horiz-adv-x="1222" unicode="К"/><glyph d="M1130 1434q31 0 31-31V31q0-31-31-31H958q-31 0-30 31v1198H469V307q0-168-110.5-244.5T90-8Q61-8 61 25v182q0 27 47 27t87.5 39.5T236 426v977q0 31 30 31h864z" glyph-name="afii10029" horiz-adv-x="1294" unicode="Л"/><glyph d="M1356 1434q31 0 30-31V31q0-31-30-31h-172q-31 0-31 31v1020L874 31Q864 0 836 0H684q-29 0-39 31L367 1051V31q0-31-31-31H164q-31 0-31 31v1372q0 31 31 31h266q33 0 41-31l287-995 291 995q8 31 41 31h266z" glyph-name="afii10030" horiz-adv-x="1519" unicode="М"/><glyph d="M1036 1434q31 0 31-31V31q0-31-31-31H864q-31 0-30 31v571H367V31q0-31-31-31H164q-31 0-31 31v1372q0 31 31 31h172q31 0 31-31V813h467v590q0 31 30 31h172z" glyph-name="afii10031" horiz-adv-x="1200" unicode="Н"/><glyph d="M725 1444q203 0 307.5-112.5T1137 1018V416q0-201-104.5-313.5T725-10H524q-203 0-307 112.5T113 416v602q0 201 104.5 313.5T524 1444h201zM903 416v602q0 117-42 166t-136 49H524q-94 0-136-49t-42-166V416q0-119 42-167t136-48h201q94 0 136 48t42 167z" glyph-name="afii10032" horiz-adv-x="1249" unicode="О"/><glyph d="M1098 1434q31 0 30-31V31q0-31-30-31H926q-31 0-31 31v1198H367V31q0-31-31-31H164q-31 0-31 31v1372q0 31 31 31h934z" glyph-name="afii10033" horiz-adv-x="1261" unicode="П"/><glyph d="M676 1434q203 0 307-106.5t104-301.5V885q0-195-104-302.5T676 475H367V31q0-31-31-31H164q-31 0-31 31v1372q0 31 31 31h512zm178-549v141q0 111-41 154t-137 43H367V686h309q96 0 137 43t41 156z" glyph-name="afii10034" horiz-adv-x="1159" unicode="Р"/><glyph d="M1077 436q43 0 39-39-10-195-113.5-301T707-10H524q-203 0-307 112.5T113 416v602q0 201 104.5 313.5T524 1444h183q193 0 296-105.5t113-300.5q4-41-39-41H924q-37 0-41 41-4 106-46 150.5T707 1233H524q-94 0-136-49t-42-166V416q0-119 42-167t136-48h183q88 0 130 44t46 152q4 39 41 39h153z" glyph-name="afii10035" horiz-adv-x="1218" unicode="С"/><glyph d="M948 1434q31 0 31-31v-150q0-31-31-30H649V31q0-31-31-31H446q-31 0-30 31v1192H113q-31 0-31 30v150q0 31 31 31h835z" glyph-name="afii10036" horiz-adv-x="1060" unicode="Т"/><glyph d="M1110 1434q37 0 18-37L494 35Q480 0 449 0H270q-39 0-20 37l248 532-410 828q-18 37 18 37h189q25 0 43-35l278-574 269 574q14 35 45 35h180z" glyph-name="afii10037" horiz-adv-x="1216" unicode="У"/><glyph d="M1137 1343q193 0 311.5-113.5T1567 913V575q0-205-119-318.5T1137 143H944V31q0-31-31-31H741q-31 0-30 31v112H522q-193 0-311.5 114T92 575v338q0 203 119 316.5T522 1343h189v113q0 31 30 31h172q31 0 31-31v-113h193zM522 348h189v791H522q-106 0-151-40t-45-186V575q0-145 45-186t151-41zm811 227v338q0 145-45 185.5t-151 40.5H944V348h193q106 0 151 41t45 186z" glyph-name="afii10038" horiz-adv-x="1658" unicode="Ф"/><glyph d="M1024 0H840q-27 0-41 29L565 485 332 29Q318 0 291 0H106Q71 0 86 29l363 688-363 688q-14 29 20 29h185q27 0 41-29l233-457 234 457q14 29 41 29h184q35 0 20-29L682 717l362-688q14-29-20-29z" glyph-name="afii10039" horiz-adv-x="1130" unicode="Х"/><glyph d="M1393 205q31 0 30-31v-385q0-31-30-31h-172q-31 0-31 31V0H164q-31 0-31 31v1372q0 31 31 31h172q31 0 31-31V205h585v1198q0 31 31 31h172q31 0 31-31V205h207z" glyph-name="afii10040" horiz-adv-x="1515" unicode="Ц"/><glyph d="M1001 1434q31 0 31-31V31q0-31-31-31H829q-31 0-30 31v530q-74-37-137-37H459q-152 0-254.5 107.5T102 887v516q0 31 31 31h172q31 0 31-31V887q0-74 31.5-116t89.5-42h223q53 0 86 41t33 111v522q0 31 30 31h172z" glyph-name="afii10041" horiz-adv-x="1165" unicode="Ч"/><glyph d="M1769 1434q31 0 31-31V31q0-31-31-31H164q-31 0-31 31v1372q0 31 31 31h172q31 0 31-31V205h483v1198q0 31 31 31h172q31 0 30-31V205h484v1198q0 31 30 31h172z" glyph-name="afii10042" horiz-adv-x="1933" unicode="Ш"/><glyph d="M2007 205q31 0 31-31v-385q0-31-31-31h-172q-31 0-31 31V0H164q-31 0-31 31v1372q0 31 31 31h172q31 0 31-31V205h483v1198q0 31 31 31h172q31 0 30-31V205h484v1198q0 31 30 31h172q31 0 31-31V205h207z" glyph-name="afii10043" horiz-adv-x="2129" unicode="Щ"/><glyph d="M885 958q203 0 307-107.5T1296 549V408q0-195-104.5-301.5T885 0H373q-31 0-31 31v1179H123q-31 0-31 31v162q0 31 31 31h422q31 0 30-31V958h310zm178-550v141q0 113-41 156t-137 43H575V211h310q96 0 137 43t41 154z" glyph-name="afii10044" horiz-adv-x="1419" unicode="Ъ"/><glyph d="M676 958q203 0 307-107.5T1087 549V408q0-195-104-301.5T676 0H164q-31 0-31 31v1372q0 31 31 31h172q31 0 31-31V958h309zm823 476q31 0 31-31V31q0-31-31-31h-176q-31 0-31 31v1372q0 31 31 31h176zM854 408v141q0 113-41 156t-137 43H367V211h309q96 0 137 43t41 154z" glyph-name="afii10045" horiz-adv-x="1662" unicode="Ы"/><glyph d="M676 958q203 0 307-107.5T1087 549V408q0-195-104-301.5T676 0H164q-31 0-31 31v1372q0 31 31 31h172q31 0 31-31V958h309zm178-550v141q0 113-41 156t-137 43H367V211h309q96 0 137 43t41 154z" glyph-name="afii10046" horiz-adv-x="1159" unicode="Ь"/><glyph d="M694 1444q203 0 307.5-112.5T1106 1018V416q0-201-104.5-313.5T694-10H512Q319-10 216 96.5T102 397q-4 39 39 39h154q37 0 41-39 4-109 46-152.5T512 201h182q94 0 136 48t42 167v221H602q-31 0-31 31v151q0 31 31 31h270v168q0 117-42 166t-136 49H512q-88 0-130-44t-46-151q-4-41-41-41H141q-43 0-39 41 10 195 113.5 300.5T512 1444h182z" glyph-name="afii10047" horiz-adv-x="1218" unicode="Э"/><glyph d="M1245 1444q203 0 307.5-112.5T1657 1018V416q0-201-104.5-313.5T1245-10h-201q-203 0-307 112.5T633 416v219H371V31q0-31-31-31H164q-31 0-31 31v1372q0 31 31 31h176q31 0 31-31V840h262v178q0 201 104.5 313.5T1044 1444h201zm178-1028v602q0 117-42 166t-136 49h-201q-94 0-136-49t-42-166V416q0-119 42-167t136-48h201q94 0 136 48t42 167z" glyph-name="afii10048" horiz-adv-x="1769" unicode="Ю"/><glyph d="M1051 1434q31 0 30-31V31q0-31-30-31H879q-31 0-31 31v444H524L330 31Q320 0 283 0H119Q96 0 88 13.5T88 47l213 483q-174 98-174 355v141q0 195 104.5 301.5T539 1434h512zM539 686h309v537H539q-96 0-137.5-43T360 1026V885q0-113 41.5-156T539 686z" glyph-name="afii10049" horiz-adv-x="1216" unicode="Я"/><glyph d="M920 0H731q-37 0-37 49v70Q610-10 475-10h-63q-147 0-238.5 85T82 309q0 297 326 297h286v84q0 80-31.5 108.5T549 827h-60q-121 0-231-45-51-20-68 17l-43 100q-14 35 11 49 135 84 331 84h60q190 0 281.5-86T922 680V49q0-15 4-32t-6-17zM520 195q129 0 174 98v135H412q-104 0-104.5-116.5T412 195h108z" glyph-name="afii10065" horiz-adv-x="1050" unicode="а"/><glyph d="M920 1487q20 0 20-3v-12q0-10-2-24-16-78-90-144.5T692 1229t-158 1-106.5 0-54-30-23.5-121V930q63 102 205 102h53q166 0 262.5-102.5T967 662V356q0-164-96.5-265T608-10h-53q-141 0-205 110V31q0-31-28-31H154q-31 0-31 31v999q0 115 9 180.5t42 127 102.5 86T416 1445t118-8 88-7 83 45q12 12 36 12h179zM350 332q0-137 133-137h123q133 0 133 137v358q0 137-133 137H483q-133 0-133-137V332z" glyph-name="afii10066" horiz-adv-x="1058" unicode="б"/><glyph d="M897 276q0-150-79-213T580 0H164q-31 0-31 31v962q0 31 31 31h416q293 0 292-274 0-57-5-92t-34.5-74-84.5-64q92-31 120.5-87T897 276zM360 813V629h207q78 0 78 92t-80 92H360zm213-602q49 0 73 22.5t24 81.5-22.5 83-72.5 24H360V211h213z" glyph-name="afii10067" horiz-adv-x="999" unicode="в"/><glyph d="M770 1024q31 0 31-31V850q0-31-31-31H342V31q0-31-31-31H145q-31 0-30 31v962q0 31 30 31h625z" glyph-name="afii10068" horiz-adv-x="882" unicode="г"/><glyph d="M1251 211q31 0 31-31v-348q0-31-31-31h-166q-31 0-30 31V0H299v-168q0-31-31-31H102q-31 0-30 31v348q0 31 30 31h52q73 0 119 152t46 378v252q0 31 31 31h754q31 0 31-31V211h116zm-344 0v602H545V582q0-228-74-371h436z" glyph-name="afii10069" horiz-adv-x="1353" unicode="д"/><glyph d="M559 1032q147 0 246.5-102.5T905 659V483q0-61-61-61H326v-90q0-137 133-137h100q80 0 114 15t70 56q16 20 45 0l84-55q29-20 11-45-49-61-78-89t-94.5-57.5T559-10H459Q293-10 192.5 99.5T92 375v284q0 168 99.5 270.5T459 1032h100zm119-432v90q0 137-119 137H459q-133 0-133-139v-88h352z" glyph-name="afii10070" horiz-adv-x="997" unicode="е"/><glyph d="M1511 0h-225q-29 0-55 29L926 344V33q0-33-31-33H729q-31 0-31 33v311L395 29Q368 0 338 0H115q-12 0-18.5 10T92 32.5 102 51l467 459-438 461q-18 20-13 36.5t21 16.5h223q20 0 46-25l290-317v309q0 33 31 33h166q31 0 31-33V682l291 317q25 25 45 25h223q16 0 21-16.5t-13-36.5l-436-461 467-459q8-6 10-18.5t-4-22.5-19-10z" glyph-name="afii10072" horiz-adv-x="1626" unicode="ж"/><glyph d="M922 268q0-129-94.5-204.5T600-12H434q-133 0-217 69.5T133 256q0 23 23 23h188q23 0 23-24t29.5-43 86.5-19h80q57 0 83 22.5t26 80.5-12.5 84-49.5 28H432q-23 0-22 22v160q0 23 22 22h178q41 4 55.5 25.5T680 721q0 102-117 102h-80q-57 0-86.5-23.5T367 749t-23-26H156q-23 0-23 22 0 133 85 208t216 75h166q131 0 221-80t90-207q0-61-10.5-123.5T788 512q78-33 106-94.5T922 268z" glyph-name="afii10073" horiz-adv-x="1054" unicode="з"/><glyph d="M164 1024h172q31 0 31-31V348l360 653q10 23 37 23h248q31 0 30-31V31q0-31-30-31H840q-31 0-31 31v645L432 23Q418 0 395 0H164q-31 0-31 31v962q0 31 31 31z" glyph-name="afii10074" horiz-adv-x="1175" unicode="и"/><glyph d="M905 1434q31 0 31-31-2-145-76-223t-213-78H530q-139 0-213.5 77.5T240 1403q0 31 30 31h129q31 0 31-31 4-137 117-137h84q109 0 117 137 0 31 30 31h127zm-741-410h172q31 0 31-31V348l360 653q10 23 37 23h248q31 0 30-31V31q0-31-30-31H840q-31 0-31 31v645L432 23Q418 0 395 0H164q-31 0-31 31v962q0 31 31 31z" glyph-name="afii10075" horiz-adv-x="1175" unicode="й"/><glyph d="M944 0H719q-29 0-55 29L350 358V31q0-31-31-31H154q-31 0-31 31v962q0 31 31 31h165q31 0 31-31V668l299 331q29 25 45 25h226q16 0 20-15.5T928 973L492 510 956 49q21-21 10.5-35T944 0z" glyph-name="afii10076" horiz-adv-x="1038" unicode="к"/><glyph d="M991 1024q31 0 31-31V31q0-31-31-31H825q-31 0-30 31v782H410V401q0-111-51.5-225.5T238-14q-18-25-43 0L82 98q-18 18 0 45 100 115 100 277v573q0 31 31 31h778z" glyph-name="afii10077" horiz-adv-x="1134" unicode="л"/><glyph d="M1198 1024q31 0 31-31V31q0-31-31-31h-166q-31 0-31 31v608L768 111q-10-23-35-23H629q-23 0-35 23L360 639V31q0-31-30-31H164q-31 0-31 31v962q0 31 31 31h215q27 0 37-23l266-591 264 591q12 23 37 23h215z" glyph-name="afii10078" horiz-adv-x="1361" unicode="м"/><glyph d="M967 1024q31 0 30-31V31q0-31-30-31H801q-31 0-31 31v377H360V31q0-31-30-31H164q-31 0-31 31v962q0 31 31 31h166q31 0 30-31V618h410v375q0 31 31 31h166z" glyph-name="afii10079" horiz-adv-x="1130" unicode="н"/><glyph d="M557 1032q166 0 263.5-102.5T918 662V356q0-166-97.5-266T557-10H453Q287-10 189.5 90T92 356v306q0 166 97.5 268T453 1032h104zm133-700v358q0 137-133 137H453q-133 0-134-137V332q0-137 134-137h104q133 0 133 137z" glyph-name="afii10080" horiz-adv-x="1009" unicode="о"/><glyph d="M948 1024q31 0 31-31V31q0-31-31-31H782q-31 0-30 31v788H360V31q0-31-30-31H160q-27 0-27 31v962q0 31 31 31h784z" glyph-name="afii10081" horiz-adv-x="1112" unicode="п"/><glyph d="M608 1032q166 0 262.5-102.5T967 662V356q0-164-96.5-265T608-10h-53q-141 0-205 110v-479q0-31-28-31H154q-31 0-31 31V993q0 31 31 31h168q29 0 28-31v-63q63 102 205 102h53zm131-700v358q0 137-133 137H483q-133 0-133-137V332q0-137 133-137h123q133 0 133 137z" glyph-name="afii10082" horiz-adv-x="1058" unicode="р"/><glyph d="M715 674q-35 0-39 39-16 113-117 112H459q-133 0-133-137V332q0-137 133-137h100q66 0 97.5 18t66.5 66q20 25 55 0l99-70q25-18 6-43-39-47-58.5-67.5T765 46q-70-56-206-56H459Q293-10 192.5 99.5T92 375v284q0 166 99.5 268.5T459 1030h100q135 0 232.5-86T903 717q2-43-39-43H715z" glyph-name="afii10083" horiz-adv-x="987" unicode="с"/><glyph d="M823 1024q31 0 31-31V842q0-31-31-31H582V31q0-31-31-31H385q-31 0-31 31v780H113q-31 0-31 31v151q0 31 31 31h710z" glyph-name="afii10084" horiz-adv-x="935" unicode="т"/><glyph d="M999 1024q31 0 17-37L471-375q-14-35-43-35H260q-35 0-20 37L420 76 55 987q-14 37 19 37h170q29 0 41-35l245-637 256 637q14 35 43 35h170z" glyph-name="afii10085" horiz-adv-x="1071" unicode="у"/><glyph d="M1192 1032q166 0 262-102.5t96-267.5V356q0-166-96-266T1192-10h-53q-139 0-203 110v-479q0-31-29-31H739q-31 0-30 31v479Q641-11 504-10h-53Q285-10 188.5 91.5T92 356v306q0 166 96.5 268T451 1032h53q137 0 205-102v473q0 31 28 31h168q31 0 31-31V930q63 102 203 102h53zM575 195q133 0 134 137v358q0 137-134 137H453q-133 0-134-137V332q0-137 134-137h122zm748 137v358q0 137-133 137h-121q-133 0-133-137V332q0-137 133-137h121q133 0 133 137z" glyph-name="afii10086" horiz-adv-x="1642" unicode="ф"/><glyph d="M864 0H678q-27 0-47 37L487 305 344 37Q324 0 297 0H111Q93 0 86.5 12.5T90 39l270 471L88 985q-10 14-4 26.5t25 12.5h188q27 0 47-37l143-268 146 268q20 37 47 37h186q18 0 23.5-12.5T885 985L618 512 887 39q10-14 4-26.5T864 0z" glyph-name="afii10087" horiz-adv-x="974" unicode="х"/><glyph d="M1151 211q31 0 31-31v-391q0-31-31-31H983q-31 0-31 31V0H164q-31 0-31 31v962q0 31 31 31h168q31 0 30-31V211h388v782q0 31 30 31h168q31 0 31-31V211h172z" glyph-name="afii10088" horiz-adv-x="1263" unicode="ц"/><glyph d="M879 1024q31 0 30-31V31q0-31-30-31H713q-31 0-31 31v245q-49-39-123-38H444q-147 0-239 107.5T113 604v389q0 31 30 31h166q31 0 31-31V608q0-160 123-159h98q121 0 121 151v393q0 31 31 31h166z" glyph-name="afii10089" horiz-adv-x="1042" unicode="ч"/><glyph d="M1522 1024q31 0 30-31V31q0-31-30-31H164q-31 0-31 31v962q0 31 31 31h166q31 0 30-31V211h369v782q0 31 31 31h166q31 0 30-31V211h369v782q0 31 31 31h166z" glyph-name="afii10090" horiz-adv-x="1685" unicode="ш"/><glyph d="M1724 211q31 0 31-31v-391q0-31-31-31h-165q-31 0-31 31V0H164q-31 0-31 31v962q0 31 31 31h166q31 0 30-31V211h369v782q0 31 31 31h166q31 0 30-31V211h369v782q0 31 31 31h166q31 0 30-31V211h172z" glyph-name="afii10091" horiz-adv-x="1837" unicode="щ"/><glyph d="M657 635q190 0 271.5-80t81.5-244-79-237.5T657 0H231q-31 0-30 31v782H82q-31 0-31 31v149q0 31 31 31h299q31 0 31-31V635h245zm7-430q72 0 103.5 22.5T799 316t-33 90-102 24H412V205h252z" glyph-name="afii10092" horiz-adv-x="1132" unicode="ъ"/><glyph d="M598 635q190 0 272-80t82-244-79.5-237.5T598 0H174q-31 0-31 31v962q0 31 31 31h150q31 0 30-31V635h244zm770 389q31 0 31-31V31q0-31-31-31h-166q-31 0-31 31v962q0 31 31 31h166zM606 205q70 0 102.5 22.5T741 316t-32.5 90T606 430H354V205h252z" glyph-name="afii10093" horiz-adv-x="1562" unicode="ы"/><glyph d="M588 635q190 0 272-80t82-244-80-237.5T588 0H164q-31 0-31 31v962q0 31 31 31h149q31 0 31-31V635h244zm8-430q70 0 102.5 22.5T731 316t-32.5 90T596 430H344V205h252z" glyph-name="afii10094" horiz-adv-x="1054" unicode="ь"/><glyph d="M528 1030q168 0 267.5-102.5T895 659V375q0-166-100.5-275.5T528-10H428q-136 0-206 56-40 32-59.5 52.5T104 166q-18 25 7 43l98 70q35 25 55 0 35-47 66.5-65.5T428 195h100q133 0 134 137v74H477q-31 0-31 30v150q0 31 31 30h185v72q0 137-134 137H428q-100 0-117-112-4-39-39-39H123q-41 0-39 43 14 141 111.5 227t232.5 86h100z" glyph-name="afii10095" horiz-adv-x="987" unicode="э"/><glyph d="M1057 1032q168 0 265-102.5t97-267.5V356q0-166-97-266T1057-10H954Q788-10 691 90t-97 266v9H393V31q0-31-31-31H197q-31 0-31 31v962q0 31 31 31h165q31 0 31-31V598h201v64q0 166 97 268t263 102h103zm135-700v358q0 137-135 137H954q-133 0-133-137V332q0-137 133-137h103q135 0 135 137z" glyph-name="afii10096" horiz-adv-x="1527" unicode="ю"/><glyph d="M299 0H133q-31 0-31 31v239q0 186 119 242-66 49-85 104.5T117 745q0 119 83 199t220 80h411q31 0 31-31V31q0-31-31-31H682q-31 0-31 31v362H451q-74 0-97.5-41T330 227V31q0-31-31-31zm352 813H453q-115 0-115-104t113-105h200v209z" glyph-name="afii10097" horiz-adv-x="995" unicode="я"/><glyph d="M147 1403q0 31 31 31h166q31 0 31-31v-162q0-31-31-31H178q-31 0-31 31v162zm478 0q0 31 30 31h164q31 0 31-31v-162q0-31-31-31H655q-31 0-30 31v162zm-66-371q147 0 246.5-102.5T905 659V483q0-61-61-61H326v-90q0-137 133-137h100q80 0 114 15t70 56q16 20 45 0l84-55q29-20 11-45-49-61-78-89t-94.5-57.5T559-10H459Q293-10 192.5 99.5T92 375v284q0 168 99.5 270.5T459 1032h100zm119-432v90q0 137-119 137H459q-133 0-133-139v-88h352z" glyph-name="afii10071" horiz-adv-x="997" unicode="ё"/><glyph d="M395 1124q-39 0-20 37l112 236q18 37 43 37h218q18 0 25-10.5t-5-26.5l-182-236q-27-37-49-37H395zm375-100q31 0 31-31V850q0-31-31-31H342V31q0-31-31-31H145q-31 0-30 31v962q0 31 30 31h625z" glyph-name="afii10100" horiz-adv-x="882" unicode="ѓ"/><glyph d="M459 825q-133 0-133-137v-72h184q31 0 31-30V436q0-31-31-30H326v-74q0-137 133-137h100q66 0 97.5 18t66.5 66q20 25 55 0l99-70q25-18 6-43-39-47-58.5-67.5T765 46q-70-56-206-56H459Q293-10 192.5 99.5T92 375v284q0 166 99.5 268.5T459 1030h100q135 0 232.5-86T903 717q2-43-39-43H715q-35 0-39 39-16 113-117 112H459z" glyph-name="afii10101" horiz-adv-x="987" unicode="є"/><glyph d="M143 1403q0 31 31 31h166q31 0 31-31v-162q0-31-31-31H174q-31 0-31 31v162zm0-410q0 31 31 31h166q31 0 31-31V31q0-31-31-31H174q-31 0-31 31v962z" glyph-name="afii10103" horiz-adv-x="514" unicode="і"/><glyph d="M-78 1403q0 31 31 31h166q31 0 31-31v-162q0-31-31-31H-47q-31 0-31 31v162zm477 0q0 31 31 31h164q31 0 31-31v-162q0-31-31-31H430q-31 0-31 31v162zM164 993q0 31 31 31h165q31 0 31-31V31q0-31-31-31H195q-31 0-31 31v962z" glyph-name="afii10104" horiz-adv-x="555" unicode="ї"/><glyph d="M143 1403q0 31 31 31h164q31 0 31-31v-162q0-31-31-31H174q-31 0-31 31v162zm0-1509V993q0 31 31 31h166q31 0 31-31V-121q0-129-79-232.5T88-492q-29-10-39 21l-67 154q-12 29 18 38 57 20 100 67.5T143-106z" glyph-name="afii10105" horiz-adv-x="514" unicode="ј"/><glyph d="M455 1124q-39 0-21 37l113 236q18 37 43 37h217q18 0 25.5-10.5T827 1397l-182-236q-27-37-49-37H455zM944 0H719q-29 0-55 29L350 358V31q0-31-31-31H154q-31 0-31 31v962q0 31 31 31h165q31 0 31-31V668l299 331q29 25 45 25h226q16 0 20-15.5T928 973L492 510 956 49q21-21 10.5-35T944 0z" glyph-name="afii10109" horiz-adv-x="1038" unicode="ќ"/><glyph d="M653 1186H512q-23 0-49 37l-182 235q-12 16-5 26.5t25 10.5h219q20 0 43-37l111-235q18-37-21-37zm-489-162h172q31 0 31-31V348l360 653q10 23 37 23h248q31 0 30-31V31q0-31-30-31H840q-31 0-31 31v645L432 23Q418 0 395 0H164q-31 0-31 31v962q0 31 31 31z" glyph-name="uni045D" horiz-adv-x="1175" unicode="ѝ"/><glyph d="M477 1102q-139 0-214 77.5T186 1403q0 31 31 31h129q31 0 31-31 4-137 117-137h84q109 0 116 137 0 31 31 31h127q31 0 31-31-2-145-76-223t-213-78H477zm522-78q31 0 17-37L471-375q-14-35-43-35H260q-35 0-20 37L420 76 55 987q-14 37 19 37h170q29 0 41-35l245-637 256 637q14 35 43 35h170z" glyph-name="afii10110" horiz-adv-x="1071" unicode="ў"/><glyph d="M926 1618q31 0 30-31v-327q0-31-30-31H367V31q0-31-31-31H164q-31 0-31 31v1372q0 31 31 31h559v153q0 31 31 31h172z" glyph-name="afii10050" horiz-adv-x="1038" unicode="Ґ"/><glyph d="M788 1147q31 0 31-31V788q0-31-31-30H360V31q0-31-30-31H164q-31 0-31 31v901q0 31 31 31h428v153q0 31 31 31h165z" glyph-name="afii10098" horiz-adv-x="952" unicode="ґ"/><glyph d="M133 1403q0 31 31 31h176q31 0 31-31V31q0-31-31-31H164q-31 0-31 31v1372z" glyph-name="uni04C0" horiz-adv-x="503" unicode="Ӏ"/><glyph d="M295 1636q-31 0-31 31v145q0 31 31 31h663q31 0 31-31v-145q0-31-31-31H295zm-131-202h172q31 0 31-31V387l454 1024q10 23 37 23h234q31 0 30-31V31q0-31-30-31H920q-31 0-31 31v1018L434 23Q422 0 397 0H164q-31 0-31 31v1372q0 31 31 31z" glyph-name="uni04E2" horiz-adv-x="1255" unicode="Ӣ"/><glyph d="M258 1227q-31 0-31 30v146q0 31 31 31h664q31 0 30-31v-146q0-31-30-30H258zm-94-203h172q31 0 31-31V348l360 653q10 23 37 23h248q31 0 30-31V31q0-31-30-31H840q-31 0-31 31v645L432 23Q418 0 395 0H164q-31 0-31 31v962q0 31 31 31z" glyph-name="uni04E3" horiz-adv-x="1175" unicode="ӣ"/><glyph d="M725 1444q203 0 307.5-112.5T1137 1018V416q0-201-104.5-313.5T725-10H524q-203 0-307 112.5T113 416v602q0 201 104.5 313.5T524 1444h201zm-201-211q-94 0-136-49t-42-166V821h557v197q0 117-42 166t-136 49H524zM725 201q94 0 136 48t42 167v200H346V416q0-119 42-167t136-48h201z" glyph-name="uni04E8" horiz-adv-x="1249" unicode="Ө"/><glyph d="M557 928q168 0 264.5-82T918 631V387q0-133-96.5-213T557 94H453q-168 0-264.5 80T92 387v244q0 133 96.5 215T453 928h104zM453 764q-133 0-134-109v-51l371 8v43q0 109-133 109H453zm104-506q133 0 133 111v47l-371-6v-41q0-111 134-111h104z" glyph-name="uni04E9" horiz-adv-x="1009" unicode="ө"/><glyph d="M276 1620q-31 0-30 31v161q0 31 30 31h166q31 0 31-31v-161q0-31-31-31H276zm478 0q-31 0-31 31v161q0 31 31 31h164q31 0 30-31v-161q0-31-30-31H754zm-60-176q203 0 307.5-112.5T1106 1018V416q0-201-104.5-313.5T694-10H512Q319-10 216 96.5T102 397q-4 39 39 39h154q37 0 41-39 4-109 46-152.5T512 201h182q94 0 136 48t42 167v221H602q-31 0-31 31v151q0 31 31 31h270v168q0 117-42 166t-136 49H512q-88 0-130-44t-46-151q-4-41-41-41H141q-43 0-39 41 10 195 113.5 300.5T512 1444h182z" glyph-name="uni04EC" horiz-adv-x="1218" unicode="Ӭ"/><glyph d="M170 1210q-31 0-31 31v162q0 31 31 31h166q31 0 31-31v-162q0-31-31-31H170zm477 0q-31 0-31 31v162q0 31 31 31h164q31 0 31-31v-162q0-31-31-31H647zm-119-180q168 0 267.5-102.5T895 659V375q0-166-100.5-275.5T528-10H428q-136 0-206 56-40 32-59.5 52.5T104 166q-18 25 7 43l98 70q35 25 55 0 35-47 66.5-65.5T428 195h100q133 0 134 137v74H477q-31 0-31 30v150q0 31 31 30h185v72q0 137-134 137H428q-100 0-117-112-4-39-39-39H123q-41 0-39 43 14 141 111.5 227t232.5 86h100z" glyph-name="uni04ED" horiz-adv-x="987" unicode="ӭ"/><glyph d="M281 1636q-31 0-31 31v145q0 31 31 31h663q31 0 31-31v-145q0-31-31-31H281zm829-202q37 0 18-37L494 35Q480 0 449 0H270q-39 0-20 37l248 532-410 828q-18 37 18 37h189q25 0 43-35l278-574 269 574q14 35 45 35h180z" glyph-name="uni04EE" horiz-adv-x="1216" unicode="Ӯ"/><glyph d="M180 1227q-31 0-30 30v146q0 31 30 31h664q31 0 30-31v-146q0-31-30-30H180zm819-203q31 0 17-37L471-375q-14-35-43-35H260q-35 0-20 37L420 76 55 987q-14 37 19 37h170q29 0 41-35l245-637 256 637q14 35 43 35h170z" glyph-name="uni04EF" horiz-adv-x="1103" unicode="ӯ"/><glyph d="M831 1843h218q18 0 25-10t-5-27l-182-235q-27-37-49-37H696q-39 0-20 37l112 235q18 37 43 37zm525-409q31 0 30-31V31q0-31-30-31h-172q-31 0-31 31v1020L874 31Q864 0 836 0H684q-29 0-39 31L367 1051V31q0-31-31-31H164q-31 0-31 31v1372q0 31 31 31h266q33 0 41-31l287-995 291 995q8 31 41 31h266z" glyph-name="uni1E3E" horiz-adv-x="1519" unicode="Ḿ"/><glyph d="M766 1124q-39 0-21 37l113 236q18 37 43 37h217q18 0 25.5-10.5t-4.5-26.5l-183-236q-27-37-49-37H766zm463-92q305 0 305-360V31q0-31-31-31h-166q-31 0-30 31v663q0 133-136 133h-26q-74 0-126-27.5T942 735V31q0-31-31-31H745q-31 0-30 31v663q0 133-135 133h-27q-74 0-128-28.5T350 735V31q0-31-31-31H154q-31 0-31 31v962q0 31 31 31h165q31 0 31-31v-98q90 137 273 137h14q209 0 274-166l31 29q90 137 272 137h15z" glyph-name="uni1E3F" horiz-adv-x="1656" unicode="ḿ"/><glyph d="M993 1649H852q-23 0-49 37l-182 235q-12 16-5 26.5t25 10.5h219q20 0 43-37l111-235q18-37-21-37zm764-215q37 0 27-31L1475 31q-8-31-39-31h-142q-29 0-39 31L930 1047 602 31q-8-31-39-31H424q-33 0-39 31L74 1403q-8 31 24 31h187q31 0 37-31l194-973 301 973q10 31 39 31h148q29 0 38-31l304-973 192 973q2 31 35 31h184z" glyph-name="Wgrave" horiz-adv-x="1857" unicode="Ẁ"/><glyph d="M866 1186H725q-23 0-49 37l-182 235q-12 16-5 26.5t25 10.5h219q20 0 43-37l111-235q18-37-21-37zm629-162q37 0 25-35L1231 41q-12-41-49-41h-131q-35 0-47 41-113 348-201 651-39-137-205-651-12-41-47-41H420q-35 0-49 41L86 989q-12 35 25 35h165q27 0 37-35 23-86 80.5-325.5T489 279q25 94 92.5 338.5T682 989q10 35 37 35h160q35 0 41-35 33-127 100-371.5t92-338.5q41 152 102.5 399.5T1292 989q10 35 37 35h166z" glyph-name="wgrave" horiz-adv-x="1603" unicode="ẁ"/><glyph d="M1219 1896q18 0 25-10t-5-26l-182-236q-27-37-49-37H866q-39 0-20 37l112 236q18 37 43 36h218zm538-462q37 0 27-31L1475 31q-8-31-39-31h-142q-29 0-39 31L930 1047 602 31q-8-31-39-31H424q-33 0-39 31L74 1403q-8 31 24 31h187q31 0 37-31l194-973 301 973q10 31 39 31h148q29 0 38-31l304-973 192 973q2 31 35 31h184z" glyph-name="Wacute" horiz-adv-x="1857" unicode="Ẃ"/><glyph d="M872 1434h218q18 0 25-10.5t-5-26.5l-182-236q-27-37-49-37H737q-39 0-20 37l112 236q18 37 43 37zm623-410q37 0 25-35L1231 41q-12-41-49-41h-131q-35 0-47 41-113 348-201 651-39-137-205-651-12-41-47-41H420q-35 0-49 41L86 989q-12 35 25 35h165q27 0 37-35 23-86 80.5-325.5T489 279q25 94 92.5 338.5T682 989q10 35 37 35h160q35 0 41-35 33-127 100-371.5t92-338.5q41 152 102.5 399.5T1292 989q10 35 37 35h166z" glyph-name="wacute" horiz-adv-x="1603" unicode="ẃ"/><glyph d="M578 1866q0 31 30 30h166q31 0 31-30v-162q0-31-31-31H608q-31 0-30 31v162zm477 0q0 31 30 30h164q31 0 31-30v-162q0-31-31-31h-164q-31 0-30 31v162zm702-432q37 0 27-31L1475 31q-8-31-39-31h-142q-29 0-39 31L930 1047 602 31q-8-31-39-31H424q-33 0-39 31L74 1403q-8 31 24 31h187q31 0 37-31l194-973 301 973q10 31 39 31h148q29 0 38-31l304-973 192 973q2 31 35 31h184z" glyph-name="Wdieresis" horiz-adv-x="1857" unicode="Ẅ"/><glyph d="M449 1403q0 31 30 31h166q31 0 31-31v-162q0-31-31-31H479q-31 0-30 31v162zm477 0q0 31 30 31h164q31 0 31-31v-162q0-31-31-31H956q-31 0-30 31v162zm569-379q37 0 25-35L1231 41q-12-41-49-41h-131q-35 0-47 41-113 348-201 651-39-137-205-651-12-41-47-41H420q-35 0-49 41L86 989q-12 35 25 35h165q27 0 37-35 23-86 80.5-325.5T489 279q25 94 92.5 338.5T682 989q10 35 37 35h160q35 0 41-35 33-127 100-371.5t92-338.5q41 152 102.5 399.5T1292 989q10 35 37 35h166z" glyph-name="wdieresis" horiz-adv-x="1603" unicode="ẅ"/><glyph d="M662 1595H520q-23 0-49 37l-182 236q-12 16-5 26.5t25 10.5h219q20 0 43-37l111-236q18-37-20-37zm446-161q35 0 20-31L715 604V31q0-31-31-31H512q-31 0-31 31v573L66 1403q-16 31 20 31h190q27 0 41-31l281-555 279 555q16 31 41 31h190z" glyph-name="Ygrave" horiz-adv-x="1193" unicode="Ỳ"/><glyph d="M248 1495h219q20 0 43-37l111-235q18-37-21-37H459q-22 0-49 37l-183 235q-12 16-5 26.5t26 10.5zm751-471q31 0 17-37L471-375q-14-35-43-35H260q-35 0-20 37L420 76 55 987q-14 37 19 37h170q29 0 41-35l245-637 256 637q14 35 43 35h170z" glyph-name="ygrave" horiz-adv-x="1071" unicode="ỳ"/><glyph d="M154 375q-31 0-31 31v143q0 31 31 31h964q31 0 31-31V406q0-31-31-31H154z" glyph-name="endash" horiz-adv-x="1271" unicode="–"/><glyph d="M154 375q-31 0-31 31v143q0 31 31 31h1116q31 0 30-31V406q0-31-30-31H154z" glyph-name="emdash" horiz-adv-x="1423" unicode="—"/><glyph d="M133 834q-31 0-31 30v203q0 127 24 207t89 160q16 23 39 0l49-43q18-16 2-41-51-76-51-226l-14-20h104q31 0 31-31V864q0-31-31-30H133z" glyph-name="quoteleft" horiz-adv-x="477" unicode="‘"/><glyph d="M324 1425q31 0 30-30v-205q0-127-22.5-207T242 823q-16-18-39 0l-49 43q-16 16-2 41 51 76 51 226l14 20H113q-31 0-31 31v211q0 31 31 30h211z" glyph-name="quoteright" horiz-adv-x="477" unicode="’"/><glyph d="M313 272q31 0 31-30V37q0-127-22.5-207T231-330q-16-20-38 0l-50 43q-16 16-2 41 51 78 52 226l14 20H102Q71 0 72 31v211q0 31 30 30h211z" glyph-name="quotesinglbase" horiz-adv-x="505" unicode="‚"/><glyph d="M123 823q-31 0-31 31v203q0 127 23.5 206.5T205 1423q16 23 39 0l49-41q18-18 2-43-51-78-51-225l-15-20h105q31 0 31-31V854q0-31-31-31H123zm432 0q-31 0-31 31v203q0 127 23.5 206.5T637 1423q18 20 41 0l47-41q18-18 2-43-51-80-51-225l-14-20h106q31 0 31-31V854q0-31-31-31H555z" glyph-name="quotedblleft" horiz-adv-x="890" unicode="“"/><glyph d="M344 1454q31 0 31-31v-204q0-127-22.5-207T262 852q-16-20-39 0l-49 43q-16 16-2 41 51 78 51 225l15 21H133q-31 0-31 30v211q0 31 31 31h211zm440 0q31 0 31-31v-204q0-127-23.5-207T702 852q-18-20-38 0l-50 43q-18 18-2 41 51 80 52 225l14 21H573q-31 0-30 30v211q0 31 30 31h211z" glyph-name="quotedblright" horiz-adv-x="929" unicode="”"/><glyph d="M334 272q31 0 31-30V37q0-127-23-207t-90-160q-16-20-39 0l-49 43q-16 16-2 41 51 78 51 226l14 20H123Q92 0 92 31v211q0 31 31 30h211zm440 0q31 0 31-30V37q0-127-23.5-207T692-330q-18-20-39 0l-49 43q-18 18-2 41 51 80 51 226l15 20H563q-31 0-31 31v211q0 31 31 30h211z" glyph-name="quotedblbase" horiz-adv-x="897" unicode="„"/><glyph d="M774 963q31 0 31-31V760q0-31-31-31H561v-965q0-31-31-30H358q-31 0-30 30v965H113q-31 0-31 31v172q0 31 31 31h215v501q0 31 30 31h172q31 0 31-31V963h213z" glyph-name="dagger" horiz-adv-x="886" unicode="†"/><glyph d="M774 729H561V500h213q31 0 31-31V297q0-31-31-31H561v-502q0-31-31-30H358q-31 0-30 30v502H113q-31 0-31 31v172q0 31 31 31h215v229H113q-31 0-31 31v172q0 31 31 31h215v501q0 31 30 31h172q31 0 31-31V963h213q31 0 31-31V760q0-31-31-31z" glyph-name="daggerdbl" horiz-adv-x="886" unicode="‡"/><glyph d="M164 829q0 68 65 68h246q70 0 70-68V594q0-68-70-68H229q-66 0-65 68v235z" glyph-name="bullet" horiz-adv-x="708" unicode="•"/><glyph d="M102 262q0 31 31 31h234q31 0 30-31V31q0-31-30-31H133q-31 0-31 31v231zm588 0q0 31 31 31h233q31 0 31-31V31q0-31-31-31H721q-31 0-31 31v231zm590 0q0 31 31 31h231q31 0 31-31V31q0-31-31-31h-231q-31 0-31 31v231z" glyph-name="ellipsis" horiz-adv-x="1675" unicode="…"/><glyph d="M297 1487q82 0 135-54.5t53-136.5v-22q0-82-52-135.5T297 1085h-27q-82 0-135 53.5T82 1274v22q0 82 53 136.5t135 54.5h27zm678 0h196q39 0 21-31L365 31Q347 0 324 0H127q-39 0-21 31l828 1425q18 31 41 31zm-647-199q0 41-43 41h-9q-39 0-38-41v-6q0-39 38-39h9q43 0 43 39v6zm692-887q82 0 135-54t53-136v-23q0-82-53-135T1020 0h-27q-84 0-136 53t-52 135v23q0 82 53 136t135 54h27zm631 0q82 0 135-54t53-136v-23q0-82-53-135T1651 0h-27q-84 0-136 53t-52 135v23q0 82 53 136t135 54h27zm-600-198q0 41-43 41h-9q-39 0-38-41v-6q0-39 38-39h9q43 0 43 39v6zm630 0q0 41-43 41h-8q-39 0-39-41v-6q0-39 39-39h8q43 0 43 39v6z" glyph-name="perthousand" horiz-adv-x="1855" unicode="‰"/><glyph d="M565 872V666q0-23-37-45l-161-95 161-94q37-23 37-45V180q0-16-11-20t-26 4L143 416q-31 20-30 51v119q0 31 30 51l385 252q14 8 25.5 4t11.5-21z" glyph-name="guilsinglleft" horiz-adv-x="677" unicode="‹"/><glyph d="M565 467q0-31-30-51L150 164q-14-8-25.5-4T113 180v207q0 23 37 45l161 94-161 95q-37 23-37 45v206q0 16 11.5 20.5T150 889l385-252q31-20 30-51V467z" glyph-name="guilsinglright" horiz-adv-x="677" unicode="›"/><glyph d="M467 1487h78q39 0 20-31L-262 31q-18-31-41-31h-78q-39 0-20 31l827 1425q18 31 41 31z" glyph-name="fraction" horiz-adv-x="204" unicode="⁄"/><glyph d="M1313 436q41 0 37-39-8-195-111.5-301T940-10H760q-203 0-307.5 112.5T348 416v71H143q-31 0-30 31v144q0 31 30 30h205v88H143q-31 0-30 31v143q0 31 30 31h205v33q0 201 104.5 313.5T760 1444h180q195 0 298-105.5t112-300.5q4-41-37-41h-154q-39 0-43 41-4 106-45 150.5T940 1233H760q-94 0-136-49t-42-166v-33h249q31 0 31-31V811q0-31-31-31H582v-88h249q31 0 31-30V518q0-31-31-31H582v-71q0-119 42-167t136-48h180q90 0 131 43t45 153q4 39 43 39h154z" glyph-name="Euro" horiz-adv-x="1454" unicode="€"/><glyph d="M1036 475q31 0 31-31v-59q0-176-130-295T637-29h-94Q367-29 240 90T113 391q0 90 26 170-25 4-24 31v80q0 31 30 30h78q35 39 90 78H145q-31 0-30 31v80q0 31 30 31h605q76 53 75 176 0 76-46 128t-124 52H549q-76 0-130-56.5T365 1079v-39q0-31-31-30H160q-31 0-31 30v39q-2 184 126 308t294 124h106q170 0 287-113.5t117-291.5q0-102-37-184h14q31 0 31-31v-80q0-31-31-31H924q-53-51-109-78h221q31 0 31-30v-80q0-31-31-31H397q-51-53-51-153t56.5-151.5T543 205h94q78 0 134 51t58 129l2 59q0 31 31 31h174z" glyph-name="uni20B4" horiz-adv-x="1179" unicode="₴"/><glyph d="M1092 1434q31 0 30-31V31q0-31-30-31H858q-27 0-37 23L367 1049V31q0-31-31-31H164q-31 0-31 31v1372q0 31 31 31h233q25 0 37-23L889 387v1016q0 31 31 31h172zm698 0q164 0 255-95.5t91-255.5V950q0-160-91-255t-255-95h-59q-166 0-256.5 95.5T1384 950v133q0 160 90.5 255.5T1731 1434h59zm127-351q0 78-29.5 112t-105.5 34h-43q-80 0-108.5-33t-28.5-113V950q0-80 28.5-112.5T1739 805h43q76 0 105.5 33.5T1917 950v133zm-533-729q0 31 31 31h692q31 0 31-31V211q0-31-31-31h-692q-31 0-31 31v143z" glyph-name="afii61352" horiz-adv-x="2230" unicode="№"/><glyph d="M584 1062q0-79-65.5-121T333 899t-184.5 44T82 1055q0 16 18 16h82q18 0 19-16 1-39 109-39t133.5 7 25.5 38-22.5 40-136.5 14q-228 10-228 171 0 90 59.5 125t186.5 35q248 0 252-164 0-18-15-18h-82q-18 0-19 22t-27.5 32.5T327 1329t-105.5-8.5T199 1290t8.5-38.5T345 1229q128-6 183.5-47t55.5-120zm876 372q31 0 31-31V940q0-31-31-31h-61q-31 0-31 31v340l-201-340q-18-31-39-31h-43q-20 0-38 31l-201 340V940q0-31-31-31h-61q-31 0-31 31v463q0 31 31 31h123q25 0 41-31l188-338 190 338q18 31 41 31h123z" glyph-name="uni2120" horiz-adv-x="1572" unicode="℠"/><glyph d="M602 1434q31 0 31-31v-62q0-31-31-30H420V940q0-31-31-31h-61q-31 0-31 31v371H113q-31 0-31 30v62q0 31 31 31h489zm881 0q31 0 30-31V940q0-31-30-31h-62q-31 0-30 31v340l-201-340q-18-31-39-31h-43q-20 0-39 31l-201 340V940q0-31-30-31h-62q-31 0-31 31v463q0 31 31 31h123q25 0 41-31l188-338 191 338q18 31 41 31h123z" glyph-name="trademark" horiz-adv-x="1595" unicode="™"/><glyph d="M1085 1487h78q39 0 21-31L356 31Q338 0 315 0h-77q-39 0-21 31l827 1425q18 31 41 31zm-839-31q0 31 30 31h66q31 0 31-31V885q0-31-31-31h-66q-31 0-30 31v571zM1358 183q0-71-50.5-127T1178 0h-52q-80 0-130 57t-50 127 70 133q-70 63-70 135t50.5 127.5T1126 635h52q80 0 130-56.5t50-127.5-70-134q70-63 70-134zm-203 188q33 0 55.5 21.5t22.5 54-23.5 52T1151 518t-57.5-19.5-22.5-52 22.5-54T1149 371h6zm-4-254q35 0 58.5 19.5t23.5 52-22.5 54T1155 264h-6q-33 0-55.5-21.5t-22.5-54 22.5-52T1151 117z" glyph-name="oneeighth" horiz-adv-x="1480" unicode="⅛"/><glyph d="M350 854h-51q-74 0-125 51t-51 119v27q0 31 31 30h61q31 0 31-30v-15q0-27 21.5-46t56.5-19 58.5 19.5 23.5 52-23 54-55 21.5h-47q-31 0-31 31v45q0 31 31 31h47q33 0 55.5 21.5t22.5 54-24 52-58 19.5-56-19.5-22-45.5v-15q0-31-31-30h-61q-31 0-31 30v27q0 68 51 119t125 51h51q80 0 130-56.5t50-127.5-69-134q69-63 69-134t-50-127-130-56zm770 633h78q39 0 21-31L391 31Q373 0 350 0h-78q-39 0-20 31l827 1425q18 31 41 31zm273-1304q0-71-50.5-127T1212 0h-51q-80 0-130 57t-50 127 70 133q-70 63-70 135t50 127.5 130 55.5h51q80 0 130.5-56.5T1393 451t-70-134q70-63 70-134zm-203 188q33 0 55.5 21.5t22.5 54-23.5 52T1186 518t-57.5-19.5-22.5-52 22.5-54T1184 371h6zm-4-254q35 0 58.5 19.5t23.5 52-22.5 54T1190 264h-6q-33 0-55.5-21.5t-22.5-54 22.5-52T1186 117z" glyph-name="threeeighths" horiz-adv-x="1515" unicode="⅜"/><glyph d="M530 1044q0-78-50-135t-130-57h-51q-74 0-125 51t-51 119v27q0 31 31 30h61q31 0 31-30v-15q0-27 21.5-46t54.5-19q80 0 84 86 6 128-70 115t-96-31h-86q-31 0-31 30v287q0 31 31 31h325q31 0 31-31v-57q0-31-31-31H242v-117q45 23 166.5 11T530 1044zm590 443h78q39 0 21-31L391 31Q373 0 350 0h-78q-39 0-20 31l827 1425q18 31 41 31zm273-1304q0-71-50.5-127T1212 0h-51q-80 0-130 57t-50 127 70 133q-70 63-70 135t50 127.5 130 55.5h51q80 0 130.5-56.5T1393 451t-70-134q70-63 70-134zm-203 188q33 0 55.5 21.5t22.5 54-23.5 52T1186 518t-57.5-19.5-22.5-52 22.5-54T1184 371h6zm-4-254q35 0 58.5 19.5t23.5 52-22.5 54T1190 264h-6q-33 0-55.5-21.5t-22.5-54 22.5-52T1186 117z" glyph-name="fiveeighths" horiz-adv-x="1515" unicode="⅝"/><glyph d="M510 1397q0-18-8-35L281 881q-16-29-33-29h-86q-31 0-19 29l219 483H154q-31 0-31 31v61q0 31 31 31h325q31 0 31-31v-59zm590 90h78q39 0 20-31L371 31Q353 0 330 0h-78q-39 0-21 31l828 1425q18 31 41 31zM1192 0h-51q-80 0-130 57t-50 127 69 133q-70 63-70 135t50.5 127.5T1141 635h51q80 0 130-56.5t50-127.5-69-134q69-63 69-134t-50-127-130-56zm-23 371q33 0 55.5 21.5t22.5 54-23.5 52T1165 518t-57.5-19.5-22.5-52 22.5-54T1163 371h6zm-4-254q35 0 58.5 19.5t23.5 52-22.5 54T1169 264h-6q-33 0-55.5-21.5t-22.5-54 22.5-52T1165 117z" glyph-name="seveneighths" horiz-adv-x="1495" unicode="⅞"/><glyph d="M530 1509h91q180 0 291.5-116.5T1042 1096q39-352 9-682-18-205-130-318.5T633-18h-84Q365-18 239 95.5T104 422q-8 254 111 384t358 130q186 0 244-37 6 262-59.5 320.5T616 1278h-86q-80 0-134-50t-54-147v-34q0-31-31-31H137q-31 0-31 31v34q0 186 123 307t301 121zm19-1294h84q61 0 117.5 47.5T815 414q12 168-35 232.5T577 713t-198.5-62.5T342 418q4-109 63.5-156T549 215z" glyph-name="partialdiff" horiz-adv-x="1165" unicode="∂"/><glyph d="M1137 1018V416q0-201-104.5-313.5T725-10H524q-49 0-92 6l-8-16q-12-31-41-31H199q-33 0-21 31l49 112Q112 201 113 416v602q0 201 104.5 313.5T524 1444h201q49 0 88-6l8 18q14 31 41 31h185q35 0 20-31l-49-110q119-113 119-328zM346 416q0-33 2-47l377 864H524q-94 0-136-49t-42-166V416zm557 0v602q0 39-2 55L520 201h205q94 0 136 48t42 167z" glyph-name="emptyset" horiz-adv-x="1249" unicode="∅"/><glyph d="M901 963q29 0 29-31V31q0-31-31-31H727q-31 0-31 31v698H356V31q0-31-30-31H154q-31 0-31 31v901q0 31 31 31h747z" glyph-name="product" horiz-adv-x="1052" unicode="∏"/><glyph d="M123 1456q0 31 31 31h813q31 0 30-33v-170q0-31-30-31H498l354-440q29-37 29-49v-43q0-16-29-49L498 236l469-3q31 0 30-30l-2-172q0-31-28-31H154q-31 0-31 31v106q0 18 31 58l442 546-442 551q-31 39-31 58v106z" glyph-name="summation" horiz-adv-x="1120" unicode="∑"/><glyph d="M901 723q29 0 29-31V520q0-31-31-31H154q-31 0-31 31v172q0 31 31 31h747z" glyph-name="minus" horiz-adv-x="1052" unicode="−"/><glyph d="M129 688h174q25 0 37-33l135-358 387 1157q12 33 37 33h193q37 0 24-33L621 33Q611 0 582 0H389q-27 0-39 33L104 655q-12 33 25 33z" glyph-name="radical" horiz-adv-x="1222" unicode="√"/><glyph d="M1260 963q156 0 264-101.5T1632 586v-62q0-172-108.5-273T1260 150h-76q-90 0-175 63T868 369q-53-92-139-155.5T551 150h-76q-152 0-262.5 102T102 524v62q0 172 111 274.5T475 963h76q92 0 178-64.5T868 741q55 92 140.5 157t175.5 65h76zM711 535v40q0 68-42 111t-118 43h-66q-70 0-110.5-43T334 575v-40q0-68 41-111t110-43h66q74 0 117 43t43 111zm692 0v40q0 70-40 112t-114 42h-65q-70 0-115-44t-45-110v-40q0-66 45-110t115-44h65q74 0 114 42t40 112z" glyph-name="infinity" horiz-adv-x="1734" unicode="∞"/><glyph d="M825 1487q31 0 31-31v-172q0-31-31-31h-18q-111 0-161-44t-50-162V-25q0-174-91-279.5T262-410H133q-31 0-31 31v172q0 31 31 31h19q111 0 160.5 44T362 31v1071q0 174 91.5 279.5T696 1487h129z" glyph-name="integral" horiz-adv-x="958" unicode="∫"/><glyph d="M1030 692q14-23-20-45-104-72-235.5-82T535 616q-164 98-328-12-18-12-35 17l-66 129q-12 25 21 45 106 72 238.5 83T602 825q158-102 328 13 23 14 35-17zm0-375q12-23-20-45-104-74-235.5-84T535 242q-164 98-328-13-20-12-35 17l-66 129q-12 23 21 45 106 72 238.5 83T602 451q162-104 328 12 23 14 35-17z" glyph-name="approxequal" horiz-adv-x="1136" unicode="≈"/><glyph d="M924 1386q35 0 20-30L739 887h72q31 0 31-31V702q0-31-31-30H647l-47-105h211q31 0 31-30V383q0-31-31-31H508L301-121q-12-31-41-31H76q-33 0-21 31l207 473h-74q-31 0-30 31v154q0 31 30 30h166l47 105H188q-31 0-30 30v154q0 31 30 31h306l204 469q14 31 41 30h185z" glyph-name="notequal" horiz-adv-x="999" unicode="≠"/><glyph d="M860 989q0-41-20-49L457 745l383-194q20-8 20-49V322q0-12-9-17.5t-24 .5L156 655q-33 18-33 90t33 91l671 350q14 6 23.5 1t9.5-18V989zM156 233h673q31 0 31-30V31q0-31-31-31H158q-31 0-31 31v172q0 30 29 30z" glyph-name="lessequal" horiz-adv-x="983" unicode="≤"/><glyph d="M123 989v180q0 12 9 17.5t24-.5l671-350q33-18 33-90t-33-91L156 305q-14-6-23.5-1t-9.5 18v180q0 41 20 49l383 194-383 195q-20 8-20 49zm704-756q29 0 29-30V31q0-31-31-31H154q-31 0-31 31v172q0 31 31 30h673z" glyph-name="greaterequal" horiz-adv-x="983" unicode="≥"/><glyph d="M498 0h-64q-27 0-39 33L84 807q-4 12 0 24l311 775q10 33 39 32h64q27 0 39-32l311-775q4-12 0-24L537 33Q527 0 498 0zm145 813q6 8 0 16l-176 428-178-428q-6-10 0-16l176-430z" glyph-name="lozenge" horiz-adv-x="931" unicode="◊"/><glyph d="M160 1403q0 31 30 31h166q31 0 31-31v-162q0-31-31-31H190q-31 0-30 31v162zm4-410q0 31 31 31h165q31 0 31-31V31q0-31-31-31H195q-31 0-31 31v962z" glyph-name="i.aalt" horiz-adv-x="555"/><glyph d="M725 1444q203 0 307.5-112.5T1137 1018V416q0-201-104.5-313.5T725-10H524q-203 0-307 112.5T113 416v602q0 201 104.5 313.5T524 1444h201zM903 416v602q0 117-42 166t-136 49H524q-94 0-136-49t-42-166V416q0-119 42-167t136-48h201q94 0 136 48t42 167zM535 915q0 39 40 39h101q41 0 41-39V520q0-41-41-41H575q-41 0-40 41v395z" glyph-name="zero.oldstyle.case" horiz-adv-x="1249"/><glyph d="M588 1434q31 0 30-31V31q0-31-30-31H422q-31 0-31 31v1063l-74-72q-20-25-45 0l-120 121q-18 18 2 43l241 237q10 10 27 11h166z" glyph-name="one.oldstyle.case" horiz-adv-x="905"/><glyph d="M1059 205q31 0 31-31V31q0-31-31-31H123Q92 0 92 31q0 145 10.5 236t40 179.5 90 142.5T389 678l311 115q115 41 141.5 88t26.5 178q0 174-178 174H524q-90 0-133-44t-47-151q-4-41-41-41H150q-43 0-39 41 10 195 114.5 300.5T524 1444h166q201 0 306.5-107t105.5-299-63.5-286.5T793 596l-269-92q-111-39-147.5-109.5T340 205h719z" glyph-name="two.oldstyle.case" horiz-adv-x="1193"/><glyph d="M1096 388q0-175-104.5-286.5T684-10H502Q309-10 205.5 96.5T92 397q-4 39 39 39h154q37 0 41-39 4-109 46-152.5T502 201h182q94 0 136 47t42 163-44 169-167 57H506q-31 0-31 31v145q0 31 31 31h145q119 4 152 54t33 152-42 142.5-137 40.5H528q-88 0-130-44t-46-151q-4-41-41-41H158q-43 0-39 41 10 195 113.5 300.5T528 1444h129q201 0 306.5-105.5T1069 1047t-72.5-232.5T842 743q127-39 190.5-109.5T1096 388z" glyph-name="three.oldstyle.case" horiz-adv-x="1187"/><glyph d="M672 592v219q0 31 30 31h172q31 0 31-31V592h107q31 0 30-31V418q0-31-30-31H905V31q0-31-31-31H702q-31 0-30 31v356H127q-27 0-33 21l-18 55q-8 25 4 49l469 899q12 23 41 23h180q41 0 21-41L375 592h297z" glyph-name="four.oldstyle.case" horiz-adv-x="1134"/><glyph d="M686 940q410 0 410-502 0-215-103.5-331.5T684-10H504Q307-10 204.5 95.5T92 397q-4 39 39 39h154q37 0 41-39 4-111 45-153.5T504 201h180q96 0 137 52t41 185q0 297-176 297H575q-139 0-243-104H137q-31 0-31 31v38l72 703q2 31 31 31h770q31 0 31-31v-143q0-31-31-31H377l-37-359q109 70 235 70h111z" glyph-name="five.oldstyle.case" horiz-adv-x="1198"/><glyph d="M752 891q205 0 306-111.5T1159 459q0-469-409-469H514q-145 0-278.5 88.5T102 672q0 207 17.5 337t69 235.5T337 1397t251 47h84q238 0 344-92t110-275q0-31-30-30H926q-29 0-31 30-4 88-57.5 125T672 1239h-80q-98 0-173-43.5T340 825q80 66 209 66h203zm-2-690q94 0 135 60.5T926 442q0 250-174 250H512q-98 0-137-40t-39-177 41-205.5T514 201h236z" glyph-name="six.oldstyle.case" horiz-adv-x="1261"/><glyph d="M1057 1280q0-31-8-47-274-348-425-613.5T395 35q-8-35-41-35H197q-16 0-24.5 13.5T168 43q78 317 223.5 586.5T784 1221H123q-31 0-31 30v152q0 31 31 31h903q31 0 31-31v-123z" glyph-name="seven.oldstyle.case" horiz-adv-x="1148"/><glyph d="M1198 453q0-229-110.5-346T776-10H514q-203 0-312.5 115.5T92 453q0 264 207 362-76 45-103.5 110.5T168 1098q0 346 412 346h129q412 0 411-346 0-181-131-281 209-100 209-364zm-618 809q-119 0-162-44t-43-140 42-144.5T575 885h138q117 0 159.5 48t42.5 143-44 140.5-162 45.5H580zM758 190q109 0 159 60t50 196-47.5 199.5T731 709H559q-141 0-189-63.5T322 447t51-196 159-61h226z" glyph-name="eight.oldstyle.case" horiz-adv-x="1290"/><glyph d="M512 543q-205 0-307.5 111.5T102 975q0 469 412 469h236q143 0 276-89t133-591q0-321-40-456.5T995 81 674-10h-84q-238 0-344.5 92T135 356q0 31 31 31h170q29 0 31-31 6-88 58-124.5T590 195h80q98 0 172.5 43T924 608q-84-66-211-65H512zm2 690q-94 0-136-60.5T336 992q0-250 176-251h238q98 0 137 40.5T926 960t-41 205.5-135 67.5H514z" glyph-name="nine.oldstyle.case" horiz-adv-x="1261"/><glyph d="M600 969q154 0 260.5-109.5T967 596V362q0-154-106.5-261T600-6H479Q325-6 219 101.5T113 362v234q0 154 106.5 263.5T479 969h121zm133-365q0 63-37 106.5T596 754H483q-63 0-100-43t-37-107V354q0-63 37-104t100-41h113q63 0 100 41t37 104v250z" glyph-name="zero.oldstyle" horiz-adv-x="1079"/><glyph d="M657 252q31 0 31-31V31q0-31-31-31H219q-31 0-31 31v190q0 31 31 31h141v371l-73-72q-20-25-45 0L121 672q-18 18 2 43l242 237q10 10 26 11h172q31 0 31-31V252h63z" glyph-name="one.oldstyle" horiz-adv-x="837"/><glyph d="M594 967q156 0 270.5-99.5T979 624t-69.5-200.5T639 336l-176-27q-84-14-84-94h563q31 0 31-31V31q0-31-31-31H137q-31 0-31 31 0 193 52 321t248 160l202 33q92 14 114.5 29.5T745 634t-35.5 81T600 752h-86q-72 0-113-39t-41-86v-13q0-31-30-30H158q-31 0-31 30v13q0 139 109.5 239.5T506 967h88z" glyph-name="two.oldstyle" horiz-adv-x="1095"/><glyph d="M1096-163q0-175-104.5-286.5T684-561H502q-193 0-296.5 106.5T92-154q-4 39 39 39h154q37 0 41-39 4-109 46-152.5T502-350h182q94 0 136 47t42 163-44 169-167 57H506q-31 0-31 31v145q0 31 31 31h145q119 4 152 54.5T836 500t-42 142-137 40H528q-88 0-130-44t-46-151q-4-41-41-41H158q-43 0-39 41 10 195 113.5 300.5T528 893h129q201 0 306.5-105.5T1069 496t-72.5-232T842 193q127-39 190.5-110t63.5-246z" glyph-name="three.oldstyle" horiz-adv-x="1148"/><glyph d="M672 106v220q0 31 30 30h172q31 0 31-30V106h107q31 0 30-30V-68q0-31-30-30H905v-357q0-31-31-30H702q-31 0-30 30v357H127q-27 0-33 20L76-23q-8 25 4 50l469 899q12 23 41 22h180q41 0 21-41L375 106h297z" glyph-name="four.oldstyle" horiz-adv-x="1128"/><glyph d="M686 418q410 0 410-502 0-215-103.5-331.5T684-532H504q-197 0-299.5 105T92-125q-4 39 39 39h154q37 0 41-39 4-111 45-154t133-43h180q96 0 137 52.5T862-84q0 297-176 297H575q-139 0-243-104H137q-31 0-31 30v39l72 703q2 31 31 30h770q31 0 31-30V737q0-31-31-30H377l-37-359q109 70 235 70h111z" glyph-name="five.oldstyle" horiz-adv-x="1165"/><glyph d="M752 891q205 0 306-111.5T1159 459q0-469-409-469H514q-145 0-278.5 88.5T102 672q0 207 17.5 337t69 235.5T337 1397t251 47h84q238 0 344-92t110-275q0-31-30-30H926q-29 0-31 30-4 88-57.5 125T672 1239h-80q-98 0-173-43.5T340 825q80 66 209 66h203zm-2-690q94 0 135 60.5T926 442q0 250-174 250H512q-98 0-137-40t-39-177 41-205.5T514 201h236z" glyph-name="six.oldstyle" horiz-adv-x="1261"/><glyph d="M1057 756q0-31-8-47Q775 361 624 95.5T395-489q-8-35-41-35H197q-16 0-24.5 13t-4.5 30q78 317 223.5 586.5T784 696H123q-31 0-31 31v152q0 31 31 30h903q31 0 31-30V756z" glyph-name="seven.oldstyle" horiz-adv-x="1165"/><glyph d="M1198 453q0-229-110.5-346T776-10H514q-203 0-312.5 115.5T92 453q0 264 207 362-76 45-103.5 110.5T168 1098q0 346 412 346h129q412 0 411-346 0-181-131-281 209-100 209-364zm-618 809q-119 0-162-44t-43-140 42-144.5T575 885h138q117 0 159.5 48t42.5 143-44 140.5-162 45.5H580zM758 190q109 0 159 60t50 196-47.5 199.5T731 709H559q-141 0-189-63.5T322 447t51-196 159-61h226z" glyph-name="eight.oldstyle" horiz-adv-x="1290"/><glyph d="M512 0Q307 0 204.5 111.5T102 432q0 469 412 469h236q143 0 276-89t133-591q0-321-40-456.5T994.5-462 674-553h-84q-238 0-344.5 92T135-186q0 31 31 30h170q29 0 31-30 6-88 58-125t165-37h80q98 0 172.5 43T924 66Q840 0 713 0H512zm2 690q-94 0-136-61t-42-181q0-250 176-249h238q98 0 137 40t39 178-41 205.5T750 690H514z" glyph-name="nine.oldstyle" horiz-adv-x="1165"/><glyph d="M842 1444q203 0 307-112.5t104-313.5V416q0-201-104.5-313.5T842-10H641q-203 0-307.5 112.5T229 416v602q0 201 104.5 313.5T641 1444h201zm178-1028v602q0 117-42 166t-136 49H641q-94 0-136-49t-42-166V416q0-119 42-167t136-48h201q94 0 136 48t42 167z" glyph-name="zero.tnum" horiz-adv-x="1433"/><glyph d="M811 1434q31 0 31-31V31q0-31-31-31H643q-31 0-31 31v1063l-71-72q-20-25-45 0l-121 121q-18 18 2 43l239 237q10 10 27 11h168z" glyph-name="one.tnum" horiz-adv-x="1433"/><glyph d="M1196 205q31 0 31-31V31q0-31-31-31H260q-31 0-31 31 0 145 10.5 236t40 179.5 90 142.5T526 678l312 115q115 41 141.5 88t26.5 178q0 174-179 174H662q-90 0-133.5-44T481 1038q-4-41-41-41H287q-43 0-39 41 10 195 114.5 300.5T662 1444h165q201 0 306.5-107t105.5-299-63.5-286.5T930 596l-268-92q-111-39-148-109.5T477 205h719z" glyph-name="two.tnum" horiz-adv-x="1433"/><glyph d="M1239 388q0-175-104.5-286.5T827-10H645Q452-10 349 96.5T236 397q-4 39 38 39h154q37 0 41-39 4-109 46-152.5T645 201h182q94 0 136.5 47t42.5 163-44 169-167 57H649q-31 0-31 31v145q0 31 31 31h146q119 4 151.5 54t32.5 152-42 142.5-136 40.5H672q-88 0-130-44t-46-151q-4-41-41-41H301q-43 0-39 41 10 195 113.5 300.5T672 1444h129q201 0 306-105.5t105-291.5-72.5-232.5T985 743q127-39 190.5-109.5T1239 388z" glyph-name="three.tnum" horiz-adv-x="1433"/><glyph d="M842 592v219q0 31 30 31h172q31 0 31-31V592h107q31 0 30-31V418q0-31-30-31h-107V31q0-31-31-31H872q-31 0-30 31v356H299q-27 0-33 21l-18 55q-8 25 4 49l469 899q12 23 41 23h180q41 0 21-41L545 592h297z" glyph-name="four.tnum" horiz-adv-x="1433"/><glyph d="M821 940q410 0 410-502 0-215-103.5-331.5T819-10H639q-391 0-412 407-4 39 39 39h154q37 0 41-39 4-111 45-153.5T639 201h180q96 0 137 52t41 185q0 297-176 297H711q-139 0-244-104H272q-31 0-30 31v38l71 703q2 31 31 31h770q31 0 31-31v-143q0-31-31-31H512l-37-359q109 70 236 70h110z" glyph-name="five.tnum" horiz-adv-x="1433"/><glyph d="M887 891q205 0 306-110.5T1294 461Q1294-8 885-8H649Q504-8 371 80T238 672q0 207 17 338t68.5 236.5T472 1399t251 47h84q238 0 344-92t111-275q0-31-31-30h-170q-29 0-31 30-4 88-57 125t-166 37h-80q-98 0-173-43.5T475 827q78 63 209 64h203zm-2-688q94 0 135 60.5t41 180.5q0 250-174 250H647q-98 0-137-40t-39-177 42-205.5T649 203h236z" glyph-name="six.tnum" horiz-adv-x="1433"/><glyph d="M1190 1280q0-31-8-47-274-348-425-613.5T528 35q-8-35-41-35H330q-16 0-24.5 13.5T301 43q78 317 223.5 586.5T918 1221H256q-31 0-31 30v152q0 31 31 31h903q31 0 31-31v-123z" glyph-name="seven.tnum" horiz-adv-x="1433"/><glyph d="M1327 453q0-229-110.5-346T905-10H643q-203 0-312.5 115.5T221 453q0 264 207 362-76 45-103.5 110.5T297 1098q0 346 412 346h129q412 0 411-346 0-181-131-281 209-100 209-364zm-618 809q-119 0-162-44t-43-140 42-144.5T705 885h137q117 0 159.5 48t42.5 143-44 140.5-162 45.5H709zM887 190q109 0 159 60t50 196-47.5 199.5T860 709H688q-141 0-189-63.5T451 447t51-196 160-61h225z" glyph-name="eight.tnum" horiz-adv-x="1433"/><glyph d="M637 543q-205 0-307.5 111.5T227 975q0 469 412 469h235q143 0 276.5-88.5T1284 764q0-321-40-456.5T1120 81 799-10h-84q-238 0-344.5 92T260 356q0 31 31 31h170q27 0 31-31 6-88 58-124.5T715 195h80q98 0 171.5 42.5T1049 608q-84-66-211-65H637zm2 690q-94 0-136-60.5T461 992q0-250 176-251h237q98 0 137.5 40.5T1051 960t-41 205.5-136 67.5H639z" glyph-name="nine.tnum" horiz-adv-x="1433"/><glyph d="M350 635q80 0 130-53.5T530 457V178q0-72-50-125T350 0h-51q-72 0-124 54.5T123 178v279q0 70 52 124t124 54h51zm56-186q0 31-24 50t-58 19-56-19.5-22-49.5V186q0-31 21.5-50t56.5-19 58.5 19.5T406 186v263z" glyph-name="zero.dnom" horiz-adv-x="653"/><glyph d="M246 602q0 31 30 31h66q31 0 31-31V31q0-31-31-31h-66q-31 0-30 31v571z" glyph-name="one.dnom" horiz-adv-x="618"/><glyph d="M532 31q0-31-30-31H158q-31 0-31 31v49q0 30 11 46.5t44 49.5l144 154q4 4 42 38t38 68q0 35-24 58.5T324 518t-56-19.5-22-45.5v-15q0-31-31-30h-61q-31 0-31 30v27q0 68 51 119t125 51h51q80 0 130-60.5T530 448t-33.5-114.5T399 221L295 117l207 4q31 0 30-31V31z" glyph-name="two.dnom" horiz-adv-x="655"/><glyph d="M350 0h-51q-74 0-125 51t-51 119v27q0 31 31 30h61q31 0 31-30v-15q0-27 21.5-46t56.5-19 58.5 19.5 23.5 52-23 54-55 21.5h-47q-31 0-31 31v45q0 31 31 31h47q33 0 55.5 21.5t22.5 54-24 52-58 19.5-56-19.5-22-45.5v-15q0-31-31-30h-61q-31 0-31 30v27q0 68 51 119t125 51h51q80 0 130-56.5T530 451t-69-134q69-63 69-134T480 56 350 0z" glyph-name="three.dnom" horiz-adv-x="653"/><glyph d="M535 242q31 0 30-31v-61q0-31-30-31h-29V31q0-31-31-31h-61q-31 0-31 31v88H160q-29 0-31 31l-6 59q0 8 8 24l217 388q8 14 29 14h98q31 0 31-31V242h29zm-152 4v205L279 246h104z" glyph-name="four.dnom" horiz-adv-x="688"/><glyph d="M530 193q0-78-50-135.5T350 0h-51q-74 0-125 51t-51 119v27q0 31 31 30h61q31 0 31-30v-15q0-27 21.5-46t54.5-19q80 0 84 86 6 128-70 115t-96-31h-86q-31 0-31 30v287q0 31 31 31h325q31 0 31-31v-57q0-31-31-31H242V399q45 23 166.5 11T530 193z" glyph-name="five.dnom" horiz-adv-x="653"/><glyph d="M530 193q0-78-50-135.5T350 0h-51q-70 0-113 48t-53 110-10 194q0 209 113 260 133 61 264-24 23-16 12-41l-12-41q-8-33-41-14-68 45-158 28-55-12-59-67l-2-54q45 23 167.5 11T530 193zm-205-76q81 0 81 95t-81 95-81-95 81-95z" glyph-name="six.dnom" horiz-adv-x="653"/><glyph d="M510 545q0-18-8-35L281 29Q265 0 248 0h-86q-31 0-19 29l219 483H154q-31 0-31 31v61q0 31 31 31h325q31 0 31-31v-59z" glyph-name="seven.dnom" horiz-adv-x="632"/><glyph d="M535 183q0-71-50.5-127T354 0h-51q-80 0-130 57t-50 127 70 133q-70 63-70 135t50 127.5T303 635h51q80 0 130.5-56.5T535 451t-70-134q70-63 70-134zM332 371q33 0 55.5 21.5t22.5 54-24 52-58 19.5-57-19.5-23-52 22.5-54T326 371h6zm-4-254q35 0 58.5 19.5t23.5 52-22.5 54T332 264h-6q-33 0-55.5-21.5t-22.5-54 22.5-52T328 117z" glyph-name="eight.dnom" horiz-adv-x="657"/><glyph d="M123 442q0 78 50 135.5T303 635h51q70 0 113-47.5T520 478t10-195q0-209-112-260-133-61-264 24-23 16-13 41l13 41q8 33 41 14 68-45 157-28 55 12 60 67l2 54q-45-23-168-11T123 442zm206 76q-81 0-81-95t81-95 81 95-81 95z" glyph-name="nine.dnom" horiz-adv-x="653"/><glyph d="M350 1487q80 0 130-53.5t50-124.5v-279q0-72-50-125t-130-53h-51q-72 0-124 54.5T123 1030v279q0 70 52 124t124 54h51zm56-187q0 31-24 50.5t-58 19.5-56-19.5-22-50.5v-262q0-31 21.5-50t56.5-19 58.5 19.5T406 1038v262z" glyph-name="zero.numr" horiz-adv-x="653"/><glyph d="M246 1456q0 31 30 31h66q31 0 31-31V885q0-31-31-31h-66q-31 0-30 31v571z" glyph-name="one.numr" horiz-adv-x="618"/><glyph d="M532 883q0-31-30-31H158q-31 0-31 31v49q0 30 11 46.5t44 49.5l144 154q4 4 42 38t38 68q0 35-24 58.5t-58 23.5-56-19.5-22-45.5v-15q0-31-31-30h-61q-31 0-31 30v27q0 68 51 119t125 51h51q80 0 130-60.5t50-126.5-33.5-114.5T399 1073L295 969l207 4q31 0 30-31v-59z" glyph-name="two.numr" horiz-adv-x="655"/><glyph d="M350 854h-51q-74 0-125 51t-51 119v27q0 31 31 30h61q31 0 31-30v-15q0-27 21.5-46t56.5-19 58.5 19.5 23.5 52-23 54-55 21.5h-47q-31 0-31 31v45q0 31 31 31h47q33 0 55.5 21.5t22.5 54-24 52-58 19.5-56-19.5-22-45.5v-15q0-31-31-30h-61q-31 0-31 30v27q0 68 51 119t125 51h51q80 0 130-56.5t50-127.5-69-134q69-63 69-134t-50-127-130-56z" glyph-name="three.numr" horiz-adv-x="653"/><glyph d="M535 1094q31 0 30-31v-62q0-31-30-30h-29v-88q0-31-31-31h-61q-31 0-31 31v88H160q-29 0-31 30l-6 60q0 8 8 24l217 388q8 14 29 14h98q31 0 31-31v-362h29zm-152 4v205l-104-205h104z" glyph-name="four.numr" horiz-adv-x="688"/><glyph d="M530 1044q0-78-50-135t-130-57h-51q-74 0-125 51t-51 119v27q0 31 31 30h61q31 0 31-30v-15q0-27 21.5-46t54.5-19q80 0 84 86 6 128-70 115t-96-31h-86q-31 0-31 30v287q0 31 31 31h325q31 0 31-31v-57q0-31-31-31H242v-117q45 23 166.5 11T530 1044z" glyph-name="five.numr" horiz-adv-x="653"/><glyph d="M530 1044q0-78-50-135t-130-57h-51q-70 0-113 48t-53 110-10 194q0 209 113 260 133 61 264-24 23-16 12-41l-12-41q-8-33-41-15-68 45-158 29-55-12-59-67l-2-54q45 23 167.5 11T530 1044zm-205-75q81 0 81 95t-81 95-81-95 81-95z" glyph-name="six.numr" horiz-adv-x="653"/><glyph d="M510 1397q0-18-8-35L281 881q-16-29-33-29h-86q-31 0-19 29l219 483H154q-31 0-31 31v61q0 31 31 31h325q31 0 31-31v-59z" glyph-name="seven.numr" horiz-adv-x="632"/><glyph d="M535 1035q0-71-50.5-127T354 852h-51q-80 0-130 57t-50 127 70 133q-70 63-70 134t50 127.5 130 56.5h51q80 0 130.5-56.5T535 1303t-70-134q70-63 70-134zm-203 188q33 0 55.5 21.5t22.5 54-24 52-58 19.5-57-19.5-23-52 22.5-54T326 1223h6zm-4-254q35 0 58.5 19.5t23.5 52-22.5 54T332 1116h-6q-33 0-55.5-21.5t-22.5-54 22.5-52T328 969z" glyph-name="eight.numr" horiz-adv-x="657"/><glyph d="M123 1296q0 78 50 135.5t130 57.5h51q70 0 113-47.5t53-109.5 10-195q0-209-112-260-133-61-264 24-23 16-13 41l13 41q8 33 41 14 68-45 157-28 55 12 60 67l2 54q-45-23-168-11t-123 217zm206 76q-81 0-81-95t81-95 81 95-81 95z" glyph-name="nine.numr" horiz-adv-x="653"/></font>
</defs>
</svg>
