<?xml version="1.0" encoding="UTF-8"?>
<svg width="94px" height="94px" viewBox="0 0 94 32" version="1.1" xmlns="http://www.w3.org/2000/svg" xmlns:xlink="http://www.w3.org/1999/xlink">
    <!-- Generator: Sketch 52.6 (67491) - http://www.bohemiancoding.com/sketch -->
    <title>Artboard</title>
    <desc>Created with Sketch.</desc>
    <defs>
        <polygon id="path-1" points="0 0 28.3969375 0 28.3969375 22.8763687 0 22.8763687"></polygon>
    </defs>
    <g id="Artboard" stroke="none" stroke-width="1" fill="none" fill-rule="evenodd">
        <g id="Group-23">
            <polygon id="Fill-1" points="0 32 96 32 96 0 0 0"></polygon>
            <g id="Group-22">
                <g id="Group-4">
                    <mask id="mask-2" fill="white">
                        <use xlink:href="#path-1"></use>
                    </mask>
                    <g id="Clip-3"></g>
                    <path d="M3.32509375,22.0267437 C2.48125,20.2202437 2.00990625,18.2048375 2.00990625,16.0793375 C2.00990625,8.30899375 8.309,2.00993125 16.0793437,2.00993125 C20.406,2.00993125 24.2763438,3.96305625 26.85725,7.0355875 L28.3969375,5.74365 C25.447375,2.23215 21.0240938,-6.25e-06 16.0793437,-6.25e-06 C7.19896875,-6.25e-06 0,7.1989625 0,16.0793375 C0,18.5084625 0.53865625,20.8118062 1.5030625,22.8763687 L3.32509375,22.0267437 Z" id="Fill-2" fill="#000000" mask="url(#mask-2)"></path>
                </g>
                <path d="M16.0793406,25.6264469 C10.8066219,25.6264469 6.53224688,21.3520719 6.53224688,16.0793531 C6.53224688,10.8066344 10.8066219,6.53222812 16.0793406,6.53222812 C19.0152781,6.53222812 21.6412156,7.85791563 23.3925281,9.94285312 L24.9326219,8.65057187 C22.8126219,6.12669688 19.6333719,4.52232187 16.0793406,4.52232187 C9.69655937,4.52232187 4.52230938,9.69657188 4.52230938,16.0793531 C4.52230938,22.4621031 9.69655937,27.6363531 16.0793406,27.6363531 L16.0793406,25.6264469 Z" id="Fill-5" fill="#000000"></path>
                <path d="M19.5434844,18.9861062 C18.7139219,19.9737 17.4700469,20.6016375 16.0793281,20.6016375 C13.5817344,20.6016375 11.5570156,18.57695 11.5570156,16.079325 C11.5570156,13.5817312 13.5817344,11.5570125 16.0793281,11.5570125 C17.4700469,11.5570125 18.7139219,12.1849812 19.5434844,13.172575 L21.2755469,11.7192 C20.0312031,10.2377937 18.1654219,9.29585625 16.0793281,9.29585625 C12.3329219,9.29585625 9.29585937,12.3329187 9.29585937,16.079325 C9.29585937,19.8257312 12.3329219,22.862825 16.0793281,22.862825 C17.9911094,22.862825 19.7175156,22.071325 20.9504844,20.7988875 L19.5434844,18.9861062 Z" id="Fill-7" fill="#000000"></path>
                <path d="M31.7710031,13.8780969 L33.8375031,13.8780969 L33.8375031,15.2738781 L33.8737844,15.2738781 C34.0669719,14.8388156 34.4022844,14.4552844 34.8798156,14.1227531 C35.3570656,13.7905656 35.9221594,13.6242531 36.5747531,13.6242531 C37.1426594,13.6242531 37.6289406,13.7239719 38.0339719,13.9234406 C38.4388156,14.1227531 38.7710031,14.3856594 39.0309719,14.7119094 C39.2907531,15.0382531 39.4811281,15.4129719 39.6020031,15.8358156 C39.7226594,16.2589719 39.7833156,16.6940344 39.7833156,17.1410344 L39.7833156,22.5792844 L37.6080031,22.5792844 L37.6080031,17.7573781 C37.6080031,17.5035656 37.5898781,17.2378469 37.5536281,16.9597219 C37.5173469,16.6819406 37.4386906,16.4312219 37.3180344,16.2075031 C37.1970344,15.9840031 37.0307219,15.7995656 36.8194094,15.6546281 C36.6078781,15.5095656 36.3268469,15.4370344 35.9765344,15.4370344 C35.6259094,15.4370344 35.3239406,15.5067531 35.0702219,15.6455656 C34.8163781,15.7845656 34.6078781,15.9627219 34.4447844,16.1803156 C34.2816281,16.3977844 34.1575969,16.6488156 34.0730969,16.9325344 C33.9885031,17.2166906 33.9462844,17.5035656 33.9462844,17.7936594 L33.9462844,22.5792844 L31.7710031,22.5792844 L31.7710031,13.8780969 Z" id="Fill-9" fill="#000000"></path>
                <path d="M40.7075625,15.6183531 L40.7075625,13.8781031 L42.23025,13.8781031 L42.23025,11.3583219 L44.3692813,11.3583219 L44.3692813,13.8781031 L46.5445625,13.8781031 L46.5445625,15.6183531 L44.3692813,15.6183531 L44.3692813,19.6607281 C44.3692813,20.0476344 44.4386875,20.3677281 44.5777813,20.6215406 C44.7165625,20.8752906 45.0278125,21.0021969 45.5113125,21.0021969 C45.656375,21.0021969 45.8132813,20.9871969 45.982625,20.9568844 C46.15175,20.9268531 46.3027188,20.8815406 46.4359063,20.8208844 L46.5083125,22.5248844 C46.3149062,22.5974156 46.0851563,22.6546031 45.8195313,22.6971344 C45.5535312,22.7393219 45.2997813,22.7605719 45.0581563,22.7605719 C44.4780625,22.7605719 44.00675,22.6790094 43.64425,22.5158219 C43.281625,22.3526344 42.9944375,22.1292281 42.783125,21.8450719 C42.5715938,21.5613531 42.4265625,21.2349781 42.3480938,20.8662281 C42.2693125,20.4977594 42.23025,20.1020094 42.23025,19.6788531 L42.23025,15.6183531 L40.7075625,15.6183531 Z" id="Fill-11" fill="#000000"></path>
                <path d="M47.8500469,13.8780969 L49.9346719,13.8780969 L49.9346719,15.3282531 L49.9709531,15.3282531 C50.2124844,14.8206906 50.5510469,14.4100344 50.9860781,14.0955656 C51.4211094,13.7815031 51.9286719,13.6242531 52.5087656,13.6242531 C52.5931406,13.6242531 52.6837969,13.6273781 52.7807344,13.6333156 C52.8772969,13.6395969 52.9619219,13.6545969 53.0344531,13.6786594 L53.0344531,15.6727531 C52.8893906,15.6364719 52.7653906,15.6124094 52.6628594,15.6002219 C52.5600156,15.5882531 52.4602969,15.5820969 52.3637031,15.5820969 C51.8681094,15.5820969 51.4692344,15.6727531 51.1673906,15.8539406 C50.8650781,16.0352531 50.6294844,16.2527219 50.4603906,16.5065656 C50.2909531,16.7604094 50.1763281,17.0203781 50.1159844,17.2860969 C50.0553281,17.5520031 50.0253281,17.7635344 50.0253281,17.9204719 L50.0253281,22.5792844 L47.8500469,22.5792844 L47.8500469,13.8780969 Z" id="Fill-13" fill="#000000"></path>
                <path d="M54.0311875,22.5792812 L56.2064687,22.5792812 L56.2064687,13.8780937 L54.0311875,13.8780937 L54.0311875,22.5792812 Z M53.7229687,10.9232812 C53.7229687,10.5729688 53.8526875,10.2678438 54.1126562,10.007875 C54.3724375,9.74809375 54.7018125,9.61815625 55.1007187,9.61815625 C55.4994687,9.61815625 55.8348125,9.74215625 56.10675,9.98975 C56.378625,10.2375312 56.5145938,10.548875 56.5145938,10.9232812 C56.5145938,11.2979687 56.378625,11.6093438 56.10675,11.8568125 C55.8348125,12.1047187 55.4994687,12.2285 55.1007187,12.2285 C54.7018125,12.2285 54.3724375,12.0987812 54.1126562,11.8386875 C53.8526875,11.579 53.7229687,11.2739062 53.7229687,10.9232812 Z" id="Fill-15" fill="#000000"></path>
                <path d="M59.0165469,15.6183531 L57.3669531,15.6183531 L57.3669531,13.8781031 L59.0165469,13.8781031 L59.0165469,13.2273844 C59.0165469,12.7079469 59.0737344,12.2094469 59.1887969,11.7318844 C59.3035156,11.2546344 59.4969219,10.8345094 59.7688906,10.4719781 C60.0407344,10.1094781 60.4002344,9.82250938 60.8474531,9.61097813 C61.2943594,9.39966562 61.8563281,9.29369688 62.5333281,9.29369688 C62.7748594,9.29369688 62.9774219,9.30275937 63.1406094,9.32088438 C63.3036719,9.33900938 63.4696719,9.37247813 63.6391094,9.42060313 L63.4940469,11.2696344 C63.3730781,11.2333844 63.2431406,11.2033844 63.1043594,11.1789781 C62.9652344,11.1549156 62.8170469,11.1427281 62.6601406,11.1427281 C62.3457656,11.1427281 62.0920156,11.2033844 61.8988594,11.3240406 C61.7053281,11.4449156 61.5572656,11.6021656 61.4547344,11.7953531 C61.3518906,11.9887281 61.2824844,12.2003844 61.2462344,12.4298219 C61.2099844,12.6594781 61.1918281,12.8829781 61.1918281,13.1004469 L61.1918281,13.8781031 L63.2039531,13.8781031 L63.2039531,15.6183531 L61.1918281,15.6183531 L61.1918281,22.5792906 L59.0165469,22.5792906 L59.0165469,15.6183531 Z" id="Fill-17" fill="#000000"></path>
                <path d="M72.3043125,22.579275 L70.2378125,22.579275 L70.2378125,21.1834938 L70.2015312,21.1834938 C70.008125,21.6185563 69.6727187,22.0023063 69.1955,22.3344938 C68.7179375,22.6668063 68.1531562,22.8331188 67.5005625,22.8331188 C66.9323438,22.8331188 66.4460312,22.7334 66.0413125,22.5339313 C65.6362812,22.3344938 65.304,22.0717125 65.0442187,21.7454625 C64.78425,21.4190875 64.593875,21.0447125 64.4732188,20.6215563 C64.3523437,20.1985875 64.292,19.7635563 64.292,19.3163375 L64.292,13.8780875 L66.4673125,13.8780875 L66.4673125,18.6999938 C66.4673125,18.9538062 66.4854375,19.2197437 66.5216875,19.49765 C66.5579375,19.775775 66.6364062,20.0264625 66.7572812,20.2498688 C66.8779375,20.4737125 67.04425,20.6577125 67.2557812,20.8027438 C67.4670937,20.9478062 67.748125,21.0203375 68.0987813,21.0203375 C68.4369062,21.0203375 68.7360625,20.9509313 68.9960312,20.8118063 C69.2558125,20.673025 69.4673437,20.49465 69.6305312,20.2770563 C69.7936875,20.0595875 69.9175,19.8089 70.0020937,19.5248375 C70.0865937,19.2409938 70.1290312,18.9538062 70.1290312,18.6637125 L70.1290312,13.8780875 L72.3043125,13.8780875 L72.3043125,22.579275 Z" id="Fill-18" fill="#000000"></path>
                <path d="M24.51215,15.8448844 C24.9653375,15.4523844 25.5182125,15.2557281 26.1708063,15.2557281 C26.5212438,15.2557281 26.8262125,15.3132594 27.0863375,15.4279781 C27.3459938,15.5430094 27.5604313,15.6970406 27.7297438,15.8901969 C27.8988688,16.0836969 28.02265,16.3071031 28.1014625,16.5609469 C28.1799,16.8146969 28.2193063,17.0806969 28.2193063,17.3585094 L23.7599313,17.3585094 C23.8080563,16.7422594 24.0589938,16.2377281 24.51215,15.8448844 Z M28.5455563,19.9326969 C28.3036813,20.2833219 27.9954625,20.5581031 27.6210875,20.7574156 C27.246275,20.9568844 26.78715,21.0565719 26.2433375,21.0565719 C25.9289625,21.0565719 25.6269938,21.0021969 25.3369938,20.8934156 C25.0469,20.7846344 24.7869313,20.6367594 24.5574625,20.4492906 C24.3278063,20.2620719 24.1433688,20.0385406 24.0045875,19.7785719 C23.8655875,19.5187906 23.7839938,19.2319469 23.7599313,18.9175719 L30.3764625,18.9175719 C30.3883375,18.8209781 30.3945875,18.7243844 30.3945875,18.6274781 L30.3945875,18.3374781 C30.3945875,17.5520094 30.2886188,16.8662594 30.0773063,16.2799156 C29.865775,15.6939156 29.5725563,15.2044781 29.19815,14.8116344 C28.8234313,14.4191031 28.3792438,14.1227594 27.8657438,13.9234156 C27.3519313,13.7239781 26.7930875,13.6242594 26.1889625,13.6242594 C25.5363375,13.6242594 24.9290563,13.7361969 24.3672125,13.9596969 C23.8052438,14.1834156 23.3186188,14.4975719 22.9078688,14.9022906 C22.4969,15.3073219 22.1736813,15.7967594 21.9380875,16.3705719 C21.7023688,16.9447281 21.5846188,17.5823531 21.5846188,18.2830719 C21.5846188,18.9962281 21.7023688,19.6335094 21.9380875,20.1954781 C22.1736813,20.7574156 22.500025,21.2318531 22.9169313,21.6185406 C23.3338375,22.0054469 23.8261813,22.3045094 24.394275,22.5158219 C24.9623063,22.7271344 25.5845875,22.8331031 26.2614625,22.8331031 C27.7223063,22.8331031 28.8726813,22.3676344 29.7134938,21.4374781 L28.5455563,19.9326969 Z" id="Fill-19" fill="#000000"></path>
                <path d="M87.20845,15.8448844 C87.6616062,15.4523844 88.2145125,15.2557281 88.8671062,15.2557281 C89.2175437,15.2557281 89.5225437,15.3132594 89.7826687,15.4279781 C90.042325,15.5430094 90.2567312,15.6970406 90.426075,15.8901969 C90.5952,16.0836969 90.7189812,16.3071031 90.7977625,16.5609469 C90.8762,16.8146969 90.9156062,17.0806969 90.9156062,17.3585094 L86.4562312,17.3585094 C86.5043562,16.7422594 86.7552937,16.2377281 87.20845,15.8448844 Z M91.2418562,19.9326969 C91.0000125,20.2833219 90.6917937,20.5581031 90.3174187,20.7574156 C89.942575,20.9568844 89.4834812,21.0565719 88.9396375,21.0565719 C88.6252625,21.0565719 88.323325,21.0021969 88.0332937,20.8934156 C87.7432312,20.7846344 87.4832312,20.6367594 87.2537937,20.4492906 C87.0241375,20.2620719 86.8397,20.0385406 86.7008875,19.7785719 C86.5618875,19.5187906 86.4802937,19.2319469 86.4562312,18.9175719 L93.0727937,18.9175719 C93.0846375,18.8209781 93.0909187,18.7243844 93.0909187,18.6274781 L93.0909187,18.3374781 C93.0909187,17.5520094 92.98495,16.8662594 92.7736062,16.2799156 C92.5621062,15.6939156 92.2688562,15.2044781 91.8944812,14.8116344 C91.5197625,14.4191031 91.0755437,14.1227594 90.5620437,13.9234156 C90.0482625,13.7239781 89.4894187,13.6242594 88.8852625,13.6242594 C88.2326375,13.6242594 87.6253875,13.7361969 87.0635437,13.9596969 C86.5015437,14.1834156 86.01495,14.4975719 85.6042,14.9022906 C85.1932,15.3073219 84.8699812,15.7967594 84.6343875,16.3705719 C84.3986687,16.9447281 84.28095,17.5823531 84.28095,18.2830719 C84.28095,18.9962281 84.3986687,19.6335094 84.6343875,20.1954781 C84.8699812,20.7574156 85.1963562,21.2318531 85.6132312,21.6185406 C86.0301375,22.0054469 86.5225125,22.3045094 87.0906062,22.5158219 C87.6586062,22.7271344 88.2808875,22.8331031 88.9577937,22.8331031 C90.4186375,22.8331031 91.5690125,22.3676344 92.409825,21.4374781 L91.2418562,19.9326969 Z" id="Fill-20" fill="#000000"></path>
                <path d="M80.6958938,19.2042063 C80.574925,19.5355188 80.4026438,19.8275813 80.1792688,20.08055 C79.955425,20.3333938 79.6835813,20.5351125 79.3634875,20.6857688 C79.043175,20.8365188 78.683675,20.91155 78.2848625,20.91155 C77.8979875,20.91155 77.550675,20.833425 77.2425813,20.6767063 C76.9343312,20.5201125 76.6743625,20.3122375 76.46305,20.0533313 C76.2515188,19.794425 76.0883312,19.502175 75.9736125,19.1769875 C75.858675,18.8518313 75.8014875,18.5148 75.8014875,18.1652063 C75.8014875,17.78005 75.858675,17.4186125 75.9736125,17.0812688 C76.0883312,16.7438938 76.2515188,16.4518625 76.46305,16.204925 C76.6743625,15.9578937 76.9343312,15.7622063 77.2425813,15.6177062 C77.550675,15.4733 77.9042375,15.4008 78.3030188,15.4008 C78.7017688,15.4008 79.0581438,15.4733 79.3725188,15.6177062 C79.6867063,15.7622063 79.955425,15.9610187 80.1792688,16.2139875 C80.4026438,16.4669563 80.574925,16.7620188 80.6958938,17.09905 C80.81655,17.436425 80.8770813,17.791925 80.8770813,18.1652063 C80.8770813,18.5266438 80.81655,18.8731125 80.6958938,19.2042063 Z M80.8770813,13.8781125 L80.8770813,15.1832062 L80.8408313,15.1832062 C80.526425,14.6515813 80.1035813,14.2587375 79.5719875,14.0050187 C79.0400188,13.751175 78.4662062,13.6242688 77.8498625,13.6242688 C77.1972375,13.6242688 76.6080812,13.7452375 76.0823937,13.9868938 C75.5567062,14.2287375 75.1094875,14.5549875 74.7408937,14.9657375 C74.3721437,15.3767062 74.088425,15.8602062 73.8889562,16.4158938 C73.6895187,16.971925 73.589925,17.5642062 73.589925,18.192425 C73.589925,18.8087687 73.6924562,19.3919875 73.89805,19.9417375 C74.103425,20.4918313 74.3903,20.9722062 74.75905,21.3828312 C75.1275812,21.7938313 75.5776437,22.120175 76.1095812,22.3617063 C76.6412062,22.6033313 77.2334875,22.7243312 77.8861125,22.7243312 C78.4902688,22.7243312 79.0372375,22.6113312 79.5266438,22.38555 C80.0160813,22.1597687 80.417675,21.8332062 80.732175,21.4058312 L80.7683938,21.4058312 L80.7683938,22.0425812 C80.7683938,22.4793313 80.7230813,22.8795188 80.632425,23.243425 C80.5417688,23.6071437 80.3904875,23.9227062 80.1792688,24.1894875 C79.9676438,24.4562687 79.6835813,24.6653313 79.3272063,24.817175 C78.9706438,24.968675 78.5324875,25.044675 78.01305,25.044675 C77.4692062,25.044675 76.9313312,24.938675 76.3996125,24.7273625 C75.8817062,24.5213938 75.4157062,24.2264562 75.001175,23.8429563 L73.7167063,25.4978313 C73.9946437,25.7272688 74.3088,25.9328625 74.659425,26.114175 C75.0097375,26.2953938 75.3753938,26.4463625 75.7561437,26.5673313 C76.1368,26.6880187 76.5233625,26.778675 76.9163312,26.8392063 C77.3088312,26.89955 77.680425,26.9298625 78.0310812,26.9298625 C78.8768625,26.9298625 79.6082375,26.8088938 80.2245813,26.5673313 C80.8408313,26.3253938 81.3513,25.9841438 81.7563625,25.5431437 C82.16105,25.1018625 82.4602375,24.564175 82.6536125,23.9298312 C82.8468,23.2953313 82.9437063,22.5852062 82.9437063,21.7997375 L82.9437063,13.8781125 L80.8770813,13.8781125 Z" id="Fill-21" fill="#000000"></path>
            </g>
        </g>
    </g>
</svg>