<?xml version="1.0" encoding="utf-8"?>
<!-- Generator: Adobe Illustrator 16.0.0, SVG Export Plug-In . SVG Version: 6.00 Build 0)  -->
<!DOCTYPE svg PUBLIC "-//W3C//DTD SVG 1.1//EN" "http://www.w3.org/Graphics/SVG/1.1/DTD/svg11.dtd">
<svg version="1.1" id="Layer_1" xmlns="http://www.w3.org/2000/svg" xmlns:xlink="http://www.w3.org/1999/xlink" x="0px" y="0px"
	 width="500px" height="500px" viewBox="0 0 500 500" enable-background="new 0 0 500 500" xml:space="preserve">
<linearGradient id="SVGID_1_" gradientUnits="userSpaceOnUse" x1="85.5933" y1="218.3647" x2="381.5933" y2="470.3647">
	<stop  offset="0" style="stop-color:#A566FF"/>
	<stop  offset="0.5046" style="stop-color:#33CBCB"/>
	<stop  offset="1" style="stop-color:#5DE568"/>
</linearGradient>
<path fill="url(#SVGID_1_)" d="M214.435,275.953c-11.014,7.562-24.246,13.396-39.905,15.217
	c-15.043,1.759-29.732-2.731-42.502-12.951c-18.902-15.124-31.152-40.863-34.497-72.469c-0.079-0.737-0.146-2.437-1.254-1.728
	l-21.102,10.789c-0.819,0.535-0.662,1.339-0.591,1.806c5.279,34.334,20.143,62.698,42.348,80.47
	c17.66,14.132,39.111,20.552,60.387,18.083c20.554-2.386,38.321-10.101,53.438-21.136
	C224.565,288.556,218.905,282.262,214.435,275.953z"/>
<linearGradient id="SVGID_2_" gradientUnits="userSpaceOnUse" x1="62.8066" y1="332.4238" x2="426.8067" y2="102.4239">
	<stop  offset="0" style="stop-color:#A566FF"/>
	<stop  offset="0.5046" style="stop-color:#33CBCB"/>
	<stop  offset="1" style="stop-color:#5DE568"/>
</linearGradient>
<path fill="url(#SVGID_2_)" d="M397.835,28.238l-19.9,10.173c-0.578,0.399-0.324,0.973-0.189,1.307
	c17.102,41.8,31.783,96.48,21.367,161.337c-10.465,65.145-57.074,94.218-92.369,90.076c-18.973-2.201-34.369-10.305-46.568-20.235
	l-0.029,0.035c-9.26-7.298-16.01-14.661-22.461-24.21l0.014-0.014c-0.238-0.335-0.514-0.681-0.744-1.012
	c-15.416-21.956-27.246-51.186-30.123-78.357c-3.193-30.138,3.773-50.651,16.307-64.725c5.486-6.159,11.414-8.712,17.264-8.712
	c5.436,0,12.24,2.903,17.498,8.869c13.359,15.171,19.191,34.804,16.541,64.604c-2.254,25.319-13.18,52.315-26.961,73.648
	c4.379,6.418,10.426,12.866,16.627,18.216c19.775-28.372,32.104-62.093,34.301-88.812c2.732-33.227-3.443-62.121-22.379-83.625
	c-9.83-11.163-22.783-16.905-35.627-17.062c-13.412-0.16-25.357,6.112-35.395,16.905c-18.559,19.955-25.726,54.303-22.146,83.743
	c3.502,28.806,16.414,66.078,39.375,95.714c6.564,8.129,13.6,15.441,21.088,22.23c16.592,14.037,36.719,24.025,60.631,26.802
	c3.43,0.396,6.854,0.596,10.266,0.596c21.809-0.004,42.936-8.082,60.379-23.28c21.846-19.039,41.77-51.448,47.74-92.055
	c10.582-71.956-7.752-133.491-23.004-171.722C399.2,28.338,398.782,27.722,397.835,28.238z"/>
<g>
	<path fill="#A566FF" d="M80.971,407.865H62.575c-3.991,0-7.131-1.125-9.412-3.381c-2.287-2.258-3.429-5.41-3.429-9.459v-18.57
		c0-4.051,1.142-7.203,3.429-9.459c2.281-2.258,5.421-3.385,9.412-3.385h7.288c3.995,0,7.116,1.127,9.374,3.385
		c2.256,2.256,3.383,5.408,3.383,9.459v11.02c0,0.867-0.406,1.305-1.216,1.305H56.849c-0.58,0-0.869,0.258-0.869,0.777v5.295
		c0,5.031,2.432,7.551,7.288,7.551h17.703c0.811,0,1.215,0.402,1.215,1.211v3.127C82.186,407.492,81.782,407.865,80.971,407.865z
		 M56.849,384.178H75.59c0.579,0,0.867-0.289,0.867-0.867v-6.684c0-4.975-2.429-7.461-7.287-7.461h-5.902
		c-4.856,0-7.288,2.486-7.288,7.461v6.684C55.98,383.889,56.269,384.178,56.849,384.178z"/>
	<path fill="#A566FF" d="M98.411,407.865h-3.906c-0.811,0-1.215-0.404-1.215-1.213v-41.824c0-0.812,0.404-1.217,1.215-1.217h3.906
		c0.809,0,1.215,0.404,1.215,1.217v3.383h0.346c1.444-3.064,4.397-4.6,8.853-4.6h4.857c3.934,0,7,1.127,9.197,3.385
		c2.197,2.256,3.299,5.408,3.299,9.459v30.197c0,0.809-0.406,1.213-1.217,1.213h-3.906c-0.807,0-1.211-0.404-1.211-1.213v-29.939
		c0-5.031-2.43-7.547-7.291-7.547h-4.857c-2.605,0-4.6,0.693-5.986,2.082c-1.391,1.387-2.083,3.354-2.083,5.898v29.506
		C99.625,407.461,99.219,407.865,98.411,407.865z"/>
	<path fill="#A566FF" d="M168.087,407.865H149.69c-3.99,0-7.132-1.125-9.414-3.381c-2.285-2.258-3.428-5.41-3.428-9.459v-18.57
		c0-4.051,1.143-7.203,3.428-9.459c2.281-2.258,5.423-3.385,9.414-3.385h7.289c3.992,0,7.115,1.127,9.373,3.385
		c2.254,2.256,3.381,5.408,3.381,9.459v11.02c0,0.867-0.404,1.305-1.213,1.305h-24.557c-0.58,0-0.867,0.258-0.867,0.777v5.295
		c0,5.031,2.427,7.551,7.287,7.551h17.703c0.809,0,1.215,0.402,1.215,1.211v3.127C169.302,407.492,168.896,407.865,168.087,407.865z
		 M143.964,384.178h18.742c0.58,0,0.867-0.289,0.867-0.867v-6.684c0-4.975-2.43-7.461-7.287-7.461h-5.902
		c-4.859,0-7.287,2.486-7.287,7.461v6.684C143.097,383.889,143.384,384.178,143.964,384.178z"/>
	<path fill="#A566FF" d="M185.527,407.865h-3.906c-0.809,0-1.213-0.404-1.213-1.213v-41.824c0-0.812,0.404-1.217,1.213-1.217h3.906
		c0.807,0,1.215,0.404,1.215,1.217v3.467h0.346c0.578-1.271,1.68-2.369,3.297-3.295c1.621-0.926,3.527-1.389,5.729-1.389h3.383
		c0.752,0,1.129,0.404,1.129,1.217v3.207c0,0.408-0.084,0.709-0.26,0.912c-0.174,0.203-0.467,0.275-0.869,0.219h-4.684
		c-2.604,0-4.602,0.779-5.988,2.342c-1.389,1.561-2.082,3.701-2.082,6.422v28.723C186.742,407.461,186.334,407.865,185.527,407.865z
		"/>
	<path fill="#A566FF" d="M225.182,405.523h-4.857c-3.934,0-7.002-1.129-9.197-3.385c-2.201-2.256-3.299-5.406-3.299-9.459v-16.225
		c0-4.051,1.143-7.203,3.428-9.459c2.285-2.258,5.424-3.385,9.414-3.385h18.828c0.812,0,1.215,0.404,1.215,1.217v43.037
		c0,3.992-1.141,7.131-3.426,9.416s-5.424,3.426-9.416,3.426h-15.965c-0.865,0-1.299-0.402-1.299-1.215v-3.209
		c0-0.811,0.434-1.215,1.299-1.215h15.186c4.859,0,7.289-2.488,7.289-7.463v-6.682h-0.348
		C232.529,403.99,229.578,405.523,225.182,405.523z M234.381,391.986v-22.041c0-0.52-0.291-0.779-0.871-0.779h-12.059
		c-4.857,0-7.287,2.516-7.287,7.547v15.709c0,5.033,2.43,7.549,7.287,7.549h4.861c2.602,0,4.598-0.695,5.986-2.082
		C233.686,396.5,234.381,394.531,234.381,391.986z"/>
	<path fill="#A566FF" d="M256.244,421.488h-3.816c-0.811,0-1.215-0.404-1.215-1.215v-3.209c0-0.811,0.404-1.215,1.215-1.215h2.17
		c3.701,0,6.305-1.041,7.809-3.123c1.215-1.682,2.312-4.078,3.297-7.203h-2.514c-0.699,0-1.186-0.404-1.475-1.215l-12.758-39.48
		c-0.232-0.812,0.055-1.217,0.867-1.217h4.164c0.752,0,1.246,0.404,1.475,1.217l11.195,35.75h0.346l11.195-35.75
		c0.172-0.812,0.635-1.217,1.387-1.217h3.994c0.98,0,1.33,0.436,1.041,1.303l-12.93,41.217c-1.445,4.914-3.283,8.705-5.51,11.369
		C263.955,420.158,260.643,421.488,256.244,421.488z"/>
	<path fill="#A566FF" d="M328.611,407.865h-5.293c-0.811,0-1.303-0.404-1.475-1.213l-11.105-41.824
		c-0.174-0.812,0.113-1.217,0.865-1.217h4.424c0.752,0,1.215,0.404,1.389,1.217l8.418,35.402h0.52l8.941-35.402
		c0.172-0.812,0.633-1.217,1.385-1.217h3.994c0.809,0,1.33,0.404,1.559,1.217l8.678,35.402h0.521l8.504-35.402
		c0.174-0.812,0.637-1.217,1.391-1.217h4.424c0.752,0,1.039,0.404,0.869,1.217l-11.107,41.824c-0.174,0.809-0.668,1.213-1.475,1.213
		h-5.379c-0.756,0-1.217-0.404-1.391-1.213l-8.418-34.537h-0.434l-8.328,34.537C329.914,407.461,329.42,407.865,328.611,407.865z"/>
	<path fill="#A566FF" d="M404.797,407.865H386.4c-3.992,0-7.133-1.125-9.414-3.381c-2.285-2.258-3.43-5.41-3.43-9.459v-18.57
		c0-4.051,1.145-7.203,3.43-9.459c2.281-2.258,5.422-3.385,9.414-3.385h7.287c3.994,0,7.115,1.127,9.375,3.385
		c2.254,2.256,3.381,5.408,3.381,9.459v11.02c0,0.867-0.404,1.305-1.217,1.305h-24.555c-0.578,0-0.867,0.258-0.867,0.777v5.295
		c0,5.031,2.43,7.551,7.289,7.551h17.703c0.809,0,1.215,0.402,1.215,1.211v3.127C406.012,407.492,405.605,407.865,404.797,407.865z
		 M380.672,384.178h18.744c0.578,0,0.867-0.289,0.867-0.867v-6.684c0-4.975-2.432-7.461-7.287-7.461h-5.902
		c-4.859,0-7.289,2.486-7.289,7.461v6.684C379.805,383.889,380.094,384.178,380.672,384.178z"/>
	<path fill="#A566FF" d="M417.117,406.652v-58.574c0-0.809,0.404-1.211,1.215-1.211h3.906c0.807,0,1.215,0.402,1.215,1.211v19.611
		h0.344c1.445-3.066,4.398-4.6,8.85-4.6h4.863c3.93,0,7.039,1.131,9.324,3.387c2.287,2.254,3.432,5.379,3.432,9.371v19.178
		c0,4.049-1.145,7.201-3.432,9.459c-2.285,2.256-5.395,3.381-9.324,3.381h-19.178C417.521,407.865,417.117,407.461,417.117,406.652z
		 M424.32,402.312h12.322c4.914,0,7.373-2.516,7.373-7.547v-18.57c0-5.035-2.459-7.551-7.373-7.551h-5.121
		c-2.604,0-4.602,0.693-5.988,2.082c-1.389,1.389-2.08,3.328-2.08,5.814v24.99C423.453,402.053,423.742,402.312,424.32,402.312z"/>
</g>
<g>
	<path fill="#231F20" d="M123.653,456.787h-1.357c-0.281,0-0.424-0.141-0.424-0.42v-18.576c0-0.279,0.143-0.422,0.424-0.422h9.393
		c0.279,0,0.42,0.143,0.42,0.422v1.088c0,0.279-0.141,0.422-0.42,0.422h-7.309c-0.199,0-0.303,0.09-0.303,0.271v6.586
		c0,0.18,0.104,0.27,0.303,0.27h6.461c0.285,0,0.426,0.143,0.426,0.422v1.09c0,0.281-0.141,0.422-0.426,0.422h-6.461
		c-0.199,0-0.303,0.1-0.303,0.301v7.705C124.077,456.646,123.938,456.787,123.653,456.787z"/>
	<path fill="#231F20" d="M155.518,456.787h-3.594c-1.389,0-2.48-0.393-3.277-1.176c-0.797-0.789-1.193-1.887-1.193-3.295v-10.48
		c0-1.408,0.396-2.506,1.193-3.291s1.889-1.176,3.277-1.176h3.594c1.389,0,2.48,0.398,3.277,1.191
		c0.795,0.795,1.191,1.887,1.191,3.275v10.48c0,1.393-0.396,2.482-1.191,3.279C157.998,456.389,156.906,456.787,155.518,456.787z
		 M152.166,454.855h3.078c1.693,0,2.539-0.875,2.539-2.629v-10.299c0-1.75-0.846-2.627-2.539-2.627h-3.078
		c-1.674,0-2.508,0.877-2.508,2.627v10.299C149.658,453.98,150.492,454.855,152.166,454.855z"/>
	<path fill="#231F20" d="M186.862,437.369h1.361c0.279,0,0.42,0.129,0.42,0.391v14.557c0,1.408-0.391,2.506-1.176,3.295
		c-0.783,0.783-1.872,1.176-3.263,1.176h-3.352c-1.389,0-2.482-0.393-3.277-1.176c-0.797-0.789-1.191-1.887-1.191-3.295v-14.525
		c0-0.279,0.139-0.422,0.424-0.422h1.357c0.279,0,0.422,0.143,0.422,0.422v14.436c0,1.754,0.834,2.629,2.506,2.629h2.842
		c1.689,0,2.536-0.875,2.536-2.629v-14.436C186.472,437.512,186.601,437.369,186.862,437.369z"/>
	<path fill="#231F20" d="M207.099,456.787h-1.328c-0.281,0-0.424-0.141-0.424-0.42v-18.576c0-0.279,0.143-0.422,0.424-0.422h1.238
		c0.24,0,0.404,0.08,0.482,0.242l8.336,14.646h0.121v-14.467c0-0.279,0.143-0.422,0.424-0.422h1.328c0.283,0,0.42,0.143,0.42,0.422
		v18.576c0,0.279-0.137,0.42-0.42,0.42h-1.119c-0.221,0-0.432-0.129-0.633-0.393l-8.305-14.496h-0.121v14.469
		C207.522,456.646,207.38,456.787,207.099,456.787z"/>
	<path fill="#231F20" d="M234.974,456.367v-18.576c0-0.279,0.141-0.422,0.422-0.422h7.432c1.389,0,2.482,0.398,3.273,1.191
		c0.797,0.795,1.195,1.887,1.195,3.275v10.48c0,1.393-0.398,2.482-1.195,3.279c-0.791,0.793-1.885,1.191-3.273,1.191h-7.432
		C235.114,456.787,234.974,456.646,234.974,456.367z M237.481,454.855h5.072c1.693,0,2.537-0.875,2.537-2.629v-10.299
		c0-1.75-0.844-2.627-2.537-2.627h-5.072c-0.201,0-0.305,0.09-0.305,0.271v15.01C237.177,454.764,237.28,454.855,237.481,454.855z"
		/>
	<path fill="#231F20" d="M264.089,456.787h-1.508c-0.264,0-0.355-0.141-0.271-0.42l5.646-18.576c0.08-0.279,0.271-0.422,0.574-0.422
		h2.172c0.303,0,0.496,0.143,0.576,0.422l5.646,18.576c0.08,0.279-0.01,0.42-0.27,0.42h-1.543c-0.221,0-0.359-0.141-0.422-0.42
		l-1.42-4.41h-7.307l-1.424,4.41C264.462,456.646,264.312,456.787,264.089,456.787z M269.556,439.635l-3.109,10.447h6.342
		l-3.111-10.447H269.556z"/>
	<path fill="#231F20" d="M296.979,456.787h-1.361c-0.283,0-0.424-0.141-0.424-0.42v-16.795c0-0.182-0.102-0.271-0.303-0.271h-4.107
		c-0.301,0-0.451-0.143-0.451-0.422v-1.088c0-0.279,0.15-0.422,0.451-0.422h11.025c0.301,0,0.455,0.143,0.455,0.422v1.088
		c0,0.279-0.154,0.422-0.455,0.422H297.7c-0.201,0-0.301,0.09-0.301,0.271v16.795C297.399,456.646,297.257,456.787,296.979,456.787z
		"/>
	<path fill="#231F20" d="M319.569,437.791v18.576c0,0.279-0.141,0.42-0.424,0.42h-1.357c-0.283,0-0.424-0.141-0.424-0.42v-18.576
		c0-0.279,0.141-0.422,0.424-0.422h1.357C319.429,437.369,319.569,437.512,319.569,437.791z"/>
	<path fill="#231F20" d="M344.337,456.787h-3.596c-1.389,0-2.482-0.393-3.275-1.176c-0.799-0.789-1.193-1.887-1.193-3.295v-10.48
		c0-1.408,0.395-2.506,1.193-3.291c0.793-0.785,1.887-1.176,3.275-1.176h3.596c1.389,0,2.479,0.398,3.275,1.191
		c0.793,0.795,1.191,1.887,1.191,3.275v10.48c0,1.393-0.398,2.482-1.191,3.279C346.815,456.389,345.726,456.787,344.337,456.787z
		 M340.983,454.855h3.078c1.691,0,2.541-0.875,2.541-2.629v-10.299c0-1.75-0.85-2.627-2.541-2.627h-3.078
		c-1.674,0-2.506,0.877-2.506,2.627v10.299C338.478,453.98,339.31,454.855,340.983,454.855z"/>
	<path fill="#231F20" d="M367.104,456.787h-1.328c-0.281,0-0.424-0.141-0.424-0.42v-18.576c0-0.279,0.143-0.422,0.424-0.422h1.236
		c0.242,0,0.404,0.08,0.484,0.242l8.334,14.646h0.121v-14.467c0-0.279,0.143-0.422,0.426-0.422h1.326
		c0.283,0,0.424,0.143,0.424,0.422v18.576c0,0.279-0.141,0.42-0.424,0.42h-1.117c-0.221,0-0.434-0.129-0.635-0.393l-8.305-14.496
		h-0.121v14.469C367.526,456.646,367.386,456.787,367.104,456.787z"/>
</g>
</svg>
