<?xml version="1.0" standalone="no"?><!DOCTYPE svg PUBLIC "-//W3C//DTD SVG 1.1//EN" "http://www.w3.org/Graphics/SVG/1.1/DTD/svg11.dtd"><svg class="c12" version="1.1" id="Layer_1" xmlns:xlink="http://www.w3.org/1999/xlink" x="0px" y="0px" viewBox="40 -10 80 80" enable-background="new 30 0 110 100" xml:space="preserve" xmlns="http://www.w3.org/2000/svg"><defs xmlns="http://www.w3.org/1999/xhtml"><style type="text/css"><![CDATA[
.tippy-touch { cursor: pointer !important; }
.tippy-notransition { transition: none 0s ease 0s !important; }
.tippy-popper { max-width: 350px; perspective: 700px; z-index: 9999; outline: currentcolor none 0px; transition-timing-function: cubic-bezier(0.165, 0.84, 0.44, 1); pointer-events: none; }
.tippy-popper[data-html] { max-width: calc(100% - 20px); }
.tippy-popper[x-placement^="top"] .tippy-backdrop { border-radius: 40% 40% 0px 0px; }
.tippy-popper[x-placement^="top"] .tippy-roundarrow { width: 23px; height: 23px; fill: rgb(51, 51, 51); bottom: -15px; margin: 0px 6px; }
.tippy-popper[x-placement^="top"] .tippy-roundarrow svg { transform: rotate(180deg); }
.tippy-popper[x-placement^="top"] .tippy-arrow { border-top: 7px solid rgb(51, 51, 51); border-right: 7px solid transparent; border-left: 7px solid transparent; bottom: -7px; margin: 0px 7px; }
.tippy-popper[x-placement^="top"] .tippy-backdrop { transform-origin: 0px 100% 0px; }
.tippy-popper[x-placement^="top"] .tippy-backdrop[data-state="visible"] { transform: scale(5.5) translate(-50%, 25%); opacity: 1; }
.tippy-popper[x-placement^="top"] .tippy-backdrop[data-state="hidden"] { transform: scale(1) translate(-50%, 25%); opacity: 0; }
.tippy-popper[x-placement^="top"] [data-animation="shift-toward"][data-state="visible"] { opacity: 1; transform: translateY(-10px); }
.tippy-popper[x-placement^="top"] [data-animation="shift-toward"][data-state="hidden"] { opacity: 0; transform: translateY(-20px); }
.tippy-popper[x-placement^="top"] [data-animation="perspective"] { transform-origin: center bottom 0px; }
.tippy-popper[x-placement^="top"] [data-animation="perspective"][data-state="visible"] { opacity: 1; transform: translateY(-10px) rotateX(0deg); }
.tippy-popper[x-placement^="top"] [data-animation="perspective"][data-state="hidden"] { opacity: 0; transform: translateY(0px) rotateX(90deg); }
.tippy-popper[x-placement^="top"] [data-animation="fade"][data-state="visible"] { opacity: 1; transform: translateY(-10px); }
.tippy-popper[x-placement^="top"] [data-animation="fade"][data-state="hidden"] { opacity: 0; transform: translateY(-10px); }
.tippy-popper[x-placement^="top"] [data-animation="shift-away"][data-state="visible"] { opacity: 1; transform: translateY(-10px); }
.tippy-popper[x-placement^="top"] [data-animation="shift-away"][data-state="hidden"] { opacity: 0; transform: translateY(0px); }
.tippy-popper[x-placement^="top"] [data-animation="scale"][data-state="visible"] { opacity: 1; transform: translateY(-10px) scale(1); }
.tippy-popper[x-placement^="top"] [data-animation="scale"][data-state="hidden"] { opacity: 0; transform: translateY(0px) scale(0); }
.tippy-popper[x-placement^="bottom"] .tippy-backdrop { border-radius: 0px 0px 30% 30%; }
.tippy-popper[x-placement^="bottom"] .tippy-roundarrow { width: 23px; height: 23px; fill: rgb(51, 51, 51); top: -15px; margin: 0px 6px; }
.tippy-popper[x-placement^="bottom"] .tippy-roundarrow svg { transform: rotate(0deg); }
.tippy-popper[x-placement^="bottom"] .tippy-arrow { border-bottom: 7px solid rgb(51, 51, 51); border-right: 7px solid transparent; border-left: 7px solid transparent; top: -7px; margin: 0px 7px; }
.tippy-popper[x-placement^="bottom"] .tippy-backdrop { transform-origin: 0px -100% 0px; }
.tippy-popper[x-placement^="bottom"] .tippy-backdrop[data-state="visible"] { transform: scale(5.5) translate(-50%, -125%); opacity: 1; }
.tippy-popper[x-placement^="bottom"] .tippy-backdrop[data-state="hidden"] { transform: scale(1) translate(-50%, -125%); opacity: 0; }
.tippy-popper[x-placement^="bottom"] [data-animation="shift-toward"][data-state="visible"] { opacity: 1; transform: translateY(10px); }
.tippy-popper[x-placement^="bottom"] [data-animation="shift-toward"][data-state="hidden"] { opacity: 0; transform: translateY(20px); }
.tippy-popper[x-placement^="bottom"] [data-animation="perspective"] { transform-origin: center top 0px; }
.tippy-popper[x-placement^="bottom"] [data-animation="perspective"][data-state="visible"] { opacity: 1; transform: translateY(10px) rotateX(0deg); }
.tippy-popper[x-placement^="bottom"] [data-animation="perspective"][data-state="hidden"] { opacity: 0; transform: translateY(0px) rotateX(-90deg); }
.tippy-popper[x-placement^="bottom"] [data-animation="fade"][data-state="visible"] { opacity: 1; transform: translateY(10px); }
.tippy-popper[x-placement^="bottom"] [data-animation="fade"][data-state="hidden"] { opacity: 0; transform: translateY(10px); }
.tippy-popper[x-placement^="bottom"] [data-animation="shift-away"][data-state="visible"] { opacity: 1; transform: translateY(10px); }
.tippy-popper[x-placement^="bottom"] [data-animation="shift-away"][data-state="hidden"] { opacity: 0; transform: translateY(0px); }
.tippy-popper[x-placement^="bottom"] [data-animation="scale"][data-state="visible"] { opacity: 1; transform: translateY(10px) scale(1); }
.tippy-popper[x-placement^="bottom"] [data-animation="scale"][data-state="hidden"] { opacity: 0; transform: translateY(0px) scale(0); }
.tippy-popper[x-placement^="left"] .tippy-backdrop { border-radius: 30% 0px 0px 30%; }
.tippy-popper[x-placement^="left"] .tippy-roundarrow { width: 23px; height: 23px; fill: rgb(51, 51, 51); right: -15px; margin: 4px 0px; }
.tippy-popper[x-placement^="left"] .tippy-roundarrow svg { transform: rotate(90deg); }
.tippy-popper[x-placement^="left"] .tippy-arrow { border-left: 7px solid rgb(51, 51, 51); border-top: 7px solid transparent; border-bottom: 7px solid transparent; right: -7px; margin: 4px 0px; }
.tippy-popper[x-placement^="left"] .tippy-backdrop { transform-origin: 100% 0px 0px; }
.tippy-popper[x-placement^="left"] .tippy-backdrop[data-state="visible"] { transform: scale(5.5) translate(33%, -50%); opacity: 1; }
.tippy-popper[x-placement^="left"] .tippy-backdrop[data-state="hidden"] { transform: scale(1.5) translate(33%, -50%); opacity: 0; }
.tippy-popper[x-placement^="left"] [data-animation="shift-toward"][data-state="visible"] { opacity: 1; transform: translateX(-10px); }
.tippy-popper[x-placement^="left"] [data-animation="shift-toward"][data-state="hidden"] { opacity: 0; transform: translateX(-20px); }
.tippy-popper[x-placement^="left"] [data-animation="perspective"] { transform-origin: right center 0px; }
.tippy-popper[x-placement^="left"] [data-animation="perspective"][data-state="visible"] { opacity: 1; transform: translateX(-10px) rotateY(0deg); }
.tippy-popper[x-placement^="left"] [data-animation="perspective"][data-state="hidden"] { opacity: 0; transform: translateX(0px) rotateY(-90deg); }
.tippy-popper[x-placement^="left"] [data-animation="fade"][data-state="visible"] { opacity: 1; transform: translateX(-10px); }
.tippy-popper[x-placement^="left"] [data-animation="fade"][data-state="hidden"] { opacity: 0; transform: translateX(-10px); }
.tippy-popper[x-placement^="left"] [data-animation="shift-away"][data-state="visible"] { opacity: 1; transform: translateX(-10px); }
.tippy-popper[x-placement^="left"] [data-animation="shift-away"][data-state="hidden"] { opacity: 0; transform: translateX(0px); }
.tippy-popper[x-placement^="left"] [data-animation="scale"][data-state="visible"] { opacity: 1; transform: translateX(-10px) scale(1); }
.tippy-popper[x-placement^="left"] [data-animation="scale"][data-state="hidden"] { opacity: 0; transform: translateX(0px) scale(0); }
.tippy-popper[x-placement^="right"] .tippy-backdrop { border-radius: 0px 30% 30% 0px; }
.tippy-popper[x-placement^="right"] .tippy-roundarrow { width: 23px; height: 23px; fill: rgb(51, 51, 51); left: -15px; margin: 4px 0px; }
.tippy-popper[x-placement^="right"] .tippy-roundarrow svg { transform: rotate(-90deg); }
.tippy-popper[x-placement^="right"] .tippy-arrow { border-right: 7px solid rgb(51, 51, 51); border-top: 7px solid transparent; border-bottom: 7px solid transparent; left: -7px; margin: 4px 0px; }
.tippy-popper[x-placement^="right"] .tippy-backdrop { transform-origin: -100% 0px 0px; }
.tippy-popper[x-placement^="right"] .tippy-backdrop[data-state="visible"] { transform: scale(5.5) translate(-133%, -50%); opacity: 1; }
.tippy-popper[x-placement^="right"] .tippy-backdrop[data-state="hidden"] { transform: scale(1.5) translate(-133%, -50%); opacity: 0; }
.tippy-popper[x-placement^="right"] [data-animation="shift-toward"][data-state="visible"] { opacity: 1; transform: translateX(10px); }
.tippy-popper[x-placement^="right"] [data-animation="shift-toward"][data-state="hidden"] { opacity: 0; transform: translateX(20px); }
.tippy-popper[x-placement^="right"] [data-animation="perspective"] { transform-origin: left center 0px; }
.tippy-popper[x-placement^="right"] [data-animation="perspective"][data-state="visible"] { opacity: 1; transform: translateX(10px) rotateY(0deg); }
.tippy-popper[x-placement^="right"] [data-animation="perspective"][data-state="hidden"] { opacity: 0; transform: translateX(0px) rotateY(90deg); }
.tippy-popper[x-placement^="right"] [data-animation="fade"][data-state="visible"] { opacity: 1; transform: translateX(10px); }
.tippy-popper[x-placement^="right"] [data-animation="fade"][data-state="hidden"] { opacity: 0; transform: translateX(10px); }
.tippy-popper[x-placement^="right"] [data-animation="shift-away"][data-state="visible"] { opacity: 1; transform: translateX(10px); }
.tippy-popper[x-placement^="right"] [data-animation="shift-away"][data-state="hidden"] { opacity: 0; transform: translateX(0px); }
.tippy-popper[x-placement^="right"] [data-animation="scale"][data-state="visible"] { opacity: 1; transform: translateX(10px) scale(1); }
.tippy-popper[x-placement^="right"] [data-animation="scale"][data-state="hidden"] { opacity: 0; transform: translateX(0px) scale(0); }
.tippy-tooltip { position: relative; color: rgb(255, 255, 255); border-radius: 4px; font-size: 0.9rem; padding: 0.3rem 0.6rem; text-align: center; will-change: transform; -moz-osx-font-smoothing: grayscale; background-color: rgb(51, 51, 51); }
.tippy-tooltip[data-size="small"] { padding: 0.2rem 0.4rem; font-size: 0.75rem; }
.tippy-tooltip[data-size="large"] { padding: 0.4rem 0.8rem; font-size: 1rem; }
.tippy-tooltip[data-animatefill] { overflow: hidden; background-color: transparent; }
.tippy-tooltip[data-animatefill] .tippy-content { transition: clip-path 0s cubic-bezier(0.46, 0.1, 0.52, 0.98) 0s, -webkit-clip-path 0s cubic-bezier(0.46, 0.1, 0.52, 0.98) 0s; }
.tippy-tooltip[data-interactive] { pointer-events: auto; }
.tippy-tooltip[data-inertia][data-state="visible"] { transition-timing-function: cubic-bezier(0.53, 2, 0.36, 0.85); }
.tippy-tooltip[data-inertia][data-state="hidden"] { transition-timing-function: ease; }
.tippy-arrow, .tippy-roundarrow { position: absolute; width: 0px; height: 0px; }
.tippy-backdrop { position: absolute; will-change: transform; background-color: rgb(51, 51, 51); border-radius: 50%; width: 26%; left: 50%; top: 50%; z-index: -1; transition: all 0s cubic-bezier(0.46, 0.1, 0.52, 0.98) 0s; backface-visibility: hidden; }
.tippy-backdrop::after { content: ""; float: left; padding-top: 100%; }
body:not(.tippy-touch) .tippy-tooltip[data-animatefill][data-state="visible"] .tippy-content { clip-path: ellipse(100% 100% at 50% 50%); }
body:not(.tippy-touch) .tippy-tooltip[data-animatefill][data-state="hidden"] .tippy-content { clip-path: ellipse(5% 50% at 50% 50%); }
body:not(.tippy-touch) .tippy-popper[x-placement="right"] .tippy-tooltip[data-animatefill][data-state="visible"] .tippy-content { clip-path: ellipse(135% 100% at 0px 50%); }
body:not(.tippy-touch) .tippy-popper[x-placement="right"] .tippy-tooltip[data-animatefill][data-state="hidden"] .tippy-content { clip-path: ellipse(25% 100% at 0px 50%); }
body:not(.tippy-touch) .tippy-popper[x-placement="left"] .tippy-tooltip[data-animatefill][data-state="visible"] .tippy-content { clip-path: ellipse(135% 100% at 100% 50%); }
body:not(.tippy-touch) .tippy-popper[x-placement="left"] .tippy-tooltip[data-animatefill][data-state="hidden"] .tippy-content { clip-path: ellipse(25% 100% at 100% 50%); }
html { box-sizing: border-box; }
*, ::before, ::after { box-sizing: inherit; }
html, body, h1, h2, h3, h4, h5, h6, p, ol, ul, li, dl, dt, dd, blockquote, address { margin: 0px; padding: 0px; }
.c2 { width: 16.6667%; }
.c3 { width: 25%; }
.c4 { width: 33.3333%; }
.c6 { width: 50%; }
.c12 { width: 100%; }
.mt0 { margin-top: 0px; }
.mr0 { margin-right: 0px; }
.mr1 { margin-right: 1rem; }
.mra { margin-right: auto; }
.mb0 { margin-bottom: 0px; }
.mb1 { margin-bottom: 1rem; }
.mb2 { margin-bottom: 2rem; }
.mb3 { margin-bottom: 3rem; }
.ml0 { margin-left: 0px; }
.ml1 { margin-left: 1rem; }
.mla { margin-left: auto; }
.mxa { margin-left: auto; margin-right: auto; }
.pt0 { padding-top: 0px; }
.pt3 { padding-top: 3rem; }
.pt5 { padding-top: 5rem; }
.pr0 { padding-right: 0px; }
.pr1 { padding-right: 1rem; }
.pr2 { padding-right: 2rem; }
.pb0 { padding-bottom: 0px; }
.pb5 { padding-bottom: 5rem; }
.pb7 { padding-bottom: 7rem; }
.pl0 { padding-left: 0px; }
.pl4 { padding-left: 4rem; }
.pl6 { padding-left: 6rem; }
.px1 { padding-left: 1rem; padding-right: 1rem; }
.px2 { padding-left: 2rem; padding-right: 2rem; }
.px4 { padding-left: 4rem; padding-right: 4rem; }
.py1 { padding-top: 1rem; padding-bottom: 1rem; }
.py3 { padding-top: 3rem; padding-bottom: 3rem; }
.py4 { padding-top: 4rem; padding-bottom: 4rem; }
.py5 { padding-top: 5rem; padding-bottom: 5rem; }
.op50 { opacity: 0.5; }
.x { display: flex; }
.xac { -moz-box-align: center; align-items: center; }
.xjb { -moz-box-pack: justify; justify-content: space-between; }
.xw { flex-wrap: wrap; }
.db { display: block; }
.dib { display: inline-block; }
.oh { overflow: hidden; }
.psa { position: absolute; }
.psr { position: relative; }
.t0 { top: 0px; }
.r0 { right: 0px; }
.b0 { bottom: 0px; }
.l0 { left: 0px; }
.z2 { z-index: 2; }
.w100 { width: 100%; }
.h100 { height: 100%; }
.vw100 { width: 100vw; }
.vh100 { height: 100vh; }
.tac { text-align: center; }
.curp { cursor: pointer; }
.bgc-light { background-color: rgb(29, 20, 44); }
.bgc-dark { background-color: rgb(22, 14, 35); }
.bgc-orange { background-color: rgb(219, 125, 62); }
.c-white { color: rgb(255, 255, 255); }
.c-orange { color: rgb(219, 125, 62); }
.mxa { margin: auto; }
.fsB { font-size: 2.2rem; }
.fsC { font-size: 0.9rem; }
.mw1-5 { max-width: 1.5rem; }
.mw6 { max-width: 6rem; }
.mw30 { max-width: 30rem; }
.mw40 { max-width: 40rem; }
.mw50 { max-width: 50rem; }
.mw80 { max-width: 80rem; }
body { font-feature-settings: "kern"; font-kerning: normal; font-family: "Maison Neue", "Helvetica", sans-serif; line-height: 1.5; -moz-osx-font-smoothing: grayscale; }
h1, h2, h3 { line-height: 1.3; font-weight: 400; }
a { text-decoration: none; color: inherit; }
.hiding { opacity: 0; transform: translateY(4rem); transition: opacity 0.3s ease-in-out 0s, transform 0.3s ease-in-out 0s; }
.ofc img { object-fit: cover; height: 100%; }
.hiding.active { opacity: 1; transform: translateY(0px); }
.btn { background-color: rgb(64, 48, 82); border-radius: 1rem; padding: 0.4rem 1.2rem 0.25rem; transition: background-color 0.3s ease-in-out 0s; }
.btn:hover { background-color: rgb(121, 79, 155); }
.btn:active { outline: blue dotted 1px; }
.ofc { object-fit: cover; }
figure { margin: 0px; padding: 0px; }
#platform { height: 50vw; }
#games .content { transform: translateX(-50%); top: 20%; left: 50%; }
.member-desc { opacity: 0; visibility: hidden; transition: opacity 0.3s ease-in-out 0s, visibility 0.3s ease-in-out 0s; }
.member:hover .member-desc { opacity: 1; visibility: visible; }
.member:hover .member-title { background-color: rgba(29, 20, 44, 0); }
a:not(.btn):hover, .hover-img:hover img, .hover:hover { opacity: 0.4; }
.hover-img img, .hover { transition: opacity 0.3s ease-in-out 0s; }
.member-title, .member-desc { background-color: rgba(29, 20, 44, 0.9); line-height: 1.2; }
.member-title { transition: background-color 0.1s ease-in-out 0s; }
.member-title p { font-size: 1.3rem; margin-bottom: 0px; }
svg path { transition: opacity 0.3s ease-in-out 0s; }
#intro { padding-bottom: 9vw; }
.c { top: 50%; left: 50%; transform: translate(-50%, -50%); }
.st0 { display: none; }
.st1 { display: inline; fill: rgb(30, 21, 45); }
.st2 { fill: rgb(58, 29, 79); }
.st3 { fill: rgb(46, 23, 66); }
.st4 { fill: rgb(76, 38, 95); }
.st5 { fill: rgb(231, 118, 41); }
.st6 { fill: rgb(255, 255, 255); }
.st0 { display: none; }
.st1 { display: inline; fill: rgb(30, 21, 45); }
.st2 { fill: rgb(58, 29, 79); }
.st3 { fill: rgb(46, 23, 66); }
.st4 { fill: rgb(76, 38, 95); }]]></style></defs>
          <g>
            <path fill="#E77629" d="M114,30H46c-1.1,0-2,0.9-2,2c0,1.1,0.9,2,2,2h7c1.1,0,2,0.9,2,2c0,1.1-0.9,2-2,2h-3c-1.1,0-2,0.9-2,2&#xA;c0,1.1,0.9,2,2,2h14c1.1,0,2-0.9,2-2c0-1.1-0.9-2-2-2h-3c-1.1,0-2-0.9-2-2c0-1.1,0.9-2,2-2h53c1.1,0,2-0.9,2-2&#xA;C116,30.9,115.1,30,114,30z"/>
            <path fill="#E77629" d="M112,38H72c-1.1,0-2,0.9-2,2c0,1.1,0.9,2,2,2h21c1.1,0,2,0.9,2,2c0,1.1-0.9,2-2,2H54c-1.1,0-2,0.9-2,2&#xA;c0,1.1,0.9,2,2,2h22c1.1,0,2,0.9,2,2c0,1.1-0.9,2-2,2h-8c-1.1,0-2,0.9-2,2c0,1.1,0.9,2,2,2h24c1.1,0,2-0.9,2-2c0-1.1-0.9-2-2-2h-8&#xA;c-1.1,0-2-0.9-2-2c0-1.1,0.9-2,2-2h23c1.1,0,2-0.9,2-2c0-1.1-0.9-2-2-2h-6c-1.1,0-2-0.9-2-2c0-1.1,0.9-2,2-2h11c1.1,0,2-0.9,2-2&#xA;C114,38.9,113.1,38,112,38z"/>
            <path fill="#E77629" d="M80,1C66.2,1,55,12.2,55,26h50C105,12.2,93.8,1,80,1z"/>
          </g>
          <path fill-rule="evenodd" clip-rule="evenodd" fill="#FFFFFF" d="M122.4,79.7c5.4,0,9.5,4.4,9.5,9.5c0,5.4-4.4,9.5-9.5,9.5&#xA;c-5.4,0-9.5-4.4-9.5-9.5C113,83.8,117.3,79.7,122.4,79.7z M37.3,79.7c5.4,0,9.5,4.4,9.5,9.5c0,5.4-4.4,9.5-9.5,9.5&#xA;c-5.4,0-9.5-4.4-9.5-9.5C27.9,83.8,32.2,79.7,37.3,79.7z M80.1,77.5c1,0,1.5,0.7,1.5,1.5v20.7c0,1-0.7,1.6-1.5,1.6&#xA;c-0.9,0-1.5-0.7-1.5-1.4v-21C78.7,78.2,79.2,77.5,80.1,77.5z M1.4,77.5c1,0,1.5,0.8,1.5,1.5v9h13.2v-9.3c0-0.8,0.9-1.3,1.4-1.3&#xA;c0.9,0,1.5,0.7,1.5,1.5v20.7c0,0.8-0.6,1.5-1.5,1.5c-0.7,0-1.5-0.6-1.4-1.4V91H3v8.7c0.1,0.8-0.6,1.5-1.5,1.5&#xA;c-0.7,0-1.5-0.6-1.5-1.4v-21C0,78.1,0.7,77.5,1.4,77.5z M56.2,77.4h9.5c2.9,0,6.7,2,6.7,6.5c0,3-1.6,5.3-5.7,6.3&#xA;c0.7,0.9,4.5,6.2,6.3,8.7c1.3,1.9-1.3,3.3-2.3,1.8c-1.6-2.3-7.6-10.6-8-11.1c-0.8-1.1,0-2.4,1-2.4h2.4c1.8,0,3.3-1.5,3.3-3.3&#xA;c0-2.2-1.5-3.5-3.8-3.6h-8V100c0,1-0.8,1.5-1.5,1.5c-0.6,0-1.4-0.5-1.4-1.4V78.7C54.7,78,55.7,77.4,56.2,77.4z M141.6,77.4&#xA;c0.5,0.1,1.1,0.5,1.7,0.8c3.1,1.9,6.4,4.4,9.3,7.9c1.7,2,3.3,4.5,4.4,6.5V78.9c0-1,0.7-1.5,1.4-1.5c1,0,1.5,0.8,1.5,1.5v20.9&#xA;c0,0.7-0.5,1.4-1.5,1.4c-1.4,0-1.6-1.5-1.9-2.4c-0.2-0.5-0.4-1.2-0.6-1.6c-0.5-1.2-1.3-2.3-1.8-3.5c-1.9-4.1-7-9.5-11.3-12.2v18.3&#xA;c0,1-0.6,1.7-1.5,1.7c-0.7,0-1.5-0.5-1.5-1.4V78.6C139.9,77.8,140.7,77.2,141.6,77.4z M89.7,77.2h16.1c1.4,0,2.2,1.5,1.3,2.6&#xA;c-0.6,0.8-1.2,1.6-1.8,2.3c-4.2,5.4-8.5,11-12.8,16.3h13.2c1.1,0,1.7,0.6,1.7,1.5c0,0.7-0.4,1.5-1.7,1.5H89.4c-1.1,0-2.1-1.2-1-2.6&#xA;c0.9-1.1,2.3-2.9,2.4-3c4-5.2,8.1-10.4,12.2-15.6H89.9c-1.1,0-1.8-0.6-1.8-1.5C88.1,78,88.6,77.2,89.7,77.2z M122.4,76.9&#xA;c7,0,12.3,5.6,12.3,12.3c0,7-5.6,12.3-12.3,12.3c-7,0-12.3-5.6-12.3-12.3C110.1,82.2,115.7,76.9,122.4,76.9z M37.3,76.9&#xA;c7,0,12.3,5.6,12.3,12.3c0,7-5.6,12.3-12.3,12.3c-7,0-12.3-5.6-12.3-12.3C25,82.2,30.6,76.9,37.3,76.9z"/>
        </svg>