<svg id="parity_brandmark" data-name="parity brandmark" xmlns="http://www.w3.org/2000/svg" viewBox="0 0 62 62"><defs><style>.cls-1{fill:#282828;}</style></defs><title>Brandmark 64px</title><g id="Master_Square" data-name="Master Square"><g id="Red"><g id="Path-2"><rect class="cls-1" x="-2.77" y="12.56" width="45.11" height="1" transform="translate(-3.91 12.48) rotate(-32.02)"/></g><g id="Path-2-2" data-name="Path-2"><rect class="cls-1" x="-0.55" y="16.12" width="45.12" height="1" transform="translate(-5.46 14.2) rotate(-32.03)"/></g><g id="Path-2-3" data-name="Path-2"><rect class="cls-1" x="1.68" y="19.68" width="45.11" height="1" transform="translate(-7.01 15.93) rotate(-32.03)"/></g><g id="Path-2-4" data-name="Path-2"><rect class="cls-1" x="3.9" y="23.23" width="45.12" height="1" transform="translate(-8.56 17.64) rotate(-32.03)"/></g><g id="Path-2-5" data-name="Path-2"><rect class="cls-1" x="6.13" y="26.79" width="45.11" height="1" transform="translate(-10.11 19.37) rotate(-32.03)"/></g><g id="Path-2-6" data-name="Path-2"><rect class="cls-1" x="8.35" y="30.35" width="45.11" height="1" transform="translate(-11.66 21.09) rotate(-32.03)"/></g><g id="Path-2-7" data-name="Path-2"><rect class="cls-1" x="10.57" y="33.91" width="45.12" height="1" transform="translate(-13.21 22.81) rotate(-32.03)"/></g><g id="Path-2-8" data-name="Path-2"><rect class="cls-1" x="12.8" y="37.47" width="45.11" height="1" transform="translate(-14.76 24.53) rotate(-32.03)"/></g><g id="Path-2-9" data-name="Path-2"><rect class="cls-1" x="15.02" y="41.03" width="45.11" height="1" transform="translate(-16.31 26.25) rotate(-32.03)"/></g><g id="Path-2-10" data-name="Path-2"><rect class="cls-1" x="17.25" y="44.59" width="45.11" height="1" transform="translate(-17.85 27.98) rotate(-32.03)"/></g><g id="Path-2-11" data-name="Path-2"><rect class="cls-1" x="19.47" y="48.15" width="45.11" height="1" transform="translate(-19.4 29.7) rotate(-32.03)"/></g></g></g><g id="_square_1" data-name="= square 1"><polygon class="cls-1" points="39.77 28.38 45.16 25.01 45.16 23.83 37.88 28.38 39.77 28.38"/><polygon class="cls-1" points="31.85 28.38 45.16 20.06 45.16 19.98 43.4 19.98 29.96 28.38 31.85 28.38"/><polygon class="cls-1" points="23.93 28.38 37.36 19.98 35.48 19.98 22.05 28.38 23.93 28.38"/><polygon class="cls-1" points="16.84 27.86 29.44 19.98 27.56 19.98 16.84 26.68 16.84 27.86"/><polygon class="cls-1" points="16.84 22.91 21.52 19.98 19.64 19.98 16.84 21.73 16.84 22.91"/></g><g id="_square_2" data-name="= square 2"><polygon class="cls-1" points="40.02 43.06 45.16 39.85 45.16 38.67 38.14 43.06 40.02 43.06"/><polygon class="cls-1" points="32.1 43.06 45.16 34.9 45.16 34.67 43.65 34.67 30.22 43.06 32.1 43.06"/><polygon class="cls-1" points="24.18 43.06 37.62 34.67 35.73 34.67 22.3 43.06 24.18 43.06"/><polygon class="cls-1" points="16.84 42.71 29.7 34.67 27.81 34.67 16.84 41.53 16.84 42.71"/><polygon class="cls-1" points="16.84 37.76 21.78 34.67 19.89 34.67 16.84 36.58 16.84 37.76"/></g></svg>