<svg xmlns="http://www.w3.org/2000/svg" height="200px" width="200px" viewBox="45 -5 25 197.46">
    <defs>
        <style>.cls-1{fill:#282828;}</style>
    </defs>
    <title>Asset 37</title>
    <g id="Layer_2" data-name="Layer 2">
        <g id="Layer_1-2" data-name="Layer 1">
            <polygon class="cls-1" points="0.73 108.2 2.44 110.61 4.53 109.3 1.66 107.62 0.73 108.2" />
            <polygon class="cls-1" points="16.68 116.45 9.68 120.82 11.38 123.23 19.55 118.13 16.68 116.45" />
            <polygon class="cls-1" points="31.7 125.28 18.62 133.45 20.33 135.86 34.57 126.96 31.7 125.28" />
            <polygon class="cls-1" points="46.72 134.11 27.57 146.08 29.27 148.49 49.59 135.79 46.72 134.11" />
            <polygon class="cls-1" points="56.54 6.54 59.39 4.76 56.54 0 56.54 0.47 56.09 0.74 52.74 6.31 56.54 3.94 56.54 6.54" />
            <polygon class="cls-1" points="56.54 24.75 67.32 18.02 63.54 11.7 56.54 16.08 56.54 18.68 38.51 29.95 35.16 35.51 56.54 22.15 56.54 24.75" />
            <polygon class="cls-1" points="56.54 42.97 75.25 31.28 71.47 24.96 56.54 34.29 56.54 36.9 20.93 59.14 17.59 64.71 56.54 40.37 56.54 42.97" />
            <polygon class="cls-1" points="56.54 61.19 83.19 44.54 79.41 38.22 56.54 52.51 56.54 55.11 3.35 88.35 0 93.92 56.54 58.59 56.54 61.19" />
            <polygon class="cls-1" points="56.54 79.4 56.54 81.57 67.87 74.49 65.85 73.58 91.12 57.79 87.34 51.48 57.78 69.95 56.54 69.39 56.54 70.72 8.8 100.56 15.92 104.78 56.54 79.4" />
            <polygon class="cls-1" points="72.71 76.67 56.54 86.77 56.54 88.94 23.74 109.43 30.86 113.66 56.54 97.62 56.54 99.79 84.82 82.12 82.8 81.21 99.05 71.05 95.27 64.74 74.73 77.58 72.71 76.67" />
            <polyline class="cls-1" points="113.35 94.96 111.14 91.26 108.62 92.83 106.6 91.92 56.54 123.2 56.54 125.37 53.63 127.19 56.54 128.92 113.35 94.96" />
            <polygon class="cls-1" points="56.54 146.19 36.51 158.71 38.21 161.12 56.54 149.66 56.54 152.26 100.17 125 111.07 109.51 56.54 143.59 56.54 146.19" />
            <polygon class="cls-1" points="56.54 164.4 45.45 171.33 47.16 173.74 56.54 167.88 56.54 170.48 77.29 157.52 88.19 142.03 56.54 161.8 56.54 164.4" />
            <polygon class="cls-1" points="56.54 182.62 54.39 183.96 56.1 186.37 56.54 186.09 56.54 186.99 65.31 174.54 56.54 180.01 56.54 182.62" />
            <polygon class="cls-1" points="89.66 84.29 56.54 104.99 56.54 107.16 38.69 118.31 45.81 122.54 56.54 115.84 56.54 118.01 101.77 89.75 99.75 88.83 106.98 84.31 103.2 78 91.68 85.2 89.66 84.29" />
        </g>
    </g>
</svg>
