<svg id="Layer_1" data-name="Layer 1" xmlns="http://www.w3.org/2000/svg" viewBox="0 0 277 277"><defs><style>.cls-1{fill:#282828;}</style></defs><title>Brandmark 21-line</title><rect class="cls-1" x="-14.93" y="52.92" width="200" height="1" transform="translate(-15.38 53.2) rotate(-32)"/><rect class="cls-1" x="-9.63" y="61.4" width="200" height="1" transform="translate(-19.07 57.29) rotate(-32)"/><rect class="cls-1" x="-4.33" y="69.88" width="200" height="1" transform="translate(-22.76 61.39) rotate(-32)"/><rect class="cls-1" x="0.97" y="78.36" width="200" height="1" transform="translate(-26.45 65.49) rotate(-32)"/><rect class="cls-1" x="6.27" y="86.84" width="200" height="1" transform="translate(-30.13 69.58) rotate(-32)"/><rect class="cls-1" x="11.57" y="95.32" width="200" height="1" transform="translate(-33.82 73.68) rotate(-32)"/><rect class="cls-1" x="16.86" y="103.8" width="200" height="1" transform="translate(-37.51 77.78) rotate(-32)"/><rect class="cls-1" x="22.16" y="112.28" width="200" height="1" transform="translate(-41.2 81.87) rotate(-32)"/><rect class="cls-1" x="27.46" y="120.76" width="200" height="1" transform="translate(-44.89 85.97) rotate(-32)"/><rect class="cls-1" x="32.76" y="129.24" width="200" height="1" transform="translate(-48.58 90.07) rotate(-32)"/><rect class="cls-1" x="38.06" y="137.72" width="200" height="1" transform="translate(-52.27 94.17) rotate(-32)"/><rect class="cls-1" x="43.36" y="146.2" width="200" height="1" transform="translate(-55.96 98.26) rotate(-32)"/><rect class="cls-1" x="48.66" y="154.68" width="200" height="1" transform="translate(-59.64 102.36) rotate(-32)"/><rect class="cls-1" x="53.96" y="163.16" width="200" height="1" transform="translate(-63.33 106.46) rotate(-32)"/><rect class="cls-1" x="59.26" y="171.64" width="200" height="1" transform="translate(-67.02 110.55) rotate(-32)"/><rect class="cls-1" x="64.56" y="180.12" width="200" height="1" transform="translate(-70.71 114.65) rotate(-32)"/><rect class="cls-1" x="69.86" y="188.6" width="200" height="1" transform="translate(-74.4 118.74) rotate(-32)"/><rect class="cls-1" x="75.16" y="197.08" width="200" height="1" transform="translate(-78.09 122.84) rotate(-32)"/><rect class="cls-1" x="80.46" y="205.56" width="200" height="1" transform="translate(-81.78 126.94) rotate(-32)"/><rect class="cls-1" x="85.76" y="214.04" width="200" height="1" transform="translate(-85.47 131.03) rotate(-32)"/><rect class="cls-1" x="91.05" y="222.53" width="200" height="1" transform="translate(-89.15 135.13) rotate(-32)"/><polygon class="cls-1" points="70.54 115.52 102.23 95.72 100.34 95.72 70.54 114.34 70.54 115.52"/><polygon class="cls-1" points="70.54 103.73 83.36 95.72 81.47 95.72 70.54 102.55 70.54 103.73"/><polygon class="cls-1" points="124.93 128.7 177.72 95.72 175.83 95.72 123.04 128.7 124.93 128.7"/><polygon class="cls-1" points="143.8 128.7 196.59 95.72 194.7 95.72 141.91 128.7 143.8 128.7"/><polygon class="cls-1" points="206.09 101.57 206.09 100.39 160.78 128.7 162.67 128.7 206.09 101.57"/><polygon class="cls-1" points="206.09 113.36 206.09 112.18 179.66 128.7 181.54 128.7 206.09 113.36"/><polygon class="cls-1" points="106.06 128.7 158.84 95.72 156.96 95.72 104.17 128.7 106.06 128.7"/><polygon class="cls-1" points="206.09 125.15 206.09 123.97 198.53 128.7 200.41 128.7 206.09 125.15"/><polygon class="cls-1" points="87.19 128.7 139.97 95.72 138.09 95.72 85.3 128.7 87.19 128.7"/><polygon class="cls-1" points="70.54 127.31 121.1 95.72 119.22 95.72 70.54 126.14 70.54 127.31"/><polygon class="cls-1" points="206.09 184.11 206.09 182.93 194.22 190.35 196.11 190.35 206.09 184.11"/><polygon class="cls-1" points="206.09 172.32 206.09 171.14 175.35 190.35 177.24 190.35 206.09 172.32"/><polygon class="cls-1" points="206.09 160.53 206.09 159.35 156.48 190.35 158.37 190.35 206.09 160.53"/><polygon class="cls-1" points="139.5 190.35 192.28 157.37 190.4 157.37 137.61 190.35 139.5 190.35"/><polygon class="cls-1" points="120.63 190.35 173.41 157.37 171.53 157.37 118.74 190.35 120.63 190.35"/><polygon class="cls-1" points="101.76 190.35 154.54 157.37 152.66 157.37 99.87 190.35 101.76 190.35"/><polygon class="cls-1" points="82.89 190.35 135.67 157.37 133.78 157.37 81 190.35 82.89 190.35"/><polygon class="cls-1" points="70.54 186.27 116.8 157.37 114.91 157.37 70.54 185.1 70.54 186.27"/><polygon class="cls-1" points="70.54 174.48 97.93 157.37 96.04 157.37 70.54 173.3 70.54 174.48"/><polygon class="cls-1" points="70.54 162.69 79.06 157.37 77.17 157.37 70.54 161.51 70.54 162.69"/></svg>