<svg width="123" height="38" viewBox="0 0 123 38" xmlns="http://www.w3.org/2000/svg"><path d="M64.824 9.548a2.48 2.48 0 01-2.498 2.472 2.48 2.48 0 01-2.498-2.472c0-1.37 1.076-2.473 2.498-2.473 1.422.038 2.498 1.141 2.498 2.473zM54.525 14.53v.608s-1.19-1.521-3.727-1.521c-4.188 0-7.454 3.157-7.454 7.531 0 4.336 3.227 7.532 7.454 7.532 2.575 0 3.727-1.56 3.727-1.56v.647c0 .304.231.532.538.532h3.113V13.998h-3.113a.547.547 0 00-.538.533zm0 9.167c-.576.837-1.729 1.56-3.112 1.56-2.46 0-4.342-1.522-4.342-4.109 0-2.586 1.883-4.108 4.342-4.108 1.345 0 2.574.76 3.112 1.56v5.097zm5.956-9.7h3.69V28.3h-3.69V13.998zm55.103-.38c-2.536 0-3.727 1.521-3.727 1.521V7.113h-3.69V28.3h3.113a.547.547 0 00.538-.532v-.647s1.191 1.56 3.727 1.56c4.189 0 7.455-3.196 7.455-7.532s-3.266-7.531-7.416-7.531zm-.615 11.601c-1.422 0-2.536-.723-3.112-1.56v-5.096c.576-.761 1.806-1.56 3.112-1.56 2.46 0 4.342 1.522 4.342 4.108 0 2.587-1.883 4.108-4.342 4.108zm-8.723-5.401v8.52h-3.688v-8.102c0-2.358-.769-3.31-2.844-3.31-1.114 0-2.267.571-2.997 1.408V28.3h-3.689V13.998h2.92c.308 0 .538.266.538.533v.608c1.076-1.103 2.498-1.521 3.92-1.521 1.614 0 2.958.456 4.034 1.369 1.307 1.065 1.806 2.434 1.806 4.83zm-22.171-6.2c-2.536 0-3.728 1.521-3.728 1.521V7.113H76.66V28.3h3.112a.547.547 0 00.538-.532v-.647s1.191 1.56 3.727 1.56c4.189 0 7.455-3.196 7.455-7.532.038-4.336-3.228-7.531-7.416-7.531zm-.615 11.601c-1.422 0-2.536-.723-3.113-1.56v-5.096c.577-.761 1.806-1.56 3.113-1.56 2.46 0 4.342 1.522 4.342 4.108 0 2.587-1.883 4.108-4.342 4.108zm-9.99-11.601c1.114 0 1.69.19 1.69.19v3.385s-3.074-1.027-4.995 1.141v10.004h-3.69v-14.34h3.113c.308 0 .538.266.538.533v.608c.692-.799 2.19-1.521 3.343-1.521zm-38.312 13.39c-.192-.456-.384-.95-.577-1.37-.307-.684-.614-1.33-.883-1.94l-.039-.037a395.247 395.247 0 00-8.488-17.194l-.115-.228c-.308-.57-.615-1.179-.922-1.788-.385-.684-.769-1.407-1.384-2.092C21.521.837 19.754 0 17.871 0c-1.921 0-3.65.837-4.918 2.282-.577.685-1 1.408-1.384 2.092a71.89 71.89 0 01-.922 1.788l-.115.228c-2.959 5.706-5.84 11.488-8.492 17.194L2 23.66c-.269.608-.576 1.255-.883 1.94a23.84 23.84 0 00-.577 1.369c-.5 1.407-.653 2.739-.46 4.108a8.099 8.099 0 004.994 6.314c1 .419 2.037.609 3.113.609a8.83 8.83 0 00.999-.076 10.223 10.223 0 003.843-1.293c1.575-.875 3.074-2.13 4.764-3.956 1.691 1.826 3.228 3.08 4.765 3.956a10.223 10.223 0 003.843 1.293A8.83 8.83 0 0027.4 38c1.076 0 2.152-.19 3.108-.609 2.69-1.065 4.573-3.5 4.996-6.314.307-1.331.153-2.663-.346-4.07zm-17.326 1.978c-2.075-2.587-3.42-5.021-3.881-7.075-.192-.875-.23-1.636-.116-2.32a3.668 3.668 0 01.615-1.598c.73-1.027 1.96-1.674 3.382-1.674 1.421 0 2.69.609 3.381 1.674.308.456.538.989.615 1.598.115.684.077 1.483-.115 2.32-.461 2.016-1.806 4.45-3.881 7.075zm15.328 1.788c-.27 1.978-1.614 3.69-3.493 4.45-.922.38-1.921.495-2.92.38-.961-.114-1.922-.418-2.92-.988-1.384-.761-2.768-1.94-4.381-3.69 2.536-3.081 4.073-5.896 4.65-8.406a9.44 9.44 0 00.191-3.234 6.137 6.137 0 00-1.037-2.586c-1.191-1.712-3.19-2.701-5.418-2.701-2.229 0-4.227 1.027-5.418 2.7a6.137 6.137 0 00-1.038 2.587 7.82 7.82 0 00.192 3.234c.577 2.51 2.152 5.363 4.65 8.444-1.576 1.75-2.997 2.929-4.38 3.69-1 .57-1.96.875-2.921.989a6.204 6.204 0 01-2.92-.38C4.115 34.5 2.77 32.788 2.5 30.81a6.238 6.238 0 01.346-2.967c.115-.38.307-.76.5-1.217.268-.609.576-1.256.883-1.902l.038-.076a414.078 414.078 0 018.454-17.08l.115-.228c.308-.57.615-1.179.923-1.75.307-.608.653-1.179 1.076-1.673.806-.913 1.882-1.407 3.074-1.407 1.19 0 2.267.494 3.074 1.407.422.494.768 1.065 1.076 1.674.307.57.614 1.179.922 1.75l.115.228a495.22 495.22 0 018.411 17.117v.038c.308.608.577 1.293.884 1.902.192.456.384.836.5 1.217.307.989.422 1.94.269 2.929z" fill="#ff1864" fill-rule="evenodd" opacity=".5"/></svg>