<svg width="95" height="49" viewBox="0 0 95 49" xmlns="http://www.w3.org/2000/svg"><path d="M92.779 46.589h.472l.651 1.749h.013l.625-1.749H95v2.124h-.306v-1.737h-.013l-.651 1.737h-.294l-.638-1.737h-.013v1.737h-.306v-2.124zm-.153 0v.25h-.74v1.874h-.307v-1.874h-.74v-.25h1.787zM95 15.197c0-1.112-.92-2.012-2.055-2.012-1.136 0-2.068.9-2.068 2.012v4.247c0 1.112.932 2.024 2.068 2.024 1.136 0 2.055-.912 2.055-2.024v-4.247zm-11.335-5.56c0-1.117-.92-2.022-2.093-2.022-1.137 0-2.056.905-2.056 2.023v9.806c0 1.112.92 2.024 2.056 2.024 1.174 0 2.093-.912 2.093-2.024V9.638zm-11.373-7.62C72.292.904 71.372 0 70.236 0 69.1 0 68.17.904 68.17 2.017v21.45c0 1.124.931 2.023 2.067 2.023 1.137 0 2.056-.9 2.056-2.024V2.017zM60.93 9.637c0-1.117-.919-2.022-2.068-2.022-1.136 0-2.055.905-2.055 2.023v9.806c0 1.112.92 2.024 2.055 2.024 1.149 0 2.068-.912 2.068-2.024V9.638zm-11.36 5.56c0-1.112-.932-2.012-2.068-2.012-1.137 0-2.068.9-2.068 2.012v4.247c0 1.112.931 2.024 2.068 2.024 1.136 0 2.067-.912 2.067-2.024v-4.247zm-11.348-5.56c0-1.117-.932-2.022-2.068-2.022-1.15 0-2.08.905-2.08 2.023v9.806c0 1.112.93 2.024 2.08 2.024 1.136 0 2.068-.912 2.068-2.024V9.638zm-11.361-7.62C26.862.904 25.93 0 24.794 0c-1.149 0-2.068.904-2.068 2.017v21.45c0 1.124.92 2.023 2.068 2.023 1.136 0 2.068-.9 2.068-2.024V2.017zm-11.36 7.62c0-1.117-.932-2.022-2.068-2.022-1.15 0-2.068.905-2.068 2.023v9.806c0 1.112.919 2.024 2.068 2.024 1.136 0 2.067-.912 2.067-2.024V9.638zm-11.366 5.56c0-1.112-.928-2.012-2.067-2.012-1.14 0-2.069.9-2.069 2.012v4.247c0 1.112.93 2.024 2.07 2.024 1.138 0 2.066-.912 2.066-2.024v-4.247zm42.703 21.036c-.064-.012-1.826-.487-3.268-.487-1.66 0-2.566.537-2.566 1.324 0 .974 1.226 1.324 1.902 1.537l1.15.35c2.705.849 3.943 2.66 3.943 4.621C48 47.638 44.35 49 41.158 49c-2.208 0-4.288-.387-4.493-.437V44.84c.37.1 2.12.612 3.932.612 2.068 0 3.025-.6 3.025-1.511 0-.825-.817-1.3-1.85-1.612-.256-.087-.639-.2-.894-.287-2.324-.712-4.251-2.049-4.251-4.722 0-3.023 2.31-5.047 6.153-5.047 2.016 0 3.931.475 4.059.512v3.448zm30.89.163c-2.476 0-4.301 1.898-4.301 4.247 0 2.348 1.825 4.247 4.301 4.247 2.477 0 4.315-1.899 4.315-4.247 0-2.349-1.838-4.247-4.315-4.247zm8.719 4.247c0 4.622-3.638 8.357-8.719 8.357-5.08 0-8.718-3.735-8.718-8.357s3.638-8.37 8.718-8.37 8.719 3.748 8.719 8.37zm-65.305-3.448c-.165-.087-1.506-.862-3.497-.862-2.706 0-4.57 1.836-4.57 4.31 0 2.398 1.787 4.31 4.57 4.31 1.953 0 3.319-.762 3.497-.862v4.334c-.523.15-1.94.575-3.803.575-4.685 0-8.786-3.16-8.786-8.357 0-4.835 3.718-8.37 8.786-8.37 1.965 0 3.408.462 3.803.587v4.335zm43.477 0c-.166-.087-1.506-.862-3.498-.862-2.693 0-4.557 1.836-4.557 4.31 0 2.398 1.788 4.31 4.557 4.31 1.953 0 3.32-.762 3.498-.862v4.334c-.51.15-1.94.575-3.791.575-4.685 0-8.795-3.16-8.795-8.357 0-4.835 3.715-8.37 8.795-8.37 1.953 0 3.408.462 3.791.587v4.335zM31.036 48.713h-4.161V32.56h4.161v16.153z" fill="#ff1864" fill-rule="evenodd" opacity=".5"/></svg>