<svg width="80" height="38" viewBox="0 0 80 38" xmlns="http://www.w3.org/2000/svg"><path d="M32.93.02c-3.318.23-6.126 3.017-6.126 6.942V25.64c0 .676-.5 1.259-1.233 1.259h-5.838c-12.641.018-11.52-16.125-.76-16.143h6.468V6.064h-6.69c-4.292 0-7.47 1.601-9.611 3.98-2.15 2.388-3.225 5.59-3.225 8.793-.01 3.203 1.056 6.387 3.252 8.775 2.197 2.38 5.515 3.98 10.065 3.98h11.02c.722 0 1.325-.629 1.325-1.35V7.461c-.01-1.176.658-2.083 1.52-2.352.861-.268 1.872.074 2.465.926l.027.028c3.133 5.119 15.57 25.047 15.589 25.084.343.482.75.574 1.047.472.296-.101.593-.416.593-1.212V7.462c-.01-1.176.658-2.083 1.52-2.352.862-.268 1.853.074 2.447.926v.028h.046c3.132 5.119 15.57 25.047 15.588 25.084.334.482.732.574 1.047.472.315-.101.621-.398.621-1.184V.14h-4.726v17.68s-2.818-4.805-7.637-13.09C56.998-3.377 48.073-.017 48.073 6.963V17.82s-2.771-4.804-7.6-13.088C38.399 1.186 35.516-.175 32.93.019zM19.575.14c-26.283 0-26.033 37.414.352 37.432h10.324c4.44 0 7.266-2.62 7.266-7.47v-9.487s5.792 9.57 8.072 13.32c3.865 6.377 13.197 5.118 13.17-2.842V20.615s5.773 9.57 8.044 13.32c3.864 6.377 13.225 5.118 13.197-2.842V.13h-4.727v30.295c.01 1.167-.602 2.027-1.445 2.296-.844.278-1.807-.074-2.4-.898h-.02v-.046S58.963 11.905 55.794 6.72c-.01-.01-.019.01-.028 0-.01 0 .01-.028 0-.028-.324-.435-.75-.527-1.093-.426-.353.112-.696.417-.686 1.185V30.4c.009 1.157-.593 2.064-1.427 2.35-.835.278-1.79-.092-2.373-.925v-.028h-.028S37.703 11.886 34.542 6.712c-.333-.472-.76-.583-1.112-.472-.352.11-.695.416-.686 1.184v22.808c0 1.38-1.14 2.536-2.52 2.536h-11.01c-4.838 0-8.499-1.74-10.918-4.36-2.419-2.619-3.614-6.1-3.614-9.58.01-3.47 1.195-6.979 3.559-9.599 2.363-2.62 5.903-4.36 10.49-4.36h6.692V.132L19.575.14z" fill="#ff1864" fill-rule="evenodd" opacity=".5"/></svg>