<svg width="110" height="35" viewBox="0 0 110 35" xmlns="http://www.w3.org/2000/svg"><path d="M14.124 27.152c4.142 0 7.263-1.321 9.707-3.805 2.515-2.456 3.296-5.894 3.296-8.675 0-.864-.068-1.656-.204-2.321H14.124v3.709h9.098c-.271 2.086-.987 3.609-2.07 4.668-1.325 1.29-3.394 2.716-7.028 2.716-5.601 0-9.981-4.404-9.981-9.868 0-5.463 4.38-9.87 9.981-9.87 3.02 0 5.23 1.162 6.857 2.652l2.683-2.616C21.387 1.625 18.368 0 14.124 0 6.45 0 0 6.09 0 13.576c0 7.484 6.45 13.576 14.124 13.576zm23.36 0c4.954 0 8.994-3.708 8.994-8.744 0-5.064-4.04-8.74-8.994-8.74-4.962 0-9.002 3.676-9.002 8.74 0 5.036 4.04 8.744 9.002 8.744zm0-3.443c-2.719 0-5.064-2.186-5.064-5.301 0-3.143 2.345-5.293 5.064-5.293 2.714 0 5.056 2.15 5.056 5.293 0 3.115-2.342 5.3-5.056 5.3zm19.62 3.443c4.958 0 8.998-3.708 8.998-8.744 0-5.064-4.04-8.74-8.997-8.74-4.96 0-9 3.676-9 8.74 0 5.036 4.04 8.744 9 8.744zm0-3.443c-2.715 0-5.06-2.186-5.06-5.301 0-3.143 2.345-5.293 5.06-5.293 2.717 0 5.06 2.15 5.06 5.293 0 3.115-2.343 5.3-5.06 5.3zM76.39 35c4.614 0 8.524-2.646 8.524-9.106V10.199h-3.737v1.424h-.136c-.885-1.027-2.583-1.954-4.716-1.954-4.484 0-8.59 3.84-8.59 8.775 0 4.903 4.106 8.708 8.59 8.708 2.133 0 3.83-.927 4.716-1.986h.136v1.258c0 3.347-1.833 5.132-4.787 5.132-2.408 0-3.904-1.686-4.518-3.115l-3.427 1.393c.988 2.321 3.6 5.166 7.945 5.166zm.269-11.291c-2.714 0-4.991-2.216-4.991-5.265 0-3.08 2.277-5.329 4.99-5.329 2.686 0 4.79 2.25 4.79 5.329 0 3.049-2.104 5.265-4.79 5.265zM91.565.927h-3.938v25.696h3.938V.927zm10.796 26.225c4.105 0 6.485-2.447 7.47-3.874l-3.06-1.984c-1.015 1.452-2.407 2.415-4.41 2.415s-3.432-.894-4.346-2.65L110 16.223l-.407-.99c-.747-1.954-3.025-5.563-7.673-5.563-4.618 0-8.454 3.546-8.454 8.739 0 4.903 3.803 8.744 8.895 8.744zm-4.99-9.006c-.102-3.375 2.681-5.1 4.685-5.1 1.561 0 2.885.762 3.33 1.855l-8.016 3.245z" fill="#ff1864" fill-rule="evenodd" opacity=".5"/></svg>