<svg width="159" height="22" viewBox="0 0 159 22" xmlns="http://www.w3.org/2000/svg"><path d="M62.05 19.253l-13.802-.01v-6.118c0-.817.696-1.511 1.521-1.511h12.28c2.141 0 3.869 1.709 3.869 3.81 0 2.125-1.728 3.834-3.868 3.834v-.005zM48.248 2.329l13.864.015c1.944 0 3.518 1.555 3.518 3.475 0 1.91-1.574 3.462-3.518 3.462H49.558a4.142 4.142 0 00-1.31.307v-7.26zm17.406 8.096c1.406-1.058 2.332-2.725 2.332-4.616 0-3.196-2.635-5.8-5.879-5.8L45.75 0v21.57h16.3c3.437 0 6.22-2.751 6.22-6.151 0-2.06-1.032-3.878-2.615-4.994zm72.638.38c-.528 0-1.027.106-1.488.29l-.048-8.767 13.702-.005c2.375 0 4.3 1.89 4.3 4.24 0 2.346-1.925 4.25-4.3 4.25l-12.19-.01.024.002zm19.153 8.447c-.6.477-1.454.38-1.977-.165l-4.785-5.992c3.576-.109 6.431-2.995 6.431-6.537 0-3.626-2.975-6.558-6.647-6.558H134.28v21.572h2.5l.048-7.028c.048-.783.701-1.436 1.512-1.436h9.21l5.98 7.494c1.376 1.605 3.79 1.873 5.47.57l-1.53-1.92h-.025zm-64.134-.15v-5.886c0-.808.696-1.473 1.507-1.488h10.87v-2.48h-10.91a3.986 3.986 0 00-1.468.312V2.469h17.747V0H90.79v21.57h21v-2.467H93.31zM20.816.052v12.566c0 4.3-2.102 6.841-8.416 6.841-6.332 0-8.446-2.541-8.446-6.84V3.784C3.874 1.692 2.134.01 0 .01v2.438c.774 0 1.389.593 1.462 1.337v9.691c0 4.981 3.959 8.522 10.938 8.522 6.968 0 10.912-3.54 10.912-8.522V.054h-2.496V.053z" fill="#ff1864" fill-rule="evenodd" opacity=".5"/></svg>