<svg width="94" height="94" viewBox="0 0 94 32" xmlns="http://www.w3.org/2000/svg" xmlns:xlink="http://www.w3.org/1999/xlink"><defs><path id="a" d="M0 0h28.397v22.876H0z"/></defs><g fill="none" fill-rule="evenodd"><path d="M0 32h96V0H0z"/><mask id="b" fill="#fff"><use xlink:href="#a"/></mask><path d="M3.325 22.027a14.016 14.016 0 01-1.315-5.948c0-7.77 6.299-14.07 14.07-14.07a14.04 14.04 0 0110.777 5.027l1.54-1.292A16.045 16.045 0 0016.079 0C7.2 0 0 7.199 0 16.08c0 2.428.539 4.732 1.503 6.796l1.822-.85z" fill="#000" mask="url(#b)"/><path d="M16.08 25.626a9.547 9.547 0 117.313-15.684l1.54-1.291a11.532 11.532 0 00-8.854-4.129c-6.382 0-11.557 5.175-11.557 11.557 0 6.383 5.175 11.557 11.557 11.557v-2.01z" fill="#000"/><path d="M19.543 18.986a4.522 4.522 0 110-5.814l1.733-1.453a6.783 6.783 0 10-.325 9.08l-1.408-1.813zm12.228-5.108h2.067v1.396h.036c.193-.435.528-.819 1.006-1.151.477-.332 1.042-.499 1.695-.499.568 0 1.054.1 1.459.3.405.199.737.462.997.788s.45.701.571 1.124c.12.423.181.858.181 1.305v5.438h-2.175v-4.822c0-.253-.018-.52-.054-.797a2.16 2.16 0 00-.236-.752 1.566 1.566 0 00-.499-.553c-.211-.145-.492-.218-.842-.218-.351 0-.653.07-.907.209a1.923 1.923 0 00-.625.534 2.367 2.367 0 00-.372.753 3.002 3.002 0 00-.127.86v4.786h-2.175v-8.7zm8.937 1.74v-1.74h1.522v-2.52h2.14v2.52h2.175v1.74h-2.176v4.043c0 .387.07.707.209.96.139.254.45.381.933.381.145 0 .302-.015.472-.045.169-.03.32-.075.453-.136l.072 1.704c-.193.072-.423.13-.688.172-.266.042-.52.064-.762.064-.58 0-1.051-.082-1.414-.245a2.141 2.141 0 01-.86-.67 2.478 2.478 0 01-.436-.98 5.674 5.674 0 01-.118-1.187v-4.06h-1.522zm7.142-1.74h2.085v1.45h.036c.241-.507.58-.918 1.015-1.232.435-.314.943-.472 1.523-.472.084 0 .175.003.272.01a.97.97 0 01.253.045v1.994a2.59 2.59 0 00-.67-.09c-.496 0-.895.09-1.197.27a2.172 2.172 0 00-.707.654 2.317 2.317 0 00-.344.78c-.06.265-.09.477-.09.633v4.66H47.85v-8.702zm6.181 8.702h2.175v-8.702h-2.175v8.701zm-.308-11.657c0-.35.13-.655.39-.915s.589-.39.988-.39c.398 0 .734.124 1.006.372s.408.559.408.933c0 .375-.136.686-.408.934a1.438 1.438 0 01-1.006.372c-.4 0-.729-.13-.988-.39-.26-.26-.39-.565-.39-.916zm5.294 4.695h-1.65v-1.74h1.65v-.65c0-.52.057-1.019.172-1.496.115-.477.308-.897.58-1.26.272-.363.631-.65 1.078-.861.447-.211 1.01-.317 1.686-.317.242 0 .444.009.608.027.163.018.329.051.498.1l-.145 1.849a3.427 3.427 0 00-.39-.091 2.607 2.607 0 00-.444-.036c-.314 0-.568.06-.761.181-.194.12-.342.278-.444.471a2.009 2.009 0 00-.209.635c-.036.23-.054.453-.054.67v.778h2.012v1.74h-2.012v6.961h-2.175v-6.96zm13.287 6.962h-2.066v-1.397h-.036c-.194.436-.53.82-1.007 1.151-.477.333-1.042.5-1.694.5-.569 0-1.055-.1-1.46-.3a2.876 2.876 0 01-.997-.789c-.26-.326-.45-.7-.57-1.123a4.726 4.726 0 01-.182-1.306v-5.438h2.175V18.7c0 .254.018.52.055.798.036.278.114.528.235.752.12.224.287.408.499.553.211.145.492.217.843.217a1.873 1.873 0 001.532-.743 2.35 2.35 0 00.371-.752c.085-.284.127-.571.127-.861v-4.786h2.175v8.701zm-47.792-6.735c.453-.393 1.006-.59 1.659-.59.35 0 .655.058.915.173.26.115.474.269.644.462.169.194.293.417.371.67.079.255.118.52.118.799h-4.46c.05-.617.3-1.121.753-1.514zm4.034 4.088a2.58 2.58 0 01-.925.824c-.375.2-.834.3-1.378.3-.314 0-.616-.055-.906-.164a2.745 2.745 0 01-.78-.444 2.151 2.151 0 01-.798-1.532h6.617a2.34 2.34 0 00.019-.29v-.29c0-.785-.106-1.47-.318-2.057-.211-.586-.504-1.076-.879-1.468a3.64 3.64 0 00-1.332-.889 4.606 4.606 0 00-1.677-.299c-.653 0-1.26.112-1.822.336a4.341 4.341 0 00-1.46.942 4.355 4.355 0 00-.969 1.469 4.992 4.992 0 00-.353 1.912c0 .713.117 1.35.353 1.912.236.562.562 1.037.979 1.424.417.386.91.686 1.477.897.568.211 1.19.317 1.867.317 1.461 0 2.612-.465 3.452-1.396l-1.167-1.504zm58.662-4.088c.454-.393 1.007-.59 1.66-.59.35 0 .655.058.915.173.26.115.474.269.643.462.17.194.293.417.372.67.078.255.118.52.118.799h-4.46a2.15 2.15 0 01.752-1.514zm4.034 4.088a2.58 2.58 0 01-.925.824c-.374.2-.834.3-1.377.3a2.56 2.56 0 01-.907-.164 2.745 2.745 0 01-.78-.444 2.151 2.151 0 01-.798-1.532h6.618a2.38 2.38 0 00.018-.29v-.29c0-.785-.106-1.47-.317-2.057-.212-.586-.505-1.076-.88-1.468a3.64 3.64 0 00-1.332-.889 4.606 4.606 0 00-1.677-.299 4.87 4.87 0 00-1.821.336 4.34 4.34 0 00-1.46.942 4.355 4.355 0 00-.97 1.469 4.992 4.992 0 00-.353 1.912c0 .713.118 1.35.353 1.912.236.562.562 1.037.98 1.424.416.386.909.686 1.477.897.568.211 1.19.317 1.867.317 1.46 0 2.611-.465 3.452-1.396l-1.168-1.504zm-10.546-.729a2.719 2.719 0 01-.517.877 2.493 2.493 0 01-.816.605c-.32.15-.68.226-1.078.226-.387 0-.734-.079-1.042-.235a2.39 2.39 0 01-.78-.624 3.012 3.012 0 01-.662-1.888c0-.385.058-.746.173-1.084.114-.337.278-.63.489-.876a2.29 2.29 0 01.78-.587 2.472 2.472 0 011.06-.217 2.407 2.407 0 011.876.813 2.7 2.7 0 01.517.885 3.143 3.143 0 010 2.105zm.181-5.326v1.305h-.036a2.91 2.91 0 00-1.269-1.178 3.946 3.946 0 00-1.722-.38c-.653 0-1.242.12-1.768.362a4.056 4.056 0 00-1.341.979 4.34 4.34 0 00-.852 1.45 5.223 5.223 0 00-.3 1.776c0 .617.103 1.2.309 1.75.205.55.492 1.03.861 1.44.369.412.819.738 1.35.98a4.245 4.245 0 001.777.362 3.87 3.87 0 001.64-.338c.49-.226.892-.553 1.206-.98h.036v.637c0 .436-.045.837-.136 1.2-.09.364-.242.68-.453.946a2.124 2.124 0 01-.852.628c-.356.152-.795.228-1.314.228a4.337 4.337 0 01-1.613-.318 4.484 4.484 0 01-1.4-.884l-1.284 1.655c.278.23.592.435.942.616s.716.332 1.097.453a7.723 7.723 0 002.275.363c.846 0 1.577-.121 2.194-.363a4.051 4.051 0 001.531-1.024c.405-.441.704-.979.898-1.613.193-.635.29-1.345.29-2.13v-7.922h-2.067z" fill="#000"/></g></svg>