<svg id="Layer_1" data-name="Layer 1" xmlns="http://www.w3.org/2000/svg" viewBox="-3 0 100 100"><defs><style>.cls-2{fill:#00e874}</style></defs><path d="M47 42.88a9.85 9.85 0 01-5.44-1.64L12.05 22.56s-3-1.64-3-4.24S12.46 14 12.46 14L32.33 2.35c.23-.14.47-.27.71-.4a18.72 18.72 0 012-.85 18.15 18.15 0 013-.88A9.89 9.89 0 0140.82 0a8.73 8.73 0 012.74.74 11.82 11.82 0 002.87.77s.28 0 .58.06zm-4.84 7.95A9.9 9.9 0 0038 46.91L7.23 30.47S4.3 28.66 2.07 30s-2 5.16-2 5.16L0 58.28a7.48 7.48 0 000 .82 19.19 19.19 0 00.24 2.14 19.51 19.51 0 00.72 3 10.42 10.42 0 001.28 2.59 8.57 8.57 0 002 2A12 12 0 016.36 71s.18.22.35.47z" fill="#00bf74"/><path class="cls-2" d="M47 42.88a9.85 9.85 0 005.44-1.64L82 22.56s3-1.64 3-4.24S81.56 14 81.56 14L61.69 2.35c-.23-.14-.47-.27-.71-.4a17.84 17.84 0 00-2-.85 18.15 18.15 0 00-3-.88A9.89 9.89 0 0053.2 0a8.73 8.73 0 00-2.74.74 11.7 11.7 0 01-2.87.77s-.28 0-.58.06zm4.86 7.95A9.9 9.9 0 0156 46.91l30.8-16.44s2.92-1.81 5.2-.47 2 5.16 2 5.16v23.12a7.48 7.48 0 010 .82 17.09 17.09 0 01-.24 2.14 19.51 19.51 0 01-.72 3 10.42 10.42 0 01-1.28 2.59 8.57 8.57 0 01-2 2 12 12 0 00-2.1 2.17s-.18.22-.35.47z"/><path d="M42.16 50.83a10.05 10.05 0 011.31 5.57l-1.29 35.11s.1 3.46-2.13 4.76-5.43-.84-5.43-.84L14.69 83.92c-.24-.13-.48-.28-.71-.43a19 19 0 01-1.71-1.28A18.8 18.8 0 0110 80.07a10.17 10.17 0 01-1.59-2.41 8.77 8.77 0 01-.73-2.76 11.55 11.55 0 00-.74-2.9s-.1-.27-.23-.54zm9.7 0a10.05 10.05 0 00-1.31 5.57l1.29 35.11S51.74 95 54 96.27s5.43-.84 5.43-.84l19.9-11.51c.25-.13.48-.28.71-.43a17.7 17.7 0 001.71-1.28A18.8 18.8 0 0084 80.07a10.17 10.17 0 001.59-2.41 8.51 8.51 0 00.73-2.76 12 12 0 01.76-2.9s.1-.27.23-.54z" fill="#00a774"/><path class="cls-2" d="M412.05 33.37l3.65-7c.73-1.31.07-2.37-1.42-2.37h-14.07a11.47 11.47 0 00-8.21 4.87 39.46 39.46 0 00-4 6c-.89-7.84-4.14-10-7.95-10.1a6.09 6.09 0 00-.74 0c-2.62 0-2.89.27-2.89 2.89v50.78c0 2 .39 2.38 2.37 2.39h7.44c2.25 0 2.65-.4 2.65-2.65V48.83a21.91 21.91 0 01.38-4 11.12 11.12 0 014.94-7.6 14.88 14.88 0 016.85-1.83 43 43 0 017.35 0 3.7 3.7 0 003.65-2.03zM226.83 81.76c-15.66.25-29.41-13.1-29.23-29.5a29.3 29.3 0 0129.66-28.83c16.06.21 29.26 13.12 29.22 29.2a29.37 29.37 0 01-29.65 29.13zm16.87-28.69a18 18 0 00-1.55-8 16.59 16.59 0 00-26.27-5.55 18.32 18.32 0 00-3.79 21 16.35 16.35 0 0022.47 7.66c6-3.18 8.81-8.43 9.14-15.11zm83.9 42.16c-.7 1.88-.09 2.71 1.86 2.74h8.11a2.65 2.65 0 002.71-1.91q6.06-15.06 12.14-30.14 5.15-12.83 10.28-25.66c1.78-4.43 3.57-8.86 5.33-13.31.75-1.9.16-2.82-1.85-2.85h-2.73c-8.08 0-10 5.2-10.66 6.84q-1.92 5.08-3.85 10.18-3.48 9.29-7 18.57c-.21.58-.51 1.13-.76 1.69h-.36q-2.79-7.48-5.57-15-3.81-10.27-7.6-20.54a2.29 2.29 0 00-2.18-1.7c-2.83 0-5.67-.08-8.49 0-1.82.07-2.4 1.09-1.74 2.8 1 2.55 2 5.08 3.05 7.61 4.89 12 9.69 24.08 14.75 36 1.51 3.54 2.67 4.81.9 8.46zM146.23 82c-12.76-.36-23.44-7.75-27.49-19.77a28.13 28.13 0 013.87-26.48c4.46-6.26 10.5-10.48 18.08-11.7 8.76-1.41 16.14.8 23.29 6.5 1.09.87 1 2.09.17 3.28-4.5 7.09-12.92 1.71-16.62 1.32-7.8-.81-13.26 3.4-16.23 9.52-4 8.15-1.59 19.21 7.59 23.84A16.05 16.05 0 00150 69.88c2.17-.49 9.7-3.66 14.63 2.69a1.84 1.84 0 01-.5 2.61 27.82 27.82 0 01-17.9 6.82zm138.84-1.2a2.77 2.77 0 003-2.08c1.19-2.88 2.4-5.75 3.6-8.62q5.16-12.34 10.33-24.69 4-9.51 7.88-19c.67-1.63.15-2.37-1.59-2.39h-3.14a11 11 0 00-11.08 8c-.24.69-.49 1.38-.74 2.06q-4 11.14-8.05 22.28c-.63 1.74-1.27 3.48-2 5.5-.27.1-.47-.56-.52-.71l-6-16.5c-2.23-6.17-4.49-12.35-6.71-18.53a2.85 2.85 0 00-3-2.07h-7.73c-2.58 0-3.19 1.07-2.26 3.33Q261.51 38.16 266 49q3.88 9.41 7.74 18.82c1.49 3.63 3 7.25 4.48 10.89a3.09 3.09 0 003.25 2.13zM175.71 44.2v-31c0-2.58 5.88-4 10.47-3.85 1.78 0 2.29.53 2.37 2.31V78.9a1.79 1.79 0 01-2 1.89h-8.88c-1.32 0-1.93-.71-1.94-2.17V66.55z"/></svg>