<svg xmlns="http://www.w3.org/2000/svg" width="126.665" height="126.665" viewBox="0 0 33.513 33.513"><defs><clipPath id="a" clipPathUnits="userSpaceOnUse"><path d="M117.923 209.071l-24.478-41.3 21.157-35.698c.091.001 8.566.078 8.991.132 1.368.169 2.661.622 3.832 1.588 2.48 2.045 2.762 4.859 2.076 7.7-.461 1.908-.21 3.349.992 4.78.934 1.115.335 2.182-.448 3.353 2.264 1.203 2.32 2.961 1.614 5.057-.575 1.709-.218 2.111 1.387 2.65.982.33 1.959.81 2.799 1.424 1.378 1.006 1.709 2.685.795 4.159-2.021 3.255-4.008 6.545-6.256 9.631-1.49 2.045-1.954 3.931-.763 6.226 1.045 2.016.791 4.2.212 6.233-1.166 4.11-2.511 8.17-3.867 12.22-.682 2.035-2.679 6.236-4.207 8.469-1.409 2.06-3.481 3.21-3.793 3.376z"/></clipPath><clipPath id="b" clipPathUnits="userSpaceOnUse"><path d="M0 0h284v284H0z"/></clipPath><clipPath id="c" clipPathUnits="userSpaceOnUse"><path d="M164.324 209.071c-.312-.166-2.383-1.316-3.794-3.376-1.527-2.233-3.524-6.434-4.205-8.469-1.358-4.05-2.701-8.11-3.869-12.22-.577-2.033-.832-4.217.213-6.233 1.19-2.295.727-4.181-.763-6.226-2.249-3.086-4.236-6.376-6.255-9.631-.916-1.474-.584-3.153.794-4.159a10.413 10.413 0 012.799-1.424c1.604-.539 1.962-.941 1.387-2.65-.706-2.096-.65-3.854 1.615-5.057-.785-1.171-1.383-2.238-.448-3.353 1.201-1.431 1.451-2.872.991-4.78-.685-2.841-.405-5.655 2.076-7.7 1.172-.966 2.465-1.419 3.833-1.588.426-.054 8.898-.131 8.991-.132l21.155 35.698-24.476 41.3z"/></clipPath><clipPath id="d" clipPathUnits="userSpaceOnUse"><path d="M0 0h284v284H0z"/></clipPath></defs><g clip-path="url(#a)" transform="matrix(.35278 0 0 -.35278 -33.036 76.93)"><g clip-path="url(#b)" fill="none" stroke="#231f20" stroke-width="1.1" stroke-miterlimit="10"><path d="M113.399 132.024c.09 0 8.344.078 8.759.13 1.332.17 2.593.624 3.733 1.59 2.417 2.045 2.69 4.859 2.023 7.7-.45 1.908-.204 3.349.965 4.78.912 1.114.329 2.18-.436 3.352 2.206 1.204 2.26 2.96 1.573 5.057-.56 1.708-.212 2.11 1.35 2.65.958.33 1.91.81 2.728 1.425 1.342 1.006 1.665 2.684.774 4.159-1.967 3.254-3.904 6.545-6.093 9.63-1.452 2.046-1.904 3.932-.745 6.226 1.018 2.017.77 4.199.208 6.234-1.138 4.11-2.446 8.17-3.77 12.219-.663 2.036-2.608 6.237-4.095 8.469-1.374 2.06-3.393 3.21-3.697 3.376"/><path d="M110.905 131.243c.07.001 4.772.407 6.174.96.554.062 1.02.154 1.275.232 1.12.345 2.324.784 3.237 1.581 3.175 2.776 2.6 6.124 2.645 8.232.027 1.281.262 2.744 1.07 4.306.53 1.023.36 2.037.079 3.117 1.17 1.295 1.42 2.832 1.335 4.405-.006.13-.47 1.774-.53 1.896-1.677 3.35 5.437 3.335-1.752 16.234-1.98 3.552-1.64 2.412.07 6.276.024.054 1.279 1.697-.337 6.664-1.28 3.935-2.076 7.601-3.448 11.457-.723 2.027-2.461 5.985-3.78 8.231l-.138.228c-1.18 1.916-2.771 3.04-3.032 3.333"/><path d="M108.41 130.463c.074.001 4.768.77 5.08 1.83.998.38 2.977.962 3.8 1.997 2.353 2.962 2.86 7.185 3.268 8.763 1.045 4.031 1.327 12.426 1.327 12.426 3.128 9.522-2.422 16.34-2.539 18.971-.13 2.934 1.48 5.381 1.057 7.336-.85 3.922-2.005 10.582-3.427 14.245-.81 2.087-2.419 5.988-3.579 8.218-.997 1.917-2.299 3.093-2.529 3.522"/><path d="M105.916 129.684c.065 0 3.73 1.114 3.99 2.678.832.483 1.607 1.182 2.332 2.202 1.218 1.71 3.168 4.706 4.263 9.31.713 3 1.055 8.285 1.307 10.915 1.287 13.418-3.546 15.282-1.996 23.738.634 3.46-1.97 13.345-2.957 16.93-.608 2.214-1.579 5.858-2.57 8.095-.815 1.838-2.127 3.034-2.32 3.594"/><path d="M103.422 128.904c.058 0 2.69 1.46 2.9 3.526a8.033 8.033 0 011.866 2.408c7.571 14.759 5.246 27.312 4.972 28.203-.8 2.614-3.579 28.157-4.176 31.845-.376 2.325-1.244 5.72-2.06 7.968-.64 1.755-1.705 2.975-1.863 3.666"/><path d="M100.928 128.123c.05.001 2.151 1.806 2.309 4.376.5.693.956 1.547 1.401 2.611.873 2.091 7.819 19.873 2.079 37.185-.59 1.78-.329 9.274-.539 11.111-.425 3.64-.627 7.315-1.064 10.907-.293 2.4-.917 5.581-1.553 7.843-.469 1.67-1.282 2.917-1.404 3.74"/><path d="M98.434 127.344c.04 0 1.363 2.151 1.469 5.225.334.797 7.867 23.674 2.403 39.685-.575 1.687-.47 3.544-.178 5.502.257 1.729.198 3.543.058 5.34-.282 3.546-.657 7.149-.944 10.644-.204 2.477-.601 5.44-1.043 7.718-.307 1.583-.861 2.859-.946 3.813"/><path d="M95.94 126.564c.033 0 .775 2.514 1.129 6.073.09.914.315 1.908.468 3.02.284 2.093 3.824 24.037.357 36.557-.454 1.643-.23 3.479-.082 5.38.13 1.682.1 3.435.032 5.193-.14 3.45-.33 6.982-.473 10.38a131.561 131.561 0 01-.535 7.594c-.153 1.496-.438 2.8-.486 3.885m-2.154-78.863c.089.001 0 35.697 0 35.697s.13 28.6 0 42.541"/></g></g><g clip-path="url(#c)" transform="matrix(.35278 0 0 -.35278 -33.036 76.93)"><g clip-path="url(#d)" fill="none" stroke="#231f20" stroke-width="1.1" stroke-miterlimit="10"><path d="M168.89 132.024c-.09 0-8.343.078-8.758.13-1.332.17-2.593.624-3.733 1.59-2.417 2.045-2.69 4.859-2.023 7.7.45 1.908.205 3.349-.965 4.78-.911 1.114-.328 2.18.436 3.352-2.205 1.204-2.261 2.96-1.573 5.057.56 1.708.212 2.11-1.351 2.65-.957.33-1.908.81-2.726 1.425-1.343 1.006-1.665 2.684-.775 4.159 1.968 3.254 3.905 6.545 6.094 9.63 1.45 2.046 1.904 3.932.744 6.226-1.018 2.017-.77 4.199-.208 6.234 1.138 4.11 2.446 8.17 3.769 12.219.664 2.036 2.609 6.237 4.097 8.469 1.373 2.06 3.392 3.21 3.696 3.376"/><path d="M171.385 131.243c-.07.001-4.772.407-6.173.96-.555.062-1.022.154-1.276.232-1.121.345-2.323.784-3.237 1.581-3.175 2.776-2.6 6.124-2.645 8.232-.027 1.281-.262 2.744-1.07 4.306-.531 1.023-.36 2.037-.078 3.117-1.172 1.295-1.421 2.832-1.336 4.405.006.13.469 1.774.53 1.896 1.677 3.35-5.436 3.335 1.752 16.234 1.979 3.552 1.641 2.412-.07 6.276-.023.054-1.278 1.697.337 6.664 1.28 3.935 2.076 7.601 3.448 11.457.723 2.027 2.462 5.985 3.78 8.231l.138.228c1.181 1.916 2.771 3.04 3.033 3.333"/><path d="M173.88 130.463c-.074.001-4.768.77-5.08 1.83-.999.38-2.978.962-3.8 1.997-2.353 2.962-2.859 7.185-3.268 8.763-1.046 4.031-1.328 12.426-1.328 12.426-3.128 9.522 2.422 16.34 2.54 18.971.13 2.934-1.48 5.381-1.058 7.336.852 3.922 2.005 10.582 3.427 14.245.81 2.087 2.42 5.988 3.58 8.218.997 1.917 2.298 3.093 2.528 3.522"/><path d="M176.373 129.684c-.065 0-3.729 1.114-3.988 2.678-.833.483-1.608 1.182-2.334 2.202-1.218 1.71-3.168 4.706-4.262 9.31-.714 3-1.055 8.285-1.308 10.915-1.287 13.418 3.547 15.282 1.996 23.738-.633 3.46 1.972 13.345 2.957 16.93.608 2.214 1.58 5.858 2.571 8.095.814 1.838 2.126 3.034 2.32 3.594"/><path d="M178.868 128.904c-.058 0-2.69 1.46-2.898 3.526a8.018 8.018 0 00-1.868 2.408c-7.57 14.759-5.245 27.312-4.972 28.203.802 2.614 3.579 28.157 4.176 31.845.375 2.325 1.243 5.72 2.06 7.968.64 1.755 1.705 2.975 1.862 3.666"/><path d="M181.362 128.123c-.05.001-2.151 1.806-2.31 4.376-.5.693-.955 1.547-1.4 2.611-.872 2.091-7.818 19.873-2.08 37.185.592 1.78.33 9.274.54 11.111.425 3.64.627 7.315 1.065 10.907.293 2.4.917 5.581 1.552 7.843.47 1.67 1.283 2.917 1.404 3.74"/><path d="M183.856 127.344c-.041 0-1.363 2.151-1.47 5.225-.332.797-7.865 23.674-2.401 39.685.575 1.687.47 3.544.177 5.502-.257 1.729-.197 3.543-.058 5.34.282 3.546.657 7.149.944 10.644.204 2.477.6 5.44 1.043 7.718.308 1.583.862 2.859.946 3.813"/><path d="M186.35 126.564c-.033 0-.774 2.514-1.13 6.073-.09.914-.314 1.908-.466 3.02-.285 2.093-3.825 24.037-.358 36.557.455 1.643.23 3.479.083 5.38-.131 1.682-.102 3.435-.032 5.193.138 3.45.33 6.982.472 10.38.108 2.554.299 5.298.535 7.594.153 1.496.439 2.8.487 3.885m2.153-78.863c-.089.001 0 35.697 0 35.697s-.131 28.6 0 42.541"/></g></g></svg>