<svg xmlns="http://www.w3.org/2000/svg" width="500" height="500" viewBox="0 0 500 500"><linearGradient id="a" gradientUnits="userSpaceOnUse" x1="85.593" y1="218.365" x2="381.593" y2="470.365"><stop offset="0" stop-color="#a566ff"/><stop offset=".505" stop-color="#33cbcb"/><stop offset="1" stop-color="#5de568"/></linearGradient><path fill="url(#a)" d="M214.435 275.953c-11.014 7.562-24.246 13.396-39.905 15.217-15.043 1.759-29.732-2.731-42.502-12.951-18.902-15.124-31.152-40.863-34.497-72.469-.079-.737-.146-2.437-1.254-1.728l-21.102 10.789c-.819.535-.662 1.339-.591 1.806 5.279 34.334 20.143 62.698 42.348 80.47 17.66 14.132 39.111 20.552 60.387 18.083 20.554-2.386 38.321-10.101 53.438-21.136-6.192-5.478-11.852-11.772-16.322-18.081z"/><linearGradient id="b" gradientUnits="userSpaceOnUse" x1="62.807" y1="332.424" x2="426.807" y2="102.424"><stop offset="0" stop-color="#a566ff"/><stop offset=".505" stop-color="#33cbcb"/><stop offset="1" stop-color="#5de568"/></linearGradient><path fill="url(#b)" d="M397.835 28.238l-19.9 10.173c-.578.399-.324.973-.189 1.307 17.102 41.8 31.783 96.48 21.367 161.337-10.465 65.145-57.074 94.218-92.369 90.076-18.973-2.201-34.369-10.305-46.568-20.235l-.029.035c-9.26-7.298-16.01-14.661-22.461-24.21l.014-.014c-.238-.335-.514-.681-.744-1.012-15.416-21.956-27.246-51.186-30.123-78.357-3.193-30.138 3.773-50.651 16.307-64.725 5.486-6.159 11.414-8.712 17.264-8.712 5.436 0 12.24 2.903 17.498 8.869 13.359 15.171 19.191 34.804 16.541 64.604-2.254 25.319-13.18 52.315-26.961 73.648 4.379 6.418 10.426 12.866 16.627 18.216 19.775-28.372 32.104-62.093 34.301-88.812 2.732-33.227-3.443-62.121-22.379-83.625-9.83-11.163-22.783-16.905-35.627-17.062-13.412-.16-25.357 6.112-35.395 16.905-18.559 19.955-25.726 54.303-22.146 83.743 3.502 28.806 16.414 66.078 39.375 95.714 6.564 8.129 13.6 15.441 21.088 22.23 16.592 14.037 36.719 24.025 60.631 26.802a89.47 89.47 0 0 0 10.266.596c21.809-.004 42.936-8.082 60.379-23.28 21.846-19.039 41.77-51.448 47.74-92.055 10.582-71.956-7.752-133.491-23.004-171.722-.138-.334-.556-.95-1.503-.434z"/><path d="M80.971 407.865H62.575c-3.991 0-7.131-1.125-9.412-3.381-2.287-2.258-3.429-5.41-3.429-9.459v-18.57c0-4.051 1.142-7.203 3.429-9.459 2.281-2.258 5.421-3.385 9.412-3.385h7.288c3.995 0 7.116 1.127 9.374 3.385 2.256 2.256 3.383 5.408 3.383 9.459v11.02c0 .867-.406 1.305-1.216 1.305H56.849c-.58 0-.869.258-.869.777v5.295c0 5.031 2.432 7.551 7.288 7.551h17.703c.811 0 1.215.402 1.215 1.211v3.127c0 .751-.404 1.124-1.215 1.124zm-24.122-23.687H75.59c.579 0 .867-.289.867-.867v-6.684c0-4.975-2.429-7.461-7.287-7.461h-5.902c-4.856 0-7.288 2.486-7.288 7.461v6.684c0 .578.289.867.869.867zm41.562 23.687h-3.906c-.811 0-1.215-.404-1.215-1.213v-41.824c0-.812.404-1.217 1.215-1.217h3.906c.809 0 1.215.404 1.215 1.217v3.383h.346c1.444-3.064 4.397-4.6 8.853-4.6h4.857c3.934 0 7 1.127 9.197 3.385 2.197 2.256 3.299 5.408 3.299 9.459v30.197c0 .809-.406 1.213-1.217 1.213h-3.906c-.807 0-1.211-.404-1.211-1.213v-29.939c0-5.031-2.43-7.547-7.291-7.547h-4.857c-2.605 0-4.6.693-5.986 2.082-1.391 1.387-2.083 3.354-2.083 5.898v29.506c-.002.809-.408 1.213-1.216 1.213zm69.676 0H149.69c-3.99 0-7.132-1.125-9.414-3.381-2.285-2.258-3.428-5.41-3.428-9.459v-18.57c0-4.051 1.143-7.203 3.428-9.459 2.281-2.258 5.423-3.385 9.414-3.385h7.289c3.992 0 7.115 1.127 9.373 3.385 2.254 2.256 3.381 5.408 3.381 9.459v11.02c0 .867-.404 1.305-1.213 1.305h-24.557c-.58 0-.867.258-.867.777v5.295c0 5.031 2.427 7.551 7.287 7.551h17.703c.809 0 1.215.402 1.215 1.211v3.127c.001.751-.405 1.124-1.214 1.124zm-24.123-23.687h18.742c.58 0 .867-.289.867-.867v-6.684c0-4.975-2.43-7.461-7.287-7.461h-5.902c-4.859 0-7.287 2.486-7.287 7.461v6.684c0 .578.287.867.867.867zm41.563 23.687h-3.906c-.809 0-1.213-.404-1.213-1.213v-41.824c0-.812.404-1.217 1.213-1.217h3.906c.807 0 1.215.404 1.215 1.217v3.467h.346c.578-1.271 1.68-2.369 3.297-3.295 1.621-.926 3.527-1.389 5.729-1.389h3.383c.752 0 1.129.404 1.129 1.217v3.207c0 .408-.084.709-.26.912-.174.203-.467.275-.869.219h-4.684c-2.604 0-4.602.779-5.988 2.342-1.389 1.561-2.082 3.701-2.082 6.422v28.723c-.001.808-.409 1.212-1.216 1.212zm39.655-2.342h-4.857c-3.934 0-7.002-1.129-9.197-3.385-2.201-2.256-3.299-5.406-3.299-9.459v-16.225c0-4.051 1.143-7.203 3.428-9.459 2.285-2.258 5.424-3.385 9.414-3.385h18.828c.812 0 1.215.404 1.215 1.217v43.037c0 3.992-1.141 7.131-3.426 9.416s-5.424 3.426-9.416 3.426h-15.965c-.865 0-1.299-.402-1.299-1.215v-3.209c0-.811.434-1.215 1.299-1.215h15.186c4.859 0 7.289-2.488 7.289-7.463v-6.682h-.348c-1.505 3.068-4.456 4.601-8.852 4.601zm9.199-13.537v-22.041c0-.52-.291-.779-.871-.779h-12.059c-4.857 0-7.287 2.516-7.287 7.547v15.709c0 5.033 2.43 7.549 7.287 7.549h4.861c2.602 0 4.598-.695 5.986-2.082 1.388-1.389 2.083-3.358 2.083-5.903zm21.863 29.502h-3.816c-.811 0-1.215-.404-1.215-1.215v-3.209c0-.811.404-1.215 1.215-1.215h2.17c3.701 0 6.305-1.041 7.809-3.123 1.215-1.682 2.312-4.078 3.297-7.203h-2.514c-.699 0-1.186-.404-1.475-1.215l-12.758-39.48c-.232-.812.055-1.217.867-1.217h4.164c.752 0 1.246.404 1.475 1.217l11.195 35.75h.346l11.195-35.75c.172-.812.635-1.217 1.387-1.217h3.994c.98 0 1.33.436 1.041 1.303l-12.93 41.217c-1.445 4.914-3.283 8.705-5.51 11.369-2.226 2.658-5.538 3.988-9.937 3.988zm72.367-13.623h-5.293c-.811 0-1.303-.404-1.475-1.213l-11.105-41.824c-.174-.812.113-1.217.865-1.217h4.424c.752 0 1.215.404 1.389 1.217l8.418 35.402h.52l8.941-35.402c.172-.812.633-1.217 1.385-1.217h3.994c.809 0 1.33.404 1.559 1.217l8.678 35.402h.521l8.504-35.402c.174-.812.637-1.217 1.391-1.217h4.424c.752 0 1.039.404.869 1.217l-11.107 41.824c-.174.809-.668 1.213-1.475 1.213h-5.379c-.756 0-1.217-.404-1.391-1.213l-8.418-34.537h-.434l-8.328 34.537c-.174.809-.668 1.213-1.477 1.213zm76.186 0H386.4c-3.992 0-7.133-1.125-9.414-3.381-2.285-2.258-3.43-5.41-3.43-9.459v-18.57c0-4.051 1.145-7.203 3.43-9.459 2.281-2.258 5.422-3.385 9.414-3.385h7.287c3.994 0 7.115 1.127 9.375 3.385 2.254 2.256 3.381 5.408 3.381 9.459v11.02c0 .867-.404 1.305-1.217 1.305h-24.555c-.578 0-.867.258-.867.777v5.295c0 5.031 2.43 7.551 7.289 7.551h17.703c.809 0 1.215.402 1.215 1.211v3.127c.001.751-.406 1.124-1.214 1.124zm-24.125-23.687h18.744c.578 0 .867-.289.867-.867v-6.684c0-4.975-2.432-7.461-7.287-7.461h-5.902c-4.859 0-7.289 2.486-7.289 7.461v6.684c0 .578.289.867.867.867zm36.445 22.474v-58.574c0-.809.404-1.211 1.215-1.211h3.906c.807 0 1.215.402 1.215 1.211v19.611h.344c1.445-3.066 4.398-4.6 8.85-4.6h4.863c3.93 0 7.039 1.131 9.324 3.387 2.287 2.254 3.432 5.379 3.432 9.371v19.178c0 4.049-1.145 7.201-3.432 9.459-2.285 2.256-5.395 3.381-9.324 3.381h-19.178c-.811 0-1.215-.404-1.215-1.213zm7.203-4.34h12.322c4.914 0 7.373-2.516 7.373-7.547v-18.57c0-5.035-2.459-7.551-7.373-7.551h-5.121c-2.604 0-4.602.693-5.988 2.082-1.389 1.389-2.08 3.328-2.08 5.814v24.99c0 .523.289.782.867.782z" fill="#A566FF"/><path d="M123.653 456.787h-1.357c-.281 0-.424-.141-.424-.42v-18.576c0-.279.143-.422.424-.422h9.393c.279 0 .42.143.42.422v1.088c0 .279-.141.422-.42.422h-7.309c-.199 0-.303.09-.303.271v6.586c0 .18.104.27.303.27h6.461c.285 0 .426.143.426.422v1.09c0 .281-.141.422-.426.422h-6.461c-.199 0-.303.1-.303.301v7.705c0 .278-.139.419-.424.419zm31.865 0h-3.594c-1.389 0-2.48-.393-3.277-1.176-.797-.789-1.193-1.887-1.193-3.295v-10.48c0-1.408.396-2.506 1.193-3.291s1.889-1.176 3.277-1.176h3.594c1.389 0 2.48.398 3.277 1.191.795.795 1.191 1.887 1.191 3.275v10.48c0 1.393-.396 2.482-1.191 3.279-.797.795-1.889 1.193-3.277 1.193zm-3.352-1.932h3.078c1.693 0 2.539-.875 2.539-2.629v-10.299c0-1.75-.846-2.627-2.539-2.627h-3.078c-1.674 0-2.508.877-2.508 2.627v10.299c0 1.754.834 2.629 2.508 2.629zm34.696-17.486h1.361c.279 0 .42.129.42.391v14.557c0 1.408-.391 2.506-1.176 3.295-.783.783-1.872 1.176-3.263 1.176h-3.352c-1.389 0-2.482-.393-3.277-1.176-.797-.789-1.191-1.887-1.191-3.295v-14.525c0-.279.139-.422.424-.422h1.357c.279 0 .422.143.422.422v14.436c0 1.754.834 2.629 2.506 2.629h2.842c1.689 0 2.536-.875 2.536-2.629v-14.436c.001-.28.13-.423.391-.423zm20.237 19.418h-1.328c-.281 0-.424-.141-.424-.42v-18.576c0-.279.143-.422.424-.422h1.238c.24 0 .404.08.482.242l8.336 14.646h.121V437.79c0-.279.143-.422.424-.422h1.328c.283 0 .42.143.42.422v18.576c0 .279-.137.42-.42.42h-1.119c-.221 0-.432-.129-.633-.393l-8.305-14.496h-.121v14.469c0 .28-.142.421-.423.421zm27.875-.42v-18.576c0-.279.141-.422.422-.422h7.432c1.389 0 2.482.398 3.273 1.191.797.795 1.195 1.887 1.195 3.275v10.48c0 1.393-.398 2.482-1.195 3.279-.791.793-1.885 1.191-3.273 1.191h-7.432c-.282.002-.422-.139-.422-.418zm2.507-1.512h5.072c1.693 0 2.537-.875 2.537-2.629v-10.299c0-1.75-.844-2.627-2.537-2.627h-5.072c-.201 0-.305.09-.305.271v15.01c.001.183.104.274.305.274zm26.608 1.932h-1.508c-.264 0-.355-.141-.271-.42l5.646-18.576c.08-.279.271-.422.574-.422h2.172c.303 0 .496.143.576.422l5.646 18.576c.08.279-.01.42-.27.42h-1.543c-.221 0-.359-.141-.422-.42l-1.42-4.41h-7.307l-1.424 4.41c-.076.279-.226.42-.449.42zm5.467-17.152l-3.109 10.447h6.342l-3.111-10.447h-.122zm27.423 17.152h-1.361c-.283 0-.424-.141-.424-.42v-16.795c0-.182-.102-.271-.303-.271h-4.107c-.301 0-.451-.143-.451-.422v-1.088c0-.279.15-.422.451-.422h11.025c.301 0 .455.143.455.422v1.088c0 .279-.154.422-.455.422H297.7c-.201 0-.301.09-.301.271v16.795c0 .279-.142.42-.42.42zm22.59-18.996v18.576c0 .279-.141.42-.424.42h-1.357c-.283 0-.424-.141-.424-.42v-18.576c0-.279.141-.422.424-.422h1.357c.284 0 .424.143.424.422zm24.768 18.996h-3.596c-1.389 0-2.482-.393-3.275-1.176-.799-.789-1.193-1.887-1.193-3.295v-10.48c0-1.408.395-2.506 1.193-3.291.793-.785 1.887-1.176 3.275-1.176h3.596c1.389 0 2.479.398 3.275 1.191.793.795 1.191 1.887 1.191 3.275v10.48c0 1.393-.398 2.482-1.191 3.279-.797.795-1.886 1.193-3.275 1.193zm-3.354-1.932h3.078c1.691 0 2.541-.875 2.541-2.629v-10.299c0-1.75-.85-2.627-2.541-2.627h-3.078c-1.674 0-2.506.877-2.506 2.627v10.299c.001 1.754.833 2.629 2.506 2.629zm26.121 1.932h-1.328c-.281 0-.424-.141-.424-.42v-18.576c0-.279.143-.422.424-.422h1.236c.242 0 .404.08.484.242l8.334 14.646h.121V437.79c0-.279.143-.422.426-.422h1.326c.283 0 .424.143.424.422v18.576c0 .279-.141.42-.424.42h-1.117c-.221 0-.434-.129-.635-.393l-8.305-14.496h-.121v14.469c.001.28-.139.421-.421.421z" fill="#231F20"/></svg>