<svg version="1.1" id="Layer_1" x="0" y="0" viewBox="40 -10 80 80" xml:space="preserve" xmlns="http://www.w3.org/2000/svg" style="width:100%"><defs xmlns="http://www.w3.org/1999/xhtml"><style>*,::after,::before{box-sizing:inherit}svg path{transition:opacity .3s ease-in-out 0s}</style></defs><g fill="#E77629"><path d="M114 30H46c-1.1 0-2 .9-2 2s.9 2 2 2h7c1.1 0 2 .9 2 2s-.9 2-2 2h-3c-1.1 0-2 .9-2 2s.9 2 2 2h14c1.1 0 2-.9 2-2s-.9-2-2-2h-3c-1.1 0-2-.9-2-2s.9-2 2-2h53c1.1 0 2-.9 2-2s-.9-2-2-2z"/><path d="M112 38H72c-1.1 0-2 .9-2 2s.9 2 2 2h21c1.1 0 2 .9 2 2s-.9 2-2 2H54c-1.1 0-2 .9-2 2s.9 2 2 2h22c1.1 0 2 .9 2 2s-.9 2-2 2h-8c-1.1 0-2 .9-2 2s.9 2 2 2h24c1.1 0 2-.9 2-2s-.9-2-2-2h-8c-1.1 0-2-.9-2-2s.9-2 2-2h23c1.1 0 2-.9 2-2s-.9-2-2-2h-6c-1.1 0-2-.9-2-2s.9-2 2-2h11c1.1 0 2-.9 2-2s-.9-2-2-2zM80 1C66.2 1 55 12.2 55 26h50c0-13.8-11.2-25-25-25z"/></g><path fill-rule="evenodd" clip-rule="evenodd" fill="#FFF" d="M122.4 79.7c5.4 0 9.5 4.4 9.5 9.5 0 5.4-4.4 9.5-9.5 9.5-5.4 0-9.5-4.4-9.5-9.5.1-5.4 4.4-9.5 9.5-9.5zm-85.1 0c5.4 0 9.5 4.4 9.5 9.5 0 5.4-4.4 9.5-9.5 9.5-5.4 0-9.5-4.4-9.5-9.5.1-5.4 4.4-9.5 9.5-9.5zm42.8-2.2c1 0 1.5.7 1.5 1.5v20.7c0 1-.7 1.6-1.5 1.6-.9 0-1.5-.7-1.5-1.4v-21c.1-.7.6-1.4 1.5-1.4zm-78.7 0c1 0 1.5.8 1.5 1.5v9h13.2v-9.3c0-.8.9-1.3 1.4-1.3.9 0 1.5.7 1.5 1.5v20.7c0 .8-.6 1.5-1.5 1.5-.7 0-1.5-.6-1.4-1.4V91H3v8.7c.1.8-.6 1.5-1.5 1.5-.7 0-1.5-.6-1.5-1.4v-21c0-.7.7-1.3 1.4-1.3zm54.8-.1h9.5c2.9 0 6.7 2 6.7 6.5 0 3-1.6 5.3-5.7 6.3.7.9 4.5 6.2 6.3 8.7 1.3 1.9-1.3 3.3-2.3 1.8-1.6-2.3-7.6-10.6-8-11.1-.8-1.1 0-2.4 1-2.4h2.4c1.8 0 3.3-1.5 3.3-3.3 0-2.2-1.5-3.5-3.8-3.6h-8V100c0 1-.8 1.5-1.5 1.5-.6 0-1.4-.5-1.4-1.4V78.7c0-.7 1-1.3 1.5-1.3zm85.4 0c.5.1 1.1.5 1.7.8 3.1 1.9 6.4 4.4 9.3 7.9 1.7 2 3.3 4.5 4.4 6.5V78.9c0-1 .7-1.5 1.4-1.5 1 0 1.5.8 1.5 1.5v20.9c0 .7-.5 1.4-1.5 1.4-1.4 0-1.6-1.5-1.9-2.4-.2-.5-.4-1.2-.6-1.6-.5-1.2-1.3-2.3-1.8-3.5-1.9-4.1-7-9.5-11.3-12.2v18.3c0 1-.6 1.7-1.5 1.7-.7 0-1.5-.5-1.5-1.4V78.6c.1-.8.9-1.4 1.8-1.2zm-51.9-.2h16.1c1.4 0 2.2 1.5 1.3 2.6-.6.8-1.2 1.6-1.8 2.3-4.2 5.4-8.5 11-12.8 16.3h13.2c1.1 0 1.7.6 1.7 1.5 0 .7-.4 1.5-1.7 1.5H89.4c-1.1 0-2.1-1.2-1-2.6.9-1.1 2.3-2.9 2.4-3 4-5.2 8.1-10.4 12.2-15.6H89.9c-1.1 0-1.8-.6-1.8-1.5 0-.7.5-1.5 1.6-1.5zm32.7-.3c7 0 12.3 5.6 12.3 12.3 0 7-5.6 12.3-12.3 12.3-7 0-12.3-5.6-12.3-12.3 0-7 5.6-12.3 12.3-12.3zm-85.1 0c7 0 12.3 5.6 12.3 12.3 0 7-5.6 12.3-12.3 12.3-7 0-12.3-5.6-12.3-12.3 0-7 5.6-12.3 12.3-12.3z"/></svg>