<svg height="200" width="200" viewBox="0 0 427.7 88.3" xmlns="http://www.w3.org/2000/svg"><path d="M59.7 16c-14.6 0-26.4 11.8-26.4 26.4s11.8 26.4 26.4 26.4S86.1 57 86.1 42.4 74.2 16 59.7 16zm0 40.7c-7.9 0-14.2-6.4-14.2-14.2s6.4-14.2 14.2-14.2 14.2 6.4 14.2 14.2-6.4 14.2-14.2 14.2z"/><path d="M93.4 86.9l9.5-21.5-20.1-48.5H95l13.9 35.3L123 16.9h12.1l-29.6 70zm62.3-18c-6.8 0-12.3-1.8-16.3-5.2-3.8-3.1-5.9-7.3-6.2-12.3l-.1-2.1h11.3l.2 1.8c.4 3.6 2.3 5.8 6 7.1 1.4.4 2.9.7 4.2.7 1.5 0 2.9-.1 4.2-.3 1.2-.2 2.5-.5 3.6-.9 2.9-1.1 3.2-2.9 3.2-4.3 0-1.3-.4-2.2-1.4-2.8-1.4-.9-3.1-1.7-5.2-2.3-2.3-.6-4.8-1.2-7.4-1.8-2.8-.6-5.5-1.3-8-2.3-2.6-1.1-4.8-2.5-6.5-4.4-1.9-2-2.9-4.8-2.9-8.2 0-4.9 1.8-8.8 5.5-11.6 3.5-2.6 8.5-4 15.1-4 6.3 0 11.3 1.6 15 4.6 3.2 2.7 5 6.2 5.5 10.6l.3 2.2h-11.2l-.2-1.8c-.3-2.4-1.7-5.6-9.9-5.6-8.9 0-8.9 3.5-8.9 4.8 0 1.2.4 2 1.4 2.6 1.4.9 3.1 1.6 5.3 2.2 2.3.6 4.8 1.2 7.5 1.7 2.9.6 5.6 1.4 8 2.4 2.6 1.1 4.8 2.6 6.5 4.5 1.9 2.1 2.8 4.9 2.8 8.3 0 5.3-2 9.4-6.1 12.2-3.8 2.8-8.9 4.2-15.3 4.2zm31.5-.8v-41h-9.7V16.9h9.7v-17h11.1v17h10.9v10.2h-10.9v41zm25.7 0V16.9H224v6c1.8-2.1 4.2-3.7 7-5 2.3-1.1 5.2-1.7 8.4-1.7h2.5v11.1H239c-4.5 0-8.1 1.8-10.9 5.4s-4.1 7.7-4.1 12.7v22.8h-11.1zm54.4.8c-7.7 0-14-2.6-18.9-7.7-4.7-5-7.1-11.2-7.1-18.7s2.3-13.8 6.8-18.7c4.8-5.1 11.1-7.7 18.7-7.7s13.9 2.6 18.7 7.7c4.5 4.9 6.8 11.2 6.8 18.7v4.8H253c.7 2.9 2.1 5.3 4.2 7.3 2.7 2.6 6 3.8 10.1 3.8 5.6 0 9.5-2.2 11.9-6.9l.6-1.1h11.9l-1 2.7c-1.8 4.6-4.6 8.4-8.5 11.3-3.9 3-8.9 4.5-14.9 4.5zm13.1-32.2c-.8-2.7-2.1-4.8-4-6.6-2.6-2.4-5.7-3.5-9.6-3.5s-7 1.2-9.6 3.5c-1.9 1.8-3.2 4-4 6.6zm135.9 31.4V37.8c0-3.4-.9-6.1-2.8-8.3-1.8-2-4.1-2.9-6.9-2.9-3.1 0-5.6 1-7.6 2.9-2.1 2-3.2 4.8-3.2 8.4v30.3h-11.1V37.8c0-3.4-.9-6.1-2.8-8.3-1.8-2-4.1-2.9-6.9-2.9-3.1 0-5.6 1-7.6 2.9-2.1 2-3.2 4.8-3.2 8.4v30.3h-11.1V16.9h11.1v3.6c3.2-2.9 7.4-4.3 12.4-4.3 3.5 0 6.8.9 9.8 2.8 2.1 1.3 3.8 3 5.3 5 2.3-3 5.4-5.2 9.2-6.6 2-.8 4.4-1.2 6.9-1.2 2.6 0 5.1.5 7.4 1.5s4.5 2.5 6.3 4.4c3.9 4.2 5.9 9.4 5.9 15.6v30.6h-11.1z"/><path d="M177.4 17h31.7v9.9h-31.7zm-148.9-.1H.2v9.9h17.4v40.8c0 3.3-2 6.2-5 7.3l-7 2.7 3 10.7 10.4-4c3.6-1.4 6.5-4.1 8.1-7.6 1-2 1.4-4.2 1.4-6.4zm316.7.1h-10.9v3.3c-4.1-2.7-8.9-4.1-14.5-4.1-7.6 0-13.9 2.6-18.7 7.7-4.5 4.9-6.8 11.2-6.8 18.7s2.3 13.8 6.8 18.7c4.8 5.1 11.1 7.7 18.7 7.7 5.5 0 10.4-1.4 14.5-4.1V68h10.9zm-14.8 36.9c-2.6 3.1-6 4.6-10.6 4.6-4.5 0-8-1.5-10.6-4.6-2.5-3-3.8-6.7-3.8-11.4s1.2-8.4 3.8-11.4c2.6-3.1 6-4.6 10.6-4.6 4.5 0 8 1.5 10.6 4.6 2.5 3 3.8 6.7 3.8 11.4s-1.3 8.4-3.8 11.4z"/></svg>