<svg id="parity_brandmark" data-name="parity brandmark" xmlns="http://www.w3.org/2000/svg" viewBox="0 0 62 62"><defs><style>.cls-1{fill:#282828}</style></defs><g id="Master_Square" data-name="Master Square"><g id="Red"><path class="cls-1" transform="rotate(-32.02 19.792 13.053)" d="M-2.77 12.56h45.11v1H-2.77z" id="Path-2"/><path class="cls-1" transform="rotate(-32.03 22.006 16.611)" d="M-.55 16.12h45.12v1H-.55z" id="Path-2-2" data-name="Path-2"/><path class="cls-1" transform="rotate(-32.03 24.245 20.176)" d="M1.68 19.68h45.11v1H1.68z" id="Path-2-3" data-name="Path-2"/><path class="cls-1" transform="rotate(-32.03 26.449 23.731)" d="M3.9 23.23h45.12v1H3.9z" id="Path-2-4" data-name="Path-2"/><path class="cls-1" transform="rotate(-32.03 28.687 27.296)" d="M6.13 26.79h45.11v1H6.13z" id="Path-2-5" data-name="Path-2"/><path class="cls-1" transform="rotate(-32.03 30.908 30.857)" d="M8.35 30.35h45.11v1H8.35z" id="Path-2-6" data-name="Path-2"/><path class="cls-1" transform="rotate(-32.03 33.13 34.417)" d="M10.57 33.91h45.12v1H10.57z" id="Path-2-7" data-name="Path-2"/><path class="cls-1" transform="rotate(-32.03 35.35 37.977)" d="M12.8 37.47h45.11v1H12.8z" id="Path-2-8" data-name="Path-2"/><path class="cls-1" transform="rotate(-32.03 37.572 41.537)" d="M15.02 41.03h45.11v1H15.02z" id="Path-2-9" data-name="Path-2"/><path class="cls-1" transform="rotate(-32.03 39.816 45.084)" d="M17.25 44.59h45.11v1H17.25z" id="Path-2-10" data-name="Path-2"/><path class="cls-1" transform="rotate(-32.03 42.037 48.645)" d="M19.47 48.15h45.11v1H19.47z" id="Path-2-11" data-name="Path-2"/></g></g><path class="cls-1" d="M39.77 28.38l5.39-3.37v-1.18l-7.28 4.55h1.89zm-7.92 0l13.31-8.32v-.08H43.4l-13.44 8.4h1.89zm-7.92 0l13.43-8.4h-1.88l-13.43 8.4h1.88zm-7.09-.52l12.6-7.88h-1.88l-10.72 6.7v1.18zm0-4.95l4.68-2.93h-1.88l-2.8 1.75v1.18z" id="_square_1" data-name="= square 1"/><path class="cls-1" d="M40.02 43.06l5.14-3.21v-1.18l-7.02 4.39h1.88zm-7.92 0l13.06-8.16v-.23h-1.51l-13.43 8.39h1.88zm-7.92 0l13.44-8.39h-1.89L22.3 43.06h1.88zm-7.34-.35l12.86-8.04h-1.89l-10.97 6.86v1.18zm0-4.95l4.94-3.09h-1.89l-3.05 1.91v1.18z" id="_square_2" data-name="= square 2"/></svg>