<svg id="Layer_1" data-name="Layer 1" xmlns="http://www.w3.org/2000/svg" viewBox="0 0 277 277"><defs><style>.cls-1{fill:#282828}</style></defs><path class="cls-1" transform="rotate(-32 85.075 53.418)" d="M-14.93 52.92h200v1h-200z"/><path class="cls-1" transform="rotate(-32 90.362 61.897)" d="M-9.63 61.4h200v1h-200z"/><path class="cls-1" transform="rotate(-32 95.666 70.382)" d="M-4.33 69.88h200v1h-200z"/><path class="cls-1" transform="rotate(-32 100.97 78.866)" d="M.97 78.36h200v1H.97z"/><path class="cls-1" transform="rotate(-32 106.262 87.328)" d="M6.27 86.84h200v1h-200z"/><path class="cls-1" transform="rotate(-32 111.566 95.812)" d="M11.57 95.32h200v1h-200z"/><path class="cls-1" transform="rotate(-32 116.87 104.296)" d="M16.86 103.8h200v1h-200z"/><path class="cls-1" transform="rotate(-32 122.157 112.776)" d="M22.16 112.28h200v1h-200z"/><path class="cls-1" transform="rotate(-32 127.462 121.26)" d="M27.46 120.76h200v1h-200z"/><path class="cls-1" transform="rotate(-32 132.766 129.744)" d="M32.76 129.24h200v1h-200z"/><path class="cls-1" transform="rotate(-32 138.07 138.229)" d="M38.06 137.72h200v1h-200z"/><path class="cls-1" transform="rotate(-32 143.357 146.708)" d="M43.36 146.2h200v1h-200z"/><path class="cls-1" transform="rotate(-32 148.666 155.175)" d="M48.66 154.68h200v1h-200z"/><path class="cls-1" transform="rotate(-32 153.97 163.659)" d="M53.96 163.16h200v1h-200z"/><path class="cls-1" transform="rotate(-32 159.257 172.138)" d="M59.26 171.64h200v1h-200z"/><path class="cls-1" transform="rotate(-32 164.561 180.623)" d="M64.56 180.12h200v1h-200z"/><path class="cls-1" transform="rotate(-32 169.848 189.102)" d="M69.86 188.6h200v1h-200z"/><path class="cls-1" transform="rotate(-32 175.152 197.586)" d="M75.16 197.08h200v1h-200z"/><path class="cls-1" transform="rotate(-32 180.456 206.07)" d="M80.46 205.56h200v1h-200z"/><path class="cls-1" transform="rotate(-32 185.743 214.55)" d="M85.76 214.04h200v1h-200z"/><path class="cls-1" transform="rotate(-32 191.052 223.016)" d="M91.05 222.53h200v1h-200z"/><path class="cls-1" d="M70.54 115.52l31.69-19.8h-1.89l-29.8 18.62v1.18zm0-11.79l12.82-8.01h-1.89l-10.93 6.83v1.18zm54.39 24.97l52.79-32.98h-1.89l-52.79 32.98h1.89zm18.87 0l52.79-32.98h-1.89l-52.79 32.98h1.89zm62.29-27.13v-1.18l-45.31 28.31h1.89l43.42-27.13zm0 11.79v-1.18l-26.43 16.52h1.88l24.55-15.34zM106.06 128.7l52.78-32.98h-1.88l-52.79 32.98h1.89zm100.03-3.55v-1.18l-7.56 4.73h1.88l5.68-3.55zm-118.9 3.55l52.78-32.98h-1.88L85.3 128.7h1.89zm-16.65-1.39l50.56-31.59h-1.88l-48.68 30.42v1.17zm135.55 56.8v-1.18l-11.87 7.42h1.89l9.98-6.24zm0-11.79v-1.18l-30.74 19.21h1.89l28.85-18.03zm0-11.79v-1.18l-49.61 31h1.89l47.72-29.82zm-66.59 29.82l52.78-32.98h-1.88l-52.79 32.98h1.89zm-18.87 0l52.78-32.98h-1.88l-52.79 32.98h1.89zm-18.87 0l52.78-32.98h-1.88l-52.79 32.98h1.89zm-18.87 0l52.78-32.98h-1.89L81 190.35h1.89zm-12.35-4.08l46.26-28.9h-1.89L70.54 185.1v1.17zm0-11.79l27.39-17.11h-1.89l-25.5 15.93v1.18zm0-11.79l8.52-5.32h-1.89l-6.63 4.14v1.18z"/></svg>