<svg version="1.1" id="Ebene_1" xmlns="http://www.w3.org/2000/svg" x="0" y="0" height="200" width="200" viewBox="0 0 65 30" xml:space="preserve"><style>.st2{fill:#fff}.st4{fill:#e30613}</style><pattern x="-339.2" y="317.5" width="69" height="69" patternUnits="userSpaceOnUse" id="Unnamed_Pattern" viewBox="2.1 -70.9 69 69" overflow="visible"><path fill="none" d="M2.1-70.9h69v69h-69z"/><path fill="#f8c05a" d="M2.1-70.9h69v69h-69z"/><path class="st2" d="M61.8-71.7v.2c-.1.1-.1.1-.2.1-.1.1-.1.3-.1.4-.2.1 0 .2 0 .3v.2c0 .1 0 .3.1.4.1.2.3.4.4.5.2.1.4.6.6.6.2 0 .4-.1.5-.1.2 0 .4 0 .6-.1.2-.1.1-.3.3-.5.1-.1.3 0 .4-.1.2-.1.3-.3.4-.5v-.2c0-.1.1-.2.1-.3 0-.1-.1-.1-.1-.2v-.3c0-.2 0-.4-.1-.5-.4-.7-1.2-.9-2-.8-.2 0-.3.1-.4.2-.2.1-.1.2-.3.2-.1 0-.2.1-.2.2v.3c0 .1 0 .1 0 0m-7.7 0v.2c-.1.1-.1.1-.2.1-.1.1-.1.3-.1.4-.2.1 0 .2 0 .3v.2c0 .1 0 .3.1.4.1.2.3.4.4.5.2.1.4.6.6.6.2 0 .4-.1.5-.1.2 0 .4 0 .6-.1.2-.1.1-.3.3-.5.1-.1.3 0 .4-.1.2-.1.3-.3.4-.5v-.2c0-.1.1-.2.1-.3 0-.1-.1-.1-.1-.2v-.3c0-.2 0-.4-.1-.5-.4-.7-1.2-.9-2-.8-.2 0-.3.1-.4.2-.2.1-.1.2-.3.2-.1 0-.2.1-.2.2v.3c0 .1 0 .1 0 0m-7.7 0v.2c-.1.1-.1.1-.2.1-.1.1-.1.3-.1.4-.2.1 0 .2 0 .3v.2c0 .1 0 .3.1.4.1.2.3.4.4.5.2.1.4.6.6.6.2 0 .4-.1.5-.1.2 0 .4 0 .6-.1.2-.1.1-.3.3-.5.1-.1.3 0 .4-.1.2-.1.3-.3.4-.5v-.2c0-.1.1-.2.1-.3 0-.1-.1-.1-.1-.2v-.3c0-.2 0-.4-.1-.5-.4-.7-1.2-.9-2-.8-.2 0-.3.1-.4.2-.2.1-.1.2-.3.2-.1 0-.2.1-.2.2v.3c0 .1 0 .1 0 0m-7.6 0v.2c-.1.1-.1.1-.2.1-.1.1-.1.3-.1.4-.2.1 0 .2 0 .3v.2c0 .1 0 .3.1.4.1.2.3.4.4.5.2.1.4.6.6.6.2 0 .4-.1.5-.1.2 0 .4 0 .6-.1.2-.1.1-.3.3-.5.1-.1.3 0 .4-.1.2-.1.3-.3.4-.5v-.2c0-.1.1-.2.1-.3 0-.1-.1-.1-.1-.2v-.3c0-.2 0-.4-.1-.5-.4-.7-1.2-.9-2-.8-.2 0-.3.1-.4.2-.2.1-.1.2-.3.2-.1 0-.2.1-.2.2v.3c0 .1 0 .1 0 0m-7.7 0v.2c-.1.1-.1.1-.2.1-.1.1-.1.3-.1.4-.2.1 0 .2 0 .3v.2c0 .1 0 .3.1.4.1.2.3.4.4.5.2.1.4.6.6.6.2 0 .4-.1.5-.1.2 0 .4 0 .6-.1.2-.1.1-.3.3-.5.1-.1.3 0 .4-.1.2-.1.3-.3.4-.5v-.2c0-.1.1-.2.1-.3 0-.1-.1-.1-.1-.2v-.3c0-.2 0-.4-.1-.5-.4-.7-1.2-.9-2-.8-.2 0-.3.1-.4.2-.2.1-.1.2-.3.2-.1 0-.2.1-.2.2v.3c0 .1 0 .1 0 0m-7.7 0v.2c-.1.1-.1.1-.2.1-.1.1-.1.3-.1.4-.2.1 0 .2 0 .3v.2c0 .1 0 .3.1.4.1.2.3.4.4.5.2.1.4.6.6.6.2 0 .4-.1.5-.1.2 0 .4 0 .6-.1.2-.1.1-.3.3-.5.1-.1.3 0 .4-.1.2-.1.3-.3.4-.5v-.2c0-.1.1-.2.1-.3 0-.1-.1-.1-.1-.2v-.3c0-.2 0-.4-.1-.5-.4-.7-1.2-.9-2-.8-.2 0-.3.1-.4.2-.2.1-.1.2-.3.2-.1 0-.2.1-.2.2v.3c0 .1 0 .1 0 0m-7.6 0v.2c-.1.1-.1.1-.2.1-.1.1-.1.3-.1.4-.2.1 0 .2 0 .3v.2c0 .1 0 .3.1.4.1.2.3.4.4.5.2.1.4.6.6.6.2 0 .4-.1.5-.1.2 0 .4 0 .6-.1.2-.1.1-.3.3-.5.1-.1.3 0 .4-.1.2-.1.3-.3.4-.5v-.2c0-.1.1-.2.1-.3 0-.1-.1-.1-.1-.2v-.3c0-.2 0-.4-.1-.5-.4-.7-1.2-.9-2-.8-.2 0-.3.1-.4.2-.2.1-.1.2-.3.2-.1 0-.2.1-.2.2v.3c0 .1 0 .1 0 0m-7.7 0v.2l-.2.2c-.1.1-.1.3-.1.4-.2.1 0 .2 0 .3v.2c0 .1 0 .3.1.4.1.2.3.4.4.5.2.1.4.6.6.6.2 0 .4-.1.5-.1.2 0 .4 0 .6-.1.2-.1.1-.3.3-.5.1-.1.3 0 .4-.1.2-.1.3-.3.4-.5v-.2c0-.1.1-.2.1-.3 0-.1-.1-.1-.1-.2v-.3c0-.2 0-.4-.1-.5-.4-.7-1.2-.9-2-.8-.2 0-.3.1-.4.2-.2.1-.1.2-.3.2-.1 0-.2.1-.2.2v.2c0 .1 0 .1 0 0m-7.7 0v.2c-.1.1-.1.1-.2.1-.1.1-.1.3-.1.4-.2.1 0 .2 0 .3v.2c0 .1 0 .3.1.4.1.2.3.4.4.5.2.2.4.6.6.7.2 0 .4-.1.5-.1.2 0 .4 0 .6-.1.2-.1.1-.3.3-.5.1-.1.3 0 .4-.1.2-.1.3-.3.4-.5v-.2c0-.1.1-.2.1-.3 0-.1-.1-.1-.1-.2v-.3c0-.2 0-.4-.1-.5-.4-.7-1.2-.9-2-.8-.2 0-.3.1-.4.2-.2.1-.1.2-.3.2-.1 0-.2.1-.2.2v.2c0 .1 0 .1 0 0m69 0v.2c-.1.1-.1.1-.2.1-.1.1-.1.3-.1.4-.2.1 0 .2 0 .3v.2c0 .1 0 .3.1.4.1.2.3.4.4.5.2.1.4.6.6.6.2 0 .4-.1.5-.1.2 0 .4 0 .6-.1.2-.1.1-.3.3-.5.1-.1.3 0 .4-.1.2-.1.3-.3.4-.5v-.2c0-.1.1-.2.1-.3 0-.1-.1-.1-.1-.2v-.3c0-.2 0-.4-.1-.5-.4-.7-1.2-.9-2-.8-.2 0-.3.1-.4.2-.2.1-.1.2-.3.2-.1 0-.2.1-.2.2v.3c0 .1 0 .1 0 0"/><path class="st2" d="M.5-71.7v.2c-.1.1-.1.1-.2.1-.1.1-.1.3-.1.4-.2.1 0 .2 0 .3v.2c0 .1 0 .3.1.4.1.2.3.4.4.5.2.2.3.6.6.7.2 0 .4-.1.5-.1.2 0 .4 0 .6-.1.2-.1.1-.3.3-.5.1-.1.3 0 .4-.1.2-.1.3-.3.4-.5v-.2c0-.1.1-.2.1-.3 0-.1-.1-.1-.1-.2v-.3c0-.2 0-.4-.1-.5-.4-.7-1.2-.9-2-.8-.2 0-.3.1-.4.2-.2.1-.1.2-.3.2-.1 0-.2.1-.2.2v.2c0 .1 0 .1 0 0M69.4-64v.2c-.1.1-.1.1-.2.1-.1.1-.1.3-.1.4-.2.1 0 .2 0 .3v.2c0 .1 0 .3.1.4.1.2.3.4.4.5.2.1.4.6.6.6.2 0 .4-.1.5-.1.2 0 .4 0 .6-.1.2-.1.1-.3.3-.5.1-.1.3 0 .4-.1.2-.1.3-.3.4-.5v-.2c0-.1.1-.2.1-.3 0-.1-.1-.1-.1-.2v-.3c0-.2 0-.4-.1-.5-.4-.7-1.2-.9-2-.8-.2 0-.3.1-.4.2-.2.1-.1.2-.3.2-.1 0-.2.1-.2.2v.3m-7.6 0v.2c-.1.1-.1.1-.2.1-.1.1-.1.3-.1.4-.2.1 0 .2 0 .3v.2c0 .1 0 .3.1.4.1.2.3.4.4.5.2.1.4.6.6.6.2 0 .4-.1.5-.1.2 0 .4 0 .6-.1.2-.1.1-.3.3-.5.1-.1.3 0 .4-.1.2-.1.3-.3.4-.5v-.2c0-.1.1-.2.1-.3 0-.1-.1-.1-.1-.2v-.3c0-.2 0-.4-.1-.5-.4-.7-1.2-.9-2-.8-.2 0-.3.1-.4.2-.2.1-.1.2-.3.2-.1 0-.2.1-.2.2v.3m-7.7 0v.2c-.1.1-.1.1-.2.1-.1.1-.1.3-.1.4-.2.1 0 .2 0 .3v.2c0 .1 0 .3.1.4.1.2.3.4.4.5.2.1.4.6.6.6.2 0 .4-.1.5-.1.2 0 .4 0 .6-.1.2-.1.1-.3.3-.5.1-.1.3 0 .4-.1.2-.1.3-.3.4-.5v-.2c0-.1.1-.2.1-.3 0-.1-.1-.1-.1-.2v-.3c0-.2 0-.4-.1-.5-.4-.7-1.2-.9-2-.8-.2 0-.3.1-.4.2-.2.1-.1.2-.3.2-.1 0-.2.1-.2.2v.3m-7.6 0v.2c-.1.1-.1.1-.2.1-.1.1-.1.3-.1.4-.2.1 0 .2 0 .3v.2c0 .1 0 .3.1.4.1.2.3.4.4.5.2.1.4.6.6.6.2 0 .4-.1.5-.1.2 0 .4 0 .6-.1.2-.1.1-.3.3-.5.1-.1.3 0 .4-.1.2-.1.3-.3.4-.5v-.2c0-.1.1-.2.1-.3 0-.1-.1-.1-.1-.2v-.3c0-.2 0-.4-.1-.5-.4-.7-1.2-.9-2-.8-.2 0-.3.1-.4.2-.2.1-.1.2-.3.2-.1 0-.2.1-.2.2v.3m-7.7 0v.2c-.1.1-.1.1-.2.1-.1.1-.1.3-.1.4-.2.1 0 .2 0 .3v.2c0 .1 0 .3.1.4.1.2.3.4.4.5.2.1.4.6.6.6.2 0 .4-.1.5-.1.2 0 .4 0 .6-.1.2-.1.1-.3.3-.5.1-.1.3 0 .4-.1.2-.1.3-.3.4-.5v-.2c0-.1.1-.2.1-.3 0-.1-.1-.1-.1-.2v-.3c0-.2 0-.4-.1-.5-.4-.7-1.2-.9-2-.8-.2 0-.3.1-.4.2-.2.1-.1.2-.3.2-.1 0-.2.1-.2.2v.3m-7.7 0v.2c-.1.1-.1.1-.2.1-.1.1-.1.3-.1.4-.2.1 0 .2 0 .3v.2c0 .1 0 .3.1.4.1.2.3.4.4.5.2.1.4.6.6.6.2 0 .4-.1.5-.1.2 0 .4 0 .6-.1.2-.1.1-.3.3-.5.1-.1.3 0 .4-.1.2-.1.3-.3.4-.5v-.2c0-.1.1-.2.1-.3 0-.1-.1-.1-.1-.2v-.3c0-.2 0-.4-.1-.5-.4-.7-1.2-.9-2-.8-.2 0-.3.1-.4.2-.2.1-.1.2-.3.2-.1 0-.2.1-.2.2v.3m-7.6 0v.2c-.1.1-.1.1-.2.1-.1.1-.1.3-.1.4-.2.1 0 .2 0 .3v.2c0 .1 0 .3.1.4.1.2.3.4.4.5.2.1.4.6.6.6.2 0 .4-.1.5-.1.2 0 .4 0 .6-.1.2-.1.1-.3.3-.5.1-.1.3 0 .4-.1.2-.1.3-.3.4-.5v-.2c0-.1.1-.2.1-.3 0-.1-.1-.1-.1-.2v-.3c0-.2 0-.4-.1-.5-.4-.7-1.2-.9-2-.8-.2 0-.3.1-.4.2-.2.1-.1.2-.3.2-.1 0-.2.1-.2.2v.3m-7.7 0v.2c-.1.1-.1.1-.2.1-.1.1-.1.3-.1.4-.2.1 0 .2 0 .3v.2c0 .1 0 .3.1.4.1.2.3.4.4.5.2.1.4.6.6.6.2 0 .4-.1.5-.1.2 0 .4 0 .6-.1.2-.1.1-.3.3-.5.1-.1.3 0 .4-.1.2-.1.3-.3.4-.5v-.2c0-.1.1-.2.1-.3 0-.1-.1-.1-.1-.2v-.3c0-.2 0-.4-.1-.5-.4-.7-1.2-.9-2-.8-.2 0-.3.1-.4.2-.2.1-.1.2-.3.2-.1 0-.2.1-.2.2v.3m-7.6 0v.2c-.1.1-.2.1-.2.1-.1.1-.1.3-.1.4-.2.1 0 .2 0 .3v.2c0 .1 0 .3.1.4 0 .2.2.4.3.5.2.1.4.6.6.6.2 0 .4-.1.5-.1.2 0 .4 0 .6-.1.2-.1.1-.3.3-.5.1-.1.3 0 .4-.1.2-.1.3-.3.4-.5v-.2c0-.1.1-.2.1-.3 0-.1-.1-.1-.1-.2v-.3c0-.2 0-.4-.1-.5-.4-.7-1.2-.9-2-.8-.2 0-.3.1-.4.2-.2.1-.1.2-.3.2-.1 0-.2.1-.2.2.1.3.1.2.1.3-.1 0-.1 0 0 0M.5-64v.2c-.1.1-.1.1-.2.1-.1.1-.1.3-.1.4-.2.1 0 .2 0 .3v.2c0 .1 0 .3.1.4.1.2.3.4.4.5.2.1.4.6.6.6.2 0 .4-.1.5-.1.2 0 .4 0 .6-.1.2-.1.1-.3.3-.5.1 0 .3.1.4 0 .2-.1.3-.3.4-.5v-.2c0-.1.1-.2.1-.3 0-.1-.1-.1-.1-.2v-.3c0-.2 0-.4-.1-.5-.4-.7-1.2-.9-2-.8-.2 0-.3.1-.4.2-.2.1-.1.2-.3.2-.1 0-.2.1-.2.2v.2m68.9 7.7v.2c-.1.1-.1.1-.2.1-.1.1-.1.3-.1.4-.2.1 0 .2 0 .3v.2c0 .1 0 .3.1.4.1.2.3.4.4.5.2.1.4.6.6.6.2 0 .4-.1.5-.1.2 0 .4 0 .6-.1.2-.1.1-.3.3-.5.1-.1.3 0 .4-.1.2-.1.3-.3.4-.5v-.2c0-.1.1-.2.1-.3 0-.1-.1-.1-.1-.2v-.3c0-.2 0-.4-.1-.5-.4-.7-1.2-.9-2-.8-.2 0-.3.1-.4.2-.2.1-.1.2-.3.2-.1 0-.2.1-.2.2v.3m-7.6 0v.2c-.1.1-.1.1-.2.1-.1.1-.1.3-.1.4-.2.1 0 .2 0 .3v.2c0 .1 0 .3.1.4.1.2.3.4.4.5.2.1.4.6.6.6.2 0 .4-.1.5-.1.2 0 .4 0 .6-.1.2-.1.1-.3.3-.5.1-.1.3 0 .4-.1.2-.1.3-.3.4-.5v-.2c0-.1.1-.2.1-.3 0-.1-.1-.1-.1-.2v-.3c0-.2 0-.4-.1-.5-.4-.7-1.2-.9-2-.8-.2 0-.3.1-.4.2-.2.1-.1.2-.3.2-.1 0-.2.1-.2.2v.3m-7.7 0v.2c-.1 0-.1 0-.2.1s-.1.3-.1.4c-.2.1 0 .2 0 .3v.2c0 .1 0 .3.1.4.1.2.3.4.4.5.2.1.4.6.6.6.2 0 .4-.1.5-.1.2 0 .4 0 .6-.1.2-.1.1-.3.3-.5.1-.1.3 0 .4-.1.2-.1.3-.3.4-.5v-.2c0-.1.1-.2.1-.3 0-.1-.1-.1-.1-.2v-.3c0-.2 0-.4-.1-.5-.4-.7-1.2-.9-2-.8-.2 0-.3.1-.4.2-.2.1-.1.2-.3.2-.1 0-.2.1-.2.2v.3m-7.6 0v.2c-.1.1-.1.1-.2.1-.1.1-.1.3-.1.4-.2.1 0 .2 0 .3v.2c0 .1 0 .3.1.4.1.2.3.4.4.5.2.1.4.6.6.6.2 0 .4-.1.5-.1.2 0 .4 0 .6-.1.2-.1.1-.3.3-.5.1-.1.3 0 .4-.1.2-.1.3-.3.4-.5v-.2c0-.1.1-.2.1-.3 0-.1-.1-.1-.1-.2v-.3c0-.2 0-.4-.1-.5-.4-.7-1.2-.9-2-.8-.2 0-.3.1-.4.2-.2.1-.1.2-.3.2-.1 0-.2.1-.2.2v.3m-7.7 0v.2c-.1.1-.1.1-.2.1-.1.1-.1.3-.1.4-.2.1 0 .2 0 .3v.2c0 .1 0 .3.1.4.1.2.3.4.4.5.2.1.4.6.6.6.2 0 .4-.1.5-.1.2 0 .4 0 .6-.1.2-.1.1-.3.3-.5.1-.1.3 0 .4-.1.2-.1.3-.3.4-.5v-.2c0-.1.1-.2.1-.3 0-.1-.1-.1-.1-.2v-.3c0-.2 0-.4-.1-.5-.4-.7-1.2-.9-2-.8-.2 0-.3.1-.4.2-.2.1-.1.2-.3.2-.1 0-.2.1-.2.2v.3m-7.7 0v.2c-.1.1-.1.1-.2.1-.1.1-.1.3-.1.4-.2.1 0 .2 0 .3v.2c0 .1 0 .3.1.4.1.2.3.4.4.5.2.1.4.6.6.6.2 0 .4-.1.5-.1.2 0 .4 0 .6-.1.2-.1.1-.3.3-.5.1-.1.3 0 .4-.1.2-.1.3-.3.4-.5v-.2c0-.1.1-.2.1-.3 0-.1-.1-.1-.1-.2v-.3c0-.2 0-.4-.1-.5-.4-.7-1.2-.9-2-.8-.2 0-.3.1-.4.2-.2.1-.1.2-.3.2-.1 0-.2.1-.2.2v.3m-7.6 0v.2c-.1.1-.1.1-.2.1-.1.1-.1.3-.1.4-.2.1 0 .2 0 .3v.2c0 .1 0 .3.1.4.1.2.3.4.4.5.2.1.4.6.6.6.2 0 .4-.1.5-.1.2 0 .4 0 .6-.1.2-.1.1-.3.3-.5.1-.1.3 0 .4-.1.2-.1.3-.3.4-.5v-.2c0-.1.1-.2.1-.3 0-.1-.1-.1-.1-.2v-.3c0-.2 0-.4-.1-.5-.4-.7-1.2-.9-2-.8-.2 0-.3.1-.4.2-.2.1-.1.2-.3.2-.1 0-.2.1-.2.2v.3m-7.7 0v.2c-.1.1-.1.1-.2.1-.1.1-.1.3-.1.4-.2.1 0 .2 0 .3v.2c0 .1 0 .3.1.4.1.2.3.4.4.5.2.1.4.6.6.6.2 0 .4-.1.5-.1.2 0 .4 0 .6-.1.2-.1.1-.3.3-.5.1-.1.3 0 .4-.1.2-.1.3-.3.4-.5v-.2c0-.1.1-.2.1-.3 0-.1-.1-.1-.1-.2v-.3c0-.2 0-.4-.1-.5-.4-.7-1.2-.9-2-.8-.2 0-.3.1-.4.2-.2.1-.1.2-.3.2-.1 0-.2.1-.2.2v.3m-7.6 0v.2c-.1 0-.2 0-.2.1-.1.1-.1.3-.1.4-.2.1 0 .2 0 .3v.2c0 .1 0 .3.1.4.1.2.3.4.4.5.2.1.4.6.6.6.2 0 .4-.1.5-.1.2 0 .4 0 .6-.1.2-.1.1-.3.3-.5.1-.1.3 0 .4-.1.2-.1.3-.3.4-.5v-.2c0-.1.1-.2.1-.3 0-.1-.1-.1-.1-.2v-.3c0-.2 0-.4-.1-.5-.4-.7-1.2-.9-2-.8-.2 0-.3.1-.4.2-.2.1-.1.2-.3.2-.1 0-.2.1-.2.2v.3c-.1 0-.1 0 0 0m-7.7 0v.2c-.1.1-.1.1-.2.1-.1.1-.1.3-.1.4-.2.1 0 .2 0 .3v.2c0 .1 0 .3.1.4.1.2.3.4.4.5.2.1.4.6.6.6.2 0 .4-.1.5-.1.2 0 .4 0 .6-.1.2-.1.1-.3.3-.5.1-.1.3 0 .4-.1.2-.1.3-.3.4-.5v-.2c0-.1.1-.2.1-.3 0-.1-.1-.1-.1-.2v-.3c0-.2 0-.4-.1-.5-.4-.7-1.2-.9-2-.8-.2 0-.3.1-.4.2-.2.1-.1.2-.3.2-.1 0-.2.1-.2.2v.3m68.9 7.6v.2c-.1.1-.1.1-.2.1-.1.1-.1.3-.1.4-.2.1 0 .2 0 .3v.2c0 .1 0 .3.1.4.1.2.3.4.4.5.2.1.4.6.6.6.2 0 .4-.1.5-.1.2 0 .4 0 .6-.1.2-.1.1-.3.3-.5.1-.1.3 0 .4-.1.2-.1.3-.3.4-.5v-.2c0-.1.1-.2.1-.3 0-.1-.1-.1-.1-.2v-.3c0-.2 0-.4-.1-.5-.4-.7-1.2-.9-2-.8-.2 0-.3.1-.4.2-.2.1-.1.2-.3.2-.1 0-.2.1-.2.2v.3m-7.6 0v.2c-.1.1-.1.1-.2.1-.1.1-.1.3-.1.4-.2.1 0 .2 0 .3v.2c0 .1 0 .3.1.4.1.2.3.4.4.5.2.1.4.6.6.6.2 0 .4-.1.5-.1.2 0 .4 0 .6-.1.2-.1.1-.3.3-.5.1-.1.3 0 .4-.1.2-.1.3-.3.4-.5v-.2c0-.1.1-.2.1-.3 0-.1-.1-.1-.1-.2v-.3c0-.2 0-.4-.1-.5-.4-.7-1.2-.9-2-.8-.2 0-.3.1-.4.2-.2.1-.1.2-.3.2-.1 0-.2.1-.2.2v.3m-7.7 0v.2c-.1.1-.1.1-.2.1-.1.1-.1.3-.1.4-.2.1 0 .2 0 .3v.2c0 .1 0 .3.1.4.1.2.3.4.4.5.2.1.4.6.6.6.2 0 .4-.1.5-.1.2 0 .4 0 .6-.1.2-.1.1-.3.3-.5.1-.1.3 0 .4-.1.2-.1.3-.3.4-.5v-.2c0-.1.1-.2.1-.3 0-.1-.1-.1-.1-.2v-.3c0-.2 0-.4-.1-.5-.4-.7-1.2-.9-2-.8-.2 0-.3.1-.4.2-.2.1-.1.2-.3.2-.1 0-.2.1-.2.2v.3m-7.6 0v.2c-.1.1-.1.1-.2.1-.1.1-.1.3-.1.4-.2.1 0 .2 0 .3v.2c0 .1 0 .3.1.4.1.2.3.4.4.5.2.1.4.6.6.6.2 0 .4-.1.5-.1.2 0 .4 0 .6-.1.2-.1.1-.3.3-.5.1-.1.3 0 .4-.1.2-.1.3-.3.4-.5v-.2c0-.1.1-.2.1-.3 0-.1-.1-.1-.1-.2v-.3c0-.2 0-.4-.1-.5-.4-.7-1.2-.9-2-.8-.2 0-.3.1-.4.2-.2.1-.1.2-.3.2-.1 0-.2.1-.2.2v.3m-7.7 0v.2c-.1.1-.1.1-.2.1-.1.1-.1.3-.1.4-.2.1 0 .2 0 .3v.2c0 .1 0 .3.1.4.1.2.3.4.4.5.2.1.4.6.6.6.2 0 .4-.1.5-.1.2 0 .4 0 .6-.1.2-.1.1-.3.3-.5.1-.1.3 0 .4-.1.2-.1.3-.3.4-.5v-.2c0-.1.1-.2.1-.3 0-.1-.1-.1-.1-.2v-.3c0-.2 0-.4-.1-.5-.4-.7-1.2-.9-2-.8-.2 0-.3.1-.4.2-.2.1-.1.2-.3.2-.1 0-.2.1-.2.2v.3m-7.7 0v.2c-.1.1-.1.1-.2.1-.1.1-.1.3-.1.4-.2.1 0 .2 0 .3v.2c0 .1 0 .3.1.4.1.2.3.4.4.5.2.1.4.6.6.6.2 0 .4-.1.5-.1.2 0 .4 0 .6-.1.2-.1.1-.3.3-.5.1-.1.3 0 .4-.1.2-.1.3-.3.4-.5v-.2c0-.1.1-.2.1-.3 0-.1-.1-.1-.1-.2v-.3c0-.2 0-.4-.1-.5-.4-.7-1.2-.9-2-.8-.2 0-.3.1-.4.2-.2.1-.1.2-.3.2-.1 0-.2.1-.2.2v.3m-7.6 0v.2c-.1.1-.1.1-.2.1-.1.1-.1.3-.1.4-.2.1 0 .2 0 .3v.2c0 .1 0 .3.1.4.1.2.3.4.4.5.2.1.4.6.6.6.2 0 .4-.1.5-.1.2 0 .4 0 .6-.1.2-.1.1-.3.3-.5.1-.1.3 0 .4-.1.2-.1.3-.3.4-.5v-.2c0-.1.1-.2.1-.3 0-.1-.1-.1-.1-.2v-.3c0-.2 0-.4-.1-.5-.4-.7-1.2-.9-2-.8-.2 0-.3.1-.4.2-.2.1-.1.2-.3.2-.1 0-.2.1-.2.2v.3m-7.7 0v.2c-.1.1-.1.1-.2.1-.1.1-.1.3-.1.4-.2.1 0 .2 0 .3v.2c0 .1 0 .3.1.4.1.2.3.4.4.5.2.1.4.6.6.6.2 0 .4-.1.5-.1.2 0 .4 0 .6-.1.2-.1.1-.3.3-.5.1-.1.3 0 .4-.1.2-.1.3-.3.4-.5v-.2c0-.1.1-.2.1-.3 0-.1-.1-.1-.1-.2v-.3c0-.2 0-.4-.1-.5-.4-.7-1.2-.9-2-.8-.2 0-.3.1-.4.2-.2.1-.1.2-.3.2-.1 0-.2.1-.2.2v.3m-7.6 0v.2c-.1.1-.2.1-.2.1-.1.1-.1.3-.1.4-.2.1 0 .2 0 .3v.2c0 .1 0 .3.1.4.1.2.3.4.4.5.1.2.3.6.5.6s.4-.1.5-.1c.2 0 .4 0 .6-.1.2-.1.1-.3.3-.5.1-.1.3 0 .4-.1.2-.1.3-.3.4-.5v-.2c0-.1.1-.2.1-.3 0-.1-.1-.1-.1-.2v-.3c0-.2 0-.4-.1-.5-.4-.7-1.2-.9-2-.8-.2 0-.3.1-.4.2-.2.1-.1.2-.3.2-.1 0-.2.1-.2.2.1.3.1.2.1.3-.1 0-.1 0 0 0m-7.7 0v.2c-.1.1-.1.1-.2.1-.1.1-.1.3-.1.4-.2.1 0 .2 0 .3v.2c0 .1 0 .3.1.4.1.2.3.4.4.5.2.2.3.6.6.6.2 0 .4-.1.5-.1.2 0 .4 0 .6-.1.2-.1.1-.3.3-.5.1-.1.3 0 .4-.1.2-.1.3-.3.4-.5v-.2c0-.1.1-.2.1-.3 0-.1-.1-.1-.1-.2v-.3c0-.2 0-.4-.1-.5-.4-.7-1.2-.9-2-.8-.2 0-.3.1-.4.2-.2.1-.1.2-.3.2-.1 0-.2.1-.2.2v.3M69.4-41v.2c-.1.1-.1.1-.2.1-.1.1-.1.3-.1.4-.2.1 0 .2 0 .3v.2c0 .1 0 .3.1.4.1.2.3.4.4.5.2.1.4.6.6.6.2 0 .4-.1.5-.1.2 0 .4 0 .6-.1.2-.1.1-.3.3-.5.1-.1.3 0 .4-.1.2-.1.3-.3.4-.5v-.2c0-.1.1-.2.1-.3 0-.1-.1-.1-.1-.2v-.3c0-.2 0-.4-.1-.5-.4-.7-1.2-.9-2-.8-.2 0-.3.1-.4.2-.2.1-.1.2-.3.2-.1 0-.2.1-.2.2v.3m-7.6 0v.2c-.1.1-.1.1-.2.1-.1.1-.1.3-.1.4-.2.1 0 .2 0 .3v.2c0 .1 0 .3.1.4.1.2.3.4.4.5.2.1.4.6.6.6.2 0 .4-.1.5-.1.2 0 .4 0 .6-.1.2-.1.1-.3.3-.5.1-.1.3 0 .4-.1.2-.1.3-.3.4-.5v-.2c0-.1.1-.2.1-.3 0-.1-.1-.1-.1-.2v-.3c0-.2 0-.4-.1-.5-.4-.7-1.2-.9-2-.8-.2 0-.3.1-.4.2-.2.1-.1.2-.3.2-.1 0-.2.1-.2.2v.3m-7.7 0v.2c-.1.1-.1.1-.2.1-.1.1-.1.3-.1.4-.2.1 0 .2 0 .3v.2c0 .1 0 .3.1.4.1.2.3.4.4.5.2.1.4.6.6.6.2 0 .4-.1.5-.1.2 0 .4 0 .6-.1.2-.1.1-.3.3-.5.1-.1.3 0 .4-.1.2-.1.3-.3.4-.5v-.2c0-.1.1-.2.1-.3 0-.1-.1-.1-.1-.2v-.3c0-.2 0-.4-.1-.5-.4-.7-1.2-.9-2-.8-.2 0-.3.1-.4.2-.2.1-.1.2-.3.2-.1 0-.2.1-.2.2v.3m-7.6 0v.2c-.1.1-.1.1-.2.1-.1.1-.1.3-.1.4-.2.1 0 .2 0 .3v.2c0 .1 0 .3.1.4.1.2.3.4.4.5.2.1.4.6.6.6.2 0 .4-.1.5-.1.2 0 .4 0 .6-.1.2-.1.1-.3.3-.5.1-.1.3 0 .4-.1.2-.1.3-.3.4-.5v-.2c0-.1.1-.2.1-.3 0-.1-.1-.1-.1-.2v-.3c0-.2 0-.4-.1-.5-.4-.7-1.2-.9-2-.8-.2 0-.3.1-.4.2-.2.1-.1.2-.3.2-.1 0-.2.1-.2.2v.3m-7.7 0v.2c-.1.1-.1.1-.2.1-.1.1-.1.3-.1.4-.2.1 0 .2 0 .3v.2c0 .1 0 .3.1.4.1.2.3.4.4.5.2.1.4.6.6.6.2 0 .4-.1.5-.1.2 0 .4 0 .6-.1.2-.1.1-.3.3-.5.1-.1.3 0 .4-.1.2-.1.3-.3.4-.5v-.2c0-.1.1-.2.1-.3 0-.1-.1-.1-.1-.2v-.3c0-.2 0-.4-.1-.5-.4-.7-1.2-.9-2-.8-.2 0-.3.1-.4.2-.2.1-.1.2-.3.2-.1 0-.2.1-.2.2v.3m-7.7 0v.2c-.1.1-.1.1-.2.1-.1.1-.1.3-.1.4-.2.1 0 .2 0 .3v.2c0 .1 0 .3.1.4.1.2.3.4.4.5.2.1.4.6.6.6.2 0 .4-.1.5-.1.2 0 .4 0 .6-.1.2-.1.1-.3.3-.5.1-.1.3 0 .4-.1.2-.1.3-.3.4-.5v-.2c0-.1.1-.2.1-.3 0-.1-.1-.1-.1-.2v-.3c0-.2 0-.4-.1-.5-.4-.7-1.2-.9-2-.8-.2 0-.3.1-.4.2-.2.1-.1.2-.3.2-.1 0-.2.1-.2.2v.3m-7.6 0v.2c-.1.1-.1.1-.2.1-.1.1-.1.3-.1.4-.2.1 0 .2 0 .3v.2c0 .1 0 .3.1.4.1.2.3.4.4.5.2.1.4.6.6.6.2 0 .4-.1.5-.1.2 0 .4 0 .6-.1.2-.1.1-.3.3-.5.1-.1.3 0 .4-.1.2-.1.3-.3.4-.5v-.2c0-.1.1-.2.1-.3 0-.1-.1-.1-.1-.2v-.3c0-.2 0-.4-.1-.5-.4-.7-1.2-.9-2-.8-.2 0-.3.1-.4.2-.2.1-.1.2-.3.2-.1 0-.2.1-.2.2v.3m-7.7 0v.2c-.1.1-.1.1-.2.1-.1.1-.1.3-.1.4-.2.1 0 .2 0 .3v.2c0 .1 0 .3.1.4.1.2.3.4.4.5.2.1.4.6.6.6.2 0 .4-.1.5-.1.2 0 .4 0 .6-.1.2-.1.1-.3.3-.5.1-.1.3 0 .4-.1.2-.1.3-.3.4-.5v-.2c0-.1.1-.2.1-.3 0-.1-.1-.1-.1-.2v-.3c0-.2 0-.4-.1-.5-.4-.7-1.2-.9-2-.8-.2 0-.3.1-.4.2-.2.1-.1.2-.3.2-.1 0-.2.1-.2.2v.3m-7.6 0v.2c-.1 0-.2 0-.2.1-.1.1-.1.3-.1.4-.2.1 0 .2 0 .3v.2c0 .1 0 .3.1.4.1.2.3.4.4.5.2.1.4.6.6.6.2 0 .4-.1.5-.1.2 0 .4 0 .6-.1.2-.1.1-.3.3-.5.1-.1.3 0 .4-.1.2-.1.3-.3.4-.5v-.2c0-.1.1-.2.1-.3 0-.1-.1-.1-.1-.2v-.3c0-.2 0-.4-.1-.5-.4-.7-1.2-.9-2-.8-.2 0-.3.1-.4.2-.2.1-.1.2-.3.2-.1 0-.2.1-.2.2v.3c-.1 0-.1 0 0 0M.5-41v.2c-.1.1-.1.1-.2.1-.1.1-.1.3-.1.4-.2.1 0 .2 0 .3v.2c0 .1 0 .3.1.4.1.2.3.4.4.5.2.1.4.6.6.6.2 0 .4-.1.5-.1.2 0 .4 0 .6-.1.2-.1.1-.3.3-.5h.4c.2-.1.3-.3.4-.5v-.2c0-.1.1-.2.1-.3 0-.1-.1-.1-.1-.2v-.3c0-.2 0-.4-.1-.5-.4-.7-1.2-.9-2-.8-.2 0-.3.1-.4.2-.2.1-.1.2-.3.2-.1 0-.2.1-.2.2v.2m68.9 7.6v.2c-.1.1-.1.1-.2.1-.1.1-.1.3-.1.4-.2.1 0 .2 0 .3v.2c0 .1 0 .3.1.4.1.2.3.4.4.5.2.1.4.6.6.6.2 0 .4-.1.5-.1.2 0 .4 0 .6-.1.2-.1.1-.3.3-.5.1-.1.3 0 .4-.1.2-.1.3-.3.4-.5v-.2c0-.1.1-.2.1-.3 0-.1-.1-.1-.1-.2v-.3c0-.2 0-.4-.1-.5-.4-.7-1.2-.9-2-.8-.2 0-.3.1-.4.2-.2.1-.1.2-.3.2-.1 0-.2.1-.2.2v.3m-7.6 0v.2c-.1.1-.1.1-.2.1-.1.1-.1.3-.1.4-.2.1 0 .2 0 .3v.2c0 .1 0 .3.1.4.1.2.3.4.4.5.2.1.4.6.6.6.2 0 .4-.1.5-.1.2 0 .4 0 .6-.1.2-.1.1-.3.3-.5.1-.1.3 0 .4-.1.2-.1.3-.3.4-.5v-.2c0-.1.1-.2.1-.3 0-.1-.1-.1-.1-.2v-.3c0-.2 0-.4-.1-.5-.4-.7-1.2-.9-2-.8-.2 0-.3.1-.4.2-.2.1-.1.2-.3.2-.1 0-.2.1-.2.2v.3m-7.7 0v.2c-.1.1-.1.1-.2.1-.1.1-.1.3-.1.4-.2.1 0 .2 0 .3v.2c0 .1 0 .3.1.4.1.2.3.4.4.5.2.1.4.6.6.6.2 0 .4-.1.5-.1.2 0 .4 0 .6-.1.2-.1.1-.3.3-.5.1-.1.3 0 .4-.1.2-.1.3-.3.4-.5v-.2c0-.1.1-.2.1-.3 0-.1-.1-.1-.1-.2v-.3c0-.2 0-.4-.1-.5-.4-.7-1.2-.9-2-.8-.2 0-.3.1-.4.2-.2.1-.1.2-.3.2-.1 0-.2.1-.2.2v.3m-7.6 0v.2c-.1.1-.1.1-.2.1-.1.1-.1.3-.1.4-.2.1 0 .2 0 .3v.2c0 .1 0 .3.1.4.1.2.3.4.4.5.2.1.4.6.6.6.2 0 .4-.1.5-.1.2 0 .4 0 .6-.1.2-.1.1-.3.3-.5.1-.1.3 0 .4-.1.2-.1.3-.3.4-.5v-.2c0-.1.1-.2.1-.3 0-.1-.1-.1-.1-.2v-.3c0-.2 0-.4-.1-.5-.4-.7-1.2-.9-2-.8-.2 0-.3.1-.4.2-.2.1-.1.2-.3.2-.1 0-.2.1-.2.2v.3m-7.7 0v.2c-.1.1-.1.1-.2.1-.1.1-.1.3-.1.4-.2.1 0 .2 0 .3v.2c0 .1 0 .3.1.4.1.2.3.4.4.5.2.1.4.6.6.6.2 0 .4-.1.5-.1.2 0 .4 0 .6-.1.2-.1.1-.3.3-.5.1-.1.3 0 .4-.1.2-.1.3-.3.4-.5v-.2c0-.1.1-.2.1-.3 0-.1-.1-.1-.1-.2v-.3c0-.2 0-.4-.1-.5-.4-.7-1.2-.9-2-.8-.2 0-.3.1-.4.2-.2.1-.1.2-.3.2-.1 0-.2.1-.2.2v.3m-7.7 0v.2c-.1.1-.1.1-.2.1-.1.1-.1.3-.1.4-.2.1 0 .2 0 .3v.2c0 .1 0 .3.1.4.1.2.3.4.4.5.2.1.4.6.6.6.2 0 .4-.1.5-.1.2 0 .4 0 .6-.1.2-.1.1-.3.3-.5.1-.1.3 0 .4-.1.2-.1.3-.3.4-.5v-.2c0-.1.1-.2.1-.3 0-.1-.1-.1-.1-.2v-.3c0-.2 0-.4-.1-.5-.4-.7-1.2-.9-2-.8-.2 0-.3.1-.4.2-.2.1-.1.2-.3.2-.1 0-.2.1-.2.2v.3m-7.6 0v.2c-.1.1-.1.1-.2.1-.1.1-.1.3-.1.4-.2.1 0 .2 0 .3v.2c0 .1 0 .3.1.4.1.2.3.4.4.5.2.1.4.6.6.6.2 0 .4-.1.5-.1.2 0 .4 0 .6-.1.2-.1.1-.3.3-.5.1-.1.3 0 .4-.1.2-.1.3-.3.4-.5v-.2c0-.1.1-.2.1-.3 0-.1-.1-.1-.1-.2v-.3c0-.2 0-.4-.1-.5-.4-.7-1.2-.9-2-.8-.2 0-.3.1-.4.2-.2.1-.1.2-.3.2-.1 0-.2.1-.2.2v.3m-7.7 0v.2c-.1.1-.1.1-.2.1-.1.1-.1.3-.1.4-.2.1 0 .2 0 .3v.2c0 .1 0 .3.1.4.1.2.3.4.4.5.2.1.4.6.6.6.2 0 .4-.1.5-.1.2 0 .4 0 .6-.1.2-.1.1-.3.3-.5.1-.1.3 0 .4-.1.2-.1.3-.3.4-.5v-.2c0-.1.1-.2.1-.3 0-.1-.1-.1-.1-.2v-.3c0-.2 0-.4-.1-.5-.4-.7-1.2-.9-2-.8-.2 0-.3.1-.4.2-.2.1-.1.2-.3.2-.1 0-.2.1-.2.2v.3m-7.6 0v.2c-.1.1-.2.1-.2.1-.1.1-.1.3-.1.4-.2.1 0 .2 0 .3v.2c0 .1 0 .3.1.4.1.2.3.4.4.5.2.1.4.6.6.6.2 0 .4-.1.5-.1.2 0 .4 0 .6-.1.2-.1.1-.3.3-.5.1-.1.3 0 .4-.1.2-.1.3-.3.4-.5v-.2c0-.1.1-.2.1-.3 0-.1-.1-.1-.1-.2v-.3c0-.2 0-.4-.1-.5-.4-.7-1.2-.9-2-.8-.2 0-.3.1-.4.2-.2.1-.1.2-.3.2-.1 0-.2.1-.2.2v.3c-.1 0-.1 0 0 0m-7.7 0v.2c-.1.1-.1.1-.2.1-.1.1-.1.3-.1.4-.2.1 0 .2 0 .3v.2c0 .1 0 .3.1.4.1.2.3.4.4.5.2.1.4.6.6.6.2 0 .4-.1.5-.1.2 0 .4 0 .6-.1.2-.1.1-.3.3-.5.1-.1.3 0 .4-.1.2-.1.3-.3.4-.5v-.2c0-.1.1-.2.1-.3 0-.1-.1-.1-.1-.2v-.3c0-.2 0-.4-.1-.5-.4-.7-1.2-.9-2-.8-.2 0-.3.1-.4.2-.2.1-.1.2-.3.2-.1 0-.2.1-.2.2v.3m68.9 7.7v.2c-.1.1-.1.1-.2.1-.1.1-.1.3-.1.4-.2.1 0 .2 0 .3v.2c0 .1 0 .3.1.4.1.2.3.4.4.5.2.1.4.6.6.6.2 0 .4-.1.5-.1.2 0 .4 0 .6-.1.2-.1.1-.3.3-.5.1-.1.3 0 .4-.1.2-.1.3-.3.4-.5v-.2c0-.1.1-.2.1-.3 0-.1-.1-.1-.1-.2v-.3c0-.2 0-.4-.1-.5-.4-.7-1.2-.9-2-.8-.2 0-.3.1-.4.2-.2.1-.1.2-.3.2-.1 0-.2.1-.2.2v.3m-7.6 0v.2c-.1.1-.1.1-.2.1-.1.1-.1.3-.1.4-.2.1 0 .2 0 .3v.2c0 .1 0 .3.1.4.1.2.3.4.4.5.2.1.4.6.6.6.2 0 .4-.1.5-.1.2 0 .4 0 .6-.1.2-.1.1-.3.3-.5.1-.1.3 0 .4-.1.2-.1.3-.3.4-.5v-.2c0-.1.1-.2.1-.3 0-.1-.1-.1-.1-.2v-.3c0-.2 0-.4-.1-.5-.4-.7-1.2-.9-2-.8-.2 0-.3.1-.4.2-.2.1-.1.2-.3.2-.1 0-.2.1-.2.2v.3m-7.7 0v.2c-.1.1-.1.1-.2.1-.1.1-.1.3-.1.4-.2.1 0 .2 0 .3v.2c0 .1 0 .3.1.4.1.2.3.4.4.5.2.1.4.6.6.6.2 0 .4-.1.5-.1.2 0 .4 0 .6-.1.2-.1.1-.3.3-.5.1-.1.3 0 .4-.1.2-.1.3-.3.4-.5v-.2c0-.1.1-.2.1-.3 0-.1-.1-.1-.1-.2v-.3c0-.2 0-.4-.1-.5-.4-.7-1.2-.9-2-.8-.2 0-.3.1-.4.2-.2.1-.1.2-.3.2-.1 0-.2.1-.2.2v.3m-7.6 0v.2c-.1.1-.1.1-.2.1-.1.1-.1.3-.1.4-.2.1 0 .2 0 .3v.2c0 .1 0 .3.1.4.1.2.3.4.4.5.2.1.4.6.6.6.2 0 .4-.1.5-.1.2 0 .4 0 .6-.1.2-.1.1-.3.3-.5.1-.1.3 0 .4-.1.2-.1.3-.3.4-.5v-.2c0-.1.1-.2.1-.3 0-.1-.1-.1-.1-.2v-.3c0-.2 0-.4-.1-.5-.4-.7-1.2-.9-2-.8-.2 0-.3.1-.4.2-.2.1-.1.2-.3.2-.1 0-.2.1-.2.2v.3m-7.7 0v.2c-.1.1-.1.1-.2.1-.1.1-.1.3-.1.4-.2.1 0 .2 0 .3v.2c0 .1 0 .3.1.4.1.2.3.4.4.5.2.1.4.6.6.6.2 0 .4-.1.5-.1.2 0 .4 0 .6-.1.2-.1.1-.3.3-.5.1-.1.3 0 .4-.1.2-.1.3-.3.4-.5v-.2c0-.1.1-.2.1-.3 0-.1-.1-.1-.1-.2v-.3c0-.2 0-.4-.1-.5-.4-.7-1.2-.9-2-.8-.2 0-.3.1-.4.2-.2.1-.1.2-.3.2-.1 0-.2.1-.2.2v.3m-7.7 0v.2c-.1.1-.1.1-.2.1-.1.1-.1.3-.1.4-.2.1 0 .2 0 .3v.2c0 .1 0 .3.1.4.1.2.3.4.4.5.2.1.4.6.6.6.2 0 .4-.1.5-.1.2 0 .4 0 .6-.1.2-.1.1-.3.3-.5.1-.1.3 0 .4-.1.2-.1.3-.3.4-.5v-.2c0-.1.1-.2.1-.3 0-.1-.1-.1-.1-.2v-.3c0-.2 0-.4-.1-.5-.4-.7-1.2-.9-2-.8-.2 0-.3.1-.4.2-.2.1-.1.2-.3.2-.1 0-.2.1-.2.2v.3m-7.6 0v.2c-.1.1-.1.1-.2.1-.1.1-.1.3-.1.4-.2.1 0 .2 0 .3v.2c0 .1 0 .3.1.4.1.2.3.4.4.5.2.1.4.6.6.6.2 0 .4-.1.5-.1.2 0 .4 0 .6-.1.2-.1.1-.3.3-.5.1-.1.3 0 .4-.1.2-.1.3-.3.4-.5v-.2c0-.1.1-.2.1-.3 0-.1-.1-.1-.1-.2v-.3c0-.2 0-.4-.1-.5-.4-.7-1.2-.9-2-.8-.2 0-.3.1-.4.2-.2.1-.1.2-.3.2-.1 0-.2.1-.2.2v.3m-7.7 0v.2c-.1.1-.1.1-.2.1-.1.1-.1.3-.1.4-.2.1 0 .2 0 .3v.2c0 .1 0 .3.1.4.1.2.3.4.4.5.2.1.4.6.6.6.2 0 .4-.1.5-.1.2 0 .4 0 .6-.1.2-.1.1-.3.3-.5.1-.1.3 0 .4-.1.2-.1.3-.3.4-.5v-.2c0-.1.1-.2.1-.3 0-.1-.1-.1-.1-.2v-.3c0-.2 0-.4-.1-.5-.4-.7-1.2-.9-2-.8-.2 0-.3.1-.4.2-.2.1-.1.2-.3.2-.1 0-.2.1-.2.2v.3m-7.6 0v.2c-.1.1-.2 0-.2.1-.1.1-.1.3-.1.4-.2.1 0 .2 0 .3v.2c0 .1 0 .3.1.4 0 .1.2.3.3.5.2.1.4.6.6.6.2 0 .4-.1.5-.1.2 0 .4 0 .6-.1.2-.1.1-.3.3-.5.1-.1.3 0 .4-.1.2-.1.3-.3.4-.5v-.2c0-.1.1-.2.1-.3 0-.1-.1-.1-.1-.2v-.3c0-.2 0-.4-.1-.5-.4-.7-1.2-.9-2-.8-.2 0-.3.1-.4.2-.2.1-.1.2-.3.2-.1 0-.2.1-.2.2.1.2.1.2.1.3-.1 0-.1 0 0 0m-7.7 0v.2c-.1.1-.1.1-.2.1-.1.1-.1.3-.1.4-.2.1 0 .2 0 .3v.2c0 .1 0 .3.1.4.1.2.3.4.4.5.2.1.3.5.6.6.2 0 .4-.1.5-.1.2 0 .4 0 .6-.1.2-.1.1-.3.3-.5.1-.1.3 0 .4-.1.2-.1.3-.3.4-.5v-.2c0-.1.1-.2.1-.3 0-.1-.1-.1-.1-.2v-.3c0-.2 0-.4-.1-.5-.4-.7-1.2-.9-2-.8-.2 0-.3.1-.4.2-.2.1-.1.2-.3.2-.1 0-.2.1-.2.2v.3m68.9 7.6v.2c-.1.1-.1.1-.2.1-.1.1-.1.3-.1.4-.2.1 0 .2 0 .3v.2c0 .1 0 .3.1.4.1.2.3.4.4.5.2.1.4.6.6.6.2 0 .4-.1.5-.1.2 0 .4 0 .6-.1.2-.1.1-.3.3-.5.1-.1.3 0 .4-.1.2-.1.3-.3.4-.5v-.2c0-.1.1-.2.1-.3 0-.1-.1-.1-.1-.2v-.3c0-.2 0-.4-.1-.5-.4-.7-1.2-.9-2-.8-.2 0-.3.1-.4.2-.2.1-.1.2-.3.2-.1 0-.2.1-.2.2v.3c0 .1 0 0 0 0m-7.6 0v.2c-.1.1-.1.1-.2.1-.1.1-.1.3-.1.4-.2.1 0 .2 0 .3v.2c0 .1 0 .3.1.4.1.2.3.4.4.5.2.1.4.6.6.6.2 0 .4-.1.5-.1.2 0 .4 0 .6-.1.2-.1.1-.3.3-.5.1-.1.3 0 .4-.1.2-.1.3-.3.4-.5v-.2c0-.1.1-.2.1-.3 0-.1-.1-.1-.1-.2v-.3c0-.2 0-.4-.1-.5-.4-.7-1.2-.9-2-.8-.2 0-.3.1-.4.2-.2.1-.1.2-.3.2-.1 0-.2.1-.2.2v.3c0 .1 0 0 0 0m-7.7 0v.2c-.1.1-.1.1-.2.1-.1.1-.1.3-.1.4-.2.1 0 .2 0 .3v.2c0 .1 0 .3.1.4.1.2.3.4.4.5.2.1.4.6.6.6.2 0 .4-.1.5-.1.2 0 .4 0 .6-.1.2-.1.1-.3.3-.5.1-.1.3 0 .4-.1.2-.1.3-.3.4-.5v-.2c0-.1.1-.2.1-.3 0-.1-.1-.1-.1-.2v-.3c0-.2 0-.4-.1-.5-.4-.7-1.2-.9-2-.8-.2 0-.3.1-.4.2-.2.1-.1.2-.3.2-.1 0-.2.1-.2.2v.3c0 .1 0 0 0 0m-7.6 0v.2c-.1.1-.1.1-.2.1-.1.1-.1.3-.1.4-.2.1 0 .2 0 .3v.2c0 .1 0 .3.1.4.1.2.3.4.4.5.2.1.4.6.6.6.2 0 .4-.1.5-.1.2 0 .4 0 .6-.1.2-.1.1-.3.3-.5.1-.1.3 0 .4-.1.2-.1.3-.3.4-.5v-.2c0-.1.1-.2.1-.3 0-.1-.1-.1-.1-.2v-.3c0-.2 0-.4-.1-.5-.4-.7-1.2-.9-2-.8-.2 0-.3.1-.4.2-.2.1-.1.2-.3.2-.1 0-.2.1-.2.2v.3c0 .1 0 0 0 0m-7.7 0v.2c-.1.1-.1.1-.2.1-.1.1-.1.3-.1.4-.2.1 0 .2 0 .3v.2c0 .1 0 .3.1.4.1.2.3.4.4.5.2.1.4.6.6.6.2 0 .4-.1.5-.1.2 0 .4 0 .6-.1.2-.1.1-.3.3-.5.1-.1.3 0 .4-.1.2-.1.3-.3.4-.5v-.2c0-.1.1-.2.1-.3 0-.1-.1-.1-.1-.2v-.3c0-.2 0-.4-.1-.5-.4-.7-1.2-.9-2-.8-.2 0-.3.1-.4.2-.2.1-.1.2-.3.2-.1 0-.2.1-.2.2v.3c0 .1 0 0 0 0m-7.7 0v.2c-.1.1-.1.1-.2.1-.1.1-.1.3-.1.4-.2.1 0 .2 0 .3v.2c0 .1 0 .3.1.4.1.2.3.4.4.5.2.1.4.6.6.6.2 0 .4-.1.5-.1.2 0 .4 0 .6-.1.2-.1.1-.3.3-.5.1-.1.3 0 .4-.1.2-.1.3-.3.4-.5v-.2c0-.1.1-.2.1-.3 0-.1-.1-.1-.1-.2v-.3c0-.2 0-.4-.1-.5-.4-.7-1.2-.9-2-.8-.2 0-.3.1-.4.2-.2.1-.1.2-.3.2-.1 0-.2.1-.2.2v.3c0 .1 0 0 0 0m-7.6 0v.2c-.1.1-.1.1-.2.1-.1.1-.1.3-.1.4-.2.1 0 .2 0 .3v.2c0 .1 0 .3.1.4.1.2.3.4.4.5.2.1.4.6.6.6.2 0 .4-.1.5-.1.2 0 .4 0 .6-.1.2-.1.1-.3.3-.5.1-.1.3 0 .4-.1.2-.1.3-.3.4-.5v-.2c0-.1.1-.2.1-.3 0-.1-.1-.1-.1-.2v-.3c0-.2 0-.4-.1-.5-.4-.7-1.2-.9-2-.8-.2 0-.3.1-.4.2-.2.1-.1.2-.3.2-.1 0-.2.1-.2.2v.3c0 .1 0 0 0 0m-7.7 0v.2c-.1.1-.1.1-.2.1-.1.1-.1.3-.1.4-.2.1 0 .2 0 .3v.2c0 .1 0 .3.1.4.1.2.3.4.4.5.2.1.4.6.6.6.2 0 .4-.1.5-.1.2 0 .4 0 .6-.1.2-.1.1-.3.3-.5.1-.1.3 0 .4-.1.2-.1.3-.3.4-.5v-.2c0-.1.1-.2.1-.3 0-.1-.1-.1-.1-.2v-.3c0-.2 0-.4-.1-.5-.4-.7-1.2-.9-2-.8-.2 0-.3.1-.4.2-.2.1-.1.2-.3.2-.1 0-.2.1-.2.2v.3c0 .1 0 0 0 0m-7.6 0v.2c-.1.1-.2.1-.2.1-.1.1-.1.3-.1.4-.2.1 0 .2 0 .3v.2c0 .1 0 .3.1.4 0 .2.2.4.3.5.2.1.4.6.6.6.2 0 .4-.1.5-.1.2 0 .4 0 .6-.1.2-.1.1-.3.3-.5.1-.1.3 0 .4-.1.2-.1.3-.3.4-.5v-.2c0-.1.1-.2.1-.3 0-.1-.1-.1-.1-.2v-.3c0-.2 0-.4-.1-.5-.4-.7-1.2-.9-2-.8-.2 0-.3.1-.4.2-.2.1-.1.2-.3.2-.1 0-.2.1-.2.2.1.3.1.2.1.3-.1.1-.1 0 0 0m-7.7 0v.2c-.1.1-.1.1-.2.1-.1.1-.1.3-.1.4-.2.1 0 .2 0 .3v.2c0 .1 0 .3.1.4.1.2.3.4.4.5.2.1.4.6.6.6.2 0 .4-.1.5-.1.2 0 .4 0 .6-.1.2-.1.1-.3.3-.5.1 0 .3.1.4.1.2-.1.3-.3.4-.5v-.2c0-.1.1-.2.1-.3 0-.1-.1-.1-.1-.2v-.3c0-.2 0-.4-.1-.5-.4-.7-1.2-.9-2-.8-.2 0-.3.1-.4.2-.2.1-.1.2-.3.2-.1 0-.2.1-.2.2v.1c0 .1 0 0 0 0m68.9 7.7v.2c-.1.1-.1.1-.2.1-.1.1-.1.3-.1.4-.2.1 0 .2 0 .3v.2c0 .1 0 .3.1.4.1.2.3.4.4.5.2.1.4.6.6.6.2 0 .4-.1.5-.1.2 0 .4 0 .6-.1.2-.1.1-.3.3-.5.1-.1.3 0 .4-.1.2-.1.3-.3.4-.5v-.2c0-.1.1-.2.1-.3 0-.1-.1-.1-.1-.2v-.3c0-.2 0-.4-.1-.5-.4-.7-1.2-.9-2-.8-.2 0-.3.1-.4.2-.2.1-.1.2-.3.2-.1 0-.2.1-.2.2v.3m-7.6 0v.2c-.1.1-.1.1-.2.1-.1.1-.1.3-.1.4-.2.1 0 .2 0 .3v.2c0 .1 0 .3.1.4.1.2.3.4.4.5.2.1.4.6.6.6.2 0 .4-.1.5-.1.2 0 .4 0 .6-.1.2-.1.1-.3.3-.4.1-.1.3 0 .4-.1.2-.1.3-.3.4-.5v-.2c0-.1.1-.2.1-.3 0-.1-.1-.1-.1-.2v-.3c0-.2 0-.4-.1-.5-.4-.7-1.2-.9-2-.8-.2 0-.3.1-.4.2-.2.1-.1.2-.3.2-.1 0-.2.1-.2.2v.2m-7.7 0v.2c-.1.1-.1.1-.2.1-.1.1-.1.3-.1.4-.2.1 0 .2 0 .3v.2c0 .1 0 .3.1.4.1.2.3.4.4.5.2.1.4.6.6.6.2 0 .4-.1.5-.1.2 0 .4 0 .6-.1.2-.1.1-.3.3-.5.1-.1.3 0 .4-.1.2-.1.3-.3.4-.5v-.2c0-.1.1-.2.1-.3 0-.1-.1-.1-.1-.2v-.3c0-.2 0-.4-.1-.5-.4-.7-1.2-.9-2-.8-.2 0-.3.1-.4.2-.2.1-.1.2-.3.2-.1 0-.2.1-.2.2v.3m-7.6 0v.2c-.1.1-.1.1-.2.1-.1.1-.1.3-.1.4-.2.1 0 .2 0 .3v.2c0 .1 0 .3.1.4.1.2.3.4.4.5.2.1.4.6.6.6.2 0 .4-.1.5-.1.2 0 .4 0 .6-.1.2-.1.1-.3.3-.5.1-.1.3 0 .4-.1.2-.1.3-.3.4-.5v-.2c0-.1.1-.2.1-.3 0-.1-.1-.1-.1-.2v-.3c0-.2 0-.4-.1-.5-.4-.7-1.2-.9-2-.8-.2 0-.3.1-.4.2-.2.1-.1.2-.3.2-.1 0-.2.1-.2.2v.3m-7.7 0v.2c-.1.1-.1.1-.2.1-.1.1-.1.3-.1.4-.2.1 0 .2 0 .3v.2c0 .1 0 .3.1.4.1.2.3.4.4.5.2.1.4.6.6.6.2 0 .4-.1.5-.1.2 0 .4 0 .6-.1.2-.1.1-.3.3-.4.1-.1.3 0 .4-.1.2-.1.3-.3.4-.5v-.2c0-.1.1-.2.1-.3 0-.1-.1-.1-.1-.2v-.3c0-.2 0-.4-.1-.5-.4-.7-1.2-.9-2-.8-.2 0-.3.1-.4.2-.2.1-.1.2-.3.2-.1 0-.2.1-.2.2v.2m-7.7 0v.2c-.1.1-.1.1-.2.1-.1.1-.1.3-.1.4-.2.1 0 .2 0 .3v.2c0 .1 0 .3.1.4.1.2.3.4.4.5.2.1.4.6.6.6.2 0 .4-.1.5-.1.2 0 .4 0 .6-.1.2-.1.1-.3.3-.5.1-.1.3 0 .4-.1.2-.1.3-.3.4-.5v-.2c0-.1.1-.2.1-.3 0-.1-.1-.1-.1-.2v-.3c0-.2 0-.4-.1-.5-.4-.7-1.2-.9-2-.8-.2 0-.3.1-.4.2-.2.1-.1.2-.3.2-.1 0-.2.1-.2.2v.3m-7.6 0v.2c-.1.1-.1.1-.2.1-.1.1-.1.3-.1.4-.2.1 0 .2 0 .3v.2c0 .1 0 .3.1.4.1.2.3.4.4.5.2.1.4.6.6.6.2 0 .4-.1.5-.1.2 0 .4 0 .6-.1.2-.1.1-.3.3-.5.1-.1.3 0 .4-.1.2-.1.3-.3.4-.5v-.2c0-.1.1-.2.1-.3 0-.1-.1-.1-.1-.2v-.3c0-.2 0-.4-.1-.5-.4-.7-1.2-.9-2-.8-.2 0-.3.1-.4.2-.2.1-.1.2-.3.2-.1 0-.2.1-.2.2v.3m-7.7 0v.2c-.1.1-.1.1-.2.1-.1.1-.1.3-.1.4-.2.1 0 .2 0 .3v.2c0 .1 0 .3.1.4.1.2.3.4.4.5.2.1.4.6.6.6.2 0 .4-.1.5-.1.2 0 .4 0 .6-.1.2-.1.1-.3.3-.4.1-.1.3 0 .4-.1.2-.1.3-.3.4-.5v-.2c0-.1.1-.2.1-.3 0-.1-.1-.1-.1-.2v-.3c0-.2 0-.4-.1-.5-.4-.7-1.2-.9-2-.8-.2 0-.3.1-.4.2-.2.1-.1.2-.3.2-.1 0-.2.1-.2.2v.2m-7.6 0v.2c-.1.1-.2 0-.2.1-.1.1-.1.3-.1.3-.2.1 0 .2 0 .3v.2c0 .1 0 .3.1.4 0 .2.2.4.3.6.2.1.4.6.6.6.2 0 .4-.1.5-.1.2 0 .4 0 .6-.1.2-.1.1-.3.3-.5.1-.1.3 0 .4-.1.2-.1.3-.3.4-.5v-.2c0-.1.1-.2.1-.3 0-.1-.1-.1-.1-.2v-.3c0-.2 0-.4-.1-.5-.4-.7-1.2-.9-2-.8-.2 0-.3.1-.4.2-.2.1-.1.2-.3.2-.1 0-.2.1-.2.2.1.2.1.2.1.3-.1 0-.1 0 0 0m-7.7 0v.2c-.1.1-.1.1-.2.1 0 .1-.1.3-.1.3-.2.1 0 .2 0 .3v.2c0 .1 0 .3.1.4.1.2.3.4.4.5.2.2.3.6.6.7.2 0 .4-.1.5-.1.2 0 .4 0 .6-.1.2-.1.1-.3.3-.4.1-.1.3 0 .4-.1.2-.1.3-.3.4-.5v-.2c0-.1.1-.2.1-.3 0-.1-.1-.1-.1-.2v-.3c0-.2 0-.4-.1-.5-.4-.7-1.2-.9-2-.8-.2 0-.3.1-.4.2-.2.1-.1.2-.3.2-.1 0-.2.1-.2.2v.2m68.9 7.6v.2c-.1.1-.1.1-.2.1-.1.1-.1.3-.1.4-.2.1 0 .2 0 .3v.2c0 .1 0 .3.1.4.1.2.3.4.4.5.2.2.4.6.6.7.2 0 .4-.1.5-.1.2 0 .4 0 .6-.1.2-.1.1-.3.3-.5.1-.1.3 0 .4-.1.2-.1.3-.3.4-.5v-.2c0-.1.1-.2.1-.3 0-.1-.1-.1-.1-.2v-.3c0-.2 0-.4-.1-.5-.4-.7-1.2-.9-2-.8-.2 0-.3.1-.4.2-.2.1-.1.2-.3.2-.1 0-.2.1-.2.2v.2c0 .1 0 0 0 0m-7.6 0v.2c-.1.1-.1.1-.2.1-.1.1-.1.3-.1.4-.2.1 0 .2 0 .3v.2c0 .1 0 .3.1.4 0 .2.2.4.4.5.2.1.4.6.6.6.2 0 .4-.1.5-.1.2 0 .4 0 .6-.1.2-.1.1-.3.3-.5.1-.1.3 0 .4-.1.2-.1.3-.3.4-.5v-.2c0-.1.1-.2.1-.3 0-.1-.1-.1-.1-.2v-.3c0-.2 0-.4-.1-.5-.4-.7-1.2-.9-2-.8-.2 0-.3.1-.4.2-.2.1-.1.2-.3.2-.1 0-.2.1-.2.2v.3c0 .1 0 0 0 0m-7.7 0v.2c-.1.1-.1.1-.2.1-.1.1-.1.3-.1.4-.2.1 0 .2 0 .3v.2c0 .1 0 .3.1.4.1.2.2.4.4.5.2.1.4.6.6.6.2 0 .4-.1.5-.1.2 0 .4 0 .6-.1.2-.1.1-.3.3-.5.1-.1.3 0 .4-.1.2.1.3-.1.4-.3v-.2c0-.1.1-.2.1-.3 0-.1-.1-.1-.1-.2v-.3c0-.2 0-.4-.1-.5-.4-.7-1.2-.9-2-.8-.2 0-.3.1-.4.2-.2.1-.1.2-.3.2-.1 0-.2.1-.2.2v.1c0 .1 0 0 0 0m-7.6 0v.2c-.1.1-.1.1-.2.1-.1.1-.1.3-.1.4-.2.1 0 .2 0 .3v.2c0 .1 0 .3.1.4.1.2.3.4.4.5.1.2.3.6.5.7.2 0 .4-.1.5-.1.2 0 .4 0 .6-.1.2-.1.1-.3.3-.5.1-.1.3 0 .4-.1.2-.1.3-.3.4-.5v-.2c0-.1.1-.2.1-.3 0-.1-.1-.1-.1-.2v-.3c0-.2 0-.4-.1-.5-.4-.7-1.2-.9-2-.8-.2 0-.3.1-.4.2-.2.1-.1.2-.3.2-.1 0-.2.1-.2.2.1.2.1.1.1.2m-7.7 0v.2c-.1.1-.1.1-.2.1-.1.1-.1.3-.1.4-.2.1 0 .2 0 .3v.2c0 .1 0 .3.1.4 0 .2.2.4.4.5.2.1.4.6.6.6.2 0 .4-.1.5-.1.2 0 .4 0 .6-.1.2-.1.1-.3.3-.5.1-.1.3 0 .4-.1.2-.1.3-.3.4-.5v-.2c0-.1.1-.2.1-.3 0-.1-.1-.1-.1-.2v-.3c0-.2 0-.4-.1-.5-.4-.7-1.2-.9-2-.8-.2 0-.3.1-.4.2-.2.1-.1.2-.3.2-.1 0-.2.1-.2.2v.3c0 .1 0 0 0 0m-7.7 0v.2c-.1.1-.1.1-.2.1-.1.1-.1.3-.1.4-.2.1 0 .2 0 .3v.2c0 .1 0 .3.1.4.1.2.2.4.4.5.2.1.4.6.6.6.2 0 .4-.1.5-.1.2 0 .4 0 .6-.1.2-.1.1-.3.3-.5.1-.1.3 0 .4-.1.2-.1.3-.3.4-.5v-.2c0-.1.1-.2.1-.3 0-.1-.1-.1-.1-.2v-.3c0-.2 0-.4-.1-.5-.4-.7-1.2-.9-2-.8-.2 0-.3.1-.4.2-.2.1-.1.2-.3.2-.1 0-.2.1-.2.2v.3c0 .1 0 0 0 0m-7.6 0v.2c-.1.1-.1.1-.2.1-.1.1-.1.3-.1.4-.2.1 0 .2 0 .3v.2c0 .1 0 .3.1.4.1.2.3.4.4.5.1.2.3.6.6.7.2 0 .4-.1.5-.1.2 0 .4 0 .6-.1.2-.1.1-.3.3-.5.1-.1.3 0 .4-.1.2-.1.3-.3.4-.5v-.2c0-.1.1-.2.1-.3 0-.1-.1-.1-.1-.2v-.3c0-.2 0-.4-.1-.5-.4-.7-1.2-.9-2-.8-.2 0-.3.1-.4.2-.2.1-.1.2-.3.2-.1 0-.2.1-.2.2v.2c0 .1 0 0 0 0m-7.7 0v.2c-.1.1-.1.1-.2.1-.1.1-.1.3-.1.4-.2.1 0 .2 0 .3v.2c0 .1 0 .3.1.4.1.2.2.4.4.5.2.1.4.6.6.6.2 0 .4-.1.5-.1.2 0 .4 0 .6-.1.2-.1.1-.3.3-.5.1-.1.3 0 .4-.1.2-.1.3-.3.4-.5v-.2c0-.1.1-.2.1-.3 0-.1-.1-.1-.1-.2v-.3c0-.2 0-.4-.1-.5-.4-.7-1.2-.9-2-.8-.2 0-.3.1-.4.2-.2.1-.1.2-.3.2-.1 0-.2.1-.2.2v.3c0 .1 0 0 0 0m-7.6 0v.2c-.1.1-.2.1-.2.1-.1.1-.1.3-.1.4-.2.1 0 .2 0 .3v.2c0 .1 0 .3.1.4 0 .2.2.4.3.5.2.2.4.6.6.7.2 0 .4-.1.5-.1.2 0 .4 0 .6-.1.2-.1.1-.3.3-.5.1-.1.3 0 .4-.1.2-.1.3-.3.4-.5v-.2c0-.1.1-.2.1-.3 0-.1-.1-.1-.1-.2v-.3c0-.2 0-.4-.1-.5-.4-.7-1.2-.9-2-.8 0 .1-.2.2-.3.2-.2.1-.1.2-.3.3-.1 0-.2.1-.2.2v.1c-.1.1-.1 0 0 0m-7.7 0v.2c-.1.1-.1.1-.2.1 0 .1-.1.3-.1.4-.2.1 0 .2 0 .3v.2c0 .1 0 .3.1.4 0 .2.2.4.4.5.2.2.3.6.6.7.2 0 .4-.1.5-.1.2 0 .4 0 .6-.1.2-.1.1-.3.3-.5.1-.1.3 0 .4-.1.2 0 .3-.2.4-.4v-.2c0-.1.1-.2.1-.3 0-.1-.1-.1-.1-.2v-.3c0-.2 0-.4-.1-.5-.4-.7-1.2-.9-2-.8-.1 0-.2.1-.4.1-.1.1-.1.2-.3.3-.1 0-.2.1-.2.2v.1c0 .1 0 0 0 0"/></pattern><path fill="#fff" stroke="#fff" stroke-width="1.008" d="M.5.5h163.8v42.3H.5z"/><path class="st4" d="M21.8 14.3c0 4.6-3.7 8.2-8.2 8.2-4.6 0-8.2-3.7-8.2-8.2S9 6 13.6 6c4.5 0 8.2 3.7 8.2 8.3z"/><path class="st2" d="M10.6 18.3l-.1-.1v-2.5l.4.3c.5.3 1 .6 1.5.8.5.2.9.3 1.2.3.3 0 .6-.1.8-.2.2-.2.3-.3.3-.4 0-.2-.1-.3-.2-.5-.1-.1-.5-.4-1.1-.7-1.2-.6-1.9-1.2-2.3-1.7-.4-.5-.6-1-.6-1.6 0-.8.3-1.4.9-1.9.6-.5 1.3-.7 2.2-.7.9 0 1.9.3 2.8.8l.1.1v2.4l-.4-.2c-1-.6-1.9-.9-2.5-.9-.3 0-.5.1-.7.2-.2.1-.2.2-.2.4 0 .1.1.3.2.4.2.2.5.4 1 .6l.6.4c1.5.9 2.4 1.9 2.4 3 0 .8-.3 1.5-1 2-.6.5-1.4.8-2.4.8-.6 0-1.1-.1-1.5-.2-.2-.4-.7-.6-1.4-.9"/><path class="st4" d="M58.4 14.3c0 4.6-3.7 8.2-8.2 8.2S42 18.8 42 14.3 45.7 6 50.2 6s8.2 3.7 8.2 8.3z"/><path class="st2" d="M47.1 18.3v-2.5l.4.3c.5.3 1 .6 1.5.8.5.2.9.3 1.2.3.3 0 .6-.1.8-.2.2-.2.3-.3.3-.4 0-.2-.1-.3-.2-.5-.1-.1-.5-.4-1.1-.7-1.2-.6-1.9-1.2-2.3-1.7-.4-.5-.6-1-.6-1.6 0-.8.3-1.4.9-1.9.6-.5 1.3-.7 2.2-.7.9 0 1.9.3 2.8.8l.1.1v2.4l-.4-.2c-1-.6-1.9-.9-2.5-.9-.3 0-.5.1-.7.2-.2.1-.2.2-.2.4 0 .1.1.3.2.4.2.2.5.4 1 .6l.6.4c1.5.9 2.4 1.9 2.4 3 0 .8-.3 1.5-1 2-.6.5-1.4.8-2.4.8-.6 0-1-.1-1.5-.2-.4-.1-1-.3-1.6-.6"/><path class="st4" d="M40.1 14.3c0 4.6-3.7 8.2-8.2 8.2-4.6 0-8.2-3.7-8.2-8.2S27.3 6 31.9 6c4.5 0 8.2 3.7 8.2 8.3z"/><path class="st2" d="M28.7 17.8c-.9-.9-1.3-2.1-1.3-3.5 0-1.5.4-2.7 1.3-3.6.9-.9 2-1.4 3.4-1.4.5 0 .9 0 1.3.1s.9.3 1.4.5l.1.1v2.5l-.4-.2c-.9-.6-1.7-.8-2.4-.8s-1.3.3-1.8.8-.7 1.2-.7 2c0 .9.3 1.5.8 2s1.2.7 2.1.7c.6 0 1.4-.2 2.3-.6l.4-.2v2.3l-.2.1c-.9.3-1.8.5-2.7.5-1.5 0-2.7-.4-3.6-1.3z"/></svg>