<svg width="300" height="300" viewBox="0 0 300 300" fill="none" xmlns="http://www.w3.org/2000/svg"><path fill-rule="evenodd" clip-rule="evenodd" d="M300 150c0 82.843-67.157 150-150 150S0 232.843 0 150 67.157 0 150 0s150 67.157 150 150zM149.489 31.989c-30.652 0-55.5 24.848-55.5 55.5v36c0 30.652 24.848 55.5 55.5 55.5 4.302 0 8.49-.49 12.511-1.416 2.415-.556 3.092-3.537 1.3-5.248l-.3-.287-31.973-30.538c-4.958-4.816-8.038-11.554-8.038-19.011v-34c0-14.636 11.864-26.5 26.5-26.5 14.635 0 26.5 11.864 26.5 26.5V100a4 4 0 004 4h21a4 4 0 004-4V87.489c0-30.652-24.848-55.5-55.5-55.5zM205 209.5c0 30.652-24.848 55.5-55.5 55.5S94 240.152 94 209.5V197a4 4 0 014-4h21a4 4 0 014 4v11.5c0 14.636 11.864 26.5 26.5 26.5s26.5-11.864 26.5-26.5v-34c0-7.458-3.081-14.196-8.039-19.011l-31.972-30.538-.301-.287c-1.792-1.712-1.114-4.692 1.301-5.248A55.696 55.696 0 01149.5 118c30.652 0 55.5 24.848 55.5 55.5v36z" fill="url(#paint0_linear)"/><defs><linearGradient id="paint0_linear" x1="150" y1="0" x2="150" y2="300" gradientUnits="userSpaceOnUse"><stop stop-color="#F50083"/><stop offset="1" stop-color="#720497"/></linearGradient></defs></svg>