<svg xmlns="http://www.w3.org/2000/svg"><defs><font horiz-adv-x="1067" id="ywftsvg"><font-face ascent="1638" bbox="-430 -812.5 2138 1958" cap-height="1434" descent="-410" font-weight="800" panose-1="0 0 9 0 0 0 0 0 0 0" underline-position="0" underline-thickness="0" unicode-range="U+0020-FB02" units-per-em="2048" x-height="1024"/><glyph d="M1128 1024q31 0 31-31V31q0-31-31-31H926q-31 0-31 31v757H487V31q0-31-30-31H254q-31 0-31 31v757H113q-31 0-31 31v174q0 31 31 31h110v121q0 342 338 342h125q31 0 31-31v-182q0-31-31-31H561q-74 0-74-94v-125h641zm0 410q31 0 31-31v-195q0-31-31-30H926q-31 0-31 30v195q0 31 31 31h202z" glyph-name="uniFB01" horiz-adv-x="1302" unicode="fi"/><glyph d="M1139 1487V31q0-31-31-31H905q-31 0-31 31v1212H561q-74 0-74-94v-125h179q31 0 30-31V819q0-31-30-31H487V31q0-31-30-31H254q-31 0-31 31v757H113q-31 0-31 31v174q0 31 31 31h110v121q0 342 338 342h578z" glyph-name="uniFB02" horiz-adv-x="1261" unicode="fl"/><glyph d="M1341 788h-137V305q0-41 26.5-55t96.5-19q45-4 41-47l-6-147q-6-41-55-41-213 0-290 72.5T940 309v479H487V31q0-31-30-31H254q-31 0-31 31v757H113q-31 0-31 31v174q0 31 31 31h110v121q0 342 338 342h125q31 0 31-31v-182q0-31-31-31H561q-74 0-74-94v-125h453v133q0 31 31 31h203q31 0 30-31v-133h137q31 0 31-31V819q0-31-31-31z" glyph-name="f_t.liga" horiz-adv-x="1454" unicode="ft"/><glyph d="M840 1638V-410H190v2048h650zm-158-137H344v-67h133v-76H342v-68h340v68H547v76h135v67zm-135-264H342v-213h340v70H547v143zm-70-70v-73h-67v73h67zm205-198H342v-68h135v-76H342v-67h205v143h135v68zm0-123h-68V711H342v-70h340v205zm0-250H477V481h70v47h67v-96H410v164h-68V365h340v231zm0-354H342V10h340v232zm-68-68V78H410v96h204zm68-211H342v-67h143l-143-97v-67h340v67H473l143 97h66v67z" glyph-name=".notdef" horiz-adv-x="1024"/><glyph glyph-name="glyph1" horiz-adv-x="0"/><glyph glyph-name="glyph2" horiz-adv-x="681"/><glyph glyph-name="space" horiz-adv-x="614"/><glyph d="M164 1403q0 31 31 31h208q31 0 31-31V567q0-31-31-30H195q-31 0-31 30v836zM154 268q0 31 30 31h232q31 0 30-31V31q0-31-30-31H184q-31 0-30 31v237z" glyph-name="exclam" horiz-adv-x="600" unicode="!"/><glyph d="M133 1403q0 31 31 31h203q31 0 30-31V877q0-31-30-31H164q-31 0-31 31v526zm467 0q0 31 31 31h203q31 0 30-31V877q0-31-30-31H631q-31 0-31 31v526z" glyph-name="quotedbl" horiz-adv-x="997" unicode="&quot;"/><glyph d="M1047 850H928V672h119q31 0 30-31V467q0-31-30-31H928V31q0-31-31-31H688q-31 0-31 31v405h-94V31q0-31-31-31H324q-31 0-31 31v405H174q-31 0-31 31v174q0 31 31 31h119v178H174q-31 0-31 31v174q0 31 31 30h119v371q0 31 31 31h208q31 0 31-31v-371h94v371q0 31 31 31h209q31 0 31-31v-371h119q31 0 30-30V881q1-31-30-31zM657 672v178h-94V672h94z" glyph-name="numbersign" horiz-adv-x="1220" unicode="#"/><glyph d="M860 573q0-256-301-278V160q0-31-31-31H420q-31 0-31 31v135Q100 313 92 559q0 31 31 31h139q29 0 33-29 4-70 94-78v228q-147 27-218 85t-71 193 76 200.5 213 78.5v135q0 31 31 31h110q31 0 31-31v-137q125-14 203-85t82-204q0-33-29-33H680q-35 0-35 27-2 57-21.5 80.5T561 1079l-2-229q152-31 226.5-90.5T860 573zM297 986q0-52 19.5-73.5T389 881v198q-51-2-71.5-21.5T297 986zm367-410q0 54-24 77t-81 33V481q53 4 79 22.5t26 72.5z" glyph-name="dollar" horiz-adv-x="952" unicode="$"/><glyph d="M956 1487h234q39 0 20-31L383 31Q365 0 342 0H109Q70 0 88 31l827 1425q18 31 41 31zm-659 0q82 0 135-54.5t53-136.5v-22q0-82-52-135.5T297 1085h-27q-82 0-135 53.5T82 1274v22q0 82 53 136.5t135 54.5h27zm14-199q0 27-28 27h-7q-25 0-24-27v-6q0-25 24-25h7q29 0 28 25v6zm709-887q82 0 135-54t53-136v-23q0-82-53-135T1020 0h-27q-84 0-136 53t-52 135v23q0 82 53 136t135 54h27zm14-198q0 27-28 26h-7q-25 0-24-26v-6q0-25 24-25h7q29 0 28 25v6z" glyph-name="percent" horiz-adv-x="1216" unicode="%"/><glyph d="M1411 0h-211q-16 0-37 16l-67 60Q985-30 799-31H496Q314-31 203 69.5T92 354v119q0 207 193 293l16 8-45 39q-61 57-70.5 99T174 970.5t0 55.5 2 47v37q0 145 85 239.5t288 94.5h170q203 0 288-94.5t85-239.5V950H821v160q0 55-23.5 76.5T719 1208H549q-55 0-79-20.5t-24-77.5v-37q0-10-1-36.5t2.5-51 21-51T524 868l406-372v229q0 43 43 43h323q43 0 43-43V580q0-43-43-43h-96V354q0-57-8-98l238-219q14-12 8-24.5T1411 0zM774 205q98 0 129 39L498 600l-82-39q-53-25-54-106V354q0-84 33-116.5T520 205h254z" glyph-name="ampersand" horiz-adv-x="1531" unicode="&amp;"/><glyph d="M133 1403q0 31 31 31h203q31 0 30-31V877q0-31-30-31H164q-31 0-31 31v526z" glyph-name="quotesingle" horiz-adv-x="530" unicode="'"/><glyph d="M403 340q0-127 30-170t132-43h29q31 0 31-31v-209q0-31-31-30H467q-152 0-243 105.5T133 242v1003q0 174 91 279.5T467 1630h127q31 0 31-31v-208q0-31-31-31h-29q-102 0-132-43t-30-170V340z" glyph-name="parenleft" horiz-adv-x="757" unicode="("/><glyph d="M354 340v807q0 127-29.5 170T193 1360h-29q-31 0-31 31v208q0 31 31 31h127q152 0 243-105.5t91-279.5V242q0-174-91.5-279.5T291-143H164q-31 0-31 30V96q0 31 31 31h29q102 0 131.5 43T354 340z" glyph-name="parenright" horiz-adv-x="757" unicode=")"/><glyph d="M512 965q0-33-33-33H328q-31 0-31 33v71l-45-47q-29-16-43 10l-80 127q-16 31 10 45l84 39-84 37q-27 16-10 45l80 127q14 27 43 11l45-48v72q0 33 31 33h151q33 0 33-33v-72l43 48q31 16 45-11l80-127q16-29-10-45l-84-37 84-39q27-14 10-45l-80-127q-14-27-45-10l-43 47v-71z" glyph-name="asterisk" horiz-adv-x="808" unicode="*"/><glyph d="M901 797q29 0 29-31V557q0-31-31-31H664V266q0-31-31-30H424q-31 0-31 30v260H154q-31 0-31 31v209q0 31 31 31h239v258q0 31 31 30h209q31 0 31-30V797h237z" glyph-name="plus" horiz-adv-x="1052" unicode="+"/><glyph d="M344 299q31 0 31-31V41q0-133-23.5-214T254-342q-18-23-43 0l-57 51q-18 18-2 45 33 47 42 94.5T203-20l16 20H102Q71 0 72 31v237q0 31 30 31h242z" glyph-name="comma" horiz-adv-x="446" unicode=","/><glyph d="M154 395q-31 0-31 31v174q0 31 31 31h540q31 0 31-31V426q0-31-31-31H154z" glyph-name="hyphen" horiz-adv-x="847" unicode="-"/><glyph d="M72 268q0 31 30 31h242q31 0 31-31V31q0-31-31-31H102Q71 0 72 31v237z" glyph-name="period" horiz-adv-x="446" unicode="."/><glyph d="M727 1487h221q35 0 21-31L326-20q-12-31-41-31H63q-33 0-20 31l643 1476q14 31 41 31z" glyph-name="slash" horiz-adv-x="972" unicode="/"/><glyph d="M743 1444q205 0 308.5-113.5T1155 1018V416q0-199-103.5-312.5T743-10H524q-205 0-308 113.5T113 416v602q0 199 103 312.5T524 1444h219zM885 416v602q0 102-33 143t-109 41H524q-76 0-108.5-41T383 1018V416q0-104 33-144.5T524 231h219q76 0 109 40.5T885 416z" glyph-name="zero" horiz-adv-x="1267" unicode="0"/><glyph d="M639 1434q31 0 31-31V31q0-31-31-31H436q-31 0-30 31v1011l-64-61q-6-10-20.5-10T297 981l-145 147q-18 16 2 41l256 254q9 9 26 11h203z" glyph-name="one" horiz-adv-x="956" unicode="1"/><glyph d="M1077 236q31 0 31-31V31q0-31-31-31H123Q92 0 92 31q0 152 10.5 245t40 184 90 147.5T391 696l324 111q96 33 116.5 73T852 985v76q0 141-141 141H524q-70 0-104.5-36T381 1040q-4-43-45-43H152q-45 0-41 43 10 193 113.5 298.5T524 1444h187q201 0 306-107.5t105-275.5q0-229-56-323.5T831 586l-280-92q-102-33-138-91.5T377 236h700z" glyph-name="two" horiz-adv-x="1214" unicode="2"/><glyph d="M1110 391q0-176-103.5-288.5T698-10H502Q307-10 204.5 95.5T92 393q-2 43 41 43h184q43 0 45-43 4-92 37-126t103-34h196q76 0 109 39t33 145-31 151.5T670 616H518q-31 0-31 31v178q0 31 31 31h152q103 4 124 48t21 112v39q0 80-32.5 112.5T674 1200H528q-70 0-102.5-35T389 1040q-4-43-45-43H160q-45 0-41 43 10 193 112.5 298.5T528 1444h146q203 0 307-107.5t104-272.5-53-228.5T860 739q127-37 188.5-104.5T1110 391z" glyph-name="three" horiz-adv-x="1202" unicode="3"/><glyph d="M655 602v203q0 31 31 31h209q31 0 31-31V602h94q31 0 31-31V397q0-31-31-30h-94V31q0-31-31-31H686q-31 0-31 31v336H127q-27 0-33 20l-18 59q-8 27 4 54l461 911q12 23 41 23h219q41 0 20-41L426 602h229z" glyph-name="four" horiz-adv-x="1142" unicode="4"/><glyph d="M698 944q412 0 412-506 0-215-102.5-331.5T698-10H504Q305-10 203.5 95.5T92 393q-2 43 41 43h184q43 0 45-43 4-92 37-126t105-34h194q78 0 110 43t32 162q0 270-142 271H582q-137 0-220-97H135q-31 0-31 31v39l74 721q2 31 31 31h782q31 0 31-31v-174q0-31-31-31H408l-31-309q96 59 205 55h116z" glyph-name="five" horiz-adv-x="1212" unicode="5"/><glyph d="M772 893q203 0 306.5-113.5T1182 465q0-475-412-475H516q-221 0-317.5 147.5T102 668q0 510 129.5 643T600 1444h84q246 0 354.5-90t112.5-277q0-31-31-30H913q-29 0-30 30-2 76-50.5 103.5T684 1208h-80q-68 0-102.5-9t-76.5-60-46-293q84 47 182 47h211zm-2-660q76 0 108.5 52.5T911 444t-35.5 165T772 668H512q-82 0-110.5-35T373 471t32.5-182.5T516 233h254z" glyph-name="six" horiz-adv-x="1284" unicode="6"/><glyph d="M1063 1255q0-31-8-47-274-365-418.5-618.5T424 35q-8-35-43-35H190q-16 0-24 13.5T162 43q68 303 203 558t378 585H123q-31 0-31 31v186q0 31 31 31h909q31 0 31-31v-148z" glyph-name="seven" horiz-adv-x="1155" unicode="7"/><glyph d="M1225 455q0-229-109.5-347T807-10H508q-199 0-307.5 117.5T92 468t205 347q-78 47-101.5 110.5T172 1098q0 346 420 346h129q424 0 424-346 0-170-127-281 207-104 207-362zm-633 782q-111 0-148.5-41T406 1070t37.5-132T588 891h137q106 0 145 47t39 133-37.5 126-150.5 40H592zM782 221q94 0 135 52.5T958 444t-25.5 164.5-71.5 64T743 690H571q-135 0-174-58t-39-182 41-176.5T532 221h250z" glyph-name="eight" horiz-adv-x="1316" unicode="8"/><glyph d="M512 541q-203 0-306.5 113.5T102 969q0 475 412 475h254q221 0 317.5-147.5T1182 766q0-509-129-642.5T684-10h-84q-246 0-354.5 90T133 356q0 31 31 31h207q27 0 30-31 2-76 50.5-103.5T600 225h80q68 0 102.5 9.5t65.5 46T891 390t14 198q-84-47-182-47H512zm2 659q-76 0-108.5-52T373 990t35.5-165T512 766h260q82 0 110.5 35T911 962t-32.5 182-110.5 56H514z" glyph-name="nine" horiz-adv-x="1284" unicode="9"/><glyph d="M154 932q0 31 30 31h281q31 0 31-31V657q0-31-31-30H184q-31 0-30 30v275zm0-627q0 31 30 31h281q31 0 31-31V31q0-31-31-31H184q-31 0-30 31v274z" glyph-name="colon" horiz-adv-x="649" unicode=":"/><glyph d="M154 932q0 31 30 31h281q31 0 31-31V657q0-31-31-30H184q-31 0-30 30v275zm342-635V-10q0-236-146-400-10-12-18-12t-25 16l-94 95q-29 25-8 45 64 61 69 121.5T279-23l18 23H184q-31 0-30 31v266q0 31 30 31h281q31 0 31-31z" glyph-name="semicolon" horiz-adv-x="647" unicode=";"/><glyph d="M860 690q0-41-20-49L506 483l334-157q20-8 20-50V59q0-12-9-17t-24 1L162 379q-39 18-39 104t39 105l665 336q14 6 23.5 1t9.5-18V690z" glyph-name="less" horiz-adv-x="983" unicode="&lt;"/><glyph d="M154 641q-31 0-31 31v184q0 31 31 31h622q31 0 31-31V672q0-31-31-31H154zm0-317q-31 0-31 30v185q0 31 31 30h622q31 0 31-30V354q0-31-31-30H154z" glyph-name="equal" horiz-adv-x="929" unicode="="/><glyph d="M123 690v217q0 12 9 17.5t24-.5l665-336q39-18 39-104.5T821 379L156 43q-14-6-23.5-1T123 59v217q0 41 20 50l334 157-334 158q-20 8-20 49z" glyph-name="greater" horiz-adv-x="983" unicode="&gt;"/><glyph d="M594 1513q205 0 306-100t101-326q0-118-22.5-160T945 865.5t-45-42-48-31-63.5-31T730 734t-21.5-10-15.5-7-14-7-14-7.5-11.5-7.5-12.5-9-9-10-7-12.5-4.5-13.5-2.5-15v-60q0-31-30-30H379q-31 0-31 30v109q0 106 55.5 155.5T649 973q51 23 66.5 47t15.5 94-22.5 103.5T594 1251H487q-84 0-111.5-27.5T344 1124q-4-43-43-43H115q-43 0-43 45 10 205 113.5 296t301.5 91h107zM340 268q0 31 31 31h229q31 0 31-31V31q0-31-31-31H371q-31 0-31 31v237z" glyph-name="question" horiz-adv-x="1073" unicode="?"/><glyph d="M940 51q0-27-22-37-88-41-195-41h-47q-272 0-412.5 134.5T123 485v467q0 256 137 378t414 122h92q541 0 541-494V487q0-213-152-213h-123q-35 0-62.5 17.5t-33.5 28-23 34.5q-84-84-182-84h-63q-260 0-260 283 0 129 65.5 188.5T694 801h117v18q0 72-20.5 93.5T719 934h-35q-78 0-119-34t-57-9l-76 96q-16 23-2 41 113 113 254 113h66q133 0 200.5-73t67.5-257V530q0-25 6-35t29-10q33 0 32 45v428q0 158-73.5 220.5T766 1241h-92q-166 0-248-64.5T344 952V514q0-164 86-247t246-83h47q102 0 180 47 37 23 37-16V51zM737 465q29 0 54.5 27.5T811 565v45H684q-72 0-72-75 0-39 15.5-53.5T676 465h61z" glyph-name="at" horiz-adv-x="1429" unicode="@"/><glyph d="M1063 0H846q-29 0-37 33l-61 252H401L342 33q-8-33-37-33H88Q55 0 63 33l388 1368q10 33 38 33h173q29 0 38-33L1087 33q6-33-24-33zM457 520h233l-117 488z" glyph-name="A" horiz-adv-x="1148" unicode="A"/><glyph d="M1126 498V387Q1126 0 698 0H164q-31 0-31 31v1372q0 31 31 31h526q201 0 293-93.5t92-304.5q0-162-86-258 137-102 137-280zm-321 535q0 103-23.5 131t-91.5 28H403V866h287q66 0 90.5 32t24.5 135zm51-646v111q0 86-36 117.5T698 647H403V242h295q86 0 122 30.5T856 387z" glyph-name="B" horiz-adv-x="1208" unicode="B"/><glyph d="M1090 436q45 0 40-43-10-193-112.5-298T721-10H524q-205 0-308 113.5T113 416v602q0 199 103 312.5T524 1444h197q195 0 297-105.5t112-298.5q4-43-40-43H905q-41 0-45 43-4 90-36.5 126T721 1202H524q-76 0-108.5-41T383 1018V416q0-104 33-144.5T524 231h197q70 0 102.5 35T860 393q4 43 45 43h185z" glyph-name="C" horiz-adv-x="1232" unicode="C"/><glyph d="M705 1434q203 0 304-106.5t101-293.5V403q0-188-102.5-295.5T705 0H164q-31 0-31 31v1372q0 31 31 31h541zM840 403v631q0 90-31 124t-104 34H403V242h302q74 0 104.5 33.5T840 403z" glyph-name="D" horiz-adv-x="1202" unicode="D"/><glyph d="M944 1192H403V831h412q31 0 31-30V621q0-31-31-31H403V242h551q31 0 31-31V31q0-31-31-31H164q-31 0-31 31v1372q0 31 31 31h780q31 0 31-31v-180q0-31-31-31z" glyph-name="E" unicode="E"/><glyph d="M403 1192V831h398q31 0 30-30V621q0-31-30-31H403V31q0-31-30-31H164q-31 0-31 31v1372q0 31 31 31h778q31 0 31-31v-180q0-31-31-31H403z" glyph-name="F" horiz-adv-x="1044" unicode="F"/><glyph d="M1090 766q43 0 43-43V416q0-199-103.5-312.5T721-10H524q-205 0-308 113.5T113 416v602q0 199 103 312.5T524 1444h197q193 0 296-103.5t113-285.5q4-43-40-43H905q-41 0-45 43-6 82-39 114.5T721 1202H524q-76 0-108.5-41T383 1018V416q0-104 33-144.5T524 231h197q76 0 108.5 40T862 416v127H727q-43 0-43 43v137q0 43 43 43h363z" glyph-name="G" horiz-adv-x="1234" unicode="G"/><glyph d="M1047 1434q31 0 30-31V31q0-31-30-31H838q-31 0-31 31v559H403V31q0-31-30-31H164q-31 0-31 31v1372q0 31 31 31h209q31 0 30-31V831h404v572q0 31 31 31h209z" glyph-name="H" horiz-adv-x="1210" unicode="H"/><glyph d="M133 1403q0 31 31 31h213q31 0 31-31V31q0-31-31-31H164q-31 0-31 31v1372z" glyph-name="I" horiz-adv-x="540" unicode="I"/><glyph d="M647 471v932q0 31 31 31h209q31 0 31-31V446q0-201-130.5-330.5T436-14 84 121q-29 31 8 63l129 107q33 25 64-6 66-57 155-58 207 0 207 244z" glyph-name="J" horiz-adv-x="1050" unicode="J"/><glyph d="M1167 0H924q-39 0-56 29L508 649 403 518V31q0-31-30-31H164q-31 0-31 31v1372q0 31 31 31h209q31 0 30-31V897l383 504q23 33 54 33h243q10 0 20-11t-11-43L694 885l486-836q16-21 8-35t-21-14z" glyph-name="K" horiz-adv-x="1259" unicode="K"/><glyph d="M913 242q31 0 31-31V31q0-31-31-31H164q-31 0-31 31v1372q0 31 31 31h209q31 0 30-31V242h510z" glyph-name="L" horiz-adv-x="1036" unicode="L"/><glyph d="M1374 1434q31 0 31-31V31q0-31-31-31h-209q-31 0-30 31v938L899 31Q889 0 860 0H678q-31 0-39 31L403 969V31q0-31-30-31H164q-31 0-31 31v1372q0 31 31 31h309q31 0 41-31l254-924 256 924q8 31 41 31h309z" glyph-name="M" horiz-adv-x="1538" unicode="M"/><glyph d="M1110 1434q31 0 31-31V31q0-31-31-31H842q-27 0-37 23L403 967V31q0-31-30-31H164q-31 0-31 31v1372q0 31 31 31h270q25 0 37-23l399-942v934q0 31 31 31h209z" glyph-name="N" horiz-adv-x="1273" unicode="N"/><glyph d="M743 1444q205 0 308.5-113.5T1155 1018V416q0-199-103.5-312.5T743-10H524q-205 0-308 113.5T113 416v602q0 199 103 312.5T524 1444h219zM885 416v602q0 102-33 143t-109 41H524q-76 0-108.5-41T383 1018V416q0-104 33-144.5T524 231h219q76 0 109 40.5T885 416z" glyph-name="O" horiz-adv-x="1267" unicode="O"/><glyph d="M686 1434q209 0 311.5-107.5T1100 1026V872q0-193-103.5-301T686 463H403V31q0-31-30-31H164q-31 0-31 31v1372q0 31 31 31h522zm143-562v154q0 96-31.5 131T686 1192H403V707h283q80 0 111.5 34.5T829 872z" glyph-name="P" horiz-adv-x="1171" unicode="P"/><glyph d="M743 1444q205 0 308.5-113.5T1155 1018V416q0-193-97-305.5T770-10v-152q0-31-33-31H530q-31 0-30 31v152Q307-2 210 110.5T113 416v602q0 199 103 312.5T524 1444h219zM885 416v602q0 102-33 143t-109 41H524q-76 0-108.5-41T383 1018V416q0-104 33-144.5T524 231h219q76 0 109 40.5T885 416z" glyph-name="Q" horiz-adv-x="1267" unicode="Q"/><glyph d="M1108 0H913q-39 0-53 33L676 463H403V31q0-31-30-31H164q-31 0-31 31v1372q0 31 31 31h522q209 0 311.5-107.5T1100 1026V872q0-248-164-348l207-475q20-49-35-49zM403 1192V707h283q80 0 111.5 34.5T829 872v154q0 96-31.5 131T686 1192H403z" glyph-name="R" horiz-adv-x="1230" unicode="R"/><glyph d="M1143 412q0-201-102.5-311.5T731-10H514Q321-10 218 92.5T104 373q-2 43 41 43h185q43 0 45-43 6-80 38.5-111T514 231h217q78 0 109.5 37T872 416t-47 149.5T659 623l-120 20q-205 35-313.5 134.5T117 1061t103.5 283.5T532 1444h152q190 0 293.5-101.5T1092 1067q2-43-41-43H866q-43 0-45 43-6 74-38.5 104.5T684 1202H532q-82 0-113.5-26.5t-31.5-95 3-89 17.5-46 48-38T551 885l121-21q192-32 317-114 154-100 154-338z" glyph-name="S" horiz-adv-x="1245" unicode="S"/><glyph d="M954 1434q31 0 31-31v-180q0-31-31-31H670V31q0-31-31-31H430q-31 0-31 31v1161H113q-31 0-31 31v180q0 31 31 31h841z" glyph-name="T" unicode="T"/><glyph d="M1133 1434q43 0 43-43V416q0-203-102.5-314.5T764-10H547q-209 0-311.5 111.5T133 416v975q0 43 43 43h184q43 0 43-43V416q0-100 34-142.5T547 231h217q76 0 108.5 42T905 416v975q0 43 43 43h185z" glyph-name="U" horiz-adv-x="1308" unicode="U"/><glyph d="M98 1434h217q29 0 37-33l232-975 235 975q8 33 37 33h217q31 0 25-33L711 33Q701 0 672 0H500q-29 0-39 33L74 1401q-8 33 24 33z" glyph-name="V" horiz-adv-x="1169" unicode="V"/><glyph d="M1761 1434q33 0 27-31L1489 31q-8-31-39-31h-168q-29 0-39 31L932 981 618 31Q608 0 580 0H414q-37 0-39 31L74 1403q-8 31 24 31h226q31 0 36-31l164-893 281 893q10 31 39 31h174q31 0 39-31l282-893 162 893q2 31 35 31h225z" glyph-name="W" horiz-adv-x="1861" unicode="W"/><glyph d="M1038 0H817q-27 0-41 29L571 449 369 29Q355 0 328 0H106Q71 0 86 29l352 688-352 688q-14 29 20 29h222q27 0 41-29l202-420 205 420q14 29 41 29h221q35 0 21-29L707 717l352-688q14-29-21-29z" glyph-name="X" horiz-adv-x="1144" unicode="X"/><glyph d="M1126 1434q37 0 21-31L741 598V31q0-31-30-31H502q-31 0-31 31v567L66 1403q-16 31 20 31h227q27 0 41-31l252-524 252 524q12 31 41 31h227z" glyph-name="Y" horiz-adv-x="1212" unicode="Y"/><glyph d="M954 1313q0-35-6-43L406 246h518q31 0 30-31V31q0-31-30-31H123Q92 0 92 31v90q0 35 6 43l543 1024H123q-31 0-31 31v184q0 31 31 31h801q31 0 30-31v-90z" glyph-name="Z" horiz-adv-x="1046" unicode="Z"/><glyph d="M580 1360H403V127h177q31 0 30-31v-209q0-31-30-30H164q-31 0-31 30v1712q0 31 31 31h416q31 0 30-31v-208q1-31-30-31z" glyph-name="bracketleft" horiz-adv-x="743" unicode="["/><glyph d="M887 0H666q-27 0-41 31L2 1456q-12 31 21 31h221q29 0 41-31L907 31q14-31-20-31z" glyph-name="backslash" horiz-adv-x="952" unicode="\"/><glyph d="M580 1630q31 0 30-31V-113q0-31-30-30H164q-31 0-31 30V96q0 31 31 31h176v1233H164q-31 0-31 31v208q0 31 31 31h416z" glyph-name="bracketright" horiz-adv-x="743" unicode="]"/><glyph d="M823 932H602q-27 0-41 31l-86 165-86-165q-14-31-41-31H127q-37 0-21 31l267 493q20 31 41 31h123q25 0 41-31l266-493q16-31-21-31z" glyph-name="asciicircum" horiz-adv-x="950" unicode="^"/><glyph d="M133 0q-31 0-31 31v174q0 31 31 31h930q31 0 31-31V31q0-31-31-31H133z" glyph-name="underscore" horiz-adv-x="1196" unicode="_"/><glyph d="M512 1124H342q-27 0-49 37l-182 236q-12 16-5 26.5t25 10.5h258q25 0 43-37l100-236q18-37-20-37z" glyph-name="grave" horiz-adv-x="641" unicode="`"/><glyph d="M932 0H707q-37 0-37 49v49Q594-11 475-10h-55q-147 0-242.5 87T82 313q0 299 334 299h254v88q0 55-26 76t-89 21h-68q-115 0-225-43-55-18-74 20l-49 119q-14 35 11 49 145 90 337 90h68q379 0 379-346V49q0-15 4-32t-6-17zM535 225q104 0 135 60v125H420q-76 0-76-92.5t76-92.5h115z" glyph-name="a" horiz-adv-x="1062" unicode="a"/><glyph d="M616 1032q168 0 263.5-102.5T975 662V354q0-164-95.5-264T616-10h-47q-121 0-182 94V31q0-31-29-31H154q-31 0-31 31v1372q0 31 31 31h204q29 0 29-31V944q59 88 182 88h47zm95-706v374q0 96-97 97H483q-96 0-96-97V326q0-100 96-101h131q97 1 97 101z" glyph-name="b" unicode="b"/><glyph d="M690 662q-39 0-43 43-10 90-80 90H459q-96 0-97-97V326q0-100 97-101h108q57 0 84 14.5t56 53.5q23 27 59-2l117-82q25-18 6-43-78-94-121-123-78-53-201-53H459q-168 0-267.5 111.5T92 381v278q0 164 98.5 267.5T459 1030h108q141 0 236.5-89T911 707q0-45-43-45H690z" glyph-name="c" horiz-adv-x="995" unicode="c"/><glyph d="M913 1434q31 0 31-31V31q0-31-31-31H709q-29 0-29 31v53q-61-94-182-94h-47Q283-10 187.5 90T92 354v308q0 166 95.5 268T451 1032h47q123 0 182-88v459q0 31 29 31h204zM584 225q96 0 96 101v374q0 96-96 97H453q-96 0-97-97V326q0-100 97-101h131z" glyph-name="d" unicode="d"/><glyph d="M567 1032q150 0 247-101.5T911 659V469q0-59-61-59H362v-84q0-100 97-101h108q78 0 108 10.5t58 43.5q16 18 47-3l101-65q29-20 10-45-39-49-57.5-68.5T774 46q-72-56-207-56H459q-168 0-267.5 111.5T92 381v278q0 166 98.5 269.5T459 1032h108zm80-420v88q0 96-80 97H459q-96 0-97-99v-86h285z" glyph-name="e" horiz-adv-x="1003" unicode="e"/><glyph d="M686 1487q31 0 31-31v-182q0-31-31-31H561q-74 0-74-94v-125h179q31 0 30-31V819q0-31-30-31H487V31q0-31-30-31H254q-31 0-31 31v757H113q-31 0-31 31v174q0 31 31 31h110v121q0 342 338 342h125z" glyph-name="f" horiz-adv-x="768" unicode="f"/><glyph d="M913 1024q31 0 31-31V-43q0-367-397-367-147 0-219 17-45 8-45 49v139q0 18 13 30.5t32 8.5q63-14 219-14 76 0 104.5 26.5T680-41V84q-61-94-182-94h-47Q283-10 187.5 90T92 354v308q0 166 95.5 268T451 1032h47q123 0 182-88v49q0 31 29 31h204zM584 225q96 0 96 101v374q0 96-96 97H453q-96 0-97-97V326q0-100 97-101h131z" glyph-name="g" unicode="g"/><glyph d="M659 1032q301 0 302-360V31q0-31-31-31H727q-31 0-31 31v671q0 94-110 95h-25q-61 0-108-21.5T387 723V31q0-31-31-31H154q-31 0-31 31v1372q0 31 31 31h202q31 0 31-31V903q78 129 260 129h12z" glyph-name="h" horiz-adv-x="1083" unicode="h"/><glyph d="M143 1403q0 31 31 31h203q31 0 31-31v-195q0-31-31-30H174q-31 0-31 30v195zm0-410q0 31 31 31h203q31 0 31-31V31q0-31-31-31H174q-31 0-31 31v962z" glyph-name="i" horiz-adv-x="550" unicode="i"/><glyph d="M139 1403q0 31 31 31h203q31 0 30-31v-195q0-31-30-30H170q-31 0-31 30v195zm2-1509V993q0 31 31 31h205q31 0 31-31V-127q0-143-85-252.5T102-524q-27-8-39 20l-81 187q-12 29 18 38 55 20 98 67.5T141-106z" glyph-name="j" horiz-adv-x="550" unicode="j"/><glyph d="M154 1434h202q31 0 31-31V692l291 307q20 25 47 25h211q23 0 31-20.5T950 954L645 627l356-572q10-16 5-35.5T977 0H784q-47 0-67 37L467 451l-80-80V31q0-31-31-31H154q-31 0-31 31v1372q0 31 31 31z" glyph-name="k" horiz-adv-x="1081" unicode="k"/><glyph d="M123 1403q0 31 31 31h202q31 0 31-31V31q0-31-31-31H154q-31 0-31 31v1372z" glyph-name="l" horiz-adv-x="509" unicode="l"/><glyph d="M1233 1032q299 0 299-360V31q0-31-31-31h-201q-31 0-30 31v671q0 94-111 95h-26q-127 0-172-74V31q0-31-31-31H727q-31 0-31 31v671q0 94-110 95h-25q-61 0-108-21.5T387 723V31q0-31-31-31H154q-31 0-31 31v962q0 31 31 31h202q31 0 31-31v-90q78 129 260 129h12q197 0 267-155l35 26q78 129 258 129h14z" glyph-name="m" horiz-adv-x="1654" unicode="m"/><glyph d="M659 1032q301 0 302-360V31q0-31-31-31H727q-31 0-31 31v671q0 94-110 95h-25q-61 0-108-21.5T387 723V31q0-31-31-31H154q-31 0-31 31v962q0 31 31 31h202q31 0 31-31v-90q78 129 260 129h12z" glyph-name="n" horiz-adv-x="1083" unicode="n"/><glyph d="M559 1032q168 0 264.5-102.5T920 662V354q0-164-95.5-264T559-10H453Q283-10 187.5 90T92 354v308q0 166 96.5 268T453 1032h106zm96-706v374q0 96-96 97H453q-96 0-97-97V326q0-100 97-101h106q96 1 96 101z" glyph-name="o" horiz-adv-x="1011" unicode="o"/><glyph d="M616 1032q168 0 263.5-102.5T975 662V354q0-164-95.5-264T616-10h-47q-121 0-182 94v-463q0-31-29-31H154q-31 0-31 31V993q0 31 31 31h204q29 0 29-31v-49q59 88 182 88h47zm95-706v374q0 96-97 97H483q-96 0-96-97V326q0-100 96-101h131q97 1 97 101z" glyph-name="p" unicode="p"/><glyph d="M913 1024q31 0 31-31V-379q0-31-31-31H709q-29 0-29 31V84q-61-94-182-94h-47Q283-10 187.5 90T92 354v308q0 166 95.5 268T451 1032h47q123 0 182-88v49q0 31 29 31h204zM584 225q96 0 96 101v374q0 96-96 97H453q-96 0-97-97V326q0-100 97-101h131z" glyph-name="q" unicode="q"/><glyph d="M561 797q-61 0-108-21.5T387 723V31q0-31-31-31H154q-31 0-31 31v962q0 31 31 31h202q31 0 31-31v-90q80 129 272 129 94 0 154-33 33-20 14-59l-77-139q-18-31-62-18t-100 14h-27z" glyph-name="r" horiz-adv-x="886" unicode="r"/><glyph d="M446 797q-90 0-90-75 0-38 25.5-57.5T481 637q225-23 317.5-93.5T891 305 799 63.5 520-10h-61Q121-10 92 260q-4 31 31 31h180q43 0 53-21 12-16 20-24 22-23 75-23h84q92 0 92 74 0 59-13 72-20 27-133 34-225 16-307 87T92 725q0 305 354 305h76q160 0 260.5-81T881 733q0-33-29-33H676q-41 0-60 39-2 1-11 15-28 43-87 43h-72z" glyph-name="s" horiz-adv-x="972" unicode="s"/><glyph d="M602 788H465V305q0-41 26.5-55t96.5-19q45-4 41-47l-6-147q-4-41-56-41-213 0-289.5 72.5T201 309v479h-99q-31 0-30 31v172q0 33 30 33h99v133q0 31 30 31h203q31 0 31-31v-133h135q33 0 33-31V819q0-31-31-31z" glyph-name="t" horiz-adv-x="714" unicode="t"/><glyph d="M424-8Q123-8 123 352v641q0 31 31 31h202q31 0 31-31V322q0-94 111-95h24q61 0 108.5 21.5T696 301v692q0 31 31 31h203q31 0 31-31V31q0-31-31-31H727q-31 0-31 31v90Q618-8 436-8h-12z" glyph-name="u" horiz-adv-x="1083" unicode="u"/><glyph d="M100 1024h201q27 0 37-35 125-420 186-667 74 291 187 667 10 35 37 35h202q37 0 25-35L647 41Q633 0 598 0H453q-33 0-52 41L76 989q-12 35 24 35z" glyph-name="v" horiz-adv-x="1050" unicode="v"/><glyph d="M1526 1024q16 0 24.5-9t-.5-26L1262 41q-14-41-52-41h-155q-35 0-49 41-47 139-187 598-41-137-192-598-14-41-49-41H422q-35 0-49 41L86 989q-12 35 25 35h202q27 0 37-35 27-104 76-324.5T506 322q33 129 91 348t83 319q10 35 37 35h192q37 0 43-35 25-100 83.5-319t90.5-348q35 135 87.5 355t74.5 312q10 35 37 35h201z" glyph-name="w" horiz-adv-x="1634" unicode="w"/><glyph d="M883 0H657q-27 0-47 37L498 268 385 37Q365 0 338 0H111Q93 0 86.5 12.5T90 39l260 469L86 985q-10 14-4 26.5t24 12.5h228q27 0 47-37l117-237 116 237q20 37 48 37h227q18 0 23.5-12.5T907 985L649 510 905 39q10-14 4-26.5T883 0z" glyph-name="x" horiz-adv-x="993" unicode="x"/><glyph d="M1030 1024q31 0 17-37L500-375q-14-35-45-35H254q-35 0-21 37L418 84 55 987q-14 37 19 37h205q31 0 40-35l226-588 237 588q14 35 43 35h205z" glyph-name="y" horiz-adv-x="1101" unicode="y"/><glyph d="M829 856q0-18-10-33L414 244h383q33 0 32-31V31q0-31-30-31H113Q82 0 82 31v133q0 23 10 35l406 581H131q-31 0-31 31v180q0 33 31 33h666q33 0 32-31V856z" glyph-name="z" horiz-adv-x="911" unicode="z"/><glyph d="M518 389q0-137 32-199.5T680 127h102q31 0 31-31v-209q0-31-31-30H582q-152 0-243 105.5T248 242v329q0 20-15 37l-92 113q-14 23 0 45l92 113q14 16 15 36v330q0 174 91 279.5T582 1630h200q31 0 31-31v-208q0-31-31-31H680q-98 0-130-62.5T518 1098V895q0-20-14-37l-88-115 90-114q12-18 12-37V389z" glyph-name="braceleft" horiz-adv-x="946" unicode="{"/><glyph d="M164 1608q0 31 31 30h208q31 0 31-30V-379q0-31-31-31H195q-31 0-31 31v1987z" glyph-name="bar" horiz-adv-x="598" unicode="|"/><glyph d="M428 389v203q0 18 12 37l90 114-88 115q-14 16-14 37v203q0 137-31.5 199.5T266 1360H164q-31 0-31 31v208q0 31 31 31h201q152 0 242.5-105.5T698 1245V915q0-20 15-36l92-113q14-23 0-45l-92-113q-14-16-15-37V242q0-174-91-279.5T365-143H164q-31 0-31 30V96q0 31 31 31h102q98 0 130 62.5T428 389z" glyph-name="braceright" horiz-adv-x="946" unicode="}"/><glyph d="M1051 674q14-20-21-45-106-72-243.5-84.5T550 586q-182 99-331-6-16-10-35 16l-78 154q-12 25 21 45 106 74 247.5 86.5T610 838q171-101 328 6 23 14 35-17z" glyph-name="asciitilde" horiz-adv-x="1155" unicode="~"/><glyph d="M446 756q0-31-30-31H184q-31 0-30 31v237q0 31 30 31h232q31 0 30-31V756zM434-379q0-31-31-31H195q-31 0-31 31v836q0 31 31 30h208q31 0 31-30v-836z" glyph-name="exclamdown" horiz-adv-x="600" unicode="¡"/><glyph d="M569 795V225q55 0 82 14.5t56 53.5q23 27 59-2l117-82q25-18 6-43-39-49-56.5-68.5T760 34 569-10v-221q0-31-30-31h-64q-31 0-31 31v221Q282-6 187 105.5T92 381v278q0 162 94.5 264.5T444 1030v164q0 31 31 31h64q31 0 30-31v-164q141 0 235.5-89T911 707q0-45-43-45H690q-39 0-44 47t-23.5 66.5T569 795zM362 326q0-90 82-101v570q-82-6-82-97V326z" glyph-name="cent" horiz-adv-x="995" unicode="¢"/><glyph d="M737 1511q199 0 312.5-125.5T1163 1038q0-31-30-30H924q-33 0-33 30 0 131-34 170t-120 39h-98q-173-1-141-199 18-106 45-188h256q31 0 30-31V629q0-31-30-31H616v-37q-6-106-22-157.5T526 287q53 23 89 20.5T731 276q158-57 361 25 14 6 22-4t8-27V61q0-14-6-18t-24-12q-209-90-424 0-115 43-193 35.5T285-2q-14-8-53 44t-33 69q14 37 50 120.5t60.5 157T338 561v37H123q-31 0-31 31v200q0 31 31 31h143q-117 341 22.5 496T639 1511h98z" glyph-name="sterling" horiz-adv-x="1255" unicode="£"/><glyph d="M666-10H559q-104 0-186 41l-78-80q-20-20-43 0L102 98q-20 20 0 43l109 109q-12 49-12 104v308q0 25 4 69L102 831q-20 20 0 43l150 150q23 20 43 0l51-51q90 59 213 59h107q131 0 219-63l55 55q23 20 43 0l150-150q23-23 0-43l-111-108q4-41 4-61V354q0-45-10-100l114-113q20-23 0-43L981-49q-23-20-43 0l-82 82q-86-43-190-43zm0 235q96 0 96 101v374q0 96-96 97H559q-96 0-96-97V326q0-100 96-101h107z" glyph-name="currency" horiz-adv-x="1234" unicode="¤"/><glyph d="M1126 1434q37 0 21-31L758 633h239q31 0 31-31V428q0-31-31-31H741v-73h256q31 0 31-31V121q0-31-31-31H741V31q0-31-30-31H502q-31 0-31 31v59H215q-31 0-31 31v172q0 31 31 31h256v73H215q-31 0-31 31v174q0 31 31 31h238L66 1403q-16 31 20 31h227q27 0 41-31l252-524 252 524q12 31 41 31h227z" glyph-name="yen" horiz-adv-x="1212" unicode="¥"/><glyph d="M164 1464q0 31 31 31h208q31 0 31-31V803q0-31-31-31H195q-31 0-31 31v661zm0-1038q0 31 31 31h208q31 0 31-31v-662q0-31-31-30H195q-31 0-31 30v662z" glyph-name="brokenbar" horiz-adv-x="598" unicode="¦"/><glyph d="M1098 381q0-109-41-176 41-92 41-199 0-180-128-299T668-412h-95q-170 0-300 119T143 0v59q0 31 31 31h211q31 0 31-31l2-59q4-59 48-100t107-41h95q70 0 114.5 41.5T827 18t-26.5 120T678 199l-121 20q-178 29-291.5 172.5T152 715q0 82 34 182l11-4q-45 90-45 197 0 176 116.5 289.5T555 1493h107q168 0 294.5-123t124.5-307v-39q0-31-30-31H840q-31 0-31 31v39q0 68-43 115t-104 47H555q-61 0-97-44.5t-36-92.5 2-65 20-55.5T569 911l121-20q172-29 290-174.5T1098 381zm-408 84q80-14 137-41-12 174-149 197l-121 20q-78 12-135 39 0-167 147-195z" glyph-name="section" horiz-adv-x="1241" unicode="§"/><glyph d="M102 1403q0 31 31 31h203q31 0 31-31v-195q0-31-31-30H133q-31 0-31 30v195zm449 0q0 31 31 31h202q31 0 31-31v-195q0-31-31-30H582q-31 0-31 30v195z" glyph-name="dieresis" horiz-adv-x="917" unicode="¨"/><glyph d="M760 1444q213 0 338-135t125-348V492q0-209-127-364T760-27H575q-209 0-335.5 155T113 492v469q0 213 124.5 348T575 1444h185zm0-1235q117 0 179 80t62 182v490q0 248-241 247H575q-242 0-241-247V471q0-102 63.5-182T575 209h185zm151 379q25 0 28-13.5t3-29.5q-2-152-59.5-203T694 291h-37q-254 0-254 217v403q0 217 254 217h37q131 0 188.5-51T942 877q0-39-10-41t-21-2H778q-23 0-22 18 0 76-64 76h-37q-61 0-61-66V557q0-66 61-65h37q61 0 64 77 0 18 22 19h133z" glyph-name="copyright" horiz-adv-x="1335" unicode="©"/><glyph d="M545 963H436q-10 0-18 18-41-18-94-18h-31q-82 0-136.5 42.5T102 1122t51.5 118 139.5 44h121q0 74-82 74h-33q-46 0-82-27l-18-14q-18-14-31 0l-49 65q-12 14 0 27 74 78 194 78h52q82 0 132-58.5t50-148.5v-274q0-25 4-34 3-9-6-9zm-254 127h35q49 0 88 16v51H291q-51 1-51-33t51-34z" glyph-name="ordfeminine" horiz-adv-x="653" unicode="ª"/><glyph d="M565 872V635q0-25-37-45l-131-64 131-63q37-20 37-45V180q0-16-11-20t-26 4L143 403q-31 20-30 58v131q0 37 30 57l385 240q14 8 25.5 4t11.5-21zm533 0V635q0-25-37-45l-131-64 131-63q37-20 37-45V180q0-16-11.5-20t-25.5 4L676 403q-31 20-31 58v131q0 37 31 57l385 240q14 8 25.5 4t11.5-21z" glyph-name="guillemotleft" horiz-adv-x="1210" unicode="«"/><glyph d="M899 723q31 0 31-31V289q0-31-31-31H690q-31 0-31 31v164H154q-31 0-31 30v209q0 31 31 31h745z" glyph-name="logicalnot" horiz-adv-x="1052" unicode="¬"/><glyph d="M154 395q-31 0-31 31v174q0 31 31 31h540q31 0 31-31V426q0-31-31-31H154z" glyph-name="uni00AD" horiz-adv-x="847" unicode="­"/><glyph d="M760 1444q213 0 338-135t125-348V492q0-209-127-364T760-27H575q-209 0-335.5 155T113 492v469q0 213 124.5 348T575 1444h185zm0-1235q117 0 179 80t62 182v490q0 248-241 247H575q-242 0-241-247V471q0-102 63.5-182T575 209h185zm158 313V342q0-47-46-47h-92q-41 0-41 47v180q0 55-16 69.5T659 606h-47V342q0-47-41-47h-96q-39 0-39 47v723q0 33 18.5 51.5T504 1135h170q113 0 177-59.5T915 910t-28.5-149-91.5-61q63-18 93-59t30-119zM659 784q39 0 58.5 16.5T737 870t-18.5 68.5T659 954h-47V784h47z" glyph-name="registered" horiz-adv-x="1335" unicode="®"/><glyph d="M133 1196q-31 0-31 31v176q0 31 31 31h664q31 0 30-31v-176q0-31-30-31H133z" glyph-name="macron" horiz-adv-x="929" unicode="¯"/><glyph d="M436 1444q127 0 205-84t78-215v-23q0-131-78-215t-205-84h-30q-131 0-207 83t-76 216v23q0 133 75.5 216t207.5 83h30zm78-303q0 43-22.5 67.5T428 1233h-14q-41 0-63.5-24.5T328 1141v-13q0-41 22.5-66.5T414 1036h14q41 0 63.5 25.5T514 1128v13z" glyph-name="degree" horiz-adv-x="841" unicode="°"/><glyph d="M901 846q29 0 29-31V606q0-31-31-31H664V365q0-31-31-31H424q-31 0-31 31v210H154q-31 0-31 31v209q0 31 31 31h239v209q0 31 31 30h209q31 0 31-30V846h237zm0-576q29 0 29-30V31q0-31-31-31H154q-31 0-31 31v209q0 31 31 30h747z" glyph-name="plusminus" horiz-adv-x="1052" unicode="±"/><glyph d="M532 883q0-31-30-31H158q-31 0-31 31v49q0 30 11 46.5t44 49.5l144 154q4 4 42 38t38 68q0 35-24 58.5t-58 23.5-56-19.5-22-45.5v-15q0-31-31-30h-61q-31 0-31 30v27q0 68 51 119t125 51h51q80 0 130-60.5t50-126.5-33.5-114.5T399 1073L295 969l207 4q31 0 30-31v-59z" glyph-name="uni00B2" horiz-adv-x="655" unicode="²"/><glyph d="M506 1037q0-71-50-127t-130-56h-52q-74 0-125 51t-51 119v27q0 31 31 30h61q31 0 31-30v-15q0-27 21.5-46t56.5-19 58.5 19.5 23.5 52-22.5 54T303 1118h-47q-31 0-31 31v45q0 31 31 31h47q33 0 55.5 21.5t22.5 54-23.5 52T299 1372t-56.5-19.5T221 1307v-15q0-31-31-30h-61q-31 0-31 30v27q0 68 51.5 119t124.5 51h52q80 0 130-56.5t50-127.5-70-134q70-63 70-134z" glyph-name="uni00B3" horiz-adv-x="653" unicode="³"/><glyph d="M252 1434h258q18 0 25.5-10.5T530 1397l-180-236q-27-37-51-37H129q-39 0-20 37l100 236q18 37 43 37z" glyph-name="acute" horiz-adv-x="641" unicode="´"/><glyph d="M1004 1434q31 0 30-31V31q0-31-30-31H795q-31 0-31 31v538h-74V31q0-31-31-31H451q-31 0-31 31v544q-147 27-232.5 140T102 1004t88.5 289.5T432 1430q8 4 19 4h553zM764 840v323h-74V840h74zm-391 163.5Q373 897 420 864v279q-47-33-47-139.5z" glyph-name="paragraph" horiz-adv-x="1155" unicode="¶"/><glyph d="M102 762q0 31 31 31h281q31 0 30-31V487q0-31-30-30H133q-31 0-31 30v275z" glyph-name="periodcentered" horiz-adv-x="546" unicode="·"/><glyph d="M397-266q60 0 60 22 0 16-18.5 22T344-206t-111 15-57 22-21 62.5T205-2q12 16 22 16h189q10 0 13-5t-1-11q-20-20-13-33.5T434-53t41-8q100-10 140-51.5T655-258q0-156-202-156H283q-86 0-132.5 43T102-250q0 20 19 21h160q20-1 20-19t55-18h41z" glyph-name="cedilla" horiz-adv-x="757" unicode="¸"/><glyph d="M246 1456q0 31 30 31h66q31 0 31-31V885q0-31-31-31h-66q-31 0-30 31v571z" glyph-name="uni00B9" horiz-adv-x="618" unicode="¹"/><glyph d="M354 524q86 0 146.5-65.5T561 307v-88q0-90-60.5-154.5T354 0h-45q-86 0-146.5 64.5T102 219v88q0 88 60.5 152.5T309 524h45zm72-231q0 35-23.5 59.5T348 377h-29q-37 0-59-23.5T238 293v-57q0-37 22.5-63t58.5-26h29q31 0 54.5 27t23.5 62v57z" glyph-name="ordmasculine" horiz-adv-x="663" unicode="º"/><glyph d="M565 461q0-37-30-58L150 164q-14-8-25.5-4T113 180v238q0 25 37 45l131 63-131 64q-37 20-37 45v237q0 16 11.5 20.5T150 889l385-240q31-20 30-57V461zm533 131V461q0-37-31-58L682 164q-14-8-25.5-4T645 180v238q0 25 37 45l131 63-131 64q-37 20-37 45v237q0 16 11.5 20.5T682 889l385-240q31-20 31-57z" glyph-name="guillemotright" horiz-adv-x="1210" unicode="»"/><glyph d="M1085 1487h78q39 0 21-31L356 31Q338 0 315 0h-77q-39 0-21 31l827 1425q18 31 41 31zm-839-31q0 31 30 31h66q31 0 31-31V885q0-31-31-31h-66q-31 0-30 31v571zM1358 242q31 0 31-31v-61q0-31-31-31h-29V31q0-31-31-31h-61q-31 0-31 31v88H983q-29 0-31 31l-6 59q0 8 8 24l217 388q8 14 29 14h98q31 0 31-31V242h29zm-152 4v205l-104-205h104z" glyph-name="onequarter" horiz-adv-x="1511" unicode="¼"/><glyph d="M1085 1487h78q39 0 21-31L356 31Q338 0 315 0h-77q-39 0-21 31l827 1425q18 31 41 31zm-839-31q0 31 30 31h66q31 0 31-31V885q0-31-31-31h-66q-31 0-30 31v571zM1356 90V31q0-31-31-31H981q-31 0-31 31v49q0 46 56 96l143 154q4 4 42 38t38 68q0 35-23.5 58.5T1147 518t-56.5-19.5T1069 453v-15q0-31-31-30h-61q-31 0-31 30v27q0 68 51.5 119t124.5 51h52q80 0 130-60.5t50-126.5-34-114.5-97-112.5l-105-104 207 4q31 0 31-31z" glyph-name="onehalf" horiz-adv-x="1478" unicode="½"/><glyph d="M350 854h-51q-74 0-125 51t-51 119v27q0 31 31 30h61q31 0 31-30v-15q0-27 21.5-46t56.5-19 58.5 19.5 23.5 52-23 54-55 21.5h-47q-31 0-31 31v45q0 31 31 31h47q33 0 55.5 21.5t22.5 54-24 52-58 19.5-56-19.5-22-45.5v-15q0-31-31-30h-61q-31 0-31 30v27q0 68 51 119t125 51h51q80 0 130-56.5t50-127.5-69-134q69-63 69-134t-50-127-130-56zm770 633h78q39 0 21-31L391 31Q373 0 350 0h-78q-39 0-20 31l827 1425q18 31 41 31zm273-1245q31 0 30-31v-61q0-31-30-31h-29V31q0-31-31-31h-61q-31 0-31 31v88h-223q-27 0-31 31l-6 59q0 8 8 24l217 388q6 14 29 14h98q31 0 31-31V242h29zm-152 4v205l-104-205h104z" glyph-name="threequarters" horiz-adv-x="1546" unicode="¾"/><glyph d="M733 760q0-31-31-31H471q-31 0-31 31v237q0 31 31 31h231q31 0 31-31V760zM479-485q-205 0-306 100T72-59q0 146 32.5 188.5t44 57 43 33 46 25.5 55.5 25.5 51 23.5 36.5 18 50.5 32 24 49v62q0 31 30 30h209q31 0 31-30V344q0-106-55.5-155.5T422 55q-51-23-65.5-46T342-86t22.5-104.5T479-223h107q84 0 111.5 27.5T729-96q4 43 43 43h186q43 0 43-45-12-205-115.5-296T586-485H479z" glyph-name="questiondown" horiz-adv-x="1073" unicode="¿"/><glyph d="M272 1905h258q25 0 43-37l101-236q18-37-21-37H483q-26 0-49 37l-182 236q-12 16-5 26.5t25 10.5zM1063 0H846q-29 0-37 33l-61 252H401L342 33q-8-33-37-33H88Q55 0 63 33l388 1368q10 33 38 33h173q29 0 38-33L1087 33q6-33-24-33zM457 520h233l-117 488z" glyph-name="Agrave" horiz-adv-x="1148" unicode="À"/><glyph d="M502 1534q-39 0-21 37l101 235q18 37 43 37h258q18 0 25-10t-5-27l-180-235q-27-37-51-37H502zM1063 0H846q-29 0-37 33l-61 252H401L342 33q-8-33-37-33H88Q55 0 63 33l388 1368q10 33 38 33h173q29 0 38-33L1087 33q6-33-24-33zM457 520h233l-117 488z" glyph-name="Aacute" horiz-adv-x="1148" unicode="Á"/><glyph d="M211 1513q-16 0-22.5 12.5t6.5 26.5l225 263q25 33 55 32h201q31 0 57-32l225-263q12-16 6-27.5t-22-11.5H731q-19 0-45 39l-108 134-111-134q-22-32-30.5-35.5T422 1513H211zM1063 0H846q-29 0-37 33l-61 252H401L342 33q-8-33-37-33H88Q55 0 63 33l388 1368q10 33 38 33h173q29 0 38-33L1087 33q6-33-24-33zM457 520h233l-117 488z" glyph-name="Acircumflex" horiz-adv-x="1148" unicode="Â"/><glyph d="M274 1583l-75 154q-8 23 20 43 219 154 397 37 84-47 124-42t110 54q20 14 33-17l75-153q8-25-22-43-209-150-395-37-88 47-126 43t-108-55q-21-15-33 16zM1063 0H846q-29 0-37 33l-61 252H401L342 33q-8-33-37-33H88Q55 0 63 33l388 1368q10 33 38 33h173q29 0 38-33L1087 33q6-33-24-33zM457 520h233l-117 488z" glyph-name="Atilde" horiz-adv-x="1148" unicode="Ã"/><glyph d="M248 1587q-31 0-31 31v194q0 31 31 31h203q31 0 30-31v-194q0-31-30-31H248zm448 0q-31 0-30 31v194q0 31 30 31h203q31 0 31-31v-194q0-31-31-31H696zM1063 0H846q-29 0-37 33l-61 252H401L342 33q-8-33-37-33H88Q55 0 63 33l388 1368q10 33 38 33h173q29 0 38-33L1087 33q6-33-24-33zM457 520h233l-117 488z" glyph-name="Adieresis" horiz-adv-x="1148" unicode="Ä"/><glyph d="M561 1511q-74 0-123 49.5T389 1681v23q0 74 49 123t123 49h27q74 0 123-49t49-123v-23q0-72-48-121t-124-49h-27zm-33 191v-14q0-16 11.5-27.5T565 1649h19q16 0 27.5 11t11.5 28v14q0 14-11.5 25.5T584 1739h-19q-14 0-25.5-11.5T528 1702zM1063 0H846q-29 0-37 33l-61 252H401L342 33q-8-33-37-33H88Q55 0 63 33l388 1368q10 33 38 33h173q29 0 38-33L1087 33q6-33-24-33zM457 520h233l-117 488z" glyph-name="Aring" horiz-adv-x="1148" unicode="Å"/><glyph d="M1688 242q31 0 30-31V31q0-31-30-31H897q-31 0-31 31v248H483L340 31Q322 0 299 0H78Q39 0 57 31l787 1372q18 31 41 31h792q31 0 31-31v-180q0-31-31-31h-540V831h411q31 0 31-30V621q0-31-31-31h-411V242h551zM866 518v430L618 518h248z" glyph-name="AE" horiz-adv-x="1800" unicode="Æ"/><glyph d="M719-266q59 0 59 22 0 16-18 22-18 7-94 16-76 10-106 14-53 8-82 51.5T520-10Q317-8 215 105.5T113 416v602q0 199 103 312.5T524 1444h197q195 0 297-105.5t112-298.5q4-43-40-43H905q-41 0-45 43-4 90-36.5 126T721 1202H524q-76 0-108.5-41T383 1018V416q0-104 33-144.5T524 231h197q70 0 102.5 35T860 393q4 43 45 43h185q45 0 40-43Q1110 2 743-10q-16-16-5-30t59-21q100-10 140-51.5T977-258q0-156-203-156H604q-86 0-132 43t-48 121q0 20 18 21h160q20 0 21-17 0-20 55-20h41z" glyph-name="Ccedilla" horiz-adv-x="1232" unicode="Ç"/><glyph d="M633 1595H463q-27 0-49 37l-183 236q-12 16-5 26.5t26 10.5h258q25 0 43-37l100-236q18-37-20-37zm311-403H403V831h412q31 0 31-30V621q0-31-31-31H403V242h551q31 0 31-31V31q0-31-31-31H164q-31 0-31 31v1372q0 31 31 31h780q31 0 31-31v-180q0-31-31-31z" glyph-name="Egrave" unicode="È"/><glyph d="M604 1843h258q18 0 25.5-10t-4.5-27l-181-235q-27-37-51-37H481q-39 0-20 37l100 235q18 37 43 37zm340-651H403V831h412q31 0 31-30V621q0-31-31-31H403V242h551q31 0 31-31V31q0-31-31-31H164q-31 0-31 31v1372q0 31 31 31h780q31 0 31-31v-180q0-31-31-31z" glyph-name="Eacute" unicode="É"/><glyph d="M655 1847q31 0 58-32l225-263q12-16 6-27.5t-22-11.5H711q-19 0-45 39l-109 134-111-134q-4-6-10-13t-9-11q-11-15-26-15H190q-16 0-22 12.5t6 26.5l225 263q25 33 56 32h200zm289-655H403V831h412q31 0 31-30V621q0-31-31-31H403V242h551q31 0 31-31V31q0-31-31-31H164q-31 0-31 31v1372q0 31 31 31h780q31 0 31-31v-180q0-31-31-31z" glyph-name="Ecircumflex" unicode="Ê"/><glyph d="M197 1812q0 31 30 31h203q31 0 31-31v-194q0-31-31-31H227q-31 0-30 31v194zm448 0q0 31 31 31h203q31 0 30-31v-194q0-31-30-31H676q-31 0-31 31v194zm299-620H403V831h412q31 0 31-30V621q0-31-31-31H403V242h551q31 0 31-31V31q0-31-31-31H164q-31 0-31 31v1372q0 31 31 31h780q31 0 31-31v-180q0-31-31-31z" glyph-name="Edieresis" unicode="Ë"/><glyph d="M348 1595H178q-27 0-49 37l-182 236q-12 16-5 26.5t25 10.5h258q25 0 43-37l101-236q18-37-21-37zm-215-192q0 31 31 31h213q31 0 31-31V31q0-31-31-31H164q-31 0-31 31v1372z" glyph-name="Igrave" horiz-adv-x="540" unicode="Ì"/><glyph d="M319 1843h259q18 0 25-10t-5-27l-180-235q-27-37-51-37H197q-39 0-21 37l100 235q18 37 43 37zm-186-440q0 31 31 31h213q31 0 31-31V31q0-31-31-31H164q-31 0-31 31v1372z" glyph-name="Iacute" horiz-adv-x="540" unicode="Í"/><glyph d="M371 1847q31 0 57-32l225-263q12-16 6-27.5t-22-11.5H426q-19 0-45 39l-109 134-110-134q-4-6-10.5-13t-9.5-11q-11-15-25-15H-94q-16 0-22.5 12.5t5.5 26.5l226 263q25 33 55 32h201zm-238-444q0 31 31 31h213q31 0 31-31V31q0-31-31-31H164q-31 0-31 31v1372z" glyph-name="Icircumflex" horiz-adv-x="540" unicode="Î"/><glyph d="M-88 1812q0 31 31 31h202q31 0 31-31v-194q0-31-31-31H-57q-31 0-31 31v194zm448 0q0 31 31 31h203q31 0 31-31v-194q0-31-31-31H391q-31 0-31 31v194zm-227-409q0 31 31 31h213q31 0 31-31V31q0-31-31-31H164q-31 0-31 31v1372z" glyph-name="Idieresis" horiz-adv-x="540" unicode="Ï"/><glyph d="M752 1434q203 0 305-106.5t102-293.5V403q0-188-102.5-295.5T752 0H213q-31 0-31 31v596H61q-31 0-30 30v174q0 31 30 31h121v541q0 31 31 31h539zM889 403v631q0 90-32 124t-105 34H453V862h149q31 0 31-31V657q0-31-31-30H453V242h299q74 0 105.5 33.5T889 403z" glyph-name="Eth" horiz-adv-x="1251" unicode="Ð"/><glyph d="M1020 1659q8-25-23-43-209-150-395-37-88 47-126 43t-107-55q-20-14-33 16l-76 154q-8 23 21 43 219 154 397 37 84-47 124-42t109 54q20 14 33-17zm90-225q31 0 31-31V31q0-31-31-31H842q-27 0-37 23L403 967V31q0-31-30-31H164q-31 0-31 31v1372q0 31 31 31h270q25 0 37-23l399-942v934q0 31 31 31h209z" glyph-name="Ntilde" horiz-adv-x="1273" unicode="Ñ"/><glyph d="M713 1595H543q-27 0-49 37l-183 236q-12 16-5 26.5t26 10.5h258q25 0 43-37l100-236q18-37-20-37zm30-151q205 0 308.5-113.5T1155 1018V416q0-199-103.5-312.5T743-10H524q-205 0-308 113.5T113 416v602q0 199 103 312.5T524 1444h219zM885 416v602q0 102-33 143t-109 41H524q-76 0-108.5-41T383 1018V416q0-104 33-144.5T524 231h219q76 0 109 40.5T885 416z" glyph-name="Ograve" horiz-adv-x="1267" unicode="Ò"/><glyph d="M682 1843h258q18 0 25.5-10t-4.5-27l-181-235q-27-37-51-37H559q-39 0-20 37l100 235q18 37 43 37zm61-399q205 0 308.5-113.5T1155 1018V416q0-199-103.5-312.5T743-10H524q-205 0-308 113.5T113 416v602q0 199 103 312.5T524 1444h219zM885 416v602q0 102-33 143t-109 41H524q-76 0-108.5-41T383 1018V416q0-104 33-144.5T524 231h219q76 0 109 40.5T885 416z" glyph-name="Oacute" horiz-adv-x="1267" unicode="Ó"/><glyph d="M735 1847q31 0 58-32l225-263q12-16 6-27.5t-23-11.5H791q-15 0-28 16.5t-18 22.5l-108 134-111-134q-4-6-10-13t-9-11q-11-15-26-15H270q-16 0-22 12.5t6 26.5l225 263q25 33 56 32h200zm8-403q205 0 308.5-113.5T1155 1018V416q0-199-103.5-312.5T743-10H524q-205 0-308 113.5T113 416v602q0 199 103 312.5T524 1444h219zM885 416v602q0 102-33 143t-109 41H524q-76 0-108.5-41T383 1018V416q0-104 33-144.5T524 231h219q76 0 109 40.5T885 416z" glyph-name="Ocircumflex" horiz-adv-x="1267" unicode="Ô"/><glyph d="M1016 1659q8-25-23-43-209-150-395-37-88 47-126 43t-107-55q-20-14-33 16l-76 154q-8 23 20 43 219 154 398 37 84-47 124-42t109 54q20 14 33-17zm-273-215q205 0 308.5-113.5T1155 1018V416q0-199-103.5-312.5T743-10H524q-205 0-308 113.5T113 416v602q0 199 103 312.5T524 1444h219zM885 416v602q0 102-33 143t-109 41H524q-76 0-108.5-41T383 1018V416q0-104 33-144.5T524 231h219q76 0 109 40.5T885 416z" glyph-name="Otilde" horiz-adv-x="1267" unicode="Õ"/><glyph d="M276 1812q0 31 31 31h203q31 0 31-31v-194q0-31-31-31H307q-31 0-31 31v194zm449 0q0 31 31 31h202q31 0 31-31v-194q0-31-31-31H756q-31 0-31 31v194zm18-368q205 0 308.5-113.5T1155 1018V416q0-199-103.5-312.5T743-10H524q-205 0-308 113.5T113 416v602q0 199 103 312.5T524 1444h219zM885 416v602q0 102-33 143t-109 41H524q-76 0-108.5-41T383 1018V416q0-104 33-144.5T524 231h219q76 0 109 40.5T885 416z" glyph-name="Odieresis" horiz-adv-x="1267" unicode="Ö"/><glyph d="M866 477q20-25 0-45L721 285q-23-23-45 0L489 471 319 303q-20-20-43 0L129 449q-27 23 0 45l170 170-186 184q-23 20 0 43l147 149q23 20 43 0l186-186 168 168q18 18 41-2l150-148q20-20 0-43L680 664z" glyph-name="multiply" horiz-adv-x="978" unicode="×"/><glyph d="M854 1487h221q35 0 21-31l-52-119q111-111 111-319V416q0-199-103.5-312.5T743-10H524q-25 0-65 4l-6-14q-12-31-41-31H190q-33 0-20 31l51 118Q112 207 113 416v602q0 199 103 312.5T524 1444h219l64-2 6 14q14 31 41 31zm-471-469V469l319 733H524q-76 0-108.5-41T383 1018zm360-787q76 0 109 40t33 145v555L563 231h180z" glyph-name="Oslash" horiz-adv-x="1267" unicode="Ø"/><glyph d="M733 1595H563q-27 0-49 37l-182 236q-12 16-5 26.5t25 10.5h258q25 0 43-37l101-236q18-37-21-37zm400-161q43 0 43-43V416q0-203-102.5-314.5T764-10H547q-209 0-311.5 111.5T133 416v975q0 43 43 43h184q43 0 43-43V416q0-100 34-142.5T547 231h217q76 0 108.5 42T905 416v975q0 43 43 43h185z" glyph-name="Ugrave" horiz-adv-x="1308" unicode="Ù"/><glyph d="M702 1843h259q18 0 25-10t-5-27l-180-235q-27-37-51-37H580q-39 0-21 37l100 235q18 37 43 37zm431-409q43 0 43-43V416q0-203-102.5-314.5T764-10H547q-209 0-311.5 111.5T133 416v975q0 43 43 43h184q43 0 43-43V416q0-100 34-142.5T547 231h217q76 0 108.5 42T905 416v975q0 43 43 43h185z" glyph-name="Uacute" horiz-adv-x="1308" unicode="Ú"/><glyph d="M756 1847q31 0 57-32l225-263q12-16 6-27.5t-22-11.5H811q-19 0-45 39l-109 134-110-134q-4-6-10.5-13t-9.5-11q-11-15-25-15H291q-16 0-22.5 12.5t5.5 26.5l226 263q25 33 55 32h201zm377-413q43 0 43-43V416q0-203-102.5-314.5T764-10H547q-209 0-311.5 111.5T133 416v975q0 43 43 43h184q43 0 43-43V416q0-100 34-142.5T547 231h217q76 0 108.5 42T905 416v975q0 43 43 43h185z" glyph-name="Ucircumflex" horiz-adv-x="1308" unicode="Û"/><glyph d="M297 1812q0 31 31 31h202q31 0 31-31v-194q0-31-31-31H328q-31 0-31 31v194zm448 0q0 31 31 31h203q31 0 31-31v-194q0-31-31-31H776q-31 0-31 31v194zm388-378q43 0 43-43V416q0-203-102.5-314.5T764-10H547q-209 0-311.5 111.5T133 416v975q0 43 43 43h184q43 0 43-43V416q0-100 34-142.5T547 231h217q76 0 108.5 42T905 416v975q0 43 43 43h185z" glyph-name="Udieresis" horiz-adv-x="1308" unicode="Ü"/><glyph d="M653 1843h258q18 0 25.5-10t-4.5-27l-180-235q-27-37-52-37H530q-39 0-20 37l100 235q18 37 43 37zm473-409q37 0 21-31L741 598V31q0-31-30-31H502q-31 0-31 31v567L66 1403q-16 31 20 31h227q27 0 41-31l252-524 252 524q12 31 41 31h227z" glyph-name="Yacute" horiz-adv-x="1212" unicode="Ý"/><glyph d="M651 1176q182 0 291-117t109-313.5T942.5 430 651 311H403V31q0-31-30-31H164q-31 0-31 31v1425q0 31 31 31h209q31 0 30-31v-280h248zm-24-619q154 0 153 188 0 104-41 144.5T627 930H403V557h224z" glyph-name="Thorn" horiz-adv-x="1153" unicode="Þ"/><glyph d="M1098 475V369q0-188-103.5-278.5T668 0h-60q-31 0-30 31v174q0 31 30 31h62q94 0 130 29.5T836 395v78q0 86-38 125t-124 39h-66q-31 0-30 31v174q0 31 30 30h66q52 0 67 10.5t25 15 10 12.5v192q0 51-21.5 73.5T684 1198H483q-94 0-94-96L387 31q0-31-31-31H156q-31 0-31 31l-2 1071q0 154 98 243t262 89h201q156 0 255-90.5t99-241.5v-88q1-223-151-252 211-53 211-287z" glyph-name="germandbls" horiz-adv-x="1189" unicode="ß"/><glyph d="M221 1495h258q25 0 43-37l101-235q18-37-21-37H432q-26 0-49 37l-182 235q-12 16-5 26.5t25 10.5zM932 0H707q-37 0-37 49v49Q594-11 475-10h-55q-147 0-242.5 87T82 313q0 299 334 299h254v88q0 55-26 76t-89 21h-68q-115 0-225-43-55-18-74 20l-49 119q-14 35 11 49 145 90 337 90h68q379 0 379-346V49q0-15 4-32t-6-17zM535 225q104 0 135 60v125H420q-76 0-76-92.5t76-92.5h115z" glyph-name="agrave" horiz-adv-x="1062" unicode="à"/><glyph d="M451 1124q-39 0-21 37l100 236q18 37 43 37h258q18 0 25.5-10.5T852 1397l-180-236q-27-37-51-37H451zM932 0H707q-37 0-37 49v49Q594-11 475-10h-55q-147 0-242.5 87T82 313q0 299 334 299h254v88q0 55-26 76t-89 21h-68q-115 0-225-43-55-18-74 20l-49 119q-14 35 11 49 145 90 337 90h68q379 0 379-346V49q0-15 4-32t-6-17zM535 225q104 0 135 60v125H420q-76 0-76-92.5t76-92.5h115z" glyph-name="aacute" horiz-adv-x="1062" unicode="á"/><glyph d="M160 1104q-16 0-22.5 12t5.5 27l226 262q25 33 55 33h201q31 0 57-33l225-262q12-16 6-27.5t-22-11.5H680q-19 0-45 39l-109 133-110-133q-4-6-10.5-13.5T396 1118q-10-14-25-14H160zM932 0H707q-37 0-37 49v49Q594-11 475-10h-55q-147 0-242.5 87T82 313q0 299 334 299h254v88q0 55-26 76t-89 21h-68q-115 0-225-43-55-18-74 20l-49 119q-14 35 11 49 145 90 337 90h68q379 0 379-346V49q0-15 4-32t-6-17zM535 225q104 0 135 60v125H420q-76 0-76-92.5t76-92.5h115z" glyph-name="acircumflex" horiz-adv-x="1062" unicode="â"/><glyph d="M223 1174l-76 153q-8 23 21 43 219 154 397 37 84-47 124-42t110 54q20 14 32-16l76-154q8-25-22-43-209-150-396-37-88 47-125.5 43T256 1157q-21-14-33 17zM932 0H707q-37 0-37 49v49Q594-11 475-10h-55q-147 0-242.5 87T82 313q0 299 334 299h254v88q0 55-26 76t-89 21h-68q-115 0-225-43-55-18-74 20l-49 119q-14 35 11 49 145 90 337 90h68q379 0 379-346V49q0-15 4-32t-6-17zM535 225q104 0 135 60v125H420q-76 0-76-92.5t76-92.5h115z" glyph-name="atilde" horiz-adv-x="1062" unicode="ã"/><glyph d="M199 1178q-31 0-31 30v195q0 31 31 31h202q31 0 31-31v-195q0-31-31-30H199zm448 0q-31 0-31 30v195q0 31 31 31h203q31 0 31-31v-195q0-31-31-30H647zM932 0H707q-37 0-37 49v49Q594-11 475-10h-55q-147 0-242.5 87T82 313q0 299 334 299h254v88q0 55-26 76t-89 21h-68q-115 0-225-43-55-18-74 20l-49 119q-14 35 11 49 145 90 337 90h68q379 0 379-346V49q0-15 4-32t-6-17zM535 225q104 0 135 60v125H420q-76 0-76-92.5t76-92.5h115z" glyph-name="adieresis" horiz-adv-x="1062" unicode="ä"/><glyph d="M510 1102q-76 0-124 49t-48 121v22q0 74 49 123t123 49h27q74 0 123-49t49-123v-22q0-72-49.5-121T537 1102h-27zm-33 190v-14q0-16 11.5-27.5T514 1239h18q16 0 27.5 11.5T571 1278v14q0 14-11 25.5t-28 11.5h-18q-14 0-25.5-11.5T477 1292zM932 0H707q-37 0-37 49v49Q594-11 475-10h-55q-147 0-242.5 87T82 313q0 299 334 299h254v88q0 55-26 76t-89 21h-68q-115 0-225-43-55-18-74 20l-49 119q-14 35 11 49 145 90 337 90h68q379 0 379-346V49q0-15 4-32t-6-17zM535 225q104 0 135 60v125H420q-76 0-76-92.5t76-92.5h115z" glyph-name="aring" horiz-adv-x="1062" unicode="å"/><glyph d="M1415 410H928v-84q0-100 96-101h109q78 0 107.5 10.5T1298 279q16 18 48-3l98-65q31-20 12-45-39-47-58.5-67.5T1338 46q-70-56-205-56h-109q-111 0-193.5 51T702 182Q622-11 467-10h-47q-150 0-244 86T82 311q0 301 334 301h241v88q0 55-25.5 76T543 797h-56q-115 0-225-43-55-18-74 20l-49 119q-14 35 11 49 145 90 337 90h56q168 0 258-63 92 63 223 63h109q150 0 247-101.5t97-271.5V469q-1-59-62-59zM928 698v-86h284v88q0 96-79 97h-109q-96-1-96-99zM526 225q68 0 96.5 19.5T664 301q-6 37-7 80v29H420q-76 0-76-92.5t76-92.5h106z" glyph-name="ae" horiz-adv-x="1568" unicode="æ"/><glyph d="M590-266q59 0 59 22 0 16-18.5 22.5t-94 15.5T426-191.5 368.5-169 347-107.5 395-6Q254 17 173 124T92 381v278q0 164 98.5 267.5T459 1030h108q141 0 236.5-89T911 707q0-45-43-45H690q-39 0-43 43-10 90-80 90H459q-96 0-97-97V326q0-100 97-101h108q57 0 84 14.5t56 53.5q23 27 59-2l117-82q25-18 6-43-45-57-68.5-82t-79-55.5T616-8q-14-31-1.5-39T668-61q100-10 140-51.5T848-258q0-156-203-156H475q-86 0-132 43t-48 121q0 20 18 21h160q20 0 21-17 0-20 55-20h41z" glyph-name="ccedilla" horiz-adv-x="995" unicode="ç"/><glyph d="M578 1186H408q-27 0-50 37l-182 235q-12 16-5 26.5t26 10.5h258q25 0 43-37l100-235q18-37-20-37zm-11-154q150 0 247-101.5T911 659V469q0-59-61-59H362v-84q0-100 97-101h108q78 0 108 10.5t58 43.5q16 18 47-3l101-65q29-20 10-45-39-49-57.5-68.5T774 46q-72-56-207-56H459q-168 0-267.5 111.5T92 381v278q0 166 98.5 269.5T459 1032h108zm80-420v88q0 96-80 97H459q-96 0-97-99v-86h285z" glyph-name="egrave" horiz-adv-x="1003" unicode="è"/><glyph d="M549 1434h258q18 0 25.5-10.5T827 1397l-180-236q-27-37-51-37H426q-39 0-20 37l100 236q18 37 43 37zm18-402q150 0 247-101.5T911 659V469q0-59-61-59H362v-84q0-100 97-101h108q78 0 108 10.5t58 43.5q16 18 47-3l101-65q29-20 10-45-39-49-57.5-68.5T774 46q-72-56-207-56H459q-168 0-267.5 111.5T92 381v278q0 166 98.5 269.5T459 1032h108zm80-420v88q0 96-80 97H459q-96 0-97-99v-86h285z" glyph-name="eacute" horiz-adv-x="1003" unicode="é"/><glyph d="M399 1438h201q31 0 57-33l226-262q12-16 6-27.5t-23-11.5H655q-19 0-45 39l-108 133-111-133q-4-6-10-13.5t-9-11.5q-10-14-26-14H135q-16 0-22 12.5t6 26.5l225 262q25 33 55 33zm168-406q150 0 247-101.5T911 659V469q0-59-61-59H362v-84q0-100 97-101h108q78 0 108 10.5t58 43.5q16 18 47-3l101-65q29-20 10-45-39-49-57.5-68.5T774 46q-72-56-207-56H459q-168 0-267.5 111.5T92 381v278q0 166 98.5 269.5T459 1032h108zm80-420v88q0 96-80 97H459q-96 0-97-99v-86h285z" glyph-name="ecircumflex" horiz-adv-x="1003" unicode="ê"/><glyph d="M141 1403q0 31 31 31h203q31 0 31-31v-195q0-31-31-30H172q-31 0-31 30v195zm449 0q0 31 31 31h202q31 0 31-31v-195q0-31-31-30H621q-31 0-31 30v195zm-23-371q150 0 247-101.5T911 659V469q0-59-61-59H362v-84q0-100 97-101h108q78 0 108 10.5t58 43.5q16 18 47-3l101-65q29-20 10-45-39-49-57.5-68.5T774 46q-72-56-207-56H459q-168 0-267.5 111.5T92 381v278q0 166 98.5 269.5T459 1032h108zm80-420v88q0 96-80 97H459q-96 0-97-99v-86h285z" glyph-name="edieresis" horiz-adv-x="1003" unicode="ë"/><glyph d="M369 1186H199q-27 0-49 37l-183 235q-12 16-5 26.5t26 10.5h258q25 0 43-37l100-235q18-37-20-37zM164 993q0 31 31 31h202q31 0 31-31V31q0-31-31-31H195q-31 0-31 31v962z" glyph-name="igrave" horiz-adv-x="591" unicode="ì"/><glyph d="M340 1434h258q18 0 25.5-10.5T618 1397l-180-236q-27-37-51-37H217q-39 0-20 37l100 236q18 37 43 37zM164 993q0 31 31 31h202q31 0 31-31V31q0-31-31-31H195q-31 0-31 31v962z" glyph-name="iacute" horiz-adv-x="591" unicode="í"/><glyph d="M190 1438h201q31 0 58-33l225-262q12-16 6-27.5t-23-11.5H446q-15 0-27.5 16.5T401 1143l-108 133-111-133q-4-6-10-13.5t-13-16.5-22-9H-74q-16 0-22 12.5t6 26.5l225 262q25 33 55 33zm-26-445q0 31 31 31h202q31 0 31-31V31q0-31-31-31H195q-31 0-31 31v962z" glyph-name="icircumflex" horiz-adv-x="591" unicode="î"/><glyph d="M-66 1403q0 31 31 31h203q31 0 31-31v-195q0-31-31-30H-35q-31 0-31 30v195zm449 0q0 31 31 31h202q31 0 31-31v-195q0-31-31-30H414q-31 0-31 30v195zM164 993q0 31 31 31h202q31 0 31-31V31q0-31-31-31H195q-31 0-31 31v962z" glyph-name="idieresis" horiz-adv-x="591" unicode="ï"/><glyph d="M983 1487q18 0 24.5-10.5t-6.5-26.5l-98-127q63-102 76-227 39-352 8-682-18-201-121.5-317.5T614-20H481Q319-20 212.5 94T102 442q-8 475 404 476h51q51 0 74.5-2.5t37-3.5 27-6 17.5-6 18-8 19-9q3 48-14 109t-23 91q-4-2-15-2H465q-18 0-24.5 10.5t3.5 26.5l97 125h-33q-31 0-31 31v209q0 31 31 30h49q94 0 170-34 10 8 23 8h233zM646 639H530q-88 2-121.5-52.5T377 428t30.5-141 98.5-37h59q4 0 34-4t44 0 54.5 25 44 141.5-6.5 154-24.5 44-28 19.5-36.5 9z" glyph-name="eth" horiz-adv-x="1112" unicode="ð"/><glyph d="M924 1249q8-25-23-43-209-150-395-37-88 47-126 43t-108-55q-20-14-32 17l-76 153q-8 23 20 43 219 154 398 37 84-47 123.5-42t109.5 54q20 14 33-16zm-265-217q301 0 302-360V31q0-31-31-31H727q-31 0-31 31v671q0 94-110 95h-25q-61 0-108-21.5T387 723V31q0-31-31-31H154q-31 0-31 31v962q0 31 31 31h202q31 0 31-31v-90q78 129 260 129h12z" glyph-name="ntilde" horiz-adv-x="1083" unicode="ñ"/><glyph d="M575 1186H406q-27 0-50 37l-182 235q-12 16-5 26.5t26 10.5h258q25 0 43-37l100-235q18-37-21-37zm-16-154q168 0 264.5-102.5T920 662V354q0-164-95.5-264T559-10H453Q283-10 187.5 90T92 354v308q0 166 96.5 268T453 1032h106zm96-706v374q0 96-96 97H453q-96 0-97-97V326q0-100 97-101h106q96 1 96 101z" glyph-name="ograve" horiz-adv-x="1011" unicode="ò"/><glyph d="M547 1434h258q18 0 25.5-10.5T825 1397l-180-236q-27-37-51-37H424q-39 0-21 37l101 236q18 37 43 37zm12-402q168 0 264.5-102.5T920 662V354q0-164-95.5-264T559-10H453Q283-10 187.5 90T92 354v308q0 166 96.5 268T453 1032h106zm96-706v374q0 96-96 97H453q-96 0-97-97V326q0-100 97-101h106q96 1 96 101z" glyph-name="oacute" horiz-adv-x="1011" unicode="ó"/><glyph d="M397 1438h201q31 0 57-33l226-262q12-16 6-27.5t-23-11.5H653q-19 0-45 39l-108 133-111-133q-4-6-10-13.5t-9-11.5q-10-14-26-14H133q-16 0-22 12.5t6 26.5l225 262q25 33 55 33zm162-406q168 0 264.5-102.5T920 662V354q0-164-95.5-264T559-10H453Q283-10 187.5 90T92 354v308q0 166 96.5 268T453 1032h106zm96-706v374q0 96-96 97H453q-96 0-97-97V326q0-100 97-101h106q96 1 96 101z" glyph-name="ocircumflex" horiz-adv-x="1011" unicode="ô"/><glyph d="M881 1249q8-25-23-43-209-150-395-37-88 47-126 43t-108-55q-20-14-32 17l-76 153q-8 23 20 43 219 154 398 37 84-47 123.5-42t109.5 54q20 14 33-16zm-322-217q168 0 264.5-102.5T920 662V354q0-164-95.5-264T559-10H453Q283-10 187.5 90T92 354v308q0 166 96.5 268T453 1032h106zm96-706v374q0 96-96 97H453q-96 0-97-97V326q0-100 97-101h106q96 1 96 101z" glyph-name="otilde" horiz-adv-x="1011" unicode="õ"/><glyph d="M141 1403q0 31 31 31h203q31 0 31-31v-195q0-31-31-30H172q-31 0-31 30v195zm449 0q0 31 31 31h202q31 0 31-31v-195q0-31-31-30H621q-31 0-31 30v195zm-31-371q168 0 264.5-102.5T920 662V354q0-164-95.5-264T559-10H453Q283-10 187.5 90T92 354v308q0 166 96.5 268T453 1032h106zm96-706v374q0 96-96 97H453q-96 0-97-97V326q0-100 97-101h106q96 1 96 101z" glyph-name="odieresis" horiz-adv-x="1011" unicode="ö"/><glyph d="M379 1163q0 31 31 31h231q31 0 31-31V938q0-31-31-31H410q-31 0-31 31v225zm522-366q29 0 29-31V557q0-31-31-31H154q-31 0-31 31v209q0 31 31 31h747zM379 385q0 31 31 31h231q31 0 31-31V160q0-31-31-31H410q-31 0-31 31v225z" glyph-name="divide" horiz-adv-x="1052" unicode="÷"/><glyph d="M920 354q0-164-95.5-264T559-10H453q-20 0-62 4-12-25-37-25H158q-35 0-21 31l45 94Q92 194 92 354v308q0 166 96.5 268T453 1032h106q23 0 68-4 12 16 32 16h195q35 0 20-30l-43-92q88-100 89-260V354zM356 700V461l158 336h-61q-97-1-97-97zm203-475q96 0 96 101v223L502 225h57z" glyph-name="oslash" horiz-adv-x="1011" unicode="ø"/><glyph d="M627 1186H457q-27 0-49 37l-183 235q-12 16-5 26.5t26 10.5h258q25 0 43-37l100-235q18-37-20-37zM424-8Q123-8 123 352v641q0 31 31 31h202q31 0 31-31V322q0-94 111-95h24q61 0 108.5 21.5T696 301v692q0 31 31 31h203q31 0 31-31V31q0-31-31-31H727q-31 0-31 31v90Q618-8 436-8h-12z" glyph-name="ugrave" horiz-adv-x="1083" unicode="ù"/><glyph d="M598 1434h258q18 0 25.5-10.5T877 1397l-181-236q-27-37-51-37H475q-39 0-20 37l100 236q18 37 43 37zM424-8Q123-8 123 352v641q0 31 31 31h202q31 0 31-31V322q0-94 111-95h24q61 0 108.5 21.5T696 301v692q0 31 31 31h203q31 0 31-31V31q0-31-31-31H727q-31 0-31 31v90Q618-8 436-8h-12z" glyph-name="uacute" horiz-adv-x="1083" unicode="ú"/><glyph d="M449 1438h200q31 0 58-33l225-262q12-16 6-27.5t-23-11.5H705q-16 0-28.5 16.5T659 1143l-108 133-111-133q-4-6-10-13.5t-9-11.5q-10-14-26-14H184q-16 0-22 12.5t6 26.5l225 262q25 33 56 33zM424-8Q123-8 123 352v641q0 31 31 31h202q31 0 31-31V322q0-94 111-95h24q61 0 108.5 21.5T696 301v692q0 31 31 31h203q31 0 31-31V31q0-31-31-31H727q-31 0-31 31v90Q618-8 436-8h-12z" glyph-name="ucircumflex" horiz-adv-x="1083" unicode="û"/><glyph d="M193 1403q0 31 30 31h203q31 0 31-31v-195q0-31-31-30H223q-31 0-30 30v195zm448 0q0 31 31 31h202q31 0 31-31v-195q0-31-31-30H672q-31 0-31 30v195zM424-8Q123-8 123 352v641q0 31 31 31h202q31 0 31-31V322q0-94 111-95h24q61 0 108.5 21.5T696 301v692q0 31 31 31h203q31 0 31-31V31q0-31-31-31H727q-31 0-31 31v90Q618-8 436-8h-12z" glyph-name="udieresis" horiz-adv-x="1083" unicode="ü"/><glyph d="M475 1124q-39 0-20 37l100 236q18 37 43 37h258q18 0 25.5-10.5T877 1397l-181-236q-27-37-51-37H475zm555-100q31 0 17-37L500-375q-14-35-45-35H254q-35 0-21 37L418 84 55 987q-14 37 19 37h205q31 0 40-35l226-588 237 588q14 35 43 35h205z" glyph-name="yacute" horiz-adv-x="1101" unicode="ý"/><glyph d="M616 1032q168 0 263.5-102.5T975 662V354q0-164-95.5-264T616-10h-47q-121 0-182 94v-463q0-31-20-31H154q-31 0-31 31v1835q0 31 31 31h202q31 0 31-31V944q61 88 182 88h47zm95-706v374q0 96-97 97H483q-96 0-96-97V326q0-100 96-101h131q97 1 97 101z" glyph-name="thorn" unicode="þ"/><glyph d="M223 1178q-31 0-30 30v195q0 31 30 31h203q31 0 31-31v-195q0-31-31-30H223zm449 0q-31 0-31 30v195q0 31 31 31h202q31 0 31-31v-195q0-31-31-30H672zm358-154q31 0 17-37L500-375q-14-35-45-35H254q-35 0-21 37L418 84 55 987q-14 37 19 37h205q31 0 40-35l226-588 237 588q14 35 43 35h205z" glyph-name="ydieresis" horiz-adv-x="1101" unicode="ÿ"/><glyph d="M244 1606q-31 0-31 30v176q0 31 31 31h663q31 0 31-31v-176q0-31-31-30H244zM1063 0H846q-29 0-37 33l-61 252H401L342 33q-8-33-37-33H88Q55 0 63 33l388 1368q10 33 38 33h173q29 0 38-33L1087 33q6-33-24-33zM457 520h233l-117 488z" glyph-name="Amacron" horiz-adv-x="1148" unicode="Ā"/><glyph d="M193 1196q-31 0-31 31v176q0 31 31 31h663q31 0 31-31v-176q0-31-31-31H193zM932 0H707q-37 0-37 49v49Q594-11 475-10h-55q-147 0-242.5 87T82 313q0 299 334 299h254v88q0 55-26 76t-89 21h-68q-115 0-225-43-55-18-74 20l-49 119q-14 35 11 49 145 90 337 90h68q379 0 379-346V49q0-15 4-32t-6-17zM535 225q104 0 135 60v125H420q-76 0-76-92.5t76-92.5h115z" glyph-name="amacron" horiz-adv-x="1062" unicode="ā"/><glyph d="M512 1505q-141 0-217 80t-76 227q0 31 31 31h156q31 0 30-31 0-123 96-122h86q94 0 99 122-4 31 31 31h153q31 0 31-31 0-147-75-227t-216-80H512zM1063 0H846q-29 0-37 33l-61 252H401L342 33q-8-33-37-33H88Q55 0 63 33l388 1368q10 33 38 33h173q29 0 38-33L1087 33q6-33-24-33zM457 520h233l-117 488z" glyph-name="Abreve" horiz-adv-x="1148" unicode="Ă"/><glyph d="M461 1096q-141 0-217 79.5T168 1403q0 31 31 31h155q31 0 31-31 0-123 96-123h86q94 0 99 123-2 31 30 31h154q31 0 31-31 0-147-75-227t-216-80H461zM932 0H707q-37 0-37 49v49Q594-11 475-10h-55q-147 0-242.5 87T82 313q0 299 334 299h254v88q0 55-26 76t-89 21h-68q-115 0-225-43-55-18-74 20l-49 119q-14 35 11 49 145 90 337 90h68q379 0 379-346V49q0-15 4-32t-6-17zM535 225q104 0 135 60v125H420q-76 0-76-92.5t76-92.5h115z" glyph-name="abreve" horiz-adv-x="1062" unicode="ă"/><glyph d="M1055-219q20 0 20-27v-119q0-20-20-20H782q-106 0-156.5 35T575-217t50 127 124 37 102 18 32 35h-37q-29 0-37 33l-61 252H401L342 33q-8-33-37-33H88Q55 0 63 33l388 1368q10 33 38 33h173q29 0 38-33L1085 35q4-8 5-8 25-113-13.5-155T954-178l-172-19q-27-2-26-16 0-6 30-6h269zM457 520h233l-117 488z" glyph-name="Aogonek" horiz-adv-x="1161" unicode="Ą"/><glyph d="M602-213q0-6 31-6h268q20 0 21-27v-119q0-20-21-20H629q-106 0-156.5 35T422-216.5t50 127T601-51t87 19-5 39-13 42v49Q594-11 475-10h-55q-147 0-242.5 87T82 313q0 299 334 299h254v88q0 55-26 76t-89 21h-68q-115 0-225-43-55-18-74 20l-49 119q-14 35 11 49 145 90 337 90h68q379 0 379-346V49q0-19 4-29v-6q20-106-17.5-145T801-178l-172-19q-27-2-27-16zm-67 438q104 0 135 60v125H420q-76 0-76-92.5t76-92.5h115z" glyph-name="aogonek" horiz-adv-x="1026" unicode="ą"/><glyph d="M676 1843h258q18 0 25.5-10t-5.5-27l-180-235q-27-37-51-37H553q-39 0-21 37l101 235q18 37 43 37zm414-1407q45 0 40-43-10-193-112.5-298T721-10H524q-205 0-308 113.5T113 416v602q0 199 103 312.5T524 1444h197q195 0 297-105.5t112-298.5q4-43-40-43H905q-41 0-45 43-4 90-36.5 126T721 1202H524q-76 0-108.5-41T383 1018V416q0-104 33-144.5T524 231h197q70 0 102.5 35T860 393q4 43 45 43h185z" glyph-name="Cacute" horiz-adv-x="1232" unicode="Ć"/><glyph d="M547 1434h258q18 0 25.5-10.5T825 1397l-180-236q-27-37-51-37H424q-39 0-21 37l101 236q18 37 43 37zm143-772q-39 0-43 43-10 90-80 90H459q-96 0-97-97V326q0-100 97-101h108q57 0 84 14.5t56 53.5q23 27 59-2l117-82q25-18 6-43-78-94-121-123-78-53-201-53H459q-168 0-267.5 111.5T92 381v278q0 164 98.5 267.5T459 1030h108q141 0 236.5-89T911 707q0-45-43-45H690z" glyph-name="cacute" horiz-adv-x="995" unicode="ć"/><glyph d="M496 1812q0 31 30 31h203q31 0 31-31v-194q0-31-31-31H526q-31 0-30 31v194zm594-1376q45 0 40-43-10-193-112.5-298T721-10H524q-205 0-308 113.5T113 416v602q0 199 103 312.5T524 1444h197q195 0 297-105.5t112-298.5q4-43-40-43H905q-41 0-45 43-4 90-36.5 126T721 1202H524q-76 0-108.5-41T383 1018V416q0-104 33-144.5T524 231h197q70 0 102.5 35T860 393q4 43 45 43h185z" glyph-name="Cdotaccent" horiz-adv-x="1232" unicode="Ċ"/><glyph d="M365 1403q0 31 30 31h203q31 0 31-31v-195q0-31-31-30H395q-31 0-30 30v195zm325-741q-39 0-43 43-10 90-80 90H459q-96 0-97-97V326q0-100 97-101h108q57 0 84 14.5t56 53.5q23 27 59-2l117-82q25-18 6-43-78-94-121-123-78-53-201-53H459q-168 0-267.5 111.5T92 381v278q0 164 98.5 267.5T459 1030h108q141 0 236.5-89T911 707q0-45-43-45H690z" glyph-name="cdotaccent" horiz-adv-x="995" unicode="ċ"/><glyph d="M262 1843h211q19 0 45-39l111-133 108 133q4 6 10.5 13.5t9.5 11.5q10 14 25 14h211q16 0 22.5-12t-5.5-27l-226-262q-27-33-57-33H526q-31 0-55 33l-225 262q-12 14-6 26.5t22 12.5zm828-1407q45 0 40-43-10-193-112.5-298T721-10H524q-205 0-308 113.5T113 416v602q0 199 103 312.5T524 1444h197q195 0 297-105.5t112-298.5q4-43-40-43H905q-41 0-45 43-4 90-36.5 126T721 1202H524q-76 0-108.5-41T383 1018V416q0-104 33-144.5T524 231h197q70 0 102.5 35T860 393q4 43 45 43h185z" glyph-name="Ccaron" horiz-adv-x="1232" unicode="Č"/><glyph d="M133 1434h211q19 0 45-39l111-133 108 133q4 6 10.5 13t9.5 11q11 15 25 15h211q16 0 22.5-12.5T881 1395l-226-262q-27-33-57-33H397q-31 0-55 33l-225 262q-12 14-6 26.5t22 12.5zm557-772q-39 0-43 43-10 90-80 90H459q-96 0-97-97V326q0-100 97-101h108q57 0 84 14.5t56 53.5q23 27 59-2l117-82q25-18 6-43-78-94-121-123-78-53-201-53H459q-168 0-267.5 111.5T92 381v278q0 164 98.5 267.5T459 1030h108q141 0 236.5-89T911 707q0-45-43-45H690z" glyph-name="ccaron" horiz-adv-x="995" unicode="č"/><glyph d="M240 1843h211q19 0 45-39l110-133 109 133q4 6 10 13.5t9 11.5q10 14 26 14h211q16 0 22-12t-6-27l-225-262q-27-33-57-33H504q-30 0-55 33l-226 262q-12 14-6 26.5t23 12.5zm465-409q203 0 304-106.5t101-293.5V403q0-188-102.5-295.5T705 0H164q-31 0-31 31v1372q0 31 31 31h541zM840 403v631q0 90-31 124t-104 34H403V242h302q74 0 104.5 33.5T840 403z" glyph-name="Dcaron" horiz-adv-x="1202" unicode="Ď"/><glyph d="M913 1434q31 0 31-31V31q0-31-31-31H709q-29 0-29 31v53q-61-94-182-94h-47Q283-10 187.5 90T92 354v308q0 166 95.5 268T451 1032h47q123 0 182-88v459q0 31 29 31h204zm351-7q31 0 30-30v-228q0-133-23.5-214T1174 786q-18-23-44 0l-57 52q-18 18-2 45 33 47 42 94t9 131l17 20h-117q-31 0-31 31v238q0 31 31 30h242zM584 225q96 0 96 101v374q0 96-96 97H453q-96 0-97-97V326q0-100 97-101h131z" glyph-name="dcaron" horiz-adv-x="1497" unicode="ď"/><glyph d="M752 1434q203 0 305-106.5t102-293.5V403q0-188-102.5-295.5T752 0H213q-31 0-31 31v596H61q-31 0-30 30v174q0 31 30 31h121v541q0 31 31 31h539zM889 403v631q0 90-32 124t-105 34H453V862h149q31 0 31-31V657q0-31-31-30H453V242h299q74 0 105.5 33.5T889 403z" glyph-name="Dcroat" horiz-adv-x="1251" unicode="Đ"/><glyph d="M993 1305q31 0 31-31v-174q0-31-31-31h-49V31q0-31-31-31H709q-29 0-29 31v53q-61-94-182-94h-47Q283-10 187.5 90T92 354v308q0 166 95.5 268T451 1032h47q123 0 182-88v125H330q-31 0-31 31v174q0 31 31 31h350v98q0 31 29 31h204q31 0 31-31v-98h49zM584 225q96 0 96 101v374q0 96-96 97H453q-96 0-97-97V326q0-100 97-101h131z" glyph-name="dcroat" horiz-adv-x="1075" unicode="đ"/><glyph d="M223 1606q-31 0-30 30v176q0 31 30 31h664q31 0 31-31v-176q0-31-31-30H223zm721-414H403V831h412q31 0 31-30V621q0-31-31-31H403V242h551q31 0 31-31V31q0-31-31-31H164q-31 0-31 31v1372q0 31 31 31h780q31 0 31-31v-180q0-31-31-31z" glyph-name="Emacron" unicode="Ē"/><glyph d="M168 1196q-31 0-31 31v176q0 31 31 31h663q31 0 31-31v-176q0-31-31-31H168zm399-164q150 0 247-101.5T911 659V469q0-59-61-59H362v-84q0-100 97-101h108q78 0 108 10.5t58 43.5q16 18 47-3l101-65q29-20 10-45-39-49-57.5-68.5T774 46q-72-56-207-56H459q-168 0-267.5 111.5T92 381v278q0 166 98.5 269.5T459 1032h108zm80-420v88q0 96-80 97H459q-96 0-97-99v-86h285z" glyph-name="emacron" horiz-adv-x="1003" unicode="ē"/><glyph d="M422 1812q0 31 31 31h202q31 0 31-31v-194q0-31-31-31H453q-31 0-31 31v194zm522-620H403V831h412q31 0 31-30V621q0-31-31-31H403V242h551q31 0 31-31V31q0-31-31-31H164q-31 0-31 31v1372q0 31 31 31h780q31 0 31-31v-180q0-31-31-31z" glyph-name="Edotaccent" unicode="Ė"/><glyph d="M367 1403q0 31 30 31h203q31 0 31-31v-195q0-31-31-30H397q-31 0-30 30v195zm200-371q150 0 247-101.5T911 659V469q0-59-61-59H362v-84q0-100 97-101h108q78 0 108 10.5t58 43.5q16 18 47-3l101-65q29-20 10-45-39-49-57.5-68.5T774 46q-72-56-207-56H459q-168 0-267.5 111.5T92 381v278q0 166 98.5 269.5T459 1032h108zm80-420v88q0 96-80 97H459q-96 0-97-99v-86h285z" glyph-name="edotaccent" horiz-adv-x="1003" unicode="ė"/><glyph d="M952-219q20 0 21-27v-119q0-20-21-20H680q-106 0-157.5 35T471-216t51 127q51 29 125 36.5T748.5-35 780 0H164q-31 0-31 31v1372q0 31 31 31h780q31 0 31-31v-180q0-31-31-31H403V831h412q31 0 31-30V621q0-31-31-31H403V242h551q31 0 31-31V27q27-113-11-155t-122-50l-174-19q-25-2-25-16 0-6 31-6h268z" glyph-name="Eogonek" horiz-adv-x="1077" unicode="Ę"/><glyph d="M850 410H362v-84q0-100 97-101h108q78 0 108 10.5t58 43.5q16 18 47-3l101-65q29-20 10-45-19-19-27-31t-18-23.5T829.5 94 813 78q-9-10-17-16-40-35-85-50 20-102-18-141t-120-49l-174-19q-27-2-26-16 0-6 33-6h266q20 0 20-27v-119q0-20-20-20H399q-106 0-156 35t-50 134 51.5 127 146 40T498-10h-39q-168 0-267.5 111.5T92 381v278q0 166 98.5 269.5T459 1032h108q150 0 247-101.5T911 659V469q0-59-61-59zM362 698v-86h285v88q0 96-80 97H459q-97-1-97-99z" glyph-name="eogonek" horiz-adv-x="1003" unicode="ę"/><glyph d="M190 1843h211q19 0 45-39l111-133 109 133q4 6 10 13.5t9 11.5q10 14 26 14h211q16 0 22-12t-6-27l-225-262q-27-33-58-33H455q-31 0-56 33l-225 262q-12 14-6 26.5t22 12.5zm754-651H403V831h412q31 0 31-30V621q0-31-31-31H403V242h551q31 0 31-31V31q0-31-31-31H164q-31 0-31 31v1372q0 31 31 31h780q31 0 31-31v-180q0-31-31-31z" glyph-name="Ecaron" unicode="Ě"/><glyph d="M135 1434h211q19 0 45-39l111-133 108 133q4 6 10.5 13t9.5 11q11 15 25 15h211q16 0 22.5-12.5T883 1395l-226-262q-27-33-57-33H399q-31 0-55 33l-225 262q-12 14-6 26.5t22 12.5zm432-402q150 0 247-101.5T911 659V469q0-59-61-59H362v-84q0-100 97-101h108q78 0 108 10.5t58 43.5q16 18 47-3l101-65q29-20 10-45-39-49-57.5-68.5T774 46q-72-56-207-56H459q-168 0-267.5 111.5T92 381v278q0 166 98.5 269.5T459 1032h108zm80-420v88q0 96-80 97H459q-96 0-97-99v-86h285z" glyph-name="ecaron" horiz-adv-x="1003" unicode="ě"/><glyph d="M563 1505q-141 0-217 80t-76 227q0 31 31 31h156q31 0 30-31 0-123 97-122h86q94 0 98 122-2 31 31 31h153q31 0 31-31 0-147-74.5-227T692 1505H563zm527-739q43 0 43-43V416q0-199-103.5-312.5T721-10H524q-205 0-308 113.5T113 416v602q0 199 103 312.5T524 1444h197q193 0 296-103.5t113-285.5q4-43-40-43H905q-41 0-45 43-6 82-39 114.5T721 1202H524q-76 0-108.5-41T383 1018V416q0-104 33-144.5T524 231h197q76 0 108.5 40T862 416v127H727q-43 0-43 43v137q0 43 43 43h363z" glyph-name="Gbreve" horiz-adv-x="1234" unicode="Ğ"/><glyph d="M469 1096q-141 0-217 79.5T176 1403q0 31 31 31h155q31 0 31-31 0-123 96-123h86q94 0 99 123-2 31 31 31h153q31 0 31-31 0-147-75-227t-216-80H469zm444-72q31 0 31-31V-43q0-367-397-367-147 0-219 17-45 8-45 49v139q0 18 13 30.5t32 8.5q63-14 219-14 76 0 104.5 26.5T680-41V84q-61-94-182-94h-47Q283-10 187.5 90T92 354v308q0 166 95.5 268T451 1032h47q123 0 182-88v49q0 31 29 31h204zM584 225q96 0 96 101v374q0 96-96 97H453q-96 0-97-97V326q0-100 97-101h131z" glyph-name="gbreve" unicode="ğ"/><glyph d="M526 1587q-31 0-30 31v194q0 31 30 31h203q31 0 31-31v-194q0-31-31-31H526zm564-821q43 0 43-43V416q0-199-103.5-312.5T721-10H524q-205 0-308 113.5T113 416v602q0 199 103 312.5T524 1444h197q193 0 296-103.5t113-285.5q4-43-40-43H905q-41 0-45 43-6 82-39 114.5T721 1202H524q-76 0-108.5-41T383 1018V416q0-104 33-144.5T524 231h197q76 0 108.5 40T862 416v127H727q-43 0-43 43v137q0 43 43 43h363z" glyph-name="Gdotaccent" horiz-adv-x="1234" unicode="Ġ"/><glyph d="M430 1178q-31 0-31 30v195q0 31 31 31h203q31 0 31-31v-195q0-31-31-30H430zm483-154q31 0 31-31V-43q0-367-397-367-147 0-219 17-45 8-45 49v139q0 18 13 30.5t32 8.5q63-14 219-14 76 0 104.5 26.5T680-41V84q-61-94-182-94h-47Q283-10 187.5 90T92 354v308q0 166 95.5 268T451 1032h47q123 0 182-88v49q0 31 29 31h204zM584 225q96 0 96 101v374q0 96-96 97H453q-96 0-97-97V326q0-100 97-101h131z" glyph-name="gdotaccent" unicode="ġ"/><glyph d="M1090 766q43 0 43-43V416q0-199-103.5-312.5T721-10H524q-205 0-308 113.5T113 416v602q0 199 103 312.5T524 1444h197q193 0 296-103.5t113-285.5q4-43-40-43H905q-41 0-45 43-6 82-39 114.5T721 1202H524q-76 0-108.5-41T383 1018V416q0-104 33-144.5T524 231h197q76 0 108.5 40T862 416v127H727q-43 0-43 43v137q0 43 43 43h363zM735-160q31 0 31-30v-228q0-133-23.5-214T645-801q-18-23-43 0l-57 51q-18 18-2 45 33 47 42 94.5t9 131.5l16 20H494q-31 0-31 31v238q0 31 31 30h241z" glyph-name="Gcommaaccent" horiz-adv-x="1234" unicode="Ģ"/><glyph d="M383 1120q-31 0-31 31v225q0 133 22.5 215t96.5 170q20 23 45 0l57-51q18-18 2-45-33-47-42-94t-9-131l-16-21h117q31 0 30-30v-238q0-31-30-31H383zm530-96q31 0 31-31V-43q0-367-397-367-147 0-219 17-45 8-45 49v139q0 18 13 30.5t32 8.5q63-14 219-14 76 0 104.5 26.5T680-41V84q-61-94-182-94h-47Q283-10 187.5 90T92 354v308q0 166 95.5 268T451 1032h47q123 0 182-88v49q0 31 29 31h204zM584 225q96 0 96 101v374q0 96-96 97H453q-96 0-97-97V326q0-100 97-101h131z" glyph-name="gcommaaccent" unicode="ģ"/><glyph d="M1047 1434q31 0 30-31V31q0-31-30-31H838q-31 0-31 31v559H403V31q0-31-30-31H164q-31 0-31 31v1372q0 31 31 31h209q31 0 30-31v-137h404v137q0 31 31 31h209zM403 831h404v193H403V831z" glyph-name="Hbar" horiz-adv-x="1210" unicode="Ħ"/><glyph d="M721 1032q301 0 301-360V31q0-31-31-31H788q-31 0-30 31v671q0 94-111 95h-24q-61 0-108.5-21.5T449 723V31q0-31-31-31H215q-31 0-31 31v1063H92q-31 0-31 30v162q0 31 31 31h92v86q0 31 31 31h203q31 0 31-31v-86h151q31 0 31-31v-162q0-31-31-30H449V903q78 129 260 129h12z" glyph-name="hbar" horiz-adv-x="1144" unicode="ħ"/><glyph d="M-61 1606q-31 0-31 30v176q0 31 31 31h663q31 0 31-31v-176q0-31-31-30H-61zm194-203q0 31 31 31h213q31 0 31-31V31q0-31-31-31H164q-31 0-31 31v1372z" glyph-name="Imacron" horiz-adv-x="540" unicode="Ī"/><glyph d="M-39 1196q-31 0-31 31v176q0 31 31 31h664q31 0 30-31v-176q0-31-30-31H-39zm203-203q0 31 31 31h202q31 0 31-31V31q0-31-31-31H195q-31 0-31 31v962z" glyph-name="imacron" horiz-adv-x="591" unicode="ī"/><glyph d="M63-219h267q20 0 20-27v-119q0-20-20-20H57q-106 0-156.5 35T-150-216t52 127T27-52t90.5 26.5T135 41v1362q0 31 31 31h213q31 0 31-31V41q0-117-48.5-164T231-178L57-197q-27-2-26-16 0-6 32-6z" glyph-name="Iogonek" horiz-adv-x="542" unicode="Į"/><glyph d="M188 1178q-31 0-30 30v195q0 31 30 31h203q31 0 31-31v-195q0-31-31-30H188zm209-154q31 0 31-31V31q0-31-31-31h-2q16-96-22.5-132T256-178L82-197q-27-2-27-16 0-6 33-6h266q20 0 21-27v-119q0-20-21-20H82q-106 0-156.5 35T-125-216t51 127T41-54t102 16 41 40q-20 2-20 29v962q0 31 31 31h202z" glyph-name="iogonek" horiz-adv-x="591" unicode="į"/><glyph d="M137 1812q0 31 31 31h203q31 0 30-31v-194q0-31-30-31H168q-31 0-31 31v194zm-4-409q0 31 31 31h213q31 0 31-31V31q0-31-31-31H164q-31 0-31 31v1372z" glyph-name="Idotaccent" horiz-adv-x="540" unicode="İ"/><glyph d="M164 993q0 31 31 31h202q31 0 31-31V31q0-31-31-31H195q-31 0-31 31v962z" glyph-name="dotlessi" horiz-adv-x="591" unicode="ı"/><glyph d="M133 1403q0 31 31 31h213q31 0 31-31V31q0-31-31-31H164q-31 0-31 31v1372zm1055-932v932q0 31 31 31h208q31 0 31-31V446q0-201-130-330.5T977-14 625 121q-29 31 8 63l129 107q33 25 63-6 66-57 156-58 207 0 207 244z" glyph-name="IJ" horiz-adv-x="1593" unicode="Ĳ"/><glyph d="M143 1403q0 31 31 31h203q31 0 31-31v-195q0-31-31-30H174q-31 0-31 30v195zm547 0q0 31 31 31h203q31 0 30-31v-195q0-31-30-30H721q-31 0-31 30v195zM143 993q0 31 31 31h203q31 0 31-31V31q0-31-31-31H174q-31 0-31 31v962zM692-106V993q0 31 31 31h205q31 0 30-31V-127q0-143-85-252.5T653-524q-27-8-39 20l-82 187q-12 29 19 38 55 20 98 67.5T692-106z" glyph-name="ij" horiz-adv-x="1099" unicode="ĳ"/><glyph d="M1167 0H924q-39 0-56 29L508 649 403 518V31q0-31-30-31H164q-31 0-31 31v1372q0 31 31 31h209q31 0 30-31V897l383 504q23 33 54 33h243q10 0 20-11t-11-43L694 885l486-836q16-21 8-35t-21-14zM739-160q31 0 31-30v-228q0-133-23.5-214T649-801q-18-23-43 0l-57 51q-18 18-2 45 33 47 42 94.5t9 131.5l16 20H498q-31 0-31 31v238q0 31 31 30h241z" glyph-name="Kcommaaccent" horiz-adv-x="1259" unicode="Ķ"/><glyph d="M154 1434h202q31 0 31-31V692l291 307q20 25 47 25h211q23 0 31-20.5T950 954L645 627l356-572q10-16 5-35.5T977 0H784q-47 0-67 37L467 451l-80-80V31q0-31-31-31H154q-31 0-31 31v1372q0 31 31 31zM586-160q31 0 30-30v-228q0-133-23.5-214T496-801q-18-23-43 0l-58 51q-18 18-2 45 33 47 42 94.5t9 131.5l17 20H344q-31 0-31 31v238q0 31 31 30h242z" glyph-name="kcommaaccent" horiz-adv-x="1081" unicode="ķ"/><glyph d="M307 1843h258q18 0 25.5-10t-4.5-27l-180-235q-27-37-52-37H184q-39 0-20 37l100 235q18 37 43 37zM913 242q31 0 31-31V31q0-31-31-31H164q-31 0-31 31v1372q0 31 31 31h209q31 0 30-31V242h510z" glyph-name="Lacute" horiz-adv-x="1036" unicode="Ĺ"/><glyph d="M303 1843h258q18 0 25.5-10t-4.5-27l-181-235q-27-37-51-37H180q-39 0-20 37l100 235q18 37 43 37zm-180-440q0 31 31 31h202q31 0 31-31V31q0-31-31-31H154q-31 0-31 31v1372z" glyph-name="lacute" horiz-adv-x="509" unicode="ĺ"/><glyph d="M913 242q31 0 31-31V31q0-31-31-31H164q-31 0-31 31v1372q0 31 31 31h209q31 0 30-31V242h510zM627-160q31 0 30-30v-228q0-133-23.5-214T537-801q-18-23-43 0l-58 51q-18 18-2 45 33 47 42 94.5t9 131.5l17 20H385q-31 0-31 31v238q0 31 31 30h242z" glyph-name="Lcommaaccent" horiz-adv-x="1036" unicode="Ļ"/><glyph d="M123 1403q0 31 31 31h202q31 0 31-31V31q0-31-31-31H154q-31 0-31 31v1372zM362-160q31 0 31-30v-228q0-133-23.5-214T272-801q-18-23-43 0l-57 51q-18 18-2 45 33 47 42 94.5t9 131.5l17 20H121q-31 0-31 31v238q0 31 31 30h241z" glyph-name="lcommaaccent" horiz-adv-x="509" unicode="ļ"/><glyph d="M913 242q31 0 31-31V31q0-31-31-31H164q-31 0-31 31v1372q0 31 31 31h209q31 0 30-31V242h510zm-20 1185q31 0 31-30v-228q0-133-23.5-214T803 786q-18-23-43 0l-58 52q-18 18-2 45 33 47 42.5 94t9.5 131l16 20H651q-31 0-30 31v238q0 31 30 30h242z" glyph-name="Lcaron" horiz-adv-x="1146" unicode="Ľ"/><glyph d="M123 1403q0 31 31 31h202q31 0 31-31V31q0-31-31-31H154q-31 0-31 31v1372zm618 24q31 0 31-30v-228q0-133-23.5-214T651 786q-18-23-43 0l-57 52q-18 18-2 45 33 47 42 94t9 131l16 20H500q-31 0-31 31v238q0 31 31 30h241z" glyph-name="lcaron" horiz-adv-x="837" unicode="ľ"/><glyph d="M913 242q31 0 31-31V31q0-31-31-31H164q-31 0-31 31v1372q0 31 31 31h209q31 0 30-31V242h510zM575 932q0 31 31 31h281q31 0 31-31V657q0-31-31-30H606q-31 0-31 30v275z" glyph-name="Ldot" horiz-adv-x="1036" unicode="Ŀ"/><glyph d="M123 1403q0 31 31 31h202q31 0 31-31V31q0-31-31-31H154q-31 0-31 31v1372zm328-549q0 31 30 31h281q31 0 31-31V582q0-31-31-31H481q-31 0-30 31v272z" glyph-name="ldot" horiz-adv-x="854" unicode="ŀ"/><glyph d="M1059 242q31 0 31-31V31q0-31-31-31H309q-31 0-30 31v231H104q-18 0-25 10.5t5 26.5l195 254v850q0 31 30 31h209q31 0 31-31V903l18 25q27 35 47 35h234q18 0 24.5-10.5T866 926L549 512V242h510z" glyph-name="Lslash" horiz-adv-x="1253" unicode="Ł"/><glyph d="M668 963q18 0 25-11.5t-7-25.5L498 743V31q0-31-31-31H258q-31 0-31 31v526H80q-18 0-26.5 12.5T59 594l168 162v647q0 31 31 31h209q31 0 31-31V963h170z" glyph-name="lslash" horiz-adv-x="747" unicode="ł"/><glyph d="M686 1843h258q18 0 25.5-10t-4.5-27l-181-235q-27-37-51-37H563q-39 0-20 37l100 235q18 37 43 37zm424-409q31 0 31-31V31q0-31-31-31H842q-27 0-37 23L403 967V31q0-31-30-31H164q-31 0-31 31v1372q0 31 31 31h270q25 0 37-23l399-942v934q0 31 31 31h209z" glyph-name="Nacute" horiz-adv-x="1273" unicode="Ń"/><glyph d="M590 1434h258q18 0 25.5-10.5T868 1397l-180-236q-27-37-51-37H467q-39 0-21 37l101 236q18 37 43 37zm69-402q301 0 302-360V31q0-31-31-31H727q-31 0-31 31v671q0 94-110 95h-25q-61 0-108-21.5T387 723V31q0-31-31-31H154q-31 0-31 31v962q0 31 31 31h202q31 0 31-31v-90q78 129 260 129h12z" glyph-name="nacute" horiz-adv-x="1083" unicode="ń"/><glyph d="M1110 1434q31 0 31-31V31q0-31-31-31H842q-27 0-37 23L403 967V31q0-31-30-31H164q-31 0-31 31v1372q0 31 31 31h270q25 0 37-23l399-942v934q0 31 31 31h209zM745-160q31 0 31-30v-228q0-133-23.5-214T655-801q-18-23-43 0l-57 51q-18 18-2 45 33 47 42 94.5t9 131.5l17 20H504q-31 0-31 31v238q0 31 31 30h241z" glyph-name="Ncommaaccent" horiz-adv-x="1273" unicode="Ņ"/><glyph d="M659 1032q301 0 302-360V31q0-31-31-31H727q-31 0-31 31v671q0 94-110 95h-25q-61 0-108-21.5T387 723V31q0-31-31-31H154q-31 0-31 31v962q0 31 31 31h202q31 0 31-31v-90q78 129 260 129h12zM649-160q31 0 31-30v-228q0-133-23.5-214T559-801q-18-23-43 0l-57 51q-18 18-2 45 33 47 42 94.5t9 131.5l16 20H408q-31 0-31 31v238q0 31 31 30h241z" glyph-name="ncommaaccent" horiz-adv-x="1083" unicode="ņ"/><glyph d="M272 1843h211q19 0 45-39l111-133 109 133q4 6 10 13.5t9 11.5q10 14 26 14h211q16 0 22-12t-6-27l-225-262q-27-33-58-33H537q-31 0-56 33l-225 262q-12 14-6 26.5t22 12.5zm838-409q31 0 31-31V31q0-31-31-31H842q-27 0-37 23L403 967V31q0-31-30-31H164q-31 0-31 31v1372q0 31 31 31h270q25 0 37-23l399-942v934q0 31 31 31h209z" glyph-name="Ncaron" horiz-adv-x="1273" unicode="Ň"/><glyph d="M176 1434h211q19 0 45-39l111-133 108 133q4 6 10.5 13t9.5 11q11 15 25 15h211q16 0 22.5-12.5T924 1395l-226-262q-27-33-57-33H440q-31 0-55 33l-225 262q-12 14-6 26.5t22 12.5zm483-402q301 0 302-360V31q0-31-31-31H727q-31 0-31 31v671q0 94-110 95h-25q-61 0-108-21.5T387 723V31q0-31-31-31H154q-31 0-31 31v962q0 31 31 31h202q31 0 31-31v-90q78 129 260 129h12z" glyph-name="ncaron" horiz-adv-x="1083" unicode="ň"/><glyph d="M1198 25V-90q0-229-134-355T748-571h-78q-141 0-275.5 85T215-266q-10 25 18 39l160 102q14 10 35-22 53-84 107.5-119T670-301h53q205 0 205 235v62h-4L403 897V31q0-31-30-31H164q-31 0-31 31v1425q0 31 31 31h217q25 0 37-23l510-934v926q0 31 30 31h209q31 0 31-31V33l4-8h-4z" glyph-name="Eng" horiz-adv-x="1343" unicode="Ŋ"/><glyph d="M659 1032q301 0 302-360v-801q0-145-69-246.5T700-520q-29-8-43 18l-94 191q-16 29 17 43 35 18 55 33.5t40.5 49T696-109v811q0 94-110 95h-25q-61 0-108-21.5T387 723V31q0-31-31-31H154q-31 0-31 31v962q0 31 31 31h202q31 0 31-31v-90q78 129 260 129h12z" glyph-name="eng" horiz-adv-x="1103" unicode="ŋ"/><glyph d="M303 1606q-31 0-31 30v176q0 31 31 31h664q31 0 30-31v-176q0-31-30-30H303zm440-162q205 0 308.5-113.5T1155 1018V416q0-199-103.5-312.5T743-10H524q-205 0-308 113.5T113 416v602q0 199 103 312.5T524 1444h219zM885 416v602q0 102-33 143t-109 41H524q-76 0-108.5-41T383 1018V416q0-104 33-144.5T524 231h219q76 0 109 40.5T885 416z" glyph-name="Omacron" horiz-adv-x="1267" unicode="Ō"/><glyph d="M168 1196q-31 0-31 31v176q0 31 31 31h663q31 0 31-31v-176q0-31-31-31H168zm391-164q168 0 264.5-102.5T920 662V354q0-164-95.5-264T559-10H453Q283-10 187.5 90T92 354v308q0 166 96.5 268T453 1032h106zm96-706v374q0 96-96 97H453q-96 0-97-97V326q0-100 97-101h106q96 1 96 101z" glyph-name="omacron" horiz-adv-x="1011" unicode="ō"/><glyph d="M467 1843h258q18 0 25.5-10t-5.5-27l-180-235q-27-37-51-37H344q-39 0-20 37l100 235q18 37 43 37zm407 0h259q18 0 25-10t-5-27l-180-235q-27-37-51-37H752q-39 0-21 37l100 235q18 37 43 37zm-131-399q205 0 308.5-113.5T1155 1018V416q0-199-103.5-312.5T743-10H524q-205 0-308 113.5T113 416v602q0 199 103 312.5T524 1444h219zM885 416v602q0 102-33 143t-109 41H524q-76 0-108.5-41T383 1018V416q0-104 33-144.5T524 231h219q76 0 109 40.5T885 416z" glyph-name="Ohungarumlaut" horiz-adv-x="1267" unicode="Ő"/><glyph d="M332 1434h258q18 0 25.5-10.5T610 1397l-180-236q-27-37-51-37H209q-39 0-21 37l101 236q18 37 43 37zm407 0h258q18 0 25.5-10.5t-4.5-26.5l-180-236q-27-37-52-37H616q-39 0-20 37l100 236q18 37 43 37zm-180-402q168 0 264.5-102.5T920 662V354q0-164-95.5-264T559-10H453Q283-10 187.5 90T92 354v308q0 166 96.5 268T453 1032h106zm96-706v374q0 96-96 97H453q-96 0-97-97V326q0-100 97-101h106q96 1 96 101z" glyph-name="ohungarumlaut" horiz-adv-x="1011" unicode="ő"/><glyph d="M1706 242q31 0 31-31V31q0-31-31-31H915q-16 0-24 8-63-18-148-18H524q-205 0-308 113.5T113 416v602q0 199 103 312.5T524 1444h219q84 0 148-19 8 8 24 9h781q31 0 30-31v-180q0-31-30-31h-541V831h412q31 0 30-30V621q0-31-30-31h-412V242h551zm-963-11q76 0 109 40t33 145v602q0 102-33 143t-109 41H524q-76 0-108.5-41T383 1018V416q0-104 33-144.5T524 231h219z" glyph-name="OE" horiz-adv-x="1818" unicode="Œ"/><glyph d="M920 410v-56q0-35-7-67 18-61 93-62h108q78 0 107.5 10.5t52 37 55.5 3.5l98-65q29-20 11-45-39-49-57.5-68.5T1321 46q-72-56-207-56h-108q-125 0-220 67-90-68-227-67H453Q283-10 187.5 90T92 354v308q0 166 96.5 268T453 1032h106q129 0 221-65 94 66 226 65h108q152 0 248-101.5t96-271.5V469q0-59-59-59H920zM559 225q70 0 90 58-10 51-10 98v278q0 49 8 89-20 49-88 49H453q-96 0-97-97V326q0-100 97-101h106zm447 572q-76 0-93-62 6-37 7-73v-50h276v88q0 96-82 97h-108z" glyph-name="oe" horiz-adv-x="1564" unicode="œ"/><glyph d="M549 1534q-39 0-21 37l101 235q18 37 43 37h258q18 0 25.5-10t-5.5-27l-180-235q-27-37-51-37H549zM1108 0H913q-39 0-53 33L676 463H403V31q0-31-30-31H164q-31 0-31 31v1372q0 31 31 31h522q209 0 311.5-107.5T1100 1026V872q0-248-164-348l207-475q20-49-35-49zM403 1192V707h283q80 0 111.5 34.5T829 872v154q0 96-31.5 131T686 1192H403z" glyph-name="Racute" horiz-adv-x="1230" unicode="Ŕ"/><glyph d="M512 1434h258q18 0 25.5-10.5T791 1397l-181-236q-27-37-51-37H389q-39 0-20 37l100 236q18 37 43 37zm49-637q-61 0-108-21.5T387 723V31q0-31-31-31H154q-31 0-31 31v962q0 31 31 31h202q31 0 31-31v-90q80 129 272 129 94 0 154-33 33-20 14-59l-77-139q-18-31-62-18t-100 14h-27z" glyph-name="racute" horiz-adv-x="886" unicode="ŕ"/><glyph d="M1108 0H913q-39 0-53 33L676 463H403V31q0-31-30-31H164q-31 0-31 31v1372q0 31 31 31h522q209 0 311.5-107.5T1100 1026V872q0-248-164-348l207-475q20-49-35-49zM403 1192V707h283q80 0 111.5 34.5T829 872v154q0 96-31.5 131T686 1192H403zM731-160q31 0 31-30v-228q0-133-23.5-214T641-801q-18-23-43 0l-57 51q-18 18-2 45 33 47 42 94.5t9 131.5l16 20H489q-31 0-30 31v238q0 31 30 30h242z" glyph-name="Rcommaaccent" horiz-adv-x="1230" unicode="Ŗ"/><glyph d="M561 797q-61 0-108-21.5T387 723V31q0-31-31-31H154q-31 0-31 31v962q0 31 31 31h202q31 0 31-31v-90q80 129 272 129 94 0 154-33 33-20 14-59l-77-139q-18-31-62-18t-100 14h-27zM356-160q31 0 31-30v-228q0-133-23.5-214T266-801q-18-23-43 0l-57 51q-18 18-2 45 33 47 42 94.5t9 131.5l16 20H115q-31 0-31 31v238q0 31 31 30h241z" glyph-name="rcommaaccent" horiz-adv-x="886" unicode="ŗ"/><glyph d="M258 1843h211q19 0 45-39l111-133 108 133q4 6 10.5 13.5t9.5 11.5q10 14 25 14h211q16 0 22.5-12t-5.5-27l-226-262q-27-33-57-33H522q-30 0-55 33l-225 262q-12 14-6 26.5t22 12.5zM1108 0H913q-39 0-53 33L676 463H403V31q0-31-30-31H164q-31 0-31 31v1372q0 31 31 31h522q209 0 311.5-107.5T1100 1026V872q0-248-164-348l207-475q20-49-35-49zM403 1192V707h283q80 0 111.5 34.5T829 872v154q0 96-31.5 131T686 1192H403z" glyph-name="Rcaron" horiz-adv-x="1230" unicode="Ř"/><glyph d="M121 1434h211q19 0 45-39l110-133 109 133q4 6 10 13t13 16.5 22 9.5h211q16 0 22.5-12.5T868 1395l-225-262q-27-33-57-33H385q-31 0-55 33l-226 262q-12 14-6 26.5t23 12.5zm440-637q-61 0-108-21.5T387 723V31q0-31-31-31H154q-31 0-31 31v962q0 31 31 31h202q31 0 31-31v-90q80 129 272 129 94 0 154-33 33-20 14-59l-77-139q-18-31-62-18t-100 14h-27z" glyph-name="rcaron" horiz-adv-x="886" unicode="ř"/><glyph d="M672 1843h258q18 0 25.5-10t-5.5-27l-180-235q-27-37-51-37H549q-39 0-21 37l101 235q18 37 43 37zm471-1431q0-201-102.5-311.5T731-10H514Q321-10 218 92.5T104 373q-2 43 41 43h185q43 0 45-43 6-80 38.5-111T514 231h217q78 0 109.5 37T872 416t-47 149.5T659 623l-120 20q-205 35-313.5 134.5T117 1061t103.5 283.5T532 1444h152q190 0 293.5-101.5T1092 1067q2-43-41-43H866q-43 0-45 43-6 74-38.5 104.5T684 1202H532q-82 0-113.5-26.5t-31.5-95 3-89 17.5-46 48-38T551 885l121-21q192-32 317-114 154-100 154-338z" glyph-name="Sacute" horiz-adv-x="1245" unicode="Ś"/><glyph d="M537 1434h258q18 0 25-10.5t-5-26.5l-180-236q-27-37-51-37H414q-39 0-21 37l101 236q18 37 43 37zm-91-637q-90 0-90-75 0-38 25.5-57.5T481 637q225-23 317.5-93.5T891 305 799 63.5 520-10h-61Q121-10 92 260q-4 31 31 31h180q43 0 53-21 12-16 20-24 22-23 75-23h84q92 0 92 74 0 59-13 72-20 27-133 34-225 16-307 87T92 725q0 305 354 305h76q160 0 260.5-81T881 733q0-33-29-33H676q-41 0-60 39-2 1-11 15-28 43-87 43h-72z" glyph-name="sacute" horiz-adv-x="972" unicode="ś"/><glyph d="M715-266q59 0 59 22 0 16-18 22-18 7-94 16-76 10-106 14-55 8-83 51.5T516-10h-2Q321-10 218 92.5T104 373q-2 43 41 43h185q43 0 45-43 6-80 38.5-111T514 231h217q78 0 109.5 37T872 416t-47 149.5T659 623l-120 20q-205 35-313.5 134.5T117 1061t103.5 283.5T532 1444h152q190 0 293.5-101.5T1092 1067q2-43-41-43H866q-43 0-45 43-6 74-38.5 104.5T684 1202H532q-82 0-113.5-26.5t-31.5-95 3-89 17.5-46 48-38T551 885l121-21q192-32 317-114 154-101 154-338 0-199-100.5-309.5T739-10q-16-27-1.5-36T793-61q100-10 140-51.5T973-258q0-156-203-156H600q-86 0-132 43t-48 121q0 20 18 21h160q20 0 20-18.5t56-18.5h41z" glyph-name="Scedilla" horiz-adv-x="1245" unicode="Ş"/><glyph d="M446 797q-90 0-90-75 0-38 26-57t99-28q225-23 317.5-93.5T891 297Q891 25 608-6q-16-31-4-40t53-15q100-10 140.5-51.5T838-258q0-156-203-156H465q-86 0-132 43t-48 121q0 20 18 21h160q20 0 20-18.5t56-18.5h41q59 0 59 22 0 16-18.5 22.5t-94 15.5-106 13.5T372-177t-31 31.5-4 57.5 46 82Q117 21 92 260q-4 31 31 31h180q43 0 53-21 12-16 20-24 22-23 75-23h84q92 0 92 74 0 59-13 72-20 27-133 34-225 16-307 87T92 725q0 305 354 305h76q160 0 260.5-81T881 733q0-33-29-33H676q-41 0-60 39-2 1-11 15-28 43-87 43h-72z" glyph-name="scedilla" horiz-adv-x="972" unicode="ş"/><glyph d="M258 1843h211q19 0 45-39l111-133 108 133q4 6 10.5 13.5t9.5 11.5q10 14 25 14h211q16 0 22.5-12t-5.5-27l-226-262q-27-33-57-33H522q-31 0-55 33l-225 262q-12 14-6 26.5t22 12.5zm885-1431q0-201-102.5-311.5T731-10H514Q321-10 218 92.5T104 373q-2 43 41 43h185q43 0 45-43 6-80 38.5-111T514 231h217q78 0 109.5 37T872 416t-47 149.5T659 623l-120 20q-205 35-313.5 134.5T117 1061t103.5 283.5T532 1444h152q190 0 293.5-101.5T1092 1067q2-43-41-43H866q-43 0-45 43-6 74-38.5 104.5T684 1202H532q-82 0-113.5-26.5t-31.5-95 3-89 17.5-46 48-38T551 885l121-21q192-32 317-114 154-100 154-338z" glyph-name="Scaron" horiz-adv-x="1245" unicode="Š"/><glyph d="M123 1434h211q19 0 45-39l110-133 109 133q23 35 31 37t14 2h211q16 0 22.5-12.5T870 1395l-225-262q-27-33-57-33H387q-31 0-55 33l-226 262q-12 14-6 26.5t23 12.5zm323-637q-90 0-90-75 0-38 25.5-57.5T481 637q225-23 317.5-93.5T891 305 799 63.5 520-10h-61Q121-10 92 260q-4 31 31 31h180q43 0 53-21 12-16 20-24 22-23 75-23h84q92 0 92 74 0 59-13 72-20 27-133 34-225 16-307 87T92 725q0 305 354 305h76q160 0 260.5-81T881 733q0-33-29-33H676q-41 0-60 39-2 1-11 15-28 43-87 43h-72z" glyph-name="scaron" horiz-adv-x="972" unicode="š"/><glyph d="M625-266q59 0 59 22 0 16-18.5 22.5t-94 15.5T461-191.5 403.5-169 382-106.5 432-2l2 2h-4q-31 0-31 31v1161H113q-31 0-31 31v180q0 31 31 31h841q31 0 31-31v-180q0-31-31-31H670V31q0-20-13-27 0-4-11-15t-4-24.5T661.5-53t40.5-8q100-10 140.5-51.5T883-258q0-156-203-156H510q-86 0-132 43t-48 121q0 20 18 21h160q20 0 20-18.5t56-18.5h41z" glyph-name="Tcommaaccent" unicode="Ţ"/><glyph d="M563-266q60 0 60 22 0 16-18.5 22.5t-94 15.5-111 14.5-58 22.5-21 62.5T371-2q10 14 18 16-106 27-147 97.5T201 309v479h-99q-31 0-30 31v172q0 33 30 33h99v133q0 31 30 31h203q31 0 31-31v-133h135q33 0 33-31V819q0-31-31-31H465V305q0-41 26.5-55t96.5-19q45-4 41-47l-6-147q-4-29-27-37-22-22-15-35.5T600-53t41-8q100-10 140-51.5T821-258q0-156-203-156H449q-86 0-132.5 43T268-250q0 20 19 21h159q20 0 21-17 0-20 55-20h41z" glyph-name="tcommaaccent" horiz-adv-x="698" unicode="ţ"/><glyph d="M168 1843h211q19 0 45-39l111-133 108 133q23 35 31 37t14 2h211q16 0 22.5-12t-6.5-27l-225-262q-27-33-57-33H432q-30 0-55 33l-225 262q-12 14-6 26.5t22 12.5zm786-409q31 0 31-31v-180q0-31-31-31H670V31q0-31-31-31H430q-31 0-31 31v1161H113q-31 0-31 31v180q0 31 31 31h841z" glyph-name="Tcaron" unicode="Ť"/><glyph d="M915 1427q31 0 31-30v-228q0-133-23.5-214T825 786q-18-23-43 0l-57 52q-18 18-2 45 33 47 42 94t9 131l17 20H674q-31 0-31 31v238q0 31 31 30h241zm-315-403q33 0 33-31V819q0-31-31-31H465V305q0-41 26.5-55t96.5-19q45-4 41-47l-6-147q-4-41-56-41-213 0-289.5 72.5T201 309v479h-99q-31 0-30 31v172q0 33 30 33h99v133q0 31 30 31h203q31 0 31-31v-133h135z" glyph-name="tcaron" horiz-adv-x="899" unicode="ť"/><glyph d="M954 1434q31 0 31-31v-180q0-31-31-31H670V985h155q31 0 31-31V778q0-31-31-30H670V31q0-31-31-31H430q-31 0-31 31v717H162q-31 0-31 30v176q0 31 31 31h237v207H113q-31 0-31 31v180q0 31 31 31h841z" glyph-name="Tbar" unicode="Ŧ"/><glyph d="M608 612q31 0 31-30V373q0-31-31-31H465v-37q0-41 26.5-55t96.5-19q45-4 41-47l-6-147q-4-41-56-41-213 0-289.5 72.5T201 309v33h-99q-31 0-30 31v209q0 31 30 30h99v176h-99q-31 0-30 31v172q0 33 30 33h99v133q0 31 30 31h203q31 0 31-31v-133h135q33 0 33-31V819q0-31-31-31H465V612h143z" glyph-name="tbar" horiz-adv-x="729" unicode="ŧ"/><glyph d="M1036 1659q8-25-22-43-209-150-396-37-88 47-125.5 43T385 1567q-20-14-33 16l-76 154q-8 23 21 43 219 154 397 37 84-47 124-42t110 54q20 14 33-17zm97-225q43 0 43-43V416q0-203-102.5-314.5T764-10H547q-209 0-311.5 111.5T133 416v975q0 43 43 43h184q43 0 43-43V416q0-100 34-142.5T547 231h217q76 0 108.5 42T905 416v975q0 43 43 43h185z" glyph-name="Utilde" horiz-adv-x="1308" unicode="Ũ"/><glyph d="M932 1249q8-25-23-43-209-150-395-37-88 47-126 43t-107-55q-20-14-33 17l-76 153q-8 23 21 43 219 154 397 37 84-47 124-42t109 54q20 14 33-16zM424-8Q123-8 123 352v641q0 31 31 31h202q31 0 31-31V322q0-94 111-95h24q61 0 108.5 21.5T696 301v692q0 31 31 31h203q31 0 31-31V31q0-31-31-31H727q-31 0-31 31v90Q618-8 436-8h-12z" glyph-name="utilde" horiz-adv-x="1083" unicode="ũ"/><glyph d="M324 1606q-31 0-31 30v176q0 31 31 31h663q31 0 31-31v-176q0-31-31-30H324zm809-172q43 0 43-43V416q0-203-102.5-314.5T764-10H547q-209 0-311.5 111.5T133 416v975q0 43 43 43h184q43 0 43-43V416q0-100 34-142.5T547 231h217q76 0 108.5 42T905 416v975q0 43 43 43h185z" glyph-name="Umacron" horiz-adv-x="1308" unicode="Ū"/><glyph d="M219 1196q-31 0-31 31v176q0 31 31 31h664q31 0 30-31v-176q0-31-30-31H219zM424-8Q123-8 123 352v641q0 31 31 31h202q31 0 31-31V322q0-94 111-95h24q61 0 108.5 21.5T696 301v692q0 31 31 31h203q31 0 31-31V31q0-31-31-31H727q-31 0-31 31v90Q618-8 436-8h-12z" glyph-name="umacron" horiz-adv-x="1083" unicode="ū"/><glyph d="M979 1843q31 0 31-31 0-147-75-227t-216-80H590q-141 0-217 80t-76 227q0 31 31 31h155q31 0 31-31 0-123 96-122h86q94 0 99 122-4 31 30 31h154zm154-409q43 0 43-43V416q0-203-102.5-314.5T764-10H547q-209 0-311.5 111.5T133 416v975q0 43 43 43h184q43 0 43-43V416q0-100 34-142.5T547 231h217q76 0 108.5 42T905 416v975q0 43 43 43h185z" glyph-name="Ubreve" horiz-adv-x="1308" unicode="Ŭ"/><glyph d="M874 1434q31 0 31-31 0-147-74.5-227T614 1096H485q-141 0-216.5 79.5T193 1403q0 31 30 31h156q31 0 31-31 0-123 96-123h86q94 0 98 123-2 31 31 31h153zM424-8Q123-8 123 352v641q0 31 31 31h202q31 0 31-31V322q0-94 111-95h24q61 0 108.5 21.5T696 301v692q0 31 31 31h203q31 0 31-31V31q0-31-31-31H727q-31 0-31 31v90Q618-8 436-8h-12z" glyph-name="ubreve" horiz-adv-x="1083" unicode="ŭ"/><glyph d="M668 1876q74 0 123-49t49-123v-23q0-72-49.5-121T668 1511h-27q-76 0-124 49.5T469 1681v23q0 74 49 123t123 49h27zm34-174q0 14-11 25.5t-27 11.5h-19q-14 0-25.5-11.5T608 1702v-14q0-16 11.5-27.5T645 1649h19q16 0 27 11t11 28v14zm431-268q43 0 43-43V416q0-203-102.5-314.5T764-10H547q-209 0-311.5 111.5T133 416v975q0 43 43 43h184q43 0 43-43V416q0-100 34-142.5T547 231h217q76 0 108.5 42T905 416v975q0 43 43 43h185z" glyph-name="Uring" horiz-adv-x="1308" unicode="Ů"/><glyph d="M563 1466q74 0 123-49t49-123v-22q0-72-48-121t-124-49h-26q-74 0-123 49t-49 121v22q0 74 49 123t123 49h26zm35-174q0 14-11.5 25.5T559 1329h-18q-14 0-25.5-11t-11.5-26v-14q0-16 11-27.5t26-11.5h18q16 0 27.5 11.5T598 1278v14zM424-8Q123-8 123 352v641q0 31 31 31h202q31 0 31-31V322q0-94 111-95h24q61 0 108.5 21.5T696 301v692q0 31 31 31h203q31 0 31-31V31q0-31-31-31H727q-31 0-31 31v90Q618-8 436-8h-12z" glyph-name="uring" horiz-adv-x="1083" unicode="ů"/><glyph d="M487 1843h258q18 0 25.5-10t-4.5-27l-180-235q-27-37-51-37H365q-39 0-21 37l100 235q18 37 43 37zm408 0h258q18 0 25.5-10t-4.5-27l-181-235q-27-37-51-37H772q-39 0-20 37l100 235q18 37 43 37zm238-409q43 0 43-43V416q0-203-102.5-314.5T764-10H547q-209 0-311.5 111.5T133 416v975q0 43 43 43h184q43 0 43-43V416q0-100 34-142.5T547 231h217q76 0 108.5 42T905 416v975q0 43 43 43h185z" glyph-name="Uhungarumlaut" horiz-adv-x="1308" unicode="Ű"/><glyph d="M383 1434h258q18 0 25.5-10.5T662 1397l-181-236q-27-37-51-37H260q-39 0-20 37l100 236q18 37 43 37zm408 0h258q18 0 25-10.5t-5-26.5l-180-236q-27-37-51-37H668q-39 0-21 37l101 236q18 37 43 37zM424-8Q123-8 123 352v641q0 31 31 31h202q31 0 31-31V322q0-94 111-95h24q61 0 108.5 21.5T696 301v692q0 31 31 31h203q31 0 31-31V31q0-31-31-31H727q-31 0-31 31v90Q618-8 436-8h-12z" glyph-name="uhungarumlaut" horiz-adv-x="1083" unicode="ű"/><glyph d="M1133 1434q43 0 43-43V416q0-344-277-412 18-98-19.5-136T762-178l-174-19q-27-2-27-16 0-6 33-6h266q20 0 21-27v-119q0-20-21-20H588q-106 0-156.5 35T381-216t51 127q51 29 146 40.5T686-10H547q-209 0-311.5 111.5T133 416v975q0 43 43 43h184q43 0 43-43V416q0-100 34-142.5T547 231h217q76 0 108.5 42T905 416v975q0 43 43 43h185z" glyph-name="Uogonek" horiz-adv-x="1308" unicode="Ų"/><glyph d="M625-219h266q20 0 20-27v-119q0-20-20-20H618q-106 0-156 35t-50 134 51 127 124.5 37 91 24.5T696 31v90Q618-8 436-8h-12Q123-8 123 352v641q0 31 31 31h202q31 0 31-31V322q0-94 111-95h24q61 0 108.5 21.5T696 301v692q0 31 31 31h203q31 0 31-31V20q-2-109-46.5-150.5T793-178l-175-19q-27-2-26-16 0-6 33-6z" glyph-name="uogonek" horiz-adv-x="1083" unicode="ų"/><glyph d="M829 1901h201q31 0 57-33l226-262q12-16 6-27.5t-23-11.5h-211q-23 0-45 39l-108 133-111-133q-4-6-10-13.5t-12.5-16.5-22.5-9H565q-16 0-22 12.5t6 26.5l225 262q25 33 55 33zm932-467q33 0 27-31L1489 31q-8-31-39-31h-168q-29 0-39 31L932 981 618 31Q608 0 580 0H414q-37 0-39 31L74 1403q-8 31 24 31h226q31 0 36-31l164-893 281 893q10 31 39 31h174q31 0 39-31l282-893 162 893q2 31 35 31h225z" glyph-name="Wcircumflex" horiz-adv-x="1861" unicode="Ŵ"/><glyph d="M717 1438h201q31 0 57-33l225-262q12-16 6-27.5t-22-11.5H973q-19 0-45 39l-109 133-110-133q-4-6-10.5-13.5T689 1118q-10-14-25-14H453q-16 0-22.5 12.5t5.5 26.5l226 262q25 33 55 33zm809-414q16 0 24.5-9t-.5-26L1262 41q-14-41-52-41h-155q-35 0-49 41-47 139-187 598-41-137-192-598-14-41-49-41H422q-35 0-49 41L86 989q-12 35 25 35h202q27 0 37-35 27-104 76-324.5T506 322q33 129 91 348t83 319q10 35 37 35h192q37 0 43-35 25-100 83.5-319t90.5-348q35 135 87.5 355t74.5 312q10 35 37 35h201z" glyph-name="wcircumflex" horiz-adv-x="1634" unicode="ŵ"/><glyph d="M705 1847q31 0 57-32l225-263q12-16 6-27.5t-22-11.5H760q-19 0-45 39l-109 134-110-134q-4-6-10.5-13t-9.5-11q-11-15-25-15H240q-16 0-22.5 12.5t5.5 26.5l226 263q25 33 55 32h201zm421-413q37 0 21-31L741 598V31q0-31-30-31H502q-31 0-31 31v567L66 1403q-16 31 20 31h227q27 0 41-31l252-524 252 524q12 31 41 31h227z" glyph-name="Ycircumflex" horiz-adv-x="1212" unicode="Ŷ"/><glyph d="M186 1104q-16 0-22 12t6 27l225 262q25 33 56 33h200q31 0 58-33l225-262q12-16 6-27.5t-22-11.5H707q-19 0-45 39l-109 133-111-133q-4-6-10-13.5t-9-11.5q-10-14-26-14H186zm844-80q31 0 17-37L500-375q-14-35-45-35H254q-35 0-21 37L418 84 55 987q-14 37 19 37h205q31 0 40-35l226-588 237 588q14 35 43 35h205z" glyph-name="ycircumflex" horiz-adv-x="1101" unicode="ŷ"/><glyph d="M248 1812q0 31 31 31h202q31 0 31-31v-194q0-31-31-31H279q-31 0-31 31v194zm448 0q0 31 31 31h203q31 0 31-31v-194q0-31-31-31H727q-31 0-31 31v194zm430-378q37 0 21-31L741 598V31q0-31-30-31H502q-31 0-31 31v567L66 1403q-16 31 20 31h227q27 0 41-31l252-524 252 524q12 31 41 31h227z" glyph-name="Ydieresis" horiz-adv-x="1212" unicode="Ÿ"/><glyph d="M573 1843h258q18 0 25.5-10t-4.5-27l-180-235q-27-37-51-37H451q-39 0-21 37l100 235q18 37 43 37zm381-530q0-35-6-43L406 246h518q31 0 30-31V31q0-31-30-31H123Q92 0 92 31v90q0 35 6 43l543 1024H123q-31 0-31 31v184q0 31 31 31h801q31 0 30-31v-90z" glyph-name="Zacute" horiz-adv-x="1046" unicode="Ź"/><glyph d="M516 1434h258q18 0 25.5-10.5T795 1397l-181-236q-27-37-51-37H393q-39 0-20 37l100 236q18 37 43 37zm313-578q0-18-10-33L414 244h383q33 0 32-31V31q0-31-30-31H113Q82 0 82 31v133q0 23 10 35l406 581H131q-31 0-31 31v180q0 33 31 33h666q33 0 32-31V856z" glyph-name="zacute" horiz-adv-x="911" unicode="ź"/><glyph d="M391 1812q0 31 31 31h203q31 0 30-31v-194q0-31-30-31H422q-31 0-31 31v194zm563-499q0-35-6-43L406 246h518q31 0 30-31V31q0-31-30-31H123Q92 0 92 31v90q0 35 6 43l543 1024H123q-31 0-31 31v184q0 31 31 31h801q31 0 30-31v-90z" glyph-name="Zdotaccent" horiz-adv-x="1046" unicode="Ż"/><glyph d="M334 1403q0 31 31 31h202q31 0 31-31v-195q0-31-31-30H365q-31 0-31 30v195zm495-547q0-18-10-33L414 244h383q33 0 32-31V31q0-31-30-31H113Q82 0 82 31v133q0 23 10 35l406 581H131q-31 0-31 31v180q0 33 31 33h666q33 0 32-31V856z" glyph-name="zdotaccent" horiz-adv-x="911" unicode="ż"/><glyph d="M160 1843h211q19 0 45-39l110-133 109 133q4 6 10 13.5t9 11.5q10 14 26 14h211q16 0 22.5-12t-6.5-27l-225-262q-27-33-57-33H424q-31 0-55 33l-226 262q-12 14-6 26.5t23 12.5zm794-530q0-35-6-43L406 246h518q31 0 30-31V31q0-31-30-31H123Q92 0 92 31v90q0 35 6 43l543 1024H123q-31 0-31 31v184q0 31 31 31h801q31 0 30-31v-90z" glyph-name="Zcaron" horiz-adv-x="1046" unicode="Ž"/><glyph d="M102 1434h211q19 0 45-39l111-133 109 133q4 6 10 13t9 11q11 15 26 15h211q16 0 22-12.5t-6-26.5l-225-262q-27-33-58-33H367q-31 0-56 33L86 1395q-12 14-6 26.5t22 12.5zm727-578q0-18-10-33L414 244h383q33 0 32-31V31q0-31-30-31H113Q82 0 82 31v133q0 23 10 35l406 581H131q-31 0-31 31v180q0 33 31 33h666q33 0 32-31V856z" glyph-name="zcaron" horiz-adv-x="911" unicode="ž"/><glyph d="M831 1487q31 0 31-31v-209q0-31-31-30h-18q-115 0-163-37t-48-152V-25q0-174-91-279.5T268-410H102q-31 0-30 31v209q0 31 30 31h19q115 0 163 36.5T332 49v643H227q-31 0-30 31v209q0 31 30 31h105v139q0 174 91 279.5T666 1487h165z" glyph-name="florin" horiz-adv-x="892" unicode="ƒ"/><glyph d="M211 1843h211q19 0 45-39l111-133 108 133q23 35 31 37t14 2h211q16 0 22.5-12t-6.5-27l-225-262q-27-33-57-33H475q-30 0-55 33l-225 262q-12 14-6 26.5t22 12.5zM1063 0H846q-29 0-37 33l-61 252H401L342 33q-8-33-37-33H88Q55 0 63 33l388 1368q10 33 38 33h173q29 0 38-33L1087 33q6-33-24-33zM457 520h233l-117 488z" glyph-name="uni01CD" horiz-adv-x="1148" unicode="Ǎ"/><glyph d="M160 1434h211q19 0 45-39l110-133 109 133q4 6 10 13t9 11q11 15 26 15h211q16 0 22.5-12.5T907 1395l-225-262q-27-33-57-33H424q-30 0-55 33l-226 262q-12 14-6 26.5t23 12.5zM932 0H707q-37 0-37 49v49Q594-11 475-10h-55q-147 0-242.5 87T82 313q0 299 334 299h254v88q0 55-26 76t-89 21h-68q-115 0-225-43-55-18-74 20l-49 119q-14 35 11 49 145 90 337 90h68q379 0 379-346V49q0-15 4-32t-6-17zM535 225q104 0 135 60v125H420q-76 0-76-92.5t76-92.5h115z" glyph-name="uni01CE" horiz-adv-x="1062" unicode="ǎ"/><glyph d="M-94 1843h211q19 0 45-39l110-133 109 133q4 6 10 13.5t9 11.5q10 14 26 14h211q16 0 22.5-12t-6.5-27l-225-262q-27-33-57-33H170q-31 0-55 33l-226 262q-12 14-6 26.5t23 12.5zm227-440q0 31 31 31h213q31 0 31-31V31q0-31-31-31H164q-31 0-31 31v1372z" glyph-name="uni01CF" horiz-adv-x="540" unicode="Ǐ"/><glyph d="M-74 1434h211q19 0 45-39l111-133 108 133q4 6 10.5 13t13.5 16.5 21 9.5h211q16 0 22.5-12.5T674 1395l-225-262q-27-33-58-33H190q-31 0-55 33l-225 262q-12 14-6 26.5t22 12.5zm238-441q0 31 31 31h202q31 0 31-31V31q0-31-31-31H195q-31 0-31 31v962z" glyph-name="uni01D0" horiz-adv-x="591" unicode="ǐ"/><glyph d="M268 1843h211q19 0 45-39l111-133 108 133q4 6 10.5 13.5t9.5 11.5q10 14 25 14h211q16 0 22.5-12t-5.5-27l-225-262q-27-33-58-33H532q-31 0-55 33l-225 262q-12 14-6 26.5t22 12.5zm475-399q205 0 308.5-113.5T1155 1018V416q0-199-103.5-312.5T743-10H524q-205 0-308 113.5T113 416v602q0 199 103 312.5T524 1444h219zM885 416v602q0 102-33 143t-109 41H524q-76 0-108.5-41T383 1018V416q0-104 33-144.5T524 231h219q76 0 109 40.5T885 416z" glyph-name="uni01D1" horiz-adv-x="1267" unicode="Ǒ"/><glyph d="M133 1434h211q19 0 45-39l111-133 108 133q4 6 10.5 13t9.5 11q11 15 25 15h211q16 0 22.5-12.5T881 1395l-226-262q-27-33-57-33H397q-31 0-55 33l-225 262q-12 14-6 26.5t22 12.5zm426-402q168 0 264.5-102.5T920 662V354q0-164-95.5-264T559-10H453Q283-10 187.5 90T92 354v308q0 166 96.5 268T453 1032h106zm96-706v374q0 96-96 97H453q-96 0-97-97V326q0-100 97-101h106q96 1 96 101z" glyph-name="uni01D2" horiz-adv-x="1011" unicode="ǒ"/><glyph d="M184 1434h211q19 0 45-39l111-133 108 133q4 6 10.5 13t9.5 11q11 15 26 15h210q16 0 22.5-12.5T932 1395l-225-262q-27-33-58-33H449q-31 0-56 33l-225 262q-12 14-6 26.5t22 12.5zM424-8Q123-8 123 352v641q0 31 31 31h202q31 0 31-31V322q0-94 111-95h24q61 0 108.5 21.5T696 301v692q0 31 31 31h203q31 0 31-31V31q0-31-31-31H727q-31 0-31 31v90Q618-8 436-8h-12z" glyph-name="uni01D4" horiz-adv-x="1083" unicode="ǔ"/><glyph d="M262 1843h211q19 0 45-39l111-133 108 133q4 6 10.5 13.5t9.5 11.5q10 14 25 14h211q16 0 22.5-12t-5.5-27l-226-262q-27-33-57-33H526q-30 0-55 33l-225 262q-12 14-6 26.5t22 12.5zm828-1077q43 0 43-43V416q0-199-103.5-312.5T721-10H524q-205 0-308 113.5T113 416v602q0 199 103 312.5T524 1444h197q193 0 296-103.5t113-285.5q4-43-40-43H905q-41 0-45 43-6 82-39 114.5T721 1202H524q-76 0-108.5-41T383 1018V416q0-104 33-144.5T524 231h197q76 0 108.5 40T862 416v127H727q-43 0-43 43v137q0 43 43 43h363z" glyph-name="Gcaron" horiz-adv-x="1234" unicode="Ǧ"/><glyph d="M168 1434h211q19 0 45-39l111-133 108 133q23 35 31 37t14 2h211q16 0 22.5-12.5T915 1395l-225-262q-27-33-57-33H432q-30 0-55 33l-225 262q-12 14-6 26.5t22 12.5zm745-410q31 0 31-31V-43q0-367-397-367-147 0-219 17-45 8-45 49v139q0 18 13 30.5t32 8.5q63-14 219-14 76 0 104.5 26.5T680-41V84q-61-94-182-94h-47Q283-10 187.5 90T92 354v308q0 166 95.5 268T451 1032h47q123 0 182-88v49q0 31 29 31h204zM584 225q96 0 96 101v374q0 96-96 97H453q-96 0-97-97V326q0-100 97-101h131z" glyph-name="gcaron" unicode="ǧ"/><glyph d="M1143 412q0-201-102.5-311.5T731-10H514Q321-10 218 92.5T104 373q-2 43 41 43h185q43 0 45-43 6-80 38.5-111T514 231h217q78 0 109.5 37T872 416t-47 149.5T659 623l-120 20q-205 35-313.5 134.5T117 1061t103.5 283.5T532 1444h152q190 0 293.5-101.5T1092 1067q2-43-41-43H866q-43 0-45 43-6 74-38.5 104.5T684 1202H532q-82 0-113.5-26.5t-31.5-95 3-89 17.5-46 48-38T551 885l121-21q192-32 317-114 154-100 154-338zM731-160q31 0 31-30v-228q0-133-23.5-214T641-801q-18-23-43 0l-57 51q-18 18-2 45 33 47 42 94.5t9 131.5l16 20H489q-31 0-30 31v238q0 31 30 30h242z" glyph-name="Scommaaccent" horiz-adv-x="1245" unicode="Ș"/><glyph d="M446 797q-90 0-90-75 0-38 25.5-57.5T481 637q225-23 317.5-93.5T891 305 799 63.5 520-10h-61Q121-10 92 260q-4 31 31 31h180q43 0 53-21 12-16 20-24 22-23 75-23h84q92 0 92 74 0 59-13 72-20 27-133 34-225 16-307 87T92 725q0 305 354 305h76q160 0 260.5-81T881 733q0-33-29-33H676q-41 0-60 39-2 1-11 15-28 43-87 43h-72zm150-957q31 0 31-30v-228q0-133-23.5-214T506-801q-18-23-43 0l-57 51q-18 18-3 45 33 47 42.5 94.5T455-479l16 20H354q-31 0-30 31v238q0 31 30 30h242z" glyph-name="scommaaccent" horiz-adv-x="972" unicode="ș"/><glyph d="M954 1434q31 0 31-31v-180q0-31-31-31H670V31q0-31-31-31H430q-31 0-31 31v1161H113q-31 0-31 31v180q0 31 31 31h841zM641-160q31 0 31-30v-228q0-133-23.5-214T551-801q-18-23-43 0l-57 51q-18 18-2 45 33 47 42 94.5t9 131.5l16 20H399q-31 0-30 31v238q0 31 30 30h242z" glyph-name="uni021A" unicode="Ț"/><glyph d="M602 788H465V305q0-41 26.5-55t96.5-19q45-4 41-47l-6-147q-4-41-56-41-213 0-289.5 72.5T201 309v479h-99q-31 0-30 31v172q0 33 30 33h99v133q0 31 30 31h203q31 0 31-31v-133h135q33 0 33-31V819q0-31-31-31zm-94-948q31 0 31-30v-228q0-133-23.5-214T418-801q-18-23-43 0l-58 51q-18 18-2 45 33 47 42.5 94.5T367-479l16 20H266q-31 0-30 31v238q0 31 30 30h242z" glyph-name="uni021B" horiz-adv-x="714" unicode="ț"/><glyph d="M625-266q59 0 59 22 0 16-18.5 22.5t-94 15.5T461-191.5 403.5-169 382-106.5 432-2l2 2H164q-31 0-31 31v1372q0 31 31 31h780q31 0 31-31v-180q0-31-31-31H403V831h412q31 0 31-30V621q0-31-31-31H403V242h551q31 0 31-31V31q0-31-31-31H657q-22-22-15-35.5T661.5-53t40.5-8q100-10 140.5-51.5T883-258q0-156-203-156H510q-86 0-132 43t-48 121q0 20 18 21h160q20 0 20-18.5t56-18.5h41z" glyph-name="uni0228" unicode="Ȩ"/><glyph d="M590-266q59 0 59 22 0 16-18.5 22.5t-94 15.5T426-191.5 368.5-169 347-107.5 395-6Q254 17 173 124T92 381v278q0 166 98.5 269.5T459 1032h108q150 0 247-101.5T911 659V469q0-59-61-59H362v-84q0-100 97-101h108q78 0 108 10.5t58 43.5q16 18 47-3l101-65q29-20 10-45-49-59-71.5-83t-78-54.5T616-8q-14-31-1.5-39T668-61q100-10 140-51.5T848-258q0-156-203-156H475q-86 0-132 43t-48 121q0 20 18 21h160q20 0 21-17 0-20 55-20h41zM362 698v-86h285v88q0 96-80 97H459q-97-1-97-99z" glyph-name="uni0229" horiz-adv-x="1003" unicode="ȩ"/><glyph d="M152-106V993q0 31 30 31h205q31 0 31-31V-127q0-143-85-252.5T113-524q-27-8-39 20L-8-317q-12 29 18 38 55 20 98.5 67.5T152-106z" glyph-name="uni0237" horiz-adv-x="581" unicode="ȷ"/><glyph d="M389 1438h201q31 0 57-33l225-262q12-16 6-27.5t-22-11.5H645q-19 0-45 39l-111 133-108-133q-23-35-31-37t-14-2H125q-16 0-22 12.5t6 26.5l225 262q25 33 55 33z" glyph-name="circumflex" horiz-adv-x="983" unicode="ˆ"/><glyph d="M127 1434h211q19 0 45-39l111-133 108 133q23 35 31 37t14 2h211q16 0 22.5-12.5T874 1395l-225-262q-27-33-57-33H391q-31 0-55 33l-225 262q-12 14-6 26.5t22 12.5z" glyph-name="caron" horiz-adv-x="985" unicode="ˇ"/><glyph d="M784 1434q31 0 31-31 0-147-74.5-227T524 1096H395q-141 0-217 79.5T102 1403q0 31 31 31h156q31 0 30-31 0-123 97-123h86q94 0 98 123-2 31 31 31h153z" glyph-name="breve" horiz-adv-x="917" unicode="˘"/><glyph d="M102 1403q0 31 31 31h203q31 0 31-31v-195q0-31-31-30H133q-31 0-31 30v195z" glyph-name="dotaccent" horiz-adv-x="468" unicode="˙"/><glyph d="M301 1466q74 0 123-49t49-123v-22q0-72-48-121t-124-49h-27q-74 0-123 49t-49 121v22q0 74 49.5 123t122.5 49h27zm35-174q0 14-11.5 25.5T297 1329h-18q-14 0-25.5-11t-11.5-26v-14q0-16 11-27.5t26-11.5h18q16 0 27.5 11.5T336 1278v14z" glyph-name="ring" horiz-adv-x="575" unicode="˚"/><glyph d="M602-393q0-20-20-21H309q-106 0-156.5 35T102-246t49.5 127T283-81t108.5 23.5T410-2q-4 16 18 16h166q18 0 22-16 27-111-11-153t-122-52l-174-18q-27-2-26-17 0-6 32-6h267q20 0 20-26v-119z" glyph-name="ogonek" horiz-adv-x="729" unicode="˛"/><glyph d="M864 1249q8-25-22-43-209-150-396-37-88 47-125.5 43T213 1157q-20-14-33 17l-76 153q-8 23 21 43 219 154 397 37 84-47 124-42t110 54q20 14 32-16z" glyph-name="tilde" horiz-adv-x="970" unicode="˜"/><glyph d="M252 1434h258q18 0 25.5-10.5T530 1397l-180-236q-27-37-51-37H129q-39 0-20 37l100 236q18 37 43 37zm407 0h259q18 0 25-10.5t-5-26.5l-182-236q-23-37-49-37H537q-39 0-21 37l100 236q18 37 43 37z" glyph-name="hungarumlaut" horiz-adv-x="1048" unicode="˝"/><glyph d="M-158-160q31 0 31-30v-228q0-133-23.5-214T-248-801q-18-23-43 0l-57 51q-18 18-2 45 33 47 42 94.5t9 131.5l16 20h-116q-31 0-31 31v238q0 31 31 30h241z" glyph-name="uni0326" horiz-adv-x="0" unicode="̦"/><glyph d="M1161 0H117Q86 0 94 33l426 1427q10 33 39 33h164q29 0 39-33L1186 33q8-33-25-33zM418 270h442l-217 832z" glyph-name="Delta" horiz-adv-x="1282" unicode="Δ"/><glyph d="M1077 637q0-207-149-367h116q31 0 31-30V31q0-31-31-31H680q-31 0-31 31v356q0 31 31 31h6q76 0 98.5 44T807 612v410q0 129-39 174t-121 45h-94q-82 0-121-45t-39-174V612q0-106 22.5-150t98.5-44h6q31 0 31-31V31q0-31-31-31H156q-31 0-31 31v209q0 31 31 30h116Q122 430 123 637v385q0 203 127 346t303 143h94q176 0 303-143t127-346V637z" glyph-name="Omega" horiz-adv-x="1200" unicode="Ω"/><glyph d="M930 1024q31 0 31-31V31q0-31-31-31H727q-31 0-31 31v90Q618-8 436-8h-12q-25 0-37 2v-373q0-31-31-31H154q-31 0-31 31V993q0 31 31 31h202q31 0 31-31V322q0-94 111-95h24q61 0 108.5 21.5T696 301v692q0 31 31 31h203z" glyph-name="mu" horiz-adv-x="1046" unicode="μ"/><glyph d="M1075 963q31 0 31-31V721q0-29-31-29h-49V31q0-31-31-31H786q-31 0-30 31v661H451V31q0-31-31-31H211q-31 0-31 31v661h-47q-31 0-31 31v209q0 31 29 31h944z" glyph-name="pi" horiz-adv-x="1208" unicode="π"/><glyph d="M197 1812q0 31 30 31h203q31 0 31-31v-194q0-31-31-31H227q-31 0-30 31v194zm448 0q0 31 31 31h203q31 0 30-31v-194q0-31-30-31H676q-31 0-31 31v194zm299-620H403V831h412q31 0 31-30V621q0-31-31-31H403V242h551q31 0 31-31V31q0-31-31-31H164q-31 0-31 31v1372q0 31 31 31h780q31 0 31-31v-180q0-31-31-31z" glyph-name="afii10023" unicode="Ё"/><glyph d="M440 1534q-39 0-20 37l100 235q18 37 43 37h258q18 0 25.5-10t-4.5-27l-180-235q-27-37-52-37H440zm480-100q31 0 30-31v-174q0-31-30-31H403V31q0-31-30-31H164q-31 0-31 31v1372q0 31 31 31h756z" glyph-name="afii10052" horiz-adv-x="1032" unicode="Ѓ"/><glyph d="M1090 436q45 0 40-43-10-193-112.5-298T721-10H524q-205 0-308 113.5T113 416v602q0 199 103 312.5T524 1444h197q195 0 297-105.5t112-298.5q4-43-40-43H905q-41 0-45 43-4 90-36.5 126T721 1202H524q-76 0-108.5-41T383 1018V866h233q31 0 31-30V651q0-31-31-30H383V416q0-104 33-144.5T524 231h197q70 0 102.5 35T860 393q4 43 45 43h185z" glyph-name="afii10053" horiz-adv-x="1232" unicode="Є"/><glyph d="M133 1403q0 31 31 31h213q31 0 31-31V31q0-31-31-31H164q-31 0-31 31v1372z" glyph-name="afii10055" horiz-adv-x="540" unicode="І"/><glyph d="M-88 1812q0 31 31 31h202q31 0 31-31v-194q0-31-31-31H-57q-31 0-31 31v194zm448 0q0 31 31 31h203q31 0 31-31v-194q0-31-31-31H391q-31 0-31 31v194zm-227-409q0 31 31 31h213q31 0 31-31V31q0-31-31-31H164q-31 0-31 31v1372z" glyph-name="afii10056" horiz-adv-x="540" unicode="Ї"/><glyph d="M647 471v932q0 31 31 31h209q31 0 31-31V446q0-201-130.5-330.5T436-14 84 121q-29 31 8 63l129 107q33 25 64-6 66-57 155-58 207 0 207 244z" glyph-name="afii10057" horiz-adv-x="1050" unicode="Ј"/><glyph d="M680 1843h258q18 0 25.5-10t-5.5-27l-180-235q-27-37-51-37H557q-39 0-20 37l100 235q18 37 43 37zM1167 0H924q-39 0-56 29L508 649 403 518V31q0-31-30-31H164q-31 0-31 31v1372q0 31 31 31h209q31 0 30-31V897l383 504q23 33 54 33h243q10 0 20-11t-11-43L694 885l486-836q16-21 8-35t-21-14z" glyph-name="afii10061" horiz-adv-x="1259" unicode="Ќ"/><glyph d="M715 1595H545q-27 0-49 37l-183 236q-12 16-5 26.5t26 10.5h258q25 0 43-37l100-236q18-37-20-37zm-551-161h209q31 0 30-31V469l402 942q10 23 37 23h268q31 0 31-31V31q0-31-31-31H901q-31 0-31 31v936L471 23Q459 0 434 0H164q-31 0-31 31v1372q0 31 31 31z" glyph-name="uni040D" horiz-adv-x="1275" unicode="Ѝ"/><glyph d="M559 1505q-141 0-217 80t-76 227q0 31 31 31h156q31 0 30-31 0-123 97-122h86q94 0 98 122-2 31 31 31h153q31 0 31-31 0-147-75-227t-216-80H559zm574-71q37 0 18-37L516 35Q502 0 471 0H254q-39 0-21 37l252 543-397 817q-18 37 18 37h228q27 0 43-35l250-518 241 518q14 35 45 35h220z" glyph-name="afii10062" horiz-adv-x="1239" unicode="Ў"/><glyph d="M1063 0H846q-29 0-37 33l-61 252H401L342 33q-8-33-37-33H88Q55 0 63 33l388 1368q10 33 38 33h173q29 0 38-33L1087 33q6-33-24-33zM457 520h233l-117 488z" glyph-name="afii10017" horiz-adv-x="1148" unicode="А"/><glyph d="M686 971q207 0 310.5-108.5T1100 561V408q0-193-102.5-300.5T686 0H164q-31 0-31 31v1372q0 31 31 31h768q31 0 31-31v-186q0-18-31-19H403V971h283zm143-563v153q0 96-31.5 131T686 727H403V242h283q80 0 111.5 35T829 408z" glyph-name="afii10018" horiz-adv-x="1181" unicode="Б"/><glyph d="M1126 498V387Q1126 0 698 0H164q-31 0-31 31v1372q0 31 31 31h526q201 0 293-93.5t92-304.5q0-162-86-258 137-102 137-280zm-321 535q0 103-23.5 131t-91.5 28H403V866h287q66 0 90.5 32t24.5 135zm51-646v111q0 86-36 117.5T698 647H403V242h295q86 0 122 30.5T856 387z" glyph-name="afii10019" horiz-adv-x="1208" unicode="В"/><glyph d="M920 1434q31 0 30-31v-174q0-31-30-31H403V31q0-31-30-31H164q-31 0-31 31v1372q0 31 31 31h756z" glyph-name="afii10020" horiz-adv-x="1032" unicode="Г"/><glyph d="M1364 236q31 0 31-31v-373q0-31-31-31h-209q-31 0-31 31V0H322v-168q0-31-31-31H82q-31 0-31 31v373q0 31 31 31h53q33 0 70 58t64.5 179T297 741v662q0 31 31 31h889q31 0 30-31V236h117zm-387 0v962H567V692q1-253-71-456h481z" glyph-name="afii10021" horiz-adv-x="1466" unicode="Д"/><glyph d="M944 1192H403V831h412q31 0 31-30V621q0-31-31-31H403V242h551q31 0 31-31V31q0-31-31-31H164q-31 0-31 31v1372q0 31 31 31h780q31 0 31-31v-180q0-31-31-31z" glyph-name="afii10022" unicode="Е"/><glyph d="M1892 0h-245q-39 0-56 29l-358 620-107-131V31q0-31-30-31H887q-31 0-31 31v487L752 649 391 29Q377 0 336 0H92Q74 0 72 18.5T80 49l487 836-399 495q-14 20-11 37t21 17h242q33 0 55-33l381-504v506q0 31 31 31h209q31 0 30-31V897l383 504q23 33 56 33h241q18 0 21.5-16.5T1815 1380l-398-495 488-836q8-12 7-30.5T1892 0z" glyph-name="afii10024" horiz-adv-x="1984" unicode="Ж"/><glyph d="M1110 391q0-176-103.5-288.5T698-10H502Q307-10 204.5 95.5T92 393q-2 43 41 43h184q43 0 45-43 4-92 37-126t103-34h196q76 0 109 39t33 145-31 151.5T670 616H518q-31 0-31 31v178q0 31 31 31h152q103 4 124 48t21 112v39q0 80-32.5 112.5T674 1200H528q-70 0-102.5-35T389 1040q-4-43-45-43H160q-45 0-41 43 10 193 112.5 298.5T528 1444h146q203 0 307-107.5t104-272.5-53-228.5T860 739q127-37 188.5-104.5T1110 391z" glyph-name="afii10025" horiz-adv-x="1202" unicode="З"/><glyph d="M164 1434h209q31 0 30-31V469l402 942q10 23 37 23h268q31 0 31-31V31q0-31-31-31H901q-31 0-31 31v936L471 23Q459 0 434 0H164q-31 0-31 31v1372q0 31 31 31z" glyph-name="afii10026" horiz-adv-x="1275" unicode="И"/><glyph d="M963 1843q31 0 30-31 0-147-74.5-227T702 1505H573q-141 0-216.5 80T281 1812q0 31 30 31h156q31 0 31-31 0-123 96-122h86q94 0 98 122-4 31 31 31h154zm-799-409h209q31 0 30-31V469l402 942q10 23 37 23h268q31 0 31-31V31q0-31-31-31H901q-31 0-31 31v936L471 23Q459 0 434 0H164q-31 0-31 31v1372q0 31 31 31z" glyph-name="afii10027" horiz-adv-x="1275" unicode="Й"/><glyph d="M1167 0H924q-39 0-56 29L508 649 403 518V31q0-31-30-31H164q-31 0-31 31v1372q0 31 31 31h209q31 0 30-31V897l383 504q23 33 54 33h243q10 0 20-11t-11-43L694 885l486-836q16-21 8-35t-21-14z" glyph-name="afii10028" horiz-adv-x="1259" unicode="К"/><glyph d="M236 475v928q0 31 30 31h891q31 0 31-31V31q0-31-31-31H948q-31 0-30 31v1167H506V319q0-176-121-254.5T90-8Q61-8 61 25v219q0 27 33 26 142 0 142 205z" glyph-name="afii10029" horiz-adv-x="1320" unicode="Л"/><glyph d="M1374 1434q31 0 31-31V31q0-31-31-31h-209q-31 0-30 31v938L899 31Q889 0 860 0H678q-31 0-39 31L403 969V31q0-31-30-31H164q-31 0-31 31v1372q0 31 31 31h309q31 0 41-31l254-924 256 924q8 31 41 31h309z" glyph-name="afii10030" horiz-adv-x="1538" unicode="М"/><glyph d="M1047 1434q31 0 30-31V31q0-31-30-31H838q-31 0-31 31v559H403V31q0-31-30-31H164q-31 0-31 31v1372q0 31 31 31h209q31 0 30-31V831h404v572q0 31 31 31h209z" glyph-name="afii10031" horiz-adv-x="1210" unicode="Н"/><glyph d="M743 1444q205 0 308.5-113.5T1155 1018V416q0-199-103.5-312.5T743-10H524q-205 0-308 113.5T113 416v602q0 199 103 312.5T524 1444h219zM885 416v602q0 102-33 143t-109 41H524q-76 0-108.5-41T383 1018V416q0-104 33-144.5T524 231h219q76 0 109 40.5T885 416z" glyph-name="afii10032" horiz-adv-x="1267" unicode="О"/><glyph d="M1128 1434q31 0 31-31V31q0-31-31-31H920q-31 0-31 31v1167H403V31q0-31-30-31H164q-31 0-31 31v1372q0 31 31 31h964z" glyph-name="afii10033" horiz-adv-x="1292" unicode="П"/><glyph d="M686 1434q209 0 311.5-107.5T1100 1026V872q0-193-103.5-301T686 463H403V31q0-31-30-31H164q-31 0-31 31v1372q0 31 31 31h522zm143-562v154q0 96-31.5 131T686 1192H403V707h283q80 0 111.5 34.5T829 872z" glyph-name="afii10034" horiz-adv-x="1171" unicode="Р"/><glyph d="M1090 436q45 0 40-43-10-193-112.5-298T721-10H524q-205 0-308 113.5T113 416v602q0 199 103 312.5T524 1444h197q195 0 297-105.5t112-298.5q4-43-40-43H905q-41 0-45 43-4 90-36.5 126T721 1202H524q-76 0-108.5-41T383 1018V416q0-104 33-144.5T524 231h197q70 0 102.5 35T860 393q4 43 45 43h185z" glyph-name="afii10035" horiz-adv-x="1232" unicode="С"/><glyph d="M954 1434q31 0 31-31v-180q0-31-31-31H670V31q0-31-31-31H430q-31 0-31 31v1161H113q-31 0-31 31v180q0 31 31 31h841z" glyph-name="afii10036" unicode="Т"/><glyph d="M1133 1434q37 0 18-37L516 35Q502 0 471 0H254q-39 0-21 37l252 543-397 817q-18 37 18 37h228q27 0 43-35l250-518 241 518q14 35 45 35h220z" glyph-name="afii10037" horiz-adv-x="1239" unicode="У"/><glyph d="M1141 1343q197 0 317.5-111.5T1579 915V571q0-205-121-316.5T1141 143H969V31q0-31-31-31H729q-31 0-31 31v112H530q-197 0-317.5 112T92 571v344q0 205 121 316.5T530 1343h168v113q0 31 31 31h209q31 0 31-31v-113h172zM534 379h164v729H534q-70 0-90-3t-43.5-20.5-31-57.5-7.5-112V571q0-72 7.5-111.5t31-57T444 382t90-3zm775 192v344q0 72-7.5 112t-31 57.5-43 20.5-49.5 3H969V379h167q72 0 91.5 3t43 20.5 31 57T1309 571z" glyph-name="afii10038" horiz-adv-x="1671" unicode="Ф"/><glyph d="M1038 0H817q-27 0-41 29L571 449 369 29Q355 0 328 0H106Q71 0 86 29l352 688-352 688q-14 29 20 29h222q27 0 41-29l202-420 205 420q14 29 41 29h221q35 0 21-29L707 717l352-688q14-29-21-29z" glyph-name="afii10039" horiz-adv-x="1144" unicode="Х"/><glyph d="M1458 236q31 0 31-31v-416q0-31-31-31h-209q-31 0-30 31V0H164q-31 0-31 31v1372q0 31 31 31h209q31 0 30-31V236h555v1167q0 31 31 31h209q31 0 31-31V236h229z" glyph-name="afii10040" horiz-adv-x="1581" unicode="Ц"/><glyph d="M1049 901q0-27-5-39V31q0-31-30-31H805q-31 0-31 31v516q-51-23-100-23H455q-154 0-253.5 106.5T102 887v516q0 31 31 31h209q31 0 31-31V887q0-127 78-127h247q41 0 58.5 31.5T774 895v508q0 31 31 31h209q31 0 30-31V901h5z" glyph-name="afii10041" horiz-adv-x="1177" unicode="Ч"/><glyph d="M1819 1434q31 0 30-31V31q0-31-30-31H164q-31 0-31 31v1372q0 31 31 31h209q31 0 30-31V236h453v1167q0 31 31 31h209q31 0 30-31V236h453v1167q0 31 31 31h209z" glyph-name="afii10042" horiz-adv-x="1982" unicode="Ш"/><glyph d="M2079 236q31 0 30-31v-416q0-31-30-31h-209q-31 0-31 31V0H164q-31 0-31 31v1372q0 31 31 31h209q31 0 30-31V236h453v1167q0 31 31 31h209q31 0 30-31V236h453v1167q0 31 31 31h209q31 0 30-31V236h230z" glyph-name="afii10043" horiz-adv-x="2201" unicode="Щ"/><glyph d="M864 971q207 0 310.5-108.5T1278 561V408q0-193-102.5-300.5T864 0H342q-31 0-31 31v1143H123q-31 0-31 30v199q0 31 31 31h428q31 0 31-31V971h282zm144-563v153q0 96-32 131t-112 35H582V242h282q80 0 112 35t32 131z" glyph-name="afii10044" horiz-adv-x="1400" unicode="Ъ"/><glyph d="M686 971q207 0 310.5-108.5T1100 561V408q0-193-102.5-300.5T686 0H164q-31 0-31 31v1372q0 31 31 31h209q31 0 30-31V971h283zm862 463q31 0 31-31V31q0-31-31-31h-213q-31 0-30 31v1372q0 31 30 31h213zM829 408v153q0 96-31.5 131T686 727H403V242h283q80 0 111.5 35T829 408z" glyph-name="afii10045" horiz-adv-x="1712" unicode="Ы"/><glyph d="M686 971q207 0 310.5-108.5T1100 561V408q0-193-102.5-300.5T686 0H164q-31 0-31 31v1372q0 31 31 31h209q31 0 30-31V971h283zm143-563v153q0 96-31.5 131T686 727H403V242h283q80 0 111.5 35T829 408z" glyph-name="afii10046" horiz-adv-x="1171" unicode="Ь"/><glyph d="M709 1444q205 0 308-113.5t103-312.5V416q0-199-103.5-312.5T709-10H512Q317-10 215 95.5T102 393q-4 43 41 43h185q41 0 45-43 4-92 36.5-127T512 231h197q76 0 108.5 40T850 416v205H616q-31 0-30 30v185q0 31 30 30h234v152q0 102-33 143t-108 41H512q-70 0-102.5-36T373 1040q-4-43-45-43H143q-45 0-41 43 10 193 112.5 298.5T512 1444h197z" glyph-name="afii10047" horiz-adv-x="1232" unicode="Э"/><glyph d="M1300 1444q205 0 308.5-113.5T1712 1018V416q0-199-103.5-312.5T1300-10h-219q-205 0-308 113.5T670 416v207H408V31q0-31-31-31H164q-31 0-31 31v1372q0 31 31 31h213q31 0 31-31V858h262v160q0 199 103.5 312.5T1081 1444h219zm142-1028v602q0 102-33 143t-109 41h-219q-76 0-108.5-41T940 1018V416q0-104 33-144.5t108-40.5h219q76 0 109 40.5t33 144.5z" glyph-name="afii10048" horiz-adv-x="1824" unicode="Ю"/><glyph d="M1067 1434q31 0 31-31V31q0-31-31-31H858q-31 0-31 31v432H555L371 33Q359 0 319 0H123Q68 0 88 49l207 473Q131 624 131 872v154q0 193 103.5 300.5T545 1434h522zM545 707h282v485H545q-78 0-111-35t-33-131V872q0-96 33-130.5T545 707z" glyph-name="afii10049" horiz-adv-x="1232" unicode="Я"/><glyph d="M932 0H707q-37 0-37 49v49Q594-11 475-10h-55q-147 0-242.5 87T82 313q0 299 334 299h254v88q0 55-26 76t-89 21h-68q-115 0-225-43-55-18-74 20l-49 119q-14 35 11 49 145 90 337 90h68q379 0 379-346V49q0-15 4-32t-6-17zM535 225q104 0 135 60v125H420q-76 0-76-92.5t76-92.5h115z" glyph-name="afii10065" horiz-adv-x="1062" unicode="а"/><glyph d="M123 1014q0 117 11 188.5t60 160.5 265 81q31-2 79-7t87-7 73 45q12 12 37 12h209q18 0 20.5-10.5T963 1448q-8-82-85-162t-169.5-88-162.5 0-114.5-8.5T387 1066V944q61 88 182 88h47q168 0 263.5-102.5T975 662V354q0-164-95.5-264T616-10h-47q-121 0-182 94V31q0-31-29-31H154q-31 0-31 31v983zm264-688q0-100 96-101h131q96 0 97 101v374q0 96-97 97H483q-96 0-96-97V326z" glyph-name="afii10066" unicode="б"/><glyph d="M903 272q0-147-79-209.5T580 0H164q-31 0-31 31v962q0 31 31 31h418q297 0 297-274 0-59-6.5-94t-36-74-88.5-64q94-33 124.5-87T903 272zM397 780V643h158q59 0 59 69t-53 68H397zm172-536q37 0 53.5 17.5T639 326q0 80-76 80H397V244h172z" glyph-name="afii10067" horiz-adv-x="1005" unicode="в"/><glyph d="M776 1024q31 0 31-31V819q0-31-31-31H373V31q0-31-31-31H139q-31 0-30 31v962q0 31 30 31h637z" glyph-name="afii10068" horiz-adv-x="888" unicode="г"/><glyph d="M1270 244q31 0 30-31v-381q0-31-30-31h-203q-31 0-31 31V0H336v-168q0-31-31-31H102q-31 0-30 31v381q0 31 30 31h52q52 0 108.5 118.5T319 741v252q0 31 31 31h772q31 0 31-31V244h117zm-381 0v536H582V545q-1-174-62-301h369z" glyph-name="afii10069" horiz-adv-x="1372" unicode="д"/><glyph d="M567 1032q150 0 247-101.5T911 659V469q0-59-61-59H362v-84q0-100 97-101h108q78 0 108 10.5t58 43.5q16 18 47-3l101-65q29-20 10-45-39-49-57.5-68.5T774 46q-72-56-207-56H459q-168 0-267.5 111.5T92 381v278q0 166 98.5 269.5T459 1032h108zm80-420v88q0 96-80 97H459q-96 0-97-99v-86h285z" glyph-name="afii10070" horiz-adv-x="1003" unicode="е"/><glyph d="M1556 0h-276q-29 0-55 29L967 313V33q0-33-31-33H735q-31 0-30 33v280L446 29Q419 0 391 0H115q-12 0-18.5 10T92 32.5 102 51l457 459-428 461q-18 20-13 36.5t21 16.5h271q20 0 45-25l250-286v278q0 33 30 33h201q31 0 31-33V713l250 286q25 25 45 25h270q16 0 21.5-16.5T1540 971l-428-461 457-459q8-6 10-18.5t-4-22.5-19-10z" glyph-name="afii10072" horiz-adv-x="1671" unicode="ж"/><glyph d="M930 266q0-125-94.5-201.5T608-12H434q-135 0-218 66.5T133 256q0 23 23 23h225q23 0 22-23 0-13 32-23t65-10h59q43 0 60.5 16.5T637 303t-5 65.5-26 20.5H432q-23 0-22 23v190q0 23 22 23h174q25 4 35 20.5t10 66.5-22.5 64.5T559 791h-59q-49 0-73-15.5T403 743q0-23-22-22H156q-23 0-23 22 0 139 84 211t217 72h174q131 0 221.5-81T920 739q0-61-11.5-124T797 510q78-33 105.5-94.5T930 266z" glyph-name="afii10073" horiz-adv-x="1062" unicode="з"/><glyph d="M164 1024h209q31 0 30-31V422l326 579q12 23 37 23h289q31 0 30-31V31q0-31-30-31H846q-31 0-31 31v571L465 23Q451 0 428 0H164q-31 0-31 31v962q0 31 31 31z" glyph-name="afii10074" horiz-adv-x="1218" unicode="и"/><glyph d="M934 1434q31 0 31-31 0-147-75-227t-216-80H545q-141 0-217 79.5T252 1403q0 31 31 31h155q31 0 31-31 0-123 96-123h86q94 0 99 123-4 31 30 31h154zm-770-410h209q31 0 30-31V422l326 579q12 23 37 23h289q31 0 30-31V31q0-31-30-31H846q-31 0-31 31v571L465 23Q451 0 428 0H164q-31 0-31 31v962q0 31 31 31z" glyph-name="afii10075" horiz-adv-x="1218" unicode="й"/><glyph d="M987 0H711q-27 0-54 29L387 326V31q0-31-31-31H154q-31 0-31 31v962q0 31 31 31h202q31 0 31-31V702l260 297q25 25 45 25h273q16 0 20-15.5T973 973L547 510 999 49q21-21 10.5-35T987 0z" glyph-name="afii10076" horiz-adv-x="1081" unicode="к"/><glyph d="M1016 1024q31 0 31-31V31q0-31-31-31H813q-31 0-31 31v749H446V414q0-113-58-230.5T256-16q-18-25-43 0L82 117q-18 18 0 45 100 115 100 276v555q0 31 31 31h803z" glyph-name="afii10077" horiz-adv-x="1159" unicode="л"/><glyph d="M1210 1024q31 0 31-31V31q0-31-31-31h-204q-31 0-31 31v520L784 111q-10-20-32-21H623q-25 0-35 21L397 551V31q0-31-30-31H164q-31 0-31 31v962q0 31 31 31h246q25 0 36-23l242-530 240 530q10 23 37 23h245z" glyph-name="afii10078" horiz-adv-x="1374" unicode="м"/><glyph d="M997 1024q31 0 31-31V31q0-31-31-31H795q-31 0-31 31v358H397V31q0-31-30-31H164q-31 0-31 31v962q0 31 31 31h203q31 0 30-31V633h367v360q0 31 31 31h202z" glyph-name="afii10079" horiz-adv-x="1161" unicode="н"/><glyph d="M559 1032q168 0 264.5-102.5T920 662V354q0-164-95.5-264T559-10H453Q283-10 187.5 90T92 354v308q0 166 96.5 268T453 1032h106zm96-706v374q0 96-96 97H453q-96 0-97-97V326q0-100 97-101h106q96 1 96 101z" glyph-name="afii10080" horiz-adv-x="1011" unicode="о"/><glyph d="M973 1024q31 0 31-31V31q0-31-31-31H770q-31 0-31 31v757H397V31q0-31-30-31H160q-27 0-27 31v962q0 31 31 31h809z" glyph-name="afii10081" horiz-adv-x="1136" unicode="п"/><glyph d="M616 1032q168 0 263.5-102.5T975 662V354q0-164-95.5-264T616-10h-47q-121 0-182 94v-463q0-31-29-31H154q-31 0-31 31V993q0 31 31 31h204q29 0 29-31v-49q59 88 182 88h47zm95-706v374q0 96-97 97H483q-96 0-96-97V326q0-100 96-101h131q97 1 97 101z" glyph-name="afii10082" unicode="р"/><glyph d="M690 662q-39 0-43 43-10 90-80 90H459q-96 0-97-97V326q0-100 97-101h108q57 0 84 14.5t56 53.5q23 27 59-2l117-82q25-18 6-43-78-94-121-123-78-53-201-53H459q-168 0-267.5 111.5T92 381v278q0 164 98.5 267.5T459 1030h108q141 0 236.5-89T911 707q0-45-43-45H690z" glyph-name="afii10083" horiz-adv-x="995" unicode="с"/><glyph d="M823 1024q31 0 31-31V809q0-31-31-31H600V31q0-31-31-31H367q-31 0-31 31v747H113q-31 0-31 31v184q0 31 31 31h710z" glyph-name="afii10084" horiz-adv-x="935" unicode="т"/><glyph d="M1030 1024q31 0 17-37L500-375q-14-35-45-35H254q-35 0-21 37L418 84 55 987q-14 37 19 37h205q31 0 40-35l226-588 237 588q14 35 43 35h205z" glyph-name="afii10085" horiz-adv-x="1101" unicode="у"/><glyph d="M1174 1032q166 0 261-102.5t95-267.5V354q0-164-94.5-264T1174-10h-48q-123 0-182 92v-461q0-31-29-31H711q-31 0-31 31V84q-61-94-182-94h-47Q283-10 187.5 90T92 354v308q0 166 95.5 268T451 1032h47q123 0 182-88v459q0 31 29 31h204q31 0 31-31V946q61 86 182 86h48zM584 225q96 0 96 101v374q0 96-96 97H453q-96 0-97-97V326q0-100 97-101h131zm684 101v374q0 96-97 97h-133q-94 0-94-97V326q0-100 94-101h133q97 1 97 101z" glyph-name="afii10086" horiz-adv-x="1622" unicode="ф"/><glyph d="M883 0H657q-27 0-47 37L498 268 385 37Q365 0 338 0H111Q93 0 86.5 12.5T90 39l260 469L86 985q-10 14-4 26.5t24 12.5h228q27 0 47-37l117-237 116 237q20 37 48 37h227q18 0 23.5-12.5T907 985L649 510 905 39q10-14 4-26.5T883 0z" glyph-name="afii10087" horiz-adv-x="993" unicode="х"/><glyph d="M1198 244q31 0 31-31v-424q0-31-31-31H993q-31 0-30 31V0H164q-31 0-31 31v962q0 31 31 31h205q31 0 30-31V244h338v749q0 31 31 31h205q31 0 31-31V244h194z" glyph-name="afii10088" horiz-adv-x="1310" unicode="ц"/><glyph d="M889 1024q31 0 31-31V31q0-31-31-31H688q-31 0-31 31v221q-39-14-86-14H438q-145 0-235 106.5T113 604v389q0 31 30 31h203q31 0 31-31V608q0-68 20.5-97.5T463 481h112q53 0 67.5 30T657 625v368q0 31 31 31h201z" glyph-name="afii10089" horiz-adv-x="1052" unicode="ч"/><glyph d="M1522 1024q31 0 30-31V31q0-31-30-31H164q-31 0-31 31v962q0 31 31 31h203q31 0 30-31V244h314v749q0 31 30 31h203q31 0 31-31V244h313v749q0 31 31 31h203z" glyph-name="afii10090" horiz-adv-x="1685" unicode="ш"/><glyph d="M1747 244q31 0 31-31v-424q0-31-31-31h-203q-31 0-31 31V0H164q-31 0-31 31v962q0 31 31 31h203q31 0 30-31V244h314v749q0 31 30 31h203q31 0 31-31V244h313v749q0 31 31 31h203q31 0 30-31V244h195z" glyph-name="afii10091" horiz-adv-x="1859" unicode="щ"/><glyph d="M653 635q190 0 269-80t79-244-76.5-237.5T653 0H219q-31 0-31 31v749H82q-31 0-31 31v182q0 31 31 31h317q31 0 31-31V635h223zm11-399q29 0 46 4t33.5 23 16.5 55-16.5 54.5-34 22.5-45.5 4H430V236h234z" glyph-name="afii10092" horiz-adv-x="1124" unicode="ъ"/><glyph d="M608 635q190 0 269-80t79-244-76.5-237.5T608 0H174q-31 0-31 31v962q0 31 31 31h180q31 0 31-31V635h223zm791 389q31 0 31-31V31q0-31-31-31h-203q-31 0-31 31v962q0 31 31 31h203zM618 236q29 0 46.5 4t34 23 16.5 55-16.5 54.5-34 22.5-46.5 4H385V236h233z" glyph-name="afii10093" horiz-adv-x="1593" unicode="ы"/><glyph d="M598 635q190 0 269-80t79-244-76.5-237.5T598 0H164q-31 0-31 31v962q0 31 31 31h180q31 0 31-31V635h223zm10-399q29 0 46.5 4t34 23 16.5 55-16.5 54.5-34 22.5-46.5 4H375V236h233z" glyph-name="afii10094" horiz-adv-x="1058" unicode="ь"/><glyph d="M537 1030q170 0 268-103.5T903 659V381q0-168-99-279.5T537-10H428q-79 0-171 34-26 10-61.5 43t-44 43.5T106 166q-18 25 7 43l116 82q37 29 60 2 29-39 55.5-53.5T428 225h109q96 0 96 101v61H479q-31 0-30 31v180q0 31 30 31h154v69q0 96-96 97H428q-70 0-80-90-4-43-43-43H127q-43 0-43 45 12 145 107.5 234t236.5 89h109z" glyph-name="afii10095" horiz-adv-x="995" unicode="э"/><glyph d="M1098 1032q168 0 264-102.5t96-267.5V354q0-164-95-264T1098-10H991q-168 0-262 97t-98 259H430V31q0-31-31-31H197q-31 0-31 31v962q0 31 31 31h202q31 0 31-31V616h201v46q0 166 96 268t264 102h107zm96-706v374q0 96-96 97H991q-96 0-96-97V326q0-100 96-101h107q96 1 96 101z" glyph-name="afii10096" horiz-adv-x="1566" unicode="ю"/><glyph d="M336 0H133q-31 0-31 31v227q0 184 113 242-61 53-79.5 107.5T117 739q0 117 85 201t224 84h412q31 0 30-31V31q0-31-30-31H657q-31 0-30 31v329H475q-76 0-92-43t-16-118V31q0-31-31-31zm291 780H471q-98 0-98-88t102-88h152v176z" glyph-name="afii10097" horiz-adv-x="1001" unicode="я"/><glyph d="M141 1403q0 31 31 31h203q31 0 31-31v-195q0-31-31-30H172q-31 0-31 30v195zm449 0q0 31 31 31h202q31 0 31-31v-195q0-31-31-30H621q-31 0-31 30v195zm-23-371q150 0 247-101.5T911 659V469q0-59-61-59H362v-84q0-100 97-101h108q78 0 108 10.5t58 43.5q16 18 47-3l101-65q29-20 10-45-39-49-57.5-68.5T774 46q-72-56-207-56H459q-168 0-267.5 111.5T92 381v278q0 166 98.5 269.5T459 1032h108zm80-420v88q0 96-80 97H459q-96 0-97-99v-86h285z" glyph-name="afii10071" horiz-adv-x="1003" unicode="ё"/><glyph d="M383 1124q-39 0-21 37l101 236q18 37 43 37h258q18 0 25.5-10.5T784 1397l-180-236q-27-37-51-37H383zm393-100q31 0 31-31V819q0-31-31-31H373V31q0-31-31-31H139q-31 0-30 31v962q0 31 30 31h637z" glyph-name="afii10100" horiz-adv-x="888" unicode="ѓ"/><glyph d="M459 795q-96 0-97-97v-69h154q31 0 31-31V418q0-31-31-31H362v-61q0-100 97-101h108q57 0 84 14.5t56 53.5q23 27 59-2l117-82q25-18 6-43-78-94-121-123-78-53-201-53H459q-168 0-267.5 111.5T92 381v278q0 164 98.5 267.5T459 1030h108q141 0 236.5-89T911 707q0-45-43-45H690q-39 0-43 43-10 90-80 90H459z" glyph-name="afii10101" horiz-adv-x="995" unicode="є"/><glyph d="M143 1403q0 31 31 31h203q31 0 31-31v-195q0-31-31-30H174q-31 0-31 30v195zm0-410q0 31 31 31h203q31 0 31-31V31q0-31-31-31H174q-31 0-31 31v962z" glyph-name="afii10103" horiz-adv-x="550" unicode="і"/><glyph d="M-66 1403q0 31 31 31h203q31 0 31-31v-195q0-31-31-30H-35q-31 0-31 30v195zm449 0q0 31 31 31h202q31 0 31-31v-195q0-31-31-30H414q-31 0-31 30v195zM164 993q0 31 31 31h202q31 0 31-31V31q0-31-31-31H195q-31 0-31 31v962z" glyph-name="afii10104" horiz-adv-x="591" unicode="ї"/><glyph d="M139 1403q0 31 31 31h203q31 0 30-31v-195q0-31-30-30H170q-31 0-31 30v195zm2-1509V993q0 31 31 31h205q31 0 31-31V-127q0-143-85-252.5T102-524q-27-8-39 20l-81 187q-12 29 18 38 55 20 98 67.5T141-106z" glyph-name="afii10105" horiz-adv-x="550" unicode="ј"/><glyph d="M467 1124q-39 0-21 37l101 236q18 37 43 37h258q18 0 25.5-10.5T868 1397l-180-236q-27-37-51-37H467zM987 0H711q-27 0-54 29L387 326V31q0-31-31-31H154q-31 0-31 31v962q0 31 31 31h202q31 0 31-31V702l260 297q25 25 45 25h273q16 0 20-15.5T973 973L547 510 999 49q21-21 10.5-35T987 0z" glyph-name="afii10109" horiz-adv-x="1081" unicode="ќ"/><glyph d="M686 1186H516q-27 0-49 37l-182 235q-12 16-5 26.5t25 10.5h258q25 0 43-37l101-235q18-37-21-37zm-522-162h209q31 0 30-31V422l326 579q12 23 37 23h289q31 0 30-31V31q0-31-30-31H846q-31 0-31 31v571L465 23Q451 0 428 0H164q-31 0-31 31v962q0 31 31 31z" glyph-name="uni045D" horiz-adv-x="1218" unicode="ѝ"/><glyph d="M485 1096q-141 0-216.5 79.5T193 1403q0 31 30 31h156q31 0 31-31 0-123 96-123h86q94 0 98 123-2 31 31 31h153q31 0 31-31 0-147-74.5-227T614 1096H485zm545-72q31 0 17-37L500-375q-14-35-45-35H254q-35 0-21 37L418 84 55 987q-14 37 19 37h205q31 0 40-35l226-588 237 588q14 35 43 35h205z" glyph-name="afii10110" horiz-adv-x="1101" unicode="ў"/><glyph d="M920 1618q31 0 30-31v-358q0-31-30-31H403V31q0-31-30-31H164q-31 0-31 31v1372q0 31 31 31h516v153q0 31 31 31h209z" glyph-name="afii10050" horiz-adv-x="1032" unicode="Ґ"/><glyph d="M801 1147q31 0 30-31V758q0-31-30-31H397V31q0-31-30-31H164q-31 0-31 31v901q0 31 31 31h403v153q0 31 31 31h203z" glyph-name="afii10098" horiz-adv-x="964" unicode="ґ"/><glyph d="M133 1403q0 31 31 31h213q31 0 31-31V31q0-31-31-31H164q-31 0-31 31v1372z" glyph-name="uni04C0" horiz-adv-x="540" unicode="Ӏ"/><glyph d="M305 1606q-31 0-31 30v176q0 31 31 31h664q31 0 30-31v-176q0-31-30-30H305zm-141-172h209q31 0 30-31V469l402 942q10 23 37 23h268q31 0 31-31V31q0-31-31-31H901q-31 0-31 31v936L471 23Q459 0 434 0H164q-31 0-31 31v1372q0 31 31 31z" glyph-name="uni04E2" horiz-adv-x="1275" unicode="Ӣ"/><glyph d="M279 1196q-31 0-31 31v176q0 31 31 31h663q31 0 31-31v-176q0-31-31-31H279zm-115-172h209q31 0 30-31V422l326 579q12 23 37 23h289q31 0 30-31V31q0-31-30-31H846q-31 0-31 31v571L465 23Q451 0 428 0H164q-31 0-31 31v962q0 31 31 31z" glyph-name="uni04E3" horiz-adv-x="1218" unicode="ӣ"/><glyph d="M743 1444q205 0 308.5-113.5T1155 1018V416q0-199-103.5-312.5T743-10H524q-205 0-308 113.5T113 416v602q0 199 103 312.5T524 1444h219zm-219-242q-76 0-108.5-41T383 1018V836h502v182q0 102-33 143t-109 41H524zm219-971q76 0 109 40t33 145v184H383V416q0-104 33-144.5T524 231h219z" glyph-name="uni04E8" horiz-adv-x="1267" unicode="Ө"/><glyph d="M920 293q0-231-95.5-371.5T559-219H453q-170 0-265.5 140T92 293v98l-61 2 61 115v215q0 229 96.5 373.5T453 1241h106q168 0 264.5-144.5T920 723v-92l88-2-88-164V293zM453 911q-96 0-97-133V647l299-8v139q0 133-96 133H453zm106-800q96 0 96 139v127l-299 8V250q0-139 97-139h106z" glyph-name="uni04E9" horiz-adv-x="1011" unicode="ө"/><glyph d="M276 1587q-31 0-30 31v194q0 31 30 31h203q31 0 31-31v-194q0-31-31-31H276zm449 0q-31 0-31 31v194q0 31 31 31h203q31 0 30-31v-194q0-31-30-31H725zm-16-143q205 0 308-113.5t103-312.5V416q0-199-103.5-312.5T709-10H512Q317-10 215 95.5T102 393q-4 43 41 43h185q41 0 45-43 4-92 36.5-127T512 231h197q76 0 108.5 40T850 416v205H616q-31 0-30 30v185q0 31 30 30h234v152q0 102-33 143t-108 41H512q-70 0-102.5-36T373 1040q-4-43-45-43H143q-45 0-41 43 10 193 112.5 298.5T512 1444h197z" glyph-name="uni04EC" horiz-adv-x="1232" unicode="Ӭ"/><glyph d="M168 1178q-31 0-31 30v195q0 31 31 31h203q31 0 30-31v-195q0-31-30-30H168zm448 0q-31 0-30 30v195q0 31 30 31h203q31 0 31-31v-195q0-31-31-30H616zm-79-148q170 0 268-103.5T903 659V381q0-168-99-279.5T537-10H428q-79 0-171 34-26 10-61.5 43t-44 43.5T106 166q-18 25 7 43l116 82q37 29 60 2 29-39 55.5-53.5T428 225h109q96 0 96 101v61H479q-31 0-30 31v180q0 31 30 31h154v69q0 96-96 97H428q-70 0-80-90-4-43-43-43H127q-43 0-43 45 12 145 107.5 234t236.5 89h109z" glyph-name="uni04ED" horiz-adv-x="995" unicode="ӭ"/><glyph d="M293 1606q-31 0-31 30v176q0 31 31 31h663q31 0 31-31v-176q0-31-31-30H293zm840-172q37 0 18-37L516 35Q502 0 471 0H254q-39 0-21 37l252 543-397 817q-18 37 18 37h228q27 0 43-35l250-518 241 518q14 35 45 35h220z" glyph-name="uni04EE" horiz-adv-x="1239" unicode="Ӯ"/><glyph d="M195 1196q-31 0-31 31v176q0 31 31 31h663q31 0 31-31v-176q0-31-31-31H195zm835-172q31 0 17-37L500-375q-14-35-45-35H254q-35 0-21 37L418 84 55 987q-14 37 19 37h205q31 0 40-35l226-588 237 588q14 35 43 35h205z" glyph-name="uni04EF" horiz-adv-x="1134" unicode="ӯ"/><glyph d="M819 1843h258q18 0 25.5-10t-4.5-27l-180-235q-27-37-52-37H696q-39 0-20 37l100 235q18 37 43 37zm555-409q31 0 31-31V31q0-31-31-31h-209q-31 0-30 31v938L899 31Q889 0 860 0H678q-31 0-39 31L403 969V31q0-31-30-31H164q-31 0-31 31v1372q0 31 31 31h309q31 0 41-31l254-924 256 924q8 31 41 31h309z" glyph-name="uni1E3E" horiz-adv-x="1538" unicode="Ḿ"/><glyph d="M754 1124q-39 0-21 37l101 236q18 37 43 37h258q18 0 25-10.5t-5-26.5l-180-236q-27-37-51-37H754zm479-92q299 0 299-360V31q0-31-31-31h-201q-31 0-30 31v671q0 94-111 95h-26q-127 0-172-74V31q0-31-31-31H727q-31 0-31 31v671q0 94-110 95h-25q-61 0-108-21.5T387 723V31q0-31-31-31H154q-31 0-31 31v962q0 31 31 31h202q31 0 31-31v-90q78 129 260 129h12q197 0 267-155l35 26q78 129 258 129h14z" glyph-name="uni1E3F" horiz-adv-x="1654" unicode="ḿ"/><glyph d="M1008 1649H838q-27 0-50 37l-182 235q-12 16-5 26.5t26 10.5h258q25 0 43-37l100-235q18-37-20-37zm753-215q33 0 27-31L1489 31q-8-31-39-31h-168q-29 0-39 31L932 981 618 31Q608 0 580 0H414q-37 0-39 31L74 1403q-8 31 24 31h226q31 0 36-31l164-893 281 893q10 31 39 31h174q31 0 39-31l282-893 162 893q2 31 35 31h225z" glyph-name="Wgrave" horiz-adv-x="1861" unicode="Ẁ"/><glyph d="M895 1186H725q-27 0-49 37l-182 235q-12 16-5 26.5t25 10.5h258q25 0 43-37l100-235q18-37-20-37zm631-162q16 0 24.5-9t-.5-26L1262 41q-14-41-52-41h-155q-35 0-49 41-47 139-187 598-41-137-192-598-14-41-49-41H422q-35 0-49 41L86 989q-12 35 25 35h202q27 0 37-35 27-104 76-324.5T506 322q33 129 91 348t83 319q10 35 37 35h192q37 0 43-35 25-100 83.5-319t90.5-348q35 135 87.5 355t74.5 312q10 35 37 35h201z" glyph-name="wgrave" horiz-adv-x="1634" unicode="ẁ"/><glyph d="M1237 1896q18 0 25.5-10t-5.5-26l-180-236q-27-37-51-37H856q-39 0-20 37l100 236q18 37 43 36h258zm524-462q33 0 27-31L1489 31q-8-31-39-31h-168q-29 0-39 31L932 981 618 31Q608 0 580 0H414q-37 0-39 31L74 1403q-8 31 24 31h226q31 0 36-31l164-893 281 893q10 31 39 31h174q31 0 39-31l282-893 162 893q2 31 35 31h225z" glyph-name="Wacute" horiz-adv-x="1861" unicode="Ẃ"/><glyph d="M866 1434h258q18 0 25.5-10.5t-4.5-26.5l-180-236q-27-37-52-37H743q-39 0-20 37l100 236q18 37 43 37zm660-410q16 0 24.5-9t-.5-26L1262 41q-14-41-52-41h-155q-35 0-49 41-47 139-187 598-41-137-192-598-14-41-49-41H422q-35 0-49 41L86 989q-12 35 25 35h202q27 0 37-35 27-104 76-324.5T506 322q33 129 91 348t83 319q10 35 37 35h192q37 0 43-35 25-100 83.5-319t90.5-348q35 135 87.5 355t74.5 312q10 35 37 35h201z" glyph-name="wacute" horiz-adv-x="1634" unicode="ẃ"/><glyph d="M573 1866q0 31 31 30h203q31 0 31-30v-195q0-31-31-31H604q-31 0-31 31v195zm449 0q0 31 31 30h202q31 0 31-30v-195q0-31-31-31h-202q-31 0-31 31v195zm739-432q33 0 27-31L1489 31q-8-31-39-31h-168q-29 0-39 31L932 981 618 31Q608 0 580 0H414q-37 0-39 31L74 1403q-8 31 24 31h226q31 0 36-31l164-893 281 893q10 31 39 31h174q31 0 39-31l282-893 162 893q2 31 35 31h225z" glyph-name="Wdieresis" horiz-adv-x="1861" unicode="Ẅ"/><glyph d="M459 1403q0 31 30 31h203q31 0 31-31v-195q0-31-31-30H489q-31 0-30 30v195zm448 0q0 31 31 31h203q31 0 30-31v-195q0-31-30-30H938q-31 0-31 30v195zm619-379q16 0 24.5-9t-.5-26L1262 41q-14-41-52-41h-155q-35 0-49 41-47 139-187 598-41-137-192-598-14-41-49-41H422q-35 0-49 41L86 989q-12 35 25 35h202q27 0 37-35 27-104 76-324.5T506 322q33 129 91 348t83 319q10 35 37 35h192q37 0 43-35 25-100 83.5-319t90.5-348q35 135 87.5 355t74.5 312q10 35 37 35h201z" glyph-name="wdieresis" horiz-adv-x="1634" unicode="ẅ"/><glyph d="M682 1595H512q-27 0-49 37l-182 236q-12 16-5 26.5t25 10.5h258q25 0 43-37l100-236q18-37-20-37zm444-161q37 0 21-31L741 598V31q0-31-30-31H502q-31 0-31 31v567L66 1403q-16 31 20 31h227q27 0 41-31l252-524 252 524q12 31 41 31h227z" glyph-name="Ygrave" horiz-adv-x="1212" unicode="Ỳ"/><glyph d="M248 1495h258q25 0 43-37l100-235q18-37-20-37H459q-26 0-49 37l-183 235q-12 16-5 26.5t26 10.5zm782-471q31 0 17-37L500-375q-14-35-45-35H254q-35 0-21 37L418 84 55 987q-14 37 19 37h205q31 0 40-35l226-588 237 588q14 35 43 35h205z" glyph-name="ygrave" horiz-adv-x="1101" unicode="ỳ"/><glyph d="M154 358q-31 0-31 31v174q0 31 31 31h964q31 0 31-31V389q0-31-31-31H154z" glyph-name="endash" horiz-adv-x="1271" unicode="–"/><glyph d="M154 358q-31 0-31 31v174q0 31 31 31h1116q31 0 30-31V389q0-31-30-31H154z" glyph-name="emdash" horiz-adv-x="1423" unicode="—"/><glyph d="M133 793q-31 0-31 30v226q0 133 22.5 215t96.5 170q20 23 45 0l58-52q18-18 2-45-33-47-42.5-94t-9.5-131l-16-20h117q31 0 31-31V823q0-31-31-30H133z" glyph-name="quoteleft" horiz-adv-x="507" unicode="‘"/><glyph d="M354 1427q31 0 31-30v-228q0-133-23.5-214T264 786q-18-23-43 0l-57 52q-18 18-2 45 33 47 42 94t9 131l16 20H113q-31 0-31 31v238q0 31 31 30h241z" glyph-name="quoteright" horiz-adv-x="512" unicode="’"/><glyph d="M344 299q31 0 31-31V41q0-133-23.5-214T254-342q-18-23-43 0l-57 51q-18 18-2 45 33 47 42 94.5T203-20l16 20H102Q71 0 72 31v237q0 31 30 31h242z" glyph-name="quotesinglbase" horiz-adv-x="536" unicode="‚"/><glyph d="M123 780q-31 0-31 31v227q0 133 22.5 215t96.5 170q20 20 45-2l57-49q18-18 2-45-33-49-42-95t-9-132l-16-21h117q31 0 30-30V811q0-31-30-31H123zm473 0q-31 0-31 31v227q0 133 23.5 215t97.5 170q18 20 43-2l57-49q18-18 2-45-33-49-42-95t-9-132l-16-21h117q31 0 30-30V811q0-31-30-31H596z" glyph-name="quotedblleft" horiz-adv-x="960" unicode="“"/><glyph d="M375 1466q31 0 31-30v-228q0-133-24-214t-97-169q-18-23-43 0l-58 52q-18 18-2 45 33 47 42 94t9 131l17 20H133q-31 0-31 31v238q0 31 31 30h242zm477 0q31 0 31-30v-228q0-135-22.5-216T764 825q-18-23-43 0l-57 52q-20 20-2 45 51 80 51 225l14 20H612q-31 0-30 31v238q0 31 30 30h240z" glyph-name="quotedblright" horiz-adv-x="999" unicode="”"/><glyph d="M365 299q31 0 30-31V41q0-133-23.5-214T274-342q-18-23-43 0l-57 51q-18 18-2 45 33 47 42 94.5T223-20l17 20H123Q92 0 92 31v237q0 31 31 31h242zm477 0q31 0 30-31V41q0-135-22.5-216T754-342q-18-23-43 0l-58 51q-20 20-2 45 51 80 51 226l15 20H602q-31 0-31 31v237q0 31 31 31h240z" glyph-name="quotedblbase" horiz-adv-x="964" unicode="„"/><glyph d="M774 963q31 0 31-31V723q0-31-31-31H580v-928q0-31-31-30H340q-31 0-31 30v928H113q-31 0-31 31v209q0 31 31 31h196v501q0 31 31 31h209q31 0 31-31V963h194z" glyph-name="dagger" horiz-adv-x="886" unicode="†"/><glyph d="M774 692H580V537h194q31 0 31-31V297q0-31-31-31H580v-502q0-31-31-30H340q-31 0-31 30v502H113q-31 0-31 31v209q0 31 31 31h196v155H113q-31 0-31 31v209q0 31 31 31h196v501q0 31 31 31h209q31 0 31-31V963h194q31 0 31-31V723q0-31-31-31z" glyph-name="daggerdbl" horiz-adv-x="886" unicode="‡"/><glyph d="M164 848q0 68 65 67h283q70 0 70-67V575q0-68-70-67H229q-66 0-65 67v273z" glyph-name="bullet" horiz-adv-x="745" unicode="•"/><glyph d="M102 313q0 31 31 31h285q31 0 31-31V31q0-31-31-31H133q-31 0-31 31v282zm678 0q0 31 31 31h285q31 0 30-31V31q0-31-30-31H811q-31 0-31 31v282zm678 0q0 31 31 31h285q31 0 30-31V31q0-31-30-31h-285q-31 0-31 31v282z" glyph-name="ellipsis" horiz-adv-x="1906" unicode="…"/><glyph d="M956 1487h234q39 0 20-31L383 31Q365 0 342 0H109Q70 0 88 31l827 1425q18 31 41 31zm-659 0q82 0 135-54.5t53-136.5v-22q0-82-52-135.5T297 1085h-27q-82 0-135 53.5T82 1274v22q0 82 53 136.5t135 54.5h27zm14-199q0 27-28 27h-7q-25 0-24-27v-6q0-25 24-25h7q29 0 28 25v6zm709-887q82 0 135-54t53-136v-23q0-82-53-135T1020 0h-27q-84 0-136 53t-52 135v23q0 82 53 136t135 54h27zm631 0q82 0 135-54t53-136v-23q0-82-53-135T1651 0h-27q-84 0-136 53t-52 135v23q0 82 53 136t135 54h27zm-617-198q0 27-28 26h-7q-25 0-24-26v-6q0-25 24-25h7q29 0 28 25v6zm631 0q0 27-29 26h-6q-25 0-24-26v-6q0-25 24-25h6q29 0 29 25v6z" glyph-name="perthousand" horiz-adv-x="1832" unicode="‰"/><glyph d="M565 872V635q0-25-37-45l-131-64 131-63q37-20 37-45V180q0-16-11-20t-26 4L143 403q-31 20-30 58v131q0 37 30 57l385 240q14 8 25.5 4t11.5-21z" glyph-name="guilsinglleft" horiz-adv-x="677" unicode="‹"/><glyph d="M565 461q0-37-30-58L150 164q-14-8-25.5-4T113 180v238q0 25 37 45l131 63-131 64q-37 20-37 45v237q0 16 11.5 20.5T150 889l385-240q31-20 30-57V461z" glyph-name="guilsinglright" horiz-adv-x="677" unicode="›"/><glyph d="M467 1487h78q39 0 20-31L-262 31q-18-31-41-31h-78q-39 0-20 31l827 1425q18 31 41 31z" glyph-name="fraction" horiz-adv-x="204" unicode="⁄"/><glyph d="M1325 436q43 0 41-43-10-193-112.5-298T956-10H760q-205 0-308.5 113.5T348 416v47H143q-31 0-30 31v172q0 31 30 30h205v78H143q-31 0-30 31v172q0 31 30 31h205v10q0 199 103.5 312.5T760 1444h196q195 0 297.5-105.5T1366 1040q2-43-41-43h-184q-43 0-45 43-4 90-37 126t-103 36H760q-76 0-109-41t-33-143v-10h226q31 0 30-31V805q0-31-30-31H618v-78h226q31 0 30-30V494q0-31-30-31H618v-47q0-104 33-144.5T760 231h196q70 0 103 35t37 127q2 43 45 43h184z" glyph-name="Euro" horiz-adv-x="1470" unicode="€"/><glyph d="M1036 709q31 0 31-31v-86q0-31-31-31H430q-47-47-47-168 0-68 45-109.5T543 242h94q63 0 108.5 41T793 385l2 59q0 31 30 31h211q31 0 31-31v-59q0-176-130-295T637-29h-94Q367-29 240 90T113 391q0 92 24 170-23 4-22 31v86q0 31 30 31h72q29 37 66 65H145q-31 0-30 31v86q0 31 30 31h568q37 18 54 53t19 56.5 2 70.5-35.5 94-97.5 45H549q-61 0-104.5-47T401 1079v-39q0-31-30-30H160q-31 0-31 30v39q-2 184 126 308t294 124h106q170 0 287-113.5t117-291.5q0-96-35-184h12q31 0 31-31v-86q0-31-31-31H930q-35-37-78-65h184z" glyph-name="uni20B4" horiz-adv-x="1179" unicode="₴"/><glyph d="M1110 1434q31 0 31-31V31q0-31-31-31H842q-27 0-37 23L403 967V31q0-31-30-31H164q-31 0-31 31v1372q0 31 31 31h270q25 0 37-23l399-942v934q0 31 31 31h209zm680 0q164 0 255-94.5t91-254.5V956q0-162-90-256t-256-94h-59q-168 0-257.5 93.5T1384 956v129q0 160 89.5 254.5T1731 1434h59zm96-349q0 66-22.5 89.5T1778 1198h-37q-66 0-87.5-22.5T1632 1085V956q0-68 21.5-91t87.5-23h37q63 0 85.5 23.5T1886 956v129zm-502-731q0 31 31 31h692q31 0 31-31V180q0-31-31-30h-692q-31 0-31 30v174z" glyph-name="afii61352" horiz-adv-x="2230" unicode="№"/><glyph d="M584 1062q0-79-65.5-121T333 899t-184.5 44T82 1055q0 16 18 16h82q18 0 19-16 1-39 109-39t133.5 7 25.5 38-22.5 40-136.5 14q-228 10-228 171 0 90 59.5 125t186.5 35q248 0 252-164 0-18-15-18h-82q-18 0-19 22t-27.5 32.5T327 1329t-105.5-8.5T199 1290t8.5-38.5T345 1229q128-6 183.5-47t55.5-120zm876 372q31 0 31-31V940q0-31-31-31h-61q-31 0-31 31v340l-201-340q-18-31-39-31h-43q-20 0-38 31l-201 340V940q0-31-31-31h-61q-31 0-31 31v463q0 31 31 31h123q25 0 41-31l188-338 190 338q18 31 41 31h123z" glyph-name="uni2120" horiz-adv-x="1572" unicode="℠"/><glyph d="M602 1434q31 0 31-31v-62q0-31-31-30H420V940q0-31-31-31h-61q-31 0-31 31v371H113q-31 0-31 30v62q0 31 31 31h489zm881 0q31 0 30-31V940q0-31-30-31h-62q-31 0-30 31v340l-201-340q-18-31-39-31h-43q-20 0-39 31l-201 340V940q0-31-30-31h-62q-31 0-31 31v463q0 31 31 31h123q25 0 41-31l188-338 191 338q18 31 41 31h123z" glyph-name="trademark" horiz-adv-x="1595" unicode="™"/><glyph d="M1085 1487h78q39 0 21-31L356 31Q338 0 315 0h-77q-39 0-21 31l827 1425q18 31 41 31zm-839-31q0 31 30 31h66q31 0 31-31V885q0-31-31-31h-66q-31 0-30 31v571zM1358 183q0-71-50.5-127T1178 0h-52q-80 0-130 57t-50 127 70 133q-70 63-70 135t50.5 127.5T1126 635h52q80 0 130-56.5t50-127.5-70-134q70-63 70-134zm-203 188q33 0 55.5 21.5t22.5 54-23.5 52T1151 518t-57.5-19.5-22.5-52 22.5-54T1149 371h6zm-4-254q35 0 58.5 19.5t23.5 52-22.5 54T1155 264h-6q-33 0-55.5-21.5t-22.5-54 22.5-52T1151 117z" glyph-name="oneeighth" horiz-adv-x="1480" unicode="⅛"/><glyph d="M350 854h-51q-74 0-125 51t-51 119v27q0 31 31 30h61q31 0 31-30v-15q0-27 21.5-46t56.5-19 58.5 19.5 23.5 52-23 54-55 21.5h-47q-31 0-31 31v45q0 31 31 31h47q33 0 55.5 21.5t22.5 54-24 52-58 19.5-56-19.5-22-45.5v-15q0-31-31-30h-61q-31 0-31 30v27q0 68 51 119t125 51h51q80 0 130-56.5t50-127.5-69-134q69-63 69-134t-50-127-130-56zm770 633h78q39 0 21-31L391 31Q373 0 350 0h-78q-39 0-20 31l827 1425q18 31 41 31zm273-1304q0-71-50.5-127T1212 0h-51q-80 0-130 57t-50 127 70 133q-70 63-70 135t50 127.5 130 55.5h51q80 0 130.5-56.5T1393 451t-70-134q70-63 70-134zm-203 188q33 0 55.5 21.5t22.5 54-23.5 52T1186 518t-57.5-19.5-22.5-52 22.5-54T1184 371h6zm-4-254q35 0 58.5 19.5t23.5 52-22.5 54T1190 264h-6q-33 0-55.5-21.5t-22.5-54 22.5-52T1186 117z" glyph-name="threeeighths" horiz-adv-x="1515" unicode="⅜"/><glyph d="M530 1044q0-78-50-135t-130-57h-51q-74 0-125 51t-51 119v27q0 31 31 30h61q31 0 31-30v-15q0-27 21.5-46t54.5-19q80 0 84 86 6 128-70 115t-96-31h-86q-31 0-31 30v287q0 31 31 31h325q31 0 31-31v-57q0-31-31-31H242v-117q45 23 166.5 11T530 1044zm590 443h78q39 0 21-31L391 31Q373 0 350 0h-78q-39 0-20 31l827 1425q18 31 41 31zm273-1304q0-71-50.5-127T1212 0h-51q-80 0-130 57t-50 127 70 133q-70 63-70 135t50 127.5 130 55.5h51q80 0 130.5-56.5T1393 451t-70-134q70-63 70-134zm-203 188q33 0 55.5 21.5t22.5 54-23.5 52T1186 518t-57.5-19.5-22.5-52 22.5-54T1184 371h6zm-4-254q35 0 58.5 19.5t23.5 52-22.5 54T1190 264h-6q-33 0-55.5-21.5t-22.5-54 22.5-52T1186 117z" glyph-name="fiveeighths" horiz-adv-x="1515" unicode="⅝"/><glyph d="M510 1397q0-18-8-35L281 881q-16-29-33-29h-86q-31 0-19 29l219 483H154q-31 0-31 31v61q0 31 31 31h325q31 0 31-31v-59zm590 90h78q39 0 20-31L371 31Q353 0 330 0h-78q-39 0-21 31l828 1425q18 31 41 31zM1192 0h-51q-80 0-130 57t-50 127 69 133q-70 63-70 135t50.5 127.5T1141 635h51q80 0 130-56.5t50-127.5-69-134q69-63 69-134t-50-127-130-56zm-23 371q33 0 55.5 21.5t22.5 54-23.5 52T1165 518t-57.5-19.5-22.5-52 22.5-54T1163 371h6zm-4-254q35 0 58.5 19.5t23.5 52-22.5 54T1169 264h-6q-33 0-55.5-21.5t-22.5-54 22.5-52T1165 117z" glyph-name="seveneighths" horiz-adv-x="1495" unicode="⅞"/><glyph d="M530 1509h91q180 0 291.5-116.5T1042 1096q39-352 9-682-18-205-130-318.5T633-18h-84Q365-18 239 95.5T104 422Q86 942 573 942q176 0 205-12 0 80-9 160t-53 115.5-100 35.5h-86q-63 0-107-39t-44-121v-34q0-31-31-31H137q-31 0-31 31v34q0 186 123 307t301 121zm19-1257h84q31 0 84 32t61 130q12 160-25.5 216T575 687t-172.5-55T379 418q8-166 170-166z" glyph-name="partialdiff" horiz-adv-x="1165" unicode="∂"/><glyph d="M854 1487h221q35 0 21-31l-52-119q111-111 111-319V416q0-199-103.5-312.5T743-10H524q-25 0-65 4l-6-14q-12-31-41-31H190q-33 0-20 31l51 118Q112 207 113 416v602q0 199 103 312.5T524 1444h219l64-2 6 14q14 31 41 31zm-471-469V469l319 733H524q-76 0-108.5-41T383 1018zm360-787q76 0 109 40t33 145v555L563 231h180z" glyph-name="emptyset" horiz-adv-x="1267" unicode="∅"/><glyph d="M901 963q29 0 29-31V31q0-31-31-31H690q-31 0-31 31v661H393V31q0-31-31-31H154q-31 0-31 31v901q0 31 31 31h747z" glyph-name="product" horiz-adv-x="1052" unicode="∏"/><glyph d="M123 1456q0 31 31 31h813q31 0 30-33v-207q0-31-30-30H578l311-404q29-37 29-49v-43q0-16-29-49L578 272l389-2q31 0 30-30l-2-209q0-31-28-31H154q-31 0-31 31v106q0 18 31 58l430 546-430 551q-31 39-31 58v106z" glyph-name="summation" horiz-adv-x="1120" unicode="∑"/><glyph d="M901 723q29 0 29-31V483q0-31-31-30H154q-31 0-31 30v209q0 31 31 31h747z" glyph-name="minus" horiz-adv-x="1052" unicode="−"/><glyph d="M129 688h205q25 0 37-33l98-321 350 1120q12 33 37 33h229q37 0 25-33L639 33Q629 0 600 0H365q-27 0-39 33L104 655q-12 33 25 33z" glyph-name="radical" horiz-adv-x="1214" unicode="√"/><glyph d="M1260 963q156 0 264-101.5T1632 586v-62q0-172-108.5-273T1260 150h-76q-88 0-173 68.5T868 383q-55-96-140-164.5T551 150h-76q-152 0-262.5 102T102 524v62q0 172 111 274.5T475 963h76q92 0 177-69t140-165q57 96 142.5 165t173.5 69h76zM680 539v32q0 51-33 86t-96 35h-62q-57 0-87.5-35.5T371 571v-32q0-47 30.5-84t87.5-37h62q63 0 96 35t33 86zm686 0v32q0 51-28.5 86t-92.5 35h-61q-59 0-94-35.5t-35-85.5v-32q0-49 34.5-85t94.5-36h61q61 0 91 36t30 85z" glyph-name="infinity" horiz-adv-x="1734" unicode="∞"/><glyph d="M862 1487q31 0 31-31v-209q0-31-31-30h-18q-115 0-163-37t-48-152V-25q0-174-91-279.5T299-410H133q-31 0-31 31v209q0 31 31 31h19q115 0 162.5 36.5T362 49v1053q0 174 91.5 279.5T696 1487h166z" glyph-name="integral" horiz-adv-x="995" unicode="∫"/><glyph d="M1051 674q14-20-21-45-106-72-243.5-84.5T550 586q-182 99-331-6-16-10-35 16l-78 154q-12 25 21 45 106 74 247.5 86.5T610 838q171-101 328 6 23 14 35-17zm0-398q14-23-21-45-106-72-243.5-84T539 195q-160 96-320-13-18-12-35 17l-78 153q-12 25 21 45 106 72 246.5 85.5T609 440q173-101 329 6 23 14 35-16z" glyph-name="approxequal" horiz-adv-x="1157" unicode="≈"/><glyph d="M961 1380q35 0 20-30L780 887h49q31 0 31-31V672q0-31-31-31H672l-31-72h188q31 0 31-30V354q0-31-31-30H535L338-127q-12-31-41-31H76q-33 0-21 31l197 451h-45q-31 0-31 30v185q0 31 31 30h151l31 72H207q-31 0-31 31v184q0 31 31 31h291l200 463q14 31 41 30h222z" glyph-name="notequal" horiz-adv-x="1036" unicode="≠"/><glyph d="M860 965q0-41-20-50L506 758l334-158q20-8 20-49V334q0-12-9-17.5t-24 .5L162 653q-39 18-39 104.5T162 862l665 336q14 6 23.5 1t9.5-17V965zM156 270h673q31 0 31-30V31q0-31-31-31H158q-31 0-31 31v209q0 30 29 30z" glyph-name="lessequal" horiz-adv-x="983" unicode="≤"/><glyph d="M123 965v217q0 12 9 17t24-1l665-336q39-18 39-104t-39-105L156 317q-14-6-23.5-.5T123 334v217q0 41 20 49l334 158-334 157q-20 9-20 50zm704-695q29 0 29-30V31q0-31-31-31H154q-31 0-31 31v209q0 31 31 30h673z" glyph-name="greaterequal" horiz-adv-x="983" unicode="≥"/><glyph d="M498 0h-64q-27 0-39 33L84 807q-4 12 0 24l311 775q10 33 39 32h64q27 0 39-32l311-775q4-12 0-24L537 33Q527 0 498 0zm120 815q6 6 0 14l-151 367-154-367q-6-10 0-14l152-369z" glyph-name="lozenge" horiz-adv-x="931" unicode="◊"/><glyph d="M158 1403q0 31 30 31h203q31 0 31-31v-195q0-31-31-30H188q-31 0-30 30v195zm6-410q0 31 31 31h202q31 0 31-31V31q0-31-31-31H195q-31 0-31 31v962z" glyph-name="i.aalt" horiz-adv-x="591"/><glyph d="M743 1444q205 0 308.5-113.5T1155 1018V416q0-199-103.5-312.5T743-10H524q-205 0-308 113.5T113 416v602q0 199 103 312.5T524 1444h219zM885 416v602q0 102-33 143t-109 41H524q-76 0-108.5-41T383 1018V416q0-104 33-144.5T524 231h219q76 0 109 40.5T885 416zM535 911q0 43 43 43h114q43 0 43-43V522q0-43-43-43H578q-43 0-43 43v389z" glyph-name="zero.oldstyle.case" horiz-adv-x="1267"/><glyph d="M639 1434q31 0 31-31V31q0-31-31-31H436q-31 0-30 31v1011l-64-61q-6-10-20.5-10T297 981l-145 147q-18 16 2 41l256 254q9 9 26 11h203z" glyph-name="one.oldstyle.case" horiz-adv-x="956"/><glyph d="M1077 236q31 0 31-31V31q0-31-31-31H123Q92 0 92 31q0 152 10.5 245t40 184 90 147.5T391 696l324 111q96 33 116.5 73T852 985v76q0 141-141 141H524q-70 0-104.5-36T381 1040q-4-43-45-43H152q-45 0-41 43 10 193 113.5 298.5T524 1444h187q201 0 306-107.5t105-275.5q0-229-56-323.5T831 586l-280-92q-102-33-138-91.5T377 236h700z" glyph-name="two.oldstyle.case" horiz-adv-x="1214"/><glyph d="M1110 391q0-176-103.5-288.5T698-10H502Q307-10 204.5 95.5T92 393q-2 43 41 43h184q43 0 45-43 4-92 37-126t103-34h196q76 0 109 39t33 145-31 151.5T670 616H518q-31 0-31 31v178q0 31 31 31h152q103 4 124 48t21 112v39q0 80-32.5 112.5T674 1200H528q-70 0-102.5-35T389 1040q-4-43-45-43H160q-45 0-41 43 10 193 112.5 298.5T528 1444h146q203 0 307-107.5t104-272.5-53-228.5T860 739q127-37 188.5-104.5T1110 391z" glyph-name="three.oldstyle.case" horiz-adv-x="1202"/><glyph d="M655 602v203q0 31 31 31h209q31 0 31-31V602h94q31 0 31-31V397q0-31-31-30h-94V31q0-31-31-31H686q-31 0-31 31v336H127q-27 0-33 20l-18 59q-8 27 4 54l461 911q12 23 41 23h219q41 0 20-41L426 602h229z" glyph-name="four.oldstyle.case" horiz-adv-x="1142"/><glyph d="M698 944q412 0 412-506 0-215-102.5-331.5T698-10H504Q305-10 203.5 95.5T92 393q-2 43 41 43h184q43 0 45-43 4-92 37-126t105-34h194q78 0 110 43t32 162q0 270-142 271H582q-137 0-220-97H135q-31 0-31 31v39l74 721q2 31 31 31h782q31 0 31-31v-174q0-31-31-31H408l-31-309q96 59 205 55h116z" glyph-name="five.oldstyle.case" horiz-adv-x="1212"/><glyph d="M772 893q203 0 306.5-113.5T1182 465q0-475-412-475H516q-221 0-317.5 147.5T102 668q0 510 129.5 643T600 1444h84q246 0 354.5-90t112.5-277q0-31-31-30H913q-29 0-30 30-2 76-50.5 103.5T684 1208h-80q-68 0-102.5-9t-76.5-60-46-293q84 47 182 47h211zm-2-660q76 0 108.5 52.5T911 444t-35.5 165T772 668H512q-82 0-110.5-35T373 471t32.5-182.5T516 233h254z" glyph-name="six.oldstyle.case" horiz-adv-x="1284"/><glyph d="M1063 1255q0-31-8-47-274-365-418.5-618.5T424 35q-8-35-43-35H190q-16 0-24 13.5T162 43q68 303 203 558t378 585H123q-31 0-31 31v186q0 31 31 31h909q31 0 31-31v-148z" glyph-name="seven.oldstyle.case" horiz-adv-x="1155"/><glyph d="M1225 455q0-229-109.5-347T807-10H508q-199 0-307.5 117.5T92 468t205 347q-78 47-101.5 110.5T172 1098q0 346 420 346h129q424 0 424-346 0-170-127-281 207-104 207-362zm-633 782q-111 0-148.5-41T406 1070t37.5-132T588 891h137q106 0 145 47t39 133-37.5 126-150.5 40H592zM782 221q94 0 135 52.5T958 444t-25.5 164.5-71.5 64T743 690H571q-135 0-174-58t-39-182 41-176.5T532 221h250z" glyph-name="eight.oldstyle.case" horiz-adv-x="1316"/><glyph d="M514 541q-203 0-307.5 113.5T102 969q0 475 414 475h254q219 0 315.5-147.5T1182 766q0-211-18.5-344t-72-237.5T940 35 686-10h-86q-248 0-354.5 90T135 356q0 31 31 31h205q27 0 30-31 4-78 51.5-104.5T600 225h80q90 0 155 32.5T907 588q-90-47-184-47H514zm2 659q-76 0-109.5-52T373 990t36.5-165T514 766h258q82 0 111.5 35T913 962t-32.5 182-110.5 56H516z" glyph-name="nine.oldstyle.case" horiz-adv-x="1284"/><glyph d="M600 969q154 0 260.5-106.5T967 602V356q0-154-106.5-258T600-6H479Q325-6 219 98.5T113 356v246q0 154 106.5 260.5T479 969h121zm96-359q0 49-26.5 81T596 723H483q-47 0-73.5-32T383 610V346q0-47 26.5-76.5T483 240h113q47 0 73.5 29.5T696 346v264z" glyph-name="zero.oldstyle" horiz-adv-x="1079"/><glyph d="M700 295q31 0 31-31V31q0-31-31-31H225q-31 0-30 31v233q0 31 30 31h150v276l-64-61q-6-10-20.5-10T266 510L121 657q-18 16 2 41l256 254q9 9 27 11h208q31 0 31-31V295h55z" glyph-name="one.oldstyle" horiz-adv-x="892"/><glyph d="M709 609v18q0 94-109 94h-84q-59 0-89-31t-30-61v-8q0-31-30-31H158q-31 0-31 31v8q0 139 109.5 238.5T506 967h88q158 0 271.5-99.5T979 622t-69.5-207T639 330l-166-21q-51-4-51-63h520q31 0 31-31V31q0-31-31-31H137q-31 0-31 31 0 285 73.5 386T414 543l194 26q95 11 98 25t3 15z" glyph-name="two.oldstyle" horiz-adv-x="1095"/><glyph d="M1110-160q0-176-103.5-288.5T698-561H502q-195 0-297.5 105.5T92-158q-2 43 41 43h184q43 0 45-43 4-92 37-125.5T502-317h196q76 0 109 38.5T840-134 809 17.5 670 66H518q-31 0-31 30v178q0 31 31 31h152q103 4 124 48.5T815 466v38q0 80-32.5 112.5T674 649H528q-70 0-102.5-34.5T389 489q-4-43-45-43H160q-45 0-41 43 10 193 112.5 298.5T528 893h146q203 0 307-107.5T1085 513t-53-228.5T860 188q127-37 188.5-104.5T1110-160z" glyph-name="three.oldstyle" horiz-adv-x="1148"/><glyph d="M655 123v203q0 31 31 30h209q31 0 31-30V123h94q31 0 31-31V-82q0-31-31-31h-94v-336q0-31-31-30H686q-31 0-31 30v336H127q-27 0-33 21L76-33q-8 27 4 53l461 912q12 23 41 22h219q41 0 20-41L426 123h229z" glyph-name="four.oldstyle" horiz-adv-x="1128"/><glyph d="M698 422q412 0 412-506 0-215-102.5-331.5T698-532H504q-199 0-300.5 105T92-129q-2 43 41 43h184q43 0 45-43 4-92 37-126t105-34h194q78 0 110 43t32 162q0 270-142 270H582q-137 0-220-96H135q-31 0-31 31v39l74 721q2 31 31 30h782q31 0 31-30V707q0-31-31-31H408l-31-309q96 59 205 55h116z" glyph-name="five.oldstyle" horiz-adv-x="1159"/><glyph d="M772 893q203 0 306.5-113.5T1182 465q0-475-412-475H516q-221 0-317.5 147.5T102 668q0 510 129.5 643T600 1444h84q246 0 354.5-90t112.5-277q0-31-31-30H913q-29 0-30 30-2 76-50.5 103.5T684 1208h-80q-68 0-102.5-9t-76.5-60-46-293q84 47 182 47h211zm-2-660q76 0 108.5 52.5T911 444t-35.5 165T772 668H512q-82 0-110.5-35T373 471t32.5-182.5T516 233h254z" glyph-name="six.oldstyle" horiz-adv-x="1284"/><glyph d="M1063 731q0-31-8-47Q781 319 636.5 65.5T424-489q-8-35-43-35H190q-16 0-24 13t-4 30q68 303 203 558t378 585H123q-31 0-31 30v187q0 31 31 30h909q31 0 31-30V731z" glyph-name="seven.oldstyle" horiz-adv-x="1165"/><glyph d="M1225 455q0-229-109.5-347T807-10H508q-199 0-307.5 117.5T92 468t205 347q-78 47-101.5 110.5T172 1098q0 346 420 346h129q424 0 424-346 0-170-127-281 207-104 207-362zm-633 782q-111 0-148.5-41T406 1070t37.5-132T588 891h137q106 0 145 47t39 133-37.5 126-150.5 40H592zM782 221q94 0 135 52.5T958 444t-25.5 164.5-71.5 64T743 690H571q-135 0-174-58t-39-182 41-176.5T532 221h250z" glyph-name="eight.oldstyle" horiz-adv-x="1316"/><glyph d="M514-2Q311-2 206.5 111.5T102 426q0 475 414 475h254q219 0 315.5-147.5T1182 223q0-211-18.5-344t-72-237.5T940-508t-254-45h-86q-248 0-354.5 90T135-186q0 31 31 30h205q27 0 30-30 4-78 51.5-104.5T600-317h80q90 0 155 32.5T907 45Q817-2 723-2H514zm2 659q-76 0-109.5-52.5T373 448t36.5-164.5T514 223h258q82 0 111.5 34.5T913 418t-32.5 182.5T770 657H516z" glyph-name="nine.oldstyle" horiz-adv-x="1165"/><glyph d="M860 1444q205 0 308.5-113.5T1272 1018V416q0-199-103.5-312.5T860-10H641q-205 0-308.5 113.5T229 416v602q0 199 103.5 312.5T641 1444h219zm141-1028v602q0 102-32.5 143T860 1202H641q-76 0-108.5-41T500 1018V416q0-104 32.5-144.5T641 231h219q76 0 108.5 40.5T1001 416z" glyph-name="zero.tnum" horiz-adv-x="1433"/><glyph d="M831 1434q31 0 31-31V31q0-31-31-31H629q-31 0-31 31v1011l-61-61q-8-10-22.5-10T489 981l-145 147q-18 16 2 41l256 254q9 9 27 11h202z" glyph-name="one.tnum" horiz-adv-x="1433"/><glyph d="M1214 236q31 0 31-31V31q0-31-31-31H260q-31 0-31 31 0 152 10.5 245t40 184 90 147.5T528 696l324 111q96 33 116.5 73T989 985v76q0 141-141 141H662q-70 0-105-36t-39-126q-2-43-45-43H289q-43 0-41 43 10 193 113.5 298.5T662 1444h186q201 0 306.5-107.5T1260 1061q0-229-56.5-323.5T969 586l-281-92q-102-33-138-91.5T514 236h700z" glyph-name="two.tnum" horiz-adv-x="1433"/><glyph d="M1253 391q0-176-103-288.5T842-10H645Q450-10 348 95.5T236 393q-2 43 40 43h185q43 0 45-43 4-92 36.5-126T645 233h197q76 0 108.5 39T983 417t-30.5 151.5T813 616H662q-31 0-31 31v178q0 31 31 31h151q104 4 124.5 48t20.5 112v39q0 80-32.5 112.5T817 1200H672q-70 0-102.5-35T532 1040q-4-43-45-43H303q-45 0-41 43 10 193 112.5 298.5T672 1444h145q203 0 307.5-107.5T1229 1064t-53-228.5-172-96.5q127-37 188-104.5t61-243.5z" glyph-name="three.tnum" horiz-adv-x="1433"/><glyph d="M829 602v203q0 31 31 31h209q31 0 31-31V602h94q31 0 31-31V397q0-31-31-30h-94V31q0-31-31-31H860q-31 0-31 31v336H301q-29 0-33 20l-18 59q-8 27 4 54l461 911q10 23 41 23h219q41 0 20-41L600 602h229z" glyph-name="four.tnum" horiz-adv-x="1433"/><glyph d="M834 944q412 0 411-506 0-215-102.5-331.5T834-10H639Q440-10 339 95.5T227 393q-2 43 41 43h185q43 0 45-43 4-92 36.5-126T639 233h195q78 0 109.5 43T975 438q0 270-141 271H719q-145 0-219-97H272q-31 0-30 31v39l71 721q2 31 31 31h782q31 0 31-31v-174q0-31-31-31H543l-31-309q96 59 207 55h115z" glyph-name="five.tnum" horiz-adv-x="1433"/><glyph d="M907 895q203 0 306.5-113.5T1317 467Q1317-8 905-8H651Q430-8 334 140.5T238 643t43 489.5T410 1357t325 89h84q246 0 354.5-89t112.5-276q0-31-31-30h-206q-29 0-31 30-2 76-50 102.5T819 1210h-80q-68 0-102.5-9t-76.5-60-46-293q78 47 182 47h211zm-2-659q76 0 109 53t33 157-36 164-104 60H647q-82 0-110.5-35T508 474t32.5-182T651 236h254z" glyph-name="six.tnum" horiz-adv-x="1433"/><glyph d="M1196 1255q0-31-8-47-274-365-418.5-618.5T557 35q-8-35-43-35H324q-16 0-24.5 13.5T295 43q68 303 203 558t379 585H256q-31 0-31 31v186q0 31 31 31h909q31 0 31-31v-148z" glyph-name="seven.tnum" horiz-adv-x="1433"/><glyph d="M1354 455q0-229-109.5-347T936-10H637q-199 0-307.5 117.5T221 468t205 347q-78 47-101.5 110.5T301 1098q0 346 420 346h129q424 0 424-346 0-170-127-281 207-104 207-362zm-633 782q-111 0-148.5-41T535 1070t37.5-132T717 891h137q106 0 145 47t39 133-37.5 126-150.5 40H721zM911 221q94 0 135 52.5t41 170.5-25.5 164.5-71.5 64T872 690H700q-135 0-174-58t-39-182 41-176.5T662 221h249z" glyph-name="eight.tnum" horiz-adv-x="1433"/><glyph d="M639 541q-203 0-307.5 113.5T227 969q0 475 414 475h254q219 0 315.5-147.5T1307 766q0-211-18.5-344t-72-237.5T1065 35 811-10h-86q-248 0-354.5 90T260 356q0 31 31 31h205q29 0 30-31 4-78 51.5-104.5T725 225h80q90 0 155 32.5t72 330.5q-90-47-184-47H639zm2 659q-76 0-109.5-52T498 990t36.5-165T639 766h258q82 0 111.5 35t29.5 161-32.5 182-110.5 56H641z" glyph-name="nine.tnum" horiz-adv-x="1433"/><glyph d="M350 635q80 0 130-53.5T530 457V178q0-72-50-125T350 0h-51q-72 0-124 54.5T123 178v279q0 70 52 124t124 54h51zm56-186q0 31-24 50t-58 19-56-19.5-22-49.5V186q0-31 21.5-50t56.5-19 58.5 19.5T406 186v263z" glyph-name="zero.dnom" horiz-adv-x="653"/><glyph d="M246 602q0 31 30 31h66q31 0 31-31V31q0-31-31-31h-66q-31 0-30 31v571z" glyph-name="one.dnom" horiz-adv-x="618"/><glyph d="M532 31q0-31-30-31H158q-31 0-31 31v49q0 30 11 46.5t44 49.5l144 154q4 4 42 38t38 68q0 35-24 58.5T324 518t-56-19.5-22-45.5v-15q0-31-31-30h-61q-31 0-31 30v27q0 68 51 119t125 51h51q80 0 130-60.5T530 448t-33.5-114.5T399 221L295 117l207 4q31 0 30-31V31z" glyph-name="two.dnom" horiz-adv-x="655"/><glyph d="M350 0h-51q-74 0-125 51t-51 119v27q0 31 31 30h61q31 0 31-30v-15q0-27 21.5-46t56.5-19 58.5 19.5 23.5 52-23 54-55 21.5h-47q-31 0-31 31v45q0 31 31 31h47q33 0 55.5 21.5t22.5 54-24 52-58 19.5-56-19.5-22-45.5v-15q0-31-31-30h-61q-31 0-31 30v27q0 68 51 119t125 51h51q80 0 130-56.5T530 451t-69-134q69-63 69-134T480 56 350 0z" glyph-name="three.dnom" horiz-adv-x="653"/><glyph d="M535 242q31 0 30-31v-61q0-31-30-31h-29V31q0-31-31-31h-61q-31 0-31 31v88H160q-29 0-31 31l-6 59q0 8 8 24l217 388q8 14 29 14h98q31 0 31-31V242h29zm-152 4v205L279 246h104z" glyph-name="four.dnom" horiz-adv-x="688"/><glyph d="M530 193q0-78-50-135.5T350 0h-51q-74 0-125 51t-51 119v27q0 31 31 30h61q31 0 31-30v-15q0-27 21.5-46t54.5-19q80 0 84 86 6 128-70 115t-96-31h-86q-31 0-31 30v287q0 31 31 31h325q31 0 31-31v-57q0-31-31-31H242V399q45 23 166.5 11T530 193z" glyph-name="five.dnom" horiz-adv-x="653"/><glyph d="M530 193q0-78-50-135.5T350 0h-51q-70 0-113 48t-53 110-10 194q0 209 113 260 133 61 264-24 23-16 12-41l-12-41q-8-33-41-14-68 45-158 28-55-12-59-67l-2-54q45 23 167.5 11T530 193zm-205-76q81 0 81 95t-81 95-81-95 81-95z" glyph-name="six.dnom" horiz-adv-x="653"/><glyph d="M510 545q0-18-8-35L281 29Q265 0 248 0h-86q-31 0-19 29l219 483H154q-31 0-31 31v61q0 31 31 31h325q31 0 31-31v-59z" glyph-name="seven.dnom" horiz-adv-x="632"/><glyph d="M535 183q0-71-50.5-127T354 0h-51q-80 0-130 57t-50 127 70 133q-70 63-70 135t50 127.5T303 635h51q80 0 130.5-56.5T535 451t-70-134q70-63 70-134zM332 371q33 0 55.5 21.5t22.5 54-24 52-58 19.5-57-19.5-23-52 22.5-54T326 371h6zm-4-254q35 0 58.5 19.5t23.5 52-22.5 54T332 264h-6q-33 0-55.5-21.5t-22.5-54 22.5-52T328 117z" glyph-name="eight.dnom" horiz-adv-x="657"/><glyph d="M123 442q0 78 50 135.5T303 635h51q70 0 113-47.5T520 478t10-195q0-209-112-260-133-61-264 24-23 16-13 41l13 41q8 33 41 14 68-45 157-28 55 12 60 67l2 54q-45-23-168-11T123 442zm206 76q-81 0-81-95t81-95 81 95-81 95z" glyph-name="nine.dnom" horiz-adv-x="653"/><glyph d="M350 1487q80 0 130-53.5t50-124.5v-279q0-72-50-125t-130-53h-51q-72 0-124 54.5T123 1030v279q0 70 52 124t124 54h51zm56-187q0 31-24 50.5t-58 19.5-56-19.5-22-50.5v-262q0-31 21.5-50t56.5-19 58.5 19.5T406 1038v262z" glyph-name="zero.numr" horiz-adv-x="653"/><glyph d="M246 1456q0 31 30 31h66q31 0 31-31V885q0-31-31-31h-66q-31 0-30 31v571z" glyph-name="one.numr" horiz-adv-x="618"/><glyph d="M532 883q0-31-30-31H158q-31 0-31 31v49q0 30 11 46.5t44 49.5l144 154q4 4 42 38t38 68q0 35-24 58.5t-58 23.5-56-19.5-22-45.5v-15q0-31-31-30h-61q-31 0-31 30v27q0 68 51 119t125 51h51q80 0 130-60.5t50-126.5-33.5-114.5T399 1073L295 969l207 4q31 0 30-31v-59z" glyph-name="two.numr" horiz-adv-x="655"/><glyph d="M350 854h-51q-74 0-125 51t-51 119v27q0 31 31 30h61q31 0 31-30v-15q0-27 21.5-46t56.5-19 58.5 19.5 23.5 52-23 54-55 21.5h-47q-31 0-31 31v45q0 31 31 31h47q33 0 55.5 21.5t22.5 54-24 52-58 19.5-56-19.5-22-45.5v-15q0-31-31-30h-61q-31 0-31 30v27q0 68 51 119t125 51h51q80 0 130-56.5t50-127.5-69-134q69-63 69-134t-50-127-130-56z" glyph-name="three.numr" horiz-adv-x="653"/><glyph d="M535 1094q31 0 30-31v-62q0-31-30-30h-29v-88q0-31-31-31h-61q-31 0-31 31v88H160q-29 0-31 30l-6 60q0 8 8 24l217 388q8 14 29 14h98q31 0 31-31v-362h29zm-152 4v205l-104-205h104z" glyph-name="four.numr" horiz-adv-x="688"/><glyph d="M530 1044q0-78-50-135t-130-57h-51q-74 0-125 51t-51 119v27q0 31 31 30h61q31 0 31-30v-15q0-27 21.5-46t54.5-19q80 0 84 86 6 128-70 115t-96-31h-86q-31 0-31 30v287q0 31 31 31h325q31 0 31-31v-57q0-31-31-31H242v-117q45 23 166.5 11T530 1044z" glyph-name="five.numr" horiz-adv-x="653"/><glyph d="M530 1044q0-78-50-135t-130-57h-51q-70 0-113 48t-53 110-10 194q0 209 113 260 133 61 264-24 23-16 12-41l-12-41q-8-33-41-15-68 45-158 29-55-12-59-67l-2-54q45 23 167.5 11T530 1044zm-205-75q81 0 81 95t-81 95-81-95 81-95z" glyph-name="six.numr" horiz-adv-x="653"/><glyph d="M510 1397q0-18-8-35L281 881q-16-29-33-29h-86q-31 0-19 29l219 483H154q-31 0-31 31v61q0 31 31 31h325q31 0 31-31v-59z" glyph-name="seven.numr" horiz-adv-x="632"/><glyph d="M535 1035q0-71-50.5-127T354 852h-51q-80 0-130 57t-50 127 70 133q-70 63-70 134t50 127.5 130 56.5h51q80 0 130.5-56.5T535 1303t-70-134q70-63 70-134zm-203 188q33 0 55.5 21.5t22.5 54-24 52-58 19.5-57-19.5-23-52 22.5-54T326 1223h6zm-4-254q35 0 58.5 19.5t23.5 52-22.5 54T332 1116h-6q-33 0-55.5-21.5t-22.5-54 22.5-52T328 969z" glyph-name="eight.numr" horiz-adv-x="657"/><glyph d="M123 1296q0 78 50 135.5t130 57.5h51q70 0 113-47.5t53-109.5 10-195q0-209-112-260-133-61-264 24-23 16-13 41l13 41q8 33 41 14 68-45 157-28 55 12 60 67l2 54q-45-23-168-11t-123 217zm206 76q-81 0-81-95t81-95 81 95-81 95z" glyph-name="nine.numr" horiz-adv-x="653"/></font>
</defs>
</svg>
