<svg xmlns="http://www.w3.org/2000/svg"><defs><font horiz-adv-x="1040" id="ywftsvg"><font-face ascent="1638" bbox="-407.224 -715.533 2138 1958" cap-height="1434" descent="-410" font-weight="600" panose-1="0 0 7 0 0 0 0 0 0 0" underline-position="0" underline-thickness="0" unicode-range="U+0020-FB02" units-per-em="2048" x-height="1024"/><glyph d="M1038 1024q31 0 31-31V31q0-31-31-31H926q-31 0-31 31v835H389V31q0-31-31-31H246q-31 0-31 31v835H113q-31 0-31 31v96q0 31 31 31h102v113q0 172 83 261t241 89h125q31 0 30-31v-100q0-31-30-31H539q-150 0-150-186v-115h649zm-110 238q-31 0-31 30v111q0 31 31 31h108q31 0 31-31v-111q0-31-31-30H928z" glyph-name="uniFB01" horiz-adv-x="1212" unicode="fi"/><glyph d="M1044 1487V31q0-31-30-31H903q-31 0-31 31v1294H539q-150 0-150-186v-115h254q31 0 31-31v-96q0-31-31-31H389V31q0-31-31-31H246q-31 0-31 31v835H113q-31 0-31 31v96q0 31 31 31h102v113q0 172 83 261t241 89h505z" glyph-name="uniFB02" horiz-adv-x="1167" unicode="fl"/><glyph d="M1270 866h-156V313q0-86 33-121.5t119-37.5q37 0 32-39l-4-84q0-35-41-35-176 2-244.5 78T940 315v551H389V31q0-31-31-31H246q-31 0-31 31v835H113q-31 0-31 31v96q0 31 31 31h102v113q0 172 83 261t241 89h125q31 0 30-31v-100q0-31-30-31H539q-150 0-150-186v-115h551v125q0 31 31 31h112q31 0 31-31v-125h160q29-4 29-31v-96q0-12-7-18-6-13-26-13z" glyph-name="f_t.liga" horiz-adv-x="1384" unicode="ft"/><glyph d="M840 1638V-410H190v2048h650zm-158-137H344v-67h133v-76H342v-68h340v68H547v76h135v67zm-135-264H342v-213h340v70H547v143zm-70-70v-73h-67v73h67zm205-198H342v-68h135v-76H342v-67h205v143h135v68zm0-123h-68V711H342v-70h340v205zm0-250H477V481h70v47h67v-96H410v164h-68V365h340v231zm0-354H342V10h340v232zm-68-68V78H410v96h204zm68-211H342v-67h143l-143-97v-67h340v67H473l143 97h66v67z" glyph-name=".notdef" horiz-adv-x="1024"/><glyph glyph-name="glyph1" horiz-adv-x="0"/><glyph glyph-name="glyph2" horiz-adv-x="681"/><glyph glyph-name="space" horiz-adv-x="614"/><glyph d="M162 1403q0 31 31 31h116q31 0 31-31V453q0-31-31-31H193q-31 0-31 31v950zm-8-1235q0 31 30 31h133q31 0 31-31V31q0-31-31-31H184q-31 0-30 31v137z" glyph-name="exclam" horiz-adv-x="501" unicode="!"/><glyph d="M133 1403q0 31 31 31h112q31 0 31-31V877q0-31-31-31H164q-31 0-31 31v526zm391 0q0 31 31 31h111q31 0 30-31V877q0-31-30-31H555q-31 0-31 31v526z" glyph-name="quotedbl" horiz-adv-x="829" unicode="&quot;"/><glyph d="M1047 928H913V580h134q31 0 30-31v-96q0-31-30-31H913V31q0-31-30-31H766q-31 0-31 31v391H487V31q0-31-30-31H340q-31 0-31 31v391H174q-31 0-31 31v96q0 31 31 31h135v348H174q-31 0-31 30v97q0 31 31 30h135v371q0 31 31 31h117q31 0 30-31v-371h248v371q0 31 31 31h117q31 0 30-31v-371h134q31 0 30-30v-97q1-30-30-30zM735 580v348H487V580h248z" glyph-name="numbersign" horiz-adv-x="1220" unicode="#"/><glyph d="M862 569q0-131-89-198.5T545 293V160q0-31-31-31h-78q-31 0-30 31v133q-133 8-218.5 71.5T94 559q-4 31 31 31h92q29 0 33-29 6-70 45-95.5T406 436v287q-154 25-229 81t-75 187q0 262 304 279v133q0 31 30 31h80q31 0 31-31l-2-133q131-12 215-84t88-209q0-33-29-33h-90q-35 0-35 27-2 84-39 117.5T545 1126V838q160-27 238.5-82.5T862 569zM252 995q0-74 35-99.5T406 858v268q-84-4-119-30.5T252 995zm461-425q0 72-40 98t-128 37V436q80 4 124 33t44 101z" glyph-name="dollar" horiz-adv-x="954" unicode="$"/><glyph d="M297 1487q82 0 135-54.5t53-136.5v-22q0-82-52-135.5T297 1085h-27q-82 0-135 53.5T82 1274v22q0 82 53 136.5t135 54.5h27zm707 0h141q39 0 20-31L338 31Q320 0 297 0H156q-39 0-21 31l828 1425q18 31 41 31zm-654-197q0 61-61 62h-15q-59 0-59-62v-10q0-61 59-61h15q61 0 61 61v10zm670-889q82 0 135-54t53-136v-23q0-82-53-135T1020 0h-27q-84 0-136 53t-52 135v23q0 82 53 136t135 54h27zm53-196q0 61-61 61h-15q-59 0-59-61v-10q0-61 59-62h15q61 0 61 62v10z" glyph-name="percent" horiz-adv-x="1263" unicode="%"/><glyph d="M1356 0h-131q-16 0-37 16l-94 82Q998-31 770-31H483Q92-31 92 332v127q0 94 39 162.5T285 741l39 17-29 26q-82 70-104.5 129.5T168 1067v53q0 150 92 237t287 87h127q193 0 287-87t94-237V958H877v162q0 88-46.5 127T674 1286H547q-111 0-156-39t-45-127v-53q0-78 23.5-123T469 831l512-450v307q0 37 35 37h235q35 0 35-37v-84q0-35-35-35h-92V332q0-57-8-99l223-196q14-12 8-24.5T1356 0zM760 129q164 0 201 82L457 643l-82-35q-55-25-80-59.5T270 453V332q0-119 49.5-161T492 129h268z" glyph-name="ampersand" horiz-adv-x="1476" unicode="&amp;"/><glyph d="M133 1403q0 31 31 31h112q31 0 31-31V877q0-31-31-31H164q-31 0-31 31v526z" glyph-name="quotesingle" horiz-adv-x="440" unicode="'"/><glyph d="M311 279q0-125 45-184.5T504 35h45q31 0 31-31v-117q0-31-31-30h-82q-152 0-243 105.5T133 242v1003q0 174 91 279.5T467 1630h82q31 0 31-31v-116q0-31-31-31h-45q-102 0-147.5-59.5T311 1208V279z" glyph-name="parenleft" horiz-adv-x="712" unicode="("/><glyph d="M401 279v929q0 125-45 184.5T209 1452h-45q-31 0-31 31v116q0 31 31 31h82q152 0 243-105.5t91-279.5V242q0-174-91.5-279.5T246-143h-82q-31 0-31 30V4q0 31 31 31h45q102 0 147 59.5T401 279z" glyph-name="parenright" horiz-adv-x="712" unicode=")"/><glyph d="M467 958q0-27-29-26h-98q-27 0-27 26v132l-94-78q-25-12-39 10l-51 82q-14 25 8 39l127 67-127 66q-25 12-8 39l51 82q14 23 39 10l94-78v131q0 27 27 27h98q29 0 29-27v-131l94 78q27 14 39-10l51-82q16-27-10-39l-125-66 125-67q27-14 10-39l-51-82q-12-25-39-10l-94 78V958z" glyph-name="asterisk" horiz-adv-x="780" unicode="*"/><glyph d="M901 752q29 0 29-31V604q0-31-31-31H618V266q0-31-30-30H471q-31 0-31 30v307H154q-31 0-31 31v117q0 31 31 31h286v303q0 31 31 30h117q31 0 30-30V752h283z" glyph-name="plus" horiz-adv-x="1052" unicode="+"/><glyph d="M268 229q31 0 31-30V31q0-221-100-340-14-16-33-2l-37 30q-18 14-2 37 51 76 51 224l12 20h-88Q71 0 72 31v168q0 31 30 30h166z" glyph-name="comma" horiz-adv-x="370" unicode=","/><glyph d="M154 434q-31 0-31 31v96q0 31 31 31h540q31 0 31-31v-96q0-31-31-31H154z" glyph-name="hyphen" horiz-adv-x="847" unicode="-"/><glyph d="M72 199q0 31 30 30h166q31 0 31-30V31q0-31-31-31H102Q71 0 72 31v168z" glyph-name="period" horiz-adv-x="370" unicode="."/><glyph d="M729 1487h129q35 0 21-31L233-20q-12-31-40-31H63q-33 0-20 31l645 1476q16 31 41 31z" glyph-name="slash" horiz-adv-x="882" unicode="/"/><glyph d="M698 1444q201 0 306.5-111.5T1110 1018V416q0-203-105.5-314.5T698-10H524q-201 0-306 111.5T113 416v602q0 203 105.5 314.5T524 1444h174zM932 416v602q0 141-55.5 202.5T698 1282H524q-125 0-179-61.5T291 1018V416q0-141 54-202.5T524 152h174q123 0 178.5 61.5T932 416z" glyph-name="zero" horiz-adv-x="1222" unicode="0"/><glyph d="M510 1434q31 0 31-31V31q0-31-31-31H397q-31 0-30 31v1140l-88-88q-20-25-46 0l-79 82q-20 20 0 43l217 215q11 11 26 11h113z" glyph-name="one" horiz-adv-x="827" unicode="1"/><glyph d="M1032 160q31 0 31-31V31q0-31-31-31H123Q92 0 92 31q0 331 74 448t219 174l293 115q135 53 175 105.5t40 174.5-55.5 178-178.5 56H522q-119 0-174-57.5T287 1032q0-35-35-35H143q-35 0-34 35 10 199 115.5 305.5T522 1444h137q199 0 305.5-107t106.5-291-73.5-275T733 610l-250-94q-121-45-160.5-134T283 160h749z" glyph-name="two" horiz-adv-x="1163" unicode="2"/><glyph d="M1073 382q0-174-106.5-283T662-10H504Q309-10 204.5 96.5T92 401q0 35 35 35h106q37 0 37-35 6-135 60.5-192T504 152h158q123 0 178 59t55 191-63.5 197T625 668H489q-31 0-30 30v99q0 31 30 30h136q141 4 192 60.5t51 189.5q0 205-233 205H528q-119 0-173-57.5T295 1032q0-35-35-35H152q-35 0-35 35 10 199 114.5 305.5T528 1444h107q197 0 304.5-102.5T1047 1080t-53.5-224T813 750q127-39 193.5-116.5T1073 382z" glyph-name="three" horiz-adv-x="1165" unicode="3"/><glyph d="M694 578v243q0 31 31 31h117q31 0 30-31V578h125q31 0 31-31v-98q0-31-31-31H872V31q0-31-30-31H725q-31 0-31 31v387H129q-27 0-33 20l-18 47q-10 25 4 47l479 879q14 23 41 23h123q41 0 20-39L297 578h397z" glyph-name="four" horiz-adv-x="1120" unicode="4"/><glyph d="M670 936q403 0 403-496 0-219-105.5-334.5T662-10H504Q309-10 204.5 95.5T92 401q0 35 35 35h106q37 0 37-35 6-135 59.5-192T504 152h158q123 0 178 65.5T895 440q0 336-225 336H563q-98 0-146-26t-67.5-40-25-17-22.5-17-19-17H141q-31 0-30 31v39l65 674q4 31 31 31h756q31 0 30-31v-96q0-31-30-31H332l-45-430q131 88 276 90h107z" glyph-name="five" horiz-adv-x="1175" unicode="5"/><glyph d="M719 885q209 0 308-107.5t99-326.5-104-340T717-10H510q-104 0-175 29.5t-152 140T102 676q0 489 118 628.5T571 1444h82q221 0 325.5-94.5T1092 1075q0-31-31-31H944q-27 0-31 31-8 111-66.5 161T653 1286h-80q-166 0-227-99.5T281 795q84 90 247 90h191zm-2-733q121 0 176 73.5T948 449q0 283-229 282H510q-119 0-173-47t-54-156q0-203 53-289.5T510 152h207z" glyph-name="six" horiz-adv-x="1228" unicode="6"/><glyph d="M1051 1319q0-31-9-47-274-332-436-611.5T354 35Q342 0 311 0H203q-14 0-20.5 14.5T180 43q88 338 249 626.5T844 1270H123q-31 0-31 30v103q0 31 31 31h897q31 0 31-31v-84z" glyph-name="seven" horiz-adv-x="1142" unicode="7"/><glyph d="M688 1444q397 0 397-358 0-180-137-267 209-100 209-370 0-229-111.5-344T727-10H520q-205 0-316.5 114.5T92 449q0 272 211 368-139 76-139 283 0 344 395 344h129zm-129-144q-131 0-182-51t-51-161 49-163 180-53h137q133 0 181.5 53t48.5 163-51.5 161-182.5 51H559zM719 147q131 0 196.5 69.5T981 440t-60.5 223.5T711 733H539q-150 0-210.5-69.5T268 440t65.5-223.5T530 147h189z" glyph-name="eight" horiz-adv-x="1249" unicode="8"/><glyph d="M510 549q-209 0-308.5 107.5T102 983t104.5 340T512 1444h207q104 0 176-30t151.5-139.5T1126 758q0-160-15.5-344T993 110 657-10h-82q-221 0-325.5 94T137 358q0 31 31 31h117q27 0 30-31 8-111 66.5-161T575 147h80q166 0 227.5 99.5T948 639q-84-90-248-90H510zm2 733q-121 0-176-73.5T281 985q0-283 229-283h209q119 0 173 47.5T946 905q0 203-53 290t-174 87H512z" glyph-name="nine" horiz-adv-x="1228" unicode="9"/><glyph d="M154 932q0 31 30 31h166q31 0 31-31V756q0-31-31-31H184q-31 0-30 31v176zm0-725q0 31 30 31h166q31 0 31-31V31q0-31-31-31H184q-31 0-30 31v176z" glyph-name="colon" horiz-adv-x="534" unicode=":"/><glyph d="M154 932q0 31 30 31h166q31 0 31-31V756q0-31-31-31H184q-31 0-30 31v176zM184 0q-31 0-30 31v198q0 31 30 31h166q31 0 31-33 2-57 0-232t-86-276q-14-20-35-10l-53 35q-33 12-12 39 59 70 51 203l12 14h-74z" glyph-name="semicolon" horiz-adv-x="536" unicode=";"/><glyph d="M860 782q0-37-20-49L383 483l457-250q20-12 20-49V59q0-12-9-17t-24 1L150 416q-27 16-27 67.5t27 67.5l677 373q14 6 23.5 1t9.5-18V782z" glyph-name="less" horiz-adv-x="983" unicode="&lt;"/><glyph d="M154 719q-31 0-31 31v106q0 31 31 31h622q31 0 31-31V750q0-31-31-31H154zm0-326q-31 0-31 31v108q0 31 31 31h622q31 0 31-31V424q0-31-31-31H154z" glyph-name="equal" horiz-adv-x="929" unicode="="/><glyph d="M123 782v125q0 12 9 17.5t24-.5l678-373q27-16 26.5-67.5T834 416L156 43q-14-6-23.5-1T123 59v125q0 37 20 49l457 250-457 250q-20 12-20 49z" glyph-name="greater" horiz-adv-x="983" unicode="&gt;"/><glyph d="M573 1513q408 0 408-426 0-133-30.5-183t-48-72.5-60-47T710 723q-89-37-121-63.5T557 573V455q0-31-31-31H412q-31 0-31 31v137q0 109 51 163t171 102 160 89.5 40 161.5-51.5 176.5T573 1341h-94q-117 0-169-50t-58-175q0-35-35-35H106q-35 0-34 37 18 395 407 395h94zM373 168q0 31 30 31h134q31 0 30-31V31q0-31-30-31H403q-31 0-30 31v137z" glyph-name="question" horiz-adv-x="1052" unicode="?"/><glyph d="M358 547q0 252 277 252h186v12q0 111-28.5 147.5T682 995h-35q-59 0-93-15t-68-44-52-6l-49 55q-18 20-2 41 57 59 115.5 88t148.5 29h47q141 0 211-79t70-255V477q0-45 40-45t40 45v490q0 176-81 252.5T721 1296h-94q-178 0-261-77.5T283 954V483q0-186 84-273t254-87h63q88 0 166 47 37 23 37-16V51q0-27-23-37-88-41-180-41h-63q-242 0-370 127T123 473v481q0 492 504 492h94q238 0 365.5-121T1214 967V463q0-82-38.5-131T1063 283h-62q-45 0-78.5 29.5T874 385q-86-106-219-106h-37q-260 0-260 268zm299-125q111 0 164 127v108H631q-66 0-92.5-25.5T512 540t25.5-94 85.5-24h34z" glyph-name="at" horiz-adv-x="1337" unicode="@"/><glyph d="M1057 0H932q-29 0-37 33l-88 307H340L252 33q-8-33-37-33H90Q53 0 66 33l417 1368q10 33 39 33h103q29 0 39-33L1081 33q12-33-24-33zM385 498h377l-191 655z" glyph-name="A" horiz-adv-x="1146" unicode="A"/><glyph d="M1077 379q0-197-102.5-288T666 0H164q-31 0-31 31v1372q0 31 31 31h498q184 0 271-90.5t87-280T918 776q160-92 159-311v-86zm-235 679q0 130-37 172t-143 42H311V834h351q104 0 142 47t38 177zm57-679v86q0 131-52 176t-181 45H311V162h355q129 0 181 44t52 173z" glyph-name="B" horiz-adv-x="1159" unicode="B"/><glyph d="M1059 436q35 0 35-35-10-201-113.5-306T682-10H524q-201 0-306 111.5T113 416v602q0 203 105.5 314.5T524 1444h158q195 0 298-105.5t114-306.5q0-35-35-35H952q-37 0-37 35-6 135-60 192.5T682 1282H524q-125 0-179-61.5T291 1018V416q0-141 54-202.5T524 152h158q119 0 173 57t60 192q0 35 37 35h107z" glyph-name="C" horiz-adv-x="1196" unicode="C"/><glyph d="M676 1434q195 0 298-105.5t103-300.5V406q0-195-103.5-300.5T676 0H164q-31 0-31 31v1372q0 31 31 31h512zM899 406v622q0 131-52 187.5T676 1272H311V162h365q119 0 171 56.5T899 406z" glyph-name="D" horiz-adv-x="1169" unicode="D"/><glyph d="M928 1272H311V784h471q31 0 31-30V653q0-31-31-30H311V162h627q31 0 31-31V31q0-31-31-31H164q-31 0-31 31v1372q0 31 31 31h764q31 0 30-31v-100q1-31-30-31z" glyph-name="E" horiz-adv-x="1050" unicode="E"/><glyph d="M311 1272V784h467q31 0 31-30V653q0-31-31-30H311V31q0-31-30-31H164q-31 0-31 31v1372q0 31 31 31h764q31 0 30-31v-100q0-31-30-31H311z" glyph-name="F" horiz-adv-x="1030" unicode="F"/><glyph d="M1059 764q35 0 35-35V416q0-203-105.5-314.5T682-10H524q-201 0-306 111.5T113 416v602q0 203 105.5 314.5T524 1444h158q193 0 297-103.5t115-293.5q0-35-35-35H952q-37 0-37 35-6 125-61 180t-172 55H524q-125 0-179-61.5T291 1018V416q0-141 54-202.5T524 152h158q125 0 179 61t54 203v194H727q-35 0-35 35v84q0 35 35 35h332z" glyph-name="G" horiz-adv-x="1196" unicode="G"/><glyph d="M1022 1434q31 0 31-31V31q0-31-31-31H905q-31 0-31 31v592H311V31q0-31-30-31H164q-31 0-31 31v1372q0 31 31 31h117q31 0 30-31V784h563v619q0 31 31 31h117z" glyph-name="H" horiz-adv-x="1185" unicode="H"/><glyph d="M133 1403q0 31 31 31h119q31 0 30-31V31q0-31-30-31H164q-31 0-31 31v1372z" glyph-name="I" horiz-adv-x="446" unicode="I"/><glyph d="M690 457v946q0 31 31 31h117q31 0 30-31V446q0-199-127-329.5T410-14 82 106q-18 16 2 41l82 76q18 23 43-2 82-71 210-71t199.5 88T690 457z" glyph-name="J" horiz-adv-x="1001" unicode="J"/><glyph d="M1073 0H940q-37 0-55 29L436 655 311 498V31q0-31-30-31H164q-31 0-31 31v1372q0 31 31 31h117q31 0 30-31V741l508 662q20 31 49 31h133q18 0 22.5-14.5t-7.5-33.5L557 799l528-750q16-22 8-35.5T1073 0z" glyph-name="K" horiz-adv-x="1165" unicode="K"/><glyph d="M874 162q31 0 31-31V31q0-31-31-31H164q-31 0-31 31v1372q0 31 31 31h117q31 0 30-31V162h563z" glyph-name="L" horiz-adv-x="997" unicode="L"/><glyph d="M1325 1434q31 0 31-31V31q0-31-31-31h-117q-31 0-30 31v1145L838 31Q828 0 799 0H690q-31 0-39 31L311 1176V31q0-31-30-31H164q-31 0-31 31v1372q0 31 31 31h203q31 0 41-31L743 301l340 1102q10 31 41 31h201z" glyph-name="M" horiz-adv-x="1488" unicode="M"/><glyph d="M1061 1434q31 0 31-31V31q0-31-31-31H881q-25 0-37 23L311 1174V31q0-31-30-31H164q-31 0-31 31v1372q0 31 31 31h180q25 0 37-23L913 262v1141q0 31 31 31h117z" glyph-name="N" horiz-adv-x="1224" unicode="N"/><glyph d="M698 1444q201 0 306.5-111.5T1110 1018V416q0-203-105.5-314.5T698-10H524q-201 0-306 111.5T113 416v602q0 203 105.5 314.5T524 1444h174zM932 416v602q0 141-55.5 202.5T698 1282H524q-125 0-179-61.5T291 1018V416q0-141 54-202.5T524 152h174q123 0 178.5 61.5T932 416z" glyph-name="O" horiz-adv-x="1222" unicode="O"/><glyph d="M662 1434q199 0 302-106.5t103-303.5V901q0-197-103.5-303T662 492H311V31q0-31-30-31H164q-31 0-31 31v1372q0 31 31 31h498zm227-533v123q0 135-53.5 191.5T662 1272H311V653h351q121 0 174 56.5T889 901z" glyph-name="P" horiz-adv-x="1138" unicode="P"/><glyph d="M698 1444q201 0 306.5-111.5T1110 1018V416q0-201-105.5-312.5T700-10v-150q0-31-30-33H553q-31 0-31 31v152q-199 0-304 111.5T113 416v602q0 203 105.5 314.5T524 1444h174zM932 416v602q0 141-55.5 202.5T698 1282H524q-125 0-179-61.5T291 1018V416q0-141 54-202.5T524 152h174q123 0 178.5 61.5T932 416z" glyph-name="Q" horiz-adv-x="1222" unicode="Q"/><glyph d="M1075 0H961q-33 0-41 27L713 494q-16-2-51-2H311V31q0-31-30-31H164q-31 0-31 31v1372q0 31 31 31h498q199 0 302-106.5t103-303.5V901q0-270-186-362l223-498q16-41-29-41zM311 653h351q121 0 174 56.5T889 901v123q0 135-53.5 191.5T662 1272H311V653z" glyph-name="R" horiz-adv-x="1189" unicode="R"/><glyph d="M676-10H514Q324-10 218.5 92.5T102 381q0 35 35 35h109q35 0 35-35 6-121 61-175t172-54h162q125 0 179 58t54 197-85 189q-46 27-82.5 38T631 662l-103 20q-205 41-307 125t-102 264q0 373 413 373h111q186 0 289.5-101.5T1047 1059q0-35-35-35H903q-35 0-35 35-6 119-59 171t-166 52H532q-127 0-181-44t-54-164 50-161 185-67l103-21q98-20 166.5-43.5T942 712q145-93 145-298T982 99.5 676-10z" glyph-name="S" horiz-adv-x="1189" unicode="S"/><glyph d="M940 1434q31 0 31-31v-100q0-31-31-31H616V31q0-31-30-31H469q-31 0-31 31v1241H113q-31 0-31 31v100q0 31 31 31h827z" glyph-name="T" horiz-adv-x="1052" unicode="T"/><glyph d="M1094 1434q37 0 36-35V416q0-205-104-315.5T719-10H545q-203 0-307.5 110.5T133 416v983q0 35 35 35h108q35 0 35-35V416q0-137 56.5-200.5T545 152h174q121 0 177 63.5T952 416v983q0 35 35 35h107z" glyph-name="U" horiz-adv-x="1263" unicode="U"/><glyph d="M100 1434h125q29 0 37-33L582 281l323 1120q8 33 37 33h125q37 0 25-33L674 33Q664 0 635 0H532q-29 0-38 33L76 1401q-12 33 24 33z" glyph-name="V" horiz-adv-x="1167" unicode="V"/><glyph d="M1753 1434q33 0 27-31L1452 31q-8-31-39-31h-100q-31 0-39 31L926 1143 580 31Q570 0 541 0H438q-31 0-39 31L74 1403q-6 31 24 31h127q31 0 37-31L502 313l332 1090q10 31 38 31h109q31 0 39-31l332-1090 239 1090q2 31 35 31h127z" glyph-name="W" horiz-adv-x="1853" unicode="W"/><glyph d="M999 0H870q-25 0-41 29L553 543 279 29Q263 0 238 0H109Q72 0 88 29l375 688-375 688q-16 29 21 29h129q25 0 41-29l274-514 276 514q16 29 41 29h129q37 0 21-29L645 717l375-688q16-29-21-29z" glyph-name="X" horiz-adv-x="1107" unicode="X"/><glyph d="M1081 1434q39 0 21-31L674 616V31q0-31-31-31H526q-31 0-30 31v585L68 1403q-18 31 20 31h133q23 0 41-31l322-604 323 604q14 31 41 31h133z" glyph-name="Y" horiz-adv-x="1169" unicode="Y"/><glyph d="M952 1329q0-18-6-29L299 166h623q31 0 30-31V31q0-31-30-31H123Q92 0 92 31v75q0 18 6 27l647 1135H125q-31 0-31 30v105q0 31 31 31h797q31 0 30-31v-74z" glyph-name="Z" horiz-adv-x="1044" unicode="Z"/><glyph d="M487 1452H311V35h176q31 0 31-31v-117q0-31-31-30H164q-31 0-31 30v1712q0 31 31 31h323q31 0 31-31v-116q0-31-31-31z" glyph-name="bracketleft" horiz-adv-x="651" unicode="["/><glyph d="M795 0H666q-27 0-41 31L2 1456q-12 31 21 31h129q29 0 41-31L815 31q16-31-20-31z" glyph-name="backslash" horiz-adv-x="860" unicode="\"/><glyph d="M487 1630q31 0 31-31V-113q0-31-31-30H164q-31 0-31 30V4q0 31 31 31h176v1417H164q-31 0-31 31v116q0 31 31 31h323z" glyph-name="bracketright" horiz-adv-x="651" unicode="]"/><glyph d="M729 932H600q-27 0-41 31l-131 288-133-288q-12-31-41-31H125q-33 0-21 31l236 493q14 31 41 31h92q27 0 41-31l236-493q16-31-21-31z" glyph-name="asciicircum" horiz-adv-x="856" unicode="^"/><glyph d="M133 0q-31 0-31 31v98q0 31 31 31h930q31 0 31-31V31q0-31-31-31H133z" glyph-name="underscore" horiz-adv-x="1196" unicode="_"/><glyph d="M440 1124H340q-18 0-45 37l-184 236q-12 16-5 26.5t25 10.5h158q25 0 43-37l129-236q10-16 4-26.5t-25-10.5z" glyph-name="grave" horiz-adv-x="569" unicode="`"/><glyph d="M903 0H766q-33 0-33 49v94Q635-11 473-10h-76q-143 0-229 82T82 303q0 297 311 297h340v76q0 117-40 157.5T543 874h-49q-143 0-242-51-45-16-57 15l-35 71q-14 29 12 45 123 78 322 78h49q186 0 274-88t88-274V49q0-15 4-32t-6-17zM496 150q176 0 237 151v158H397q-143 0-143-155t143-154h99z" glyph-name="a" horiz-adv-x="1034" unicode="a"/><glyph d="M594 1032q164 0 262-101.5T954 659V360q0-166-98-268T594-10h-62q-164 0-235 133V31q0-31-31-31H154q-31 0-31 31v1372q0 31 31 31h112q31 0 31-31V909q68 123 235 123h62zm186-688v332q0 199-188 198H485q-188 0-188-198V344q0-96 49-145t139-49h107q90 0 139 49t49 145z" glyph-name="b" horiz-adv-x="1046" unicode="b"/><glyph d="M754 692q-31 0-37 35-27 145-172 145h-84q-190 0-191-198V338q0-92 49.5-140T461 150h84q101 0 151 48 18 18 52 56 20 23 49 4l67-49q25-16 6-43-49-59-78.5-89t-95-58.5T545-10h-84Q295-10 193.5 96.5T92 367v292q0 168 100.5 269.5T461 1030h84q129 0 227-83t119-218q2-37-33-37H754z" glyph-name="c" horiz-adv-x="974" unicode="c"/><glyph d="M893 1434q31 0 31-31V31q0-31-31-31H780q-31 0-30 31v94Q682-10 514-10h-61Q289-10 190.5 92.5T92 360v299q0 170 98.5 271.5T453 1032h61q170 0 236-125v496q0 31 30 31h113zM561 150q90 0 139.5 49T750 344v332q0 199-189 198H455q-188 0-189-198V344q0-96 49.5-145T455 150h106z" glyph-name="d" horiz-adv-x="1046" unicode="d"/><glyph d="M545 1032q145 0 248.5-102.5T897 662V506q0-63-66-64H270V338q0-92 49.5-140T461 150h84q86 0 126 21.5t85 76.5q18 23 45 4l59-41q27-18 8-43-49-61-78.5-90t-95-58.5T545-10h-84Q295-10 193.5 96.5T92 367v292q0 170 100.5 271.5T461 1032h84zm176-448v92q0 98-48 148t-128 50h-84q-190 0-191-200v-90h451z" glyph-name="e" horiz-adv-x="989" unicode="e"/><glyph d="M664 1487q31 0 30-31v-100q0-31-30-31H539q-150 0-150-186v-115h254q31 0 31-31v-96q0-31-31-31H389V31q0-31-31-31H246q-31 0-31 31v835H113q-31 0-31 31v96q0 31 31 31h102v113q0 172 83 261t241 89h125z" glyph-name="f" horiz-adv-x="745" unicode="f"/><glyph d="M893 1024q31 0 31-31V-51q0-358-414-359-119 0-197 19-31 4-30 31v96q0 12 9 20t21 6q70-16 197-16t183.5 41T750-53v178Q682-10 514-10h-61Q289-10 190.5 92.5T92 360v299q0 170 98.5 271.5T453 1032h61q170 0 236-125v86q0 31 30 31h113zM561 150q90 0 139.5 49T750 344v332q0 199-189 198H455q-188 0-189-198V344q0-96 49.5-145T455 150h106z" glyph-name="g" horiz-adv-x="1046" unicode="g"/><glyph d="M604 1032q168 0 241-93t73-269V31q0-31-31-31H774q-31 0-31 31v649q0 100-39.5 147T571 874h-30q-90 0-154.5-38.5T297 752V31q0-31-31-31H154q-31 0-31 31v1372q0 31 31 31h112q31 0 31-31V881q98 152 291 151h16z" glyph-name="h" unicode="h"/><glyph d="M145 1403q0 31 31 31h109q31 0 30-31v-111q0-31-30-30H176q-31 0-31 30v111zm-2-410q0 31 31 31h113q31 0 30-31V31q0-31-30-31H174q-31 0-31 31v962z" glyph-name="i" horiz-adv-x="460" unicode="i"/><glyph d="M147 1403q0 31 31 31h109q31 0 30-31v-111q0-31-30-30H178q-31 0-31 30v111zm0-1509V993q0 31 31 31h109q31 0 30-31V-113q0-109-71.5-202T63-442q-27-8-38 20l-43 103q-10 29 18 38 57 20 102 68.5T147-106z" glyph-name="j" horiz-adv-x="460" unicode="j"/><glyph d="M154 1434h112q31 0 31-31V586l410 415q18 23 41 23h129q20 0 26-17.5T891 971L514 588 942 47q12-14 6-30.5T922 0H809q-35 0-55 31L397 473 297 373V31q0-31-31-31H154q-31 0-31 31v1372q0 31 31 31z" glyph-name="k" horiz-adv-x="1021" unicode="k"/><glyph d="M123 1403q0 31 31 31h112q31 0 31-31V31q0-31-31-31H154q-31 0-31 31v1372z" glyph-name="l" horiz-adv-x="419" unicode="l"/><glyph d="M1225 1032q168 0 240.5-93t72.5-269V31q0-31-31-31h-112q-31 0-31 31v649q0 100-40 147t-132 47h-31q-90 0-154.5-38.5T918 752V31q0-31-31-31H774q-31 0-31 31v649q0 100-39.5 147T571 874h-30q-90 0-154.5-38.5T297 752V31q0-31-31-31H154q-31 0-31 31v962q0 31 31 31h112q31 0 31-31V881q98 152 291 151h16q225 0 287-180l27 29q98 152 290 151h17z" glyph-name="m" horiz-adv-x="1660" unicode="m"/><glyph d="M604 1032q168 0 241-93t73-269V31q0-31-31-31H774q-31 0-31 31v649q0 100-39.5 147T571 874h-30q-90 0-154.5-38.5T297 752V31q0-31-31-31H154q-31 0-31 31v962q0 31 31 31h112q31 0 31-31V881q98 152 291 151h16z" glyph-name="n" unicode="n"/><glyph d="M551 1032q166 0 264-101.5T913 659V360q0-168-98-269T551-10h-96Q289-10 190.5 92.5T92 360v299q0 170 98.5 271.5T455 1032h96zm190-688v332q0 199-190 198h-96q-188 0-189-198V344q0-96 49.5-145T455 150h96q90 0 140 49t50 145z" glyph-name="o" horiz-adv-x="1005" unicode="o"/><glyph d="M594 1032q164 0 262-101.5T954 659V360q0-166-98-268T594-10h-62q-168 0-235 135v-504q0-31-31-31H154q-31 0-31 31V993q0 31 31 31h112q31 0 31-31v-86q66 125 235 125h62zm186-688v332q0 199-188 198H485q-188 0-188-198V344q0-96 49-145t139-49h107q90 0 139 49t49 145z" glyph-name="p" horiz-adv-x="1046" unicode="p"/><glyph d="M893 1024q31 0 31-31V-379q0-31-31-31H780q-31 0-30 31v504Q682-10 514-10h-61Q289-10 190.5 92.5T92 360v299q0 170 98.5 271.5T453 1032h61q170 0 236-125v86q0 31 30 31h113zM561 150q90 0 139.5 49T750 344v332q0 199-189 198H455q-188 0-189-198V344q0-96 49.5-145T455 150h106z" glyph-name="q" horiz-adv-x="1046" unicode="q"/><glyph d="M565 874h-24q-90 0-154.5-38.5T297 752V31q0-31-31-31H154q-31 0-31 31v962q0 31 31 31h112q31 0 31-31V881q96 152 307 151 80 0 141-24 29-14 15-47l-43-87q-12-28-53-14t-99 14z" glyph-name="r" horiz-adv-x="817" unicode="r"/><glyph d="M879 295q0-154-96.5-229.5T520-10h-74Q133-10 92 252q-6 31 31 31h106q29 0 41-27 18-55 57.5-82T442 147h84q178 0 179 144 0 82-49.5 110.5T481 442q-197 18-287 86t-90 213.5 92.5 217T446 1030h68q152 0 245-73.5T856 748q0-33-29-33H723q-35 0-43 35-23 125-170 124h-61q-170 0-170-124 0-70 45.5-105T481 598q207-25 302.5-87T879 295z" glyph-name="s" horiz-adv-x="960" unicode="s"/><glyph d="M539 866H381V313q0-86 32.5-121.5T532 154q37 0 33-39l-2-84q-4-35-41-35-176 2-245.5 78T207 315v551H102q-31 0-30 31v94q0 33 30 33h105v125q0 31 31 31h112q31 0 31-31v-125h156q33 0 32-31v-96q1-31-30-31z" glyph-name="t" horiz-adv-x="651" unicode="t"/><glyph d="M436-8Q123-8 123 354v639q0 31 31 31h112q31 0 31-31V344q0-100 40-146t134-46h29q90 0 154.5 37.5T743 272v721q0 31 31 31h113q31 0 31-31V31q0-31-31-31H774q-31 0-31 31v112Q645-9 453-8h-17z" glyph-name="u" unicode="u"/><glyph d="M100 1024h115q27 0 37-35 119-391 231-778 125 434 234 778 10 35 37 35h112q37 0 25-35L575 39Q563 0 528 0h-90q-31 0-47 39L76 989q-12 35 24 35z" glyph-name="v" horiz-adv-x="966" unicode="v"/><glyph d="M1446 1024q37 0 24-35L1188 39q-12-39-47-39h-94q-35 0-48 39-170 545-221 731-37-135-223-731-12-39-47-39h-94q-35 0-47 39L84 989q-10 35 25 35h114q27 0 37-35 25-90 92.5-356T465 211q160 553 221 778 10 35 37 35h106q33 0 39-35 61-225 222-778 45 158 114.5 427t91.5 351q10 35 37 35h113z" glyph-name="w" horiz-adv-x="1554" unicode="w"/><glyph d="M834 0H709q-25 0-47 37L473 360 285 37Q262 0 238 0H109Q68 0 88 39l285 475L92 985q-20 39 21 39h127q27 0 47-37l186-317 184 317q23 37 48 37h129q39 0 18-39L573 516 856 39q10-16 4-27.5T834 0z" glyph-name="x" horiz-adv-x="944" unicode="x"/><glyph d="M952 1024q33 0 19-37L430-375q-14-35-45-35H270q-35 0-20 37L424 61 55 987q-14 37 19 37h119q27 0 40-35l277-710 283 710q14 35 43 35h116z" glyph-name="y" horiz-adv-x="1026" unicode="y"/><glyph d="M821 899q0-14-10-29L293 162h495q33 0 33-31V31q0-31-30-31H113Q82 0 82 31v88q0 18 10 31l518 712H137q-31 0-31 31v98q0 33 31 33h651q33 0 33-31v-94z" glyph-name="z" horiz-adv-x="903" unicode="z"/><glyph d="M426 297q0-262 192-262h72q31 0 31-31v-117q0-31-31-30H582q-152 0-243 105.5T248 242v329q0 20-15 37l-92 113q-14 23 0 45l92 113q14 16 15 36v330q0 174 91 279.5T582 1630h108q31 0 31-31v-116q0-31-31-31h-72q-193 0-192-262V895q0-20-14-37l-88-115 90-114q12-18 12-37V297z" glyph-name="braceleft" horiz-adv-x="854" unicode="{"/><glyph d="M164 1608q0 31 31 30h116q31 0 31-30V-379q0-31-31-31H195q-31 0-31 31v1987z" glyph-name="bar" horiz-adv-x="505" unicode="|"/><glyph d="M428 297v295q0 18 12 37l90 114-88 115q-14 16-14 37v295q0 262-192 262h-72q-31 0-31 31v116q0 31 31 31h108q152 0 243-105.5t91-279.5V915q0-20 15-36l92-113q14-23 0-45l-92-113q-14-16-15-37V242q0-174-91-279.5T272-143H164q-31 0-31 30V4q0 31 31 31h72q192 0 192 262z" glyph-name="braceright" horiz-adv-x="854" unicode="}"/><glyph d="M999 717q14-23-20-45-104-72-224.5-78T534 647t-177.5 56T188 639q-20-12-34 16l-48 93q-14 23 21 45 104 74 225 80t226-60q94-55 171.5-52T918 825q20 14 34-16z" glyph-name="asciitilde" horiz-adv-x="1105" unicode="~"/><glyph d="M348 856q0-31-31-31H184q-31 0-30 31v137q0 31 30 31h133q31 0 31-31V856zm-8-1235q0-31-31-31H193q-31 0-31 31v950q0 31 31 31h116q31 0 31-31v-950z" glyph-name="exclamdown" horiz-adv-x="501" unicode="¡"/><glyph d="M555 150q91 0 126 33.5t61 63.5 55 11l67-49q25-16 6-43-47-57-76.5-87t-93-58.5T555-10v-221q0-31-31-31h-57q-31 0-31 31v221Q280-2 186 102.5T92 367v292q0 162 93.5 262.5T436 1030v164q0 31 31 31h57q31 0 31-31v-164q125-4 220-86t116-215q2-37-33-37H754q-31 0-37 35-27 139-162 143V150zM270 338q0-86 43-134t123-54v720q-166-12-166-196V338z" glyph-name="cent" horiz-adv-x="974" unicode="¢"/><glyph d="M723 1511q199 0 310.5-125.5T1149 1038q0-31-31-30h-117q-33 0-32 30 0 160-59.5 229.5T723 1337h-84q-272 0-229-313 10-80 57-209h317q31 0 31-31V674q0-31-31-31H518q8-39 6-82-12-197-100-352 78 29 138.5 25.5T711 195q170-66 366 16 14 6 22.5-4t8.5-27V61q0-14-6-18t-25-12q-203-88-409 0-113 45-195 35.5T279-2q-14-8-50 35t-29 61 30.5 74.5 30.5 74 24 61.5 41 147 6 192H123q-31 0-31 31v110q0 31 31 31h158q-137 378 6 537t352 159h84z" glyph-name="sterling" horiz-adv-x="1241" unicode="£"/><glyph d="M672-10h-97q-154 0-249 90l-99-96q-23-20-43 0l-82 82q-20 20 0 43l127 127q-16 59-16 124v299q0 66 14 117L102 899q-20 23 0 43l82 82q20 20 43 0l90-88q96 96 258 96h97q168 0 264-102l94 94q23 20 43 0l84-82q23-20 0-43l-135-133q12-49 12-107V360q0-67-14-116l135-135q20-23 0-43l-82-82q-20-20-43 0L928 84q-98-94-256-94zm0 160q90 0 140 49t50 145v332q0 199-190 198h-97q-188 0-188-198V344q0-96 49-145t139-49h97z" glyph-name="currency" horiz-adv-x="1257" unicode="¤"/><glyph d="M674 596h287q31 0 30-31V465q0-31-30-31H674v-88h287q31 0 30-31V215q0-31-30-31H674V31q0-31-31-31H526q-31 0-30 31v153H209q-31 0-31 31v100q0 31 31 31h287v88H209q-31 0-31 31v100q0 31 31 31h287v20L68 1403q-18 31 20 31h133q23 0 41-31l322-604 323 604q14 31 41 31h133q39 0 21-31L674 616v-20z" glyph-name="yen" horiz-adv-x="1169" unicode="¥"/><glyph d="M164 1464q0 31 31 31h116q31 0 31-31V803q0-31-31-31H195q-31 0-31 31v661zm0-1038q0 31 31 31h116q31 0 31-31v-662q0-31-31-30H195q-31 0-31 30v662z" glyph-name="brokenbar" horiz-adv-x="505" unicode="¦"/><glyph d="M1098 444q0-113-62-211 61-96 62-225 0-180-128-299T668-410h-95q-170 0-300 119T143 2v59q0 31 31 31h119q31 0 31-31l2-59q4-104 75.5-168.5T573-231h95q106 0 179 66.5T920 12t-60.5 169T678 262l-113 21q-186 33-299.5 149.5T152 721q0 119 61 217-61 96-61 219 0 176 116.5 290T555 1561h107q168 0 294.5-123t124.5-308v-38q0-31-30-31H932q-31 0-31 31v38q0 113-70.5 183.5T662 1384H555q-100 0-162.5-64.5T330 1152t57-159.5T569 913l113-20q180-33 298-150t118-299zM330 717q0-215 239-256l113-21q137-27 221-82 16 39 17 86 0 225-242 271l-113 20q-121 20-219 78-16-45-16-96z" glyph-name="section" horiz-adv-x="1241" unicode="§"/><glyph d="M102 1403q0 31 31 31h109q31 0 30-31v-111q0-31-30-30H133q-31 0-31 30v111zm519 0q0 31 30 31h109q31 0 31-31v-111q0-31-31-30H651q-31 0-30 30v111z" glyph-name="dieresis" horiz-adv-x="892" unicode="¨"/><glyph d="M721 1444q209 0 333-128t124-347V461q0-217-125-352.5T721-27H567q-205 0-329.5 135.5T113 461v508q0 219 123.5 347T567 1444h154zm0-1311q141 0 219 86t78 234v516q0 156-77 236.5T721 1286H567q-143 0-219-81t-76-236V453q0-147 78-233.5T567 133h154zm176 424q23 0 23-27-2-143-62.5-206.5T680 260h-62q-248 0-247 248v401q0 248 247 248h62q238 0 240-266 0-29-23-29H797q-23 0-23 19 0 131-94 131h-62q-53 0-75.5-23.5T520 891V526q0-72 22.5-96t75.5-24h62q47 0 70.5 29.5T774 539q0 18 23 18h100z" glyph-name="copyright" horiz-adv-x="1290" unicode="©"/><glyph d="M545 963h-76q-23 0-23 32-57-33-122-32h-31q-80 0-135.5 42.5T102 1122t51.5 118 139.5 44h153q-4 98-94 98h-43q-72 0-125-45-20-16-30 0l-35 45q-12 14 0 27 74 78 196 78h50q80 0 131-59.5t51-147.5V999q0-18 4-27 3-9-6-9zm-252 102h31q76 0 122 37v80H293q-86 0-86-58t86-59z" glyph-name="ordfeminine" horiz-adv-x="653" unicode="ª"/><glyph d="M565 872V713q0-23-37-45L322 526l206-139q37-27 37-45V180q0-16-11-21t-26 5L143 432q-31 20-30 47v94q0 27 30 48l385 268q14 10 25.5 5t11.5-22zm522 0V713q0-23-36-45L844 526l207-139q37-25 36-45V180q0-16-11-21t-25 5L666 432q-31 20-31 47v94q0 27 31 48l385 268q14 10 25 5t11-22z" glyph-name="guillemotleft" horiz-adv-x="1200" unicode="«"/><glyph d="M899 723q31 0 31-31V289q0-31-31-31H782q-31 0-30 31v256H154q-31 0-31 30v117q0 31 31 31h745z" glyph-name="logicalnot" horiz-adv-x="1052" unicode="¬"/><glyph d="M154 434q-31 0-31 31v96q0 31 31 31h540q31 0 31-31v-96q0-31-31-31H154z" glyph-name="uni00AD" horiz-adv-x="847" unicode="­"/><glyph d="M721 1444q209 0 333-128t124-347V461q0-217-125-352.5T721-27H567q-205 0-329.5 135.5T113 461v508q0 219 123.5 347T567 1444h154zm0-1311q141 0 219 86t78 234v516q0 156-77 236.5T721 1286H567q-143 0-219-81t-76-236V453q0-147 78-233.5T567 133h154zm182 352V322q0-41-37-41h-67q-35 0-35 41v161q0 74-19.5 101.5T666 612H543V322q0-41-35-41h-74q-35 0-35 41v763q0 29 17.5 46.5T463 1149h209q111 0 172-64.5T905 897q0-156-104-209 102-55 102-203zM666 745q59 0 79.5 31T766 882t-19.5 101.5T666 1010H543V745h123z" glyph-name="registered" horiz-adv-x="1290" unicode="®"/><glyph d="M133 1272q-31 0-31 31v100q0 31 31 31h664q31 0 30-31v-100q0-31-30-31H133z" glyph-name="macron" horiz-adv-x="929" unicode="¯"/><glyph d="M436 1444q127 0 205-84t78-215v-23q0-131-78-215t-205-84h-30q-131 0-207 83t-76 216v23q0 133 75.5 216t207.5 83h30zm131-301q0 145-133 145h-22q-137 0-138-145v-17q0-145 138-145h22q133 0 133 145v17z" glyph-name="degree" horiz-adv-x="841" unicode="°"/><glyph d="M901 770q29 0 29-31V623q0-31-31-31H618V303q0-31-30-31H471q-31 0-31 31v289H154q-31 0-31 31v116q0 31 31 31h286v285q0 31 31 30h117q31 0 30-30V770h283zm0-592q29 0 29-31V31q0-31-31-31H154q-31 0-31 31v116q0 31 31 31h747z" glyph-name="plusminus" horiz-adv-x="1052" unicode="±"/><glyph d="M532 883q0-31-30-31H158q-31 0-31 31v49q0 30 11 46.5t44 49.5l144 154q4 4 42 38t38 68q0 35-24 58.5t-58 23.5-56-19.5-22-45.5v-15q0-31-31-30h-61q-31 0-31 30v27q0 68 51 119t125 51h51q80 0 130-60.5t50-126.5-33.5-114.5T399 1073L295 969l207 4q31 0 30-31v-59z" glyph-name="uni00B2" horiz-adv-x="655" unicode="²"/><glyph d="M342 854h-51q-74 0-125 51t-51 119v27q0 31 30 30h62q31 0 31-30v-15q0-27 22-46t56-19 57.5 19.5 23.5 52-22.5 54T319 1118h-47q-31 0-30 31v45q0 31 30 31h47q33 0 55.5 21.5t22.5 54-23.5 52T315 1372t-56-19.5-21-45.5v-15q0-31-31-30h-62q-31 0-30 30v27q0 68 51 119t125 51h51q80 0 130-56.5t50-127.5-69-134q69-63 69-134t-50-127-130-56z" glyph-name="uni00B3" horiz-adv-x="653" unicode="³"/><glyph d="M281 1434h157q18 0 25.5-10.5T459 1397l-185-236q-27-37-45-37H129q-16 0-23.5 10.5t3.5 26.5l129 236q18 37 43 37z" glyph-name="acute" horiz-adv-x="569" unicode="´"/><glyph d="M995 1434q31 0 31-31V31q0-31-31-31H879q-31 0-31 31v555H735V31q0-31-30-31H588q-31 0-31 31v555h-55q-184 0-292 113.5t-108 310T209.5 1320 502 1434h493zM512 764h45v491h-45q-115 0-173-57t-58-188 58-188.5T512 764zm336 0v491H735V764h113z" glyph-name="paragraph" horiz-adv-x="1153" unicode="¶"/><glyph d="M102 711q0 31 31 30h166q31 0 31-30V535q0-31-31-31H133q-31 0-31 31v176z" glyph-name="periodcentered" horiz-adv-x="432" unicode="·"/><glyph d="M219 14h119q23 0 5-26t-15.5-46T350-84t84-12 111-38 47-124q0-154-189-154H283q-174 0-179 162 0 20 19 21h102q20 0 21-17 0-51 82-51h39q47 0 65.5 8t18.5 35-48 40-192 26q-25 4-44.5 19t-18 59T197-2q12 16 22 16z" glyph-name="cedilla" horiz-adv-x="696" unicode="¸"/><glyph d="M246 1456q0 31 30 31h66q31 0 31-31V885q0-31-31-31h-66q-31 0-30 31v571z" glyph-name="uni00B9" horiz-adv-x="618" unicode="¹"/><glyph d="M354 524q86 0 146.5-65.5T561 307v-88q0-90-60.5-154.5T354 0h-45q-86 0-146.5 64.5T102 219v88q0 88 60.5 152.5T309 524h45zm103-223q0 47-31 80t-76 33h-37q-47 0-75.5-33T209 301v-76q0-47 28.5-80.5T313 111h37q45 0 76 33.5t31 80.5v76z" glyph-name="ordmasculine" horiz-adv-x="663" unicode="º"/><glyph d="M565 479q0-27-30-47L150 164q-14-10-25.5-5T113 180v162q0 18 37 45l208 139-208 142q-37 23-37 45v159q0 16 11.5 21.5T150 889l385-268q31-20 30-48v-94zm522 0q0-27-30-47L672 164q-14-10-25.5-5T635 180v162q0 18 37 45l209 139-209 142q-37 23-37 45v159q0 16 11.5 21.5T672 889l385-268q31-20 30-48v-94z" glyph-name="guillemotright" horiz-adv-x="1200" unicode="»"/><glyph d="M1085 1487h78q39 0 21-31L356 31Q338 0 315 0h-77q-39 0-21 31l827 1425q18 31 41 31zm-839-31q0 31 30 31h66q31 0 31-31V885q0-31-31-31h-66q-31 0-30 31v571zM1358 242q31 0 31-31v-61q0-31-31-31h-29V31q0-31-31-31h-61q-31 0-31 31v88H983q-29 0-31 31l-6 59q0 8 8 24l217 388q8 14 29 14h98q31 0 31-31V242h29zm-152 4v205l-104-205h104z" glyph-name="onequarter" horiz-adv-x="1511" unicode="¼"/><glyph d="M1085 1487h78q39 0 21-31L356 31Q338 0 315 0h-77q-39 0-21 31l827 1425q18 31 41 31zm-839-31q0 31 30 31h66q31 0 31-31V885q0-31-31-31h-66q-31 0-30 31v571zM1356 90V31q0-31-31-31H981q-31 0-31 31v49q0 46 56 96l143 154q4 4 42 38t38 68q0 35-23.5 58.5T1147 518t-56.5-19.5T1069 453v-15q0-31-31-30h-61q-31 0-31 30v27q0 68 51.5 119t124.5 51h52q80 0 130-60.5t50-126.5-34-114.5-97-112.5l-105-104 207 4q31 0 31-31z" glyph-name="onehalf" horiz-adv-x="1478" unicode="½"/><glyph d="M350 854h-51q-74 0-125 51t-51 119v27q0 31 31 30h61q31 0 31-30v-15q0-27 21.5-46t56.5-19 58.5 19.5 23.5 52-23 54-55 21.5h-47q-31 0-31 31v45q0 31 31 31h47q33 0 55.5 21.5t22.5 54-24 52-58 19.5-56-19.5-22-45.5v-15q0-31-31-30h-61q-31 0-31 30v27q0 68 51 119t125 51h51q80 0 130-56.5t50-127.5-69-134q69-63 69-134t-50-127-130-56zm770 633h78q39 0 21-31L391 31Q373 0 350 0h-78q-39 0-20 31l827 1425q18 31 41 31zm273-1245q31 0 30-31v-61q0-31-30-31h-29V31q0-31-31-31h-61q-31 0-31 31v88h-223q-27 0-31 31l-6 59q0 8 8 24l217 388q6 14 29 14h98q31 0 31-31V242h29zm-152 4v205l-104-205h104z" glyph-name="threequarters" horiz-adv-x="1546" unicode="¾"/><glyph d="M680 860q0-31-31-31H516q-31 0-31 31v135q0 31 31 31h133q31 0 31-31V860zM479-487Q71-487 72-61q0 133 30.5 183t48 72.5 60 47T343 303q89 37 121 63.5t32 86.5v118q0 31 30 31h115q31 0 31-31V434q0-109-51-162T450 170 290 78.5 250-82t51-174.5T479-313h94q117 0 169.5 50T801-90q0 35 35 35h110q35 0 35-35-20-397-408-397h-94z" glyph-name="questiondown" horiz-adv-x="1052" unicode="¿"/><glyph d="M311 1905h158q25 0 43-37l129-236q10-16 4-26.5t-24-10.5H520q-18 0-45 37l-184 236q-12 16-5 26.5t25 10.5zM1057 0H932q-29 0-37 33l-88 307H340L252 33q-8-33-37-33H90Q53 0 66 33l417 1368q10 33 39 33h103q29 0 39-33L1081 33q12-33-24-33zM385 498h377l-191 655z" glyph-name="Agrave" horiz-adv-x="1146" unicode="À"/><glyph d="M526 1534q-16 0-23 10t3 27l129 235q18 37 43 37h158q18 0 25-10t-5-27l-184-235q-27-37-45-37H526zM1057 0H932q-29 0-37 33l-88 307H340L252 33q-8-33-37-33H90Q53 0 66 33l417 1368q10 33 39 33h103q29 0 39-33L1081 33q12-33-24-33zM385 498h377l-191 655z" glyph-name="Aacute" horiz-adv-x="1146" unicode="Á"/><glyph d="M238 1513q-16 0-22.5 13.5t5.5 25.5l248 260q29 33 55 33h103q20 0 57-33l246-260q12-14 6-26.5t-23-12.5H795q-18 0-54 39l-166 174-165-174q-35-39-54-39H238zM1057 0H932q-29 0-37 33l-88 307H340L252 33q-8-33-37-33H90Q53 0 66 33l417 1368q10 33 39 33h103q29 0 39-33L1081 33q12-33-24-33zM385 498h377l-191 655z" glyph-name="Acircumflex" horiz-adv-x="1146" unicode="Â"/><glyph d="M256 1651l-45 86q-10 20 16 41 102 74 186.5 79t184.5-57q92-53 133-50t131 62q14 12 33-16l45-86q12-18-18-41-100-72-184.5-78T553 1647q-94 53-134 50t-130-63q-15-10-33 17zM1057 0H932q-29 0-37 33l-88 307H340L252 33q-8-33-37-33H90Q53 0 66 33l417 1368q10 33 39 33h103q29 0 39-33L1081 33q12-33-24-33zM385 498h377l-191 655z" glyph-name="Atilde" horiz-adv-x="1146" unicode="Ã"/><glyph d="M260 1671q-31 0-31 31v110q0 31 31 31h109q31 0 30-31v-110q0-31-30-31H260zm518 0q-31 0-30 31v110q0 31 30 31h109q31 0 31-31v-110q0-31-31-31H778zM1057 0H932q-29 0-37 33l-88 307H340L252 33q-8-33-37-33H90Q53 0 66 33l417 1368q10 33 39 33h103q29 0 39-33L1081 33q12-33-24-33zM385 498h377l-191 655z" glyph-name="Adieresis" horiz-adv-x="1146" unicode="Ä"/><glyph d="M559 1511q-76 0-124 49.5T387 1681v23q0 74 49 123t123 49h27q74 0 123-49t49-123v-23q0-72-49.5-121T586 1511h-27zm-65 191v-16q0-31 18-50.5t51-19.5h19q70 0 69 70v16q0 70-69 70h-19q-33 0-51-19.5t-18-50.5zM1057 0H932q-29 0-37 33l-88 307H340L252 33q-8-33-37-33H90Q53 0 66 33l417 1368q10 33 39 33h103q29 0 39-33L1081 33q12-33-24-33zM385 498h377l-191 655z" glyph-name="Aring" horiz-adv-x="1146" unicode="Å"/><glyph d="M1663 162q31 0 31-31V31q0-31-31-31H889q-31 0-31 31v299H420L248 31Q230 0 207 0H78Q39 0 57 31l787 1372q16 31 41 31h768q31 0 30-31v-100q0-31-30-31h-617V784h473q31 0 31-30V653q0-31-31-30h-473V162h627zM858 487v609L510 487h348z" glyph-name="AE" horiz-adv-x="1775" unicode="Æ"/><glyph d="M928-258q0-154-189-154H618q-174 0-178 162 0 20 19 21h102q20 0 21-17 0-51 82-51h38q47 0 65.5 8t18.5 35-28.5 35T649-201q-80 11-99 13-39 5-63.5 44.5T526-10h-2q-201 0-306 111.5T113 416v602q0 203 105.5 314.5T524 1444h158q195 0 298-105.5t114-306.5q0-35-35-35H952q-37 0-37 35-6 135-60 192.5T682 1282H524q-125 0-179-61.5T291 1018V416q0-141 54-202.5T524 152h158q119 0 173 57t60 192q0 35 37 35h107q35 0 35-35-10-201-113.5-306T682-10h-2q-6-10-10-19.5T662.5-46t-1-13.5T664-69q0-5 12-11t24-6l27-4q106-12 153.5-44T928-258z" glyph-name="Ccedilla" horiz-adv-x="1196" unicode="Ç"/><glyph d="M594 1595H494q-18 0-45 37l-185 236q-12 16-5 26.5t26 10.5h157q25 0 43-37l129-236q10-16 4-26.5t-24-10.5zm334-323H311V784h471q31 0 31-30V653q0-31-31-30H311V162h627q31 0 31-31V31q0-31-31-31H164q-31 0-31 31v1372q0 31 31 31h764q31 0 30-31v-100q1-31-30-31z" glyph-name="Egrave" horiz-adv-x="1050" unicode="È"/><glyph d="M651 1843h158q18 0 25.5-10t-5.5-27l-184-235q-27-37-45-37H500q-16 0-23.5 10t2.5 27l129 235q18 37 43 37zm277-571H311V784h471q31 0 31-30V653q0-31-31-30H311V162h627q31 0 31-31V31q0-31-31-31H164q-31 0-31 31v1372q0 31 31 31h764q31 0 30-31v-100q1-31-30-31z" glyph-name="Eacute" horiz-adv-x="1050" unicode="É"/><glyph d="M496 1845h102q20 0 57-33l246-260q12-14 6-26.5t-22-12.5H766q-18 0-53 39l-166 174-166-174q-35-39-53-39H209q-16 0-22 13.5t6 25.5l247 260q29 33 56 33zm432-573H311V784h471q31 0 31-30V653q0-31-31-30H311V162h627q31 0 31-31V31q0-31-31-31H164q-31 0-31 31v1372q0 31 31 31h764q31 0 30-31v-100q1-31-30-31z" glyph-name="Ecircumflex" horiz-adv-x="1050" unicode="Ê"/><glyph d="M203 1812q0 31 30 31h109q31 0 31-31v-110q0-31-31-31H233q-31 0-30 31v110zm518 0q0 31 31 31h108q31 0 31-31v-110q0-31-31-31H752q-31 0-31 31v110zm207-540H311V784h471q31 0 31-30V653q0-31-31-30H311V162h627q31 0 31-31V31q0-31-31-31H164q-31 0-31 31v1372q0 31 31 31h764q31 0 30-31v-100q1-31-30-31z" glyph-name="Edieresis" horiz-adv-x="1050" unicode="Ë"/><glyph d="M270 1595H170q-18 0-45 37l-184 236q-12 16-5 26.5t25 10.5h158q25 0 43-37l129-236q10-16 4-26.5t-25-10.5zm-137-192q0 31 31 31h119q31 0 30-31V31q0-31-30-31H164q-31 0-31 31v1372z" glyph-name="Igrave" horiz-adv-x="446" unicode="Ì"/><glyph d="M328 1843h157q18 0 25.5-10t-4.5-27l-184-235q-27-37-46-37H176q-16 0-23.5 10t3.5 27l129 235q18 37 43 37zm-195-440q0 31 31 31h119q31 0 30-31V31q0-31-30-31H164q-31 0-31 31v1372z" glyph-name="Iacute" horiz-adv-x="446" unicode="Í"/><glyph d="M172 1845h102q20 0 58-33l246-260q12-14 6-26.5t-23-12.5H442q-18 0-53 39l-166 174-166-174q-35-39-53-39h-119q-16 0-22 13.5t6 25.5l248 260q29 33 55 33zm-39-442q0 31 31 31h119q31 0 30-31V31q0-31-30-31H164q-31 0-31 31v1372z" glyph-name="Icircumflex" horiz-adv-x="446" unicode="Î"/><glyph d="M-121 1812q0 31 31 31H18q31 0 31-31v-110q0-31-31-31H-90q-31 0-31 31v110zm518 0q0 31 31 31h109q31 0 30-31v-110q0-31-30-31H428q-31 0-31 31v110zm-264-409q0 31 31 31h119q31 0 30-31V31q0-31-30-31H164q-31 0-31 31v1372z" glyph-name="Idieresis" horiz-adv-x="446" unicode="Ï"/><glyph d="M727 1434q195 0 298-106.5t103-299.5V406q0-193-103-299.5T727 0H215q-31 0-31 31v614H61q-31 0-30 31v96q0 31 30 31h123v600q0 31 31 31h512zM950 406v622q0 131-52 187.5T727 1272H362V803h240q31 0 31-31v-96q0-31-31-31H362V162h365q119 0 171 56.5T950 406z" glyph-name="Eth" horiz-adv-x="1220" unicode="Ð"/><glyph d="M979 1710q12-18-18-41-100-72-184.5-78T592 1647q-94 53-134 50t-130-63q-14-10-33 17l-45 86q-10 20 16 41 102 74 186.5 79t184.5-57q92-53 133-50t131 62q14 12 33-16zm82-276q31 0 31-31V31q0-31-31-31H881q-25 0-37 23L311 1174V31q0-31-30-31H164q-31 0-31 31v1372q0 31 31 31h180q25 0 37-23L913 262v1141q0 31 31 31h117z" glyph-name="Ntilde" horiz-adv-x="1224" unicode="Ñ"/><glyph d="M659 1595H559q-18 0-45 37l-184 236q-12 16-5 26.5t25 10.5h158q25 0 43-37l129-236q10-16 4-26.5t-25-10.5zm39-151q201 0 306.5-111.5T1110 1018V416q0-203-105.5-314.5T698-10H524q-201 0-306 111.5T113 416v602q0 203 105.5 314.5T524 1444h174zM932 416v602q0 141-55.5 202.5T698 1282H524q-125 0-179-61.5T291 1018V416q0-141 54-202.5T524 152h174q123 0 178.5 61.5T932 416z" glyph-name="Ograve" horiz-adv-x="1222" unicode="Ò"/><glyph d="M717 1843h157q18 0 25.5-10t-4.5-27l-184-235q-27-37-45-37H565q-16 0-23 10t3 27l129 235q18 37 43 37zm-19-399q201 0 306.5-111.5T1110 1018V416q0-203-105.5-314.5T698-10H524q-201 0-306 111.5T113 416v602q0 203 105.5 314.5T524 1444h174zM932 416v602q0 141-55.5 202.5T698 1282H524q-125 0-179-61.5T291 1018V416q0-141 54-202.5T524 152h174q123 0 178.5 61.5T932 416z" glyph-name="Oacute" horiz-adv-x="1222" unicode="Ó"/><glyph d="M561 1845h103q20 0 57-33l246-260q12-14 6-26.5t-23-12.5H831q-18 0-53 39l-166 174-166-174q-35-39-53-39H274q-16 0-22 13.5t6 25.5l248 260q29 33 55 33zm137-401q201 0 306.5-111.5T1110 1018V416q0-203-105.5-314.5T698-10H524q-201 0-306 111.5T113 416v602q0 203 105.5 314.5T524 1444h174zM932 416v602q0 141-55.5 202.5T698 1282H524q-125 0-179-61.5T291 1018V416q0-141 54-202.5T524 152h174q123 0 178.5 61.5T932 416z" glyph-name="Ocircumflex" horiz-adv-x="1222" unicode="Ô"/><glyph d="M977 1710q12-18-19-41-100-72-184-78t-184 56q-94 53-134 50t-130-63q-14-10-33 17l-45 86q-10 20 16 41 102 74 186.5 79t184.5-57q92-53 133-50t131 62q14 12 33-16zm-279-266q201 0 306.5-111.5T1110 1018V416q0-203-105.5-314.5T698-10H524q-201 0-306 111.5T113 416v602q0 203 105.5 314.5T524 1444h174zM932 416v602q0 141-55.5 202.5T698 1282H524q-125 0-179-61.5T291 1018V416q0-141 54-202.5T524 152h174q123 0 178.5 61.5T932 416z" glyph-name="Otilde" horiz-adv-x="1222" unicode="Õ"/><glyph d="M268 1812q0 31 31 31h109q31 0 30-31v-110q0-31-30-31H299q-31 0-31 31v110zm518 0q0 31 31 31h109q31 0 30-31v-110q0-31-30-31H817q-31 0-31 31v110zm-88-368q201 0 306.5-111.5T1110 1018V416q0-203-105.5-314.5T698-10H524q-201 0-306 111.5T113 416v602q0 203 105.5 314.5T524 1444h174zM932 416v602q0 141-55.5 202.5T698 1282H524q-125 0-179-61.5T291 1018V416q0-141 54-202.5T524 152h174q123 0 178.5 61.5T932 416z" glyph-name="Odieresis" horiz-adv-x="1222" unicode="Ö"/><glyph d="M780 455q20-25 0-45l-82-82q-23-20-43 0L446 537 246 336q-25-20-45 0l-82 80q-23 23 0 45l203 203-207 206q-20 23 0 43l82 82q20 20 43 0l206-207 201 201q20 20 43-2l84-82q18-23-2-43L573 662z" glyph-name="multiply" horiz-adv-x="892" unicode="×"/><glyph d="M1110 1018V416q0-203-105.5-314.5T698-10H524q-76 0-133 14l-10-24q-12-31-41-31H211q-33 0-21 31l46 104Q113 195 113 416v602q0 203 105.5 314.5T524 1444h174q74 0 125-14l13 26q16 31 41 31h129q35 0 20-31l-45-102q129-113 129-336zM291 416q0-92 24-152l443 1014q-37 4-60 4H524q-125 0-179-61.5T291 1018V416zm641 0v602q0 96-29 158L459 158q31-6 65-6h174q123 0 178.5 61.5T932 416z" glyph-name="Oslash" horiz-adv-x="1222" unicode="Ø"/><glyph d="M680 1595H580q-18 0-45 37l-185 236q-12 16-5 26.5t26 10.5h157q25 0 43-37l129-236q10-16 4-26.5t-24-10.5zm414-161q37 0 36-35V416q0-205-104-315.5T719-10H545q-203 0-307.5 110.5T133 416v983q0 35 35 35h108q35 0 35-35V416q0-137 56.5-200.5T545 152h174q121 0 177 63.5T952 416v983q0 35 35 35h107z" glyph-name="Ugrave" horiz-adv-x="1263" unicode="Ù"/><glyph d="M737 1843h158q18 0 25.5-10t-5.5-27l-184-235q-27-37-45-37H586q-16 0-23.5 10t2.5 27l129 235q18 37 43 37zm357-409q37 0 36-35V416q0-205-104-315.5T719-10H545q-203 0-307.5 110.5T133 416v983q0 35 35 35h108q35 0 35-35V416q0-137 56.5-200.5T545 152h174q121 0 177 63.5T952 416v983q0 35 35 35h107z" glyph-name="Uacute" horiz-adv-x="1263" unicode="Ú"/><glyph d="M582 1845h102q20 0 57-33l246-260q12-14 6-26.5t-22-12.5H852q-18 0-53 39l-166 174-166-174q-35-39-53-39H295q-16 0-22 13.5t6 25.5l247 260q29 33 56 33zm512-411q37 0 36-35V416q0-205-104-315.5T719-10H545q-203 0-307.5 110.5T133 416v983q0 35 35 35h108q35 0 35-35V416q0-137 56.5-200.5T545 152h174q121 0 177 63.5T952 416v983q0 35 35 35h107z" glyph-name="Ucircumflex" horiz-adv-x="1263" unicode="Û"/><glyph d="M289 1812q0 31 30 31h109q31 0 31-31v-110q0-31-31-31H319q-31 0-30 31v110zm518 0q0 31 31 31h108q31 0 31-31v-110q0-31-31-31H838q-31 0-31 31v110zm287-378q37 0 36-35V416q0-205-104-315.5T719-10H545q-203 0-307.5 110.5T133 416v983q0 35 35 35h108q35 0 35-35V416q0-137 56.5-200.5T545 152h174q121 0 177 63.5T952 416v983q0 35 35 35h107z" glyph-name="Udieresis" horiz-adv-x="1263" unicode="Ü"/><glyph d="M688 1843h158q18 0 25.5-10t-5.5-27l-184-235q-27-37-45-37H537q-16 0-23.5 10t2.5 27l129 235q18 37 43 37zm393-409q39 0 21-31L674 616V31q0-31-31-31H526q-31 0-30 31v585L68 1403q-18 31 20 31h133q23 0 41-31l322-604 323 604q14 31 41 31h133z" glyph-name="Yacute" horiz-adv-x="1169" unicode="Ý"/><glyph d="M651 1167q184 0 292-113.5t108-310T943.5 433 651 319H311V31q0-31-30-31H164q-31 0-31 31v1425q0 31 31 31h117q31 0 30-31v-289h340zm-8-682q229 0 229 258t-229 258H311V485h332z" glyph-name="Thorn" horiz-adv-x="1153" unicode="Þ"/><glyph d="M1049 469V362q0-201-96.5-281.5T635 0h-76q-31 0-31 31v98q0 31 31 31h70q143 0 194 38t51 169v127q0 109-74.5 160T618 705h-59q-31 0-31 30v96q0 31 31 31h59q188 0 189 197v90q0 88-40 127t-128 39H459q-88 0-122-38t-34-128L301 31q0-31-31-31H156q-31 0-31 31l-2 1118q0 158 86 242t250 84h180q160 0 252-85t92-241v-82q0-213-168-281 115-31 174.5-100.5T1049 469z" glyph-name="germandbls" horiz-adv-x="1140" unicode="ß"/><glyph d="M252 1495h158q25 0 43-37l129-235q10-16 4-26.5t-25-10.5H461q-18 0-45 37l-185 235q-12 16-5 26.5t26 10.5zM903 0H766q-33 0-33 49v94Q635-11 473-10h-76q-143 0-229 82T82 303q0 297 311 297h340v76q0 117-40 157.5T543 874h-49q-143 0-242-51-45-16-57 15l-35 71q-14 29 12 45 123 78 322 78h49q186 0 274-88t88-274V49q0-15 4-32t-6-17zM496 150q176 0 237 151v158H397q-143 0-143-155t143-154h99z" glyph-name="agrave" horiz-adv-x="1034" unicode="à"/><glyph d="M467 1124q-16 0-23.5 10.5t2.5 26.5l129 236q18 37 43 37h158q18 0 25.5-10.5T797 1397l-185-236q-27-37-45-37H467zM903 0H766q-33 0-33 49v94Q635-11 473-10h-76q-143 0-229 82T82 303q0 297 311 297h340v76q0 117-40 157.5T543 874h-49q-143 0-242-51-45-16-57 15l-35 71q-14 29 12 45 123 78 322 78h49q186 0 274-88t88-274V49q0-15 4-32t-6-17zM496 150q176 0 237 151v158H397q-143 0-143-155t143-154h99z" glyph-name="aacute" horiz-adv-x="1034" unicode="á"/><glyph d="M178 1104q-16 0-22 13t6 26l248 260q29 33 55 33h102q20 0 58-33l245-260q12-14 6-26.5t-22-12.5H735q-18 0-53 39l-166 174-166-174q-35-39-53-39H178zM903 0H766q-33 0-33 49v94Q635-11 473-10h-76q-143 0-229 82T82 303q0 297 311 297h340v76q0 117-40 157.5T543 874h-49q-143 0-242-51-45-16-57 15l-35 71q-14 29 12 45 123 78 322 78h49q186 0 274-88t88-274V49q0-15 4-32t-6-17zM496 150q176 0 237 151v158H397q-143 0-143-155t143-154h99z" glyph-name="acircumflex" horiz-adv-x="1034" unicode="â"/><glyph d="M197 1241l-45 86q-10 20 16 41 102 74 186 79t180.5-52 137.5-54.5 131 62.5q14 12 33-17l45-86q12-18-19-40-100-72-184-78t-184 55q-94 53-134.5 50T229 1225q-14-11-32 16zM903 0H766q-33 0-33 49v94Q635-11 473-10h-76q-143 0-229 82T82 303q0 297 311 297h340v76q0 117-40 157.5T543 874h-49q-143 0-242-51-45-16-57 15l-35 71q-14 29 12 45 123 78 322 78h49q186 0 274-88t88-274V49q0-15 4-32t-6-17zM496 150q176 0 237 151v158H397q-143 0-143-155t143-154h99z" glyph-name="atilde" horiz-adv-x="1034" unicode="ã"/><glyph d="M201 1262q-31 0-31 30v111q0 31 31 31h108q31 0 31-31v-111q0-31-31-30H201zm518 0q-31 0-31 30v111q0 31 31 31h108q31 0 31-31v-111q0-31-31-30H719zM903 0H766q-33 0-33 49v94Q635-11 473-10h-76q-143 0-229 82T82 303q0 297 311 297h340v76q0 117-40 157.5T543 874h-49q-143 0-242-51-45-16-57 15l-35 71q-14 29 12 45 123 78 322 78h49q186 0 274-88t88-274V49q0-15 4-32t-6-17zM496 150q176 0 237 151v158H397q-143 0-143-155t143-154h99z" glyph-name="adieresis" horiz-adv-x="1034" unicode="ä"/><glyph d="M500 1102q-74 0-123 49t-49 121v22q0 74 49 123t123 49h26q74 0 123-49t49-123v-22q0-72-48-121t-124-49h-26zm-66 190v-16q0-31 18.5-50.5T504 1206h18q70 0 70 70v16q0 70-70 70h-18q-33 0-51.5-19.5T434 1292zM903 0H766q-33 0-33 49v94Q635-11 473-10h-76q-143 0-229 82T82 303q0 297 311 297h340v76q0 117-40 157.5T543 874h-49q-143 0-242-51-45-16-57 15l-35 71q-14 29 12 45 123 78 322 78h49q186 0 274-88t88-274V49q0-15 4-32t-6-17zM496 150q176 0 237 151v158H397q-143 0-143-155t143-154h99z" glyph-name="aring" horiz-adv-x="1034" unicode="å"/><glyph d="M1188 1032q145 0 248.5-102.5T1540 662V506q0-63-65-64H913V338q0-92 49.5-140t141.5-48h84q86 0 126 21.5t85 76.5q18 23 45 4l59-41q27-18 8-43-49-61-78.5-90t-95-58.5T1188-10h-84q-119 0-208 57T766 205Q660-10 469-10h-74q-141 0-227 80T82 294t80 217 229 73h344v92q0 117-41 157.5T541 874h-47q-143 0-242-51-45-16-57 15l-35 71q-14 29 12 45 123 78 322 78h47q207 0 293-104 98 104 270 104h84zm176-448v92q0 98-47 148t-129 50h-84q-190 0-191-200v-90h451zM489 150q188 0 250 161-4 33-4 56v75H395q-141 0-141-146t141-146h94z" glyph-name="ae" horiz-adv-x="1632" unicode="æ"/><glyph d="M809-258q0-154-188-154H500q-174 0-178 162 0 20 18 21h102q20 0 21-17 0-51 82-51h39q47 0 65.5 8t18.5 35-29 35-108.5 18T427-187.5 384-170t-18 57T410-8Q267 8 179.5 111.5T92 367v292q0 168 100.5 269.5T461 1030h84q129 0 227-83t119-218q2-37-33-37H754q-31 0-37 35-27 145-172 145h-84q-190 0-191-198V338q0-92 49.5-140T461 150h84q101 0 151 48 18 18 52 56 20 23 49 4l67-49q25-16 6-43-45-55-74.5-86t-92-59.5T561-10q-6-10-10-19.5T544-46t-1-13.5 2-9.5q0-5 12-11t25-6l26-4q106-12 153.5-44T809-258z" glyph-name="ccedilla" horiz-adv-x="974" unicode="ç"/><glyph d="M545 1186H444q-18 0-45 37l-184 235q-12 16-5 26.5t26 10.5h157q25 0 43-37l129-235q10-16 4-26.5t-24-10.5zm0-154q145 0 248.5-102.5T897 662V506q0-63-66-64H270V338q0-92 49.5-140T461 150h84q86 0 126 21.5t85 76.5q18 23 45 4l59-41q27-18 8-43-49-61-78.5-90t-95-58.5T545-10h-84Q295-10 193.5 96.5T92 367v292q0 170 100.5 271.5T461 1032h84zm176-448v92q0 98-48 148t-128 50h-84q-190 0-191-200v-90h451z" glyph-name="egrave" horiz-adv-x="989" unicode="è"/><glyph d="M602 1434h158q18 0 25.5-10.5T780 1397l-184-236q-27-37-45-37H451q-16 0-23.5 10.5t2.5 26.5l129 236q18 37 43 37zm-57-402q145 0 248.5-102.5T897 662V506q0-63-66-64H270V338q0-92 49.5-140T461 150h84q86 0 126 21.5t85 76.5q18 23 45 4l59-41q27-18 8-43-49-61-78.5-90t-95-58.5T545-10h-84Q295-10 193.5 96.5T92 367v292q0 170 100.5 271.5T461 1032h84zm176-448v92q0 98-48 148t-128 50h-84q-190 0-191-200v-90h451z" glyph-name="eacute" horiz-adv-x="989" unicode="é"/><glyph d="M449 1436h102q20 0 57-33l246-260q12-14 6-26.5t-22-12.5H719q-18 0-53 39l-166 174-166-174q-35-39-53-39H162q-16 0-22.5 13.5t5.5 25.5l248 260q29 33 56 33zm96-404q145 0 248.5-102.5T897 662V506q0-63-66-64H270V338q0-92 49.5-140T461 150h84q86 0 126 21.5t85 76.5q18 23 45 4l59-41q27-18 8-43-49-61-78.5-90t-95-58.5T545-10h-84Q295-10 193.5 96.5T92 367v292q0 170 100.5 271.5T461 1032h84zm176-448v92q0 98-48 148t-128 50h-84q-190 0-191-200v-90h451z" glyph-name="ecircumflex" horiz-adv-x="989" unicode="ê"/><glyph d="M154 1403q0 31 30 31h109q31 0 31-31v-111q0-31-31-30H184q-31 0-30 30v111zm518 0q0 31 30 31h109q31 0 31-31v-111q0-31-31-30H702q-31 0-30 30v111zm-127-371q145 0 248.5-102.5T897 662V506q0-63-66-64H270V338q0-92 49.5-140T461 150h84q86 0 126 21.5t85 76.5q18 23 45 4l59-41q27-18 8-43-49-61-78.5-90t-95-58.5T545-10h-84Q295-10 193.5 96.5T92 367v292q0 170 100.5 271.5T461 1032h84zm176-448v92q0 98-48 148t-128 50h-84q-190 0-191-200v-90h451z" glyph-name="edieresis" horiz-adv-x="989" unicode="ë"/><glyph d="M295 1186H195q-18 0-45 37l-185 235q-12 16-5 26.5t26 10.5h157q25 0 43-37l129-235q10-16 4-26.5t-24-10.5zM164 993q0 31 31 31h112q31 0 31-31V31q0-31-31-31H195q-31 0-31 31v962z" glyph-name="igrave" horiz-adv-x="501" unicode="ì"/><glyph d="M354 1434h158q18 0 25.5-10.5T532 1397l-184-236q-27-37-45-37H203q-16 0-23.5 10.5t2.5 26.5l129 236q18 37 43 37zM164 993q0 31 31 31h112q31 0 31-31V31q0-31-31-31H195q-31 0-31 31v962z" glyph-name="iacute" horiz-adv-x="501" unicode="í"/><glyph d="M199 1436h102q20 0 57-33l246-260q12-14 6-26.5t-22-12.5H469q-18 0-53 39l-166 174-166-174q-35-39-53-39H-88q-16 0-22 13.5t6 25.5l247 260q29 33 56 33zm-35-443q0 31 31 31h112q31 0 31-31V31q0-31-31-31H195q-31 0-31 31v962z" glyph-name="icircumflex" horiz-adv-x="501" unicode="î"/><glyph d="M-94 1403q0 31 31 31H45q31 0 31-31v-111q0-31-31-30H-63q-31 0-31 30v111zm518 0q0 31 31 31h108q31 0 31-31v-111q0-31-31-30H455q-31 0-31 30v111zM164 993q0 31 31 31h112q31 0 31-31V31q0-31-31-31H195q-31 0-31 31v962z" glyph-name="idieresis" horiz-adv-x="501" unicode="ï"/><glyph d="M983 1487q18 0 24.5-10.5t-6.5-26.5l-98-127q63-102 76-227 39-352 8-682-18-203-123.5-318.5T600-20H498Q326-20 216 94T102 442q-8 476 420 476 207 0 305-82 5 82-17 204t-22 131l-43-55q-25-35-47-35H557q-18 0-24.5 10.5t4.5 26.5l151 197q-47 20-131 20h-49q-31 0-31 31v117q0 31 31 30h49q131 0 231-67l7 6q29 35 47 35h141zM285 418q0-260 221-260h76q96 0 158.5 56T819 434t-48.5 229.5T542 731t-210.5-70.5T285 418z" glyph-name="eth" horiz-adv-x="1112" unicode="ð"/><glyph d="M887 1300q12-18-19-40-100-72-184-78t-184 55q-94 53-134 50t-130-62q-14-10-33 16l-45 86q-10 20 16 41 102 74 186 79t180-52 137.5-54.5T809 1403q14 12 33-17zm-283-268q168 0 241-93t73-269V31q0-31-31-31H774q-31 0-31 31v649q0 100-39.5 147T571 874h-30q-90 0-154.5-38.5T297 752V31q0-31-31-31H154q-31 0-31 31v962q0 31 31 31h112q31 0 31-31V881q98 152 291 151h16z" glyph-name="ntilde" unicode="ñ"/><glyph d="M547 1186H446q-18 0-45 37l-184 235q-12 16-5 26.5t26 10.5h157q25 0 43-37l129-235q10-16 4-26.5t-24-10.5zm4-154q166 0 264-101.5T913 659V360q0-168-98-269T551-10h-96Q289-10 190.5 92.5T92 360v299q0 170 98.5 271.5T455 1032h96zm190-688v332q0 199-190 198h-96q-188 0-189-198V344q0-96 49.5-145T455 150h96q90 0 140 49t50 145z" glyph-name="ograve" horiz-adv-x="1005" unicode="ò"/><glyph d="M604 1434h158q18 0 25.5-10.5T782 1397l-184-236q-27-37-45-37H453q-16 0-23.5 10.5t2.5 26.5l129 236q18 37 43 37zm-53-402q166 0 264-101.5T913 659V360q0-168-98-269T551-10h-96Q289-10 190.5 92.5T92 360v299q0 170 98.5 271.5T455 1032h96zm190-688v332q0 199-190 198h-96q-188 0-189-198V344q0-96 49.5-145T455 150h96q90 0 140 49t50 145z" glyph-name="oacute" horiz-adv-x="1005" unicode="ó"/><glyph d="M451 1436h102q20 0 57-33l246-260q12-14 6-26.5t-22-12.5H721q-18 0-53 39l-166 174-166-174q-35-39-53-39H164q-16 0-22.5 13.5t5.5 25.5l248 260q29 33 56 33zm100-404q166 0 264-101.5T913 659V360q0-168-98-269T551-10h-96Q289-10 190.5 92.5T92 360v299q0 170 98.5 271.5T455 1032h96zm190-688v332q0 199-190 198h-96q-188 0-189-198V344q0-96 49.5-145T455 150h96q90 0 140 49t50 145z" glyph-name="ocircumflex" horiz-adv-x="1005" unicode="ô"/><glyph d="M866 1300q12-18-18-40-100-72-184-78t-182 51-137.5 54-129.5-62q-14-10-33 16l-45 86q-10 20 17 41 102 74 186 79t180-52 137-54.5 131 62.5q14 12 33-17zm-315-268q166 0 264-101.5T913 659V360q0-168-98-269T551-10h-96Q289-10 190.5 92.5T92 360v299q0 170 98.5 271.5T455 1032h96zm190-688v332q0 199-190 198h-96q-188 0-189-198V344q0-96 49.5-145T455 150h96q90 0 140 49t50 145z" glyph-name="otilde" horiz-adv-x="1005" unicode="õ"/><glyph d="M156 1403q0 31 30 31h109q31 0 31-31v-111q0-31-31-30H186q-31 0-30 30v111zm518 0q0 31 31 31h108q31 0 31-31v-111q0-31-31-30H705q-31 0-31 30v111zm-123-371q166 0 264-101.5T913 659V360q0-168-98-269T551-10h-96Q289-10 190.5 92.5T92 360v299q0 170 98.5 271.5T455 1032h96zm190-688v332q0 199-190 198h-96q-188 0-189-198V344q0-96 49.5-145T455 150h96q90 0 140 49t50 145z" glyph-name="odieresis" horiz-adv-x="1005" unicode="ö"/><glyph d="M422 1079q0 31 31 31h149q31 0 31-31V924q0-31-31-31H453q-31 0-31 31v155zm479-327q29 0 29-31V604q0-31-31-31H154q-31 0-31 31v117q0 31 31 31h747zM422 401q0 31 31 31h149q31 0 31-31V244q0-31-31-31H453q-31 0-31 31v157z" glyph-name="divide" horiz-adv-x="1052" unicode="÷"/><glyph d="M913 360q0-168-98-269T551-10h-96q-47 0-99 10-16-31-41-31H209q-37 0-21 31l31 66Q92 168 92 360v299q0 170 98.5 271.5T455 1032h96q55 0 104-12 12 25 37 24h107q37 0 20-30l-26-62q121-102 120-293V360zM455 874q-188 0-189-198V344q0-72 27-117l293 645-35 2h-96zm286-530v332q0 70-24 112L426 150h125q90 0 140 49t50 145z" glyph-name="oslash" horiz-adv-x="1005" unicode="ø"/><glyph d="M578 1186H477q-18 0-45 37l-184 235q-12 16-5 26.5t25 10.5h158q25 0 43-37l129-235q10-16 4-26.5t-24-10.5zM436-8Q123-8 123 354v639q0 31 31 31h112q31 0 31-31V344q0-100 40-146t134-46h29q90 0 154.5 37.5T743 272v721q0 31 31 31h113q31 0 31-31V31q0-31-31-31H774q-31 0-31 31v112Q645-9 453-8h-17z" glyph-name="ugrave" unicode="ù"/><glyph d="M635 1434h158q18 0 25-10.5t-5-26.5l-184-236q-27-37-45-37H483q-16 0-23 10.5t3 26.5l129 236q18 37 43 37zM436-8Q123-8 123 354v639q0 31 31 31h112q31 0 31-31V344q0-100 40-146t134-46h29q90 0 154.5 37.5T743 272v721q0 31 31 31h113q31 0 31-31V31q0-31-31-31H774q-31 0-31 31v112Q645-9 453-8h-17z" glyph-name="uacute" unicode="ú"/><glyph d="M479 1436h103q20 0 57-33l246-260q12-14 6-26.5t-23-12.5H750q-18 0-54 39l-166 174-165-174q-35-39-54-39H193q-16 0-22.5 13.5t5.5 25.5l248 260q29 33 55 33zM436-8Q123-8 123 354v639q0 31 31 31h112q31 0 31-31V344q0-100 40-146t134-46h29q90 0 154.5 37.5T743 272v721q0 31 31 31h113q31 0 31-31V31q0-31-31-31H774q-31 0-31 31v112Q645-9 453-8h-17z" glyph-name="ucircumflex" unicode="û"/><glyph d="M186 1403q0 31 31 31h109q31 0 30-31v-111q0-31-30-30H217q-31 0-31 30v111zm519 0q0 31 30 31h109q31 0 30-31v-111q0-31-30-30H735q-31 0-30 30v111zM436-8Q123-8 123 354v639q0 31 31 31h112q31 0 31-31V344q0-100 40-146t134-46h29q90 0 154.5 37.5T743 272v721q0 31 31 31h113q31 0 31-31V31q0-31-31-31H774q-31 0-31 31v112Q645-9 453-8h-17z" glyph-name="udieresis" unicode="ü"/><glyph d="M465 1124q-16 0-23.5 10.5t2.5 26.5l129 236q18 37 43 37h158q18 0 25.5-10.5T795 1397l-185-236q-27-37-45-37H465zm487-100q33 0 19-37L430-375q-14-35-45-35H270q-35 0-20 37L424 61 55 987q-14 37 19 37h119q27 0 40-35l277-710 283 710q14 35 43 35h116z" glyph-name="yacute" horiz-adv-x="1026" unicode="ý"/><glyph d="M594 1032q164 0 262-101.5T954 659V360q0-166-98-268T594-10h-62q-168 0-235 133v-502q0-31-29-31H154q-31 0-31 31v1835q0 31 31 31h112q31 0 31-31V907q63 125 235 125h62zm186-688v332q0 199-188 198H485q-188 0-188-198V344q0-96 49-145t139-49h107q90 0 139 49t49 145z" glyph-name="thorn" horiz-adv-x="1046" unicode="þ"/><glyph d="M199 1262q-31 0-31 30v111q0 31 31 31h108q31 0 31-31v-111q0-31-31-30H199zm518 0q-31 0-31 30v111q0 31 31 31h108q31 0 31-31v-111q0-31-31-30H717zm235-238q33 0 19-37L430-375q-14-35-45-35H270q-35 0-20 37L424 61 55 987q-14 37 19 37h119q27 0 40-35l277-710 283 710q14 35 43 35h116z" glyph-name="ydieresis" horiz-adv-x="1026" unicode="ÿ"/><glyph d="M242 1681q-31 0-31 31v100q0 31 31 31h663q31 0 31-31v-100q0-31-31-31H242zM1057 0H932q-29 0-37 33l-88 307H340L252 33q-8-33-37-33H90Q53 0 66 33l417 1368q10 33 39 33h103q29 0 39-33L1081 33q12-33-24-33zM385 498h377l-191 655z" glyph-name="Amacron" horiz-adv-x="1146" unicode="Ā"/><glyph d="M182 1272q-31 0-30 31v100q0 31 30 31h664q31 0 31-31v-100q0-31-31-31H182zM903 0H766q-33 0-33 49v94Q635-11 473-10h-76q-143 0-229 82T82 303q0 297 311 297h340v76q0 117-40 157.5T543 874h-49q-143 0-242-51-45-16-57 15l-35 71q-14 29 12 45 123 78 322 78h49q186 0 274-88t88-274V49q0-15 4-32t-6-17zM496 150q176 0 237 151v158H397q-143 0-143-155t143-154h99z" glyph-name="amacron" horiz-adv-x="1034" unicode="ā"/><glyph d="M524 1522q-276 0-286 290 0 31 30 31h88q31 0 31-31 10-160 145-159h82q139 0 146 159 2 31 31 31h90q31 0 30-31-10-291-288-290h-99zM1057 0H932q-29 0-37 33l-88 307H340L252 33q-8-33-37-33H90Q53 0 66 33l417 1368q10 33 39 33h103q29 0 39-33L1081 33q12-33-24-33zM385 498h377l-191 655z" glyph-name="Abreve" horiz-adv-x="1146" unicode="Ă"/><glyph d="M463 1112q-276 0-287 291 0 31 31 31h88q31 0 31-31 10-160 145-160h82q139 0 145 160 2 31 31 31h90q31 0 31-31-10-291-289-291h-98zM903 0H766q-33 0-33 49v94Q635-11 473-10h-76q-143 0-229 82T82 303q0 297 311 297h340v76q0 117-40 157.5T543 874h-49q-143 0-242-51-45-16-57 15l-35 71q-14 29 12 45 123 78 322 78h49q186 0 274-88t88-274V49q0-15 4-32t-6-17zM496 150q176 0 237 151v158H397q-143 0-143-155t143-154h99z" glyph-name="abreve" horiz-adv-x="1034" unicode="ă"/><glyph d="M1057-262q20 0 20-23v-80q0-20-20-20H821q-102 0-146 35t-44 126 38 117.5T796-70t118.5 22.5T944 0h-12q-29 0-37 33l-88 307H340L252 33q-8-33-37-33H90Q53 0 66 33l417 1368q10 33 39 33h103q29 0 39-33L1081 33q2-4 2-10 23-96-6.5-135.5T967-160q-25-2-103-12-76-10-88-15t-12-32 13.5-35 53.5-8h226zM385 498h377l-191 655z" glyph-name="Aogonek" horiz-adv-x="1155" unicode="Ą"/><glyph d="M879-262q20 0 20-23v-80q0-20-20-20H645q-102 0-146 35t-44 126 37.5 117.5T601-71t83 11q51 6 55 21 7 29 .5 49.5T733 49v94Q635-11 473-10h-76q-143 0-229 82T82 303q0 297 311 297h340v76q0 117-40 157.5T543 874h-49q-143 0-242-51-45-16-57 15l-35 71q-14 29 12 45 123 78 322 78h49q186 0 274-88t88-274V49q0-14 4-31v-2l2-4q39-158-120-172l-168-20q-25-4-30-14.5t-5-31 13-28.5 54-8h224zM496 150q176 0 237 151v158H397q-143 0-143-155t143-154h99z" glyph-name="aogonek" horiz-adv-x="1001" unicode="ą"/><glyph d="M711 1843h157q18 0 25.5-10t-4.5-27l-184-235q-27-37-46-37H559q-16 0-23.5 10t3.5 27l129 235q18 37 43 37zm348-1407q35 0 35-35-10-201-113.5-306T682-10H524q-201 0-306 111.5T113 416v602q0 203 105.5 314.5T524 1444h158q195 0 298-105.5t114-306.5q0-35-35-35H952q-37 0-37 35-6 135-60 192.5T682 1282H524q-125 0-179-61.5T291 1018V416q0-141 54-202.5T524 152h158q119 0 173 57t60 192q0 35 37 35h107z" glyph-name="Cacute" horiz-adv-x="1196" unicode="Ć"/><glyph d="M592 1434h158q18 0 25-10.5t-5-26.5l-184-236q-27-37-45-37H440q-16 0-23 10.5t3 26.5l129 236q18 37 43 37zm162-742q-31 0-37 35-27 145-172 145h-84q-190 0-191-198V338q0-92 49.5-140T461 150h84q101 0 151 48 18 18 52 56 20 23 49 4l67-49q25-16 6-43-49-59-78.5-89t-95-58.5T545-10h-84Q295-10 193.5 96.5T92 367v292q0 168 100.5 269.5T461 1030h84q129 0 227-83t119-218q2-37-33-37H754z" glyph-name="cacute" horiz-adv-x="974" unicode="ć"/><glyph d="M520 1812q0 31 31 31h108q31 0 31-31v-110q0-31-31-31H551q-31 0-31 31v110zm539-1376q35 0 35-35-10-201-113.5-306T682-10H524q-201 0-306 111.5T113 416v602q0 203 105.5 314.5T524 1444h158q195 0 298-105.5t114-306.5q0-35-35-35H952q-37 0-37 35-6 135-60 192.5T682 1282H524q-125 0-179-61.5T291 1018V416q0-141 54-202.5T524 152h158q119 0 173 57t60 192q0 35 37 35h107z" glyph-name="Cdotaccent" horiz-adv-x="1196" unicode="Ċ"/><glyph d="M403 1403q0 31 31 31h109q31 0 30-31v-111q0-31-30-30H434q-31 0-31 30v111zm351-711q-31 0-37 35-27 145-172 145h-84q-190 0-191-198V338q0-92 49.5-140T461 150h84q101 0 151 48 18 18 52 56 20 23 49 4l67-49q25-16 6-43-49-59-78.5-89t-95-58.5T545-10h-84Q295-10 193.5 96.5T92 367v292q0 168 100.5 269.5T461 1030h84q129 0 227-83t119-218q2-37-33-37H754z" glyph-name="cdotaccent" horiz-adv-x="974" unicode="ċ"/><glyph d="M268 1843h119q18 0 53-39l166-174 166 174q35 39 53 39h119q16 0 22.5-12t-5.5-27l-246-260q-37-33-58-33H555q-27 0-55 33l-248 260q-12 12-6 25.5t22 13.5zm791-1407q35 0 35-35-10-201-113.5-306T682-10H524q-201 0-306 111.5T113 416v602q0 203 105.5 314.5T524 1444h158q195 0 298-105.5t114-306.5q0-35-35-35H952q-37 0-37 35-6 135-60 192.5T682 1282H524q-125 0-179-61.5T291 1018V416q0-141 54-202.5T524 152h158q119 0 173 57t60 192q0 35 37 35h107z" glyph-name="Ccaron" horiz-adv-x="1196" unicode="Č"/><glyph d="M150 1434h118q18 0 54-39l165-174 166 174q35 39 54 39h118q16 0 22.5-12.5T842 1395l-246-260q-37-33-57-33H436q-27 0-55 33l-248 260q-12 12-6 25.5t23 13.5zm604-742q-31 0-37 35-27 145-172 145h-84q-190 0-191-198V338q0-92 49.5-140T461 150h84q101 0 151 48 18 18 52 56 20 23 49 4l67-49q25-16 6-43-49-59-78.5-89t-95-58.5T545-10h-84Q295-10 193.5 96.5T92 367v292q0 168 100.5 269.5T461 1030h84q129 0 227-83t119-218q2-37-33-37H754z" glyph-name="ccaron" horiz-adv-x="974" unicode="č"/><glyph d="M256 1843h119q18 0 53-39l166-174 166 174q35 39 53 39h119q16 0 22.5-12t-6.5-27l-246-260q-37-33-57-33H543q-27 0-56 33l-247 260q-12 12-6 25.5t22 13.5zm420-409q195 0 298-105.5t103-300.5V406q0-195-103.5-300.5T676 0H164q-31 0-31 31v1372q0 31 31 31h512zM899 406v622q0 131-52 187.5T676 1272H311V162h365q119 0 171 56.5T899 406z" glyph-name="Dcaron" horiz-adv-x="1169" unicode="Ď"/><glyph d="M893 1434q31 0 31-31V31q0-31-31-31H780q-31 0-30 31v94Q682-10 514-10h-61Q289-10 190.5 92.5T92 360v299q0 170 98.5 271.5T453 1032h61q170 0 236-125v496q0 31 30 31h113zm266-15q31 0 31-30v-168q0-221-100-340-14-16-33-2l-37 30q-18 14-2 37 51 80 51 223l12 21h-88q-31 0-30 31v168q0 31 30 30h166zM561 150q90 0 139.5 49T750 344v332q0 199-189 198H455q-188 0-189-198V344q0-96 49.5-145T455 150h106z" glyph-name="dcaron" horiz-adv-x="1392" unicode="ď"/><glyph d="M727 1434q195 0 298-106.5t103-299.5V406q0-193-103-299.5T727 0H215q-31 0-31 31v614H61q-31 0-30 31v96q0 31 30 31h123v600q0 31 31 31h512zM950 406v622q0 131-52 187.5T727 1272H362V803h240q31 0 31-31v-96q0-31-31-31H362V162h365q119 0 171 56.5T950 406z" glyph-name="Dcroat" horiz-adv-x="1220" unicode="Đ"/><glyph d="M975 1272q31 0 31-31v-100q0-31-31-31h-51V31q0-31-31-31H780q-31 0-30 31v94Q682-10 514-10h-61Q289-10 190.5 92.5T92 360v299q0 170 98.5 271.5T453 1032h61q170 0 236-125v203H311q-31 0-30 31v100q0 31 30 31h439v131q0 31 30 31h113q31 0 31-31v-131h51zM561 150q90 0 139.5 49T750 344v332q0 199-189 198H455q-188 0-189-198V344q0-96 49.5-145T455 150h106z" glyph-name="dcroat" horiz-adv-x="1056" unicode="đ"/><glyph d="M215 1681q-31 0-31 31v100q0 31 31 31h664q31 0 30-31v-100q0-31-30-31H215zm713-409H311V784h471q31 0 31-30V653q0-31-31-30H311V162h627q31 0 31-31V31q0-31-31-31H164q-31 0-31 31v1372q0 31 31 31h764q31 0 30-31v-100q1-31-30-31z" glyph-name="Emacron" horiz-adv-x="1050" unicode="Ē"/><glyph d="M166 1272q-31 0-31 31v100q0 31 31 31h663q31 0 31-31v-100q0-31-31-31H166zm379-240q145 0 248.5-102.5T897 662V506q0-63-66-64H270V338q0-92 49.5-140T461 150h84q86 0 126 21.5t85 76.5q18 23 45 4l59-41q27-18 8-43-49-61-78.5-90t-95-58.5T545-10h-84Q295-10 193.5 96.5T92 367v292q0 170 100.5 271.5T461 1032h84zm176-448v92q0 98-48 148t-128 50h-84q-190 0-191-200v-90h451z" glyph-name="emacron" horiz-adv-x="989" unicode="ē"/><glyph d="M461 1812q0 31 31 31h108q31 0 31-31v-110q0-31-31-31H492q-31 0-31 31v110zm467-540H311V784h471q31 0 31-30V653q0-31-31-30H311V162h627q31 0 31-31V31q0-31-31-31H164q-31 0-31 31v1372q0 31 31 31h764q31 0 30-31v-100q1-31-30-31z" glyph-name="Edotaccent" horiz-adv-x="1050" unicode="Ė"/><glyph d="M414 1403q0 31 30 31h109q31 0 31-31v-111q0-31-31-30H444q-31 0-30 30v111zm131-371q145 0 248.5-102.5T897 662V506q0-63-66-64H270V338q0-92 49.5-140T461 150h84q86 0 126 21.5t85 76.5q18 23 45 4l59-41q27-18 8-43-49-61-78.5-90t-95-58.5T545-10h-84Q295-10 193.5 96.5T92 367v292q0 170 100.5 271.5T461 1032h84zm176-448v92q0 98-48 148t-128 50h-84q-190 0-191-200v-90h451z" glyph-name="edotaccent" horiz-adv-x="989" unicode="ė"/><glyph d="M940-262q20 0 21-23v-80q0-20-21-20H705q-102 0-146.5 35T514-224t38 117.5T679-70t118.5 22.5T827 0H164q-31 0-31 31v1372q0 31 31 31h764q31 0 30-31v-100q0-31-30-31H311V784h471q31 0 31-30V653q0-31-31-30H311V162h627q31 0 31-31V23q35-167-101-181-185-19-203-26t-18-34.5 13.5-35.5 54.5-8h225z" glyph-name="Eogonek" horiz-adv-x="1058" unicode="Ę"/><glyph d="M545 1032q145 0 248.5-102.5T897 662V506q0-63-66-64H270V338q0-92 49.5-140T461 150h84q86 0 126 21.5t85 76.5q18 23 45 4l59-41q27-18 8-43Q774 49 692 16q20-94-10.5-131T573-160l-167-20q-25-4-30-14.5t-5-31 13-28.5 54-8h224q20 0 20-23v-80q0-20-20-20H428q-102 0-146 35t-44 126 37.5 117.5 124 36.5 115 20.5T549-10h-88Q295-10 193.5 96.5T92 367v292q0 170 100.5 271.5T461 1032h84zm176-448v92q0 98-48 148t-128 50h-84q-190 0-191-200v-90h451z" glyph-name="eogonek" horiz-adv-x="989" unicode="ę"/><glyph d="M209 1843h119q18 0 53-39l166-174 166 174q35 39 53 39h119q16 0 22-12t-6-27l-246-260q-37-33-57-33H496q-27 0-56 33l-247 260q-12 12-6 25.5t22 13.5zm719-571H311V784h471q31 0 31-30V653q0-31-31-30H311V162h627q31 0 31-31V31q0-31-31-31H164q-31 0-31 31v1372q0 31 31 31h764q31 0 30-31v-100q1-31-30-31z" glyph-name="Ecaron" horiz-adv-x="1050" unicode="Ě"/><glyph d="M160 1434h119q18 0 53-39l166-174 166 174q35 39 53 39h119q16 0 22-12.5t-6-26.5l-246-260q-37-33-57-33H446q-27 0-55 33l-248 260q-12 12-6 25.5t23 13.5zm385-402q145 0 248.5-102.5T897 662V506q0-63-66-64H270V338q0-92 49.5-140T461 150h84q86 0 126 21.5t85 76.5q18 23 45 4l59-41q27-18 8-43-49-61-78.5-90t-95-58.5T545-10h-84Q295-10 193.5 96.5T92 367v292q0 170 100.5 271.5T461 1032h84zm176-448v92q0 98-48 148t-128 50h-84q-190 0-191-200v-90h451z" glyph-name="ecaron" horiz-adv-x="989" unicode="ě"/><glyph d="M555 1522q-276 0-287 290 0 31 31 31h88q31 0 31-31 10-160 145-159h82q139 0 146 159 4 31 30 31h90q31 0 31-31-10-291-289-290h-98zm504-758q35 0 35-35V416q0-203-105.5-314.5T682-10H524q-201 0-306 111.5T113 416v602q0 203 105.5 314.5T524 1444h158q193 0 297-103.5t115-293.5q0-35-35-35H952q-37 0-37 35-6 125-61 180t-172 55H524q-125 0-179-61.5T291 1018V416q0-141 54-202.5T524 152h158q125 0 179 61t54 203v194H727q-35 0-35 35v84q0 35 35 35h332z" glyph-name="Gbreve" horiz-adv-x="1196" unicode="Ğ"/><glyph d="M473 1112q-276 0-287 291 0 31 31 31h88q31 0 31-31 10-160 145-160h82q139 0 146 160 4 31 30 31h90q31 0 31-31-10-291-289-291h-98zm420-88q31 0 31-31V-51q0-358-414-359-119 0-197 19-31 4-30 31v96q0 12 9 20t21 6q70-16 197-16t183.5 41T750-53v178Q682-10 514-10h-61Q289-10 190.5 92.5T92 360v299q0 170 98.5 271.5T453 1032h61q170 0 236-125v86q0 31 30 31h113zM561 150q90 0 139.5 49T750 344v332q0 199-189 198H455q-188 0-189-198V344q0-96 49.5-145T455 150h106z" glyph-name="gbreve" horiz-adv-x="1046" unicode="ğ"/><glyph d="M551 1671q-31 0-31 31v110q0 31 31 31h108q31 0 31-31v-110q0-31-31-31H551zm508-907q35 0 35-35V416q0-203-105.5-314.5T682-10H524q-201 0-306 111.5T113 416v602q0 203 105.5 314.5T524 1444h158q193 0 297-103.5t115-293.5q0-35-35-35H952q-37 0-37 35-6 125-61 180t-172 55H524q-125 0-179-61.5T291 1018V416q0-141 54-202.5T524 152h158q125 0 179 61t54 203v194H727q-35 0-35 35v84q0 35 35 35h332z" glyph-name="Gdotaccent" horiz-adv-x="1196" unicode="Ġ"/><glyph d="M469 1262q-31 0-31 30v111q0 31 31 31h109q31 0 30-31v-111q0-31-30-30H469zm424-238q31 0 31-31V-51q0-358-414-359-119 0-197 19-31 4-30 31v96q0 12 9 20t21 6q70-16 197-16t183.5 41T750-53v178Q682-10 514-10h-61Q289-10 190.5 92.5T92 360v299q0 170 98.5 271.5T453 1032h61q170 0 236-125v86q0 31 30 31h113zM561 150q90 0 139.5 49T750 344v332q0 199-189 198H455q-188 0-189-198V344q0-96 49.5-145T455 150h106z" glyph-name="gdotaccent" horiz-adv-x="1046" unicode="ġ"/><glyph d="M1059 764q35 0 35-35V416q0-203-105.5-314.5T682-10H524q-201 0-306 111.5T113 416v602q0 203 105.5 314.5T524 1444h158q193 0 297-103.5t115-293.5q0-35-35-35H952q-37 0-37 35-6 125-61 180t-172 55H524q-125 0-179-61.5T291 1018V416q0-141 54-202.5T524 152h158q125 0 179 61t54 203v194H727q-35 0-35 35v84q0 35 35 35h332zM680-168q31 0 31-31v-168q0-221-101-340-14-16-32-2l-37 31q-18 14-2 37 51 76 51 223l12 21h-88q-31 0-31 30v168q0 31 31 31h166z" glyph-name="Gcommaaccent" horiz-adv-x="1196" unicode="Ģ"/><glyph d="M412 1126q-31 0-31 31v168q0 223 100 342 14 16 35 2l35-31q16-16 2-39-51-76-51-221l-13-20h89q31 0 30-31v-170q0-31-30-31H412zm481-102q31 0 31-31V-51q0-358-414-359-119 0-197 19-31 4-30 31v96q0 12 9 20t21 6q70-16 197-16t183.5 41T750-53v178Q682-10 514-10h-61Q289-10 190.5 92.5T92 360v299q0 170 98.5 271.5T453 1032h61q170 0 236-125v86q0 31 30 31h113zM561 150q90 0 139.5 49T750 344v332q0 199-189 198H455q-188 0-189-198V344q0-96 49.5-145T455 150h106z" glyph-name="gcommaaccent" horiz-adv-x="1046" unicode="ģ"/><glyph d="M1022 1434q31 0 31-31V31q0-31-31-31H905q-31 0-31 31v592H311V31q0-31-30-31H164q-31 0-31 31v1372q0 31 31 31h117q31 0 30-31v-213h563v213q0 31 31 31h117zM311 784h563v240H311V784z" glyph-name="Hbar" horiz-adv-x="1185" unicode="Ħ"/><glyph d="M666 1032q168 0 240.5-93T979 670V31q0-31-31-31H836q-31 0-31 31v649q0 100-40 147t-132 47h-31q-90 0-154.5-38.5T358 752V31q0-31-30-31H215q-31 0-31 31v1093H92q-31 0-31 31v86q0 31 31 31h92v131q0 31 31 31h113q31 0 30-31v-131h242q31 0 31-31v-86q0-31-31-31H358V881q98 152 291 151h17z" glyph-name="hbar" horiz-adv-x="1101" unicode="ħ"/><glyph d="M-109 1681q-31 0-30 31v100q0 31 30 31h664q31 0 31-31v-100q0-31-31-31h-664zm242-278q0 31 31 31h119q31 0 30-31V31q0-31-30-31H164q-31 0-31 31v1372z" glyph-name="Imacron" horiz-adv-x="446" unicode="Ī"/><glyph d="M-82 1272q-31 0-31 31v100q0 31 31 31h664q31 0 30-31v-100q0-31-30-31H-82zm246-279q0 31 31 31h112q31 0 31-31V31q0-31-31-31H195q-31 0-31 31v962z" glyph-name="imacron" horiz-adv-x="501" unicode="ī"/><glyph d="M260-262q20 0 21-23v-80q0-20-21-20H25q-102 0-146.5 35T-166-222t45 118T6-68.5t106.5 28T137 33v1370q0 31 31 31h117q31 0 30-31V33q0-96-34.5-140.5T172-160L4-180q-27-4-32-14.5t-5-31 13.5-28.5 54.5-8h225z" glyph-name="Iogonek" horiz-adv-x="448" unicode="Į"/><glyph d="M195 1262q-31 0-31 30v111q0 31 31 31h108q31 0 31-31v-111q0-31-31-30H195zm112-238q31 0 31-31V31q0-18-14-27 16-86-14.5-121T203-160L35-180q-25-4-30-15t-5-31 13.5-28 54.5-8h223q20 0 20-23v-80q0-20-20-20H57q-102 0-146 35t-44 126 38 117.5T32-70t118.5 22.5T178 2q-14 6-14 29v962q0 31 31 31h112z" glyph-name="iogonek" horiz-adv-x="501" unicode="į"/><glyph d="M139 1812q0 31 31 31h109q31 0 30-31v-110q0-31-30-31H170q-31 0-31 31v110zm-6-409q0 31 31 31h119q31 0 30-31V31q0-31-30-31H164q-31 0-31 31v1372z" glyph-name="Idotaccent" horiz-adv-x="446" unicode="İ"/><glyph d="M164 993q0 31 31 31h112q31 0 31-31V31q0-31-31-31H195q-31 0-31 31v962z" glyph-name="dotlessi" horiz-adv-x="501" unicode="ı"/><glyph d="M133 1403q0 31 31 31h119q31 0 30-31V31q0-31-30-31H164q-31 0-31 31v1372zm1004-946v946q0 31 30 31h117q31 0 31-31V446q0-199-127-329.5T857-14 528 106q-18 16 2 41l82 76q18 23 43-2 78-72 208-71.5t202 88.5 72 219z" glyph-name="IJ" horiz-adv-x="1447" unicode="Ĳ"/><glyph d="M145 1403q0 31 31 31h109q31 0 30-31v-111q0-31-30-30H176q-31 0-31 30v111zm463 0q0 31 31 31h109q31 0 30-31v-111q0-31-30-30H639q-31 0-31 30v111zM143 993q0 31 31 31h113q31 0 30-31V31q0-31-30-31H174q-31 0-31 31v962zM608-106V993q0 31 31 31h109q31 0 30-31V-113q0-109-71.5-202T524-442q-27-8-39 20l-43 103q-10 29 19 38 57 20 102 68.5T608-106z" glyph-name="ij" horiz-adv-x="921" unicode="ĳ"/><glyph d="M1073 0H940q-37 0-55 29L436 655 311 498V31q0-31-30-31H164q-31 0-31 31v1372q0 31 31 31h117q31 0 30-31V741l508 662q20 31 49 31h133q18 0 22.5-14.5t-7.5-33.5L557 799l528-750q16-22 8-35.5T1073 0zM657-168q31 0 31-31v-168q0-221-100-340-14-16-33-2l-37 31q-18 14-2 37 51 76 51 223l13 21h-88q-31 0-31 30v168q0 31 31 31h165z" glyph-name="Kcommaaccent" horiz-adv-x="1165" unicode="Ķ"/><glyph d="M154 1434h112q31 0 31-31V586l410 415q18 23 41 23h129q20 0 26-17.5T891 971L514 588 942 47q12-14 6-30.5T922 0H809q-35 0-55 31L397 473 297 373V31q0-31-31-31H154q-31 0-31 31v1372q0 31 31 31zM543-168q31 0 30-31v-168q0-221-100-340-14-16-33-2l-37 31q-18 14-2 37 51 76 52 223l12 21h-88q-31 0-31 30v168q0 31 31 31h166z" glyph-name="kcommaaccent" horiz-adv-x="1021" unicode="ķ"/><glyph d="M324 1843h157q18 0 25.5-10t-4.5-27l-185-235q-27-37-45-37H172q-16 0-23.5 10t3.5 27l129 235q18 37 43 37zM874 162q31 0 31-31V31q0-31-31-31H164q-31 0-31 31v1372q0 31 31 31h117q31 0 30-31V162h563z" glyph-name="Lacute" horiz-adv-x="997" unicode="Ĺ"/><glyph d="M313 1843h158q18 0 25.5-10t-4.5-27l-185-235q-27-37-45-37H162q-16 0-23.5 10t2.5 27l129 235q18 37 43 37zm-190-440q0 31 31 31h112q31 0 31-31V31q0-31-31-31H154q-31 0-31 31v1372z" glyph-name="lacute" horiz-adv-x="419" unicode="ĺ"/><glyph d="M874 162q31 0 31-31V31q0-31-31-31H164q-31 0-31 31v1372q0 31 31 31h117q31 0 30-31V162h563zM573-168q31 0 31-31v-168q0-221-100-340-14-16-33-2l-37 31q-18 14-2 37 51 76 51 223l13 21h-88q-31 0-31 30v168q0 31 31 31h165z" glyph-name="Lcommaaccent" horiz-adv-x="997" unicode="Ļ"/><glyph d="M123 1403q0 31 31 31h112q31 0 31-31V31q0-31-31-31H154q-31 0-31 31v1372zM285-168q31 0 30-31v-168q0-221-100-340-14-16-33-2l-37 31q-18 14-2 37 51 76 52 223l12 21h-88q-31 0-31 30v168q0 31 31 31h166z" glyph-name="lcommaaccent" horiz-adv-x="419" unicode="ļ"/><glyph d="M874 162q31 0 31-31V31q0-31-31-31H164q-31 0-31 31v1372q0 31 31 31h117q31 0 30-31V162h563zM696 1419q31 0 31-30v-168q0-221-100-340-14-16-33-2l-37 30q-18 14-2 37 51 80 51 223l12 21h-88q-31 0-30 31v168q0 31 30 30h166z" glyph-name="Lcaron" horiz-adv-x="1038" unicode="Ľ"/><glyph d="M123 1403q0 31 31 31h112q31 0 31-31V31q0-31-31-31H154q-31 0-31 31v1372zm442 16q31 0 31-30v-168q0-221-100-340-14-16-33-2l-37 30q-18 14-2 37 51 80 51 223l12 21h-88q-31 0-30 31v168q0 31 30 30h166z" glyph-name="lcaron" horiz-adv-x="655" unicode="ľ"/><glyph d="M874 162q31 0 31-31V31q0-31-31-31H164q-31 0-31 31v1372q0 31 31 31h117q31 0 30-31V162h563zM567 932q0 31 31 31h166q31 0 31-31V756q0-31-31-31H598q-31 0-31 31v176z" glyph-name="Ldot" horiz-adv-x="997" unicode="Ŀ"/><glyph d="M123 1403q0 31 31 31h112q31 0 31-31V31q0-31-31-31H154q-31 0-31 31v1372zm237-598q0 31 31 31h166q31 0 31-31V631q0-31-31-31H391q-31 0-31 31v174z" glyph-name="ldot" horiz-adv-x="649" unicode="ŀ"/><glyph d="M1014 162q31 0 30-31V31q0-31-30-31H301q-31 0-31 31v258q-18-27-39-27H90q-18 0-25.5 10.5T70 299l200 262v842q0 31 31 31h117q31 0 31-31V793l104 135q27 35 47 35h141q18 0 24.5-10.5T760 926L449 520V162h565z" glyph-name="Lslash" horiz-adv-x="1245" unicode="Ł"/><glyph d="M545 963q18 0 24-10.5t-6-26.5L391 743V31q0-31-31-31H244q-31 0-31 31v528q-4-2-12-2H80q-18 0-25.5 11.5T59 594l154 160v649q0 31 31 31h116q31 0 31-31V942q18 20 33 21h121z" glyph-name="lslash" horiz-adv-x="622" unicode="ł"/><glyph d="M717 1843h157q18 0 25.5-10t-4.5-27l-184-235q-27-37-45-37H565q-16 0-23 10t3 27l129 235q18 37 43 37zm344-409q31 0 31-31V31q0-31-31-31H881q-25 0-37 23L311 1174V31q0-31-30-31H164q-31 0-31 31v1372q0 31 31 31h180q25 0 37-23L913 262v1141q0 31 31 31h117z" glyph-name="Nacute" horiz-adv-x="1224" unicode="Ń"/><glyph d="M625 1434h157q18 0 25.5-10.5T803 1397l-185-236q-27-37-45-37H473q-16 0-23.5 10.5t3.5 26.5l129 236q18 37 43 37zm-21-402q168 0 241-93t73-269V31q0-31-31-31H774q-31 0-31 31v649q0 100-39.5 147T571 874h-30q-90 0-154.5-38.5T297 752V31q0-31-31-31H154q-31 0-31 31v962q0 31 31 31h112q31 0 31-31V881q98 152 291 151h16z" glyph-name="nacute" unicode="ń"/><glyph d="M1061 1434q31 0 31-31V31q0-31-31-31H881q-25 0-37 23L311 1174V31q0-31-30-31H164q-31 0-31 31v1372q0 31 31 31h180q25 0 37-23L913 262v1141q0 31 31 31h117zM688-168q31 0 31-31v-168q0-221-101-340-14-16-32-2l-37 31q-18 14-2 37 51 76 51 223l12 21h-88q-31 0-30 30v168q0 31 30 31h166z" glyph-name="Ncommaaccent" horiz-adv-x="1224" unicode="Ņ"/><glyph d="M604 1032q168 0 241-93t73-269V31q0-31-31-31H774q-31 0-31 31v649q0 100-39.5 147T571 874h-30q-90 0-154.5-38.5T297 752V31q0-31-31-31H154q-31 0-31 31v962q0 31 31 31h112q31 0 31-31V881q98 152 291 151h16zm-8-1200q31 0 31-31v-168q0-221-101-340-14-16-32-2l-37 31q-18 14-2 37 51 76 51 223l12 21h-88q-31 0-31 30v168q0 31 31 31h166z" glyph-name="ncommaaccent" unicode="ņ"/><glyph d="M274 1843h119q18 0 53-39l166-174 166 174q35 39 53 39h119q16 0 22.5-12t-5.5-27l-246-260q-37-33-57-33H561q-27 0-55 33l-248 260q-12 12-6 25.5t22 13.5zm787-409q31 0 31-31V31q0-31-31-31H881q-25 0-37 23L311 1174V31q0-31-30-31H164q-31 0-31 31v1372q0 31 31 31h180q25 0 37-23L913 262v1141q0 31 31 31h117z" glyph-name="Ncaron" horiz-adv-x="1224" unicode="Ň"/><glyph d="M182 1434h119q18 0 53-39l166-174 166 174q35 39 53 39h119q16 0 22.5-12.5T874 1395l-245-260q-37-33-58-33H469q-27 0-55 33l-248 260q-12 12-6 25.5t22 13.5zm422-402q168 0 241-93t73-269V31q0-31-31-31H774q-31 0-31 31v649q0 100-39.5 147T571 874h-30q-90 0-154.5-38.5T297 752V31q0-31-31-31H154q-31 0-31 31v962q0 31 31 31h112q31 0 31-31V881q98 152 291 151h16z" glyph-name="ncaron" unicode="ň"/><glyph d="M1077 1487q31 0 31-31V4q0-213-130-347T674-477h-64q-100 0-197.5 52T262-287q-16 23 8 41l86 66q18 16 41-8 86-111 213-111h54q117 0 191.5 85T930 12v17L311 1190V31q0-31-30-31H164q-31 0-31 31v1425q0 31 31 31h172q25 0 37-23L930 406v1050q0 31 31 31h116z" glyph-name="Eng" horiz-adv-x="1245" unicode="Ŋ"/><glyph d="M604 1032q168 0 241-93t73-269V-29q0-160-101.5-284.5T571-453q-27-2-30 27l-31 113q-2 27 27 32 84 10 145 85t61 173v703q0 100-39.5 147T571 874h-30q-90 0-154.5-38.5T297 752V31q0-31-31-31H154q-31 0-31 31v962q0 31 31 31h112q31 0 31-31V881q98 152 291 151h16z" glyph-name="eng" horiz-adv-x="1060" unicode="ŋ"/><glyph d="M281 1681q-31 0-31 31v100q0 31 31 31h663q31 0 31-31v-100q0-31-31-31H281zm417-237q201 0 306.5-111.5T1110 1018V416q0-203-105.5-314.5T698-10H524q-201 0-306 111.5T113 416v602q0 203 105.5 314.5T524 1444h174zM932 416v602q0 141-55.5 202.5T698 1282H524q-125 0-179-61.5T291 1018V416q0-141 54-202.5T524 152h174q123 0 178.5 61.5T932 416z" glyph-name="Omacron" horiz-adv-x="1222" unicode="Ō"/><glyph d="M170 1272q-31 0-31 31v100q0 31 31 31h664q31 0 30-31v-100q0-31-30-31H170zm381-240q166 0 264-101.5T913 659V360q0-168-98-269T551-10h-96Q289-10 190.5 92.5T92 360v299q0 170 98.5 271.5T455 1032h96zm190-688v332q0 199-190 198h-96q-188 0-189-198V344q0-96 49.5-145T455 150h96q90 0 140 49t50 145z" glyph-name="omacron" horiz-adv-x="1005" unicode="ō"/><glyph d="M555 1843h158q18 0 25-10t-5-27l-184-235q-27-37-45-37H403q-16 0-23 10t3 27l129 235q18 37 43 37zm317 0h158q18 0 25.5-10t-4.5-27l-185-235q-27-37-45-37H721q-16 0-23.5 10t2.5 27l129 235q18 37 43 37zm-174-399q201 0 306.5-111.5T1110 1018V416q0-203-105.5-314.5T698-10H524q-201 0-306 111.5T113 416v602q0 203 105.5 314.5T524 1444h174zM932 416v602q0 141-55.5 202.5T698 1282H524q-125 0-179-61.5T291 1018V416q0-141 54-202.5T524 152h174q123 0 178.5 61.5T932 416z" glyph-name="Ohungarumlaut" horiz-adv-x="1222" unicode="Ő"/><glyph d="M444 1434h158q18 0 25.5-10.5T623 1397l-185-236q-27-37-45-37H293q-16 0-23.5 10.5t2.5 26.5l129 236q18 37 43 37zm318 0h158q18 0 25-10.5t-5-26.5l-184-236q-27-37-45-37H610q-16 0-23 10.5t3 26.5l129 236q18 37 43 37zm-211-402q166 0 264-101.5T913 659V360q0-168-98-269T551-10h-96Q289-10 190.5 92.5T92 360v299q0 170 98.5 271.5T455 1032h96zm190-688v332q0 199-190 198h-96q-188 0-189-198V344q0-96 49.5-145T455 150h96q90 0 140 49t50 145z" glyph-name="ohungarumlaut" horiz-adv-x="1005" unicode="ő"/><glyph d="M1735 162q31 0 30-31V31q0-31-30-31H963q-31 0-31 31v14q-92-55-234-55H524q-201 0-306 111.5T113 416v602q0 203 105.5 314.5T524 1444h174q141 0 234-55v14q0 31 31 31h761q31 0 31-31v-100q0-31-31-31h-614V784h471q31 0 31-30V653q0-31-31-30h-471V162h625zM932 416v602q0 141-55.5 202.5T698 1282H524q-125 0-179-61.5T291 1018V416q0-141 54-202.5T524 152h174q123 0 178.5 61.5T932 416z" glyph-name="OE" horiz-adv-x="1847" unicode="Œ"/><glyph d="M1184 1032q143 0 246.5-102.5T1534 662V506q0-63-64-64H913v-82q0-43-4-63 23-147 189-147h86q112 0 160 42 18 16 43.5 47.5T1440 252l57-41q27-18 8-43-51-61-78.5-90t-93-58.5T1184-10h-86q-166 0-273 112Q725-11 551-10h-96Q289-10 190.5 92.5T92 360v299q0 170 98.5 271.5T455 1032h96q174 0 272-110 100 111 275 110h86zm176-448v92q0 98-48 148t-128 50h-86q-166 0-187-153 2-18 2-62v-75h447zM551 150q160 0 184 137-6 41-6 80v292q0 41 6 78-27 137-184 137h-96q-188 0-189-198V344q0-96 49.5-145T455 150h96z" glyph-name="oe" horiz-adv-x="1648" unicode="œ"/><glyph d="M555 1534q-16 0-23.5 10t3.5 27l129 235q18 37 43 37h157q18 0 25.5-10t-4.5-27l-185-235q-27-37-45-37H555zM1075 0H961q-33 0-41 27L713 494q-16-2-51-2H311V31q0-31-30-31H164q-31 0-31 31v1372q0 31 31 31h498q199 0 302-106.5t103-303.5V901q0-270-186-362l223-498q16-41-29-41zM311 653h351q121 0 174 56.5T889 901v123q0 135-53.5 191.5T662 1272H311V653z" glyph-name="Racute" horiz-adv-x="1189" unicode="Ŕ"/><glyph d="M547 1434h158q18 0 25-10.5t-5-26.5l-184-236q-27-37-45-37H395q-16 0-23 10.5t3 26.5l129 236q18 37 43 37zm18-560h-24q-90 0-154.5-38.5T297 752V31q0-31-31-31H154q-31 0-31 31v962q0 31 31 31h112q31 0 31-31V881q96 152 307 151 80 0 141-24 29-14 15-47l-43-87q-12-28-53-14t-99 14z" glyph-name="racute" horiz-adv-x="817" unicode="ŕ"/><glyph d="M1075 0H961q-33 0-41 27L713 494q-16-2-51-2H311V31q0-31-30-31H164q-31 0-31 31v1372q0 31 31 31h498q199 0 302-106.5t103-303.5V901q0-270-186-362l223-498q16-41-29-41zM311 653h351q121 0 174 56.5T889 901v123q0 135-53.5 191.5T662 1272H311V653zm367-821q31 0 31-31v-168q0-221-101-340-14-16-33-2l-36 31q-18 14-2 37 51 76 51 223l12 21h-88q-31 0-31 30v168q0 31 31 31h166z" glyph-name="Rcommaaccent" horiz-adv-x="1189" unicode="Ŗ"/><glyph d="M565 874h-24q-90 0-154.5-38.5T297 752V31q0-31-31-31H154q-31 0-31 31v962q0 31 31 31h112q31 0 31-31V881q96 152 307 151 80 0 141-24 29-14 15-47l-43-87q-12-28-53-14t-99 14zM281-168q31 0 30-31v-168q0-221-100-340-14-16-33-2l-37 31q-18 14-2 37 51 76 51 223l13 21h-88q-31 0-31 30v168q0 31 31 31h166z" glyph-name="rcommaaccent" horiz-adv-x="817" unicode="ŗ"/><glyph d="M264 1843h119q18 0 53-39l166-174 166 174q35 39 53 39h119q16 0 22.5-12t-6.5-27l-245-260q-37-33-58-33H551q-26 0-55 33l-248 260q-12 12-6 25.5t22 13.5zM1075 0H961q-33 0-41 27L713 494q-16-2-51-2H311V31q0-31-30-31H164q-31 0-31 31v1372q0 31 31 31h498q199 0 302-106.5t103-303.5V901q0-270-186-362l223-498q16-41-29-41zM311 653h351q121 0 174 56.5T889 901v123q0 135-53.5 191.5T662 1272H311V653z" glyph-name="Rcaron" horiz-adv-x="1189" unicode="Ř"/><glyph d="M104 1434h119q18 0 53-39l166-174 166 174q35 39 54 39h118q16 0 22.5-12.5T797 1395l-246-260q-37-33-57-33H391q-27 0-55 33L88 1395q-12 12-6 25.5t22 13.5zm461-560h-24q-90 0-154.5-38.5T297 752V31q0-31-31-31H154q-31 0-31 31v962q0 31 31 31h112q31 0 31-31V881q96 152 307 151 80 0 141-24 29-14 15-47l-43-87q-12-28-53-14t-99 14z" glyph-name="rcaron" horiz-adv-x="817" unicode="ř"/><glyph d="M700 1843h158q18 0 25.5-10t-4.5-27l-185-235q-27-37-45-37H549q-16 0-23.5 10t2.5 27l129 235q18 37 43 37zM676-10H514Q324-10 218.5 92.5T102 381q0 35 35 35h109q35 0 35-35 6-121 61-175t172-54h162q125 0 179 58t54 197-85 189q-46 27-82.5 38T631 662l-103 20q-205 41-307 125t-102 264q0 373 413 373h111q186 0 289.5-101.5T1047 1059q0-35-35-35H903q-35 0-35 35-6 119-59 171t-166 52H532q-127 0-181-44t-54-164 50-161 185-67l103-21q98-20 166.5-43.5T942 712q145-93 145-298T982 99.5 676-10z" glyph-name="Sacute" horiz-adv-x="1189" unicode="Ś"/><glyph d="M588 1434h157q18 0 25.5-10.5T766 1397l-184-236q-27-37-45-37H436q-16 0-23 10.5t3 26.5l129 236q18 37 43 37zM879 295q0-154-96.5-229.5T520-10h-74Q133-10 92 252q-6 31 31 31h106q29 0 41-27 18-55 57.5-82T442 147h84q178 0 179 144 0 82-49.5 110.5T481 442q-197 18-287 86t-90 213.5 92.5 217T446 1030h68q152 0 245-73.5T856 748q0-33-29-33H723q-35 0-43 35-23 125-170 124h-61q-170 0-170-124 0-70 45.5-105T481 598q207-25 302.5-87T879 295z" glyph-name="sacute" horiz-adv-x="960" unicode="ś"/><glyph d="M918-258q0-154-189-154H608q-174 0-178 162 0 20 19 21h102q20 0 20-17 0-51 82-51h39q47 0 65.5 8t18.5 35-28.5 35T639-201q-80 11-99 13-41 5-65 45.5T516-10h-2Q324-10 218.5 92.5T102 381q0 35 35 35h109q35 0 35-35 6-121 61-175t172-54h162q125 0 179 58t54 197-85 189q-46 27-82.5 38T631 662l-103 20q-205 41-307 125t-102 264q0 373 413 373h111q186 0 289.5-101.5T1047 1059q0-35-35-35H903q-35 0-35 35-6 119-59 171t-166 52H532q-127 0-181-44t-54-164 50-161 185-67l103-21q98-20 166.5-43.5T942 712q145-93 145-298T982 99.5 676-10h-6q-23-38-20-47t3-12q0-4 12.5-10.5T690-86l27-4q106-12 153.5-44T918-258z" glyph-name="Scedilla" horiz-adv-x="1189" unicode="Ş"/><glyph d="M807-258q0-154-189-154H498q-174 0-179 162 0 20 19 21h102q20 0 21-17 0-51 82-51h39q47 0 65.5 8t18.5 35-29 35-109 18-103.5 13.5-43 17.5-18 57T408-8Q129 8 92 252q-6 31 31 31h106q29 0 41-27 18-55 57.5-82T442 147h84q178 0 179 144 0 82-49.5 110.5T481 442q-197 18-287 86t-90 213.5 92.5 217T446 1030h68q152 0 245-73.5T856 748q0-33-29-33H723q-35 0-43 35-23 125-170 124h-61q-170 0-170-124 0-70 46-105t156-47q207-25 302.5-87T879 299.5 794 75 561-8q-34-53-17-64 30-18 99-24t116.5-38T807-258z" glyph-name="scedilla" horiz-adv-x="960" unicode="ş"/><glyph d="M258 1843h119q18 0 53-39l166-174 166 174q35 39 53 39h119q16 0 22.5-12t-6.5-27l-245-260q-37-33-58-33H545q-27 0-56 33l-247 260q-12 12-6 25.5t22 13.5zM676-10H514Q324-10 218.5 92.5T102 381q0 35 35 35h109q35 0 35-35 6-121 61-175t172-54h162q125 0 179 58t54 197-85 189q-46 27-82.5 38T631 662l-103 20q-205 41-307 125t-102 264q0 373 413 373h111q186 0 289.5-101.5T1047 1059q0-35-35-35H903q-35 0-35 35-6 119-59 171t-166 52H532q-127 0-181-44t-54-164 50-161 185-67l103-21q98-20 166.5-43.5T942 712q145-93 145-298T982 99.5 676-10z" glyph-name="Scaron" horiz-adv-x="1189" unicode="Š"/><glyph d="M145 1434h119q18 0 53-39l166-174 166 174q35 39 53 39h119q16 0 22.5-12.5T838 1395l-246-260q-37-33-57-33H432q-27 0-55 33l-248 260q-12 12-6 25.5t22 13.5zM879 295q0-154-96.5-229.5T520-10h-74Q133-10 92 252q-6 31 31 31h106q29 0 41-27 18-55 57.5-82T442 147h84q178 0 179 144 0 82-49.5 110.5T481 442q-197 18-287 86t-90 213.5 92.5 217T446 1030h68q152 0 245-73.5T856 748q0-33-29-33H723q-35 0-43 35-23 125-170 124h-61q-170 0-170-124 0-70 45.5-105T481 598q207-25 302.5-87T879 295z" glyph-name="scaron" horiz-adv-x="960" unicode="š"/><glyph d="M940 1434q31 0 31-31v-100q0-31-31-31H616V31q0-14-8-23 0-6-13.5-26.5t-11-40T596-81q30-9 93.5-15t111-38T848-258q0-154-189-154H539q-174 0-179 162 0 20 19 21h102q20 0 21-17 0-51 82-51h39q47 0 65.5 8t18.5 35-29 35-109 18-103.5 13.5-43 18.5-18 59T453-2l4 4q-18 6-19 29v1241H113q-31 0-31 31v100q0 31 31 31h827z" glyph-name="Tcommaaccent" horiz-adv-x="1052" unicode="Ţ"/><glyph d="M766-258q0-154-188-154H457q-174 0-178 162 0 20 18 21h100q20 0 21-17 2-51 82-51h41q47 0 65.5 8t18.5 35-29 35q-28 8-108 18-80 11-100 13-42 5-65.5 46.5T369-2q12 14 16 14-98 27-138 100.5T207 315v551H102q-31 0-30 31v94q0 33 30 33h105v125q0 31 31 31h112q31 0 31-31v-125h156q33 0 32-31v-96q0-31-30-31H381V313q0-86 32.5-121.5T532 154q37 0 33-39l-2-84q-4-35-41-35-37-59-18.5-69.5t93-19.5 122-41T766-258z" glyph-name="tcommaaccent" horiz-adv-x="643" unicode="ţ"/><glyph d="M188 1843h119q18 0 53-39l166-174 166 174q35 39 53 39h119q16 0 22.5-12t-5.5-27l-246-260q-37-33-57-33H475q-26 0-55 33l-248 260q-12 12-6 25.5t22 13.5zm752-409q31 0 31-31v-100q0-31-31-31H616V31q0-31-30-31H469q-31 0-31 31v1241H113q-31 0-31 31v100q0 31 31 31h827z" glyph-name="Tcaron" horiz-adv-x="1052" unicode="Ť"/><glyph d="M811 1419q31 0 31-30v-168q0-221-101-340-14-16-32-2l-37 30q-18 14-2 37 51 80 51 223l12 21h-88q-31 0-31 31v168q0 31 31 30h166zm-274-395q33 0 32-31v-96q0-31-30-31H381V313q0-86 32.5-121.5T532 154q37 0 33-39l-2-84q-4-35-41-35-176 2-245.5 78T207 315v551H102q-31 0-30 31v94q0 33 30 33h105v125q0 31 31 31h112q31 0 31-31v-125h156z" glyph-name="tcaron" horiz-adv-x="782" unicode="ť"/><glyph d="M940 1434q31 0 31-31v-100q0-31-31-31H616V938h201q31 0 31-31V807q0-31-31-31H616V31q0-31-30-31H469q-31 0-31 31v745H154q-31 0-31 31v100q0 31 31 31h284v334H113q-31 0-31 31v100q0 31 31 31h827z" glyph-name="Tbar" horiz-adv-x="1052" unicode="Ŧ"/><glyph d="M539 866H381V651h149q31 0 31-30V504q0-31-31-31H381V313q0-86 32.5-121.5T532 154q37 0 33-39l-2-84q-4-35-41-35-176 2-245.5 78T207 315v158H102q-31 0-30 31v117q0 31 30 30h105v215H102q-31 0-30 31v94q0 33 30 33h105v125q0 31 31 31h112q31 0 31-31v-125h156q33 0 32-31v-96q1-31-30-31z" glyph-name="tbar" horiz-adv-x="661" unicode="ŧ"/><glyph d="M997 1710q12-18-18-41-100-72-184-78t-185 56q-94 53-134 50t-130-63q-14-10-33 17l-45 86q-10 20 17 41 102 74 186 79t184-57q92-53 133-50t132 62q14 12 32-16zm97-276q37 0 36-35V416q0-205-104-315.5T719-10H545q-203 0-307.5 110.5T133 416v983q0 35 35 35h108q35 0 35-35V416q0-137 56.5-200.5T545 152h174q121 0 177 63.5T952 416v983q0 35 35 35h107z" glyph-name="Utilde" horiz-adv-x="1263" unicode="Ũ"/><glyph d="M895 1300q12-18-18-40-100-72-184.5-78T508 1237q-94 53-134 50t-130-62q-14-10-33 16l-45 86q-10 20 16 41 102 74 186.5 79t180.5-52 137-54.5 131 62.5q14 12 33-17zM436-8Q123-8 123 354v639q0 31 31 31h112q31 0 31-31V344q0-100 40-146t134-46h29q90 0 154.5 37.5T743 272v721q0 31 31 31h113q31 0 31-31V31q0-31-31-31H774q-31 0-31 31v112Q645-9 453-8h-17z" glyph-name="utilde" unicode="ũ"/><glyph d="M301 1681q-31 0-31 31v100q0 31 31 31h664q31 0 30-31v-100q0-31-30-31H301zm793-247q37 0 36-35V416q0-205-104-315.5T719-10H545q-203 0-307.5 110.5T133 416v983q0 35 35 35h108q35 0 35-35V416q0-137 56.5-200.5T545 152h174q121 0 177 63.5T952 416v983q0 35 35 35h107z" glyph-name="Umacron" horiz-adv-x="1263" unicode="Ū"/><glyph d="M199 1272q-31 0-31 31v100q0 31 31 31h663q31 0 31-31v-100q0-31-31-31H199zM436-8Q123-8 123 354v639q0 31 31 31h112q31 0 31-31V344q0-100 40-146t134-46h29q90 0 154.5 37.5T743 272v721q0 31 31 31h113q31 0 31-31V31q0-31-31-31H774q-31 0-31 31v112Q645-9 453-8h-17z" glyph-name="umacron" unicode="ū"/><glyph d="M938 1843q31 0 31-31-10-291-289-290h-98q-276 0-287 290 0 31 31 31h88q31 0 30-31 10-160 146-159h82q139 0 145 159 2 31 31 31h90zm156-409q37 0 36-35V416q0-205-104-315.5T719-10H545q-203 0-307.5 110.5T133 416v983q0 35 35 35h108q35 0 35-35V416q0-137 56.5-200.5T545 152h174q121 0 177 63.5T952 416v983q0 35 35 35h107z" glyph-name="Ubreve" horiz-adv-x="1263" unicode="Ŭ"/><glyph d="M836 1434q31 0 30-31-10-291-288-291h-99q-276 0-286 291 0 31 30 31h88q31 0 31-31 10-160 145-160h82q139 0 146 160 2 31 30 31h91zM436-8Q123-8 123 354v639q0 31 31 31h112q31 0 31-31V344q0-100 40-146t134-46h29q90 0 154.5 37.5T743 272v721q0 31 31 31h113q31 0 31-31V31q0-31-31-31H774q-31 0-31 31v112Q645-9 453-8h-17z" glyph-name="ubreve" unicode="ŭ"/><glyph d="M645 1876q74 0 123-49t49-123v-23q0-72-48-121t-124-49h-27q-74 0-123 49.5T446 1681v23q0 74 49.5 123t122.5 49h27zm66-174q0 70-70 70h-18q-33 0-51.5-19.5T553 1702v-16q0-31 18.5-50.5T623 1616h18q70 0 70 70v16zm383-268q37 0 36-35V416q0-205-104-315.5T719-10H545q-203 0-307.5 110.5T133 416v983q0 35 35 35h108q35 0 35-35V416q0-137 56.5-200.5T545 152h174q121 0 177 63.5T952 416v983q0 35 35 35h107z" glyph-name="Uring" horiz-adv-x="1263" unicode="Ů"/><glyph d="M543 1466q74 0 123-49t49-123v-22q0-72-48.5-121T543 1102h-27q-74 0-123 49t-49 121v22q0 74 49 123t123 49h27zm65-174q0 70-69 70h-19q-33 0-51-19.5t-18-50.5v-16q0-31 18-50.5t51-19.5h19q70 0 69 70v16zM436-8Q123-8 123 354v639q0 31 31 31h112q31 0 31-31V344q0-100 40-146t134-46h29q90 0 154.5 37.5T743 272v721q0 31 31 31h113q31 0 31-31V31q0-31-31-31H774q-31 0-31 31v112Q645-9 453-8h-17z" glyph-name="uring" unicode="ů"/><glyph d="M575 1843h158q18 0 25.5-10t-4.5-27l-185-235q-27-37-45-37H424q-16 0-23.5 10t2.5 27l129 235q18 37 43 37zm318 0h158q18 0 25-10t-5-27l-184-235q-27-37-45-37H741q-16 0-23 10t3 27l129 235q18 37 43 37zm201-409q37 0 36-35V416q0-205-104-315.5T719-10H545q-203 0-307.5 110.5T133 416v983q0 35 35 35h108q35 0 35-35V416q0-137 56.5-200.5T545 152h174q121 0 177 63.5T952 416v983q0 35 35 35h107z" glyph-name="Uhungarumlaut" horiz-adv-x="1263" unicode="Ű"/><glyph d="M473 1434h158q18 0 25.5-10.5T651 1397l-184-236q-27-37-45-37H322q-16 0-23.5 10.5t2.5 26.5l129 236q18 37 43 37zm318 0h157q18 0 25.5-10.5T969 1397l-185-236q-27-37-45-37H639q-16 0-23.5 10.5t2.5 26.5l130 236q18 37 43 37zM436-8Q123-8 123 354v639q0 31 31 31h112q31 0 31-31V344q0-100 40-146t134-46h29q90 0 154.5 37.5T743 272v721q0 31 31 31h113q31 0 31-31V31q0-31-31-31H774q-31 0-31 31v112Q645-9 453-8h-17z" glyph-name="uhungarumlaut" unicode="ű"/><glyph d="M1094 1434q37 0 36-35V416q0-180-81.5-289T807-4q12-82-17.5-115T686-160l-168-20q-27-4-32-14.5t-5-31 13.5-28.5 54.5-8h225q20 0 21-23v-80q0-20-21-20H539q-102 0-146.5 35T348-224t39 117.5T500-71t96 13q57 12 66 48H545q-203 0-307.5 110.5T133 416v983q0 35 35 35h108q35 0 35-35V416q0-137 56.5-200.5T545 152h174q121 0 177 63.5T952 416v983q0 35 35 35h107z" glyph-name="Uogonek" horiz-adv-x="1263" unicode="Ų"/><glyph d="M575-225.5q0-20.5 13.5-28.5t54.5-8h223q20 0 21-23v-80q0-20-21-20H633q-102 0-146.5 35T442-224t38 117.5T607-69t112.5 26.5T743 27v116Q645-9 453-8h-17Q123-8 123 354v639q0 31 31 31h112q31 0 31-31V344q0-100 40-146t134-46h29q90 0 154.5 37.5T743 272v721q0 31 31 31h113q31 0 31-31V20q-2-90-35-131t-105-49l-168-20q-24-3-29.5-14t-5.5-31.5z" glyph-name="uogonek" unicode="ų"/><glyph d="M979 1898q20 0 57-32l246-260q12-14 6-26.5t-22-12.5h-119q-18 0-53 39l-166 174-166-174q-35-39-53-39H590q-16 0-22.5 13.5t5.5 25.5l248 260q29 33 56 32h102zm774-464q33 0 27-31L1452 31q-8-31-39-31h-100q-31 0-39 31L926 1143 580 31Q570 0 541 0H438q-31 0-39 31L74 1403q-6 31 24 31h127q31 0 37-31L502 313l332 1090q10 31 38 31h109q31 0 39-31l332-1090 239 1090q2 31 35 31h127z" glyph-name="Wcircumflex" horiz-adv-x="1853" unicode="Ŵ"/><glyph d="M727 1436h102q20 0 58-33l246-260q12-14 6-26.5t-23-12.5H997q-18 0-53 39l-166 174-166-174q-35-39-53-39H440q-16 0-22 13.5t6 25.5l248 260q29 33 55 33zm719-412q37 0 24-35L1188 39q-12-39-47-39h-94q-35 0-48 39-170 545-221 731-37-135-223-731-12-39-47-39h-94q-35 0-47 39L84 989q-10 35 25 35h114q27 0 37-35 25-90 92.5-356T465 211q160 553 221 778 10 35 37 35h106q33 0 39-35 61-225 222-778 45 158 114.5 427t91.5 351q10 35 37 35h113z" glyph-name="wcircumflex" horiz-adv-x="1554" unicode="ŵ"/><glyph d="M535 1845h102q20 0 57-33l246-260q12-14 6-26.5t-22-12.5H805q-18 0-53 39l-166 174-166-174q-35-39-53-39H248q-16 0-22.5 13.5t5.5 25.5l248 260q29 33 56 33zm546-411q39 0 21-31L674 616V31q0-31-31-31H526q-31 0-30 31v585L68 1403q-18 31 20 31h133q23 0 41-31l322-604 323 604q14 31 41 31h133z" glyph-name="Ycircumflex" horiz-adv-x="1169" unicode="Ŷ"/><glyph d="M176 1104q-16 0-22.5 13t6.5 26l248 260q29 33 55 33h102q20 0 58-33l245-260q12-14 6-26.5t-22-12.5H733q-18 0-53 39l-166 174-166-174q-35-39-53-39H176zm776-80q33 0 19-37L430-375q-14-35-45-35H270q-35 0-20 37L424 61 55 987q-14 37 19 37h119q27 0 40-35l277-710 283 710q14 35 43 35h116z" glyph-name="ycircumflex" horiz-adv-x="1026" unicode="ŷ"/><glyph d="M240 1812q0 31 30 31h109q31 0 31-31v-110q0-31-31-31H270q-31 0-30 31v110zm518 0q0 31 30 31h109q31 0 31-31v-110q0-31-31-31H788q-31 0-30 31v110zm323-378q39 0 21-31L674 616V31q0-31-31-31H526q-31 0-30 31v585L68 1403q-18 31 20 31h133q23 0 41-31l322-604 323 604q14 31 41 31h133z" glyph-name="Ydieresis" horiz-adv-x="1169" unicode="Ÿ"/><glyph d="M627 1843h157q18 0 25.5-10t-4.5-27l-184-235q-27-37-46-37H475q-16 0-23.5 10t3.5 27l129 235q18 37 43 37zm325-514q0-18-6-29L299 166h623q31 0 30-31V31q0-31-30-31H123Q92 0 92 31v75q0 18 6 27l647 1135H125q-31 0-31 30v105q0 31 31 31h797q31 0 30-31v-74z" glyph-name="Zacute" horiz-adv-x="1044" unicode="Ź"/><glyph d="M567 1434h158q18 0 25.5-10.5T745 1397l-184-236q-27-37-45-37H416q-16 0-23.5 10.5t2.5 26.5l129 236q18 37 43 37zm254-535q0-14-10-29L293 162h495q33 0 33-31V31q0-31-30-31H113Q82 0 82 31v88q0 18 10 31l518 712H137q-31 0-31 31v98q0 33 31 33h651q33 0 33-31v-94z" glyph-name="zacute" horiz-adv-x="903" unicode="ź"/><glyph d="M438 1812q0 31 31 31h109q31 0 30-31v-110q0-31-30-31H469q-31 0-31 31v110zm514-483q0-18-6-29L299 166h623q31 0 30-31V31q0-31-30-31H123Q92 0 92 31v75q0 18 6 27l647 1135H125q-31 0-31 30v105q0 31 31 31h797q31 0 30-31v-74z" glyph-name="Zdotaccent" horiz-adv-x="1044" unicode="Ż"/><glyph d="M379 1403q0 31 31 31h108q31 0 31-31v-111q0-31-31-30H410q-31 0-31 30v111zm442-504q0-14-10-29L293 162h495q33 0 33-31V31q0-31-30-31H113Q82 0 82 31v88q0 18 10 31l518 712H137q-31 0-31 31v98q0 33 31 33h651q33 0 33-31v-94z" glyph-name="zdotaccent" horiz-adv-x="903" unicode="ż"/><glyph d="M184 1843h119q18 0 53-39l166-174 166 174q35 39 53 39h119q16 0 22.5-12t-5.5-27l-246-260q-37-33-58-33H471q-27 0-55 33l-248 260q-12 12-6 25.5t22 13.5zm768-514q0-18-6-29L299 166h623q31 0 30-31V31q0-31-30-31H123Q92 0 92 31v75q0 18 6 27l647 1135H125q-31 0-31 30v105q0 31 31 31h797q31 0 30-31v-74z" glyph-name="Zcaron" horiz-adv-x="1044" unicode="Ž"/><glyph d="M125 1434h119q18 0 53-39l166-174 166 174q35 39 53 39h119q16 0 22-12.5t-6-26.5l-246-260q-37-33-57-33H412q-27 0-56 33l-247 260q-12 12-6 25.5t22 13.5zm696-535q0-14-10-29L293 162h495q33 0 33-31V31q0-31-30-31H113Q82 0 82 31v88q0 18 10 31l518 712H137q-31 0-31 31v98q0 33 31 33h651q33 0 33-31v-94z" glyph-name="zcaron" horiz-adv-x="903" unicode="ž"/><glyph d="M739 1487q31 0 31-31v-117q0-31-31-30h-18q-211 0-211-234V-25q0-174-91-279.5T176-410h-74q-31 0-30 31v117q0 31 30 31h19q211 0 211 235v780H227q-31 0-30 31v117q0 31 30 31h105v139q0 174 91 279.5T666 1487h73z" glyph-name="florin" horiz-adv-x="800" unicode="ƒ"/><glyph d="M236 1843h118q18 0 54-39l165-174 166 174q35 39 54 39h118q16 0 22.5-12t-5.5-27l-246-260q-37-33-57-33H522q-26 0-55 33l-248 260q-12 12-6 25.5t23 13.5zM1057 0H932q-29 0-37 33l-88 307H340L252 33q-8-33-37-33H90Q53 0 66 33l417 1368q10 33 39 33h103q29 0 39-33L1081 33q12-33-24-33zM385 498h377l-191 655z" glyph-name="uni01CD" horiz-adv-x="1146" unicode="Ǎ"/><glyph d="M176 1434h119q18 0 53-39l166-174 166 174q35 39 53 39h119q16 0 22.5-12.5T868 1395l-245-260q-37-33-58-33H463q-26 0-55 33l-248 260q-12 12-6 25.5t22 13.5zM903 0H766q-33 0-33 49v94Q635-11 473-10h-76q-143 0-229 82T82 303q0 297 311 297h340v76q0 117-40 157.5T543 874h-49q-143 0-242-51-45-16-57 15l-35 71q-14 29 12 45 123 78 322 78h49q186 0 274-88t88-274V49q0-15 4-32t-6-17zM496 150q176 0 237 151v158H397q-143 0-143-155t143-154h99z" glyph-name="uni01CE" horiz-adv-x="1034" unicode="ǎ"/><glyph d="M-115 1843H4q18 0 53-39l166-174 166 174q35 39 53 39h119q16 0 22.5-12t-5.5-27l-246-260q-37-33-58-33H172q-27 0-55 33l-248 260q-12 12-6 25.5t22 13.5zm248-440q0 31 31 31h119q31 0 30-31V31q0-31-30-31H164q-31 0-31 31v1372z" glyph-name="uni01CF" horiz-adv-x="446" unicode="Ǐ"/><glyph d="M-88 1434H31q18 0 53-39l166-174 166 174q35 39 53 39h119q16 0 22-12.5t-6-26.5l-246-260q-37-33-57-33H199q-27 0-56 33l-247 260q-12 12-6 25.5t22 13.5zm252-441q0 31 31 31h112q31 0 31-31V31q0-31-31-31H195q-31 0-31 31v962z" glyph-name="uni01D0" horiz-adv-x="501" unicode="ǐ"/><glyph d="M274 1843h119q18 0 53-39l166-174 166 174q35 39 53 39h119q16 0 22.5-12t-5.5-27l-246-260q-37-33-57-33H561q-27 0-55 33l-248 260q-12 12-6 25.5t22 13.5zm424-399q201 0 306.5-111.5T1110 1018V416q0-203-105.5-314.5T698-10H524q-201 0-306 111.5T113 416v602q0 203 105.5 314.5T524 1444h174zM932 416v602q0 141-55.5 202.5T698 1282H524q-125 0-179-61.5T291 1018V416q0-141 54-202.5T524 152h174q123 0 178.5 61.5T932 416z" glyph-name="uni01D1" horiz-adv-x="1222" unicode="Ǒ"/><glyph d="M162 1434h119q18 0 53-39l166-174 166 174q35 39 53 39h119q16 0 22-12.5t-6-26.5l-246-260q-37-33-57-33H449q-27 0-56 33l-248 260q-12 12-6 25.5t23 13.5zm389-402q166 0 264-101.5T913 659V360q0-168-98-269T551-10h-96Q289-10 190.5 92.5T92 360v299q0 170 98.5 271.5T455 1032h96zm190-688v332q0 199-190 198h-96q-188 0-189-198V344q0-96 49.5-145T455 150h96q90 0 140 49t50 145z" glyph-name="uni01D2" horiz-adv-x="1005" unicode="ǒ"/><glyph d="M193 1434h118q18 0 54-39l165-174 166 174q35 39 54 39h118q16 0 22.5-12.5T885 1395l-246-260q-37-33-57-33H479q-27 0-55 33l-248 260q-12 12-6 25.5t23 13.5zM436-8Q123-8 123 354v639q0 31 31 31h112q31 0 31-31V344q0-100 40-146t134-46h29q90 0 154.5 37.5T743 272v721q0 31 31 31h113q31 0 31-31V31q0-31-31-31H774q-31 0-31 31v112Q645-9 453-8h-17z" glyph-name="uni01D4" unicode="ǔ"/><glyph d="M268 1843h119q18 0 53-39l166-174 166 174q35 39 53 39h119q16 0 22.5-12t-5.5-27l-246-260q-37-33-58-33H555q-26 0-55 33l-248 260q-12 12-6 25.5t22 13.5zm791-1079q35 0 35-35V416q0-203-105.5-314.5T682-10H524q-201 0-306 111.5T113 416v602q0 203 105.5 314.5T524 1444h158q193 0 297-103.5t115-293.5q0-35-35-35H952q-37 0-37 35-6 125-61 180t-172 55H524q-125 0-179-61.5T291 1018V416q0-141 54-202.5T524 152h158q125 0 179 61t54 203v194H727q-35 0-35 35v84q0 35 35 35h332z" glyph-name="Gcaron" horiz-adv-x="1196" unicode="Ǧ"/><glyph d="M186 1434h119q18 0 53-39l166-174 166 174q35 39 53 39h119q16 0 22.5-12.5T879 1395l-246-260q-37-33-58-33H473q-26 0-55 33l-248 260q-12 12-6 25.5t22 13.5zm707-410q31 0 31-31V-51q0-358-414-359-119 0-197 19-31 4-30 31v96q0 12 9 20t21 6q70-16 197-16t183.5 41T750-53v178Q682-10 514-10h-61Q289-10 190.5 92.5T92 360v299q0 170 98.5 271.5T453 1032h61q170 0 236-125v86q0 31 30 31h113zM561 150q90 0 139.5 49T750 344v332q0 199-189 198H455q-188 0-189-198V344q0-96 49.5-145T455 150h106z" glyph-name="gcaron" horiz-adv-x="1046" unicode="ǧ"/><glyph d="M676-10H514Q324-10 218.5 92.5T102 381q0 35 35 35h109q35 0 35-35 6-121 61-175t172-54h162q125 0 179 58t54 197-85 189q-46 27-82.5 38T631 662l-103 20q-205 41-307 125t-102 264q0 373 413 373h111q186 0 289.5-101.5T1047 1059q0-35-35-35H903q-35 0-35 35-6 119-59 171t-166 52H532q-127 0-181-44t-54-164 50-161 185-67l103-21q98-20 166.5-43.5T942 712q145-93 145-298T982 99.5 676-10zm-6-158q31 0 30-31v-168q0-221-100-340-14-16-33-2l-37 31q-18 14-2 37 51 76 52 223l12 21h-88q-31 0-31 30v168q0 31 31 31h166z" glyph-name="Scommaaccent" horiz-adv-x="1189" unicode="Ș"/><glyph d="M879 295q0-154-96.5-229.5T520-10h-74Q133-10 92 252q-6 31 31 31h106q29 0 41-27 18-55 57.5-82T442 147h84q178 0 179 144 0 82-49.5 110.5T481 442q-197 18-287 86t-90 213.5 92.5 217T446 1030h68q152 0 245-73.5T856 748q0-33-29-33H723q-35 0-43 35-23 125-170 124h-61q-170 0-170-124 0-70 45.5-105T481 598q207-25 302.5-87T879 295zM559-168q31 0 31-31v-168q0-221-101-340-14-16-32-2l-37 31q-18 14-2 37 51 76 51 223l12 21h-88q-31 0-31 30v168q0 31 31 31h166z" glyph-name="scommaaccent" horiz-adv-x="960" unicode="ș"/><glyph d="M940 1434q31 0 31-31v-100q0-31-31-31H616V31q0-31-30-31H469q-31 0-31 31v1241H113q-31 0-31 31v100q0 31 31 31h827zM602-168q31 0 31-31v-168q0-221-101-340-14-16-32-2l-37 31q-18 14-2 37 51 76 51 223l12 21h-88q-31 0-30 30v168q0 31 30 31h166z" glyph-name="uni021A" horiz-adv-x="1052" unicode="Ț"/><glyph d="M539 866H381V313q0-86 32.5-121.5T532 154q37 0 33-39l-2-84q-4-35-41-35-176 2-245.5 78T207 315v551H102q-31 0-30 31v94q0 33 30 33h105v125q0 31 31 31h112q31 0 31-31v-125h156q33 0 32-31v-96q1-31-30-31zM442-168q31 0 31-31v-168q0-221-100-340-14-16-33-2l-37 31q-18 14-2 37 51 76 51 223l13 21h-89q-31 0-30 30v168q0 31 30 31h166z" glyph-name="uni021B" horiz-adv-x="651" unicode="ț"/><glyph d="M938 162q31 0 31-31V31q0-31-31-31H608l-2-2q-25-37-22.5-56.5T596-81q30-9 93.5-15t111-38T848-258q0-154-189-154H539q-174 0-179 162 0 20 19 21h102q20 0 21-17 0-51 82-51h39q47 0 65.5 8t18.5 35-29 35-109 18-103.5 13.5-43 18.5-18 59T453-2l2 2H164q-31 0-31 31v1372q0 31 31 31h764q31 0 30-31v-100q0-31-30-31H311V784h471q31 0 31-30V653q0-31-31-30H311V162h627z" glyph-name="uni0228" horiz-adv-x="1050" unicode="Ȩ"/><glyph d="M821-258q0-154-188-154H512q-174 0-178 162 0 20 18 21h103q20 0 20-17 0-51 82-51h39q47 0 65.5 8t18.5 35-28.5 35T543-201t-104 13.5-43 17.5-18 57T422-8Q272 4 182 107.5T92 367v292q0 170 100.5 271.5T461 1032h84q145 0 248.5-102.5T897 662V506q0-63-66-64H270V338q0-92 49.5-140T461 150h84q86 0 126 21.5t85 76.5q18 23 45 4l59-41q27-18 8-43-47-57-74.5-85t-86-58.5T575-10q-8-10-12-19.5T556-46t-1-13.5 2-9.5q0-5 12-11t25-6l27-4q106-12 153-44t47-124zM721 584v92q0 98-48 148t-128 50h-84q-190 0-191-200v-90h451z" glyph-name="uni0229" horiz-adv-x="989" unicode="ȩ"/><glyph d="M158-106V993q0 31 30 31h109q31 0 31-31V-113q0-109-72-202T74-442q-27-8-39 20L-8-319q-10 29 18 38 57 20 102.5 68.5T158-106z" glyph-name="uni0237" horiz-adv-x="491" unicode="ȷ"/><glyph d="M412 1436h102q25 0 57-33l248-260q12-14 6-26.5t-22-12.5H684q-16 0-55 39l-164 174-166-174q-39-39-53-39H127q-16 0-22 13.5t6 25.5l245 260q33 33 56 33z" glyph-name="circumflex" horiz-adv-x="929" unicode="ˆ"/><glyph d="M127 1434h119q18 0 53-39l166-174 166 174q35 39 53 39h119q16 0 22-12.5t-6-26.5l-246-260q-37-33-57-33H414q-27 0-56 33l-247 260q-12 12-6 25.5t22 13.5z" glyph-name="caron" horiz-adv-x="929" unicode="ˇ"/><glyph d="M745 1434q31 0 31-31-10-291-289-291h-98q-276 0-287 291 0 31 31 31h88q31 0 31-31 10-160 145-160h82q139 0 146 160 2 31 30 31h90z" glyph-name="breve" horiz-adv-x="878" unicode="˘"/><glyph d="M102 1403q0 31 31 31h109q31 0 30-31v-111q0-31-30-30H133q-31 0-31 30v111z" glyph-name="dotaccent" horiz-adv-x="374" unicode="˙"/><glyph d="M301 1466q74 0 123-49t49-123v-22q0-72-48-121t-124-49h-27q-74 0-123 49t-49 121v22q0 74 49.5 123t122.5 49h27zm66-174q0 70-70 70h-18q-33 0-51.5-19.5T209 1292v-16q0-31 18.5-50.5T279 1206h18q70 0 70 70v16z" glyph-name="ring" horiz-adv-x="575" unicode="˚"/><glyph d="M547-393q0-20-21-21H293q-102 0-146.5 35T102-253t38 118 119 37 104.5 15 40 25T415-16t2 26 17 4h96q20 0 25-16 23-100-7-139t-110-47l-168-21q-24-3-29-13.5t-5-31.5 13-29 54-8h223q20 0 21-22v-80z" glyph-name="ogonek" horiz-adv-x="667" unicode="˛"/><glyph d="M836 1300q12-18-19-40-100-72-184-78t-184 55q-94 53-134.5 50T184 1225q-14-10-32 16l-46 86q-10 20 17 41 102 74 186.5 79t180.5-52 137-54.5 131 62.5q14 12 33-17z" glyph-name="tilde" horiz-adv-x="942" unicode="˜"/><glyph d="M281 1434h157q18 0 25.5-10.5T459 1397l-185-236q-27-37-45-37H129q-16 0-23.5 10.5t3.5 26.5l129 236q18 37 43 37zm317 0h158q18 0 25-10.5t-5-26.5l-184-236q-27-37-45-37H446q-16 0-22 10.5t2 26.5l129 236q23 37 43 37z" glyph-name="hungarumlaut" horiz-adv-x="886" unicode="˝"/><glyph d="M-147-168q31 0 30-31v-168q0-221-100-340-14-16-33-2l-37 31q-18 14-2 37 51 76 51 223l13 21h-88q-31 0-31 30v168q0 31 31 31h166z" glyph-name="uni0326" horiz-adv-x="0" unicode="̦"/><glyph d="M1133 0H119Q84 0 96 33l441 1427q10 33 38 33h103q29 0 39-33L1157 33q8-33-24-33zM311 178h627L629 1225z" glyph-name="Delta" horiz-adv-x="1251" unicode="Δ"/><glyph d="M1077 545q0-207-149-367h116q31 0 31-31V31q0-31-31-31H680q-31 0-31 31v172q0 31 31 30h6q92 0 152.5 91.5T899 537v485q0 147-69.5 229T647 1333h-94q-113 0-182.5-82T301 1022V537q0-121 61.5-212.5T514 233h6q31 0 31-30V31q0-31-31-31H156q-31 0-31 31v116q0 31 31 31h116Q122 338 123 545v477q0 203 127 346t303 143h94q176 0 303-143t127-346V545z" glyph-name="Omega" horiz-adv-x="1200" unicode="Ω"/><glyph d="M887 1024q31 0 31-31V31q0-31-31-31H774q-31 0-31 31v112Q645-9 453-8h-17q-80 0-141 22v-393q0-31-31-31H154q-31 0-31 31V993q0 31 31 31h112q31 0 31-31V344q0-100 40-146t134-46h29q90 0 154.5 37.5T743 272v721q0 31 31 31h113z" glyph-name="mu" horiz-adv-x="1026" unicode="μ"/><glyph d="M1030 963q31 0 31-31V813q0-29-31-29h-49V31q0-31-31-31H834q-31 0-31 31v753H358V31q0-31-30-31H211q-31 0-31 31v753h-47q-31 0-31 31v117q0 31 29 31h899z" glyph-name="pi" horiz-adv-x="1163" unicode="π"/><glyph d="M203 1812q0 31 30 31h109q31 0 31-31v-110q0-31-31-31H233q-31 0-30 31v110zm518 0q0 31 31 31h108q31 0 31-31v-110q0-31-31-31H752q-31 0-31 31v110zm207-540H311V784h471q31 0 31-30V653q0-31-31-30H311V162h627q31 0 31-31V31q0-31-31-31H164q-31 0-31 31v1372q0 31 31 31h764q31 0 30-31v-100q1-31-30-31z" glyph-name="afii10023" horiz-adv-x="1050" unicode="Ё"/><glyph d="M477 1534q-16 0-23.5 10t3.5 27l129 235q18 37 43 37h157q18 0 25.5-10t-4.5-27l-184-235q-27-37-45-37H477zm459-100q31 0 31-31v-96q0-31-31-31H311V31q0-31-30-31H164q-31 0-31 31v1372q0 31 31 31h772z" glyph-name="afii10052" horiz-adv-x="1048" unicode="Ѓ"/><glyph d="M1059 436q35 0 35-35-10-201-113.5-306T682-10H524q-201 0-306 111.5T113 416v602q0 203 105.5 314.5T524 1444h158q195 0 298-105.5t114-306.5q0-35-35-35H952q-37 0-37 35-6 135-60 192.5T682 1282H524q-125 0-179-61.5T291 1018V827h325q31 0 31-30V690q0-31-31-31H291V416q0-141 54-202.5T524 152h158q119 0 173 57t60 192q0 35 37 35h107z" glyph-name="afii10053" horiz-adv-x="1196" unicode="Є"/><glyph d="M133 1403q0 31 31 31h119q31 0 30-31V31q0-31-30-31H164q-31 0-31 31v1372z" glyph-name="afii10055" horiz-adv-x="446" unicode="І"/><glyph d="M-121 1812q0 31 31 31H18q31 0 31-31v-110q0-31-31-31H-90q-31 0-31 31v110zm518 0q0 31 31 31h109q31 0 30-31v-110q0-31-30-31H428q-31 0-31 31v110zm-264-409q0 31 31 31h119q31 0 30-31V31q0-31-30-31H164q-31 0-31 31v1372z" glyph-name="afii10056" horiz-adv-x="446" unicode="Ї"/><glyph d="M690 457v946q0 31 31 31h117q31 0 30-31V446q0-199-127-329.5T410-14 82 106q-18 16 2 41l82 76q18 23 43-2 82-71 210-71t199.5 88T690 457z" glyph-name="afii10057" horiz-adv-x="1001" unicode="Ј"/><glyph d="M688 1843h158q18 0 25.5-10t-5.5-27l-184-235q-27-37-45-37H537q-16 0-23.5 10t2.5 27l129 235q18 37 43 37zM1073 0H940q-37 0-55 29L436 655 311 498V31q0-31-30-31H164q-31 0-31 31v1372q0 31 31 31h117q31 0 30-31V741l508 662q20 31 49 31h133q18 0 22.5-14.5t-7.5-33.5L557 799l528-750q16-22 8-35.5T1073 0z" glyph-name="afii10061" horiz-adv-x="1165" unicode="Ќ"/><glyph d="M659 1595H559q-18 0-45 37l-184 236q-12 16-5 26.5t25 10.5h158q25 0 43-37l129-236q10-16 4-26.5t-25-10.5zm-495-161h117q31 0 30-31V262l533 1149q12 23 37 23h180q31 0 31-31V31q0-31-31-31H944q-31 0-31 31v1143L381 23Q369 0 344 0H164q-31 0-31 31v1372q0 31 31 31z" glyph-name="uni040D" horiz-adv-x="1226" unicode="Ѝ"/><glyph d="M545 1522q-276 0-287 290 0 31 31 31h88q31 0 31-31 10-160 145-159h82q139 0 145 159 2 31 31 31h90q31 0 31-31-10-291-289-290h-98zm532-88q37 0 19-37L461 35Q447 0 416 0H293q-39 0-21 37l242 516-426 844q-18 37 18 37h130q27 0 43-35l323-654 305 654q14 35 45 35h125z" glyph-name="afii10062" horiz-adv-x="1183" unicode="Ў"/><glyph d="M1057 0H932q-29 0-37 33l-88 307H340L252 33q-8-33-37-33H90Q53 0 66 33l417 1368q10 33 39 33h103q29 0 39-33L1081 33q12-33-24-33zM385 498h377l-191 655z" glyph-name="afii10017" horiz-adv-x="1146" unicode="А"/><glyph d="M662 942q199 0 302-106.5T1067 532V410q0-197-103.5-303.5T662 0H164q-31 0-31 31v1372q0 31 31 31h754q31 0 30-31v-103q0-25-30-24H311V942h351zm227-532v122q0 135-53.5 191.5T662 780H311V162h351q121 0 174 56.5T889 410z" glyph-name="afii10018" horiz-adv-x="1148" unicode="Б"/><glyph d="M1077 379q0-197-102.5-288T666 0H164q-31 0-31 31v1372q0 31 31 31h498q184 0 271-90.5t87-280T918 776q160-92 159-311v-86zm-235 679q0 130-37 172t-143 42H311V834h351q104 0 142 47t38 177zm57-679v86q0 131-52 176t-181 45H311V162h355q129 0 181 44t52 173z" glyph-name="afii10019" horiz-adv-x="1159" unicode="В"/><glyph d="M936 1434q31 0 31-31v-96q0-31-31-31H311V31q0-31-30-31H164q-31 0-31 31v1372q0 31 31 31h772z" glyph-name="afii10020" horiz-adv-x="1048" unicode="Г"/><glyph d="M1350 160q31 0 30-31v-297q0-31-30-31h-117q-31 0-31 31V0H229v-168q0-31-30-31H82q-31 0-31 31v297q0 31 31 31h100q73 0 117.5 176.5T344 741v662q0 31 31 31h827q31 0 31-31V160h117zm-295 0v1116H522V692q0-342-90-532h623z" glyph-name="afii10021" horiz-adv-x="1452" unicode="Д"/><glyph d="M928 1272H311V784h471q31 0 31-30V653q0-31-31-30H311V162h627q31 0 31-31V31q0-31-31-31H164q-31 0-31 31v1372q0 31 31 31h764q31 0 30-31v-100q1-31-30-31z" glyph-name="afii10022" horiz-adv-x="1050" unicode="Е"/><glyph d="M1794 0h-135q-35 0-55 29l-447 626-125-157V31q0-31-31-31H885q-31 0-31 31v467L729 655 281 29Q263 0 225 0H92Q67 0 72 30q2 12 8 19l528 750-458 587q-12 18-8.5 33t22.5 15h131q29 0 51-31l508-662v662q0 31 31 31h116q31 0 31-31V741l508 662q20 31 49 31h133q18 0 22.5-14.5t-9.5-33.5l-457-587 528-750q16-22 8-35.5T1794 0z" glyph-name="afii10024" horiz-adv-x="1886" unicode="Ж"/><glyph d="M1073 382q0-174-106.5-283T662-10H504Q309-10 204.5 96.5T92 401q0 35 35 35h106q37 0 37-35 6-135 60.5-192T504 152h158q123 0 178 59t55 191-63.5 197T625 668H489q-31 0-30 30v99q0 31 30 30h136q141 4 192 60.5t51 189.5q0 205-233 205H528q-119 0-173-57.5T295 1032q0-35-35-35H152q-35 0-35 35 10 199 114.5 305.5T528 1444h107q197 0 304.5-102.5T1047 1080t-53.5-224T813 750q127-39 193.5-116.5T1073 382z" glyph-name="afii10025" horiz-adv-x="1165" unicode="З"/><glyph d="M164 1434h117q31 0 30-31V262l533 1149q12 23 37 23h180q31 0 31-31V31q0-31-31-31H944q-31 0-31 31v1143L381 23Q369 0 344 0H164q-31 0-31 31v1372q0 31 31 31z" glyph-name="afii10026" horiz-adv-x="1226" unicode="И"/><glyph d="M918 1843q31 0 30-31-10-291-289-290h-98q-276 0-287 290 0 31 31 31h88q31 0 31-31 10-160 145-159h82q139 0 146 159 2 31 30 31h91zm-754-409h117q31 0 30-31V262l533 1149q12 23 37 23h180q31 0 31-31V31q0-31-31-31H944q-31 0-31 31v1143L381 23Q369 0 344 0H164q-31 0-31 31v1372q0 31 31 31z" glyph-name="afii10027" horiz-adv-x="1226" unicode="Й"/><glyph d="M1073 0H940q-37 0-55 29L436 655 311 498V31q0-31-30-31H164q-31 0-31 31v1372q0 31 31 31h117q31 0 30-31V741l508 662q20 31 49 31h133q18 0 22.5-14.5t-7.5-33.5L557 799l528-750q16-22 8-35.5T1073 0z" glyph-name="afii10028" horiz-adv-x="1165" unicode="К"/><glyph d="M1087 1434q31 0 31-31V31q0-31-31-31H971q-31 0-31 31v1245H414V289q0-156-94.5-229.5T90-8Q61-8 61 25v127q0 27 33 26 141 4 142 174v1051q0 31 30 31h821z" glyph-name="afii10029" horiz-adv-x="1251" unicode="Л"/><glyph d="M1325 1434q31 0 31-31V31q0-31-31-31h-117q-31 0-30 31v1145L838 31Q828 0 799 0H690q-31 0-39 31L311 1176V31q0-31-30-31H164q-31 0-31 31v1372q0 31 31 31h203q31 0 41-31L743 301l340 1102q10 31 41 31h201z" glyph-name="afii10030" horiz-adv-x="1488" unicode="М"/><glyph d="M1022 1434q31 0 31-31V31q0-31-31-31H905q-31 0-31 31v592H311V31q0-31-30-31H164q-31 0-31 31v1372q0 31 31 31h117q31 0 30-31V784h563v619q0 31 31 31h117z" glyph-name="afii10031" horiz-adv-x="1185" unicode="Н"/><glyph d="M698 1444q201 0 306.5-111.5T1110 1018V416q0-203-105.5-314.5T698-10H524q-201 0-306 111.5T113 416v602q0 203 105.5 314.5T524 1444h174zM932 416v602q0 141-55.5 202.5T698 1282H524q-125 0-179-61.5T291 1018V416q0-141 54-202.5T524 152h174q123 0 178.5 61.5T932 416z" glyph-name="afii10032" horiz-adv-x="1222" unicode="О"/><glyph d="M1053 1434q31 0 30-31V31q0-31-30-31H936q-31 0-31 31v1245H311V31q0-31-30-31H164q-31 0-31 31v1372q0 31 31 31h889z" glyph-name="afii10033" horiz-adv-x="1216" unicode="П"/><glyph d="M662 1434q199 0 302-106.5t103-303.5V901q0-197-103.5-303T662 492H311V31q0-31-30-31H164q-31 0-31 31v1372q0 31 31 31h498zm227-533v123q0 135-53.5 191.5T662 1272H311V653h351q121 0 174 56.5T889 901z" glyph-name="afii10034" horiz-adv-x="1138" unicode="Р"/><glyph d="M1059 436q35 0 35-35-10-201-113.5-306T682-10H524q-201 0-306 111.5T113 416v602q0 203 105.5 314.5T524 1444h158q195 0 298-105.5t114-306.5q0-35-35-35H952q-37 0-37 35-6 135-60 192.5T682 1282H524q-125 0-179-61.5T291 1018V416q0-141 54-202.5T524 152h158q119 0 173 57t60 192q0 35 37 35h107z" glyph-name="afii10035" horiz-adv-x="1196" unicode="С"/><glyph d="M940 1434q31 0 31-31v-100q0-31-31-31H616V31q0-31-30-31H469q-31 0-31 31v1241H113q-31 0-31 31v100q0 31 31 31h827z" glyph-name="afii10036" horiz-adv-x="1052" unicode="Т"/><glyph d="M1077 1434q37 0 19-37L461 35Q447 0 416 0H293q-39 0-21 37l242 516-426 844q-18 37 18 37h130q27 0 43-35l323-654 305 654q14 35 45 35h125z" glyph-name="afii10037" horiz-adv-x="1183" unicode="У"/><glyph d="M1130 1343q182 0 300-115.5T1548 907V580q0-205-117.5-321T1130 143H907V31q0-31-30-31H760q-31 0-31 31v112H510q-182 0-300 116T92 580v327q0 205 118 320.5T510 1343h219v113q0 31 31 31h117q31 0 30-31v-113h223zM510 303h219v883H510q-117 0-178.5-62.5T270 907V580q0-154 61.5-215.5T510 303zm860 277v327q0 154-61.5 216.5T1130 1186H907V303h223q117 0 178.5 61.5T1370 580z" glyph-name="afii10038" horiz-adv-x="1640" unicode="Ф"/><glyph d="M999 0H870q-25 0-41 29L553 543 279 29Q263 0 238 0H109Q72 0 88 29l375 688-375 688q-16 29 21 29h129q25 0 41-29l274-514 276 514q16 29 41 29h129q37 0 21-29L645 717l375-688q16-29-21-29z" glyph-name="afii10039" horiz-adv-x="1107" unicode="Х"/><glyph d="M1296 160q31 0 31-31v-340q0-31-31-31h-116q-31 0-31 31V0H164q-31 0-31 31v1372q0 31 31 31h117q31 0 30-31V160h633v1243q0 31 31 31h117q31 0 30-31V160h174z" glyph-name="afii10040" horiz-adv-x="1419" unicode="Ц"/><glyph d="M981 1434q31 0 31-31V31q0-31-31-31H864q-31 0-30 31v559q-100-66-193-66H465q-150 0-256.5 109.5T102 889v514q0 31 31 31h117q31 0 31-31V889q0-86 50-145.5T463 684h186q72 0 127 50t58 116v553q0 31 30 31h117z" glyph-name="afii10041" horiz-adv-x="1144" unicode="Ч"/><glyph d="M1696 1434q31 0 30-31V31q0-31-30-31H164q-31 0-31 31v1372q0 31 31 31h117q31 0 30-31V160h531v1243q0 31 30 31h117q31 0 31-31V160h528v1243q0 31 31 31h117z" glyph-name="afii10042" horiz-adv-x="1859" unicode="Ш"/><glyph d="M1901 160q31 0 30-31v-340q0-31-30-31h-117q-31 0-31 31V0H164q-31 0-31 31v1372q0 31 31 31h117q31 0 30-31V160h531v1243q0 31 30 31h117q31 0 31-31V160h528v1243q0 31 31 31h117q31 0 30-31V160h175z" glyph-name="afii10043" horiz-adv-x="2023" unicode="Щ"/><glyph d="M918 942q197 0 301-106.5T1323 532V410q0-197-104.5-303.5T918 0H420q-31 0-31 31v1233H123q-31 0-31 30v109q0 31 31 31h414q31 0 30-31V942h351zm227-532v122q0 135-53.5 191.5T918 780H567V162h351q121 0 174 56.5t53 191.5z" glyph-name="afii10044" horiz-adv-x="1445" unicode="Ъ"/><glyph d="M662 942q199 0 302-106.5T1067 532V410q0-197-103.5-303.5T662 0H164q-31 0-31 31v1372q0 31 31 31h117q31 0 30-31V942h351zm759 492q31 0 31-31V31q0-31-31-31h-118q-31 0-31 31v1372q0 31 31 31h118zM889 410v122q0 135-53.5 191.5T662 780H311V162h351q121 0 174 56.5T889 410z" glyph-name="afii10045" horiz-adv-x="1585" unicode="Ы"/><glyph d="M662 942q199 0 302-106.5T1067 532V410q0-197-103.5-303.5T662 0H164q-31 0-31 31v1372q0 31 31 31h117q31 0 30-31V942h351zm227-532v122q0 135-53.5 191.5T662 780H311V162h351q121 0 174 56.5T889 410z" glyph-name="afii10046" horiz-adv-x="1138" unicode="Ь"/><glyph d="M672 1444q201 0 306-111.5t105-314.5V416q0-203-105.5-314.5T672-10H514Q321-10 217 96.5T102 401q0 35 35 35h109q35 0 35-35 6-135 60-192t173-57h158q125 0 179 61t54 203v243H580q-31 0-31 31v107q0 31 31 30h325v191q0 141-54 202.5T672 1282H514q-119 0-173-57.5T281 1032q0-35-35-35H137q-35 0-35 35 10 199 115 305.5T514 1444h158z" glyph-name="afii10047" horiz-adv-x="1196" unicode="Э"/><glyph d="M1163 1444q201 0 306.5-111.5T1575 1018V416q0-203-105.5-314.5T1163-10H989q-201 0-306 111.5T578 416v239H313V31q0-31-30-31H164q-31 0-31 31v1372q0 31 31 31h119q31 0 30-31V815h265v203q0 203 105 314.5T989 1444h174zm234-1028v602q0 141-55.5 202.5T1163 1282H989q-125 0-179-61.5T756 1018V416q0-141 54-202.5T989 152h174q123 0 178.5 61.5T1397 416z" glyph-name="afii10048" horiz-adv-x="1687" unicode="Ю"/><glyph d="M1026 1434q31 0 31-31V31q0-31-31-31H909q-31 0-30 31v461H528q-35 0-53 2L270 27q-8-27-41-27H115Q70 0 86 41l223 498q-186 92-186 362v123q0 197 104.5 303.5T528 1434h498zM528 653h351v619H528q-121 0-174-56.5T301 1024V901q0-135 53-191.5T528 653z" glyph-name="afii10049" horiz-adv-x="1189" unicode="Я"/><glyph d="M903 0H766q-33 0-33 49v94Q635-11 473-10h-76q-143 0-229 82T82 303q0 297 311 297h340v76q0 117-40 157.5T543 874h-49q-143 0-242-51-45-16-57 15l-35 71q-14 29 12 45 123 78 322 78h49q186 0 274-88t88-274V49q0-15 4-32t-6-17zM496 150q176 0 237 151v158H397q-143 0-143-155t143-154h99z" glyph-name="afii10065" horiz-adv-x="1034" unicode="а"/><glyph d="M123 1053q0 204 34.5 271t104.5 96 197 22q27 0 73-5t89-7 94 45q18 12 37 12h129q37 0 18-39-29-74-93.5-119T679 1279q-61-5-153 2t-120.5 2-47-11-31-28.5-21.5-40-9-35.5V907q63 125 235 125h62q164 0 262-101.5T954 659V360q0-166-98-268T594-10h-62q-168 0-235 133V31q0-31-31-31H154q-31 0-31 31v1022zm174-709q0-96 49-145t139-49h107q90 0 139 49t49 145v332q0 199-188 198H485q-188 0-188-198V344z" glyph-name="afii10066" horiz-adv-x="1046" unicode="б"/><glyph d="M889 283Q889 0 582 0H164q-31 0-31 31v962q0 31 31 31h411q289 0 289-272 0-57-5-91t-33-74-81-63q88-31 116-89t28-152zM307 862V604h279q106 0 106 129T569 862H307zm271-700q70 0 104.5 29.5T717 301t-30 111.5-95 31.5H307V162h271z" glyph-name="afii10067" horiz-adv-x="991" unicode="в"/><glyph d="M762 1024q31 0 31-31v-94q0-31-31-31H297V31q0-31-31-31H156q-31 0-31 31v962q0 31 31 31h606z" glyph-name="afii10068" horiz-adv-x="874" unicode="г"/><glyph d="M1225 162q31 0 30-31v-299q0-31-28-31h-115q-31 0-31 31V0H246v-168q0-31-31-31H102q-31 0-30 31v299q0 31 30 31h54q73 0 118 161.5T319 741v252q0 31 31 31h727q31 0 31-31V162h117zm-291 0v700H492V637q-1-313-89-475h531z" glyph-name="afii10069" horiz-adv-x="1327" unicode="д"/><glyph d="M545 1032q145 0 248.5-102.5T897 662V506q0-63-66-64H270V338q0-92 49.5-140T461 150h84q86 0 126 21.5t85 76.5q18 23 45 4l59-41q27-18 8-43-49-61-78.5-90t-95-58.5T545-10h-84Q295-10 193.5 96.5T92 367v292q0 170 100.5 271.5T461 1032h84zm176-448v92q0 98-48 148t-128 50h-84q-190 0-191-200v-90h451z" glyph-name="afii10070" horiz-adv-x="989" unicode="е"/><glyph d="M1442 0h-146q-31 0-59 29L864 389V31q0-31-30-31H723q-31 0-31 31v358L317 29Q288 0 260 0H115q-12 0-23 15t10 36l482 457-451 461q-18 23-13 39t21 16h152q25 0 45-25l354-364v358q0 31 31 31h111q31 0 30-31V635l355 364q20 25 45 25h151q16 0 21.5-16.5T1423 969L971 508l483-457q20-20 10-35.5T1442 0z" glyph-name="afii10072" horiz-adv-x="1556" unicode="ж"/><glyph d="M907 272q0-133-93-208.5T586-12H434q-129 0-215 72.5T133 256q0 23 23 23h133q23 0 22-23 0-47 38-78t110-31h108q78 0 116 31t38 105-21.5 110.5T614 434H432q-23 0-22 23v112q0 23 22 23h182q63 4 85 35.5T721 735q0 137-154 137H459q-72 0-110-35.5T311 750q0-23-22-23H156q-23 0-23 23 0 125 87 203.5t214 78.5h152q131 0 221-80t90-207q0-61-10.5-123.5T774 516q78-33 105.5-94.5T907 272z" glyph-name="afii10073" unicode="з"/><glyph d="M164 1024h117q31 0 30-31V238l412 763q10 23 37 23h190q31 0 31-31V31q0-31-31-31H834q-31 0-31 31v755L381 23Q369 0 344 0H164q-31 0-31 31v962q0 31 31 31z" glyph-name="afii10074" horiz-adv-x="1114" unicode="и"/><glyph d="M862 1434q31 0 31-31-10-291-289-291h-98q-276 0-287 291 0 31 31 31h88q31 0 31-31 10-160 145-160h82q139 0 145 160 4 31 31 31h90zm-698-410h117q31 0 30-31V238l412 763q10 23 37 23h190q31 0 31-31V31q0-31-31-31H834q-31 0-31 31v755L381 23Q369 0 344 0H164q-31 0-31 31v962q0 31 31 31z" glyph-name="afii10075" horiz-adv-x="1114" unicode="й"/><glyph d="M733 0q-31 0-59 29L297 403V31q0-31-31-31H154q-31 0-31 31v962q0 31 31 31h112q31 0 31-31V623l356 376q25 25 45 25h152q16 0 21.5-15.5T858 973L408 508 889 49q8-6 11.5-27.5T877 0H733z" glyph-name="afii10076" horiz-adv-x="970" unicode="к"/><glyph d="M954 1024q31 0 31-31V31q0-31-31-31H842q-31 0-31 31v831H354V383q0-109-42-216.5T207-10q-18-25-43 0L82 72q-20 18 0 45 98 113 98 276v600q0 31 31 31h743z" glyph-name="afii10077" horiz-adv-x="1097" unicode="л"/><glyph d="M1182 1024q31 0 30-31V31q0-31-30-31h-109q-31 0-31 31v741L743 109q-12-25-34-25h-72q-25 0-37 25L303 772V31q0-31-31-31H164q-31 0-31 31v962q0 31 31 31h166q29 0 41-25l303-680 301 680q12 25 37 25h170z" glyph-name="afii10078" horiz-adv-x="1345" unicode="м"/><glyph d="M922 1024q31 0 30-31V31q0-31-30-31H809q-31 0-31 31v401H307V31q0-31-31-31H164q-31 0-31 31v962q0 31 31 31h112q31 0 31-31V594h471v399q0 31 31 31h113z" glyph-name="afii10079" horiz-adv-x="1085" unicode="н"/><glyph d="M551 1032q166 0 264-101.5T913 659V360q0-168-98-269T551-10h-96Q289-10 190.5 92.5T92 360v299q0 170 98.5 271.5T455 1032h96zm190-688v332q0 199-190 198h-96q-188 0-189-198V344q0-96 49.5-145T455 150h96q90 0 140 49t50 145z" glyph-name="afii10080" horiz-adv-x="1005" unicode="о"/><glyph d="M911 1024q31 0 31-31V31q0-31-31-31H799q-31 0-31 31v835H307V31q0-31-31-31H162q-29 0-29 31v962q0 31 31 31h747z" glyph-name="afii10081" horiz-adv-x="1075" unicode="п"/><glyph d="M594 1032q164 0 262-101.5T954 659V360q0-166-98-268T594-10h-62q-168 0-235 135v-504q0-31-31-31H154q-31 0-31 31V993q0 31 31 31h112q31 0 31-31v-86q66 125 235 125h62zm186-688v332q0 199-188 198H485q-188 0-188-198V344q0-96 49-145t139-49h107q90 0 139 49t49 145z" glyph-name="afii10082" horiz-adv-x="1046" unicode="р"/><glyph d="M754 692q-31 0-37 35-27 145-172 145h-84q-190 0-191-198V338q0-92 49.5-140T461 150h84q101 0 151 48 18 18 52 56 20 23 49 4l67-49q25-16 6-43-49-59-78.5-89t-95-58.5T545-10h-84Q295-10 193.5 96.5T92 367v292q0 168 100.5 269.5T461 1030h84q129 0 227-83t119-218q2-37-33-37H754z" glyph-name="afii10083" horiz-adv-x="974" unicode="с"/><glyph d="M823 1024q31 0 31-31V893q0-31-31-31H555V31q0-31-31-31H414q-31 0-31 31v831H113q-31 0-31 31v100q0 31 31 31h710z" glyph-name="afii10084" horiz-adv-x="935" unicode="т"/><glyph d="M952 1024q33 0 19-37L430-375q-14-35-45-35H270q-35 0-20 37L424 61 55 987q-14 37 19 37h119q27 0 40-35l277-710 283 710q14 35 43 35h116z" glyph-name="afii10085" horiz-adv-x="1026" unicode="у"/><glyph d="M1221 1032q164 0 262-101.5t98-271.5V360q0-166-98.5-268T1221-10h-62q-168 0-235 135v-504q0-31-31-31H780q-31 0-30 31v502Q682-10 514-10h-61Q289-10 190.5 92.5T92 360v299q0 170 98.5 271.5T453 1032h61q170 0 236-123v494q0 31 30 31h113q31 0 31-31V907q66 125 235 125h62zm188-688v332q0 199-190 198h-107q-188 0-188-198V344q0-96 49-145t139-49h107q90 0 140 49t50 145zM561 150q86 0 135 44t54 130v372q-8 178-189 178H455q-188 0-189-198V344q0-96 49.5-145T455 150h106z" glyph-name="afii10086" horiz-adv-x="1673" unicode="ф"/><glyph d="M834 0H709q-25 0-47 37L473 360 285 37Q262 0 238 0H109Q68 0 88 39l285 475L92 985q-20 39 21 39h127q27 0 47-37l186-317 184 317q23 37 48 37h129q39 0 18-39L573 516 856 39q10-16 4-27.5T834 0z" glyph-name="afii10087" horiz-adv-x="944" unicode="х"/><glyph d="M1081 162q31 0 31-31v-342q0-31-31-31H969q-31 0-31 31V0H164q-31 0-31 31v962q0 31 31 31h112q31 0 31-31V162h461v831q0 31 31 31h112q31 0 31-31V162h139z" glyph-name="afii10088" horiz-adv-x="1193" unicode="ц"/><glyph d="M864 1024q31 0 31-31V31q0-31-31-31H752q-31 0-31 31v282q-76-76-182-75h-88q-145 0-241.5 108.5T113 604v389q0 31 30 31h113q31 0 31-31V606q0-92 46-149.5T461 399h78q74 0 128 49.5T721 565v428q0 31 31 31h112z" glyph-name="afii10089" horiz-adv-x="1028" unicode="ч"/><glyph d="M1524 1024q31 0 30-31V31q0-31-30-31H164q-31 0-31 31v962q0 31 31 31h112q31 0 31-31V162h451v831q0 31 30 31h111q31 0 31-31V162h450v831q0 31 31 31h113z" glyph-name="afii10090" horiz-adv-x="1687" unicode="ш"/><glyph d="M1692 162q31 0 30-31v-342q0-31-30-31h-111q-31 0-31 31V0H164q-31 0-31 31v962q0 31 31 31h112q31 0 31-31V162h451v831q0 31 30 31h111q31 0 31-31V162h450v831q0 31 31 31h113q31 0 30-31V162h138z" glyph-name="afii10091" horiz-adv-x="1804" unicode="щ"/><glyph d="M662 635q193 0 277.5-81t84.5-243-83-236.5T662 0H252q-31 0-31 31v831H82q-31 0-31 31v100q0 31 31 31h272q31 0 31-31V635h277zm4-475q111 0 151.5 31.5T858 314t-43 127-149 36H385V160h281z" glyph-name="afii10092" horiz-adv-x="1146" unicode="ъ"/><glyph d="M584 635q193 0 277.5-81T946 311 863 74.5 584 0H174q-31 0-31 31v962q0 31 31 31h105q31 0 30-31V635h275zm739 389q31 0 31-31V31q0-31-31-31h-111q-31 0-30 31v962q0 31 30 31h111zM588 160q111 0 152.5 31.5T782 314t-44 127-150 36H309V160h279z" glyph-name="afii10093" horiz-adv-x="1517" unicode="ы"/><glyph d="M573 635q193 0 278-81t85-243-83-236.5T573 0H164q-31 0-31 31v962q0 31 31 31h104q31 0 31-31V635h274zm5-475q111 0 152.5 31.5T772 314t-44 127-150 36H299V160h279z" glyph-name="afii10094" horiz-adv-x="1048" unicode="ь"/><glyph d="M514 1030q168 0 268.5-101.5T883 659V367q0-164-101.5-270.5T514-10h-84q-86 0-151.5 28.5t-95 58T104 166q-18 27 7 43l67 49q29 18 49-4 33-38 51-56 50-48 152-48h84q92 0 141.5 48T705 338v98H475q-31 0-31 31v98q0 31 31 31h230v78q0 199-191 198h-84q-145 0-172-145-6-35-37-35H117q-35 0-33 37 20 135 118.5 218t227.5 83h84z" glyph-name="afii10095" horiz-adv-x="974" unicode="э"/><glyph d="M997 1032q166 0 264.5-101.5T1360 659V360q0-166-98.5-268T997-10h-96Q735-10 636 91.5T537 360v33H338V29q0-31-31-31H195q-31 0-31 31v962q0 31 31 31h112q31 0 31-31V571h199v88q0 170 99 271.5T901 1032h96zm189-688v332q0 199-189 198h-96q-190 0-190-198V344q0-195 190-194h96q90 0 139.5 49t49.5 145z" glyph-name="afii10096" horiz-adv-x="1466" unicode="ю"/><glyph d="M244 0H133q-31 0-31 31v260q0 184 129 239-115 68-114 226 0 121 81 194.5t214 73.5h407q31 0 31-31V31q0-31-31-31H717q-31 0-31 31v411H414q-76 0-108-43t-32-131V31q1-31-30-31zm442 862H424q-66 0-101.5-32T287 738t31.5-97 95.5-37h272v258z" glyph-name="afii10097" horiz-adv-x="983" unicode="я"/><glyph d="M154 1403q0 31 30 31h109q31 0 31-31v-111q0-31-31-30H184q-31 0-30 30v111zm518 0q0 31 30 31h109q31 0 31-31v-111q0-31-31-30H702q-31 0-30 30v111zm-127-371q145 0 248.5-102.5T897 662V506q0-63-66-64H270V338q0-92 49.5-140T461 150h84q86 0 126 21.5t85 76.5q18 23 45 4l59-41q27-18 8-43-49-61-78.5-90t-95-58.5T545-10h-84Q295-10 193.5 96.5T92 367v292q0 170 100.5 271.5T461 1032h84zm176-448v92q0 98-48 148t-128 50h-84q-190 0-191-200v-90h451z" glyph-name="afii10071" horiz-adv-x="989" unicode="ё"/><glyph d="M412 1124q-16 0-23.5 10.5t2.5 26.5l129 236q18 37 43 37h158q18 0 25.5-10.5T741 1397l-184-236q-27-37-45-37H412zm350-100q31 0 31-31v-94q0-31-31-31H297V31q0-31-31-31H156q-31 0-31 31v962q0 31 31 31h606z" glyph-name="afii10100" horiz-adv-x="874" unicode="ѓ"/><glyph d="M461 872q-190 0-191-198v-78h232q31 0 30-31v-98q0-31-30-31H270v-98q0-92 49.5-140T461 150h84q101 0 151 48 18 18 52 56 20 23 49 4l67-49q25-16 6-43-49-59-78.5-89t-95-58.5T545-10h-84Q295-10 193.5 96.5T92 367v292q0 168 100.5 269.5T461 1030h84q129 0 227-83t119-218q2-37-33-37H754q-31 0-37 35-27 145-172 145h-84z" glyph-name="afii10101" horiz-adv-x="974" unicode="є"/><glyph d="M145 1403q0 31 31 31h109q31 0 30-31v-111q0-31-30-30H176q-31 0-31 30v111zm-2-410q0 31 31 31h113q31 0 30-31V31q0-31-30-31H174q-31 0-31 31v962z" glyph-name="afii10103" horiz-adv-x="460" unicode="і"/><glyph d="M-94 1403q0 31 31 31H45q31 0 31-31v-111q0-31-31-30H-63q-31 0-31 30v111zm518 0q0 31 31 31h108q31 0 31-31v-111q0-31-31-30H455q-31 0-31 30v111zM164 993q0 31 31 31h112q31 0 31-31V31q0-31-31-31H195q-31 0-31 31v962z" glyph-name="afii10104" horiz-adv-x="501" unicode="ї"/><glyph d="M147 1403q0 31 31 31h109q31 0 30-31v-111q0-31-30-30H178q-31 0-31 30v111zm0-1509V993q0 31 31 31h109q31 0 30-31V-113q0-109-71.5-202T63-442q-27-8-38 20l-43 103q-10 29 18 38 57 20 102 68.5T147-106z" glyph-name="afii10105" horiz-adv-x="460" unicode="ј"/><glyph d="M438 1124q-16 0-23 10.5t3 26.5l129 236q18 37 43 37h158q18 0 25-10.5t-5-26.5l-184-236q-27-37-45-37H438zM733 0q-31 0-59 29L297 403V31q0-31-31-31H154q-31 0-31 31v962q0 31 31 31h112q31 0 31-31V623l356 376q25 25 45 25h152q16 0 21.5-15.5T858 973L408 508 889 49q8-6 11.5-27.5T877 0H733z" glyph-name="afii10109" horiz-adv-x="970" unicode="ќ"/><glyph d="M604 1186H504q-18 0-45 37l-185 235q-12 16-5 26.5t26 10.5h158q25 0 43-37l129-235q10-16 4-26.5t-25-10.5zm-440-162h117q31 0 30-31V238l412 763q10 23 37 23h190q31 0 31-31V31q0-31-31-31H834q-31 0-31 31v755L381 23Q369 0 344 0H164q-31 0-31 31v962q0 31 31 31z" glyph-name="uni045D" horiz-adv-x="1114" unicode="ѝ"/><glyph d="M461 1112q-276 0-287 291 0 31 31 31h88q31 0 31-31 10-160 145-160h82q139 0 145 160 4 31 31 31h90q31 0 31-31-10-291-289-291h-98zm491-88q33 0 19-37L430-375q-14-35-45-35H270q-35 0-20 37L424 61 55 987q-14 37 19 37h119q27 0 40-35l277-710 283 710q14 35 43 35h116z" glyph-name="afii10110" horiz-adv-x="1026" unicode="ў"/><glyph d="M936 1618q31 0 31-31v-280q0-31-31-31H311V31q0-31-30-31H164q-31 0-31 31v1372q0 31 31 31h624v153q0 31 31 31h117z" glyph-name="afii10050" horiz-adv-x="1048" unicode="Ґ"/><glyph d="M770 1147q31 0 31-31V836q0-31-31-31H307V31q0-31-31-31H164q-31 0-31 31v901q0 31 31 31h463v153q0 31 30 31h113z" glyph-name="afii10098" horiz-adv-x="933" unicode="ґ"/><glyph d="M133 1403q0 31 31 31h119q31 0 30-31V31q0-31-30-31H164q-31 0-31 31v1372z" glyph-name="uni04C0" horiz-adv-x="446" unicode="Ӏ"/><glyph d="M281 1681q-31 0-31 31v100q0 31 31 31h663q31 0 31-31v-100q0-31-31-31H281zm-117-247h117q31 0 30-31V262l533 1149q12 23 37 23h180q31 0 31-31V31q0-31-31-31H944q-31 0-31 31v1143L381 23Q369 0 344 0H164q-31 0-31 31v1372q0 31 31 31z" glyph-name="uni04E2" horiz-adv-x="1226" unicode="Ӣ"/><glyph d="M225 1272q-31 0-30 31v100q0 31 30 31h664q31 0 31-31v-100q0-31-31-31H225zm-61-248h117q31 0 30-31V238l412 763q10 23 37 23h190q31 0 31-31V31q0-31-31-31H834q-31 0-31 31v755L381 23Q369 0 344 0H164q-31 0-31 31v962q0 31 31 31z" glyph-name="uni04E3" horiz-adv-x="1114" unicode="ӣ"/><glyph d="M698 1444q201 0 306.5-111.5T1110 1018V416q0-203-105.5-314.5T698-10H524q-201 0-306 111.5T113 416v602q0 203 105.5 314.5T524 1444h174zm-174-162q-125 0-179-61.5T291 1018V797h641v221q0 141-55.5 202.5T698 1282H524zM698 152q123 0 178.5 61T932 416v223H291V416q0-141 54-202.5T524 152h174z" glyph-name="uni04E8" horiz-adv-x="1222" unicode="Ө"/><glyph d="M913 496q0-25-206-35l-152-29-109 27q-354 0-354 37v30q0 29 248 35l143 29 109-27q322-4 321-37v-30zm-172 32q0 10-73 17l73-19v2zm-475-34q0-12 111-17l-111 27v-10z" glyph-name="uni04E9" horiz-adv-x="1005" unicode="ө"/><glyph d="M276 1671q-31 0-30 31v110q0 31 30 31h109q31 0 31-31v-110q0-31-31-31H276zm519 0q-31 0-31 31v110q0 31 31 31h108q31 0 31-31v-110q0-31-31-31H795zm-123-227q201 0 306-111.5t105-314.5V416q0-203-105.5-314.5T672-10H514Q321-10 217 96.5T102 401q0 35 35 35h109q35 0 35-35 6-135 60-192t173-57h158q125 0 179 61t54 203v243H580q-31 0-31 31v107q0 31 31 30h325v191q0 141-54 202.5T672 1282H514q-119 0-173-57.5T281 1032q0-35-35-35H137q-35 0-35 35 10 199 115 305.5T514 1444h158z" glyph-name="uni04EC" horiz-adv-x="1196" unicode="Ӭ"/><glyph d="M174 1262q-31 0-31 30v111q0 31 31 31h109q31 0 30-31v-111q0-31-30-30H174zm518 0q-31 0-30 30v111q0 31 30 31h109q31 0 30-31v-111q0-31-30-30H692zm-178-232q168 0 268.5-101.5T883 659V367q0-164-101.5-270.5T514-10h-84q-86 0-151.5 28.5t-95 58T104 166q-18 27 7 43l67 49q29 18 49-4 33-38 51-56 50-48 152-48h84q92 0 141.5 48T705 338v98H475q-31 0-31 31v98q0 31 31 31h230v78q0 199-191 198h-84q-145 0-172-145-6-35-37-35H117q-35 0-33 37 20 135 118.5 218t227.5 83h84z" glyph-name="uni04ED" horiz-adv-x="974" unicode="ӭ"/><glyph d="M264 1681q-31 0-31 31v100q0 31 31 31h664q31 0 30-31v-100q0-31-30-31H264zm813-247q37 0 19-37L461 35Q447 0 416 0H293q-39 0-21 37l242 516-426 844q-18 37 18 37h130q27 0 43-35l323-654 305 654q14 35 45 35h125z" glyph-name="uni04EE" horiz-adv-x="1183" unicode="Ӯ"/><glyph d="M158 1272q-31 0-31 31v100q0 31 31 31h663q31 0 31-31v-100q0-31-31-31H158zm794-248q33 0 19-37L430-375q-14-35-45-35H270q-35 0-20 37L424 61 55 987q-14 37 19 37h119q27 0 40-35l277-710 283 710q14 35 43 35h116z" glyph-name="uni04EF" horiz-adv-x="1058" unicode="ӯ"/><glyph d="M850 1843h158q18 0 25-10t-5-27l-184-235q-27-37-45-37H698q-16 0-23 10t3 27l129 235q18 37 43 37zm475-409q31 0 31-31V31q0-31-31-31h-117q-31 0-30 31v1145L838 31Q828 0 799 0H690q-31 0-39 31L311 1176V31q0-31-30-31H164q-31 0-31 31v1372q0 31 31 31h203q31 0 41-31L743 301l340 1102q10 31 41 31h201z" glyph-name="uni1E3E" horiz-adv-x="1488" unicode="Ḿ"/><glyph d="M782 1124q-16 0-23 10.5t3 26.5l129 236q18 37 43 37h158q18 0 25-10.5t-5-26.5l-184-236q-27-37-45-37H782zm443-92q168 0 240.5-93t72.5-269V31q0-31-31-31h-112q-31 0-31 31v649q0 100-40 147t-132 47h-31q-90 0-154.5-38.5T918 752V31q0-31-31-31H774q-31 0-31 31v649q0 100-39.5 147T571 874h-30q-90 0-154.5-38.5T297 752V31q0-31-31-31H154q-31 0-31 31v962q0 31 31 31h112q31 0 31-31V881q98 152 291 151h16q225 0 287-180l27 29q98 152 290 151h17z" glyph-name="uni1E3F" horiz-adv-x="1660" unicode="ḿ"/><glyph d="M973 1649H872q-18 0-45 37l-184 235q-12 16-5 26.5t26 10.5h157q25 0 43-37l129-235q10-16 4-26.5t-24-10.5zm780-215q33 0 27-31L1452 31q-8-31-39-31h-100q-31 0-39 31L926 1143 580 31Q570 0 541 0H438q-31 0-39 31L74 1403q-6 31 24 31h127q31 0 37-31L502 313l332 1090q10 31 38 31h109q31 0 39-31l332-1090 239 1090q2 31 35 31h127z" glyph-name="Wgrave" horiz-adv-x="1853" unicode="Ẁ"/><glyph d="M825 1186H725q-18 0-45 37l-184 235q-12 16-5 26.5t25 10.5h158q25 0 43-37l129-235q10-16 4-26.5t-25-10.5zm621-162q37 0 24-35L1188 39q-12-39-47-39h-94q-35 0-48 39-170 545-221 731-37-135-223-731-12-39-47-39h-94q-35 0-47 39L84 989q-10 35 25 35h114q27 0 37-35 25-90 92.5-356T465 211q160 553 221 778 10 35 37 35h106q33 0 39-35 61-225 222-778 45 158 114.5 427t91.5 351q10 35 37 35h113z" glyph-name="wgrave" horiz-adv-x="1554" unicode="ẁ"/><glyph d="M1188 1896q18 0 25.5-10t-5.5-26l-184-236q-27-37-45-37H879q-16 0-23.5 10.5t2.5 26.5l129 236q18 37 43 36h158zm565-462q33 0 27-31L1452 31q-8-31-39-31h-100q-31 0-39 31L926 1143 580 31Q570 0 541 0H438q-31 0-39 31L74 1403q-6 31 24 31h127q31 0 37-31L502 313l332 1090q10 31 38 31h109q31 0 39-31l332-1090 239 1090q2 31 35 31h127z" glyph-name="Wacute" horiz-adv-x="1853" unicode="Ẃ"/><glyph d="M883 1434h157q18 0 25.5-10.5t-4.5-26.5l-184-236q-27-37-46-37H731q-16 0-23.5 10.5t3.5 26.5l129 236q18 37 43 37zm563-410q37 0 24-35L1188 39q-12-39-47-39h-94q-35 0-48 39-170 545-221 731-37-135-223-731-12-39-47-39h-94q-35 0-47 39L84 989q-10 35 25 35h114q27 0 37-35 25-90 92.5-356T465 211q160 553 221 778 10 35 37 35h106q33 0 39-35 61-225 222-778 45 158 114.5 427t91.5 351q10 35 37 35h113z" glyph-name="wacute" horiz-adv-x="1554" unicode="ẃ"/><glyph d="M582 1866q0 31 30 30h109q31 0 31-30v-111q0-31-31-31H612q-31 0-30 31v111zm518 0q0 31 30 30h109q31 0 31-30v-111q0-31-31-31h-109q-31 0-30 31v111zm653-432q33 0 27-31L1452 31q-8-31-39-31h-100q-31 0-39 31L926 1143 580 31Q570 0 541 0H438q-31 0-39 31L74 1403q-6 31 24 31h127q31 0 37-31L502 313l332 1090q10 31 38 31h109q31 0 39-31l332-1090 239 1090q2 31 35 31h127z" glyph-name="Wdieresis" horiz-adv-x="1853" unicode="Ẅ"/><glyph d="M434 1403q0 31 31 31h108q31 0 31-31v-111q0-31-31-30H465q-31 0-31 30v111zm518 0q0 31 31 31h109q31 0 30-31v-111q0-31-30-30H983q-31 0-31 30v111zm494-379q37 0 24-35L1188 39q-12-39-47-39h-94q-35 0-48 39-170 545-221 731-37-135-223-731-12-39-47-39h-94q-35 0-47 39L84 989q-10 35 25 35h114q27 0 37-35 25-90 92.5-356T465 211q160 553 221 778 10 35 37 35h106q33 0 39-35 61-225 222-778 45 158 114.5 427t91.5 351q10 35 37 35h113z" glyph-name="wdieresis" horiz-adv-x="1554" unicode="ẅ"/><glyph d="M631 1595H530q-18 0-45 37l-184 236q-12 16-5 26.5t26 10.5h157q25 0 43-37l129-236q10-16 4-26.5t-24-10.5zm450-161q39 0 21-31L674 616V31q0-31-31-31H526q-31 0-30 31v585L68 1403q-18 31 20 31h133q23 0 41-31l322-604 323 604q14 31 41 31h133z" glyph-name="Ygrave" horiz-adv-x="1169" unicode="Ỳ"/><glyph d="M250 1495h158q25 0 43-37l129-235q10-16 4-26.5t-25-10.5H459q-18 0-45 37l-185 235q-12 16-5 26.5t26 10.5zm702-471q33 0 19-37L430-375q-14-35-45-35H270q-35 0-20 37L424 61 55 987q-14 37 19 37h119q27 0 40-35l277-710 283 710q14 35 43 35h116z" glyph-name="ygrave" horiz-adv-x="1026" unicode="ỳ"/><glyph d="M154 397q-31 0-31 31v96q0 31 31 31h964q31 0 31-31v-96q0-31-31-31H154z" glyph-name="endash" horiz-adv-x="1271" unicode="–"/><glyph d="M154 397q-31 0-31 31v96q0 31 31 31h1116q31 0 30-31v-96q0-31-30-31H154z" glyph-name="emdash" horiz-adv-x="1423" unicode="—"/><glyph d="M133 893q-31 0-31 31v168q0 223 101 342 14 16 35 2l34-31q16-16 2-39-51-76-51-221l-12-21h88q31 0 31-30V924q0-31-31-31H133z" glyph-name="quoteleft" horiz-adv-x="432" unicode="‘"/><glyph d="M279 1419q31 0 30-30v-168q0-221-100-340-14-16-33-2l-37 30q-18 14-2 37 51 80 51 223l13 21h-88q-31 0-31 31v168q0 31 31 30h166z" glyph-name="quoteright" horiz-adv-x="425" unicode="’"/><glyph d="M268 229q31 0 31-30V31q0-221-100-340-14-16-33-2l-37 30q-18 14-2 37 51 76 51 224l12 20h-88Q71 0 72 31v168q0 31 30 30h166z" glyph-name="quotesinglbase" horiz-adv-x="460" unicode="‚"/><glyph d="M123 885q-31 0-31 30v170q0 221 101 340 14 16 34 2l35-30q16-16 2-37-51-80-51-223l-12-21h88q31 0 30-31V915q0-31-30-30H123zm373 0q-31 0-31 30v170q0 221 100 340 14 16 33 2l37-30q14-14 2-37-51-76-51-223l-13-21h89q31 0 30-31V915q0-31-30-30H496z" glyph-name="quotedblleft" horiz-adv-x="784" unicode="“"/><glyph d="M299 1434q31 0 31-31v-168q0-221-101-340-14-16-32-2l-37 31q-18 14-2 37 51 78 51 223l12 20h-88q-31 0-31 31v168q0 31 31 31h166zm381 0q31 0 31-31v-168q0-221-101-340-14-16-32-2l-35 31q-18 14-2 37 51 78 51 223l10 20h-88q-31 0-31 31v168q0 31 31 31h166z" glyph-name="quotedblright" horiz-adv-x="823" unicode="”"/><glyph d="M289 229q31 0 30-30V31q0-221-100-340-14-16-33-2l-36 30q-18 14-3 37 51 76 52 224l12 20h-88Q92 0 92 31v168q0 31 31 30h166zm381 0q31 0 30-30V31q0-221-100-340-14-16-33-2l-35 30q-18 14-2 37 51 76 52 224l10 20h-88q-31 0-31 31v168q0 31 31 30h166z" glyph-name="quotedblbase" horiz-adv-x="792" unicode="„"/><glyph d="M774 963q31 0 31-31V815q0-31-31-31H535V-236q0-31-31-30H387q-31 0-31 30V784H113q-31 0-31 31v117q0 31 31 31h243v501q0 31 31 31h117q31 0 31-31V963h239z" glyph-name="dagger" horiz-adv-x="886" unicode="†"/><glyph d="M774 784H535V444h239q31 0 31-32V297q0-31-31-31H535v-502q0-31-31-30H387q-31 0-31 30v502H113q-31 0-31 31v117q0 31 31 30h243v340H113q-31 0-31 31v117q0 31 31 31h243v501q0 31 31 31h117q31 0 31-31V963h239q31 0 31-31V815q0-31-31-31z" glyph-name="daggerdbl" horiz-adv-x="886" unicode="‡"/><glyph d="M164 803q0 68 65 67h191q70 0 69-67V623q0-68-69-68H229q-66 0-65 68v180z" glyph-name="bullet" horiz-adv-x="653" unicode="•"/><glyph d="M102 184q0 31 31 31h156q31 0 30-31V31q0-31-30-31H133q-31 0-31 31v153zm455 0q0 31 31 31h155q31 0 31-31V31q0-31-31-31H588q-31 0-31 31v153zm453 0q0 31 30 31h156q31 0 31-31V31q0-31-31-31h-156q-31 0-30 31v153z" glyph-name="ellipsis" horiz-adv-x="1329" unicode="…"/><glyph d="M297 1487q82 0 135-54.5t53-136.5v-22q0-82-52-135.5T297 1085h-27q-82 0-135 53.5T82 1274v22q0 82 53 136.5t135 54.5h27zm707 0h141q39 0 20-31L338 31Q320 0 297 0H156q-39 0-21 31l828 1425q18 31 41 31zm-654-197q0 61-61 62h-15q-59 0-59-62v-10q0-61 59-61h15q61 0 61 61v10zm670-889q82 0 135-54t53-136v-23q0-82-53-135T1020 0h-27q-84 0-136 53t-52 135v23q0 82 53 136t135 54h27zm631 0q82 0 135-54t53-136v-23q0-82-53-135T1651 0h-27q-84 0-136 53t-52 135v23q0 82 53 136t135 54h27zm-578-196q0 61-61 61h-15q-59 0-59-61v-10q0-61 59-62h15q61 0 61 62v10zm631 0q0 61-62 61h-14q-59 0-59-61v-10q0-61 59-62h14q61 0 62 62v10z" glyph-name="perthousand" horiz-adv-x="1888" unicode="‰"/><glyph d="M565 872V713q0-23-37-45L322 526l206-139q37-27 37-45V180q0-16-11-21t-26 5L143 432q-31 20-30 47v94q0 27 30 48l385 268q14 10 25.5 5t11.5-22z" glyph-name="guilsinglleft" horiz-adv-x="677" unicode="‹"/><glyph d="M565 479q0-27-30-47L150 164q-14-10-25.5-5T113 180v162q0 18 37 45l208 139-208 142q-37 23-37 45v159q0 16 11.5 21.5T150 889l385-268q31-20 30-48v-94z" glyph-name="guilsinglright" horiz-adv-x="677" unicode="›"/><glyph d="M467 1487h78q39 0 20-31L-262 31q-18-31-41-31h-78q-39 0-20 31l827 1425q18 31 41 31z" glyph-name="fraction" horiz-adv-x="204" unicode="⁄"/><glyph d="M1292 436q35 0 35-35-10-199-114.5-305T915-10H758q-201 0-306.5 111.5T346 416v108H143q-31 0-30 31v100q0 31 30 31h203v105H143q-31 0-30 30v101q0 31 30 30h203v66q0 203 105.5 314.5T758 1444h157q193 0 297.5-106.5T1327 1032q0-35-35-35h-108q-35 0-35 35-6 135-60.5 192.5T915 1282H758q-125 0-179.5-61.5T524 1018v-66h289q31 0 31-30V821q0-31-31-30H524V686h289q31 0 31-31V555q0-31-31-31H524V416q0-141 54.5-202.5T758 152h157q119 0 173.5 57t60.5 192q0 35 35 35h108z" glyph-name="Euro" horiz-adv-x="1429" unicode="€"/><glyph d="M1036 475q31 0 31-31v-59q0-176-130-295T637-29h-94Q367-29 240 90T113 391q0 96 30 170-31 0-30 31v72q0 31 30 30h90q61 57 148 97H143q-31 0-30 30v70q0 31 30 31h664q74 66 74 175t-61.5 172.5T655 1333H549q-98 0-169-70.5T309 1079v-39q0-31-30-30H160q-31 0-31 30v39q-2 184 126 308t294 124h106q170 0 287-113.5t117-291.5q0-102-41-184h16q31 0 31-31v-70q0-31-31-30H911q-78-66-188-97h311q31 0 31-30v-72q0-31-31-31H344q-53-63-53-171t72.5-174T543 150h94q100 0 172 65.5T885 385l2 59q0 31 31 31h118z" glyph-name="uni20B4" horiz-adv-x="1179" unicode="₴"/><glyph d="M1061 1434q31 0 31-31V31q0-31-31-31H881q-25 0-37 23L311 1174V31q0-31-30-31H164q-31 0-31 31v1372q0 31 31 31h180q25 0 37-23L913 262v1141q0 31 31 31h117zm729 0q164 0 255-97.5t91-257.5V944q0-160-91-257t-255-97h-59q-166 0-256.5 96T1384 944v135q0 160 90.5 257.5T1731 1434h59zm176-355q0 197-180 197h-51q-98 0-139.5-49t-41.5-148V944q0-98 41-147t140-49h51q180 0 180 196v135zm-582-725q0 31 31 31h692q31 0 31-31v-96q0-31-31-31h-692q-31 0-31 31v96z" glyph-name="afii61352" horiz-adv-x="2230" unicode="№"/><glyph d="M584 1062q0-79-65.5-121T333 899t-184.5 44T82 1055q0 16 18 16h82q18 0 19-16 1-39 109-39t133.5 7 25.5 38-22.5 40-136.5 14q-228 10-228 171 0 90 59.5 125t186.5 35q248 0 252-164 0-18-15-18h-82q-18 0-19 22t-27.5 32.5T327 1329t-105.5-8.5T199 1290t8.5-38.5T345 1229q128-6 183.5-47t55.5-120zm876 372q31 0 31-31V940q0-31-31-31h-61q-31 0-31 31v340l-201-340q-18-31-39-31h-43q-20 0-38 31l-201 340V940q0-31-31-31h-61q-31 0-31 31v463q0 31 31 31h123q25 0 41-31l188-338 190 338q18 31 41 31h123z" glyph-name="uni2120" horiz-adv-x="1572" unicode="℠"/><glyph d="M602 1434q31 0 31-31v-62q0-31-31-30H420V940q0-31-31-31h-61q-31 0-31 31v371H113q-31 0-31 30v62q0 31 31 31h489zm881 0q31 0 30-31V940q0-31-30-31h-62q-31 0-30 31v340l-201-340q-18-31-39-31h-43q-20 0-39 31l-201 340V940q0-31-30-31h-62q-31 0-31 31v463q0 31 31 31h123q25 0 41-31l188-338 191 338q18 31 41 31h123z" glyph-name="trademark" horiz-adv-x="1595" unicode="™"/><glyph d="M1085 1487h78q39 0 21-31L356 31Q338 0 315 0h-77q-39 0-21 31l827 1425q18 31 41 31zm-839-31q0 31 30 31h66q31 0 31-31V885q0-31-31-31h-66q-31 0-30 31v571zM1358 183q0-71-50.5-127T1178 0h-52q-80 0-130 57t-50 127 70 133q-70 63-70 135t50.5 127.5T1126 635h52q80 0 130-56.5t50-127.5-70-134q70-63 70-134zm-203 188q33 0 55.5 21.5t22.5 54-23.5 52T1151 518t-57.5-19.5-22.5-52 22.5-54T1149 371h6zm-4-254q35 0 58.5 19.5t23.5 52-22.5 54T1155 264h-6q-33 0-55.5-21.5t-22.5-54 22.5-52T1151 117z" glyph-name="oneeighth" horiz-adv-x="1480" unicode="⅛"/><glyph d="M350 854h-51q-74 0-125 51t-51 119v27q0 31 31 30h61q31 0 31-30v-15q0-27 21.5-46t56.5-19 58.5 19.5 23.5 52-23 54-55 21.5h-47q-31 0-31 31v45q0 31 31 31h47q33 0 55.5 21.5t22.5 54-24 52-58 19.5-56-19.5-22-45.5v-15q0-31-31-30h-61q-31 0-31 30v27q0 68 51 119t125 51h51q80 0 130-56.5t50-127.5-69-134q69-63 69-134t-50-127-130-56zm770 633h78q39 0 21-31L391 31Q373 0 350 0h-78q-39 0-20 31l827 1425q18 31 41 31zm273-1304q0-71-50.5-127T1212 0h-51q-80 0-130 57t-50 127 70 133q-70 63-70 135t50 127.5 130 55.5h51q80 0 130.5-56.5T1393 451t-70-134q70-63 70-134zm-203 188q33 0 55.5 21.5t22.5 54-23.5 52T1186 518t-57.5-19.5-22.5-52 22.5-54T1184 371h6zm-4-254q35 0 58.5 19.5t23.5 52-22.5 54T1190 264h-6q-33 0-55.5-21.5t-22.5-54 22.5-52T1186 117z" glyph-name="threeeighths" horiz-adv-x="1515" unicode="⅜"/><glyph d="M530 1044q0-78-50-135t-130-57h-51q-74 0-125 51t-51 119v27q0 31 31 30h61q31 0 31-30v-15q0-27 21.5-46t54.5-19q80 0 84 86 6 128-70 115t-96-31h-86q-31 0-31 30v287q0 31 31 31h325q31 0 31-31v-57q0-31-31-31H242v-117q45 23 166.5 11T530 1044zm590 443h78q39 0 21-31L391 31Q373 0 350 0h-78q-39 0-20 31l827 1425q18 31 41 31zm273-1304q0-71-50.5-127T1212 0h-51q-80 0-130 57t-50 127 70 133q-70 63-70 135t50 127.5 130 55.5h51q80 0 130.5-56.5T1393 451t-70-134q70-63 70-134zm-203 188q33 0 55.5 21.5t22.5 54-23.5 52T1186 518t-57.5-19.5-22.5-52 22.5-54T1184 371h6zm-4-254q35 0 58.5 19.5t23.5 52-22.5 54T1190 264h-6q-33 0-55.5-21.5t-22.5-54 22.5-52T1186 117z" glyph-name="fiveeighths" horiz-adv-x="1515" unicode="⅝"/><glyph d="M510 1397q0-18-8-35L281 881q-16-29-33-29h-86q-31 0-19 29l219 483H154q-31 0-31 31v61q0 31 31 31h325q31 0 31-31v-59zm590 90h78q39 0 20-31L371 31Q353 0 330 0h-78q-39 0-21 31l828 1425q18 31 41 31zM1192 0h-51q-80 0-130 57t-50 127 69 133q-70 63-70 135t50.5 127.5T1141 635h51q80 0 130-56.5t50-127.5-69-134q69-63 69-134t-50-127-130-56zm-23 371q33 0 55.5 21.5t22.5 54-23.5 52T1165 518t-57.5-19.5-22.5-52 22.5-54T1163 371h6zm-4-254q35 0 58.5 19.5t23.5 52-22.5 54T1169 264h-6q-33 0-55.5-21.5t-22.5-54 22.5-52T1165 117z" glyph-name="seveneighths" horiz-adv-x="1495" unicode="⅞"/><glyph d="M528 1509h90q180 0 292-116.5t130-296.5q39-352 9-682-18-205-130-319.5T631-20h-84Q365-20 238 94.5T102 422q-8 252 113 379t346 127 316-74q10 316-74 398.5T618 1335h-90q-106 0-174.5-67.5T285 1081v-34q0-31-31-31H135q-31 0-31 31v34q0 186 123 307t301 121zm19-1351h84q94 0 159.5 62T870 438t-49 233-243 79-238.5-75T285 418q4-135 77.5-197.5T547 158z" glyph-name="partialdiff" horiz-adv-x="1165" unicode="∂"/><glyph d="M1110 1018V416q0-203-105.5-314.5T698-10H524q-76 0-133 14l-10-24q-12-31-41-31H211q-33 0-21 31l46 104Q113 195 113 416v602q0 203 105.5 314.5T524 1444h174q74 0 125-14l13 26q16 31 41 31h129q35 0 20-31l-45-102q129-113 129-336zM291 416q0-92 24-152l443 1014q-37 4-60 4H524q-125 0-179-61.5T291 1018V416zm641 0v602q0 96-29 158L459 158q31-6 65-6h174q123 0 178.5 61.5T932 416z" glyph-name="emptyset" horiz-adv-x="1222" unicode="∅"/><glyph d="M901 963q29 0 29-31V31q0-31-31-31H782q-31 0-30 31v753H301V31q0-31-31-31H154q-31 0-31 31v901q0 31 31 31h747z" glyph-name="product" horiz-adv-x="1052" unicode="∏"/><glyph d="M123 1456q0 31 31 31h813q31 0 30-33v-115q0-31-30-30H379l418-496q29-33 28-49v-43q0-16-28-49L379 180l588-2q29 0 30-31l-2-116q0-31-28-31H154q-31 0-31 31v106q0 18 31 58l460 546-460 551q-31 39-31 58v106z" glyph-name="summation" horiz-adv-x="1120" unicode="∑"/><glyph d="M901 723q29 0 29-31V575q0-31-31-30H154q-31 0-31 30v117q0 31 31 31h747z" glyph-name="minus" horiz-adv-x="1052" unicode="−"/><glyph d="M131 688h127q23 0 37-33l190-413 443 1212q12 33 37 33h137q37 0 24-33L594 33Q584 0 555 0H428q-27 0-39 33L106 655q-14 33 25 33z" glyph-name="radical" horiz-adv-x="1230" unicode="√"/><glyph d="M1260 963q156 0 264-101.5T1632 586v-62q0-172-108.5-273T1260 150h-76q-92 0-177 56T868 348q-51-86-137-142t-180-56h-76q-152 0-262.5 102T102 524v62q0 172 111 274.5T475 963h76q94 0 180-56.5T868 762q53 88 138.5 144.5T1184 963h76zM758 530v50q0 92-57.5 148T551 784h-70q-88 0-145-53t-57-151v-50q0-98 57-151t145-53h70q92 0 149.5 56T758 530zm700 0v50q0 100-55 152t-150 52h-69q-86 0-145.5-56T979 580v-50q0-90 59.5-147t145.5-57h69q94 0 149.5 53t55.5 151z" glyph-name="infinity" horiz-adv-x="1734" unicode="∞"/><glyph d="M770 1487q31 0 31-31v-117q0-31-31-30h-18q-211 0-211-234V-25q0-174-91.5-279.5T207-410h-74q-31 0-31 31v117q0 31 31 31h19q211 0 210 235v1098q0 174 91.5 279.5T696 1487h74z" glyph-name="integral" horiz-adv-x="903" unicode="∫"/><glyph d="M999 717q14-23-20-45-104-72-224.5-78T534 647t-177.5 56T188 639q-20-12-34 16l-48 93q-14 23 21 45 104 74 225 80t226-60q94-55 171.5-52T918 825q20 14 34-16zm0-340q12-23-20-45-102-74-223.5-80T534 305t-177.5 56T188 297q-18-12-34 16l-48 93q-12 23 21 45 102 74 225.5 80.5T574 478t175.5-57T918 485q18 12 34-16z" glyph-name="approxequal" horiz-adv-x="1105" unicode="≈"/><glyph d="M870 1397q35 0 21-31L682 887h102q31 0 31-31V750q0-31-31-31H608l-67-156h243q31 0 31-31V424q0-31-31-31H467L246-113q-12-31-41-30H76q-33 0-21 30l221 506H162q-31 0-31 31v108q0 31 31 31h188l68 156H162q-31 0-31 31v106q0 31 31 31h330l208 479q16 31 41 31h129z" glyph-name="notequal" horiz-adv-x="946" unicode="≠"/><glyph d="M860 1026q0-37-20-49L383 727l457-250q20-12 20-49V303q0-12-9-17t-24 1L150 659q-27 16-27 67.5t27 68.5l677 372q14 6 23.5 1t9.5-17v-125zM156 178h673q31 0 31-31V31q0-31-31-31H158q-31 0-31 31v116q0 31 29 31z" glyph-name="lessequal" horiz-adv-x="983" unicode="≤"/><glyph d="M123 1026v125q0 12 9 17.5t24-1.5l678-372q27-16 26.5-67.5T834 659L156 287q-14-6-23.5-1t-9.5 17v125q0 37 20 49l457 250-457 250q-20 12-20 49zm704-848q29 0 29-31V31q0-31-31-31H154q-31 0-31 31v116q0 31 31 31h673z" glyph-name="greaterequal" horiz-adv-x="983" unicode="≥"/><glyph d="M498 0h-64q-27 0-39 33L84 807q-4 12 0 24l311 775q10 33 39 32h64q27 0 39-32l311-775q4-12 0-24L537 33Q527 0 498 0zm184 809q6 10 0 22l-215 521-217-521q-6-12 0-22l215-522z" glyph-name="lozenge" horiz-adv-x="931" unicode="◊"/><glyph d="M164 1403q0 31 31 31h108q31 0 31-31v-111q0-31-31-30H195q-31 0-31 30v111zm0-410q0 31 31 31h112q31 0 31-31V31q0-31-31-31H195q-31 0-31 31v962z" glyph-name="i.aalt" horiz-adv-x="501"/><glyph d="M698 1444q201 0 306.5-111.5T1110 1018V416q0-203-105.5-314.5T698-10H524q-201 0-306 111.5T113 416v602q0 203 105.5 314.5T524 1444h174zM932 416v602q0 141-55.5 202.5T698 1282H524q-125 0-179-61.5T291 1018V416q0-141 54-202.5T524 152h174q123 0 178.5 61.5T932 416zM537 920q0 35 34 34h80q35 0 35-34V514q0-35-35-35h-80q-35 0-34 35v406z" glyph-name="zero.oldstyle.case" horiz-adv-x="1222"/><glyph d="M510 1434q31 0 31-31V31q0-31-31-31H397q-31 0-30 31v1140l-88-88q-20-25-46 0l-79 82q-20 20 0 43l217 215q11 11 26 11h113z" glyph-name="one.oldstyle.case" horiz-adv-x="827"/><glyph d="M1032 160q31 0 31-31V31q0-31-31-31H123Q92 0 92 31q0 331 74 448t219 174l293 115q135 53 175 105.5t40 174.5-55.5 178-178.5 56H522q-119 0-174-57.5T287 1032q0-35-35-35H143q-35 0-34 35 10 199 115.5 305.5T522 1444h137q199 0 305.5-107t106.5-291-73.5-275T733 610l-250-94q-121-45-160.5-134T283 160h749z" glyph-name="two.oldstyle.case" horiz-adv-x="1163"/><glyph d="M1073 382q0-174-106.5-283T662-10H504Q309-10 204.5 96.5T92 401q0 35 35 35h106q37 0 37-35 6-135 60.5-192T504 152h158q123 0 178 59t55 191-63.5 197T625 668H489q-31 0-30 30v99q0 31 30 30h136q141 4 192 60.5t51 189.5q0 205-233 205H528q-119 0-173-57.5T295 1032q0-35-35-35H152q-35 0-35 35 10 199 114.5 305.5T528 1444h107q197 0 304.5-102.5T1047 1080t-53.5-224T813 750q127-39 193.5-116.5T1073 382z" glyph-name="three.oldstyle.case" horiz-adv-x="1165"/><glyph d="M694 578v243q0 31 31 31h117q31 0 30-31V578h125q31 0 31-31v-98q0-31-31-31H872V31q0-31-30-31H725q-31 0-31 31v387H129q-27 0-33 20l-18 47q-10 25 4 47l479 879q14 23 41 23h123q41 0 20-39L297 578h397z" glyph-name="four.oldstyle.case" horiz-adv-x="1120"/><glyph d="M670 936q403 0 403-496 0-219-105.5-334.5T662-10H504Q309-10 204.5 95.5T92 401q0 35 35 35h106q37 0 37-35 6-135 59.5-192T504 152h158q123 0 178 65.5T895 440q0 336-225 336H563q-98 0-146-26t-67.5-40-25-17-22.5-17-19-17H141q-31 0-30 31v39l65 674q4 31 31 31h756q31 0 30-31v-96q0-31-30-31H332l-45-430q131 88 276 90h107z" glyph-name="five.oldstyle.case" horiz-adv-x="1175"/><glyph d="M719 885q209 0 308-107.5t99-326.5-104-340T717-10H510q-104 0-175 29.5t-152 140T102 676q0 489 118 628.5T571 1444h82q221 0 325.5-94.5T1092 1075q0-31-31-31H944q-27 0-31 31-8 111-66.5 161T653 1286h-80q-166 0-227-99.5T281 795q84 90 247 90h191zm-2-733q121 0 176 73.5T948 449q0 283-229 282H510q-119 0-173-47t-54-156q0-203 53-289.5T510 152h207z" glyph-name="six.oldstyle.case" horiz-adv-x="1228"/><glyph d="M1051 1319q0-31-9-47-274-332-436-611.5T354 35Q342 0 311 0H203q-14 0-20.5 14.5T180 43q88 338 249 626.5T844 1270H123q-31 0-31 30v103q0 31 31 31h897q31 0 31-31v-84z" glyph-name="seven.oldstyle.case" horiz-adv-x="1142"/><glyph d="M688 1444q397 0 397-358 0-180-137-267 209-100 209-370 0-229-111.5-344T727-10H520q-205 0-316.5 114.5T92 449q0 272 211 368-139 76-139 283 0 344 395 344h129zm-129-144q-131 0-182-51t-51-161 49-163 180-53h137q133 0 181.5 53t48.5 163-51.5 161-182.5 51H559zM719 147q131 0 196.5 69.5T981 440t-60.5 223.5T711 733H539q-150 0-210.5-69.5T268 440t65.5-223.5T530 147h189z" glyph-name="eight.oldstyle.case" horiz-adv-x="1249"/><glyph d="M508 549q-207 0-306.5 107.5T102 984t103.5 340T510 1444h207q104 0 176-30t152.5-139 80.5-517q0-160-15.5-344T993 110 657-10h-82q-223 0-326.5 94T137 358q0 31 31 31h117q27 0 30-31 8-111 66.5-161T575 147h80q166 0 227.5 99.5T948 639q-84-90-250-90H508zm2 733q-121 0-175-73t-54-217 52-217 175-73h209q121 0 175 47.5T946 905q0 203-53 290t-176 87H510z" glyph-name="nine.oldstyle.case" horiz-adv-x="1228"/><glyph d="M600 969q152 0 259.5-113T967 590V373q0-154-107.5-266.5T600-6H479Q325-6 219 105.5T113 373v217q0 156 106.5 267.5T479 969h121zm188-377q0 88-53 149.5T598 803H481q-86 0-138-61.5T291 592V369q0-88 52-148.5T481 160h117q84 0 137 61.5T788 369v223z" glyph-name="zero.oldstyle" horiz-adv-x="1079"/><glyph d="M594 188q31 0 31-30V31q0-31-31-31H211q-31 0-31 31v127q0 31 31 30h125v512l-88-88q-20-25-45 0l-80 82q-20 20 0 43l217 215q9 9 27 11h116q31 0 31-31V188h80z" glyph-name="one.oldstyle" horiz-adv-x="755"/><glyph d="M596 967q154 0 268.5-100.5T979 629t-67.5-190.5T639 348l-190-37q-137-31-138-145h631q31 0 31-31V31q0-31-31-31H139q-31 0-30 31 2 197 58 299t224 135l217 43q125 25 160 45t35 83.5-56.5 114T598 801h-90q-90 0-146.5-53.5T305 623v-17q0-31-31-31H158q-31 0-31 31v17q0 139 110.5 241.5T504 967h92z" glyph-name="two.oldstyle" horiz-adv-x="1095"/><glyph d="M1073-147q0-195-106.5-304.5T662-561H504q-195 0-299.5 106.5T92-150q0 35 35 35h106q37 0 37-35 6-135 60.5-192T504-399h158q123 0 178 59.5T895-148 831.5 48.5 625 117H489q-31 0-30 30v99q0 31 30 30h136q141 4 192 60.5T868 526q0 205-233 205H528q-119 0-173-57.5T295 481q0-35-35-35H152q-35 0-35 35 10 199 114.5 305.5T528 893h107q197 0 304.5-102.5T1047 529t-53.5-224T813 199q127-39 193.5-116t66.5-230z" glyph-name="three.oldstyle" horiz-adv-x="1148"/><glyph d="M694 82v244q0 31 31 30h117q31 0 30-30V82h125q31 0 31-31v-96q0-31-31-31H872v-389q0-31-30-31H725q-31 0-31 31v389H129q-27 0-33 21L78-10q-10 25 4 49l479 879q14 23 41 22h123q41 0 20-39L297 82h397z" glyph-name="four.oldstyle" horiz-adv-x="1128"/><glyph d="M670 414q403 0 403-496 0-219-105.5-334.5T662-532H504q-195 0-299.5 105T92-121q0 35 35 35h106q37 0 37-35 6-135 59.5-192.5T504-371h158q123 0 178 65.5T895-82q0 336-225 336H563q-123 0-178-40t-66-46-36-31H141q-31 0-30 31v39l65 674q4 31 31 30h756q31 0 30-30v-97q0-31-30-30H332l-45-430q131 88 276 90h107z" glyph-name="five.oldstyle" horiz-adv-x="1175"/><glyph d="M719 885q209 0 308-107.5t99-326.5-104-340T717-10H510q-104 0-175 29.5t-152 140T102 676q0 489 118 628.5T571 1444h82q221 0 325.5-94.5T1092 1075q0-31-31-31H944q-27 0-31 31-8 111-66.5 161T653 1286h-80q-166 0-227-99.5T281 795q84 90 247 90h191zm-2-733q121 0 176 73.5T948 449q0 283-229 282H510q-119 0-173-47t-54-156q0-203 53-289.5T510 152h207z" glyph-name="six.oldstyle" horiz-adv-x="1228"/><glyph d="M1051 795q0-31-9-47-274-332-436-611.5T354-489q-12-35-43-35H203q-14 0-20.5 14t-2.5 29q88 338 249 626.5T844 745H123q-31 0-31 31v103q0 31 31 30h897q31 0 31-30v-84z" glyph-name="seven.oldstyle" horiz-adv-x="1165"/><glyph d="M688 1444q397 0 397-358 0-180-137-267 209-100 209-370 0-229-111.5-344T727-10H520q-205 0-316.5 114.5T92 449q0 272 211 368-139 76-139 283 0 344 395 344h129zm-129-144q-131 0-182-51t-51-161 49-163 180-53h137q133 0 181.5 53t48.5 163-51.5 161-182.5 51H559zM719 147q131 0 196.5 69.5T981 440t-60.5 223.5T711 733H539q-150 0-210.5-69.5T268 440t65.5-223.5T530 147h189z" glyph-name="eight.oldstyle" horiz-adv-x="1249"/><glyph d="M508 6Q301 6 201.5 113.5T102 441t103.5 340T510 901h207q104 0 176-29.5T1045.5 732t80.5-517q0-160-15.5-344t-118-304T657-553h-82q-223 0-326.5 94T137-184q0 31 31 30h117q27 0 30-30 8-111 66.5-161T575-395h80q166 0 227.5 99T948 96Q864 6 698 6H508zm2 733q-121 0-175-73.5T281 448t52-216 175-72h209q121 0 175 47t54 155q0 203-53 290t-176 87H510z" glyph-name="nine.oldstyle" horiz-adv-x="1165"/><glyph d="M815 1444q201 0 306.5-111.5T1227 1018V416q0-203-105.5-314.5T815-10H641q-201 0-306.5 111.5T229 416v602q0 203 105.5 314.5T641 1444h174zm234-1028v602q0 141-55.5 202.5T815 1282H641q-125 0-179-61.5T408 1018V416q0-141 54-202.5T641 152h174q123 0 178.5 61.5T1049 416z" glyph-name="zero.tnum" horiz-adv-x="1433"/><glyph d="M778 1434q31 0 31-31V31q0-31-31-31H666q-31 0-31 31v1140l-88-88q-20-25-45 0l-82 82q-18 20 2 43l217 215 6 7q12 4 21 4h112z" glyph-name="one.tnum" horiz-adv-x="1433"/><glyph d="M1169 160q31 0 31-33V31q0-31-31-31H260q-31 0-31 31 0 331 74 448t219 174l293 115q135 53 175 105.5t40 174.5-55 178-178 56H659q-119 0-174-57.5T424 1032q0-35-35-35H281q-35 0-35 35 10 199 115.5 305.5T659 1444h138q199 0 305-107t106-291-73.5-275T870 610l-249-94q-121-45-161-134t-40-222h749z" glyph-name="two.tnum" horiz-adv-x="1433"/><glyph d="M1217 382q0-174-106.5-283T805-10H647Q452-10 348 96.5T236 401q0 35 34 35h107q37 0 37-35 6-135 60-192t173-57h158q123 0 178 59t55 191-63.5 197T768 668H633q-31 0-31 30v99q0 31 31 30h135q141 4 192.5 60.5T1012 1077q0 205-234 205H672q-119 0-173.5-57.5T438 1032q0-35-35-35H295q-35 0-35 35 10 199 114.5 305.5T672 1444h106q197 0 304.5-102.5T1190 1080t-53.5-224T956 750q127-39 194-116.5t67-251.5z" glyph-name="three.tnum" horiz-adv-x="1433"/><glyph d="M862 578v243q0 31 31 31h117q31 0 30-31V578h125q31 0 31-31v-98q0-31-31-31h-125V31q0-31-30-31H893q-31 0-31 31v387H295q-25 0-33 20l-18 47q-8 23 4 47l481 879q14 23 41 23h121q41 0 20-39L465 578h397z" glyph-name="four.tnum" horiz-adv-x="1433"/><glyph d="M803 936q403 0 403-496 0-219-105.5-334.5T795-10H637Q442-10 339 95.5T225 401q0 35 35 35h109q35 0 34-35 6-135 59.5-192T637 152h158q125 0 179 65.5t54 222.5q0 336-225 336H698q-70 0-130-23.5t-81.5-39T418 659H274q-31 0-30 31v39l67 674q4 31 31 31h754q31 0 30-31v-96q0-31-30-31H465l-43-430q129 88 276 90h105z" glyph-name="five.tnum" horiz-adv-x="1433"/><glyph d="M854 887q209 0 308.5-108.5T1262 451t-104.5-340T852-10H645q-104 0-175 29.5T318.5 159 238 676q0 160 15.5 343.5t117.5 304T707 1444h81q221 0 326-94.5t113-274.5q0-31-31-31h-117q-27 0-30 31-8 111-66.5 162T788 1288h-79q-166 0-227.5-100.5T416 795q84 92 248 92h190zm-2-735q121 0 176 73.5t55 223.5q0 285-229 284H645q-119 0-173-48t-54-157q0-201 53-288.5T645 152h207z" glyph-name="six.tnum" horiz-adv-x="1433"/><glyph d="M1184 1319q0-31-8-47-274-332-436-611.5T487 35Q475 0 444 0H336q-14 0-20.5 14.5T313 43q88 338 249 626.5T977 1270H256q-31 0-31 30v103q0 31 31 31h897q31 0 31-31v-84z" glyph-name="seven.tnum" horiz-adv-x="1433"/><glyph d="M817 1444q397 0 397-358 0-180-137-267 209-100 209-370 0-229-111.5-344T856-10H649q-205 0-316.5 114.5T221 449q0 272 211 368-139 76-139 283 0 344 395 344h129zm-129-144q-131 0-182-51t-51-161 49-163 180-53h137q133 0 181.5 53t48.5 163-51.5 161-182.5 51H688zM848 147q131 0 196.5 69.5T1110 440t-60.5 223.5T840 733H668q-150 0-210.5-69.5T397 440t65.5-223.5T659 147h189z" glyph-name="eight.tnum" horiz-adv-x="1433"/><glyph d="M633 549q-207 0-306.5 107.5T227 984t103.5 340T635 1444h207q104 0 176-30t152.5-139 80.5-517q0-160-15.5-344T1118 110 782-10h-82q-223 0-326.5 94T262 358q0 31 31 31h117q29 0 30-31 8-111 66.5-161T700 147h80q166 0 227.5 99.5T1073 639q-84-90-250-90H633zm2 733q-121 0-175-73t-54-217 52-217 175-73h209q121 0 175 47.5t54 155.5q0 203-53 290t-176 87H635z" glyph-name="nine.tnum" horiz-adv-x="1433"/><glyph d="M350 635q80 0 130-53.5T530 457V178q0-72-50-125T350 0h-51q-72 0-124 54.5T123 178v279q0 70 52 124t124 54h51zm56-186q0 31-24 50t-58 19-56-19.5-22-49.5V186q0-31 21.5-50t56.5-19 58.5 19.5T406 186v263z" glyph-name="zero.dnom" horiz-adv-x="653"/><glyph d="M246 602q0 31 30 31h66q31 0 31-31V31q0-31-31-31h-66q-31 0-30 31v571z" glyph-name="one.dnom" horiz-adv-x="618"/><glyph d="M532 31q0-31-30-31H158q-31 0-31 31v49q0 30 11 46.5t44 49.5l144 154q4 4 42 38t38 68q0 35-24 58.5T324 518t-56-19.5-22-45.5v-15q0-31-31-30h-61q-31 0-31 30v27q0 68 51 119t125 51h51q80 0 130-60.5T530 448t-33.5-114.5T399 221L295 117l207 4q31 0 30-31V31z" glyph-name="two.dnom" horiz-adv-x="655"/><glyph d="M350 0h-51q-74 0-125 51t-51 119v27q0 31 31 30h61q31 0 31-30v-15q0-27 21.5-46t56.5-19 58.5 19.5 23.5 52-23 54-55 21.5h-47q-31 0-31 31v45q0 31 31 31h47q33 0 55.5 21.5t22.5 54-24 52-58 19.5-56-19.5-22-45.5v-15q0-31-31-30h-61q-31 0-31 30v27q0 68 51 119t125 51h51q80 0 130-56.5T530 451t-69-134q69-63 69-134T480 56 350 0z" glyph-name="three.dnom" horiz-adv-x="653"/><glyph d="M535 242q31 0 30-31v-61q0-31-30-31h-29V31q0-31-31-31h-61q-31 0-31 31v88H160q-29 0-31 31l-6 59q0 8 8 24l217 388q8 14 29 14h98q31 0 31-31V242h29zm-152 4v205L279 246h104z" glyph-name="four.dnom" horiz-adv-x="688"/><glyph d="M530 193q0-78-50-135.5T350 0h-51q-74 0-125 51t-51 119v27q0 31 31 30h61q31 0 31-30v-15q0-27 21.5-46t54.5-19q80 0 84 86 6 128-70 115t-96-31h-86q-31 0-31 30v287q0 31 31 31h325q31 0 31-31v-57q0-31-31-31H242V399q45 23 166.5 11T530 193z" glyph-name="five.dnom" horiz-adv-x="653"/><glyph d="M530 193q0-78-50-135.5T350 0h-51q-70 0-113 48t-53 110-10 194q0 209 113 260 133 61 264-24 23-16 12-41l-12-41q-8-33-41-14-68 45-158 28-55-12-59-67l-2-54q45 23 167.5 11T530 193zm-205-76q81 0 81 95t-81 95-81-95 81-95z" glyph-name="six.dnom" horiz-adv-x="653"/><glyph d="M510 545q0-18-8-35L281 29Q265 0 248 0h-86q-31 0-19 29l219 483H154q-31 0-31 31v61q0 31 31 31h325q31 0 31-31v-59z" glyph-name="seven.dnom" horiz-adv-x="632"/><glyph d="M535 183q0-71-50.5-127T354 0h-51q-80 0-130 57t-50 127 70 133q-70 63-70 135t50 127.5T303 635h51q80 0 130.5-56.5T535 451t-70-134q70-63 70-134zM332 371q33 0 55.5 21.5t22.5 54-24 52-58 19.5-57-19.5-23-52 22.5-54T326 371h6zm-4-254q35 0 58.5 19.5t23.5 52-22.5 54T332 264h-6q-33 0-55.5-21.5t-22.5-54 22.5-52T328 117z" glyph-name="eight.dnom" horiz-adv-x="657"/><glyph d="M123 442q0 78 50 135.5T303 635h51q70 0 113-47.5T520 478t10-195q0-209-112-260-133-61-264 24-23 16-13 41l13 41q8 33 41 14 68-45 157-28 55 12 60 67l2 54q-45-23-168-11T123 442zm206 76q-81 0-81-95t81-95 81 95-81 95z" glyph-name="nine.dnom" horiz-adv-x="653"/><glyph d="M350 1487q80 0 130-53.5t50-124.5v-279q0-72-50-125t-130-53h-51q-72 0-124 54.5T123 1030v279q0 70 52 124t124 54h51zm56-187q0 31-24 50.5t-58 19.5-56-19.5-22-50.5v-262q0-31 21.5-50t56.5-19 58.5 19.5T406 1038v262z" glyph-name="zero.numr" horiz-adv-x="653"/><glyph d="M246 1456q0 31 30 31h66q31 0 31-31V885q0-31-31-31h-66q-31 0-30 31v571z" glyph-name="one.numr" horiz-adv-x="618"/><glyph d="M532 883q0-31-30-31H158q-31 0-31 31v49q0 30 11 46.5t44 49.5l144 154q4 4 42 38t38 68q0 35-24 58.5t-58 23.5-56-19.5-22-45.5v-15q0-31-31-30h-61q-31 0-31 30v27q0 68 51 119t125 51h51q80 0 130-60.5t50-126.5-33.5-114.5T399 1073L295 969l207 4q31 0 30-31v-59z" glyph-name="two.numr" horiz-adv-x="655"/><glyph d="M350 854h-51q-74 0-125 51t-51 119v27q0 31 31 30h61q31 0 31-30v-15q0-27 21.5-46t56.5-19 58.5 19.5 23.5 52-23 54-55 21.5h-47q-31 0-31 31v45q0 31 31 31h47q33 0 55.5 21.5t22.5 54-24 52-58 19.5-56-19.5-22-45.5v-15q0-31-31-30h-61q-31 0-31 30v27q0 68 51 119t125 51h51q80 0 130-56.5t50-127.5-69-134q69-63 69-134t-50-127-130-56z" glyph-name="three.numr" horiz-adv-x="653"/><glyph d="M535 1094q31 0 30-31v-62q0-31-30-30h-29v-88q0-31-31-31h-61q-31 0-31 31v88H160q-29 0-31 30l-6 60q0 8 8 24l217 388q8 14 29 14h98q31 0 31-31v-362h29zm-152 4v205l-104-205h104z" glyph-name="four.numr" horiz-adv-x="688"/><glyph d="M530 1044q0-78-50-135t-130-57h-51q-74 0-125 51t-51 119v27q0 31 31 30h61q31 0 31-30v-15q0-27 21.5-46t54.5-19q80 0 84 86 6 128-70 115t-96-31h-86q-31 0-31 30v287q0 31 31 31h325q31 0 31-31v-57q0-31-31-31H242v-117q45 23 166.5 11T530 1044z" glyph-name="five.numr" horiz-adv-x="653"/><glyph d="M530 1044q0-78-50-135t-130-57h-51q-70 0-113 48t-53 110-10 194q0 209 113 260 133 61 264-24 23-16 12-41l-12-41q-8-33-41-15-68 45-158 29-55-12-59-67l-2-54q45 23 167.5 11T530 1044zm-205-75q81 0 81 95t-81 95-81-95 81-95z" glyph-name="six.numr" horiz-adv-x="653"/><glyph d="M510 1397q0-18-8-35L281 881q-16-29-33-29h-86q-31 0-19 29l219 483H154q-31 0-31 31v61q0 31 31 31h325q31 0 31-31v-59z" glyph-name="seven.numr" horiz-adv-x="632"/><glyph d="M535 1035q0-71-50.5-127T354 852h-51q-80 0-130 57t-50 127 70 133q-70 63-70 134t50 127.5 130 56.5h51q80 0 130.5-56.5T535 1303t-70-134q70-63 70-134zm-203 188q33 0 55.5 21.5t22.5 54-24 52-58 19.5-57-19.5-23-52 22.5-54T326 1223h6zm-4-254q35 0 58.5 19.5t23.5 52-22.5 54T332 1116h-6q-33 0-55.5-21.5t-22.5-54 22.5-52T328 969z" glyph-name="eight.numr" horiz-adv-x="657"/><glyph d="M123 1296q0 78 50 135.5t130 57.5h51q70 0 113-47.5t53-109.5 10-195q0-209-112-260-133-61-264 24-23 16-13 41l13 41q8 33 41 14 68-45 157-28 55 12 60 67l2 54q-45-23-168-11t-123 217zm206 76q-81 0-81-95t81-95 81 95-81 95z" glyph-name="nine.numr" horiz-adv-x="653"/></font>
</defs>
</svg>
