<?xml version="1.0" standalone="no"?>
<!DOCTYPE svg PUBLIC "-//W3C//DTD SVG 1.1//EN" "http://www.w3.org/Graphics/SVG/1.1/DTD/svg11.dtd">
<svg xmlns="http://www.w3.org/2000/svg"><metadata>This SVG WebFont was generated by YouWorkForThem.
Copyright Â© 2014 by Connary Fagen. All rights reserved.</metadata><defs><font horiz-adv-x="1185" id="ywftsvg"><font-face ascent="1638" bbox="-407.224 -638.2 2138 1958" cap-height="1434" descent="-410" font-family="" font-stretch="normal" font-weight="300" panose-1="0 0 4 0 0 0 0 0 0 0" underline-position="0" underline-thickness="0" unicode-range="U+0020-FB02" units-per-em="2048" x-height="1024"/><missing-glyph d="M840 1638v-2048h-650v2048h650zM682 1501h-338v-67h133v-76h-135v-68h340v68h-135v76h135v67zM547 1237h-205v-213h340v70h-135v143zM477 1167v-73h-67v73h67zM682 969h-340v-68h135v-76h-135v-67h205v143h135v68zM682 846h-68v-135h-272v-70h340v205zM682 596h-205v-115 h70v47h67v-96h-204v164h-68v-231h340v231zM682 242h-340v-232h340v232zM614 174v-96h-204v96h204zM682 -37h-340v-67h143l-143 -97v-67h340v67h-209l143 97h66v67z" horiz-adv-x="1024"/><glyph d="M995 993v-962q0 -31 -30 -31h-39q-31 0 -31 31v897h-586v-897q0 -31 -30 -31h-39q-31 0 -31 31v897h-96q-31 0 -31 30v35q0 31 31 31h96v106q0 172 80 264.5t231 92.5h125q31 0 31 -31v-35q0 -31 -31 -30h-125q-113 0 -162 -62.5t-49 -198.5v-106h656q30 0 30 -31z M930 1327q-31 0 -31 31v45q0 31 31 31h33q31 0 30 -31v-45q0 -31 -30 -31h-33z" glyph-name="uniFB01" horiz-adv-x="1138" unicode="fi"/><glyph d="M971 1487v-1456q0 -31 -31 -31h-39q-31 0 -31 31v1360h-350q-113 0 -162 -62.5t-49 -198.5v-106h316q31 0 30 -31v-35q0 -31 -30 -30h-316v-897q0 -31 -30 -31h-39q-31 0 -31 31v897h-96q-31 0 -31 30v35q0 31 31 31h96v106q0 172 80 264.5t231 92.5h451z" glyph-name="uniFB02" horiz-adv-x="1093" unicode="fl"/><glyph d="M1212 928h-172v-606q0 -125 38 -177.5t139 -54.5q14 2 20 -7t6 -24v-34q0 -29 -31 -29q-147 2 -209.5 80t-62.5 241v611h-631v-897q0 -31 -30 -31h-39q-31 0 -31 31v897h-96q-31 0 -31 30v35q0 31 31 31h96v106q0 172 80 264.5t231 92.5h125q31 0 31 -31v-35 q0 -31 -31 -30h-125q-113 0 -162 -62.5t-49 -198.5v-106h631v119q0 31 31 31h39q31 0 30 -31v-119h172q33 0 33 -31v-35q0 -27 -18 -28q-5 -2 -15 -2z" glyph-name="f_t.liga" horiz-adv-x="1327" unicode="ft"/><glyph d="M840 1638v-2048h-650v2048h650zM682 1501h-338v-67h133v-76h-135v-68h340v68h-135v76h135v67zM547 1237h-205v-213h340v70h-135v143zM477 1167v-73h-67v73h67zM682 969h-340v-68h135v-76h-135v-67h205v143h135v68zM682 846h-68v-135h-272v-70h340v205zM682 596h-205v-115 h70v47h67v-96h-204v164h-68v-231h340v231zM682 242h-340v-232h340v232zM614 174v-96h-204v96h204zM682 -37h-340v-67h143l-143 -97v-67h340v67h-209l143 97h66v67z" glyph-name=".notdef" horiz-adv-x="1024"/><glyph glyph-name="glyph1" horiz-adv-x="0"/><glyph glyph-name="glyph2" horiz-adv-x="681"/><glyph glyph-name="space" horiz-adv-x="614" unicode=" "/><glyph d="M162 1403q0 31 31 31h40q31 0 31 -31v-1043q0 -31 -31 -30h-40q-31 0 -31 30v1043zM154 86q0 31 30 31h58q31 0 30 -31v-55q0 -31 -30 -31h-58q-31 0 -30 31v55z" glyph-name="exclam" horiz-adv-x="425" unicode="!"/><glyph d="M133 1403q0 31 31 31h39q31 0 30 -31v-526q0 -31 -30 -31h-39q-31 0 -31 31v526zM463 1403q0 31 31 31h38q31 0 31 -31v-526q0 -31 -31 -31h-38q-31 0 -31 31v526z" glyph-name="quotedbl" horiz-adv-x="696" unicode="&quot;"/><glyph d="M1047 989h-146v-483h146q31 0 30 -31v-35q0 -31 -30 -30h-146v-379q0 -31 -31 -31h-43q-31 0 -30 31v379h-371v-379q0 -31 -31 -31h-43q-31 0 -30 31v379h-148q-31 0 -31 30v35q0 31 31 31h148v483h-148q-31 0 -31 31v35q0 31 31 30h148v371q0 31 30 31h43q31 0 31 -31 v-371h371v371q0 31 30 31h43q31 0 31 -31v-371h146q31 0 30 -30v-35q1 -31 -30 -31zM797 506v483h-371v-483h371z" glyph-name="numbersign" horiz-adv-x="1220" unicode="#"/><glyph d="M862 571q0 -129 -93 -200.5t-234 -79.5v-131q0 -31 -31 -31h-53q-31 0 -31 31v131q-135 6 -225.5 72.5t-100.5 195.5q-4 31 31 31h55q29 0 33 -29q6 -92 58.5 -126t148.5 -36v332q-160 23 -239 79t-79 189q0 256 318 273v131q0 31 31 31h53q31 0 31 -31v-131 q133 -8 221 -81t92 -214q0 -33 -29 -33h-51q-35 0 -35 27q-2 182 -198 192v-336q164 -20 245.5 -73.5t81.5 -182.5zM215 1003q0 -92 47 -120.5t158 -40.5v321q-106 -2 -155.5 -35t-49.5 -125zM752 569q0 97 -63.5 117.5t-153.5 32.5v-320q217 8 217 170z" glyph-name="dollar" horiz-adv-x="954" unicode="$"/><glyph d="M297 1487q82 0 135 -54.5t53 -136.5v-22q0 -82 -52 -135.5t-136 -53.5h-27q-82 0 -135 53.5t-53 135.5v22q0 82 53 136.5t135 54.5h27zM1040 1487h68q39 0 20 -31l-827 -1425q-18 -31 -41 -31h-67q-39 0 -21 31l827 1425q18 31 41 31zM383 1292q0 90 -92 90h-17 q-90 0 -90 -90v-14q0 -41 23.5 -65.5t66.5 -24.5h17q92 0 92 90v14zM1020 401q82 0 135 -54t53 -136v-23q0 -82 -53 -135t-135 -53h-27q-84 0 -136 53t-52 135v23q0 82 53 136t135 54h27zM1106 207q0 90 -92 90h-17q-90 0 -90 -90v-14q0 -41 23.5 -66t66.5 -25h17 q92 0 92 91v14z" glyph-name="percent" horiz-adv-x="1300" unicode="%"/><glyph d="M1309 0h-62q-16 0 -37 16l-125 105q-78 -152 -340 -152h-272q-190 0 -285.5 80t-95.5 266v134q0 92 39 154.5t154 115.5l57 26l-16 15q-98 82 -131 143.5t-33 157.5v67q0 154 97 235t286 81h92q188 0 289.5 -81t101.5 -235v-163h-104v163q0 113 -66.5 166.5t-220.5 53.5 h-92q-154 0 -216.5 -52.5t-62.5 -167.5v-67q0 -86 35 -134t125 -122l596 -508v365q0 29 29 28h163q29 0 29 -28v-39q0 -29 -29 -29h-88v-279q0 -59 -8 -100l209 -178q14 -12 8 -24.5t-26 -12.5zM750 68q113 0 173 25.5t83 94.5l-584 490l-80 -33q-76 -33 -110.5 -75 t-34.5 -119v-136q0 -147 62.5 -197t209.5 -50h281z" glyph-name="ampersand" horiz-adv-x="1429" unicode="&amp;"/><glyph d="M133 1403q0 31 31 31h39q31 0 30 -31v-526q0 -31 -30 -31h-39q-31 0 -31 31v526z" glyph-name="quotesingle" horiz-adv-x="366" unicode="'"/><glyph d="M238 229q0 -125 57 -196.5t160 -71.5h57q31 0 31 -31v-43q0 -31 -31 -30h-45q-152 0 -243 105.5t-91 279.5v1003q0 174 91 279.5t243 105.5h45q31 0 31 -31v-43q0 -31 -31 -30h-57q-102 0 -159.5 -72t-57.5 -197v-1028z" glyph-name="parenleft" horiz-adv-x="675" unicode="("/><glyph d="M438 229v1028q0 125 -57 197t-160 72h-57q-31 0 -31 30v43q0 31 31 31h45q152 0 243 -105.5t91 -279.5v-1003q0 -174 -91.5 -279.5t-242.5 -105.5h-45q-31 0 -31 30v43q0 31 31 31h57q102 0 159.5 71.5t57.5 196.5z" glyph-name="parenright" horiz-adv-x="675" unicode=")"/><glyph d="M432 956q0 -25 -26 -24h-56q-23 0 -22 24v174l-135 -100q-23 -12 -37 8l-27 47q-14 20 8 35l160 90l-160 88q-23 12 -8 35l27 47q14 20 37 9l135 -101v174q0 25 22 25h56q27 0 26 -25v-174l131 101q25 12 37 -9l29 -47q12 -25 -11 -35l-157 -88l157 -90q20 -12 11 -35 l-29 -47q-12 -20 -37 -8l-131 100v-174z" glyph-name="asterisk" horiz-adv-x="755" unicode="*"/><glyph d="M901 715q29 0 29 -31v-43q0 -31 -31 -31h-317v-344q0 -31 -31 -30h-43q-31 0 -31 30v344h-323q-31 0 -31 31v43q0 31 31 31h323v340q0 31 31 30h43q31 0 31 -30v-340h319z" glyph-name="plus" horiz-adv-x="1052" unicode="+"/><glyph d="M209 174q31 0 31 -31v-120q0 -203 -88 -308q-2 -4 -10.5 -5t-12.5 3l-18 15q-16 14 0 36t32.5 87t16.5 129l8 20h-66q-31 0 -30 31v112q0 31 30 31h107z" glyph-name="comma" horiz-adv-x="311" unicode=","/><glyph d="M154 465q-31 0 -31 31v34q0 31 31 31h540q31 0 31 -31v-34q0 -31 -31 -31h-540z" glyph-name="hyphen" horiz-adv-x="847" unicode="-"/><glyph d="M72 143q0 31 30 31h107q31 0 31 -31v-112q0 -31 -31 -31h-107q-31 0 -30 31v112z" glyph-name="period" horiz-adv-x="311" unicode="."/><glyph d="M731 1487h55q33 0 21 -31l-647 -1476q-12 -31 -41 -31h-56q-33 0 -20 31l647 1476q12 31 41 31z" glyph-name="slash" horiz-adv-x="808" unicode="/"/><glyph d="M662 1444q197 0 304 -110.5t107 -315.5v-602q0 -205 -107.5 -315.5t-303.5 -110.5h-138q-197 0 -304 110.5t-107 315.5v602q0 205 107.5 315.5t303.5 110.5h138zM969 416v602q0 172 -73 250t-234 78h-138q-162 0 -234.5 -78t-72.5 -250v-602q0 -172 72.5 -250t234.5 -78 h138q162 0 234.5 78t72.5 250z" glyph-name="zero" unicode="0"/><glyph d="M406 1434q31 0 30 -31v-1372q0 -31 -30 -31h-39q-31 0 -31 31v1243l-109 -109q-20 -23 -43 0l-30 31q-20 20 0 43l186 184q11 11 27 11h39z" glyph-name="one" horiz-adv-x="722" unicode="1"/><glyph d="M995 98q31 0 31 -30v-37q0 -31 -31 -31h-872q-31 0 -31 31q2 252 57.5 381t229.5 206l272 119q88 39 127 59.5t80 57.5t54.5 82t13.5 117q0 147 -73 220t-235 73h-98q-158 0 -229.5 -75t-77.5 -245q0 -29 -29 -29h-47q-29 0 -28 29q8 205 113.5 311.5t297.5 106.5h98 q195 0 303.5 -104.5t108.5 -286.5q0 -216 -117.5 -291.5t-255.5 -132.5l-225 -94q-148 -62 -186.5 -178.5t-38.5 -258.5h788z" glyph-name="two" horiz-adv-x="1122" unicode="2"/><glyph d="M1042 401q0 -195 -107.5 -303t-303.5 -108h-127q-190 0 -297 106.5t-115 311.5q0 29 29 28h47q29 0 29 -28q6 -170 77.5 -246t229.5 -76h127q162 0 234.5 77t72.5 231q0 300 -348 315h-125q-31 0 -31 30v33q0 31 31 31h125q172 6 245.5 68.5t73.5 224.5q0 252 -307 252 h-74q-158 0 -229.5 -76t-77.5 -246q0 -29 -28 -29h-48q-29 0 -28 29q8 205 114.5 311.5t296.5 106.5h74q190 0 301 -99t111 -253t-54.5 -220.5t-185.5 -113.5q131 -43 199.5 -125t68.5 -232z" glyph-name="three" horiz-adv-x="1134" unicode="3"/><glyph d="M725 555v279q0 31 31 30h43q31 0 30 -30v-279h150q31 0 31 -31v-35q0 -31 -31 -30h-150v-428q0 -31 -30 -31h-43q-31 0 -31 31v428h-596q-25 0 -33 20l-18 37q-10 20 4 43l496 852q14 23 40 23h46q43 0 20 -37l-491 -842h532z" glyph-name="four" horiz-adv-x="1101" unicode="4"/><glyph d="M645 928q190 0 293.5 -121t103.5 -355t-107.5 -348t-303.5 -114h-127q-193 0 -298.5 105.5t-113.5 312.5q0 29 29 28h47q29 0 29 -28q6 -172 76.5 -247t230.5 -75h127q162 0 234.5 83t72.5 269t-72.5 289.5t-220.5 103.5h-96q-75 0 -112.5 -13t-63.5 -21.5t-66 -38.5 t-88 -62h-76q-31 0 -30 31v39l63 637q4 31 31 31h731q31 0 31 -31v-35q0 -31 -31 -31h-668l-55 -526q80 57 149.5 86t184.5 31h96z" glyph-name="five" horiz-adv-x="1144" unicode="5"/><glyph d="M678 879q211 0 306 -102.5t95 -324.5t-105.5 -342t-297.5 -120h-168q-80 0 -138.5 15t-163 102.5t-104.5 574.5q0 345 48 489t142.5 208.5t254.5 64.5h82q393 0 413 -371q2 -31 -30 -31h-43q-27 0 -31 31q-14 139 -79.5 208t-229.5 69h-80q-197 0 -270.5 -130t-77.5 -466 q98 125 303 125h174zM676 86q299 0 299 348q0 180 -64.5 264t-232.5 84h-168q-299 0 -299 -223q0 -248 70.5 -360.5t226.5 -112.5h168z" glyph-name="six" horiz-adv-x="1181" unicode="6"/><glyph d="M1040 1368q0 -31 -8 -47q-276 -309 -451 -607t-284 -679q-12 -35 -41 -35h-43q-8 0 -14 7t-6 16.5t2 19.5q197 690 729 1294h-801q-31 0 -31 31v35q0 31 31 31h887q31 0 30 -31v-35z" glyph-name="seven" horiz-adv-x="1132" unicode="7"/><glyph d="M1102 442q0 -453 -438 -452h-134q-438 0 -438 452q0 287 213 377q-150 74 -149 281q0 166 96 255t283 89h129q184 0 279 -88t95 -256q0 -211 -147 -281q211 -90 211 -377zM535 1350q-147 0 -210 -59.5t-63 -189.5t57.5 -186.5t210.5 -56.5h138q152 0 208 55.5t56 186.5 t-61.5 190.5t-206.5 59.5h-129zM668 88q164 0 246.5 84t82.5 262t-74.5 256t-238.5 78h-170q-164 0 -240.5 -78t-76.5 -255q0 -347 331 -347h140z" glyph-name="eight" horiz-adv-x="1193" unicode="8"/><glyph d="M504 555q-211 0 -306.5 102.5t-95.5 324.5t105.5 342t298.5 120h168q80 0 177.5 -26t162.5 -180.5t65 -494.5q0 -341 -48 -483.5t-142.5 -206t-253.5 -63.5h-82q-393 0 -414 370q-4 31 31 31h43q29 0 31 -31q14 -139 79.5 -207.5t229.5 -68.5h80q197 0 270.5 130 t77.5 466q-98 -125 -303 -125h-174zM506 1348q-299 0 -299 -349q0 -180 64.5 -264t232.5 -84h168q299 0 299 223q0 248 -71 361t-226 113h-168z" glyph-name="nine" horiz-adv-x="1181" unicode="9"/><glyph d="M154 932q0 31 30 31h76q31 0 31 -31v-96q0 -31 -31 -31h-76q-31 0 -30 31v96zM154 127q0 31 30 31h76q31 0 31 -31v-96q0 -31 -31 -31h-76q-31 0 -30 31v96z" glyph-name="colon" horiz-adv-x="444" unicode=":"/><glyph d="M154 932q0 31 30 31h76q31 0 31 -31v-96q0 -31 -31 -31h-76q-31 0 -30 31v96zM184 0q-31 0 -30 31v143q0 31 30 31h76q27 0 31 -33q2 -12 4 -148.5t-43 -203.5q-18 -18 -31 -21l-16 -12q-12 -2 -19.5 10.5t8.5 36.5t23.5 77.5t1.5 82.5l6 6h-41z" glyph-name="semicolon" horiz-adv-x="448" unicode=";"/><glyph d="M860 856q0 -37 -20 -49l-555 -324l555 -323q20 -12 20 -49v-52q0 -12 -9 -17t-24 1l-688 403q-16 10 -16 37t16 37l688 404q14 6 23.5 1t9.5 -18v-51z" glyph-name="less" horiz-adv-x="983" unicode="&lt;"/><glyph d="M154 780q-31 0 -31 31v45q0 31 31 31h622q31 0 31 -31v-45q0 -31 -31 -31h-622zM154 451q-31 0 -31 30v45q0 31 31 31h622q31 0 31 -31v-45q0 -31 -31 -30h-622z" glyph-name="equal" horiz-adv-x="929" unicode="="/><glyph d="M123 856v51q0 12 9 17.5t24 -0.5l688 -404q16 -10 16 -36.5t-16 -37.5l-688 -403q-14 -6 -23.5 -1t-9.5 17v52q0 37 20 49l555 323l-555 324q-20 12 -20 49z" glyph-name="greater" horiz-adv-x="983" unicode=">"/><glyph d="M557 1513q193 0 300.5 -107.5t107.5 -305.5t-77 -273.5t-193 -115.5q-116 -41 -151.5 -75t-35.5 -112v-166q0 -31 -31 -30h-41q-31 0 -30 30v160q0 109 46 166t136 92t120.5 49.5t74.5 48t60.5 85t16.5 128.5q0 176 -73.5 251t-229.5 75h-84q-143 0 -215 -68.5 t-80 -234.5q0 -29 -28 -29h-50q-29 0 -28 29q8 203 113.5 303t287.5 100h84zM397 86q0 31 31 31h57q31 0 31 -31v-55q0 -31 -31 -31h-57q-31 0 -31 31v55z" glyph-name="question" horiz-adv-x="1036" unicode="?"/><glyph d="M844 51q0 -27 -23 -37q-88 -41 -168 -41h-75q-219 0 -337 122t-118 368v493q0 244 119.5 366t345.5 122h96q211 0 334 -121t123 -350v-533q0 -72 -42 -111.5t-110 -39.5h-12q-41 0 -81 31.5t-54 89.5q-92 -123 -246 -123h-16q-260 0 -261 254q0 256 267 256h243v8 q0 143 -33.5 191t-140.5 48h-34q-56 0 -80.5 -8t-42.5 -14t-83 -62q-20 -18 -40 3l-29 22q-20 20 -2 41q57 61 115.5 89t161.5 28h30q150 0 219.5 -82t69.5 -254v-371q0 -45 45 -45t45 45v537q0 371 -346 370h-96q-186 0 -270.5 -90t-84.5 -297v-497q0 -205 83 -295t262 -90 h75q76 0 154 47q37 23 37 -17v-53zM594 387q46 0 68 8t34.5 12.5t26.5 16.5t22.5 17t22.5 21.5t19.5 23t21.5 24.5t20 25v161h-241q-88 0 -123 -31.5t-35 -120.5t35 -127t115 -30h14z" glyph-name="at" horiz-adv-x="1263" unicode="@"/><glyph d="M1055 0h-51q-29 0 -37 33l-113 354h-563l-113 -354q-8 -33 -37 -33h-51q-37 0 -24 33l442 1368q10 33 39 33h51q29 0 39 -33l442 -1368q12 -33 -24 -33zM322 481h501l-252 789z" glyph-name="A" horiz-adv-x="1144" unicode="A"/><glyph d="M1038 440v-69q0 -199 -101 -285t-296 -86h-477q-31 0 -31 31v1372q0 31 31 31h475q172 0 255 -88.5t83 -286t-125 -285.5q186 -78 186 -334zM872 1076q0 151 -48 205t-185 54h-401v-526h401q137 0 185 58t48 209zM934 371v69q0 166 -65.5 221.5t-227.5 55.5h-403v-619 h403q164 0 228.5 53.5t64.5 219.5z" glyph-name="B" horiz-adv-x="1120" unicode="B"/><glyph d="M1034 436q29 0 29 -28q-6 -205 -112.5 -311.5t-299.5 -106.5h-127q-197 0 -304 110.5t-107 315.5v602q0 205 107.5 315.5t303.5 110.5h127q193 0 299.5 -106.5t112.5 -311.5q0 -29 -29 -29h-45q-31 0 -31 29q-6 170 -77.5 245t-229.5 75h-127q-162 0 -234.5 -78 t-72.5 -250v-602q0 -172 72.5 -250t234.5 -78h127q158 0 229.5 75t77.5 245q0 29 31 28h45z" glyph-name="C" horiz-adv-x="1165" unicode="C"/><glyph d="M653 1434q190 0 295 -104.5t105 -303.5v-618q0 -199 -104.5 -303.5t-295.5 -104.5h-489q-31 0 -31 31v1372q0 31 31 31h489zM948 408v618q0 164 -70.5 236.5t-224.5 72.5h-415v-1237h415q154 0 224.5 73t70.5 237z" glyph-name="D" horiz-adv-x="1144" unicode="D"/><glyph d="M913 1335h-675v-590h520q31 0 30 -30v-37q0 -31 -30 -31h-520v-549h686q31 0 30 -30v-37q0 -31 -30 -31h-760q-31 0 -31 31v1372q0 31 31 31h749q31 0 31 -31v-37q0 -31 -31 -31z" glyph-name="E" horiz-adv-x="1036" unicode="E"/><glyph d="M238 1335v-590h522q31 0 31 -30v-37q0 -31 -31 -31h-522v-616q0 -31 -31 -31h-43q-31 0 -31 31v1372q0 31 31 31h751q31 0 31 -31v-37q0 -31 -31 -31h-677z" glyph-name="F" horiz-adv-x="1017" unicode="F"/><glyph d="M1034 762q29 0 29 -31v-315q0 -205 -107.5 -315.5t-304.5 -110.5h-127q-197 0 -304 110.5t-107 315.5v602q0 205 107.5 315.5t303.5 110.5h127q190 0 297 -103.5t115 -300.5q0 -29 -29 -28h-45q-31 0 -31 28q-6 160 -78.5 233t-228.5 73h-127q-162 0 -234.5 -78 t-72.5 -250v-602q0 -172 72.5 -250t234.5 -78h127q164 0 235.5 78t71.5 250v250h-231q-29 0 -29 28v37q0 31 29 31h307z" glyph-name="G" horiz-adv-x="1165" unicode="G"/><glyph d="M999 1434q31 0 31 -31v-1372q0 -31 -31 -31h-43q-31 0 -30 31v616h-688v-616q0 -31 -31 -31h-43q-31 0 -31 31v1372q0 31 31 31h43q31 0 31 -31v-658h688v658q0 31 30 31h43z" glyph-name="H" horiz-adv-x="1163" unicode="H"/><glyph d="M133 1403q0 31 31 31h43q31 0 31 -31v-1372q0 -31 -31 -31h-43q-31 0 -31 31v1372z" glyph-name="I" horiz-adv-x="370" unicode="I"/><glyph d="M390 86q147 0 241 99.5t94 258.5v959q0 31 31 31h43q31 0 30 -31v-957q0 -199 -124.5 -329.5t-314.5 -130.5t-310 108q-12 10 -2 23l45 55q8 10 24 0q96 -86 243 -86z" glyph-name="J" horiz-adv-x="962" unicode="J"/><glyph d="M997 0h-45q-33 0 -55 29l-518 633l-141 -181v-450q0 -31 -31 -31h-43q-31 0 -31 31v1372q0 31 31 31h43q31 0 31 -31v-785l608 785q23 31 47 31h43q16 0 23.5 -14.5t-5.5 -30.5l-505 -658l561 -682q12 -12 9 -30.5t-22 -18.5z" glyph-name="K" horiz-adv-x="1091" unicode="K"/><glyph d="M844 98q31 0 30 -30v-37q0 -31 -30 -31h-680q-31 0 -31 31v1372q0 31 31 31h43q31 0 31 -31v-1305h606z" glyph-name="L" horiz-adv-x="966" unicode="L"/><glyph d="M1286 1434q31 0 31 -31v-1372q0 -31 -31 -31h-43q-31 0 -31 31v1308l-424 -1308q-10 -31 -38 -31h-50q-29 0 -38 31l-424 1308v-1308q0 -31 -31 -31h-43q-31 0 -31 31v1372q0 31 31 31h117q31 0 41 -31l403 -1247l405 1247q8 31 41 31h115z" glyph-name="M" horiz-adv-x="1449" unicode="M"/><glyph d="M1022 1434q31 0 31 -31v-1372q0 -31 -31 -31h-109q-25 0 -36 23l-639 1314v-1306q0 -31 -31 -31h-43q-31 0 -31 31v1372q0 31 31 31h108q27 0 37 -23l639 -1315v1307q0 31 31 31h43z" glyph-name="N" unicode="N"/><glyph d="M662 1444q197 0 304 -110.5t107 -315.5v-602q0 -205 -107.5 -315.5t-303.5 -110.5h-138q-197 0 -304 110.5t-107 315.5v602q0 205 107.5 315.5t303.5 110.5h138zM969 416v602q0 172 -73 250t-234 78h-138q-162 0 -234.5 -78t-72.5 -250v-602q0 -172 72.5 -250t234.5 -78 h138q162 0 234.5 78t72.5 250z" glyph-name="O" unicode="O"/><glyph d="M643 1434q190 0 294.5 -105.5t104.5 -304.5v-100q0 -199 -104 -304.5t-295 -105.5h-405v-483q0 -31 -31 -31h-43q-31 0 -31 31v1372q0 31 31 31h479zM938 924v100q0 166 -70.5 238.5t-224.5 72.5h-405v-723h405q154 0 224.5 73t70.5 239z" glyph-name="P" horiz-adv-x="1114" unicode="P"/><glyph d="M662 1444q197 0 304 -110.5t107 -315.5v-602q0 -205 -107.5 -315.5t-303.5 -110.5h-17v-150q0 -31 -31 -33h-43q-31 0 -30 31v152h-17q-197 0 -304 110.5t-107 315.5v602q0 205 107.5 315.5t303.5 110.5h138zM969 416v602q0 172 -73 250t-234 78h-138q-162 0 -234.5 -78 t-72.5 -250v-602q0 -172 72.5 -250t234.5 -78h138q162 0 234.5 78t72.5 250z" glyph-name="Q" unicode="Q"/><glyph d="M1051 0h-52q-25 0 -32 20l-228 502q-41 -8 -96 -8h-405v-483q0 -31 -31 -31h-43q-31 0 -31 31v1372q0 31 31 31h479q190 0 294.5 -105.5t104.5 -304.5v-100q0 -281 -206 -375l235 -514q8 -14 2 -24.5t-22 -10.5zM238 612h405q154 0 224.5 73t70.5 239v100 q0 166 -70.5 238.5t-224.5 72.5h-405v-723z" glyph-name="R" horiz-adv-x="1157" unicode="R"/><glyph d="M1044 410q0 -205 -106.5 -312.5t-304.5 -107.5h-119q-190 0 -296.5 102.5t-115.5 294.5q0 29 29 29h47q29 0 29 -29q6 -154 79.5 -226.5t227.5 -72.5h119q162 0 234.5 76t72.5 246q0 108 -51 158q-29 28 -51 46q-40 33 -232 78l-86 21q-254 56 -326.5 141.5t-72.5 224.5 q0 365 411 365h78q184 0 286.5 -100.5t113.5 -290.5q-4 -29 -31 -29h-45q-33 0 -29 29q-6 154 -74.5 223.5t-220.5 69.5h-78q-166 0 -236.5 -56.5t-70.5 -210.5q0 -78 15.5 -108.5t23.5 -47t30.5 -30.5t34 -22.5t43 -17.5t63.5 -19.5t83 -18.5l86 -20q260 -60 350 -151.5 t90 -233.5z" glyph-name="S" horiz-adv-x="1146" unicode="S"/><glyph d="M928 1434q31 0 30 -31v-37q0 -31 -30 -31h-355v-1304q0 -31 -30 -31h-43q-31 0 -31 31v1304h-356q-31 0 -31 31v37q0 31 31 31h815z" glyph-name="T" horiz-adv-x="1038" unicode="T"/><glyph d="M1063 1434q31 0 31 -29v-989q0 -207 -107.5 -316.5t-304.5 -109.5h-137q-199 0 -305.5 109.5t-106.5 316.5v989q0 29 29 29h47q29 0 29 -29v-989q0 -328 307 -328h137q307 0 307 328v989q0 29 29 29h45z" glyph-name="U" horiz-adv-x="1226" unicode="U"/><glyph d="M100 1434h52q29 0 36 -33l394 -1237l395 1237q8 33 37 33h51q37 0 25 -33l-443 -1368q-10 -33 -39 -33h-51q-29 0 -39 33l-442 1368q-12 33 24 33z" glyph-name="V" horiz-adv-x="1165" unicode="V"/><glyph d="M1745 1434q37 0 27 -31l-347 -1372q-8 -31 -39 -31h-49q-31 0 -39 31l-374 1243l-377 -1243q-8 -31 -39 -31h-47q-31 0 -39 31l-348 1372q-6 31 24 31h47q31 0 37 -31l303 -1247l371 1247q8 31 39 31h55q29 0 39 -31l373 -1247l301 1247q6 31 35 31h47z" glyph-name="W" horiz-adv-x="1845" unicode="W"/><glyph d="M969 0h-56q-25 0 -41 29l-333 589l-334 -589q-16 -29 -41 -29h-55q-37 0 -21 29l393 688l-393 688q-16 29 21 29h55q25 0 41 -29l334 -590l333 590q16 29 41 29h56q37 0 20 -29l-393 -688l393 -688q16 -29 -20 -29z" glyph-name="X" horiz-adv-x="1077" unicode="X"/><glyph d="M1047 1434q39 0 20 -31l-449 -772v-600q0 -31 -30 -31h-43q-31 0 -31 31v600l-446 772q-18 31 20 31h59q23 0 41 -31l379 -668l379 668q18 31 41 31h60z" glyph-name="Y" horiz-adv-x="1134" unicode="Y"/><glyph d="M952 1341q0 -6 -6 -16l-731 -1223h707q31 0 30 -30v-41q0 -31 -30 -31h-799q-31 0 -31 31v63q0 6 6 15l731 1222h-702q-31 0 -31 31v41q0 31 31 31h795q31 0 30 -31v-62z" glyph-name="Z" horiz-adv-x="1044" unicode="Z"/><glyph d="M414 1526h-176v-1565h176q31 0 30 -31v-43q0 -31 -30 -30h-250q-31 0 -31 30v1712q0 31 31 31h250q31 0 30 -31v-43q1 -30 -30 -30z" glyph-name="bracketleft" horiz-adv-x="577" unicode="["/><glyph d="M721 0h-55q-27 0 -41 31l-623 1425q-12 31 21 31h55q29 0 41 -31l622 -1425q16 -31 -20 -31z" glyph-name="backslash" horiz-adv-x="786" unicode="\"/><glyph d="M414 1630q31 0 30 -31v-1712q0 -31 -30 -30h-250q-31 0 -31 30v43q0 31 31 31h176v1565h-176q-31 0 -31 30v43q0 31 31 31h250z" glyph-name="bracketright" horiz-adv-x="577" unicode="]"/><glyph d="M655 932h-55q-29 0 -41 31l-170 387l-168 -387q-12 -31 -41 -31h-55q-33 0 -21 31l211 493q10 31 41 31h68q27 0 41 -31l211 -493q12 -31 -21 -31z" glyph-name="asciicircum" horiz-adv-x="780" unicode="^"/><glyph d="M133 0q-31 0 -31 31v37q0 31 31 30h930q31 0 31 -30v-37q0 -31 -31 -31h-930z" glyph-name="underscore" horiz-adv-x="1196" unicode="_"/><glyph d="M383 1124h-43q-17 0 -27 15.5t-16 21.5l-186 236q-12 16 -5 26.5t25 10.5h78q20 0 43 -37l151 -236q10 -16 3 -26.5t-23 -10.5z" glyph-name="grave" horiz-adv-x="512" unicode="`"/><glyph d="M881 0h-66q-33 0 -33 49v123q-109 -182 -309 -182h-94q-141 0 -219 77.5t-78 227t78 222.5t215 73h407v63q0 166 -50 224.5t-200 58.5h-36q-143 0 -252 -55q-33 -18 -47 6l-21 37q-16 25 12 41q106 68 308 67h36q184 0 267.5 -90t83.5 -287v-606q0 -15 4 -32t-6 -17z M465 88q121 0 203 61.5t114 165.5v183h-403q-100 0 -148.5 -46t-48.5 -157t49.5 -159t147.5 -48h86z" glyph-name="a" horiz-adv-x="1011" unicode="a"/><glyph d="M575 1032q162 0 262.5 -100.5t100.5 -272.5v-292q0 -170 -101.5 -273.5t-261.5 -103.5h-73q-213 0 -279 168v-127q0 -31 -30 -31h-39q-31 0 -31 31v1372q0 31 31 31h39q31 0 30 -31v-526q61 156 279 155h73zM838 358v295q0 281 -265 281h-86q-264 0 -264 -281v-295 q0 -131 68.5 -200.5t195.5 -69.5h86q127 0 196 69.5t69 200.5z" glyph-name="b" horiz-adv-x="1030" unicode="b"/><glyph d="M805 717q-25 0 -31 26q-20 92 -86.5 141.5t-159.5 49.5h-67q-264 0 -264 -279v-307q0 -125 68.5 -192.5t195.5 -67.5h67q66 0 116 22.5t69.5 42t66.5 70.5q20 23 41 8l29 -22q27 -16 6 -43q-47 -57 -80 -88t-99.5 -59.5t-148.5 -28.5h-67q-162 0 -265.5 101.5 t-103.5 262.5v305q0 170 102.5 270.5t266.5 100.5h67q119 0 218.5 -78t127.5 -204q6 -31 -24 -31h-45z" glyph-name="c" horiz-adv-x="958" unicode="c"/><glyph d="M877 1434q31 0 30 -31v-1372q0 -31 -30 -31h-39q-31 0 -31 31v125q-70 -166 -279 -166h-73q-160 0 -261.5 103.5t-101.5 273.5v292q0 172 100.5 272.5t262.5 100.5h73q213 0 279 -153v524q0 31 31 31h39zM543 88q127 0 195.5 69.5t68.5 200.5v295q0 283 -264 283h-86 q-264 0 -264 -283v-295q0 -131 68.5 -200.5t195.5 -69.5h86z" glyph-name="d" horiz-adv-x="1030" unicode="d"/><glyph d="M528 1032q139 0 248 -103.5t109 -266.5v-130q0 -29 -18.5 -46t-49.5 -17h-620v-121q0 -125 68.5 -192.5t195.5 -67.5h67q63 0 110 18q46 18 66 38q22 20 44 48t26 31q20 23 43 6l27 -18q25 -18 6 -43q-49 -59 -80 -89t-95.5 -59.5t-146.5 -29.5h-67q-162 0 -265.5 101.5 t-103.5 262.5v305q0 172 102.5 272.5t266.5 100.5h67zM780 561v92q0 137 -69.5 210t-182.5 73h-67q-264 0 -264 -281v-94h583z" glyph-name="e" horiz-adv-x="976" unicode="e"/><glyph d="M645 1487q31 0 31 -31v-35q0 -31 -31 -30h-125q-113 0 -162 -62.5t-49 -198.5v-106h316q31 0 30 -31v-35q0 -31 -30 -30h-316v-897q0 -31 -30 -31h-39q-31 0 -31 31v897h-96q-31 0 -31 30v35q0 31 31 31h96v106q0 172 80 264.5t231 92.5h125z" glyph-name="f" horiz-adv-x="727" unicode="f"/><glyph d="M877 1024q31 0 30 -31v-1052q0 -350 -424 -351q-106 0 -182 19q-18 2 -18 18v62q0 20 18 16q76 -18 211 -18t215 52t80 198v219q-70 -166 -279 -166h-73q-160 0 -261.5 103.5t-101.5 273.5v292q0 172 100.5 272.5t262.5 100.5h73q213 0 279 -153v114q0 31 31 31h39z M543 88q127 0 195.5 69.5t68.5 200.5v295q0 283 -264 283h-86q-264 0 -264 -283v-295q0 -131 68.5 -200.5t195.5 -69.5h86z" glyph-name="g" horiz-adv-x="1030" unicode="g"/><glyph d="M557 1032q176 0 251 -91t75 -271v-639q0 -31 -31 -31h-39q-31 0 -31 31v633q0 143 -47 207.5t-176 64.5h-35q-113 0 -189.5 -52.5t-111.5 -109.5v-743q0 -31 -30 -31h-39q-31 0 -31 31v1372q0 31 31 31h39q31 0 30 -31v-539q117 168 318 168h16z" glyph-name="h" horiz-adv-x="1005" unicode="h"/><glyph d="M147 1403q0 31 31 31h33q31 0 31 -31v-45q0 -31 -31 -31h-33q-31 0 -31 31v45zM143 993q0 31 31 31h39q31 0 31 -31v-962q0 -31 -31 -31h-39q-31 0 -31 31v962z" glyph-name="i" horiz-adv-x="387" unicode="i"/><glyph d="M154 1403q0 31 30 31h31q31 0 31 -31v-45q0 -31 -31 -31h-31q-31 0 -30 31v45zM154 -106v1099q0 31 30 31h31q31 0 31 -31v-1093q0 -82 -60.5 -162t-152.5 -115q-29 -10 -39 21l-12 37q-10 29 18 36q57 20 105.5 69.5t48.5 107.5z" glyph-name="j" horiz-adv-x="389" unicode="j"/><glyph d="M154 1434h39q31 0 30 -31v-903l508 504q20 20 35 20h63q18 0 21.5 -15.5t-8.5 -25.5l-434 -428l485 -514q12 -16 8 -28.5t-22 -12.5h-48q-25 0 -51 25l-440 464l-117 -114v-344q0 -31 -30 -31h-39q-31 0 -31 31v1372q0 31 31 31z" glyph-name="k" horiz-adv-x="974" unicode="k"/><glyph d="M123 1403q0 31 31 31h39q31 0 30 -31v-1372q0 -31 -30 -31h-39q-31 0 -31 31v1372z" glyph-name="l" horiz-adv-x="346" unicode="l"/><glyph d="M1217 1032q174 0 248.5 -92t74.5 -270v-639q0 -31 -31 -31h-39q-31 0 -30 31v633q0 143 -46 207.5t-177 64.5h-33q-115 0 -192 -52.5t-109 -109.5v-743q0 -31 -31 -31h-39q-31 0 -31 31v633q0 143 -47 207.5t-176 64.5h-35q-113 0 -189.5 -52.5t-111.5 -109.5v-743 q0 -31 -30 -31h-39q-31 0 -31 31v962q0 31 31 31h39q31 0 30 -31v-129q117 168 318 168h16q250 0 307 -205l19 37q115 168 317 168h17z" glyph-name="m" horiz-adv-x="1662" unicode="m"/><glyph d="M557 1032q176 0 251 -91t75 -271v-639q0 -31 -31 -31h-39q-31 0 -31 31v633q0 143 -47 207.5t-176 64.5h-35q-113 0 -189.5 -52.5t-111.5 -109.5v-743q0 -31 -30 -31h-39q-31 0 -31 31v962q0 31 31 31h39q31 0 30 -31v-129q117 168 318 168h16z" glyph-name="n" horiz-adv-x="1005" unicode="n"/><glyph d="M545 1032q164 0 265 -100.5t101 -272.5v-292q0 -170 -101 -273.5t-265 -103.5h-88q-162 0 -263.5 103.5t-101.5 273.5v292q0 172 100.5 272.5t264.5 100.5h88zM809 358v295q0 283 -264 283h-88q-264 0 -264 -283v-295q0 -131 68.5 -200.5t195.5 -69.5h88 q129 0 196.5 69.5t67.5 200.5z" glyph-name="o" horiz-adv-x="1003" unicode="o"/><glyph d="M575 1032q162 0 262.5 -100.5t100.5 -272.5v-292q0 -170 -101.5 -273.5t-261.5 -103.5h-73q-209 0 -279 166v-535q0 -31 -30 -31h-39q-31 0 -31 31v1372q0 31 31 31h39q31 0 30 -31v-114q66 154 279 153h73zM838 358v295q0 283 -265 283h-86q-264 0 -264 -283v-295 q0 -131 68.5 -200.5t195.5 -69.5h86q127 0 196 69.5t69 200.5z" glyph-name="p" horiz-adv-x="1030" unicode="p"/><glyph d="M877 1024q31 0 30 -31v-1372q0 -31 -30 -31h-39q-31 0 -31 31v535q-70 -166 -279 -166h-73q-160 0 -261.5 103.5t-101.5 273.5v292q0 172 100.5 272.5t262.5 100.5h73q213 0 279 -153v114q0 31 31 31h39zM543 88q127 0 195.5 69.5t68.5 200.5v295q0 281 -264 281h-86 q-264 0 -264 -281v-295q0 -131 68.5 -200.5t195.5 -69.5h86z" glyph-name="q" horiz-adv-x="1030" unicode="q"/><glyph d="M549 936h-25q-113 0 -189.5 -52.5t-111.5 -109.5v-743q0 -31 -30 -31h-39q-31 0 -31 31v962q0 31 31 31h39q31 0 30 -31v-129q115 168 334 168q68 0 133 -16q27 -12 19 -39l-17 -43q-10 -26 -47 -12t-96 14z" glyph-name="r" horiz-adv-x="761" unicode="r"/><glyph d="M520 -10h-84q-139 0 -228 66.5t-116 187.5q-6 31 31 30h47q23 0 29 -28q25 -82 80 -120t157 -38h82q250 0 250 197q0 79 -48 121t-148 55q-30 4 -91 12q-176 20 -271 86t-95 200t90 202.5t241 68.5h60q147 0 234 -68.5t94 -203.5q0 -33 -29 -33h-43q-33 0 -33 33 q-12 180 -227 180h-51q-236 0 -236 -174q0 -96 67.5 -140.5t171 -56.5t151.5 -21q133 -25 189 -76q74 -67 74 -197.5t-99 -206.5t-249 -76z" glyph-name="s" horiz-adv-x="950" unicode="s"/><glyph d="M487 928h-174v-606q0 -125 38 -177.5t138 -54.5q12 2 19.5 -7t7.5 -24l-2 -34q0 -29 -29 -29q-147 2 -209.5 80t-62.5 241v611h-111q-31 0 -30 30v33q0 33 30 33h111v119q0 31 31 31h39q31 0 30 -31v-119h172q33 0 33 -31v-35q0 -30 -31 -30z" glyph-name="t" horiz-adv-x="600" unicode="t"/><glyph d="M449 -8q-174 0 -250 92t-76 270v639q0 31 31 31h39q31 0 30 -31v-633q0 -143 47 -206.5t179 -63.5h32q113 0 190 51.5t111 108.5v743q0 31 31 31h39q31 0 31 -31v-962q0 -31 -31 -31h-39q-31 0 -31 31v129q-117 -168 -317 -168h-16z" glyph-name="u" horiz-adv-x="1005" unicode="u"/><glyph d="M100 1024h43q27 0 37 -35q41 -131 131 -420.5t140 -445.5q55 170 150 482.5t118 383.5q10 35 37 35h45q37 0 24 -35l-307 -952q-14 -37 -45 -37h-45q-31 0 -45 37l-307 952q-12 35 24 35z" glyph-name="v" horiz-adv-x="901" unicode="v"/><glyph d="M1382 1024q35 0 25 -35l-279 -952q-10 -37 -45 -37h-45q-35 0 -45 37q-18 61 -96 309t-152 528q-80 -300 -154.5 -538t-92.5 -299q-10 -37 -45 -37h-45q-14 0 -27.5 10t-15.5 27l-281 952q-10 35 25 35h43q27 0 36 -35q27 -96 98 -363t146 -503q121 377 256 866 q10 35 37 35h41q27 0 37 -35q117 -422 256 -866q75 236 146 503t98 363q10 35 36 35h43z" glyph-name="w" horiz-adv-x="1490" unicode="w"/><glyph d="M795 0h-45q-25 0 -48 37l-251 397l-248 -397q-23 -37 -47 -37h-47q-18 0 -24.5 11.5t3.5 27.5l303 481l-293 465q-12 16 -5 27.5t26 11.5h47q25 0 47 -37l242 -381l237 381q23 37 47 37h47q18 0 24.5 -11.5t-5.5 -27.5l-291 -467l303 -479q10 -16 4 -27.5t-26 -11.5z" glyph-name="x" horiz-adv-x="905" unicode="x"/><glyph d="M889 1024q35 0 20 -37l-536 -1362q-14 -35 -43 -35h-45q-35 0 -21 37l164 416l-373 944q-14 37 19 37h47q27 0 41 -35l319 -809l320 809q14 35 43 35h45z" glyph-name="y" horiz-adv-x="964" unicode="y"/><glyph d="M813 934q0 -10 -10 -25l-606 -813h583q33 0 33 -30v-35q0 -31 -31 -31h-669q-31 0 -31 31v51q0 16 10 29l608 817h-557q-31 0 -30 30v33q0 33 30 33h637q33 0 33 -31v-59z" glyph-name="z" horiz-adv-x="894" unicode="z"/><glyph d="M352 223q0 -123 56.5 -192.5t160.5 -69.5h47q31 0 31 -31v-43q0 -31 -31 -30h-34q-152 0 -243 105.5t-91 279.5v329q0 20 -15 37l-92 113q-14 23 0 45l92 113q14 16 15 36v330q0 174 91 279.5t243 105.5h34q31 0 31 -31v-43q0 -31 -31 -30h-47q-104 0 -160.5 -70 t-56.5 -192v-369q0 -20 -14 -37l-88 -115l90 -114q12 -18 12 -37v-369z" glyph-name="braceleft" horiz-adv-x="780" unicode="{"/><glyph d="M164 1608q0 31 31 30h43q31 0 30 -30v-1987q0 -31 -30 -31h-43q-31 0 -31 31v1987z" glyph-name="bar" horiz-adv-x="432" unicode="|"/><glyph d="M428 223v369q0 18 12 37l90 114l-88 115q-14 16 -14 37v369q0 123 -56.5 192.5t-160.5 69.5h-47q-31 0 -31 30v43q0 31 31 31h35q152 0 242.5 -105.5t90.5 -279.5v-330q0 -20 15 -36l92 -113q14 -23 0 -45l-92 -113q-14 -16 -15 -37v-329q0 -174 -91 -279.5t-242 -105.5 h-35q-31 0 -31 30v43q0 31 31 31h47q104 0 160.5 69.5t56.5 192.5z" glyph-name="braceright" horiz-adv-x="780" unicode="}"/><glyph d="M958 752q12 -23 -20 -45q-203 -147 -418 -9q-98 61 -175 60.5t-181 -72.5q-20 -14 -35 16l-23 43q-12 23 21 46q201 145 418 8q98 -61 175 -60.5t181 72.5q20 12 35 -16z" glyph-name="asciitilde" horiz-adv-x="1064" unicode="~"/><glyph d="M272 938q0 -31 -30 -31h-58q-31 0 -30 31v55q0 31 30 31h58q31 0 30 -31v-55zM264 -379q0 -31 -31 -31h-40q-31 0 -31 31v1043q0 31 31 30h40q31 0 31 -30v-1043z" glyph-name="exclamdown" horiz-adv-x="425" unicode="¡"/><glyph d="M545 -231q0 -31 -31 -31h-53q-31 0 -31 31v221q-150 10 -244 110.5t-94 253.5v305q0 160 93.5 260.5t244.5 110.5v164q0 31 31 31h53q31 0 31 -31v-164q115 -6 208 -83t121 -199q6 -31 -24 -31h-45q-25 -1 -31 26q-20 88 -81.5 136.5t-147.5 52.5v-844q59 2 105 23.5 t67.5 42t62.5 69.5q20 23 41 8l29 -22q27 -16 6 -43q-45 -55 -76.5 -86t-94 -59.5t-140.5 -30.5v-221zM197 348q0 -117 60 -184.5t173 -75.5v844q-233 -16 -233 -277v-307z" glyph-name="cent" horiz-adv-x="958" unicode="¢"/><glyph d="M711 1511q197 0 309.5 -125.5t116.5 -347.5q0 -31 -31 -30h-43q-33 0 -33 30q0 371 -319 371h-72q-170 0 -249 -97.5t-54 -287.5q12 -90 70 -246h366q31 0 31 -30v-39q0 -31 -31 -31h-334q14 -68 13 -117q-12 -211 -109 -416q158 68 352 -16q98 -41 181 -39t190 49 q14 6 22.5 -4t8.5 -26v-48q0 -14 -6.5 -18t-24.5 -12q-197 -86 -397 0q-111 45 -195 35.5t-197 -68.5q-14 -8 -48.5 27.5t-28.5 52.5q55 131 109 277.5t18 322.5h-203q-31 0 -31 31v39q0 31 31 30h170q-57 156 -68 246q-27 227 89 357t325 130h72z" glyph-name="sterling" horiz-adv-x="1228" unicode="£"/><glyph d="M678 -10h-88q-190 0 -295 137l-119 -119q-20 -20 -43 0l-31 31q-20 23 0 43l144 141q-23 68 -23 144v292q0 82 25 150l-146 141q-20 20 0 43l31 31q23 20 43 0l123 -121q100 129 291 129h88q197 0 295 -137l131 129q23 20 43 0l29 -31q20 -23 0 -43l-154 -151 q20 -68 20 -140v-292q0 -72 -18 -134l154 -151q23 -20 0 -43l-31 -31q-20 -20 -43 0l-129 127q-100 -145 -297 -145zM942 358v295q0 281 -264 281h-88q-264 0 -264 -281v-295q0 -131 67.5 -200.5t196.5 -69.5h88q127 0 195.5 69.5t68.5 200.5z" glyph-name="currency" horiz-adv-x="1275" unicode="¤"/><glyph d="M618 569h312q31 0 31 -30v-43q0 -31 -31 -31h-312v-103h312q31 0 31 -30v-43q0 -31 -31 -31h-312v-227q0 -31 -30 -31h-43q-31 0 -31 31v227h-311q-31 0 -31 31v43q0 31 31 30h311v103h-311q-31 0 -31 31v43q0 31 31 30h311v62l-446 772q-18 31 20 31h59q23 0 41 -31 l379 -668l379 668q18 31 41 31h60q38 0 20 -31l-449 -772v-62z" glyph-name="yen" horiz-adv-x="1134" unicode="¥"/><glyph d="M164 1464q0 31 31 31h43q31 0 30 -31v-661q0 -31 -30 -31h-43q-31 0 -31 31v661zM164 426q0 31 31 31h43q31 0 30 -31v-662q0 -31 -30 -30h-43q-31 0 -31 30v662z" glyph-name="brokenbar" horiz-adv-x="432" unicode="¦"/><glyph d="M1098 494q0 -137 -78 -248q78 -94 78 -236q0 -182 -127 -301t-303 -119h-95q-170 0 -300 119t-130 295v59q0 31 31 31h45q31 0 31 -31l2 -59q4 -139 98 -224t223 -85h95q137 0 231 86t94 229.5t-85 210t-230 92.5l-107 21q-420 82 -419 393q0 147 79 252q-80 90 -79 229 q0 180 116.5 294t286.5 114h107q166 0 293.5 -125t125.5 -309v-39q0 -31 -30 -31h-45q-31 0 -31 31v39q0 147 -92 237t-221 90h-107q-131 0 -215 -78.5t-84 -216.5t82 -203t231 -96l107 -20q422 -82 422 -401zM993 494q0 141 -84 204.5t-231 92.5l-107 20q-170 35 -264 100 q-51 -77 -51 -197t81 -182.5t232 -93.5l107 -20q164 -31 268 -103q49 78 49 179z" glyph-name="section" horiz-adv-x="1241" unicode="§"/><glyph d="M102 1403q0 31 31 31h33q31 0 31 -31v-45q0 -31 -31 -31h-33q-31 0 -31 31v45zM676 1403q0 31 31 31h30q31 0 31 -31v-45q0 -31 -31 -31h-30q-31 0 -31 31v45z" glyph-name="dieresis" horiz-adv-x="870" unicode="¨"/><glyph d="M690 1444q203 0 327 -123t124 -344v-541q0 -223 -123 -343t-328 -120h-129q-203 0 -325.5 120t-122.5 343v541q0 221 122.5 344t325.5 123h129zM690 72q340 0 340 366v539q0 184 -89 277.5t-251 93.5h-129q-160 0 -249 -93.5t-89 -277.5v-539q0 -186 88 -276t250 -90h129 zM885 532q18 0 18 -14q-2 -135 -65.5 -208.5t-167.5 -73.5h-82q-242 0 -242 272v401q0 272 242 273h82q104 0 167.5 -73t65.5 -208q0 -14 -18 -14h-74q-23 0 -23 18q0 96 -26.5 135t-91.5 39h-82q-74 0 -100.5 -30.5t-26.5 -133.5v-413q0 -102 26.5 -133t100.5 -31h82 q66 0 93.5 40t24.5 136q0 18 23 18h74z" glyph-name="copyright" horiz-adv-x="1253" unicode="©"/><glyph d="M545 963h-51q-23 0 -23 30v19q-68 -49 -147 -49h-31q-78 0 -134.5 43t-56.5 116.5t52.5 117.5t138.5 44h178q-4 121 -102 121h-52q-86 0 -145 -51q-23 -18 -31 0l-22 28q-12 14 0 27q74 78 196 78h50q78 0 130 -60.5t52 -146.5v-287q0 -12 4 -21q3 -9 -6 -9zM324 1047 q88 0 147 59v94h-178q-111 0 -111 -77t111 -76h31z" glyph-name="ordfeminine" horiz-adv-x="653" unicode="ª"/><glyph d="M565 872v-98q0 -18 -37 -45l-268 -203l268 -200q4 -4 10.5 -8.5t9.5 -7.5t10 -8.5t7 -20.5v-101q0 -16 -11 -21t-26 5l-385 291q-30 15 -30 39v65q0 24 30 39l385 291q14 10 25.5 5t11.5 -22zM1079 872v-98q0 -18 -37 -45l-270 -203l270 -200q4 -4 10.5 -8.5t9.5 -7.5 t10 -8.5t7 -20.5v-101q0 -16 -11 -21t-26 5l-385 291q-30 15 -30 39v65q0 24 30 39l385 291q14 10 25.5 5t11.5 -22z" glyph-name="guillemotleft" horiz-adv-x="1191" unicode="«"/><glyph d="M899 723q31 0 31 -31v-403q0 -31 -31 -31h-43q-31 0 -31 31v329h-671q-31 0 -31 31v43q0 31 31 31h745z" glyph-name="logicalnot" horiz-adv-x="1052" unicode="¬"/><glyph d="M154 465q-31 0 -31 31v34q0 31 31 31h540q31 0 31 -31v-34q0 -31 -31 -31h-540z" glyph-name="uni00AD" horiz-adv-x="847" unicode="­"/><glyph d="M690 1444q203 0 327 -123t124 -344v-541q0 -223 -123 -343t-328 -120h-129q-203 0 -325.5 120t-122.5 343v541q0 221 122.5 344t325.5 123h129zM690 72q340 0 340 366v539q0 184 -89 277.5t-251 93.5h-129q-160 0 -249 -93.5t-89 -277.5v-539q0 -186 88 -276t250 -90h129 zM670 1159q227 0 227 -277q0 -138 -94 -204q90 -68 90 -219v-154q0 -35 -29 -35h-51q-31 0 -31 35v148q0 90 -20.5 127.5t-89.5 37.5h-187v-313q0 -35 -28 -35h-56q-29 0 -28 35v797q0 23 17.5 40t39.5 17h240zM672 715q82 0 99 47.5t17 113.5t-2 89.5t-17 55.5t-97 32h-187 v-338h187z" glyph-name="registered" horiz-adv-x="1253" unicode="®"/><glyph d="M133 1331q-31 0 -31 31v41q0 31 31 31h664q31 0 30 -31v-41q0 -31 -30 -31h-664z" glyph-name="macron" horiz-adv-x="929" unicode="¯"/><glyph d="M436 1444q127 0 205 -84t78 -215v-23q0 -131 -78 -215t-205 -84h-30q-131 0 -207 83t-76 216v23q0 133 75.5 216t207.5 83h30zM610 1143q0 193 -174 192h-26q-176 0 -177 -192v-19q0 -190 177 -190h26q174 0 174 190v19z" glyph-name="degree" horiz-adv-x="841" unicode="°"/><glyph d="M901 709q29 0 29 -31v-43q0 -31 -31 -31h-317v-350q0 -31 -31 -31h-43q-31 0 -31 31v350h-323q-31 0 -31 31v43q0 31 31 31h323v346q0 31 31 30h43q31 0 31 -30v-346h319zM901 104q29 0 29 -30v-43q0 -31 -31 -31h-745q-31 0 -31 31v43q0 31 31 30h747z" glyph-name="plusminus" horiz-adv-x="1052" unicode="±"/><glyph d="M532 883q0 -31 -30 -31h-344q-31 0 -31 31v49q0 30 11 46.5t44 49.5l144 154q4 4 42 38t38 68q0 35 -24 58.5t-58 23.5t-56 -19.5t-22 -45.5v-15q0 -31 -31 -30h-61q-31 0 -31 30v27q0 68 51 119t125 51h51q80 0 130 -60.5t50 -126.5t-33.5 -114.5t-97.5 -112.5 l-104 -104l207 4q31 0 30 -31v-59z" glyph-name="uni00B2" horiz-adv-x="655" unicode="²"/><glyph d="M352 854h-51q-74 0 -125 51t-51 119v27q0 31 31 30h61q31 0 31 -30v-15q0 -27 21.5 -46t56.5 -19t58.5 19.5t23.5 52t-23 54t-55 21.5h-47q-31 0 -31 31v45q0 31 31 31h47q33 0 55.5 21.5t22.5 54t-24 52t-58 19.5t-56 -19.5t-22 -45.5v-15q0 -31 -31 -30h-61 q-31 0 -31 30v27q0 68 51 119t125 51h51q80 0 130 -56.5t50 -127.5t-69 -134q69 -63 69 -134t-50 -127t-130 -56z" glyph-name="uni00B3" horiz-adv-x="653" unicode="³"/><glyph d="M303 1434h78q18 0 25.5 -10.5t-5.5 -26.5l-186 -236q-6 -6 -16 -21.5t-27 -15.5h-43q-16 0 -23.5 10.5t3.5 26.5l151 236q23 37 43 37z" glyph-name="acute" horiz-adv-x="512" unicode="´"/><glyph d="M987 1434q31 0 31 -31v-1372q0 -31 -31 -31h-43q-31 0 -31 31v567h-143v-567q0 -31 -31 -31h-43q-31 0 -30 31v567h-164q-184 0 -292 111.5t-108 306t107.5 306.5t292.5 112h485zM500 702h166v627h-166q-293 0 -293 -313.5t293 -313.5zM913 702v627h-143v-627h143z" glyph-name="paragraph" horiz-adv-x="1153" unicode="¶"/><glyph d="M102 670q0 31 31 30h76q31 0 31 -30v-97q0 -31 -31 -30h-76q-31 0 -31 30v97z" glyph-name="periodcentered" horiz-adv-x="342" unicode="·"/><glyph d="M211 14h63q23 0 6 -28q-18 -28 -26 -51t10.5 -33.5t23 -11.5t26.5 -4t51.5 -6t41 -5t36 -7t48 -17t38 -39.5t14.5 -87.5t-41 -97t-137 -37h-82q-172 0 -177 160q0 20 19 21h53q20 0 21 -17q4 -39 25.5 -57.5t78.5 -18.5h39q59 0 83 12.5t24 49.5q0 45 -189 65 q-40 7 -56 9t-37.5 11t-26 50t47.5 123q12 16 23 16z" glyph-name="cedilla" horiz-adv-x="647" unicode="¸"/><glyph d="M246 1456q0 31 30 31h66q31 0 31 -31v-571q0 -31 -31 -31h-66q-31 0 -30 31v571z" glyph-name="uni00B9" horiz-adv-x="618" unicode="¹"/><glyph d="M354 524q86 0 146.5 -65.5t60.5 -151.5v-88q0 -90 -60.5 -154.5t-146.5 -64.5h-45q-86 0 -146.5 64.5t-60.5 154.5v88q0 88 60.5 152.5t146.5 64.5h45zM481 309q0 55 -36.5 95t-92.5 40h-41q-57 0 -92 -39.5t-35 -95.5v-92q0 -55 35 -96t92 -41h41q53 0 91 41t38 96v92z " glyph-name="ordmasculine" horiz-adv-x="663" unicode="º"/><glyph d="M565 559v-65q0 -24 -30 -39l-385 -291q-14 -10 -25.5 -5t-11.5 21v101q0 17 8 22.5t16 12t13 10.5l270 200l-270 203q-37 27 -37 45v98q0 16 11.5 21.5t25.5 -4.5l385 -291q30 -15 30 -39zM1079 559v-65q0 -24 -30 -39l-385 -291q-14 -10 -25.5 -5t-11.5 21v101 q0 17 8 22.5t16 12t13 10.5l268 200l-268 203q-37 27 -37 45v98q0 16 11.5 21.5t25.5 -4.5l385 -291q30 -15 30 -39z" glyph-name="guillemotright" horiz-adv-x="1191" unicode="»"/><glyph d="M1085 1487h78q39 0 21 -31l-828 -1425q-18 -31 -41 -31h-77q-39 0 -21 31l827 1425q18 31 41 31zM246 1456q0 31 30 31h66q31 0 31 -31v-571q0 -31 -31 -31h-66q-31 0 -30 31v571zM1358 242q31 0 31 -31v-61q0 -31 -31 -31h-29v-88q0 -31 -31 -31h-61q-31 0 -31 31v88 h-223q-29 0 -31 31l-6 59q0 8 8 24l217 388q8 14 29 14h98q31 0 31 -31v-362h29zM1206 246v205l-104 -205h104z" glyph-name="onequarter" horiz-adv-x="1511" unicode="¼"/><glyph d="M1085 1487h78q39 0 21 -31l-828 -1425q-18 -31 -41 -31h-77q-39 0 -21 31l827 1425q18 31 41 31zM246 1456q0 31 30 31h66q31 0 31 -31v-571q0 -31 -31 -31h-66q-31 0 -30 31v571zM1356 90v-59q0 -31 -31 -31h-344q-31 0 -31 31v49q0 46 56 96l143 154q4 4 42 38t38 68 q0 35 -23.5 58.5t-58.5 23.5t-56.5 -19.5t-21.5 -45.5v-15q0 -31 -31 -30h-61q-31 0 -31 30v27q0 68 51.5 119t124.5 51h52q80 0 130 -60.5t50 -126.5t-34 -114.5t-97 -112.5l-105 -104l207 4q31 0 31 -31z" glyph-name="onehalf" horiz-adv-x="1478" unicode="½"/><glyph d="M350 854h-51q-74 0 -125 51t-51 119v27q0 31 31 30h61q31 0 31 -30v-15q0 -27 21.5 -46t56.5 -19t58.5 19.5t23.5 52t-23 54t-55 21.5h-47q-31 0 -31 31v45q0 31 31 31h47q33 0 55.5 21.5t22.5 54t-24 52t-58 19.5t-56 -19.5t-22 -45.5v-15q0 -31 -31 -30h-61 q-31 0 -31 30v27q0 68 51 119t125 51h51q80 0 130 -56.5t50 -127.5t-69 -134q69 -63 69 -134t-50 -127t-130 -56zM1120 1487h78q39 0 21 -31l-828 -1425q-18 -31 -41 -31h-78q-39 0 -20 31l827 1425q18 31 41 31zM1393 242q31 0 30 -31v-61q0 -31 -30 -31h-29v-88 q0 -31 -31 -31h-61q-31 0 -31 31v88h-223q-27 0 -31 31l-6 59q0 8 8 24l217 388q6 14 29 14h98q31 0 31 -31v-362h29zM1241 246v205l-104 -205h104z" glyph-name="threequarters" horiz-adv-x="1546" unicode="¾"/><glyph d="M639 940q0 -31 -31 -31h-57q-31 0 -31 31v55q0 31 31 31h57q31 0 31 -31v-55zM479 -487q-193 0 -300 107.5t-107 305.5t77.5 273.5t192.5 113.5q117 43 151.5 77t34.5 112v166q0 31 31 30h41q31 0 31 -30v-160q0 -109 -46 -166t-151 -98q-47 -18 -61.5 -23.5t-52 -23 t-73.5 -49.5t-53.5 -89t-17.5 -120q0 -176 74 -251t229 -75h84q143 0 215 68.5t80 234.5q0 29 29 29h49q29 0 29 -29q-8 -203 -114 -303t-288 -100h-84z" glyph-name="questiondown" horiz-adv-x="1036" unicode="¿"/><glyph d="M344 1905h78q20 0 43 -37l151 -236q10 -16 3 -26.5t-23 -10.5h-43q-16 0 -26.5 15.5t-16.5 21.5l-186 236q-12 16 -5 26.5t25 10.5zM1055 0h-51q-29 0 -37 33l-113 354h-563l-113 -354q-8 -33 -37 -33h-51q-37 0 -24 33l442 1368q10 33 39 33h51q29 0 39 -33l442 -1368 q12 -33 -24 -33zM322 481h501l-252 789z" glyph-name="Agrave" horiz-adv-x="1144" unicode="À"/><glyph d="M549 1534q-16 0 -23.5 10t2.5 27l152 235q20 37 43 37h78q18 0 25.5 -10t-5.5 -27l-186 -235q-6 -5 -17 -21t-26 -16h-43zM1055 0h-51q-29 0 -37 33l-113 354h-563l-113 -354q-8 -33 -37 -33h-51q-37 0 -24 33l442 1368q10 33 39 33h51q29 0 39 -33l442 -1368 q12 -33 -24 -33zM322 481h501l-252 789z" glyph-name="Aacute" horiz-adv-x="1144" unicode="Á"/><glyph d="M256 1513q-16 0 -22.5 13.5t6.5 25.5l264 258q4 4 13 11.5t17 14.5t25 7h25q16 0 57 -33l264 -258q12 -12 6 -25.5t-22 -13.5h-45q-23 0 -62 39l-211 207l-209 -207q-39 -39 -61 -39h-45zM1055 0h-51q-29 0 -37 33l-113 354h-563l-113 -354q-8 -33 -37 -33h-51 q-37 0 -24 33l442 1368q10 33 39 33h51q29 0 39 -33l442 -1368q12 -33 -24 -33zM322 481h501l-252 789z" glyph-name="Acircumflex" horiz-adv-x="1144" unicode="Â"/><glyph d="M242 1706l-21 31q-12 20 12 39q100 72 176 72.5t175 -62.5q98 -55 141 -54t145 66q16 6 19.5 3t13.5 -19l23 -31q10 -18 -15 -39q-102 -72 -177 -74t-173 64q-96 55 -140 54t-147 -66q-16 -13 -32 16zM1055 0h-51q-29 0 -37 33l-113 354h-563l-113 -354q-8 -33 -37 -33 h-51q-37 0 -24 33l442 1368q10 33 39 33h51q29 0 39 -33l442 -1368q12 -33 -24 -33zM322 481h501l-252 789z" glyph-name="Atilde" horiz-adv-x="1144" unicode="Ã"/><glyph d="M270 1737q-31 0 -30 30v45q0 31 30 31h33q31 0 31 -31v-45q0 -31 -31 -30h-33zM844 1737q-31 0 -31 30v45q0 31 31 31h30q31 0 31 -31v-45q0 -31 -31 -30h-30zM1055 0h-51q-29 0 -37 33l-113 354h-563l-113 -354q-8 -33 -37 -33h-51q-37 0 -24 33l442 1368q10 33 39 33 h51q29 0 39 -33l442 -1368q12 -33 -24 -33zM322 481h501l-252 789z" glyph-name="Adieresis" horiz-adv-x="1144" unicode="Ä"/><glyph d="M559 1511q-76 0 -124 49.5t-48 120.5v23q0 74 49 123t123 49h27q74 0 123 -49t49 -123v-23q0 -72 -49.5 -121t-122.5 -49h-27zM469 1702v-16q0 -94 94 -95h19q94 0 94 95v16q0 94 -94 94h-19q-94 0 -94 -94zM1055 0h-51q-29 0 -37 33l-113 354h-563l-113 -354 q-8 -33 -37 -33h-51q-37 0 -24 33l442 1368q10 33 39 33h51q29 0 39 -33l442 -1368q12 -33 -24 -33zM322 481h501l-252 789z" glyph-name="Aring" horiz-adv-x="1144" unicode="Å"/><glyph d="M1645 98q31 0 30 -30v-37q0 -31 -30 -31h-762q-31 0 -31 31v340h-483l-195 -340q-18 -31 -41 -31h-55q-39 0 -21 31l787 1372q8 16 14 20q6 10 25 11h751q31 0 31 -31v-37q0 -31 -31 -31h-678v-590h521q31 0 30 -30v-37q0 -31 -30 -31h-521v-549h689zM852 463v751 l-430 -751h430z" glyph-name="AE" horiz-adv-x="1757" unicode="Æ"/><glyph d="M1034 436q29 0 29 -28q-6 -205 -112.5 -311.5t-299.5 -106.5h-24q-28 -49 -26.5 -61.5t2.5 -17.5t6 -9t9 -6q22 -10 43 -11.5t50.5 -4.5t41 -5t35.5 -7q26 -5 36 -10q35 -17 50 -44q15 -26 15 -88q0 -136 -178 -136h-82q-172 0 -176 160q0 20 18 21h53q20 0 21 -17 q4 -39 25.5 -57.5t78.5 -18.5h39q59 0 83 12.5t24 49.5q0 45 -189 65q-41 6 -62 8.5t-39 15.5t-17 55t40 106h-4q-197 0 -304 110.5t-107 315.5v602q0 205 107.5 315.5t303.5 110.5h127q193 0 299.5 -106.5t112.5 -311.5q0 -29 -29 -29h-45q-31 0 -31 29q-6 170 -77.5 245 t-229.5 75h-127q-162 0 -234.5 -78t-72.5 -250v-602q0 -172 72.5 -250t234.5 -78h127q158 0 229.5 75t77.5 245q0 29 31 28h45z" glyph-name="Ccedilla" horiz-adv-x="1165" unicode="Ç"/><glyph d="M561 1595h-43q-15 0 -26 15.5t-17 21.5l-186 236q-12 16 -5 26.5t25 10.5h78q23 0 43 -37l152 -236q10 -16 3 -26.5t-24 -10.5zM913 1335h-675v-590h520q31 0 30 -30v-37q0 -31 -30 -31h-520v-549h686q31 0 30 -30v-37q0 -31 -30 -31h-760q-31 0 -31 31v1372q0 31 31 31 h749q31 0 31 -31v-37q0 -31 -31 -31z" glyph-name="Egrave" horiz-adv-x="1036" unicode="È"/><glyph d="M688 1843h78q18 0 25.5 -10t-5.5 -27l-186 -235q-6 -5 -16 -21t-27 -16h-43q-16 0 -23.5 10t3.5 27l151 235q23 37 43 37zM913 1335h-675v-590h520q31 0 30 -30v-37q0 -31 -30 -31h-520v-549h686q31 0 30 -30v-37q0 -31 -30 -31h-760q-31 0 -31 31v1372q0 31 31 31h749 q31 0 31 -31v-37q0 -31 -31 -31z" glyph-name="Eacute" horiz-adv-x="1036" unicode="É"/><glyph d="M526 1843h25q16 0 57 -33l264 -258q12 -12 6 -25.5t-22 -13.5h-45q-23 0 -61 39l-211 207l-209 -207q-39 -39 -62 -39h-45q-16 0 -22 13.5t6 25.5l264 258q4 4 13.5 11.5t16.5 14.5t25 7zM913 1335h-675v-590h520q31 0 30 -30v-37q0 -31 -30 -31h-520v-549h686 q31 0 30 -30v-37q0 -31 -30 -31h-760q-31 0 -31 31v1372q0 31 31 31h749q31 0 31 -31v-37q0 -31 -31 -31z" glyph-name="Ecircumflex" horiz-adv-x="1036" unicode="Ê"/><glyph d="M205 1812q0 31 31 31h32q31 0 31 -31v-45q0 -31 -31 -30h-32q-31 0 -31 30v45zM778 1812q0 31 31 31h31q31 0 30 -31v-45q0 -31 -30 -30h-31q-31 0 -31 30v45zM913 1335h-675v-590h520q31 0 30 -30v-37q0 -31 -30 -31h-520v-549h686q31 0 30 -30v-37q0 -31 -30 -31h-760 q-31 0 -31 31v1372q0 31 31 31h749q31 0 31 -31v-37q0 -31 -31 -31z" glyph-name="Edieresis" horiz-adv-x="1036" unicode="Ë"/><glyph d="M207 1595h-43q-16 0 -26.5 15.5t-16.5 21.5l-187 236q-12 16 -4.5 26.5t25.5 10.5h78q23 0 43 -37l151 -236q10 -16 3 -26.5t-23 -10.5zM133 1403q0 31 31 31h43q31 0 31 -31v-1372q0 -31 -31 -31h-43q-31 0 -31 31v1372z" glyph-name="Igrave" horiz-adv-x="370" unicode="Ì"/><glyph d="M334 1843h78q18 0 25 -10t-5 -27l-186 -235q-6 -5 -17 -21t-26 -16h-43q-16 0 -23.5 10t2.5 27l152 235q23 37 43 37zM133 1403q0 31 31 31h43q31 0 31 -31v-1372q0 -31 -31 -31h-43q-31 0 -31 31v1372z" glyph-name="Iacute" horiz-adv-x="370" unicode="Í"/><glyph d="M172 1843h25q18 0 55 -33l266 -258q12 -12 6 -25.5t-22 -13.5h-45q-23 0 -62 39l-211 207l-209 -207q-39 -39 -61 -39h-45q-16 0 -22 13.5t6 25.5l264 258q4 4 13 11.5t16 14.5t26 7zM133 1403q0 31 31 31h43q31 0 31 -31v-1372q0 -31 -31 -31h-43q-31 0 -31 31v1372z " glyph-name="Icircumflex" horiz-adv-x="370" unicode="Î"/><glyph d="M-147 1812q0 31 30 31h33q31 0 31 -31v-45q0 -31 -31 -30h-33q-31 0 -30 30v45zM426 1812q0 31 31 31h30q31 0 31 -31v-45q0 -31 -31 -30h-30q-31 0 -31 30v45zM133 1403q0 31 31 31h43q31 0 31 -31v-1372q0 -31 -31 -31h-43q-31 0 -31 31v1372z" glyph-name="Idieresis" horiz-adv-x="370" unicode="Ï"/><glyph d="M705 1434q188 0 293.5 -104.5t105.5 -303.5v-618q0 -199 -105.5 -303.5t-293.5 -104.5h-490q-31 0 -31 31v628h-123q-31 0 -30 31v35q0 31 30 31h123v647q0 31 31 31h490zM999 408v618q0 164 -70.5 236.5t-223.5 72.5h-416v-579h313q31 0 31 -31v-35q0 -31 -31 -31h-313 v-561h416q154 0 224 73t70 237z" glyph-name="Eth" horiz-adv-x="1196" unicode="Ð"/><glyph d="M946 1751q10 -18 -14 -39q-102 -72 -177 -74t-173 64q-96 55 -140.5 54t-146.5 -66q-16 -12 -33 16l-20 31q-12 20 12 39q100 72 176 72.5t174 -62.5q98 -55 141 -54t146 66q16 6 19 3t14 -19zM1022 1434q31 0 31 -31v-1372q0 -31 -31 -31h-109q-25 0 -36 23l-639 1314 v-1306q0 -31 -31 -31h-43q-31 0 -31 31v1372q0 31 31 31h108q27 0 37 -23l639 -1315v1307q0 31 31 31h43z" glyph-name="Ntilde" unicode="Ñ"/><glyph d="M616 1595h-43q-15 0 -25.5 15.5t-17.5 21.5l-186 236q-12 16 -5 26.5t26 10.5h77q20 0 43 -37l152 -236q10 -16 3 -26.5t-24 -10.5zM662 1444q197 0 304 -110.5t107 -315.5v-602q0 -205 -107.5 -315.5t-303.5 -110.5h-138q-197 0 -304 110.5t-107 315.5v602 q0 205 107.5 315.5t303.5 110.5h138zM969 416v602q0 172 -73 250t-234 78h-138q-162 0 -234.5 -78t-72.5 -250v-602q0 -172 72.5 -250t234.5 -78h138q162 0 234.5 78t72.5 250z" glyph-name="Ograve" unicode="Ò"/><glyph d="M741 1843h78q18 0 25.5 -10t-4.5 -27l-187 -235q-6 -5 -16 -21t-27 -16h-43q-16 0 -23 10t3 27l151 235q23 37 43 37zM662 1444q197 0 304 -110.5t107 -315.5v-602q0 -205 -107.5 -315.5t-303.5 -110.5h-138q-197 0 -304 110.5t-107 315.5v602q0 205 107.5 315.5 t303.5 110.5h138zM969 416v602q0 172 -73 250t-234 78h-138q-162 0 -234.5 -78t-72.5 -250v-602q0 -172 72.5 -250t234.5 -78h138q162 0 234.5 78t72.5 250z" glyph-name="Oacute" unicode="Ó"/><glyph d="M580 1843h24q16 0 58 -33l264 -258q12 -12 6 -25.5t-23 -13.5h-45q-23 0 -61 39l-211 207l-209 -207q-39 -39 -61 -39h-46q-16 0 -22 13.5t6 25.5l264 258q4 4 13.5 11.5t16.5 14.5t26 7zM662 1444q197 0 304 -110.5t107 -315.5v-602q0 -205 -107.5 -315.5t-303.5 -110.5 h-138q-197 0 -304 110.5t-107 315.5v602q0 205 107.5 315.5t303.5 110.5h138zM969 416v602q0 172 -73 250t-234 78h-138q-162 0 -234.5 -78t-72.5 -250v-602q0 -172 72.5 -250t234.5 -78h138q162 0 234.5 78t72.5 250z" glyph-name="Ocircumflex" unicode="Ô"/><glyph d="M946 1751q10 -18 -14 -39q-102 -72 -177 -74t-173 64q-96 55 -140.5 54t-146.5 -66q-16 -12 -33 16l-20 31q-12 20 12 39q100 72 176 72.5t174 -62.5q98 -55 141 -54t146 66q16 6 19 3t14 -19zM662 1444q197 0 304 -110.5t107 -315.5v-602q0 -205 -107.5 -315.5 t-303.5 -110.5h-138q-197 0 -304 110.5t-107 315.5v602q0 205 107.5 315.5t303.5 110.5h138zM969 416v602q0 172 -73 250t-234 78h-138q-162 0 -234.5 -78t-72.5 -250v-602q0 -172 72.5 -250t234.5 -78h138q162 0 234.5 78t72.5 250z" glyph-name="Otilde" unicode="Õ"/><glyph d="M260 1812q0 31 31 31h33q31 0 30 -31v-45q0 -31 -30 -30h-33q-31 0 -31 30v45zM834 1812q0 31 30 31h31q31 0 31 -31v-45q0 -31 -31 -30h-31q-31 0 -30 30v45zM662 1444q197 0 304 -110.5t107 -315.5v-602q0 -205 -107.5 -315.5t-303.5 -110.5h-138q-197 0 -304 110.5 t-107 315.5v602q0 205 107.5 315.5t303.5 110.5h138zM969 416v602q0 172 -73 250t-234 78h-138q-162 0 -234.5 -78t-72.5 -250v-602q0 -172 72.5 -250t234.5 -78h138q162 0 234.5 78t72.5 250z" glyph-name="Odieresis" unicode="Ö"/><glyph d="M713 436q20 -23 0 -43l-31 -31q-23 -23 -43 0l-225 226l-228 -228q-25 -20 -45 0l-30 31q-20 23 0 43l229 230l-225 223q-20 23 0 43l30 31q23 23 43 0l224 -226l227 228q23 23 43 -2l33 -29q18 -25 -2 -45l-228 -225z" glyph-name="multiply" horiz-adv-x="825" unicode="×"/><glyph d="M1073 1018v-602q0 -205 -107.5 -315.5t-303.5 -110.5h-138q-102 0 -182 30l-18 -40q-12 -31 -41 -31h-56q-33 0 -20 31l41 94q-135 111 -135 342v602q0 205 107.5 315.5t303.5 110.5h138q94 0 174 -29l18 41q12 31 41 31h55q33 0 21 -31l-41 -92q143 -111 143 -346z M217 416q0 -170 72 -248l508 1159q-55 18 -135 19h-138q-162 0 -234.5 -78t-72.5 -250v-602zM969 416v602q0 176 -78 254l-510 -1163q55 -20 143 -21h138q162 0 234.5 78t72.5 250z" glyph-name="Oslash" unicode="Ø"/><glyph d="M637 1595h-43q-16 0 -26.5 15.5t-16.5 21.5l-186 236q-12 16 -5 26.5t25 10.5h78q23 0 43 -37l151 -236q10 -16 3 -26.5t-23 -10.5zM1063 1434q31 0 31 -29v-989q0 -207 -107.5 -316.5t-304.5 -109.5h-137q-199 0 -305.5 109.5t-106.5 316.5v989q0 29 29 29h47 q29 0 29 -29v-989q0 -328 307 -328h137q307 0 307 328v989q0 29 29 29h45z" glyph-name="Ugrave" horiz-adv-x="1226" unicode="Ù"/><glyph d="M762 1843h78q18 0 25 -10t-5 -27l-186 -235q-6 -5 -17 -21t-26 -16h-43q-16 0 -23.5 10t2.5 27l152 235q23 37 43 37zM1063 1434q31 0 31 -29v-989q0 -207 -107.5 -316.5t-304.5 -109.5h-137q-199 0 -305.5 109.5t-106.5 316.5v989q0 29 29 29h47q29 0 29 -29v-989 q0 -328 307 -328h137q307 0 307 328v989q0 29 29 29h45z" glyph-name="Uacute" horiz-adv-x="1226" unicode="Ú"/><glyph d="M600 1843h25q16 0 57 -33l264 -258q12 -12 6 -25.5t-22 -13.5h-45q-23 0 -62 39l-211 207l-209 -207q-39 -39 -61 -39h-45q-16 0 -22 13.5t6 25.5l264 258q4 4 13 11.5t16 14.5t26 7zM1063 1434q31 0 31 -29v-989q0 -207 -107.5 -316.5t-304.5 -109.5h-137 q-199 0 -305.5 109.5t-106.5 316.5v989q0 29 29 29h47q29 0 29 -29v-989q0 -328 307 -328h137q307 0 307 328v989q0 29 29 29h45z" glyph-name="Ucircumflex" horiz-adv-x="1226" unicode="Û"/><glyph d="M281 1812q0 31 30 31h33q31 0 31 -31v-45q0 -31 -31 -30h-33q-31 0 -30 30v45zM854 1812q0 31 31 31h30q31 0 31 -31v-45q0 -31 -31 -30h-30q-31 0 -31 30v45zM1063 1434q31 0 31 -29v-989q0 -207 -107.5 -316.5t-304.5 -109.5h-137q-199 0 -305.5 109.5t-106.5 316.5 v989q0 29 29 29h47q29 0 29 -29v-989q0 -328 307 -328h137q307 0 307 328v989q0 29 29 29h45z" glyph-name="Udieresis" horiz-adv-x="1226" unicode="Ü"/><glyph d="M717 1843h78q18 0 25 -10t-5 -27l-186 -235q-6 -5 -17 -21t-26 -16h-43q-16 0 -23.5 10t2.5 27l152 235q23 37 43 37zM1047 1434q39 0 20 -31l-449 -772v-600q0 -31 -30 -31h-43q-31 0 -31 31v600l-446 772q-18 31 20 31h59q23 0 41 -31l379 -668l379 668q18 31 41 31h60 z" glyph-name="Yacute" horiz-adv-x="1134" unicode="Ý"/><glyph d="M651 1161q184 0 292 -111.5t108 -306t-107.5 -306t-292.5 -111.5h-413v-295q0 -31 -31 -31h-43q-31 0 -31 31v1425q0 31 31 31h43q31 0 31 -31v-295h413zM655 428q291 0 291 315.5t-291 315.5h-417v-631h417z" glyph-name="Thorn" horiz-adv-x="1153" unicode="Þ"/><glyph d="M1010 463v-107q0 -209 -91.5 -282.5t-310.5 -73.5h-88q-31 0 -31 31v37q0 31 31 30h76q184 0 246.5 44t62.5 200v168q0 127 -102.5 186.5t-227.5 59.5h-55q-31 0 -31 30v37q0 31 31 31h55q106 0 181 69.5t75 190.5v72q0 117 -53 171t-176 54h-166q-123 0 -164 -51 t-41 -174l-2 -1155q0 -31 -30 -31h-43q-31 0 -31 31l-2 1155q0 162 75.5 241.5t237.5 79.5h166q164 0 249 -82t85 -239v-76q0 -197 -178 -301q61 -18 96 -35.5t95.5 -71t60.5 -239.5z" glyph-name="germandbls" horiz-adv-x="1101" unicode="ß"/><glyph d="M276 1495h78q23 0 43 -37l152 -235q10 -16 3 -26.5t-24 -10.5h-43q-16 0 -26.5 15.5t-16.5 21.5l-186 235q-12 16 -5 26.5t25 10.5zM881 0h-66q-33 0 -33 49v123q-109 -182 -309 -182h-94q-141 0 -219 77.5t-78 227t78 222.5t215 73h407v63q0 166 -50 224.5t-200 58.5 h-36q-143 0 -252 -55q-33 -18 -47 6l-21 37q-16 25 12 41q106 68 308 67h36q184 0 267.5 -90t83.5 -287v-606q0 -15 4 -32t-6 -17zM465 88q121 0 203 61.5t114 165.5v183h-403q-100 0 -148.5 -46t-48.5 -157t49.5 -159t147.5 -48h86z" glyph-name="agrave" horiz-adv-x="1011" unicode="à"/><glyph d="M481 1124q-16 0 -23 10.5t3 26.5l151 236q23 37 43 37h78q18 0 25.5 -10.5t-4.5 -26.5l-187 -236q-6 -5 -16 -21t-27 -16h-43zM881 0h-66q-33 0 -33 49v123q-109 -182 -309 -182h-94q-141 0 -219 77.5t-78 227t78 222.5t215 73h407v63q0 166 -50 224.5t-200 58.5h-36 q-143 0 -252 -55q-33 -18 -47 6l-21 37q-16 25 12 41q106 68 308 67h36q184 0 267.5 -90t83.5 -287v-606q0 -15 4 -32t-6 -17zM465 88q121 0 203 61.5t114 165.5v183h-403q-100 0 -148.5 -46t-48.5 -157t49.5 -159t147.5 -48h86z" glyph-name="aacute" horiz-adv-x="1011" unicode="á"/><glyph d="M190 1104q-16 0 -22 13t6 26l264 258q4 4 14 11q8 6 16 14t26 8h24q16 0 57 -33l265 -258q12 -12 6 -25.5t-23 -13.5h-45q-23 0 -61 39l-211 207l-209 -207q-39 -39 -61 -39h-46zM881 0h-66q-33 0 -33 49v123q-109 -182 -309 -182h-94q-141 0 -219 77.5t-78 227t78 222.5 t215 73h407v63q0 166 -50 224.5t-200 58.5h-36q-143 0 -252 -55q-33 -18 -47 6l-21 37q-16 25 12 41q106 68 308 67h36q184 0 267.5 -90t83.5 -287v-606q0 -15 4 -32t-6 -17zM465 88q121 0 203 61.5t114 165.5v183h-403q-100 0 -148.5 -46t-48.5 -157t49.5 -159t147.5 -48 h86z" glyph-name="acircumflex" horiz-adv-x="1011" unicode="â"/><glyph d="M174 1296l-20 31q-12 20 12 39q100 72 176 73t174 -63q98 -55 141 -54t146 67q16 6 19 3t14 -20l22 -31q10 -18 -14 -38q-102 -72 -177 -74t-173 63q-96 55 -140.5 54.5t-146.5 -66.5q-17 -13 -33 16zM881 0h-66q-33 0 -33 49v123q-109 -182 -309 -182h-94 q-141 0 -219 77.5t-78 227t78 222.5t215 73h407v63q0 166 -50 224.5t-200 58.5h-36q-143 0 -252 -55q-33 -18 -47 6l-21 37q-16 25 12 41q106 68 308 67h36q184 0 267.5 -90t83.5 -287v-606q0 -15 4 -32t-6 -17zM465 88q121 0 203 61.5t114 165.5v183h-403 q-100 0 -148.5 -46t-48.5 -157t49.5 -159t147.5 -48h86z" glyph-name="atilde" horiz-adv-x="1011" unicode="ã"/><glyph d="M203 1327q-31 0 -31 31v45q0 31 31 31h33q31 0 30 -31v-45q0 -31 -30 -31h-33zM776 1327q-31 0 -31 31v45q0 31 31 31h31q31 0 31 -31v-45q0 -31 -31 -31h-31zM881 0h-66q-33 0 -33 49v123q-109 -182 -309 -182h-94q-141 0 -219 77.5t-78 227t78 222.5t215 73h407v63 q0 166 -50 224.5t-200 58.5h-36q-143 0 -252 -55q-33 -18 -47 6l-21 37q-16 25 12 41q106 68 308 67h36q184 0 267.5 -90t83.5 -287v-606q0 -15 4 -32t-6 -17zM465 88q121 0 203 61.5t114 165.5v183h-403q-100 0 -148.5 -46t-48.5 -157t49.5 -159t147.5 -48h86z" glyph-name="adieresis" horiz-adv-x="1011" unicode="ä"/><glyph d="M492 1102q-74 0 -123.5 49t-49.5 121v22q0 74 49.5 123t123.5 49h26q74 0 123 -49t49 -123v-22q0 -72 -48 -121t-124 -49h-26zM401 1292v-16q0 -94 95 -94h18q94 0 94 94v16q0 94 -94 94h-18q-95 0 -95 -94zM881 0h-66q-33 0 -33 49v123q-109 -182 -309 -182h-94 q-141 0 -219 77.5t-78 227t78 222.5t215 73h407v63q0 166 -50 224.5t-200 58.5h-36q-143 0 -252 -55q-33 -18 -47 6l-21 37q-16 25 12 41q106 68 308 67h36q184 0 267.5 -90t83.5 -287v-606q0 -15 4 -32t-6 -17zM465 88q121 0 203 61.5t114 165.5v183h-403 q-100 0 -148.5 -46t-48.5 -157t49.5 -159t147.5 -48h86z" glyph-name="aring" horiz-adv-x="1011" unicode="å"/><glyph d="M1235 1032q139 0 246.5 -103.5t107.5 -266.5v-130q0 -63 -65 -63h-621v-121q0 -125 68.5 -192.5t195.5 -67.5h68q95 0 141 32q16 11 22 15q18 11 44 43t42.5 50t39.5 1l26 -18q25 -16 4 -43q-49 -59 -78.5 -89t-94 -59.5t-146.5 -29.5h-68q-125 0 -217 61.5t-129 167.5 q-119 -229 -352 -229h-96q-131 0 -211 74.5t-80 213t78 211t209 72.5h430v92q0 164 -54.5 223.5t-203.5 59.5h-45q-143 0 -252 -55q-33 -18 -47 6l-21 37q-16 25 12 41q106 68 308 67h45q240 0 315 -155q98 156 311 155h68zM1487 561v92q0 137 -69.5 209t-182.5 72h-68 q-264 0 -264 -279v-94h584zM463 88q125 0 214 63.5t124 170.5q-2 10 -2 32v115h-426q-190 0 -191 -190q0 -102 47 -146.5t144 -44.5h90z" glyph-name="ae" horiz-adv-x="1681" unicode="æ"/><glyph d="M782 -275q0 -61 -41 -98t-137 -37h-82q-172 0 -176 160q0 20 19 21h53q20 0 20 -17q4 -39 25.5 -57.5t79.5 -18.5h39q59 0 82.5 12.5t23.5 49.5q0 45 -188 65q-41 6 -62.5 8.5t-39 15.5t-16.5 56t42 107q-150 12 -241 111.5t-91 250.5v305q0 170 102.5 270.5t266.5 100.5 h67q119 0 218.5 -78t127.5 -204q6 -31 -24 -31h-45q-25 0 -31 26q-20 92 -86.5 141.5t-159.5 49.5h-67q-264 0 -264 -279v-307q0 -125 68.5 -192.5t195.5 -67.5h67q66 0 116 22.5t69.5 42t66.5 70.5q20 23 41 8l29 -22q27 -16 6 -43q-47 -57 -80 -88t-99.5 -59.5 t-148.5 -28.5h-8q-44 -76 -8 -94q22 -11 42.5 -12t50.5 -4t41 -5t36 -7t35 -10q37 -19 51 -45.5t14 -87.5z" glyph-name="ccedilla" horiz-adv-x="958" unicode="ç"/><glyph d="M520 1186h-43q-16 0 -26.5 15.5t-16.5 21.5l-186 235q-12 16 -5 26.5t25 10.5h78q23 0 43 -37l152 -235q10 -16 3 -26.5t-24 -10.5zM528 1032q139 0 248 -103.5t109 -266.5v-130q0 -29 -18.5 -46t-49.5 -17h-620v-121q0 -125 68.5 -192.5t195.5 -67.5h67q63 0 109.5 18.5 t67 38t43 47t26.5 31.5q20 23 43 6l27 -18q25 -18 6 -43q-49 -59 -80 -89t-95.5 -59.5t-146.5 -29.5h-67q-162 0 -265.5 101.5t-103.5 262.5v305q0 172 102.5 272.5t266.5 100.5h67zM780 561v92q0 137 -69.5 210t-182.5 73h-67q-264 0 -264 -281v-94h583z" glyph-name="egrave" horiz-adv-x="976" unicode="è"/><glyph d="M647 1434h78q18 0 25.5 -10.5t-5.5 -26.5l-186 -236q-6 -5 -16 -21t-27 -16h-43q-16 0 -23.5 10.5t3.5 26.5l151 236q23 37 43 37zM528 1032q139 0 248 -103.5t109 -266.5v-130q0 -29 -18.5 -46t-49.5 -17h-620v-121q0 -125 68.5 -192.5t195.5 -67.5h67q63 0 109.5 18.5 t67 38t43 47t26.5 31.5q20 23 43 6l27 -18q25 -18 6 -43q-49 -59 -80 -89t-95.5 -59.5t-146.5 -29.5h-67q-162 0 -265.5 101.5t-103.5 262.5v305q0 172 102.5 272.5t266.5 100.5h67zM780 561v92q0 137 -69.5 210t-182.5 73h-67q-264 0 -264 -281v-94h583z" glyph-name="eacute" horiz-adv-x="976" unicode="é"/><glyph d="M483 1434h25q16 0 57 -33l264 -258q12 -12 6 -25.5t-22 -13.5h-45q-23 0 -61 39l-211 207l-209 -207q-39 -39 -62 -39h-45q-16 0 -22 13.5t6 25.5l264 258q4 4 14 11q8 6 16 14t25 8zM528 1032q139 0 248 -103.5t109 -266.5v-130q0 -29 -18.5 -46t-49.5 -17h-620v-121 q0 -125 68.5 -192.5t195.5 -67.5h67q63 0 109.5 18.5t67 38t43 47t26.5 31.5q20 23 43 6l27 -18q25 -18 6 -43q-49 -59 -80 -89t-95.5 -59.5t-146.5 -29.5h-67q-162 0 -265.5 101.5t-103.5 262.5v305q0 172 102.5 272.5t266.5 100.5h67zM780 561v92q0 137 -69.5 210 t-182.5 73h-67q-264 0 -264 -281v-94h583z" glyph-name="ecircumflex" horiz-adv-x="976" unicode="ê"/><glyph d="M164 1403q0 31 31 31h32q31 0 31 -31v-45q0 -31 -31 -31h-32q-31 0 -31 31v45zM737 1403q0 31 31 31h31q31 0 30 -31v-45q0 -31 -30 -31h-31q-31 0 -31 31v45zM528 1032q139 0 248 -103.5t109 -266.5v-130q0 -29 -18.5 -46t-49.5 -17h-620v-121q0 -125 68.5 -192.5 t195.5 -67.5h67q63 0 110 18q46 18 66 38q22 20 44 48t26 31q20 23 43 6l27 -18q25 -18 6 -43q-49 -59 -80 -89t-95.5 -59.5t-146.5 -29.5h-67q-162 0 -265.5 101.5t-103.5 262.5v305q0 172 102.5 272.5t266.5 100.5h67zM780 561v92q0 137 -69.5 210t-182.5 73h-67 q-264 0 -264 -281v-94h583z" glyph-name="edieresis" horiz-adv-x="976" unicode="ë"/><glyph d="M238 1186h-43q-17 0 -27 15.5t-16 21.5l-187 235q-12 16 -5 26.5t26 10.5h77q23 0 43 -37l152 -235q10 -16 3 -26.5t-23 -10.5zM164 993q0 31 31 31h38q31 0 31 -31v-962q0 -31 -31 -31h-38q-31 0 -31 31v962z" glyph-name="igrave" horiz-adv-x="428" unicode="ì"/><glyph d="M365 1434h77q18 0 25.5 -10.5t-4.5 -26.5l-187 -236q-6 -6 -16 -21.5t-27 -15.5h-43q-16 0 -23 10.5t3 26.5l152 236q23 37 43 37zM164 993q0 31 31 31h38q31 0 31 -31v-962q0 -31 -31 -31h-38q-31 0 -31 31v962z" glyph-name="iacute" horiz-adv-x="428" unicode="í"/><glyph d="M201 1434h24q18 0 56 -33l266 -258q12 -12 6 -25.5t-23 -13.5h-45q-23 0 -61 39l-211 207l-209 -207q-39 -39 -61 -39h-45q-16 0 -22.5 13.5t5.5 25.5l264 258q4 4 13.5 11t17 14.5t25.5 7.5zM164 993q0 31 31 31h38q31 0 31 -31v-962q0 -31 -31 -31h-38q-31 0 -31 31 v962z" glyph-name="icircumflex" horiz-adv-x="428" unicode="î"/><glyph d="M-119 1403q0 31 31 31h33q31 0 30 -31v-45q0 -31 -30 -31h-33q-31 0 -31 31v45zM455 1403q0 31 30 31h31q31 0 31 -31v-45q0 -31 -31 -31h-31q-31 0 -30 31v45zM164 993q0 31 31 31h38q31 0 31 -31v-962q0 -31 -31 -31h-38q-31 0 -31 31v962z" glyph-name="idieresis" horiz-adv-x="428" unicode="ï"/><glyph d="M983 1487q18 0 24.5 -10.5t-6.5 -26.5l-98 -127q63 -102 76 -227q39 -352 8 -682q-18 -205 -125.5 -319.5t-273.5 -114.5h-78q-182 0 -293 113t-115 349t99.5 356t333.5 120q119 0 215 -37t139 -84q12 158 -19 329q-8 51 -34 107l-91 -117q-25 -35 -47 -35h-67 q-18 0 -24.5 10.5t3.5 26.5l160 205q-90 86 -213 86h-49q-31 0 -31 31v43q0 31 31 30h49q164 0 279 -104l32 43q29 35 47 35h68zM506 84h88q121 0 196 85t91 263t-63 274.5t-288 98.5q-106 0 -170.5 -21.5t-96.5 -77t-42 -118t-10 -170.5q-2 -170 77 -252t218 -82z" glyph-name="eth" horiz-adv-x="1112" unicode="ð"/><glyph d="M856 1341q10 -18 -14 -38q-102 -72 -177 -74t-173 63q-96 55 -140.5 54.5t-146.5 -66.5q-16 -12 -33 16l-20 31q-12 20 12 39q100 72 176 73t174 -63q98 -55 141 -54t146 67q16 6 19 3t14 -20zM557 1032q176 0 251 -91t75 -271v-639q0 -31 -31 -31h-39q-31 0 -31 31v633 q0 143 -47 207.5t-176 64.5h-35q-113 0 -189.5 -52.5t-111.5 -109.5v-743q0 -31 -30 -31h-39q-31 0 -31 31v962q0 31 31 31h39q31 0 30 -31v-129q117 168 318 168h16z" glyph-name="ntilde" horiz-adv-x="1005" unicode="ñ"/><glyph d="M524 1186h-43q-16 0 -26.5 15.5t-16.5 21.5l-186 235q-12 16 -5 26.5t25 10.5h78q23 0 43 -37l152 -235q10 -16 3 -26.5t-24 -10.5zM545 1032q164 0 265 -100.5t101 -272.5v-292q0 -170 -101 -273.5t-265 -103.5h-88q-162 0 -263.5 103.5t-101.5 273.5v292 q0 172 100.5 272.5t264.5 100.5h88zM809 358v295q0 283 -264 283h-88q-264 0 -264 -283v-295q0 -131 68.5 -200.5t195.5 -69.5h88q129 0 196.5 69.5t67.5 200.5z" glyph-name="ograve" horiz-adv-x="1003" unicode="ò"/><glyph d="M651 1434h78q18 0 25.5 -10.5t-4.5 -26.5l-187 -236q-6 -5 -16 -21t-27 -16h-43q-16 0 -23.5 10.5t3.5 26.5l151 236q20 37 43 37zM545 1032q164 0 265 -100.5t101 -272.5v-292q0 -170 -101 -273.5t-265 -103.5h-88q-162 0 -263.5 103.5t-101.5 273.5v292 q0 172 100.5 272.5t264.5 100.5h88zM809 358v295q0 283 -264 283h-88q-264 0 -264 -283v-295q0 -131 68.5 -200.5t195.5 -69.5h88q129 0 196.5 69.5t67.5 200.5z" glyph-name="oacute" horiz-adv-x="1003" unicode="ó"/><glyph d="M489 1434h25q16 0 57 -33l265 -258q12 -12 6 -25.5t-23 -13.5h-45q-23 0 -61 39l-211 207l-209 -207q-39 -39 -62 -39h-45q-16 0 -22 13.5t6 25.5l264 258q4 4 14 11q8 6 16 14t25 8zM545 1032q164 0 265 -100.5t101 -272.5v-292q0 -170 -101 -273.5t-265 -103.5h-88 q-162 0 -263.5 103.5t-101.5 273.5v292q0 172 100.5 272.5t264.5 100.5h88zM809 358v295q0 283 -264 283h-88q-264 0 -264 -283v-295q0 -131 68.5 -200.5t195.5 -69.5h88q129 0 196.5 69.5t67.5 200.5z" glyph-name="ocircumflex" horiz-adv-x="1003" unicode="ô"/><glyph d="M854 1341q10 -18 -14 -38q-102 -72 -177 -74t-174 63q-96 55 -140 54.5t-146 -66.5q-16 -12 -33 16l-20 31q-12 20 12 39q100 72 176 73t174 -63q98 -55 141 -54t146 67q16 6 19 3t13 -20zM545 1032q164 0 265 -100.5t101 -272.5v-292q0 -170 -101 -273.5t-265 -103.5 h-88q-162 0 -263.5 103.5t-101.5 273.5v292q0 172 100.5 272.5t264.5 100.5h88zM809 358v295q0 283 -264 283h-88q-264 0 -264 -283v-295q0 -131 68.5 -200.5t195.5 -69.5h88q129 0 196.5 69.5t67.5 200.5z" glyph-name="otilde" horiz-adv-x="1003" unicode="õ"/><glyph d="M170 1403q0 31 31 31h32q31 0 31 -31v-45q0 -31 -31 -31h-32q-31 0 -31 31v45zM743 1403q0 31 31 31h31q31 0 31 -31v-45q0 -31 -31 -31h-31q-31 0 -31 31v45zM545 1032q164 0 265 -100.5t101 -272.5v-292q0 -170 -101 -273.5t-265 -103.5h-88q-162 0 -263.5 103.5 t-101.5 273.5v292q0 172 100.5 272.5t264.5 100.5h88zM809 358v295q0 283 -264 283h-88q-264 0 -264 -283v-295q0 -131 68.5 -200.5t195.5 -69.5h88q129 0 196.5 69.5t67.5 200.5z" glyph-name="odieresis" horiz-adv-x="1003" unicode="ö"/><glyph d="M457 1014q0 31 30 30h82q31 0 31 -30v-103q0 -31 -31 -30h-82q-31 0 -30 30v103zM901 715q29 0 29 -31v-43q0 -31 -31 -31h-745q-31 0 -31 31v43q0 31 31 31h747zM457 414q0 31 30 30h82q31 0 31 -30v-105q0 -31 -31 -30h-82q-31 0 -30 30v105z" glyph-name="divide" horiz-adv-x="1052" unicode="÷"/><glyph d="M911 367q0 -170 -101 -273.5t-265 -103.5h-88q-68 0 -127 18l-4 -8q-14 -31 -41 -31h-35q-37 0 -21 31l21 47q-158 102 -158 320v292q0 172 100.5 272.5t264.5 100.5h88q74 0 133 -20v2q12 31 41 30h37q29 0 20 -30l-18 -41q154 -100 153 -314v-292zM193 358 q0 -158 96 -225l350 791q-43 12 -94 12h-88q-264 0 -264 -283v-295zM809 358v295q0 162 -90 234l-350 -791q35 -8 88 -8h88q129 0 196.5 69.5t67.5 200.5z" glyph-name="oslash" horiz-adv-x="1003" unicode="ø"/><glyph d="M537 1186h-43q-17 0 -27 15.5t-16 21.5l-187 235q-12 16 -5 26.5t26 10.5h77q24 0 44 -37l151 -235q10 -16 3 -26.5t-23 -10.5zM449 -8q-174 0 -250 92t-76 270v639q0 31 31 31h39q31 0 30 -31v-633q0 -143 47 -206.5t179 -63.5h32q113 0 190 51.5t111 108.5v743 q0 31 31 31h39q31 0 31 -31v-962q0 -31 -31 -31h-39q-31 0 -31 31v129q-117 -168 -317 -168h-16z" glyph-name="ugrave" horiz-adv-x="1005" unicode="ù"/><glyph d="M664 1434h77q18 0 25.5 -10.5t-4.5 -26.5l-187 -236q-6 -5 -16 -21t-27 -16h-43q-16 0 -23 10.5t3 26.5l152 236q23 37 43 37zM449 -8q-174 0 -250 92t-76 270v639q0 31 31 31h39q31 0 30 -31v-633q0 -143 47 -206.5t179 -63.5h32q113 0 190 51.5t111 108.5v743 q0 31 31 31h39q31 0 31 -31v-962q0 -31 -31 -31h-39q-31 0 -31 31v129q-117 -168 -317 -168h-16z" glyph-name="uacute" horiz-adv-x="1005" unicode="ú"/><glyph d="M502 1434h24q16 0 58 -33l264 -258q12 -12 6 -25.5t-23 -13.5h-45q-23 0 -61 39l-211 207l-209 -207q-39 -39 -61 -39h-45q-16 0 -22.5 13.5t5.5 25.5l264 258q4 4 14 11q8 6 16 14t26 8zM449 -8q-174 0 -250 92t-76 270v639q0 31 31 31h39q31 0 30 -31v-633 q0 -143 47 -206.5t179 -63.5h32q113 0 190 51.5t111 108.5v743q0 31 31 31h39q31 0 31 -31v-962q0 -31 -31 -31h-39q-31 0 -31 31v129q-117 -168 -317 -168h-16z" glyph-name="ucircumflex" horiz-adv-x="1005" unicode="û"/><glyph d="M180 1403q0 31 31 31h33q31 0 30 -31v-45q0 -31 -30 -31h-33q-31 0 -31 31v45zM754 1403q0 31 30 31h31q31 0 31 -31v-45q0 -31 -31 -31h-31q-31 0 -30 31v45zM449 -8q-174 0 -250 92t-76 270v639q0 31 31 31h39q31 0 30 -31v-633q0 -143 47 -206.5t179 -63.5h32 q113 0 190 51.5t111 108.5v743q0 31 31 31h39q31 0 31 -31v-962q0 -31 -31 -31h-39q-31 0 -31 31v129q-117 -168 -317 -168h-16z" glyph-name="udieresis" horiz-adv-x="1005" unicode="ü"/><glyph d="M457 1124q-16 0 -23.5 10.5t2.5 26.5l152 236q23 37 43 37h78q18 0 25 -10.5t-5 -26.5l-186 -236q-6 -5 -17 -21t-26 -16h-43zM889 1024q35 0 20 -37l-536 -1362q-14 -35 -43 -35h-45q-35 0 -21 37l164 416l-373 944q-14 37 19 37h47q27 0 41 -35l319 -809l320 809 q14 35 43 35h45z" glyph-name="yacute" horiz-adv-x="964" unicode="ý"/><glyph d="M575 1032q162 0 262.5 -100.5t100.5 -272.5v-292q0 -170 -101.5 -273.5t-261.5 -103.5h-73q-211 0 -279 166v-535q0 -31 -30 -31h-39q-31 0 -31 31v1835q0 31 31 31h39q31 0 30 -31v-575q63 152 279 151h73zM838 358v295q0 283 -265 283h-86q-264 0 -264 -283v-295 q0 -131 68.5 -200.5t195.5 -69.5h86q127 0 196 69.5t69 200.5z" glyph-name="thorn" horiz-adv-x="1030" unicode="þ"/><glyph d="M180 1327q-31 0 -30 31v45q0 31 30 31h33q31 0 31 -31v-45q0 -31 -31 -31h-33zM754 1327q-31 0 -31 31v45q0 31 31 31h30q31 0 31 -31v-45q0 -31 -31 -31h-30zM889 1024q35 0 20 -37l-536 -1362q-14 -35 -43 -35h-45q-35 0 -21 37l164 416l-373 944q-14 37 19 37h47 q27 0 41 -35l319 -809l320 809q14 35 43 35h45z" glyph-name="ydieresis" horiz-adv-x="964" unicode="ÿ"/><glyph d="M242 1741q-31 0 -31 31v40q0 31 31 31h663q31 0 31 -31v-40q0 -31 -31 -31h-663zM1055 0h-51q-29 0 -37 33l-113 354h-563l-113 -354q-8 -33 -37 -33h-51q-37 0 -24 33l442 1368q10 33 39 33h51q29 0 39 -33l442 -1368q12 -33 -24 -33zM322 481h501l-252 789z" glyph-name="Amacron" horiz-adv-x="1144" unicode="Ā"/><glyph d="M174 1331q-31 0 -31 31v41q0 31 31 31h664q31 0 30 -31v-41q0 -31 -30 -31h-664zM881 0h-66q-33 0 -33 49v123q-109 -182 -309 -182h-94q-141 0 -219 77.5t-78 227t78 222.5t215 73h407v63q0 166 -50 224.5t-200 58.5h-36q-143 0 -252 -55q-33 -18 -47 6l-21 37 q-16 25 12 41q106 68 308 67h36q184 0 267.5 -90t83.5 -287v-606q0 -15 4 -32t-6 -17zM465 88q121 0 203 61.5t114 165.5v183h-403q-100 0 -148.5 -46t-48.5 -157t49.5 -159t147.5 -48h86z" glyph-name="amacron" horiz-adv-x="1011" unicode="ā"/><glyph d="M537 1536q-266 0 -285 276q0 31 31 31h36q25 0 31 -31q6 -96 47 -141t135 -45h80q94 0 135 45t50 141q2 31 30 31h35q31 0 31 -31q-14 -276 -283 -276h-73zM1055 0h-51q-29 0 -37 33l-113 354h-563l-113 -354q-8 -33 -37 -33h-51q-37 0 -24 33l442 1368q10 33 39 33h51 q29 0 39 -33l442 -1368q12 -33 -24 -33zM322 481h501l-252 789z" glyph-name="Abreve" horiz-adv-x="1144" unicode="Ă"/><glyph d="M469 1126q-266 0 -285 277q0 31 31 31h37q25 0 31 -31q6 -96 47 -141t135 -45h80q94 0 135 45t49 141q4 31 31 31h35q31 0 30 -31q-14 -276 -282 -277h-74zM881 0h-66q-33 0 -33 49v123q-109 -182 -309 -182h-94q-141 0 -219 77.5t-78 227t78 222.5t215 73h407v63 q0 166 -50 224.5t-200 58.5h-36q-143 0 -252 -55q-33 -18 -47 6l-21 37q-16 25 12 41q106 68 308 67h36q184 0 267.5 -90t83.5 -287v-606q0 -15 4 -32t-6 -17zM465 88q121 0 203 61.5t114 165.5v183h-403q-100 0 -148.5 -46t-48.5 -157t49.5 -159t147.5 -48h86z" glyph-name="abreve" horiz-adv-x="1011" unicode="ă"/><glyph d="M1057 -297q20 0 20 -20v-48q0 -20 -20 -20h-203q-98 0 -137 35t-39 100.5t8 93t33.5 43t47 20.5t105 16t102.5 28.5t19 48.5q-20 6 -26 33l-113 354h-563l-113 -354q-8 -33 -37 -33h-51q-37 0 -24 33l442 1368q10 33 39 33h51q29 0 39 -33l442 -1368l2 -2v-4 q20 -90 -3 -127t-101 -45q-31 -4 -63.5 -8.5t-60.5 -7.5q-43 -5 -62 -12.5t-19 -53t17.5 -58t76.5 -12.5h191zM322 481h501l-252 789z" glyph-name="Aogonek" horiz-adv-x="1153" unicode="Ą"/><glyph d="M862 -297q20 0 21 -20v-48q0 -20 -21 -20h-203q-98 0 -138 35t-40 100.5t8.5 93t34 43t48 20.5t102 15t102.5 27.5t8 79.5q-2 6 -2 20v123q-109 -182 -309 -182h-94q-141 0 -219 77.5t-78 227t78 222.5t215 73h407v63q0 166 -50 224.5t-200 58.5h-36q-143 0 -252 -55 q-33 -18 -47 6l-21 37q-16 25 12 41q106 68 308 67h36q184 0 267.5 -90t83.5 -287v-606q0 -33 3 -33t3 -2q47 -143 -110 -159t-170 -22.5t-22 -14.5t-9 -49t17 -53.5t77 -12.5h190zM465 88q121 0 203 61.5t114 165.5v183h-403q-100 0 -148.5 -46t-48.5 -157t49.5 -159 t147.5 -48h86z" glyph-name="aogonek" horiz-adv-x="983" unicode="ą"/><glyph d="M735 1843h78q18 0 25.5 -10t-4.5 -27l-187 -235q-6 -5 -16 -21t-27 -16h-43q-16 0 -23.5 10t3.5 27l151 235q20 37 43 37zM1034 436q29 0 29 -28q-6 -205 -112.5 -311.5t-299.5 -106.5h-127q-197 0 -304 110.5t-107 315.5v602q0 205 107.5 315.5t303.5 110.5h127 q193 0 299.5 -106.5t112.5 -311.5q0 -29 -29 -29h-45q-31 0 -31 29q-6 170 -77.5 245t-229.5 75h-127q-162 0 -234.5 -78t-72.5 -250v-602q0 -172 72.5 -250t234.5 -78h127q158 0 229.5 75t77.5 245q0 29 31 28h45z" glyph-name="Cacute" horiz-adv-x="1165" unicode="Ć"/><glyph d="M629 1434h78q18 0 25 -10.5t-5 -26.5l-186 -236q-6 -5 -17 -21t-26 -16h-43q-16 0 -23.5 10.5t2.5 26.5l152 236q20 37 43 37zM805 717q-25 0 -31 26q-20 92 -86.5 141.5t-159.5 49.5h-67q-264 0 -264 -279v-307q0 -125 68.5 -192.5t195.5 -67.5h67q66 0 116 22.5 t69.5 42t66.5 70.5q20 23 41 8l29 -22q27 -16 6 -43q-47 -57 -80 -88t-99.5 -59.5t-148.5 -28.5h-67q-162 0 -265.5 101.5t-103.5 262.5v305q0 170 102.5 270.5t266.5 100.5h67q119 0 218.5 -78t127.5 -204q6 -31 -24 -31h-45z" glyph-name="cacute" horiz-adv-x="958" unicode="ć"/><glyph d="M543 1812q0 31 30 31h33q31 0 31 -31v-45q0 -31 -31 -30h-33q-31 0 -30 30v45zM1034 436q29 0 29 -28q-6 -205 -112.5 -311.5t-299.5 -106.5h-127q-197 0 -304 110.5t-107 315.5v602q0 205 107.5 315.5t303.5 110.5h127q193 0 299.5 -106.5t112.5 -311.5q0 -29 -29 -29 h-45q-31 0 -31 29q-6 170 -77.5 245t-229.5 75h-127q-162 0 -234.5 -78t-72.5 -250v-602q0 -172 72.5 -250t234.5 -78h127q158 0 229.5 75t77.5 245q0 29 31 28h45z" glyph-name="Cdotaccent" horiz-adv-x="1165" unicode="Ċ"/><glyph d="M434 1403q0 31 31 31h33q31 0 30 -31v-45q0 -31 -30 -31h-33q-31 0 -31 31v45zM805 717q-25 0 -31 26q-20 92 -86.5 141.5t-159.5 49.5h-67q-264 0 -264 -279v-307q0 -125 68.5 -192.5t195.5 -67.5h67q66 0 116 22.5t69.5 42t66.5 70.5q20 23 41 8l29 -22q27 -16 6 -43 q-47 -57 -80 -88t-99.5 -59.5t-148.5 -28.5h-67q-162 0 -265.5 101.5t-103.5 262.5v305q0 170 102.5 270.5t266.5 100.5h67q119 0 218.5 -78t127.5 -204q6 -31 -24 -31h-45z" glyph-name="cdotaccent" horiz-adv-x="958" unicode="ċ"/><glyph d="M270 1843h45q23 0 62 -39l209 -207l211 207q39 39 61 39h45q16 0 22.5 -13t-5.5 -26l-265 -258q-41 -33 -57 -33h-25q-16 0 -34.5 16.5t-20.5 16.5l-264 258q-12 12 -6 25.5t22 13.5zM1034 436q29 0 29 -28q-6 -205 -112.5 -311.5t-299.5 -106.5h-127q-197 0 -304 110.5 t-107 315.5v602q0 205 107.5 315.5t303.5 110.5h127q193 0 299.5 -106.5t112.5 -311.5q0 -29 -29 -29h-45q-31 0 -31 29q-6 170 -77.5 245t-229.5 75h-127q-162 0 -234.5 -78t-72.5 -250v-602q0 -172 72.5 -250t234.5 -78h127q158 0 229.5 75t77.5 245q0 29 31 28h45z" glyph-name="Ccaron" horiz-adv-x="1165" unicode="Č"/><glyph d="M164 1434h45q23 0 61 -39l209 -207l211 207q39 39 62 39h45q16 0 22 -13.5t-6 -25.5l-264 -258q-41 -33 -57 -33h-25q-19 0 -36 16.5t-19 16.5l-265 258q-12 12 -6 25.5t23 13.5zM805 717q-25 0 -31 26q-20 92 -86.5 141.5t-159.5 49.5h-67q-264 0 -264 -279v-307 q0 -125 68.5 -192.5t195.5 -67.5h67q66 0 116 22.5t69.5 42t66.5 70.5q20 23 41 8l29 -22q27 -16 6 -43q-47 -57 -80 -88t-99.5 -59.5t-148.5 -28.5h-67q-162 0 -265.5 101.5t-103.5 262.5v305q0 170 102.5 270.5t266.5 100.5h67q119 0 218.5 -78t127.5 -204q6 -31 -24 -31 h-45z" glyph-name="ccaron" horiz-adv-x="958" unicode="č"/><glyph d="M268 1843h45q23 0 62 -39l209 -207l211 207q39 39 61 39h45q16 0 22.5 -13t-5.5 -26l-265 -258q-41 -33 -57 -33h-25q-16 0 -34.5 16.5t-20.5 16.5l-264 258q-12 12 -6 25.5t22 13.5zM653 1434q190 0 295 -104.5t105 -303.5v-618q0 -199 -104.5 -303.5t-295.5 -104.5 h-489q-31 0 -31 31v1372q0 31 31 31h489zM948 408v618q0 164 -70.5 236.5t-224.5 72.5h-415v-1237h415q154 0 224.5 73t70.5 237z" glyph-name="Dcaron" horiz-adv-x="1144" unicode="Ď"/><glyph d="M877 1434q31 0 30 -31v-1372q0 -31 -30 -31h-39q-31 0 -31 31v125q-70 -166 -279 -166h-73q-160 0 -261.5 103.5t-101.5 273.5v292q0 172 100.5 272.5t262.5 100.5h73q213 0 279 -153v524q0 31 31 31h39zM1075 1413q31 0 31 -31v-120q0 -203 -88 -308q-2 -4 -10.5 -5 t-12.5 3l-18 15q-16 15 1 37t32.5 86.5t15.5 128.5l8 20h-65q-31 0 -31 31v112q0 31 31 31h106zM543 88q127 0 195.5 69.5t68.5 200.5v295q0 283 -264 283h-86q-264 0 -264 -283v-295q0 -131 68.5 -200.5t195.5 -69.5h86z" glyph-name="dcaron" horiz-adv-x="1308" unicode="ď"/><glyph d="M705 1434q188 0 293.5 -104.5t105.5 -303.5v-618q0 -199 -105.5 -303.5t-293.5 -104.5h-490q-31 0 -31 31v628h-123q-31 0 -30 31v35q0 31 30 31h123v647q0 31 31 31h490zM999 408v618q0 164 -70.5 236.5t-223.5 72.5h-416v-579h313q31 0 31 -31v-35q0 -31 -31 -31h-313 v-561h416q154 0 224 73t70 237z" glyph-name="Dcroat" horiz-adv-x="1196" unicode="Đ"/><glyph d="M961 1245q31 0 30 -31v-40q0 -31 -30 -31h-54v-1112q0 -31 -30 -31h-39q-31 0 -31 31v125q-70 -166 -279 -166h-73q-160 0 -261.5 103.5t-101.5 273.5v292q0 172 100.5 272.5t262.5 100.5h73q213 0 279 -153v264h-510q-31 0 -31 31v40q0 31 31 31h510v158q0 31 31 31h39 q31 0 30 -31v-158h54zM543 88q127 0 195.5 69.5t68.5 200.5v295q0 283 -264 283h-86q-264 0 -264 -283v-295q0 -131 68.5 -200.5t195.5 -69.5h86z" glyph-name="dcroat" horiz-adv-x="1042" unicode="đ"/><glyph d="M207 1741q-31 0 -31 31v40q0 31 31 31h663q31 0 31 -31v-40q0 -31 -31 -31h-663zM913 1335h-675v-590h520q31 0 30 -30v-37q0 -31 -30 -31h-520v-549h686q31 0 30 -30v-37q0 -31 -30 -31h-760q-31 0 -31 31v1372q0 31 31 31h749q31 0 31 -31v-37q0 -31 -31 -31z" glyph-name="Emacron" horiz-adv-x="1036" unicode="Ē"/><glyph d="M166 1331q-31 0 -31 31v41q0 31 31 31h663q31 0 31 -31v-41q0 -31 -31 -31h-663zM528 1032q139 0 248 -103.5t109 -266.5v-130q0 -29 -18.5 -46t-49.5 -17h-620v-121q0 -125 68.5 -192.5t195.5 -67.5h67q63 0 110 18q46 18 66 38q22 20 44 48t26 31q20 23 43 6l27 -18 q25 -18 6 -43q-49 -59 -80 -89t-95.5 -59.5t-146.5 -29.5h-67q-162 0 -265.5 101.5t-103.5 262.5v305q0 172 102.5 272.5t266.5 100.5h67zM780 561v92q0 137 -69.5 210t-182.5 73h-67q-264 0 -264 -281v-94h583z" glyph-name="emacron" horiz-adv-x="976" unicode="ē"/><glyph d="M494 1812q0 31 30 31h33q31 0 31 -31v-45q0 -31 -31 -30h-33q-31 0 -30 30v45zM913 1335h-675v-590h520q31 0 30 -30v-37q0 -31 -30 -31h-520v-549h686q31 0 30 -30v-37q0 -31 -30 -31h-760q-31 0 -31 31v1372q0 31 31 31h749q31 0 31 -31v-37q0 -31 -31 -31z" glyph-name="Edotaccent" horiz-adv-x="1036" unicode="Ė"/><glyph d="M453 1403q0 31 30 31h33q31 0 31 -31v-45q0 -31 -31 -31h-33q-31 0 -30 31v45zM528 1032q139 0 248 -103.5t109 -266.5v-130q0 -29 -18.5 -46t-49.5 -17h-620v-121q0 -125 68.5 -192.5t195.5 -67.5h67q63 0 110 18q46 18 66 38q22 20 44 48t26 31q20 23 43 6l27 -18 q25 -18 6 -43q-49 -59 -80 -89t-95.5 -59.5t-146.5 -29.5h-67q-162 0 -265.5 101.5t-103.5 262.5v305q0 172 102.5 272.5t266.5 100.5h67zM780 561v92q0 137 -69.5 210t-182.5 73h-67q-264 0 -264 -281v-94h583z" glyph-name="edotaccent" horiz-adv-x="976" unicode="ė"/><glyph d="M930 -297q20 0 20 -20v-48q0 -20 -20 -20h-203q-98 0 -138 35t-40 100.5t8 93t33.5 43t48.5 20.5t106 16t102 28.5t19 48.5h-702q-31 0 -31 31v1372q0 31 31 31h749q31 0 31 -31v-37q0 -31 -31 -31h-675v-590h520q31 0 30 -30v-37q0 -31 -30 -31h-520v-549h686 q31 0 30 -30v-48q18 -86 -6 -121.5t-98 -43.5q-33 -4 -64.5 -8.5t-61.5 -7.5q-42 -4 -60.5 -11.5t-18.5 -53.5t17.5 -58.5t76.5 -12.5h191z" glyph-name="Eogonek" horiz-adv-x="1044" unicode="Ę"/><glyph d="M528 1032q139 0 248 -103.5t109 -266.5v-130q0 -29 -18.5 -46t-49.5 -17h-620v-121q0 -125 68.5 -192.5t195.5 -67.5h67q63 0 109.5 18.5t67 38t43 47t26.5 31.5q20 23 43 6l27 -18q25 -18 6 -43q-96 -117 -172 -150q16 -86 -7.5 -120.5t-97.5 -42.5q-33 -5 -65 -9 q-30 -4 -60 -7q-42 -4 -61.5 -12t-19.5 -53.5t17 -58t79 -12.5h190q20 0 21 -20v-48q0 -20 -21 -20h-204q-98 0 -137.5 35t-39.5 100.5t8.5 93t34 43t48 20.5t105.5 16t101 27.5t19 43.5q-37 -4 -60 -4h-67q-162 0 -265.5 101.5t-103.5 262.5v305q0 172 102.5 272.5 t266.5 100.5h67zM780 561v92q0 137 -69.5 210t-182.5 73h-67q-264 0 -264 -281v-94h583z" glyph-name="eogonek" horiz-adv-x="976" unicode="ę"/><glyph d="M223 1843h45q23 0 62 -39l209 -207l211 207q39 39 61 39h45q16 0 22.5 -13t-6.5 -26l-264 -258q-41 -33 -57 -33h-25q-16 0 -34.5 16.5t-20.5 16.5l-264 258q-12 12 -6 25.5t22 13.5zM913 1335h-675v-590h520q31 0 30 -30v-37q0 -31 -30 -31h-520v-549h686q31 0 30 -30 v-37q0 -31 -30 -31h-760q-31 0 -31 31v1372q0 31 31 31h749q31 0 31 -31v-37q0 -31 -31 -31z" glyph-name="Ecaron" horiz-adv-x="1036" unicode="Ě"/><glyph d="M182 1434h45q23 0 62 -39l209 -207l211 207q39 39 61 39h45q16 0 22.5 -13.5t-6.5 -25.5l-264 -258q-41 -33 -57 -33h-25q-17 0 -35 16.5t-20 16.5l-264 258q-12 12 -6 25.5t22 13.5zM528 1032q139 0 248 -103.5t109 -266.5v-130q0 -29 -18.5 -46t-49.5 -17h-620v-121 q0 -125 68.5 -192.5t195.5 -67.5h67q63 0 109.5 18.5t67 38t43 47t26.5 31.5q20 23 43 6l27 -18q25 -18 6 -43q-49 -59 -80 -89t-95.5 -59.5t-146.5 -29.5h-67q-162 0 -265.5 101.5t-103.5 262.5v305q0 172 102.5 272.5t266.5 100.5h67zM780 561v92q0 137 -69.5 210 t-182.5 73h-67q-264 0 -264 -281v-94h583z" glyph-name="ecaron" horiz-adv-x="976" unicode="ě"/><glyph d="M551 1536q-266 0 -285 276q0 31 31 31h37q25 0 31 -31q6 -96 47 -141t135 -45h80q94 0 135 45t49 141q4 31 31 31h35q31 0 30 -31q-14 -276 -282 -276h-74zM1034 762q29 0 29 -31v-315q0 -205 -107.5 -315.5t-304.5 -110.5h-127q-197 0 -304 110.5t-107 315.5v602 q0 205 107.5 315.5t303.5 110.5h127q190 0 297 -103.5t115 -300.5q0 -29 -29 -28h-45q-31 0 -31 28q-6 160 -78.5 233t-228.5 73h-127q-162 0 -234.5 -78t-72.5 -250v-602q0 -172 72.5 -250t234.5 -78h127q164 0 235.5 78t71.5 250v250h-231q-29 0 -29 28v37q0 31 29 31h307 z" glyph-name="Gbreve" horiz-adv-x="1165" unicode="Ğ"/><glyph d="M479 1126q-266 0 -284 277q0 31 30 31h37q25 0 31 -31q6 -96 47 -141t135 -45h80q94 0 135 45t49 141q2 31 31 31h35q31 0 31 -31q-14 -276 -283 -277h-74zM877 1024q31 0 30 -31v-1052q0 -350 -424 -351q-106 0 -182 19q-18 2 -18 18v62q0 20 18 16q76 -18 211 -18 t215 52t80 198v219q-70 -166 -279 -166h-73q-160 0 -261.5 103.5t-101.5 273.5v292q0 172 100.5 272.5t262.5 100.5h73q213 0 279 -153v114q0 31 31 31h39zM543 88q127 0 195.5 69.5t68.5 200.5v295q0 283 -264 283h-86q-264 0 -264 -283v-295q0 -131 68.5 -200.5 t195.5 -69.5h86z" glyph-name="gbreve" horiz-adv-x="1030" unicode="ğ"/><glyph d="M573 1737q-31 0 -30 30v45q0 31 30 31h33q31 0 31 -31v-45q0 -31 -31 -30h-33zM1034 762q29 0 29 -31v-315q0 -205 -107.5 -315.5t-304.5 -110.5h-127q-197 0 -304 110.5t-107 315.5v602q0 205 107.5 315.5t303.5 110.5h127q190 0 297 -103.5t115 -300.5q0 -29 -29 -28 h-45q-31 0 -31 28q-6 160 -78.5 233t-228.5 73h-127q-162 0 -234.5 -78t-72.5 -250v-602q0 -172 72.5 -250t234.5 -78h127q164 0 235.5 78t71.5 250v250h-231q-29 0 -29 28v37q0 31 29 31h307z" glyph-name="Gdotaccent" horiz-adv-x="1165" unicode="Ġ"/><glyph d="M502 1327q-31 0 -31 31v45q0 31 31 31h33q31 0 30 -31v-45q0 -31 -30 -31h-33zM877 1024q31 0 30 -31v-1052q0 -350 -424 -351q-106 0 -182 19q-18 2 -18 18v62q0 20 18 16q76 -18 211 -18t215 52t80 198v219q-70 -166 -279 -166h-73q-160 0 -261.5 103.5t-101.5 273.5 v292q0 172 100.5 272.5t262.5 100.5h73q213 0 279 -153v114q0 31 31 31h39zM543 88q127 0 195.5 69.5t68.5 200.5v295q0 283 -264 283h-86q-264 0 -264 -283v-295q0 -131 68.5 -200.5t195.5 -69.5h86z" glyph-name="gdotaccent" horiz-adv-x="1030" unicode="ġ"/><glyph d="M1034 762q29 0 29 -31v-315q0 -205 -107.5 -315.5t-304.5 -110.5h-127q-197 0 -304 110.5t-107 315.5v602q0 205 107.5 315.5t303.5 110.5h127q190 0 297 -103.5t115 -300.5q0 -29 -29 -28h-45q-31 0 -31 28q-6 160 -78.5 233t-228.5 73h-127q-162 0 -234.5 -78 t-72.5 -250v-602q0 -172 72.5 -250t234.5 -78h127q164 0 235.5 78t71.5 250v250h-231q-29 0 -29 28v37q0 31 29 31h307zM637 -174q31 0 31 -31v-121q0 -203 -88 -307q-2 -4 -10.5 -5t-12.5 3l-18 14q-16 14 0 36t32.5 87.5t16.5 128.5l8 21h-66q-31 0 -30 31v112q0 31 30 31 h107z" glyph-name="Gcommaaccent" horiz-adv-x="1165" unicode="Ģ"/><glyph d="M434 1135q-31 0 -31 30v121q0 201 86 307q10 10 25 2l18 -14q16 -14 0 -36t-32.5 -87t-16.5 -129l-10 -20h68q31 0 30 -31v-113q0 -31 -30 -30h-107zM877 1024q31 0 30 -31v-1052q0 -350 -424 -351q-106 0 -182 19q-18 2 -18 18v62q0 20 18 16q76 -18 211 -18t215 52 t80 198v219q-70 -166 -279 -166h-73q-160 0 -261.5 103.5t-101.5 273.5v292q0 172 100.5 272.5t262.5 100.5h73q213 0 279 -153v114q0 31 31 31h39zM543 88q127 0 195.5 69.5t68.5 200.5v295q0 283 -264 283h-86q-264 0 -264 -283v-295q0 -131 68.5 -200.5t195.5 -69.5h86z " glyph-name="gcommaaccent" horiz-adv-x="1030" unicode="ģ"/><glyph d="M999 1434q31 0 31 -31v-1372q0 -31 -31 -31h-43q-31 0 -30 31v616h-688v-616q0 -31 -31 -31h-43q-31 0 -31 31v1372q0 31 31 31h43q31 0 31 -31v-273h688v273q0 31 30 31h43zM238 745h688v279h-688v-279z" glyph-name="Hbar" horiz-adv-x="1163" unicode="Ħ"/><glyph d="M618 1032q176 0 251 -91t75 -271v-639q0 -31 -31 -31h-39q-31 0 -30 31v633q0 143 -46 206.5t-177 63.5h-35q-113 0 -190 -51.5t-111 -108.5v-743q0 -31 -31 -31h-39q-31 0 -31 31v1118h-92q-31 0 -31 31v24q0 31 31 31h92v168q0 31 31 31h39q31 0 31 -31v-168h315 q31 0 31 -31v-24q0 -31 -31 -31h-315v-285q117 168 317 168h16z" glyph-name="hbar" horiz-adv-x="1067" unicode="ħ"/><glyph d="M-147 1741q-31 0 -31 31v40q0 31 31 31h663q31 0 31 -31v-40q0 -31 -31 -31h-663zM133 1403q0 31 31 31h43q31 0 31 -31v-1372q0 -31 -31 -31h-43q-31 0 -31 31v1372z" glyph-name="Imacron" horiz-adv-x="370" unicode="Ī"/><glyph d="M-117 1331q-31 0 -30 31v41q0 31 30 31h664q31 0 31 -31v-41q0 -31 -31 -31h-664zM164 993q0 31 31 31h38q31 0 31 -31v-962q0 -31 -31 -31h-38q-31 0 -31 31v962z" glyph-name="imacron" horiz-adv-x="428" unicode="ī"/><glyph d="M-82 -237.5q0 -34.5 17.5 -47t76.5 -12.5h191q20 0 20 -20v-48q0 -20 -20 -20h-203q-98 0 -138 35t-40 100.5t8 93t33.5 43t48 20.5t75 12t72 11t43 15.5t29.5 29t6 50.5v1378q0 31 31 31h43q31 0 31 -31v-1378q0 -80 -24.5 -121t-88.5 -48.5t-125 -16.5t-67.5 -12 t-12.5 -16.5t-6 -48z" glyph-name="Iogonek" horiz-adv-x="374" unicode="Į"/><glyph d="M201 1327q-31 0 -31 31v45q0 31 31 31h32q31 0 31 -31v-45q0 -31 -31 -31h-32zM240 -297q20 0 20 -20v-48q0 -20 -20 -20h-205q-98 0 -137 34.5t-39 100.5t8 93.5t33.5 43t48 20.5t51.5 8q30 3 52 6t55.5 9.5t51.5 24t15 51.5q-10 6 -10 25v962q0 31 31 31h38 q31 0 31 -31v-973q16 -88 -7.5 -122.5t-76.5 -40.5t-85 -10.5t-67.5 -8t-55 -11.5t-19.5 -53q0 -46 17.5 -58.5t78.5 -12.5h191z" glyph-name="iogonek" horiz-adv-x="428" unicode="į"/><glyph d="M139 1812q0 31 31 31h33q31 0 30 -31v-45q0 -31 -30 -30h-33q-31 0 -31 30v45zM133 1403q0 31 31 31h43q31 0 31 -31v-1372q0 -31 -31 -31h-43q-31 0 -31 31v1372z" glyph-name="Idotaccent" horiz-adv-x="370" unicode="İ"/><glyph d="M164 993q0 31 31 31h38q31 0 31 -31v-962q0 -31 -31 -31h-38q-31 0 -31 31v962z" glyph-name="dotlessi" horiz-adv-x="428" unicode="ı"/><glyph d="M133 1403q0 31 31 31h43q31 0 31 -31v-1372q0 -31 -31 -31h-43q-31 0 -31 31v1372zM761 86q147 0 241 99.5t94 258.5v959q0 31 30 31h43q31 0 31 -31v-957q0 -199 -125 -329.5t-314 -130.5t-310 108q-12 10 -2 23l45 55q8 10 24 0q96 -86 243 -86z" glyph-name="IJ" horiz-adv-x="1333" unicode="Ĳ"/><glyph d="M147 1403q0 31 31 31h33q31 0 31 -31v-45q0 -31 -31 -31h-33q-31 0 -31 31v45zM541 1403q0 31 30 31h31q31 0 31 -31v-45q0 -31 -31 -31h-31q-31 0 -30 31v45zM143 993q0 31 31 31h39q31 0 31 -31v-962q0 -31 -31 -31h-39q-31 0 -31 31v962zM541 -106v1099q0 31 30 31h31 q31 0 31 -31v-1093q0 -82 -60.5 -162t-152.5 -115q-29 -10 -39 21l-12 37q-8 29 18 36q57 20 105.5 69.5t48.5 107.5z" glyph-name="ij" horiz-adv-x="776" unicode="ĳ"/><glyph d="M997 0h-45q-33 0 -55 29l-518 633l-141 -181v-450q0 -31 -31 -31h-43q-31 0 -31 31v1372q0 31 31 31h43q31 0 31 -31v-785l608 785q23 31 47 31h43q16 0 23.5 -14.5t-5.5 -30.5l-505 -658l561 -682q12 -12 9 -30.5t-22 -18.5zM596 -174q31 0 31 -31v-121q0 -203 -88 -307 q-2 -4 -10.5 -5t-12.5 3l-18 14q-16 14 0 36t32.5 87.5t16.5 128.5l8 21h-66q-31 0 -30 31v112q0 31 30 31h107z" glyph-name="Kcommaaccent" horiz-adv-x="1091" unicode="Ķ"/><glyph d="M154 1434h39q31 0 30 -31v-903l508 504q20 20 35 20h63q18 0 21.5 -15.5t-8.5 -25.5l-434 -428l485 -514q12 -16 8 -28.5t-22 -12.5h-48q-25 0 -51 25l-440 464l-117 -114v-344q0 -31 -30 -31h-39q-31 0 -31 31v1372q0 31 31 31zM510 -174q31 0 31 -31v-121 q0 -203 -88 -307q-2 -4 -10.5 -5t-12.5 3l-18 14q-16 14 0 36t32.5 87.5t16.5 128.5l8 21h-66q-31 0 -30 31v112q0 31 30 31h107z" glyph-name="kcommaaccent" horiz-adv-x="974" unicode="ķ"/><glyph d="M336 1843h78q18 0 25 -10t-5 -27l-186 -235q-6 -5 -17 -21t-26 -16h-43q-16 0 -23.5 10t2.5 27l152 235q20 37 43 37zM844 98q31 0 30 -30v-37q0 -31 -30 -31h-680q-31 0 -31 31v1372q0 31 31 31h43q31 0 31 -31v-1305h606z" glyph-name="Lacute" horiz-adv-x="966" unicode="Ĺ"/><glyph d="M322 1843h77q18 0 25.5 -10t-4.5 -27l-187 -235q-6 -5 -16 -21t-27 -16h-43q-16 0 -23 10t3 27l152 235q20 37 43 37zM123 1403q0 31 31 31h39q31 0 30 -31v-1372q0 -31 -30 -31h-39q-31 0 -31 31v1372z" glyph-name="lacute" horiz-adv-x="346" unicode="ĺ"/><glyph d="M844 98q31 0 30 -30v-37q0 -31 -30 -31h-680q-31 0 -31 31v1372q0 31 31 31h43q31 0 31 -31v-1305h606zM532 -174q31 0 31 -31v-121q0 -203 -88 -307q-2 -4 -10 -5t-12 3l-19 14q-16 14 0 36t32.5 87.5t16.5 128.5l9 21h-66q-31 0 -31 31v112q0 31 31 31h106z" glyph-name="Lcommaaccent" horiz-adv-x="966" unicode="Ļ"/><glyph d="M123 1403q0 31 31 31h39q31 0 30 -31v-1372q0 -31 -30 -31h-39q-31 0 -31 31v1372zM223 -174q31 0 31 -31v-121q0 -203 -88 -307q-2 -4 -10.5 -5t-12.5 3l-18 14q-16 14 0 36t32.5 87.5t16.5 128.5l8 21h-65q-31 0 -31 31v112q0 31 31 31h106z" glyph-name="lcommaaccent" horiz-adv-x="346" unicode="ļ"/><glyph d="M844 98q31 0 30 -30v-37q0 -31 -30 -31h-680q-31 0 -31 31v1372q0 31 31 31h43q31 0 31 -31v-1305h606zM539 1413q31 0 30 -31v-120q0 -203 -88 -308q-2 -4 -10 -5t-12 3l-19 15q-16 15 1 37t32.5 86.5t15.5 128.5l9 20h-66q-31 0 -31 31v112q0 31 31 31h107z" glyph-name="Lcaron" horiz-adv-x="954" unicode="Ľ"/><glyph d="M123 1403q0 31 31 31h39q31 0 30 -31v-1372q0 -31 -30 -31h-39q-31 0 -31 31v1372zM424 1413q31 0 31 -31v-120q0 -203 -88 -308q-2 -4 -10.5 -5t-12.5 3l-18 15q-16 15 1 37t32.5 86.5t15.5 128.5l8 20h-66q-31 0 -30 31v112q0 31 30 31h107z" glyph-name="lcaron" horiz-adv-x="509" unicode="ľ"/><glyph d="M844 98q31 0 30 -30v-37q0 -31 -30 -31h-680q-31 0 -31 31v1372q0 31 31 31h43q31 0 31 -31v-1305h606zM559 932q0 31 31 31h76q31 0 30 -31v-96q0 -31 -30 -31h-76q-31 0 -31 31v96z" glyph-name="Ldot" horiz-adv-x="966" unicode="Ŀ"/><glyph d="M123 1403q0 31 31 31h39q31 0 30 -31v-1372q0 -31 -30 -31h-39q-31 0 -31 31v1372zM287 766q0 31 30 31h76q31 0 31 -31v-96q0 -31 -31 -31h-76q-31 0 -30 31v96z" glyph-name="ldot" horiz-adv-x="485" unicode="ŀ"/><glyph d="M977 98q31 0 31 -30v-37q0 -31 -31 -31h-682q-31 0 -31 31v360l-71 -94q-27 -35 -48 -35h-67q-18 0 -25.5 10.5t4.5 26.5l207 270v834q0 31 31 31h43q31 0 31 -31v-698l172 223q27 35 47 35h67q18 0 24.5 -10.5t-5.5 -26.5l-305 -398v-430h608z" glyph-name="Lslash" horiz-adv-x="1236" unicode="Ł"/><glyph d="M446 963q18 0 24.5 -10.5t-5.5 -26.5l-160 -185v-710q0 -31 -31 -31h-43q-31 0 -30 31v590l-27 -29q-33 -35 -47 -35h-47q-18 0 -25.5 11.5t4.5 25.5l142 160v649q0 31 30 31h43q31 0 31 -31v-531l47 56q31 35 47 35h47z" glyph-name="lslash" horiz-adv-x="524" unicode="ł"/><glyph d="M741 1843h78q18 0 25.5 -10t-4.5 -27l-187 -235q-6 -5 -16 -21t-27 -16h-43q-16 0 -23 10t3 27l151 235q23 37 43 37zM1022 1434q31 0 31 -31v-1372q0 -31 -31 -31h-109q-25 0 -36 23l-639 1314v-1306q0 -31 -31 -31h-43q-31 0 -31 31v1372q0 31 31 31h108q27 0 37 -23 l639 -1315v1307q0 31 31 31h43z" glyph-name="Nacute" unicode="Ń"/><glyph d="M653 1434h78q18 0 25.5 -10.5t-4.5 -26.5l-187 -236q-6 -5 -16 -21t-27 -16h-43q-16 0 -23 10.5t3 26.5l151 236q23 37 43 37zM557 1032q176 0 251 -91t75 -271v-639q0 -31 -31 -31h-39q-31 0 -31 31v633q0 143 -47 207.5t-176 64.5h-35q-113 0 -189.5 -52.5 t-111.5 -109.5v-743q0 -31 -30 -31h-39q-31 0 -31 31v962q0 31 31 31h39q31 0 30 -31v-129q117 168 318 168h16z" glyph-name="nacute" horiz-adv-x="1005" unicode="ń"/><glyph d="M1022 1434q31 0 31 -31v-1372q0 -31 -31 -31h-109q-25 0 -36 23l-639 1314v-1306q0 -31 -31 -31h-43q-31 0 -31 31v1372q0 31 31 31h108q27 0 37 -23l639 -1315v1307q0 31 31 31h43zM643 -174q31 0 31 -31v-121q0 -203 -88 -307q-2 -4 -10.5 -5t-12.5 3l-18 14 q-16 14 0 36t32.5 87.5t16.5 128.5l8 21h-65q-31 0 -31 31v112q0 31 31 31h106z" glyph-name="Ncommaaccent" unicode="Ņ"/><glyph d="M557 1032q176 0 251 -91t75 -271v-639q0 -31 -31 -31h-39q-31 0 -31 31v633q0 143 -47 207.5t-176 64.5h-35q-113 0 -189.5 -52.5t-111.5 -109.5v-743q0 -31 -30 -31h-39q-31 0 -31 31v962q0 31 31 31h39q31 0 30 -31v-129q117 168 318 168h16zM553 -174q31 0 31 -31 v-121q0 -203 -88 -307q-2 -4 -10.5 -5t-12.5 3l-18 14q-16 14 0 36t32.5 87.5t16.5 128.5l8 21h-66q-31 0 -30 31v112q0 31 30 31h107z" glyph-name="ncommaaccent" horiz-adv-x="1005" unicode="ņ"/><glyph d="M276 1843h46q23 0 61 -39l209 -207l211 207q39 39 61 39h45q16 0 22.5 -13t-5.5 -26l-264 -258q-41 -33 -58 -33h-24q-17 0 -35.5 16.5t-20.5 16.5l-264 258q-12 12 -6 25.5t22 13.5zM1022 1434q31 0 31 -31v-1372q0 -31 -31 -31h-109q-25 0 -36 23l-639 1314v-1306 q0 -31 -31 -31h-43q-31 0 -31 31v1372q0 31 31 31h108q27 0 37 -23l639 -1315v1307q0 31 31 31h43z" glyph-name="Ncaron" unicode="Ň"/><glyph d="M188 1434h45q23 0 62 -39l209 -207l211 207q39 39 61 39h45q16 0 22.5 -13.5t-5.5 -25.5l-265 -258q-41 -33 -57 -33h-24q-18 0 -36 16.5t-20 16.5l-264 258q-12 12 -6 25.5t22 13.5zM557 1032q176 0 251 -91t75 -271v-639q0 -31 -31 -31h-39q-31 0 -31 31v633 q0 143 -47 207.5t-176 64.5h-35q-113 0 -189.5 -52.5t-111.5 -109.5v-743q0 -31 -30 -31h-39q-31 0 -31 31v962q0 31 31 31h39q31 0 30 -31v-129q117 168 318 168h16z" glyph-name="ncaron" horiz-adv-x="1005" unicode="ň"/><glyph d="M1006 1487q31 0 30 -31v-1378q0 -199 -126 -340t-296 -141h-51q-131 0 -262 100q-25 23 0 43l29 37q23 23 43 2q88 -78 190 -78h53q125 0 219.5 104.5t96.5 257.5l-694 1360v-1392q0 -31 -31 -31h-43q-31 0 -31 31v1425q0 31 31 31h135q25 0 37 -23l596 -1165v1157 q0 31 31 31h43z" glyph-name="Eng" horiz-adv-x="1169" unicode="Ŋ"/><glyph d="M557 1032q176 0 251 -91t75 -271v-639q0 -8 -2 -11q-12 -166 -136 -297t-274 -120q-31 0 -27 32l23 50q6 25 35 24q115 -2 197.5 105.5t82.5 234.5v615q0 143 -47 207.5t-176 64.5h-35q-113 0 -189.5 -52.5t-111.5 -109.5v-743q0 -31 -30 -31h-39q-31 0 -31 31v962 q0 31 31 31h39q31 0 30 -31v-129q117 168 318 168h16z" glyph-name="eng" horiz-adv-x="1026" unicode="ŋ"/><glyph d="M262 1741q-31 0 -31 31v40q0 31 31 31h664q31 0 30 -31v-40q0 -31 -30 -31h-664zM662 1444q197 0 304 -110.5t107 -315.5v-602q0 -205 -107.5 -315.5t-303.5 -110.5h-138q-197 0 -304 110.5t-107 315.5v602q0 205 107.5 315.5t303.5 110.5h138zM969 416v602 q0 172 -73 250t-234 78h-138q-162 0 -234.5 -78t-72.5 -250v-602q0 -172 72.5 -250t234.5 -78h138q162 0 234.5 78t72.5 250z" glyph-name="Omacron" unicode="Ō"/><glyph d="M170 1331q-31 0 -31 31v41q0 31 31 31h664q31 0 30 -31v-41q0 -31 -30 -31h-664zM545 1032q164 0 265 -100.5t101 -272.5v-292q0 -170 -101 -273.5t-265 -103.5h-88q-162 0 -263.5 103.5t-101.5 273.5v292q0 172 100.5 272.5t264.5 100.5h88zM809 358v295q0 283 -264 283 h-88q-264 0 -264 -283v-295q0 -131 68.5 -200.5t195.5 -69.5h88q129 0 196.5 69.5t67.5 200.5z" glyph-name="omacron" horiz-adv-x="1003" unicode="ō"/><glyph d="M625 1843h77q18 0 25.5 -10t-4.5 -27l-186 -235q-6 -5 -17 -21t-26 -16h-43q-16 0 -23.5 10t2.5 27l152 235q20 37 43 37zM870 1843h78q18 0 25.5 -10t-4.5 -27l-187 -235q-6 -5 -16 -21t-27 -16h-43q-16 0 -23 10t3 27l151 235q20 37 43 37zM662 1444q197 0 304 -110.5 t107 -315.5v-602q0 -205 -107.5 -315.5t-303.5 -110.5h-138q-197 0 -304 110.5t-107 315.5v602q0 205 107.5 315.5t303.5 110.5h138zM969 416v602q0 172 -73 250t-234 78h-138q-162 0 -234.5 -78t-72.5 -250v-602q0 -172 72.5 -250t234.5 -78h138q162 0 234.5 78t72.5 250z " glyph-name="Ohungarumlaut" unicode="Ő"/><glyph d="M532 1434h78q18 0 25.5 -10.5t-4.5 -26.5l-187 -236q-6 -5 -16 -21t-27 -16h-43q-16 0 -23 10.5t3 26.5l151 236q23 37 43 37zM778 1434h78q18 0 25.5 -10.5t-4.5 -26.5l-187 -236q-6 -5 -16 -21t-27 -16h-43q-16 0 -23.5 10.5t3.5 26.5l151 236q23 37 43 37zM545 1032 q164 0 265 -100.5t101 -272.5v-292q0 -170 -101 -273.5t-265 -103.5h-88q-162 0 -263.5 103.5t-101.5 273.5v292q0 172 100.5 272.5t264.5 100.5h88zM809 358v295q0 283 -264 283h-88q-264 0 -264 -283v-295q0 -131 68.5 -200.5t195.5 -69.5h88q129 0 196.5 69.5t67.5 200.5 z" glyph-name="ohungarumlaut" horiz-adv-x="1003" unicode="ő"/><glyph d="M1759 98q31 0 31 -30v-37q0 -31 -31 -31h-760q-31 0 -30 31v73q-104 -115 -307 -114h-138q-197 0 -304 110.5t-107 315.5v602q0 205 107.5 315.5t303.5 110.5h138q203 0 307 -115v74q0 31 30 31h750q31 0 31 -31v-37q0 -31 -31 -31h-676v-590h518q31 0 31 -30v-37 q0 -31 -31 -31h-518v-549h686zM969 416v602q0 172 -73 250t-234 78h-138q-162 0 -234.5 -78t-72.5 -250v-602q0 -172 72.5 -250t234.5 -78h138q162 0 234.5 78t72.5 250z" glyph-name="OE" horiz-adv-x="1871" unicode="Œ"/><glyph d="M1239 1032q139 0 246.5 -103.5t107.5 -266.5v-130q0 -63 -65 -63h-617v-102q0 -18 -4 -48q10 -111 78 -171t186 -60h68q63 0 109.5 18.5t67 38t43 47t26.5 31.5q20 23 43 6l26 -18q25 -18 7 -43q-49 -59 -80 -89t-95.5 -59.5t-146.5 -29.5h-68q-213 0 -315 164 q-98 -164 -311 -164h-88q-162 0 -263.5 103.5t-101.5 273.5v292q0 172 100.5 272.5t264.5 100.5h88q213 0 313 -162q96 162 313 162h68zM545 88q231 0 262 213q-4 33 -4 53v305q0 20 4 58q-31 219 -262 219h-88q-264 0 -264 -283v-295q0 -131 68.5 -200.5t195.5 -69.5h88z M911 561h580v92q0 137 -69.5 209t-182.5 72h-68q-244 0 -262 -236l2 -39v-98z" glyph-name="oe" horiz-adv-x="1714" unicode="œ"/><glyph d="M561 1534q-16 0 -23.5 10t3.5 27l151 235q20 37 43 37h78q18 0 25.5 -10t-4.5 -27l-187 -235q-6 -5 -16 -21t-27 -16h-43zM1051 0h-52q-25 0 -32 20l-228 502q-41 -8 -96 -8h-405v-483q0 -31 -31 -31h-43q-31 0 -31 31v1372q0 31 31 31h479q190 0 294.5 -105.5 t104.5 -304.5v-100q0 -281 -206 -375l235 -514q8 -14 2 -24.5t-22 -10.5zM238 612h405q154 0 224.5 73t70.5 239v100q0 166 -70.5 238.5t-224.5 72.5h-405v-723z" glyph-name="Racute" horiz-adv-x="1157" unicode="Ŕ"/><glyph d="M575 1434h78q18 0 25.5 -10.5t-4.5 -26.5l-187 -236q-6 -6 -16 -21.5t-27 -15.5h-43q-16 0 -23 10.5t3 26.5l151 236q20 37 43 37zM549 936h-25q-113 0 -189.5 -52.5t-111.5 -109.5v-743q0 -31 -30 -31h-39q-31 0 -31 31v962q0 31 31 31h39q31 0 30 -31v-129 q115 168 334 168q68 0 133 -16q27 -12 19 -39l-17 -43q-10 -26 -47 -12t-96 14z" glyph-name="racute" horiz-adv-x="761" unicode="ŕ"/><glyph d="M1051 0h-52q-25 0 -32 20l-228 502q-41 -8 -96 -8h-405v-483q0 -31 -31 -31h-43q-31 0 -31 31v1372q0 31 31 31h479q190 0 294.5 -105.5t104.5 -304.5v-100q0 -281 -206 -375l235 -514q8 -14 2 -24.5t-22 -10.5zM238 612h405q154 0 224.5 73t70.5 239v100 q0 166 -70.5 238.5t-224.5 72.5h-405v-723zM635 -174q31 0 31 -31v-121q0 -203 -88 -307q-2 -4 -10.5 -5t-12.5 3l-18 14q-16 14 0 36t32.5 87.5t16.5 128.5l8 21h-66q-31 0 -30 31v112q0 31 30 31h107z" glyph-name="Rcommaaccent" horiz-adv-x="1157" unicode="Ŗ"/><glyph d="M549 936h-25q-113 0 -189.5 -52.5t-111.5 -109.5v-743q0 -31 -30 -31h-39q-31 0 -31 31v962q0 31 31 31h39q31 0 30 -31v-129q115 168 334 168q68 0 133 -16q27 -12 19 -39l-17 -43q-10 -26 -47 -12t-96 14zM221 -174q31 0 31 -31v-121q0 -203 -88 -307q-2 -4 -10.5 -5 t-12.5 3l-18 14q-16 14 0 36t32.5 87.5t16.5 128.5l8 21h-65q-31 0 -31 31v112q0 31 31 31h106z" glyph-name="rcommaaccent" horiz-adv-x="761" unicode="ŗ"/><glyph d="M270 1843h45q23 0 62 -39l209 -207l211 207q39 39 61 39h45q16 0 22.5 -13t-5.5 -26l-265 -258q-41 -33 -57 -33h-25q-16 0 -34.5 16.5t-20.5 16.5l-264 258q-12 12 -6 25.5t22 13.5zM1051 0h-52q-25 0 -32 20l-228 502q-41 -8 -96 -8h-405v-483q0 -31 -31 -31h-43 q-31 0 -31 31v1372q0 31 31 31h479q190 0 294.5 -105.5t104.5 -304.5v-100q0 -281 -206 -375l235 -514q8 -14 2 -24.5t-22 -10.5zM238 612h405q154 0 224.5 73t70.5 239v100q0 166 -70.5 238.5t-224.5 72.5h-405v-723z" glyph-name="Rcaron" horiz-adv-x="1157" unicode="Ř"/><glyph d="M92 1434h45q23 0 62 -39l209 -207l210 207q39 39 62 39h45q16 0 22.5 -13.5t-6.5 -25.5l-266 -258q-37 -33 -55 -33h-25q-17 0 -35 16.5t-20 16.5l-264 258q-12 12 -6 25.5t22 13.5zM549 936h-25q-113 0 -189.5 -52.5t-111.5 -109.5v-743q0 -31 -30 -31h-39q-31 0 -31 31 v962q0 31 31 31h39q31 0 30 -31v-129q115 168 334 168q68 0 133 -16q27 -12 19 -39l-17 -43q-10 -26 -47 -12t-96 14z" glyph-name="rcaron" horiz-adv-x="761" unicode="ř"/><glyph d="M723 1843h78q18 0 25.5 -10t-5.5 -27l-186 -235q-6 -6 -16.5 -21.5t-26.5 -15.5h-43q-16 0 -23.5 10t2.5 27l152 235q20 37 43 37zM1044 410q0 -205 -106.5 -312.5t-304.5 -107.5h-119q-190 0 -296.5 102.5t-115.5 294.5q0 29 29 29h47q29 0 29 -29q6 -154 79.5 -226.5 t227.5 -72.5h119q162 0 234.5 76t72.5 246q0 108 -51 158q-29 28 -51 46q-40 33 -232 78l-86 21q-254 56 -326.5 141.5t-72.5 224.5q0 365 411 365h78q184 0 286.5 -100.5t113.5 -290.5q-4 -29 -31 -29h-45q-33 0 -29 29q-6 154 -74.5 223.5t-220.5 69.5h-78 q-166 0 -236.5 -56.5t-70.5 -210.5q0 -78 15.5 -108.5t23.5 -47t30.5 -30.5t34 -22.5t43 -17.5t63.5 -19.5t83 -18.5l86 -20q260 -60 350 -151.5t90 -233.5z" glyph-name="Sacute" horiz-adv-x="1146" unicode="Ś"/><glyph d="M629 1434h78q18 0 25 -10.5t-5 -26.5l-186 -236q-6 -6 -16.5 -21.5t-26.5 -15.5h-43q-16 0 -23.5 10.5t2.5 26.5l152 236q20 37 43 37zM520 -10h-84q-139 0 -228 66.5t-116 187.5q-6 31 31 30h47q23 0 29 -28q25 -82 80 -120t157 -38h82q250 0 250 197q0 79 -48 121 t-148 55q-30 4 -91 12q-176 20 -271 86t-95 200t90 202.5t241 68.5h60q147 0 234 -68.5t94 -203.5q0 -33 -29 -33h-43q-33 0 -33 33q-12 180 -227 180h-51q-236 0 -236 -174q0 -96 67.5 -140.5t171 -56.5t151.5 -21q133 -25 189 -76q74 -67 74 -197.5t-99 -206.5t-249 -76z " glyph-name="sacute" horiz-adv-x="950" unicode="ś"/><glyph d="M877 -276q0 -60 -41 -97t-138 -37h-82q-172 0 -176 160q0 20 19 21h53q20 0 20 -17q4 -39 26 -57.5t79 -18.5h39q59 0 82.5 12.5t23.5 49.5q0 45 -188 65q-41 6 -62.5 8.5t-39 15.5t-16.5 55t40 106h-2q-190 0 -296.5 102.5t-115.5 294.5q0 29 29 29h47q29 0 29 -29 q6 -154 79.5 -226.5t227.5 -72.5h119q162 0 234.5 76t72.5 246q0 108 -51 158q-29 28 -51 46q-40 33 -232 78l-86 21q-254 56 -326.5 141.5t-72.5 224.5q0 365 411 365h78q184 0 286.5 -100.5t113.5 -290.5q-4 -29 -31 -29h-45q-33 0 -29 29q-6 154 -74.5 223.5t-220.5 69.5 h-78q-166 0 -236.5 -56.5t-70.5 -210.5q0 -78 15.5 -108.5t23.5 -47t30.5 -30.5t34 -22.5t43 -17.5t63.5 -19.5t83 -18.5l86 -20q260 -60 350 -151.5t90 -233.5q0 -205 -106 -312.5t-305 -107.5h-19q-44 -76 -8 -94q22 -11 42.5 -12t50.5 -4t41.5 -5t36 -7t34.5 -10 q37 -19 51.5 -46.5t14.5 -87.5z" glyph-name="Scedilla" horiz-adv-x="1146" unicode="Ş"/><glyph d="M782 -275q0 -61 -41 -98t-137 -37h-82q-172 0 -176 160q0 20 19 21h53q20 0 20 -17q4 -39 25.5 -57.5t79.5 -18.5h39q59 0 82.5 12.5t23.5 49.5q0 45 -188 65q-41 6 -62.5 8.5t-39 15.5t-16.5 55t42 106q-133 2 -219 68.5t-113 185.5q-6 31 31 30h47q23 0 29 -28 q25 -82 80 -120t157 -38h82q250 0 250 197q0 79 -48 121t-148 55q-30 4 -91 12q-176 20 -271 86t-95 200t90 202.5t241 68.5h60q147 0 234 -68.5t94 -203.5q0 -33 -29 -33h-43q-33 0 -33 33q-12 180 -227 180h-51q-236 0 -236 -174q0 -96 67.5 -140t171 -56.5t151.5 -21.5 q133 -25 189 -76q74 -67 74 -197.5t-99 -206.5t-249 -76q-44 -76 -8 -94q22 -11 42.5 -12t50.5 -4t41 -5t36 -7t35 -10q37 -19 51 -45.5t14 -87.5z" glyph-name="scedilla" horiz-adv-x="950" unicode="ş"/><glyph d="M258 1843h45q23 0 62 -39l208 -207l211 207q39 39 62 39h45q16 0 22.5 -13t-6.5 -26l-264 -258q-41 -33 -57 -33h-25q-16 0 -34.5 16.5t-20.5 16.5l-264 258q-12 12 -6 25.5t22 13.5zM1044 410q0 -205 -106.5 -312.5t-304.5 -107.5h-119q-190 0 -296.5 102.5 t-115.5 294.5q0 29 29 29h47q29 0 29 -29q6 -154 79.5 -226.5t227.5 -72.5h119q162 0 234.5 76t72.5 246q0 108 -51 158q-29 28 -51 46q-40 33 -232 78l-86 21q-254 56 -326.5 141.5t-72.5 224.5q0 365 411 365h78q184 0 286.5 -100.5t113.5 -290.5q-4 -29 -31 -29h-45 q-33 0 -29 29q-6 154 -74.5 223.5t-220.5 69.5h-78q-166 0 -236.5 -56.5t-70.5 -210.5q0 -78 15.5 -108.5t23.5 -47t30.5 -30.5t34 -22.5t43 -17.5t63.5 -19.5t83 -18.5l86 -20q260 -60 350 -151.5t90 -233.5z" glyph-name="Scaron" horiz-adv-x="1146" unicode="Š"/><glyph d="M164 1434h45q23 0 61 -39l209 -207l211 207q39 39 62 39h45q16 0 22 -13.5t-6 -25.5l-264 -258q-41 -33 -57 -33h-25q-19 0 -36 16.5t-19 16.5l-265 258q-12 12 -6 25.5t23 13.5zM520 -10h-84q-139 0 -228 66.5t-116 187.5q-6 31 31 30h47q23 0 29 -28q25 -82 80 -120 t157 -38h82q250 0 250 197q0 79 -48 121t-148 55q-30 4 -91 12q-176 20 -271 86t-95 200t90 202.5t241 68.5h60q147 0 234 -68.5t94 -203.5q0 -33 -29 -33h-43q-33 0 -33 33q-12 180 -227 180h-51q-236 0 -236 -174q0 -96 67.5 -140.5t171 -56.5t151.5 -21q133 -25 189 -76 q74 -67 74 -197.5t-99 -206.5t-249 -76z" glyph-name="scaron" horiz-adv-x="950" unicode="š"/><glyph d="M928 1434q31 0 30 -31v-37q0 -31 -30 -31h-355v-1304q0 -14 -6 -21q4 -8 -10.5 -29.5t-22.5 -45t10.5 -34t23.5 -11.5t26.5 -4t51.5 -6t41 -5t36 -7t35 -10q37 -19 51 -45.5t14 -87.5t-41 -98t-137 -37h-82q-172 0 -176 160q0 20 19 21h53q20 0 20 -17q4 -39 25.5 -57.5 t79.5 -18.5h39q59 0 82.5 12.5t23.5 49.5q0 45 -188 65q-73 11 -85 16q-30 13 -34.5 55.5t47.5 121.5l8 8q-8 8 -8 25v1304h-356q-31 0 -31 31v37q0 31 31 31h815z" glyph-name="Tcommaaccent" horiz-adv-x="1038" unicode="Ţ"/><glyph d="M545 -410h-82q-172 0 -176 160q0 20 18 21h53q20 0 21 -17q2 -39 24.5 -57.5t79.5 -18.5h39q59 0 82 12.5t23 49.5q0 45 -187 65q-72 11 -84 16q-29 13 -35 54t48 123q6 10 12 12q-168 47 -168 307v611h-111q-31 0 -30 30v33q0 33 30 33h111v119q0 31 31 31h39 q31 0 30 -31v-119h172q33 0 33 -31v-35q0 -31 -31 -30h-174v-606q0 -125 38 -177.5t138 -54.5q12 2 19.5 -7t7.5 -24l-2 -34q0 -29 -29 -29h-18q-25 -37 -33 -60.5t10.5 -34t23.5 -11.5t25.5 -4t57.5 -7t47 -6t38 -8t37 -15.5t29.5 -28t20.5 -88.5q0 -143 -178 -143z" glyph-name="tcommaaccent" horiz-adv-x="600" unicode="ţ"/><glyph d="M205 1843h45q23 0 61 -39l209 -207l211 207q39 39 62 39h45q16 0 22 -13t-6 -26l-264 -258q-41 -33 -58 -33h-24q-17 0 -35 16.5t-20 16.5l-265 258q-12 12 -6 25.5t23 13.5zM928 1434q31 0 30 -31v-37q0 -31 -30 -31h-355v-1304q0 -31 -30 -31h-43q-31 0 -31 31v1304 h-356q-31 0 -31 31v37q0 31 31 31h815z" glyph-name="Tcaron" horiz-adv-x="1038" unicode="Ť"/><glyph d="M727 1413q31 0 31 -31v-120q0 -203 -88 -308q-2 -4 -10.5 -5t-12.5 3l-18 15q-16 15 1 37t32.5 86.5t15.5 128.5l8 20h-65q-31 0 -31 31v112q0 31 31 31h106zM485 1024q33 0 33 -31v-35q0 -31 -31 -30h-174v-606q0 -125 38 -177.5t138 -54.5q12 2 19.5 -7t7.5 -24l-2 -34 q0 -29 -29 -29q-147 2 -209.5 80t-62.5 241v611h-111q-31 0 -30 30v33q0 33 30 33h111v119q0 31 31 31h39q31 0 30 -31v-119h172z" glyph-name="tcaron" horiz-adv-x="690" unicode="ť"/><glyph d="M928 1434q31 0 30 -31v-37q0 -31 -30 -31h-355v-436h238q31 0 31 -31v-39q0 -31 -31 -30h-238v-768q0 -31 -30 -31h-43q-31 0 -31 31v768h-322q-31 0 -30 30v39q0 31 30 31h322v436h-356q-31 0 -31 31v37q0 31 31 31h815z" glyph-name="Tbar" horiz-adv-x="1038" unicode="Ŧ"/><glyph d="M487 928h-174v-244h154q31 0 31 -31v-43q0 -31 -31 -30h-154v-258q0 -125 38 -177.5t138 -54.5q12 2 19.5 -7t7.5 -24l-2 -34q0 -29 -29 -29q-147 2 -209.5 80t-62.5 241v263h-111q-31 0 -30 30v43q0 31 30 31h111v244h-111q-31 0 -30 30v33q0 33 30 33h111v119 q0 31 31 31h39q31 0 30 -31v-119h172q33 0 33 -31v-35q0 -30 -31 -30z" glyph-name="tbar" horiz-adv-x="610" unicode="ŧ"/><glyph d="M967 1751q10 -18 -15 -39q-102 -72 -177 -74t-173 64q-96 55 -140 54t-147 -66q-16 -12 -32 16l-21 31q-12 20 12 39q100 72 176 72.5t175 -62.5q98 -55 141 -54t145 66q16 6 19.5 3t13.5 -19zM1063 1434q31 0 31 -29v-989q0 -207 -107.5 -316.5t-304.5 -109.5h-137 q-199 0 -305.5 109.5t-106.5 316.5v989q0 29 29 29h47q29 0 29 -29v-989q0 -328 307 -328h137q307 0 307 328v989q0 29 29 29h45z" glyph-name="Utilde" horiz-adv-x="1226" unicode="Ũ"/><glyph d="M866 1341q10 -18 -14 -38q-102 -72 -177 -74t-173 63q-96 55 -140.5 54.5t-146.5 -66.5q-16 -12 -33 16l-20 31q-12 20 12 39q100 72 176 73t174 -63q98 -55 141.5 -54t145.5 67q16 6 19.5 3t13.5 -20zM449 -8q-174 0 -250 92t-76 270v639q0 31 31 31h39q31 0 30 -31 v-633q0 -143 47 -206.5t179 -63.5h32q113 0 190 51.5t111 108.5v743q0 31 31 31h39q31 0 31 -31v-962q0 -31 -31 -31h-39q-31 0 -31 31v129q-117 -168 -317 -168h-16z" glyph-name="utilde" horiz-adv-x="1005" unicode="ũ"/><glyph d="M283 1741q-31 0 -31 31v40q0 31 31 31h663q31 0 31 -31v-40q0 -31 -31 -31h-663zM1063 1434q31 0 31 -29v-989q0 -207 -107.5 -316.5t-304.5 -109.5h-137q-199 0 -305.5 109.5t-106.5 316.5v989q0 29 29 29h47q29 0 29 -29v-989q0 -328 307 -328h137q307 0 307 328v989 q0 29 29 29h45z" glyph-name="Umacron" horiz-adv-x="1226" unicode="Ū"/><glyph d="M182 1331q-31 0 -30 31v41q0 31 30 31h664q31 0 31 -31v-41q0 -31 -31 -31h-664zM449 -8q-174 0 -250 92t-76 270v639q0 31 31 31h39q31 0 30 -31v-633q0 -143 47 -206.5t179 -63.5h32q113 0 190 51.5t111 108.5v743q0 31 31 31h39q31 0 31 -31v-962q0 -31 -31 -31h-39 q-31 0 -31 31v129q-117 -168 -317 -168h-16z" glyph-name="umacron" horiz-adv-x="1005" unicode="ū"/><glyph d="M903 1843q31 0 31 -31q-14 -276 -283 -276h-73q-266 0 -285 276q0 31 31 31h36q25 0 31 -31q6 -96 47 -141t135 -45h80q94 0 135 45t50 141q2 31 30 31h35zM1063 1434q31 0 31 -29v-989q0 -207 -107.5 -316.5t-304.5 -109.5h-137q-199 0 -305.5 109.5t-106.5 316.5v989 q0 29 29 29h47q29 0 29 -29v-989q0 -328 307 -328h137q307 0 307 328v989q0 29 29 29h45z" glyph-name="Ubreve" horiz-adv-x="1226" unicode="Ŭ"/><glyph d="M803 1434q31 0 31 -31q-14 -276 -283 -277h-74q-266 0 -284 277q0 31 30 31h37q25 0 31 -31q6 -96 47 -141t135 -45h80q94 0 135 45t49 141q4 31 31 31h35zM449 -8q-174 0 -250 92t-76 270v639q0 31 31 31h39q31 0 30 -31v-633q0 -143 47 -206.5t179 -63.5h32 q113 0 190 51.5t111 108.5v743q0 31 31 31h39q31 0 31 -31v-962q0 -31 -31 -31h-39q-31 0 -31 31v129q-117 -168 -317 -168h-16z" glyph-name="ubreve" horiz-adv-x="1005" unicode="ŭ"/><glyph d="M627 1876q74 0 123 -49t49 -123v-23q0 -72 -49.5 -121t-122.5 -49h-27q-76 0 -124 49.5t-48 120.5v23q0 74 49 123t123 49h27zM717 1702q0 94 -94 94h-19q-94 0 -94 -94v-16q0 -94 94 -95h19q94 0 94 95v16zM1063 1434q31 0 31 -29v-989q0 -207 -107.5 -316.5 t-304.5 -109.5h-137q-199 0 -305.5 109.5t-106.5 316.5v989q0 29 29 29h47q29 0 29 -29v-989q0 -328 307 -328h137q307 0 307 328v989q0 29 29 29h45z" glyph-name="Uring" horiz-adv-x="1226" unicode="Ů"/><glyph d="M526 1466q74 0 123 -49t49 -123v-22q0 -72 -48 -121t-124 -49h-26q-74 0 -123 49t-49 121v22q0 74 49 123t123 49h26zM616 1292q0 94 -94 94h-18q-94 0 -94 -94v-16q0 -94 94 -94h18q94 0 94 94v16zM449 -8q-174 0 -250 92t-76 270v639q0 31 31 31h39q31 0 30 -31v-633 q0 -143 47 -206.5t179 -63.5h32q113 0 190 51.5t111 108.5v743q0 31 31 31h39q31 0 31 -31v-962q0 -31 -31 -31h-39q-31 0 -31 31v129q-117 -168 -317 -168h-16z" glyph-name="uring" horiz-adv-x="1005" unicode="ů"/><glyph d="M645 1843h78q18 0 25.5 -10t-5.5 -27l-186 -235q-6 -5 -16 -21t-27 -16h-43q-16 0 -23.5 10t3.5 27l151 235q20 37 43 37zM891 1843h78q18 0 25 -10t-5 -27l-186 -235q-6 -5 -17 -21t-26 -16h-43q-16 0 -23.5 10t2.5 27l152 235q20 37 43 37zM1063 1434q31 0 31 -29v-989 q0 -207 -107.5 -316.5t-304.5 -109.5h-137q-199 0 -305.5 109.5t-106.5 316.5v989q0 29 29 29h47q29 0 29 -29v-989q0 -328 307 -328h137q307 0 307 328v989q0 29 29 29h45z" glyph-name="Uhungarumlaut" horiz-adv-x="1226" unicode="Ű"/><glyph d="M545 1434h78q18 0 25 -10.5t-5 -26.5l-186 -236q-6 -5 -17 -21t-26 -16h-43q-16 0 -23.5 10.5t2.5 26.5l152 236q23 37 43 37zM791 1434h77q18 0 25.5 -10.5t-4.5 -26.5l-187 -236q-6 -5 -16 -21t-27 -16h-43q-16 0 -23 10.5t3 26.5l152 236q23 37 43 37zM449 -8 q-174 0 -250 92t-76 270v639q0 31 31 31h39q31 0 30 -31v-633q0 -143 47 -206.5t179 -63.5h32q113 0 190 51.5t111 108.5v743q0 31 31 31h39q31 0 31 -31v-962q0 -31 -31 -31h-39q-31 0 -31 31v129q-117 -168 -317 -168h-16z" glyph-name="uhungarumlaut" horiz-adv-x="1005" unicode="ű"/><glyph d="M1063 1434q31 0 31 -29v-989q0 -193 -93.5 -301.5t-267.5 -122.5q10 -70 -15.5 -100.5t-92.5 -36.5l-164 -21q-15 -4 -23 -7q-20 -8 -20 -53.5t17.5 -58t78.5 -12.5h188q20 0 21 -20v-48q0 -20 -21 -20h-202q-98 0 -137 35t-39 100.5t8 93t33.5 43t48 20.5t105.5 17 t104 29q14 14 16 37h-94q-199 0 -305.5 109.5t-106.5 316.5v989q0 29 29 29h47q29 0 29 -29v-989q0 -328 307 -328h137q307 0 307 328v989q0 29 29 29h45z" glyph-name="Uogonek" horiz-adv-x="1226" unicode="Ų"/><glyph d="M561 -237.5q0 -34.5 17.5 -47t78.5 -12.5h191q20 0 20 -20v-48q0 -20 -20 -20h-205q-98 0 -137 35t-39 100.5t8 93t34 43t48.5 20.5t76.5 12t70.5 10t41 14.5t30.5 31t6 52.5v133q-117 -168 -317 -168h-16q-174 0 -250 92t-76 270v639q0 31 31 31h39q31 0 30 -31v-633 q0 -143 47 -206.5t179 -63.5h32q113 0 190 51.5t111 108.5v743q0 31 31 31h39q31 0 31 -31v-968q0 -82 -22.5 -122t-92.5 -48l-164 -21q-16 -4 -23.5 -7t-13.5 -16.5t-6 -48z" glyph-name="uogonek" horiz-adv-x="1005" unicode="ų"/><glyph d="M909 1896h25q16 0 57 -32l264 -258q12 -12 6 -25.5t-22 -13.5h-45q-23 0 -61 39l-211 206l-209 -206q-39 -39 -62 -39h-45q-16 0 -22 13.5t6 25.5l264 258q4 4 13.5 11t16.5 14t25 7zM1745 1434q37 0 27 -31l-347 -1372q-8 -31 -39 -31h-49q-31 0 -39 31l-374 1243 l-377 -1243q-8 -31 -39 -31h-47q-31 0 -39 31l-348 1372q-6 31 24 31h47q31 0 37 -31l303 -1247l371 1247q8 31 39 31h55q29 0 39 -31l373 -1247l301 1247q6 31 35 31h47z" glyph-name="Wcircumflex" horiz-adv-x="1845" unicode="Ŵ"/><glyph d="M733 1434h25q16 0 57 -33l264 -258q12 -12 6 -25.5t-22 -13.5h-45q-23 0 -62 39l-211 207l-208 -207q-39 -39 -62 -39h-45q-16 0 -22 13.5t6 25.5l264 258q4 4 13 11q9 6 17 14q9 8 25 8zM1382 1024q35 0 25 -35l-279 -952q-10 -37 -45 -37h-45q-35 0 -45 37 q-18 61 -96 309t-152 528q-80 -300 -154.5 -538t-92.5 -299q-10 -37 -45 -37h-45q-14 0 -27.5 10t-15.5 27l-281 952q-10 35 25 35h43q27 0 36 -35q27 -96 98 -363t146 -503q121 377 256 866q10 35 37 35h41q27 0 37 -35q117 -422 256 -866q75 236 146 503t98 363 q10 35 36 35h43z" glyph-name="wcircumflex" horiz-adv-x="1490" unicode="ŵ"/><glyph d="M553 1843h25q16 0 57 -33l264 -258q12 -12 6 -25.5t-22 -13.5h-45q-23 0 -62 39l-211 207l-209 -207q-39 -39 -61 -39h-45q-16 0 -22.5 13.5t5.5 25.5l265 258q4 4 13 11.5t16 14.5t26 7zM1047 1434q39 0 20 -31l-449 -772v-600q0 -31 -30 -31h-43q-31 0 -31 31v600 l-446 772q-18 31 20 31h59q23 0 41 -31l379 -668l379 668q18 31 41 31h60z" glyph-name="Ycircumflex" horiz-adv-x="1134" unicode="Ŷ"/><glyph d="M166 1104q-16 0 -22.5 13t6.5 26l264 258q4 4 13 11q9 6 17 14t25 8h25q16 0 57 -33l264 -258q12 -12 6 -25.5t-22 -13.5h-45q-23 0 -62 39l-211 207l-209 -207q-39 -39 -61 -39h-45zM889 1024q35 0 20 -37l-536 -1362q-14 -35 -43 -35h-45q-35 0 -21 37l164 416 l-373 944q-14 37 19 37h47q27 0 41 -35l319 -809l320 809q14 35 43 35h45z" glyph-name="ycircumflex" horiz-adv-x="964" unicode="ŷ"/><glyph d="M233 1812q0 31 31 31h33q31 0 31 -31v-45q0 -31 -31 -30h-33q-31 0 -31 30v45zM807 1812q0 31 31 31h30q31 0 31 -31v-45q0 -31 -31 -30h-30q-31 0 -31 30v45zM1047 1434q39 0 20 -31l-449 -772v-600q0 -31 -30 -31h-43q-31 0 -31 31v600l-446 772q-18 31 20 31h59 q23 0 41 -31l379 -668l379 668q18 31 41 31h60z" glyph-name="Ydieresis" horiz-adv-x="1134" unicode="Ÿ"/><glyph d="M672 1843h78q18 0 25 -10t-5 -27l-186 -235q-6 -5 -17 -21t-26 -16h-43q-16 0 -23.5 10t2.5 27l152 235q23 37 43 37zM952 1341q0 -6 -6 -16l-731 -1223h707q31 0 30 -30v-41q0 -31 -30 -31h-799q-31 0 -31 31v63q0 6 6 15l731 1222h-702q-31 0 -31 31v41q0 31 31 31h795 q31 0 30 -31v-62z" glyph-name="Zacute" horiz-adv-x="1044" unicode="Ź"/><glyph d="M608 1434h78q18 0 25.5 -10.5t-4.5 -26.5l-187 -236q-6 -5 -16 -21t-27 -16h-43q-16 0 -23.5 10.5t3.5 26.5l151 236q20 37 43 37zM813 934q0 -10 -10 -25l-606 -813h583q33 0 33 -30v-35q0 -31 -31 -31h-669q-31 0 -31 31v51q0 16 10 29l608 817h-557q-31 0 -30 30v33 q0 33 30 33h637q33 0 33 -31v-59z" glyph-name="zacute" horiz-adv-x="894" unicode="ź"/><glyph d="M477 1812q0 31 31 31h33q31 0 30 -31v-45q0 -31 -30 -30h-33q-31 0 -31 30v45zM952 1341q0 -6 -6 -16l-731 -1223h707q31 0 30 -30v-41q0 -31 -30 -31h-799q-31 0 -31 31v63q0 6 6 15l731 1222h-702q-31 0 -31 31v41q0 31 31 31h795q31 0 30 -31v-62z" glyph-name="Zdotaccent" horiz-adv-x="1044" unicode="Ż"/><glyph d="M414 1403q0 31 30 31h33q31 0 31 -31v-45q0 -31 -31 -31h-33q-31 0 -30 31v45zM813 934q0 -10 -10 -25l-606 -813h583q33 0 33 -30v-35q0 -31 -31 -31h-669q-31 0 -31 31v51q0 16 10 29l608 817h-557q-31 0 -30 30v33q0 33 30 33h637q33 0 33 -31v-59z" glyph-name="zdotaccent" horiz-adv-x="894" unicode="ż"/><glyph d="M207 1843h45q23 0 61 -39l209 -207l211 207q39 39 62 39h45q16 0 22 -13t-6 -26l-264 -258q-41 -33 -57 -33h-25q-17 0 -35 16.5t-20 16.5l-265 258q-12 12 -6 25.5t23 13.5zM952 1341q0 -6 -6 -16l-731 -1223h707q31 0 30 -30v-41q0 -31 -30 -31h-799q-31 0 -31 31v63 q0 6 6 15l731 1222h-702q-31 0 -31 31v41q0 31 31 31h795q31 0 30 -31v-62z" glyph-name="Zcaron" horiz-adv-x="1044" unicode="Ž"/><glyph d="M143 1434h45q23 0 62 -39l209 -207l211 207q39 39 61 39h45q16 0 22.5 -13.5t-5.5 -25.5l-265 -258q-41 -33 -57 -33h-25q-17 0 -35 16.5t-20 16.5l-264 258q-12 12 -6 25.5t22 13.5zM813 934q0 -10 -10 -25l-606 -813h583q33 0 33 -30v-35q0 -31 -31 -31h-669 q-31 0 -31 31v51q0 16 10 29l608 817h-557q-31 0 -30 30v33q0 33 30 33h637q33 0 33 -31v-59z" glyph-name="zcaron" horiz-adv-x="894" unicode="ž"/><glyph d="M666 1487q31 0 30 -31v-43q0 -31 -30 -31h-19q-102 0 -156.5 -72.5t-54.5 -197.5v-1137q0 -174 -91 -279.5t-243 -105.5q-31 0 -30 31v43q0 31 30 31h19q102 0 156.5 72.5t54.5 197.5v893h-105q-31 0 -30 31v43q0 31 30 31h105v139q0 174 91 279.5t243 105.5z" glyph-name="florin" horiz-adv-x="727" unicode="ƒ"/><glyph d="M258 1843h45q23 0 62 -39l208 -207l211 207q39 39 62 39h45q16 0 22.5 -13t-6.5 -26l-264 -258q-41 -33 -57 -33h-25q-16 0 -34.5 16.5t-20.5 16.5l-264 258q-12 12 -6 25.5t22 13.5zM1055 0h-51q-29 0 -37 33l-113 354h-563l-113 -354q-8 -33 -37 -33h-51q-37 0 -24 33 l442 1368q10 33 39 33h51q29 0 39 -33l442 -1368q12 -33 -24 -33zM322 481h501l-252 789z" glyph-name="uni01CD" horiz-adv-x="1144" unicode="Ǎ"/><glyph d="M190 1434h46q23 0 61 -39l209 -207l211 207q39 39 61 39h45q16 0 22.5 -13.5t-5.5 -25.5l-265 -258q-41 -33 -57 -33h-24q-18 0 -36 16.5t-20 16.5l-264 258q-12 12 -6 25.5t22 13.5zM881 0h-66q-33 0 -33 49v123q-109 -182 -309 -182h-94q-141 0 -219 77.5t-78 227 t78 222.5t215 73h407v63q0 166 -50 224.5t-200 58.5h-36q-143 0 -252 -55q-33 -18 -47 6l-21 37q-16 25 12 41q106 68 308 67h36q184 0 267.5 -90t83.5 -287v-606q0 -15 4 -32t-6 -17zM465 88q121 0 203 61.5t114 165.5v183h-403q-100 0 -148.5 -46t-48.5 -157t49.5 -159 t147.5 -48h86z" glyph-name="uni01CE" horiz-adv-x="1011" unicode="ǎ"/><glyph d="M-131 1843h45q23 0 61 -39l209 -207l211 207q39 39 62 39h45q16 0 22 -13t-6 -26l-266 -258q-37 -33 -55 -33h-25q-17 0 -35 16.5t-20 16.5l-264 258q-12 12 -6 25.5t22 13.5zM133 1403q0 31 31 31h43q31 0 31 -31v-1372q0 -31 -31 -31h-43q-31 0 -31 31v1372z" glyph-name="uni01CF" horiz-adv-x="370" unicode="Ǐ"/><glyph d="M-102 1434h45q23 0 61 -39l209 -207l211 207q39 39 61 39h45q16 0 22.5 -13.5t-5.5 -25.5l-266 -258q-37 -33 -56 -33h-24q-18 0 -36 16.5t-20 16.5l-264 258q-12 12 -6 25.5t23 13.5zM164 993q0 31 31 31h38q31 0 31 -31v-962q0 -31 -31 -31h-38q-31 0 -31 31v962z" glyph-name="uni01D0" horiz-adv-x="428" unicode="ǐ"/><glyph d="M276 1843h46q23 0 61 -39l209 -207l211 207q39 39 61 39h45q16 0 22.5 -13t-5.5 -26l-264 -258q-41 -33 -58 -33h-24q-17 0 -35.5 16.5t-20.5 16.5l-264 258q-12 12 -6 25.5t22 13.5zM662 1444q197 0 304 -110.5t107 -315.5v-602q0 -205 -107.5 -315.5t-303.5 -110.5 h-138q-197 0 -304 110.5t-107 315.5v602q0 205 107.5 315.5t303.5 110.5h138zM969 416v602q0 172 -73 250t-234 78h-138q-162 0 -234.5 -78t-72.5 -250v-602q0 -172 72.5 -250t234.5 -78h138q162 0 234.5 78t72.5 250z" glyph-name="uni01D1" unicode="Ǒ"/><glyph d="M186 1434h45q23 0 62 -39l209 -207l211 207q39 39 61 39h45q16 0 22.5 -13.5t-5.5 -25.5l-265 -258q-41 -33 -57 -33h-25q-17 0 -35 16.5t-20 16.5l-264 258q-12 12 -6 25.5t22 13.5zM545 1032q164 0 265 -100.5t101 -272.5v-292q0 -170 -101 -273.5t-265 -103.5h-88 q-162 0 -263.5 103.5t-101.5 273.5v292q0 172 100.5 272.5t264.5 100.5h88zM809 358v295q0 283 -264 283h-88q-264 0 -264 -283v-295q0 -131 68.5 -200.5t195.5 -69.5h88q129 0 196.5 69.5t67.5 200.5z" glyph-name="uni01D2" horiz-adv-x="1003" unicode="ǒ"/><glyph d="M199 1434h45q23 0 61 -39l209 -207l211 207q39 39 61 39h45q16 0 22.5 -13.5t-5.5 -25.5l-264 -258q-41 -33 -58 -33h-24q-19 0 -36 16.5t-20 16.5l-264 258q-12 12 -6 25.5t23 13.5zM449 -8q-174 0 -250 92t-76 270v639q0 31 31 31h39q31 0 30 -31v-633 q0 -143 47 -206.5t179 -63.5h32q113 0 190 51.5t111 108.5v743q0 31 31 31h39q31 0 31 -31v-962q0 -31 -31 -31h-39q-31 0 -31 31v129q-117 -168 -317 -168h-16z" glyph-name="uni01D4" horiz-adv-x="1005" unicode="ǔ"/><glyph d="M270 1843h45q23 0 62 -39l209 -207l211 207q39 39 61 39h45q16 0 22.5 -13t-5.5 -26l-265 -258q-41 -33 -57 -33h-25q-16 0 -34.5 16.5t-20.5 16.5l-264 258q-12 12 -6 25.5t22 13.5zM1034 762q29 0 29 -31v-315q0 -205 -107.5 -315.5t-304.5 -110.5h-127 q-197 0 -304 110.5t-107 315.5v602q0 205 107.5 315.5t303.5 110.5h127q190 0 297 -103.5t115 -300.5q0 -29 -29 -28h-45q-31 0 -31 28q-6 160 -78.5 233t-228.5 73h-127q-162 0 -234.5 -78t-72.5 -250v-602q0 -172 72.5 -250t234.5 -78h127q164 0 235.5 78t71.5 250v250 h-231q-29 0 -29 28v37q0 31 29 31h307z" glyph-name="Gcaron" horiz-adv-x="1165" unicode="Ǧ"/><glyph d="M201 1434h45q23 0 61 -39l209 -207l211 207q39 39 61 39h46q16 0 22 -13.5t-6 -25.5l-264 -258q-41 -33 -58 -33h-24q-19 0 -36 16.5t-19 16.5l-265 258q-12 12 -6 25.5t23 13.5zM877 1024q31 0 30 -31v-1052q0 -350 -424 -351q-106 0 -182 19q-18 2 -18 18v62 q0 20 18 16q76 -18 211 -18t215 52t80 198v219q-70 -166 -279 -166h-73q-160 0 -261.5 103.5t-101.5 273.5v292q0 172 100.5 272.5t262.5 100.5h73q213 0 279 -153v114q0 31 31 31h39zM543 88q127 0 195.5 69.5t68.5 200.5v295q0 283 -264 283h-86q-264 0 -264 -283v-295 q0 -131 68.5 -200.5t195.5 -69.5h86z" glyph-name="gcaron" horiz-adv-x="1030" unicode="ǧ"/><glyph d="M1044 410q0 -205 -106.5 -312.5t-304.5 -107.5h-119q-190 0 -296.5 102.5t-115.5 294.5q0 29 29 29h47q29 0 29 -29q6 -154 79.5 -226.5t227.5 -72.5h119q162 0 234.5 76t72.5 246q0 108 -51 158q-29 28 -51 46q-40 33 -232 78l-86 21q-254 56 -326.5 141.5t-72.5 224.5 q0 365 411 365h78q184 0 286.5 -100.5t113.5 -290.5q-4 -29 -31 -29h-45q-33 0 -29 29q-6 154 -74.5 223.5t-220.5 69.5h-78q-166 0 -236.5 -56.5t-70.5 -210.5q0 -78 15.5 -108.5t23.5 -47t30.5 -30.5t34 -22.5t43 -17.5t63.5 -19.5t83 -18.5l86 -20q260 -60 350 -151.5 t90 -233.5zM625 -174q31 0 30 -31v-121q0 -203 -88 -307q-2 -4 -10 -5t-12 3l-19 14q-16 14 0 36t32.5 87.5t16.5 128.5l9 21h-66q-31 0 -31 31v112q0 31 31 31h107z" glyph-name="Scommaaccent" horiz-adv-x="1146" unicode="Ș"/><glyph d="M520 -10h-84q-139 0 -228 66.5t-116 187.5q-6 31 31 30h47q23 0 29 -28q25 -82 80 -120t157 -38h82q250 0 250 197q0 79 -48 121t-148 55q-30 4 -91 12q-176 20 -271 86t-95 200t90 202.5t241 68.5h60q147 0 234 -68.5t94 -203.5q0 -33 -29 -33h-43q-33 0 -33 33 q-12 180 -227 180h-51q-236 0 -236 -174q0 -96 67.5 -140.5t171 -56.5t151.5 -21q133 -25 189 -76q74 -67 74 -197.5t-99 -206.5t-249 -76zM530 -174q31 0 31 -31v-121q0 -203 -88 -307q-2 -4 -10 -5t-12 3l-19 14q-16 14 0 36t32.5 87.5t16.5 128.5l8 21h-65q-31 0 -31 31 v112q0 31 31 31h106z" glyph-name="scommaaccent" horiz-adv-x="950" unicode="ș"/><glyph d="M928 1434q31 0 30 -31v-37q0 -31 -30 -31h-355v-1304q0 -31 -30 -31h-43q-31 0 -31 31v1304h-356q-31 0 -31 31v37q0 31 31 31h815zM569 -174q31 0 31 -31v-121q0 -203 -88 -307q-2 -4 -10 -5t-13 3l-18 14q-16 14 0 36t32.5 87.5t16.5 128.5l8 21h-65q-31 0 -31 31v112 q0 31 31 31h106z" glyph-name="uni021A" horiz-adv-x="1038" unicode="Ț"/><glyph d="M487 928h-174v-606q0 -125 38 -177.5t138 -54.5q12 2 19.5 -7t7.5 -24l-2 -34q0 -29 -29 -29q-147 2 -209.5 80t-62.5 241v611h-111q-31 0 -30 30v33q0 33 30 33h111v119q0 31 31 31h39q31 0 30 -31v-119h172q33 0 33 -31v-35q0 -30 -31 -30zM391 -174q31 0 31 -31v-121 q0 -203 -88 -307q-2 -4 -10.5 -5t-12.5 3l-18 14q-16 14 0 36t32.5 87.5t16.5 128.5l8 21h-65q-31 0 -31 31v112q0 31 31 31h106z" glyph-name="uni021B" horiz-adv-x="600" unicode="ț"/><glyph d="M924 98q31 0 30 -30v-37q0 -31 -30 -31h-357l-2 -2q-25 -39 -33 -62.5t10.5 -34t23.5 -11.5t26.5 -4t51.5 -6t41 -5t35 -7q26 -5 36 -10q37 -18 51 -45t14 -88t-41 -98t-137 -37h-82q-172 0 -176 160q0 20 18 21h54q20 0 20 -17q4 -39 25.5 -57.5t79.5 -18.5h39 q59 0 82.5 12.5t23.5 49.5q0 45 -188 65q-73 11 -85 16q-30 13 -34.5 55.5t47.5 121.5l2 2h-305q-31 0 -31 31v1372q0 31 31 31h749q31 0 31 -31v-37q0 -31 -31 -31h-675v-590h520q31 0 30 -30v-37q0 -31 -30 -31h-520v-549h686z" glyph-name="uni0228" horiz-adv-x="1036" unicode="Ȩ"/><glyph d="M528 1032q139 0 248 -103.5t109 -266.5v-130q0 -29 -18.5 -46t-49.5 -17h-620v-121q0 -125 68.5 -192.5t195.5 -67.5h67q63 0 109.5 18.5t67 38t43 47t26.5 31.5q20 23 43 6l27 -18q25 -18 6 -43q-49 -59 -78 -88t-92.5 -58.5t-142.5 -31.5q-28 -49 -26.5 -61.5 t2.5 -17.5t6 -9t9 -6q19 -10 41.5 -11.5t52 -4.5t41 -5t36 -7t34.5 -10q37 -19 51.5 -46.5t14.5 -87.5t-41 -97t-137 -37h-82q-172 0 -177 160q0 20 19 21h53q20 0 21 -17q4 -39 25.5 -57.5t78.5 -18.5h39q59 0 83 12.5t24 49.5q0 45 -189 65q-41 6 -62 8.5t-39 15.5t-17 55 t42 106q-156 8 -252 107.5t-96 256.5v305q0 172 102.5 272.5t266.5 100.5h67zM780 561v92q0 137 -69.5 210t-182.5 73h-67q-264 0 -264 -281v-94h583z" glyph-name="uni0229" horiz-adv-x="976" unicode="ȩ"/><glyph d="M164 -106v1099q0 31 31 31h30q31 0 31 -31v-1093q0 -82 -60.5 -162t-152.5 -115q-29 -10 -39 21l-12 37q-8 29 18 36q57 20 105.5 69.5t48.5 107.5z" glyph-name="uni0237" horiz-adv-x="419" unicode="ȷ"/><glyph d="M430 1434h25q20 0 57 -33l264 -258q12 -12 6 -25.5t-22 -13.5h-45q-23 0 -62 39l-211 207l-209 -207q-39 -39 -61 -39h-45q-16 0 -22 13.5t6 25.5l264 258q4 4 13 11t17.5 14.5t24.5 7.5z" glyph-name="circumflex" horiz-adv-x="886" unicode="ˆ"/><glyph d="M127 1434h45q23 0 61 -39l209 -207l211 207q39 39 62 39h45q16 0 22 -13.5t-6 -25.5l-264 -258q-41 -33 -57 -33h-25q-19 0 -36 16.5t-19 16.5l-264 258q-12 12 -6 25.5t22 13.5z" glyph-name="caron" horiz-adv-x="886" unicode="ˇ"/><glyph d="M713 1434q31 0 30 -31q-14 -276 -282 -277h-74q-266 0 -285 277q0 31 31 31h37q25 0 31 -31q6 -96 47 -141t135 -45h80q94 0 135 45t49 141q4 31 31 31h35z" glyph-name="breve" horiz-adv-x="845" unicode="˘"/><glyph d="M102 1403q0 31 31 31h33q31 0 31 -31v-45q0 -31 -31 -31h-33q-31 0 -31 31v45z" glyph-name="dotaccent" horiz-adv-x="299" unicode="˙"/><glyph d="M301 1466q74 0 123 -49t49 -123v-22q0 -72 -48 -121t-124 -49h-27q-74 0 -123 49t-49 121v22q0 74 49.5 123t122.5 49h27zM391 1292q0 94 -94 94h-18q-94 0 -95 -94v-16q0 -94 95 -94h18q94 0 94 94v16z" glyph-name="ring" horiz-adv-x="575" unicode="˚"/><glyph d="M504 -393q0 -20 -21 -21h-204q-98 0 -137.5 35t-39.5 101t8.5 93t34 42.5t48 20.5t104.5 16q81 11 105 31t12 73q-4 16 26 16h39q23 0 27 -16q20 -90 -3.5 -127t-99.5 -45q-33 -4 -64.5 -8t-67.5 -8.5t-55 -12t-19 -52.5q0 -46 17 -58.5t79 -12.5h190q20 0 21 -20v-47z " glyph-name="ogonek" horiz-adv-x="618" unicode="˛"/><glyph d="M813 1341q10 -18 -14 -38q-102 -72 -177 -74t-173 63q-96 55 -140.5 54.5t-146.5 -66.5q-16 -12 -33 16l-20 31q-12 20 12 39q100 72 176 73t174 -63q98 -55 141 -54t146 67q16 6 19 3t14 -20z" glyph-name="tilde" horiz-adv-x="919" unicode="˜"/><glyph d="M303 1434h78q18 0 25.5 -10.5t-5.5 -26.5l-186 -236q-6 -6 -16 -21.5t-27 -15.5h-43q-16 0 -23.5 10.5t3.5 26.5l151 236q23 37 43 37zM549 1434h78q18 0 25 -10.5t-5 -26.5l-186 -236q-6 -6 -13.5 -16t-12.5 -15.5t-17 -5.5h-43q-16 0 -23.5 10.5t2.5 26.5l152 236 q23 37 43 37z" glyph-name="hungarumlaut" horiz-adv-x="757" unicode="˝"/><glyph d="M-135 -174q31 0 31 -31v-121q0 -203 -89 -307q-2 -4 -10 -5t-12 3l-18 14q-17 14 -1 36t33 87.5t17 128.5l8 21h-66q-31 0 -30 31v112q0 31 30 31h107z" glyph-name="uni0326" horiz-adv-x="0" unicode="̦"/><glyph d="M1108 0h-989q-35 0 -23 33l455 1427q10 33 39 33h53q29 0 39 -33l451 -1427q12 -33 -25 -33zM227 104h774l-383 1219z" glyph-name="Delta" horiz-adv-x="1228" unicode="Δ"/><glyph d="M1077 471q0 -207 -149 -367h116q31 0 31 -30v-43q0 -31 -31 -31h-364q-31 0 -31 31v24q0 31 31 31h6q102 0 194.5 126t92.5 263v547q0 160 -94.5 272.5t-231.5 112.5h-94q-137 0 -231.5 -112.5t-94.5 -272.5v-547q0 -137 93.5 -263t193.5 -126h6q31 0 31 -31v-24 q0 -31 -31 -31h-364q-31 0 -31 31v43q0 31 31 30h116q-150 160 -149 367v551q0 203 127 346t303 143h94q176 0 303 -143t127 -346v-551z" glyph-name="Omega" horiz-adv-x="1200" unicode="Ω"/><glyph d="M852 1024q31 0 31 -31v-962q0 -31 -31 -31h-39q-31 0 -31 31v129q-117 -168 -317 -168h-16q-147 0 -228 69v-440q0 -31 -31 -31h-36q-31 0 -31 31v1372q0 31 31 31h39q31 0 30 -31v-633q0 -143 47 -206.5t179 -63.5h32q113 0 190 51.5t111 108.5v743q0 31 31 31h39z" glyph-name="mu" horiz-adv-x="1009" unicode="μ"/><glyph d="M993 963q31 0 31 -31v-45q0 -29 -31 -29h-49v-827q0 -31 -31 -31h-43q-31 0 -30 31v827h-555v-827q0 -31 -31 -31h-43q-31 0 -31 31v827h-47q-31 0 -31 31v43q0 31 29 31h862z" glyph-name="pi" horiz-adv-x="1126" unicode="π"/><glyph d="M205 1812q0 31 31 31h32q31 0 31 -31v-45q0 -31 -31 -30h-32q-31 0 -31 30v45zM778 1812q0 31 31 31h31q31 0 30 -31v-45q0 -31 -30 -30h-31q-31 0 -31 30v45zM913 1335h-675v-590h520q31 0 30 -30v-37q0 -31 -30 -31h-520v-549h686q31 0 30 -30v-37q0 -31 -30 -31h-760 q-31 0 -31 31v1372q0 31 31 31h749q31 0 31 -31v-37q0 -31 -31 -31z" glyph-name="afii10023" horiz-adv-x="1036" unicode="Ё"/><glyph d="M504 1534q-16 0 -23.5 10t2.5 27l152 235q20 37 43 37h78q18 0 25 -10t-5 -27l-186 -235q-6 -6 -16.5 -21.5t-26.5 -15.5h-43zM948 1434q31 0 31 -31v-35q0 -31 -31 -31h-710v-1306q0 -31 -31 -31h-43q-31 0 -31 31v1372q0 31 31 31h784z" glyph-name="afii10052" horiz-adv-x="1060" unicode="Ѓ"/><glyph d="M1034 436q29 0 29 -28q-6 -205 -112.5 -311.5t-299.5 -106.5h-127q-197 0 -304 110.5t-107 315.5v602q0 205 107.5 315.5t303.5 110.5h127q193 0 299.5 -106.5t112.5 -311.5q0 -29 -29 -29h-45q-31 0 -31 29q-6 170 -77.5 245t-229.5 75h-127q-162 0 -234.5 -78 t-72.5 -250v-223h399q31 0 31 -31v-41q0 -31 -31 -31h-399v-276q0 -172 72.5 -250t234.5 -78h127q158 0 229.5 75t77.5 245q0 29 31 28h45z" glyph-name="afii10053" horiz-adv-x="1165" unicode="Є"/><glyph d="M133 1403q0 31 31 31h43q31 0 31 -31v-1372q0 -31 -31 -31h-43q-31 0 -31 31v1372z" glyph-name="afii10055" horiz-adv-x="370" unicode="І"/><glyph d="M-147 1812q0 31 30 31h33q31 0 31 -31v-45q0 -31 -31 -30h-33q-31 0 -30 30v45zM426 1812q0 31 31 31h30q31 0 31 -31v-45q0 -31 -31 -30h-30q-31 0 -31 30v45zM133 1403q0 31 31 31h43q31 0 31 -31v-1372q0 -31 -31 -31h-43q-31 0 -31 31v1372z" glyph-name="afii10056" horiz-adv-x="370" unicode="Ї"/><glyph d="M390 86q147 0 241 99.5t94 258.5v959q0 31 31 31h43q31 0 30 -31v-957q0 -199 -124.5 -329.5t-314.5 -130.5t-310 108q-12 10 -2 23l45 55q8 10 24 0q96 -86 243 -86z" glyph-name="afii10057" horiz-adv-x="962" unicode="Ј"/><glyph d="M694 1843h78q18 0 25.5 -10t-4.5 -27l-187 -235q-6 -5 -16 -21t-27 -16h-43q-16 0 -23.5 10t3.5 27l151 235q20 37 43 37zM997 0h-45q-33 0 -55 29l-518 633l-141 -181v-450q0 -31 -31 -31h-43q-31 0 -31 31v1372q0 31 31 31h43q31 0 31 -31v-785l608 785q23 31 47 31h43 q16 0 23.5 -14.5t-5.5 -30.5l-505 -658l561 -682q12 -12 9 -30.5t-22 -18.5z" glyph-name="afii10061" horiz-adv-x="1091" unicode="Ќ"/><glyph d="M616 1595h-43q-15 0 -25.5 15.5t-17.5 21.5l-186 236q-12 16 -5 26.5t26 10.5h77q20 0 43 -37l152 -236q10 -16 3 -26.5t-24 -10.5zM164 1434h43q31 0 31 -31v-1307l639 1315q12 23 36 23h109q31 0 31 -31v-1372q0 -31 -31 -31h-43q-31 0 -31 31v1306l-639 -1314 q-10 -23 -37 -23h-108q-31 0 -31 31v1372q0 31 31 31z" glyph-name="uni040D" unicode="Ѝ"/><glyph d="M537 1536q-266 0 -285 276q0 31 31 31h36q25 0 31 -31q6 -96 47 -141t135 -45h80q94 0 135 45t50 141q2 31 30 31h35q31 0 31 -31q-14 -276 -283 -276h-73zM1034 1434q37 0 19 -37l-635 -1362q-14 -35 -45 -35h-47q-39 0 -21 37l230 493l-447 867q-18 37 18 37h50 q25 0 43 -35l387 -762l354 762q14 35 45 35h49z" glyph-name="afii10062" horiz-adv-x="1140" unicode="Ў"/><glyph d="M1055 0h-51q-29 0 -37 33l-113 354h-563l-113 -354q-8 -33 -37 -33h-51q-37 0 -24 33l442 1368q10 33 39 33h51q29 0 39 -33l442 -1368q12 -33 -24 -33zM322 481h501l-252 789z" glyph-name="afii10017" horiz-adv-x="1144" unicode="А"/><glyph d="M643 920q190 0 294.5 -105.5t104.5 -304.5v-100q0 -199 -104 -304.5t-295 -105.5h-479q-31 0 -31 31v1372q0 31 31 31h741q31 0 31 -31v-35q0 -31 -31 -31h-667v-417h405zM938 410v100q0 166 -70.5 238.5t-224.5 72.5h-405v-723h405q154 0 224.5 73t70.5 239z" glyph-name="afii10018" horiz-adv-x="1124" unicode="Б"/><glyph d="M1038 440v-69q0 -199 -101 -285t-296 -86h-477q-31 0 -31 31v1372q0 31 31 31h475q172 0 255 -88.5t83 -286t-125 -285.5q186 -78 186 -334zM872 1076q0 151 -48 205t-185 54h-401v-526h401q137 0 185 58t48 209zM934 371v69q0 166 -65.5 221.5t-227.5 55.5h-403v-619 h403q164 0 228.5 53.5t64.5 219.5z" glyph-name="afii10019" horiz-adv-x="1120" unicode="В"/><glyph d="M948 1434q31 0 31 -31v-35q0 -31 -31 -31h-710v-1306q0 -31 -31 -31h-43q-31 0 -31 31v1372q0 31 31 31h784z" glyph-name="afii10020" horiz-adv-x="1060" unicode="Г"/><glyph d="M1337 98q31 0 31 -30v-236q0 -31 -31 -31h-43q-31 0 -30 31v168h-1108v-168q0 -31 -31 -31h-43q-31 0 -31 31v236q0 31 31 30h137q43 0 102.5 128.5t59.5 514.5v662q0 31 31 31h778q31 0 31 -31v-1305h116zM1116 98v1239h-631v-645q1 -432 -110 -594h741z" glyph-name="afii10021" horiz-adv-x="1439" unicode="Д"/><glyph d="M913 1335h-675v-590h520q31 0 30 -30v-37q0 -31 -30 -31h-520v-549h686q31 0 30 -30v-37q0 -31 -30 -31h-760q-31 0 -31 31v1372q0 31 31 31h749q31 0 31 -31v-37q0 -31 -31 -31z" glyph-name="afii10022" horiz-adv-x="1036" unicode="Е"/><glyph d="M1714 0h-45q-33 0 -55 29l-516 633l-142 -181v-450q0 -31 -30 -31h-43q-31 0 -31 31v450l-141 181l-518 -633q-23 -29 -56 -29h-45q-18 0 -21 18.5t9 30.5l561 682l-506 658q-12 16 -6 30.5t25 14.5h43q23 0 45 -31l610 -785v785q0 31 31 31h43q31 0 30 -31v-785l609 785 q20 31 47 31h43q18 0 23 -14.5t-7 -30.5l-506 -658l561 -682q21 -21 10.5 -35t-22.5 -14z" glyph-name="afii10024" horiz-adv-x="1810" unicode="Ж"/><glyph d="M1042 401q0 -195 -107.5 -303t-303.5 -108h-127q-190 0 -297 106.5t-115 311.5q0 29 29 28h47q29 0 29 -28q6 -170 77.5 -246t229.5 -76h127q162 0 234.5 77t72.5 231q0 300 -348 315h-125q-31 0 -31 30v33q0 31 31 31h125q172 6 245.5 68.5t73.5 224.5q0 252 -307 252 h-74q-158 0 -229.5 -76t-77.5 -246q0 -29 -28 -29h-48q-29 0 -28 29q8 205 114.5 311.5t296.5 106.5h74q190 0 301 -99t111 -253t-54.5 -220.5t-185.5 -113.5q131 -43 199.5 -125t68.5 -232z" glyph-name="afii10025" horiz-adv-x="1134" unicode="З"/><glyph d="M164 1434h43q31 0 31 -31v-1307l639 1315q12 23 36 23h109q31 0 31 -31v-1372q0 -31 -31 -31h-43q-31 0 -31 31v1306l-639 -1314q-10 -23 -37 -23h-108q-31 0 -31 31v1372q0 31 31 31z" glyph-name="afii10026" unicode="И"/><glyph d="M883 1843q31 0 30 -31q-14 -276 -282 -276h-74q-266 0 -285 276q0 31 31 31h37q25 0 31 -31q6 -96 47 -141t135 -45h80q94 0 135 45t49 141q2 31 31 31h35zM164 1434h43q31 0 31 -31v-1307l639 1315q12 23 36 23h109q31 0 31 -31v-1372q0 -31 -31 -31h-43q-31 0 -31 31 v1306l-639 -1314q-10 -23 -37 -23h-108q-31 0 -31 31v1372q0 31 31 31z" glyph-name="afii10027" unicode="Й"/><glyph d="M997 0h-45q-33 0 -55 29l-518 633l-141 -181v-450q0 -31 -31 -31h-43q-31 0 -31 31v1372q0 31 31 31h43q31 0 31 -31v-785l608 785q23 31 47 31h43q16 0 23.5 -14.5t-5.5 -30.5l-505 -658l561 -682q12 -12 9 -30.5t-22 -18.5z" glyph-name="afii10028" horiz-adv-x="1091" unicode="К"/><glyph d="M1032 1434q31 0 31 -31v-1372q0 -31 -31 -31h-43q-31 0 -31 31v1306h-618v-1073q0 -139 -73.5 -207.5t-176.5 -64.5q-29 0 -29 33v53q0 27 33 26q141 4 142 150v1149q0 31 30 31h766z" glyph-name="afii10029" horiz-adv-x="1196" unicode="Л"/><glyph d="M1286 1434q31 0 31 -31v-1372q0 -31 -31 -31h-43q-31 0 -31 31v1308l-424 -1308q-10 -31 -38 -31h-50q-29 0 -38 31l-424 1308v-1308q0 -31 -31 -31h-43q-31 0 -31 31v1372q0 31 31 31h117q31 0 41 -31l403 -1247l405 1247q8 31 41 31h115z" glyph-name="afii10030" horiz-adv-x="1449" unicode="М"/><glyph d="M999 1434q31 0 31 -31v-1372q0 -31 -31 -31h-43q-31 0 -30 31v616h-688v-616q0 -31 -31 -31h-43q-31 0 -31 31v1372q0 31 31 31h43q31 0 31 -31v-658h688v658q0 31 30 31h43z" glyph-name="afii10031" horiz-adv-x="1163" unicode="Н"/><glyph d="M662 1444q197 0 304 -110.5t107 -315.5v-602q0 -205 -107.5 -315.5t-303.5 -110.5h-138q-197 0 -304 110.5t-107 315.5v602q0 205 107.5 315.5t303.5 110.5h138zM969 416v602q0 172 -73 250t-234 78h-138q-162 0 -234.5 -78t-72.5 -250v-602q0 -172 72.5 -250t234.5 -78 h138q162 0 234.5 78t72.5 250z" glyph-name="afii10032" unicode="О"/><glyph d="M991 1434q31 0 31 -31v-1372q0 -31 -31 -31h-43q-31 0 -30 31v1306h-680v-1306q0 -31 -31 -31h-43q-31 0 -31 31v1372q0 31 31 31h827z" glyph-name="afii10033" horiz-adv-x="1155" unicode="П"/><glyph d="M643 1434q190 0 294.5 -105.5t104.5 -304.5v-100q0 -199 -104 -304.5t-295 -105.5h-405v-483q0 -31 -31 -31h-43q-31 0 -31 31v1372q0 31 31 31h479zM938 924v100q0 166 -70.5 238.5t-224.5 72.5h-405v-723h405q154 0 224.5 73t70.5 239z" glyph-name="afii10034" horiz-adv-x="1114" unicode="Р"/><glyph d="M1034 436q29 0 29 -28q-6 -205 -112.5 -311.5t-299.5 -106.5h-127q-197 0 -304 110.5t-107 315.5v602q0 205 107.5 315.5t303.5 110.5h127q193 0 299.5 -106.5t112.5 -311.5q0 -29 -29 -29h-45q-31 0 -31 29q-6 170 -77.5 245t-229.5 75h-127q-162 0 -234.5 -78 t-72.5 -250v-602q0 -172 72.5 -250t234.5 -78h127q158 0 229.5 75t77.5 245q0 29 31 28h45z" glyph-name="afii10035" horiz-adv-x="1165" unicode="С"/><glyph d="M928 1434q31 0 30 -31v-37q0 -31 -30 -31h-355v-1304q0 -31 -30 -31h-43q-31 0 -31 31v1304h-356q-31 0 -31 31v37q0 31 31 31h815z" glyph-name="afii10036" horiz-adv-x="1038" unicode="Т"/><glyph d="M1034 1434q37 0 19 -37l-635 -1362q-14 -35 -45 -35h-47q-39 0 -21 37l230 493l-447 867q-18 37 18 37h50q25 0 43 -35l387 -762l354 762q14 35 45 35h49z" glyph-name="afii10037" horiz-adv-x="1140" unicode="У"/><glyph d="M1122 1343q172 0 287 -117.5t115 -324.5v-315q0 -207 -115 -325t-287 -118h-264v-112q0 -31 -31 -31h-43q-31 0 -30 31v112h-260q-172 0 -287 118t-115 325v315q0 207 115 324.5t287 117.5h260v113q0 31 30 31h43q31 0 31 -31v-113h264zM494 242h260v1005h-260 q-131 0 -214 -92t-83 -254v-315q0 -162 83 -253t214 -91zM1419 586v315q0 162 -83 254t-214 92h-264v-1005h264q131 0 214 91t83 253z" glyph-name="afii10038" horiz-adv-x="1615" unicode="Ф"/><glyph d="M969 0h-56q-25 0 -41 29l-333 589l-334 -589q-16 -29 -41 -29h-55q-37 0 -21 29l393 688l-393 688q-16 29 21 29h55q25 0 41 -29l334 -590l333 590q16 29 41 29h56q37 0 20 -29l-393 -688l393 -688q16 -29 -20 -29z" glyph-name="afii10039" horiz-adv-x="1077" unicode="Х"/><glyph d="M1165 98q31 0 31 -30v-279q0 -31 -31 -31h-43q-31 0 -30 31v211h-928q-31 0 -31 31v1372q0 31 31 31h43q31 0 31 -31v-1305h694v1305q0 31 31 31h43q31 0 30 -31v-1305h129z" glyph-name="afii10040" horiz-adv-x="1288" unicode="Ц"/><glyph d="M954 1434q31 0 31 -31v-1372q0 -31 -31 -31h-43q-31 0 -30 31v606q-113 -113 -267 -113h-141q-147 0 -259 113t-112 254v512q0 31 31 31h43q31 0 31 -31v-512q0 -104 75.5 -186t190.5 -82h137q92 0 180.5 62.5t90.5 123.5v594q0 31 30 31h43z" glyph-name="afii10041" horiz-adv-x="1118" unicode="Ч"/><glyph d="M1597 1434q31 0 31 -31v-1372q0 -31 -31 -31h-1433q-31 0 -31 31v1372q0 31 31 31h43q31 0 31 -31v-1305h591v1305q0 31 31 31h43q31 0 31 -31v-1305h590v1305q0 31 30 31h43z" glyph-name="afii10042" horiz-adv-x="1761" unicode="Ш"/><glyph d="M1759 98q31 0 31 -30v-279q0 -31 -31 -31h-43q-31 0 -30 31v211h-1522q-31 0 -31 31v1372q0 31 31 31h43q31 0 31 -31v-1305h591v1305q0 31 31 31h43q31 0 31 -31v-1305h590v1305q0 31 30 31h43q31 0 31 -31v-1305h131z" glyph-name="afii10043" horiz-adv-x="1882" unicode="Щ"/><glyph d="M958 920q190 0 295 -105.5t105 -304.5v-100q0 -199 -104.5 -304.5t-295.5 -105.5h-477q-31 0 -30 31v1304h-328q-31 0 -31 31v37q0 31 31 31h401q31 0 31 -31v-483h403zM1253 410v100q0 166 -69.5 238.5t-225.5 72.5h-403v-723h403q156 0 225.5 73t69.5 239z" glyph-name="afii10044" horiz-adv-x="1480" unicode="Ъ"/><glyph d="M643 920q190 0 294.5 -105.5t104.5 -304.5v-100q0 -199 -104 -304.5t-295 -105.5h-479q-31 0 -31 31v1372q0 31 31 31h43q31 0 31 -31v-483h405zM1321 1434q31 0 31 -31v-1372q0 -31 -31 -31h-43q-31 0 -31 31v1372q0 31 31 31h43zM938 410v100q0 166 -70.5 238.5 t-224.5 72.5h-405v-723h405q154 0 224.5 73t70.5 239z" glyph-name="afii10045" horiz-adv-x="1484" unicode="Ы"/><glyph d="M643 920q190 0 294.5 -105.5t104.5 -304.5v-100q0 -199 -104 -304.5t-295 -105.5h-479q-31 0 -31 31v1372q0 31 31 31h43q31 0 31 -31v-483h405zM938 410v100q0 166 -70.5 238.5t-224.5 72.5h-405v-723h405q154 0 224.5 73t70.5 239z" glyph-name="afii10046" horiz-adv-x="1114" unicode="Ь"/><glyph d="M641 1444q197 0 304.5 -110.5t107.5 -315.5v-602q0 -205 -107.5 -315.5t-304.5 -110.5h-127q-190 0 -296.5 106.5t-115.5 311.5q0 29 29 28h47q29 0 29 -28q6 -170 77.5 -245t229.5 -75h127q164 0 235.5 78t71.5 250v276h-399q-31 0 -31 31v41q0 31 31 31h399v223 q0 172 -71.5 250t-235.5 78h-127q-158 0 -229.5 -75t-77.5 -245q0 -29 -29 -29h-47q-29 0 -29 29q8 205 115 311.5t297 106.5h127z" glyph-name="afii10047" horiz-adv-x="1167" unicode="Э"/><glyph d="M1053 1444q197 0 304 -110.5t107 -315.5v-602q0 -205 -107.5 -315.5t-303.5 -110.5h-138q-197 0 -304 110.5t-107 315.5v266h-266v-651q0 -31 -31 -31h-43q-31 0 -31 31v1372q0 31 31 31h43q31 0 31 -31v-623h266v238q0 205 107.5 315.5t303.5 110.5h138zM1360 416v602 q0 172 -73 250t-234 78h-138q-162 0 -234.5 -78t-72.5 -250v-602q0 -172 73 -250t234 -78h138q162 0 234.5 78t72.5 250z" glyph-name="afii10048" horiz-adv-x="1576" unicode="Ю"/><glyph d="M993 1434q31 0 31 -31v-1372q0 -31 -31 -31h-43q-31 0 -30 31v483h-406q-55 0 -96 8l-228 -502q-8 -20 -32 -20h-52q-37 0 -20 35l236 514q-207 90 -207 375v100q0 199 104.5 304.5t294.5 105.5h479zM514 612h406v723h-406q-154 0 -224.5 -72.5t-70.5 -238.5v-100 q0 -166 70.5 -239t224.5 -73z" glyph-name="afii10049" horiz-adv-x="1157" unicode="Я"/><glyph d="M881 0h-66q-33 0 -33 49v123q-109 -182 -309 -182h-94q-141 0 -219 77.5t-78 227t78 222.5t215 73h407v63q0 166 -50 224.5t-200 58.5h-36q-143 0 -252 -55q-33 -18 -47 6l-21 37q-16 25 12 41q106 68 308 67h36q184 0 267.5 -90t83.5 -287v-606q0 -15 4 -32t-6 -17z M465 88q121 0 203 61.5t114 165.5v183h-403q-100 0 -148.5 -46t-48.5 -157t49.5 -159t147.5 -48h86z" glyph-name="afii10065" horiz-adv-x="1011" unicode="а"/><glyph d="M223 1083v-202q63 152 279 151h73q162 0 262.5 -100.5t100.5 -272.5v-292q0 -170 -101.5 -273.5t-261.5 -103.5h-73q-211 0 -279 166v-125q0 -31 -30 -31h-39q-31 0 -31 31v1077q0 165 13.5 194t28.5 56.5t39.5 41t73 32.5t181.5 10q23 0 67.5 -5t90.5 -7t112 45 q18 12 37 12h65q56 0 21 -41t-48 -51.5t-22.5 -18.5t-27 -13t-31.5 -11t-21 -6l-71 -5q-55 0 -59.5 -1t-60.5 4.5t-93 8.5t-68 -2t-52.5 -13.5t-35.5 -30t-26.5 -46t-12.5 -178.5zM223 358q0 -131 68.5 -200.5t195.5 -69.5h86q127 0 196 69.5t69 200.5v295q0 283 -265 283 h-86q-264 0 -264 -283v-295z" glyph-name="afii10066" horiz-adv-x="1030" unicode="б"/><glyph d="M877 291q0 -291 -293 -291h-420q-31 0 -31 31v962q0 31 31 31h409q129 0 204 -67.5t75 -204.5q0 -53 -4 -87t-30 -74.5t-75 -60.5q57 -20 89 -63t38.5 -82t6.5 -94zM233 928v-355h377q80 0 112 47.5t32 133.5q0 174 -179 174h-342zM586 96q94 0 143 39t49 147t-38 151.5 t-124 43.5h-383v-381h353z" glyph-name="afii10067" horiz-adv-x="976" unicode="в"/><glyph d="M750 1024q31 0 30 -31v-30q0 -31 -30 -31h-512v-901q0 -31 -31 -31h-39q-31 0 -31 31v962q0 31 31 31h582z" glyph-name="afii10068" horiz-adv-x="862" unicode="г"/><glyph d="M1188 96q31 0 31 -30v-234q0 -31 -27 -31h-45q-31 0 -31 31v168h-944v-168q0 -31 -31 -31h-39q-31 0 -30 31v234q0 31 30 30h56q44 0 102.5 116.5t58.5 528.5v252q0 31 31 31h690q31 0 31 -31v-897h117zM969 96v832h-549v-217q0 -461 -94 -615h643z" glyph-name="afii10069" horiz-adv-x="1290" unicode="д"/><glyph d="M528 1032q139 0 248 -103.5t109 -266.5v-130q0 -29 -18.5 -46t-49.5 -17h-620v-121q0 -125 68.5 -192.5t195.5 -67.5h67q63 0 110 18q46 18 66 38q22 20 44 48t26 31q20 23 43 6l27 -18q25 -18 6 -43q-49 -59 -80 -89t-95.5 -59.5t-146.5 -29.5h-67q-162 0 -265.5 101.5 t-103.5 262.5v305q0 172 102.5 272.5t266.5 100.5h67zM780 561v92q0 137 -69.5 210t-182.5 73h-67q-264 0 -264 -281v-94h583z" glyph-name="afii10070" horiz-adv-x="976" unicode="е"/><glyph d="M1350 0h-39q-33 0 -64 29l-465 420v-418q0 -31 -30 -31h-39q-31 0 -31 31v418l-465 -420q-31 -29 -63 -29h-39q-12 0 -23 15t10 36l504 457l-471 461q-20 20 -14 37.5t22 17.5h58q16 0 45 -25l436 -428v422q0 31 31 31h39q31 0 30 -31v-422l437 428q25 25 45 25h55 q18 0 23.5 -17.5t-15.5 -37.5l-469 -461l504 -457q20 -20 10 -35.5t-22 -15.5z" glyph-name="afii10072" horiz-adv-x="1464" unicode="ж"/><glyph d="M889 274q0 -139 -92 -212.5t-230 -73.5h-133q-125 0 -213 77.5t-88 190.5q0 23 23 23h59q23 0 23 -23q0 -76 48 -123t140 -47h147q215 0 215 184q0 94 -35.5 144.5t-131.5 54.5h-189q-23 0 -22 23v53q0 23 22 22h189q96 4 125.5 47.5t29.5 135.5t-52 140t-151 48h-147 q-92 0 -140 -52t-48 -134q0 -23 -23 -23h-59q-23 0 -23 23q0 115 88 198.5t213 83.5h133q133 0 222.5 -77.5t89.5 -208.5q0 -61 -11.5 -124.5t-111.5 -105.5q78 -33 105.5 -94.5t27.5 -149.5z" glyph-name="afii10073" horiz-adv-x="1021" unicode="з"/><glyph d="M164 1024h43q31 0 31 -31v-903l479 911q12 23 37 23h112q31 0 31 -31v-962q0 -31 -31 -31h-43q-31 0 -30 31v903l-478 -911q-12 -23 -36 -23h-115q-31 0 -31 31v962q0 31 31 31z" glyph-name="afii10074" horiz-adv-x="1030" unicode="и"/><glyph d="M805 1434q31 0 31 -31q-14 -276 -283 -277h-74q-266 0 -284 277q0 31 30 31h37q25 0 31 -31q6 -96 47 -141t135 -45h80q94 0 135 45t49 141q2 31 31 31h35zM164 1024h43q31 0 31 -31v-903l479 911q12 23 37 23h112q31 0 31 -31v-962q0 -31 -31 -31h-43q-31 0 -30 31v903 l-478 -911q-12 -23 -36 -23h-115q-31 0 -31 31v962q0 31 31 31z" glyph-name="afii10075" horiz-adv-x="1030" unicode="й"/><glyph d="M750 0q-31 0 -62 29l-465 428v-426q0 -31 -30 -31h-39q-31 0 -31 31v962q0 31 31 31h39q31 0 30 -31v-426l436 432q25 25 46 25h55q16 0 21 -15.5t-13 -35.5l-473 -465l506 -459q8 -6 11.5 -27.5t-24.5 -21.5h-38z" glyph-name="afii10076" horiz-adv-x="882" unicode="к"/><glyph d="M905 1024q31 0 31 -31v-962q0 -31 -31 -31h-39q-31 0 -30 31v897h-555v-570q0 -244 -113 -366q-14 -20 -43 0l-43 43q-23 16 0 45q98 113 98 276v637q0 31 31 31h694z" glyph-name="afii10077" horiz-adv-x="1048" unicode="л"/><glyph d="M1157 1024q31 0 31 -31v-962q0 -31 -31 -31h-33q-31 0 -30 31v915l-383 -840q-12 -25 -37 -24h-27q-25 0 -37 24l-383 840v-915q0 -31 -30 -31h-33q-31 0 -31 31v962q0 31 31 31h102q29 0 43 -27l353 -800l352 800q14 27 37 27h106z" glyph-name="afii10078" horiz-adv-x="1320" unicode="м"/><glyph d="M860 1024q31 0 31 -31v-962q0 -31 -31 -31h-41q-31 0 -31 31v436h-555v-436q0 -31 -30 -31h-39q-31 0 -31 31v962q0 31 31 31h39q31 0 30 -31v-430h555v430q0 31 31 31h41z" glyph-name="afii10079" horiz-adv-x="1024" unicode="н"/><glyph d="M545 1032q164 0 265 -100.5t101 -272.5v-292q0 -170 -101 -273.5t-265 -103.5h-88q-162 0 -263.5 103.5t-101.5 273.5v292q0 172 100.5 272.5t264.5 100.5h88zM809 358v295q0 283 -264 283h-88q-264 0 -264 -283v-295q0 -131 68.5 -200.5t195.5 -69.5h88 q129 0 196.5 69.5t67.5 200.5z" glyph-name="afii10080" horiz-adv-x="1003" unicode="о"/><glyph d="M862 1024q31 0 31 -31v-962q0 -31 -31 -31h-39q-31 0 -30 31v897h-560v-897q0 -31 -30 -31h-39q-31 0 -31 31v962q0 31 31 31h698z" glyph-name="afii10081" horiz-adv-x="1026" unicode="п"/><glyph d="M575 1032q162 0 262.5 -100.5t100.5 -272.5v-292q0 -170 -101.5 -273.5t-261.5 -103.5h-73q-209 0 -279 166v-535q0 -31 -30 -31h-39q-31 0 -31 31v1372q0 31 31 31h39q31 0 30 -31v-114q66 154 279 153h73zM838 358v295q0 283 -265 283h-86q-264 0 -264 -283v-295 q0 -131 68.5 -200.5t195.5 -69.5h86q127 0 196 69.5t69 200.5z" glyph-name="afii10082" horiz-adv-x="1030" unicode="р"/><glyph d="M805 717q-25 0 -31 26q-20 92 -86.5 141.5t-159.5 49.5h-67q-264 0 -264 -279v-307q0 -125 68.5 -192.5t195.5 -67.5h67q66 0 116 22.5t69.5 42t66.5 70.5q20 23 41 8l29 -22q27 -16 6 -43q-47 -57 -80 -88t-99.5 -59.5t-148.5 -28.5h-67q-162 0 -265.5 101.5 t-103.5 262.5v305q0 170 102.5 270.5t266.5 100.5h67q119 0 218.5 -78t127.5 -204q6 -31 -24 -31h-45z" glyph-name="afii10083" horiz-adv-x="958" unicode="с"/><glyph d="M823 1024q31 0 31 -31v-35q0 -31 -31 -30h-303v-897q0 -31 -31 -31h-38q-31 0 -31 31v897h-307q-31 0 -31 30v35q0 31 31 31h710z" glyph-name="afii10084" horiz-adv-x="935" unicode="т"/><glyph d="M889 1024q35 0 20 -37l-536 -1362q-14 -35 -43 -35h-45q-35 0 -21 37l164 416l-373 944q-14 37 19 37h47q27 0 41 -35l319 -809l320 809q14 35 43 35h45z" glyph-name="afii10085" horiz-adv-x="964" unicode="у"/><glyph d="M1260 1032q162 0 262 -100.5t100 -272.5v-292q0 -170 -101.5 -273.5t-260.5 -103.5h-74q-209 0 -279 164v-533q0 -31 -30 -31h-39q-31 0 -31 31v535q-70 -166 -279 -166h-73q-160 0 -261.5 103.5t-101.5 273.5v292q0 172 100.5 272.5t262.5 100.5h73q213 0 279 -153v524 q0 31 31 31h39q31 0 30 -31v-522q66 152 279 151h74zM543 88q127 0 195.5 69.5t68.5 200.5v295q0 283 -264 283h-86q-264 0 -264 -283v-295q0 -131 68.5 -200.5t195.5 -69.5h86zM1522 358v295q0 281 -265 281h-86q-258 0 -264 -270v-316q2 -127 71 -193.5t193 -66.5h86 q127 0 196 69.5t69 200.5z" glyph-name="afii10086" horiz-adv-x="1714" unicode="ф"/><glyph d="M795 0h-45q-25 0 -48 37l-251 397l-248 -397q-23 -37 -47 -37h-47q-18 0 -24.5 11.5t3.5 27.5l303 481l-293 465q-12 16 -5 27.5t26 11.5h47q25 0 47 -37l242 -381l237 381q23 37 47 37h47q18 0 24.5 -11.5t-5.5 -27.5l-291 -467l303 -479q10 -16 4 -27.5t-26 -11.5z" glyph-name="afii10087" horiz-adv-x="905" unicode="х"/><glyph d="M985 96q31 0 31 -30v-277q0 -31 -31 -31h-39q-31 0 -31 31v211h-751q-31 0 -31 31v962q0 31 31 31h39q31 0 30 -31v-897h560v897q0 31 30 31h39q31 0 31 -31v-897h92z" glyph-name="afii10088" horiz-adv-x="1097" unicode="ц"/><glyph d="M842 1024q31 0 30 -31v-962q0 -31 -30 -31h-39q-31 0 -31 31v331q-113 -125 -260 -124h-51q-147 0 -247.5 109.5t-100.5 256.5v389q0 31 30 31h39q31 0 31 -31v-389q0 -109 68.5 -189.5t177.5 -80.5h53q86 0 173 62.5t87 121.5v475q0 31 31 31h39z" glyph-name="afii10089" horiz-adv-x="1005" unicode="ч"/><glyph d="M1524 1024q31 0 30 -31v-962q0 -31 -30 -31h-1360q-31 0 -31 31v962q0 31 31 31h39q31 0 30 -31v-897h562v897q0 31 30 31h39q31 0 31 -31v-897h559v897q0 31 31 31h39z" glyph-name="afii10090" horiz-adv-x="1687" unicode="ш"/><glyph d="M1645 96q31 0 30 -30v-277q0 -31 -30 -31h-37q-31 0 -31 31v211h-1413q-31 0 -31 31v962q0 31 31 31h39q31 0 30 -31v-897h562v897q0 31 30 31h39q31 0 31 -31v-897h559v897q0 31 31 31h39q31 0 30 -31v-897h91z" glyph-name="afii10091" horiz-adv-x="1757" unicode="щ"/><glyph d="M668 635q373 0 372 -318q0 -166 -88 -241.5t-284 -75.5h-392q-31 0 -30 31v897h-164q-31 0 -31 30v35q0 31 31 31h237q31 0 31 -31v-358h318zM666 98q166 0 219 45t53 168t-56.5 175.5t-215.5 52.5h-316v-441h316z" glyph-name="afii10092" horiz-adv-x="1163" unicode="ъ"/><glyph d="M565 635q373 0 373 -318q0 -166 -88 -241.5t-285 -75.5h-391q-31 0 -31 31v962q0 31 31 31h43q31 0 31 -31v-358h317zM1264 1024q31 0 30 -31v-962q0 -31 -30 -31h-39q-31 0 -31 31v962q0 31 31 31h39zM563 98q164 0 217.5 45t53.5 169t-55.5 175.5t-215.5 51.5h-315 v-441h315z" glyph-name="afii10093" horiz-adv-x="1458" unicode="ы"/><glyph d="M555 635q373 0 373 -318q0 -166 -88 -241.5t-285 -75.5h-391q-31 0 -31 31v962q0 31 31 31h43q31 0 31 -31v-358h317zM553 98q164 0 217 45t53 169t-55 175.5t-215 51.5h-315v-441h315z" glyph-name="afii10094" horiz-adv-x="1040" unicode="ь"/><glyph d="M498 1030q164 0 266 -100.5t102 -270.5v-305q0 -162 -103.5 -263t-264.5 -101h-68q-82 0 -148.5 28.5t-99 59.5t-80.5 88q-18 27 7 43l28 22q20 14 41 -8q47 -51 66.5 -70.5t70 -42t115.5 -22.5h68q127 0 195.5 67.5t68.5 192.5v127h-291q-31 0 -31 31v35q0 31 31 30h291 v84q0 276 -264 277h-68q-92 0 -158.5 -48t-87.5 -141q-6 -27 -30 -26h-45q-31 0 -25 31q29 127 128 204.5t218 77.5h68z" glyph-name="afii10095" horiz-adv-x="958" unicode="э"/><glyph d="M915 1032q164 0 264.5 -100.5t100.5 -272.5v-292q0 -170 -101.5 -273.5t-263.5 -103.5h-88q-162 0 -263 103.5t-101 273.5v63h-199v-401q0 -31 -31 -31h-38q-31 0 -31 31v962q0 31 31 31h38q31 0 31 -31v-456h199v124q0 172 100.5 272.5t263.5 100.5h88zM1180 358v295 q0 281 -265 281h-88q-264 0 -264 -281v-295q0 -131 68.5 -200.5t195.5 -69.5h88q127 0 196 69.5t69 200.5z" glyph-name="afii10096" horiz-adv-x="1386" unicode="ю"/><glyph d="M170 0h-37q-31 0 -31 31v284q0 186 142 240q-127 55 -127 215q0 123 76.5 188.5t205.5 65.5h406q31 0 31 -31v-962q0 -31 -31 -31h-41q-31 0 -31 31v477h-368q-164 0 -164 -184v-293q0 -31 -31 -31zM733 928h-348q-80 0 -125 -41t-45 -113t36 -121t114 -49h368v324z" glyph-name="afii10097" horiz-adv-x="968" unicode="я"/><glyph d="M164 1403q0 31 31 31h32q31 0 31 -31v-45q0 -31 -31 -31h-32q-31 0 -31 31v45zM737 1403q0 31 31 31h31q31 0 30 -31v-45q0 -31 -30 -31h-31q-31 0 -31 31v45zM528 1032q139 0 248 -103.5t109 -266.5v-130q0 -29 -18.5 -46t-49.5 -17h-620v-121q0 -125 68.5 -192.5 t195.5 -67.5h67q63 0 110 18q46 18 66 38q22 20 44 48t26 31q20 23 43 6l27 -18q25 -18 6 -43q-49 -59 -80 -89t-95.5 -59.5t-146.5 -29.5h-67q-162 0 -265.5 101.5t-103.5 262.5v305q0 172 102.5 272.5t266.5 100.5h67zM780 561v92q0 137 -69.5 210t-182.5 73h-67 q-264 0 -264 -281v-94h583z" glyph-name="afii10071" horiz-adv-x="976" unicode="ё"/><glyph d="M434 1124q-16 0 -23.5 10.5t3.5 26.5l151 236q20 37 43 37h78q18 0 25.5 -10.5t-4.5 -26.5l-187 -236q-6 -6 -16 -21.5t-27 -15.5h-43zM750 1024q31 0 30 -31v-30q0 -31 -30 -31h-512v-901q0 -31 -31 -31h-39q-31 0 -31 31v962q0 31 31 31h582z" glyph-name="afii10100" horiz-adv-x="862" unicode="ѓ"/><glyph d="M461 934q-264 0 -264 -279v-84h292q31 0 31 -30v-35q0 -31 -31 -31h-292v-127q0 -125 68.5 -192.5t195.5 -67.5h67q66 0 116 22.5t69.5 42t66.5 70.5q20 23 41 8l29 -22q27 -16 6 -43q-47 -57 -80 -88t-99.5 -59.5t-148.5 -28.5h-67q-162 0 -265.5 101.5t-103.5 262.5 v305q0 170 102.5 270.5t266.5 100.5h67q119 0 218.5 -78t127.5 -204q6 -31 -24 -31h-45q-25 0 -31 26q-20 92 -86.5 141.5t-159.5 49.5h-67z" glyph-name="afii10101" horiz-adv-x="958" unicode="є"/><glyph d="M147 1403q0 31 31 31h33q31 0 31 -31v-45q0 -31 -31 -31h-33q-31 0 -31 31v45zM143 993q0 31 31 31h39q31 0 31 -31v-962q0 -31 -31 -31h-39q-31 0 -31 31v962z" glyph-name="afii10103" horiz-adv-x="387" unicode="і"/><glyph d="M-119 1403q0 31 31 31h33q31 0 30 -31v-45q0 -31 -30 -31h-33q-31 0 -31 31v45zM455 1403q0 31 30 31h31q31 0 31 -31v-45q0 -31 -31 -31h-31q-31 0 -30 31v45zM164 993q0 31 31 31h38q31 0 31 -31v-962q0 -31 -31 -31h-38q-31 0 -31 31v962z" glyph-name="afii10104" horiz-adv-x="428" unicode="ї"/><glyph d="M154 1403q0 31 30 31h31q31 0 31 -31v-45q0 -31 -31 -31h-31q-31 0 -30 31v45zM154 -106v1099q0 31 30 31h31q31 0 31 -31v-1093q0 -82 -60.5 -162t-152.5 -115q-29 -10 -39 21l-12 37q-10 29 18 36q57 20 105.5 69.5t48.5 107.5z" glyph-name="afii10105" horiz-adv-x="389" unicode="ј"/><glyph d="M416 1124q-16 0 -23.5 10.5t2.5 26.5l152 236q23 37 43 37h78q18 0 25 -10.5t-5 -26.5l-186 -236q-6 -6 -16.5 -21.5t-26.5 -15.5h-43zM750 0q-31 0 -62 29l-465 428v-426q0 -31 -30 -31h-39q-31 0 -31 31v962q0 31 31 31h39q31 0 30 -31v-426l436 432q25 25 46 25h55 q16 0 21 -15.5t-13 -35.5l-473 -465l506 -459q8 -6 11.5 -27.5t-24.5 -21.5h-38z" glyph-name="afii10109" horiz-adv-x="882" unicode="ќ"/><glyph d="M539 1186h-43q-17 0 -27 15.5t-16 21.5l-187 235q-12 16 -5 26.5t26 10.5h78q20 0 43 -37l151 -235q10 -16 3 -26.5t-23 -10.5zM164 1024h43q31 0 31 -31v-903l479 911q12 23 37 23h112q31 0 31 -31v-962q0 -31 -31 -31h-43q-31 0 -30 31v903l-478 -911q-12 -23 -36 -23 h-115q-31 0 -31 31v962q0 31 31 31z" glyph-name="uni045D" horiz-adv-x="1030" unicode="ѝ"/><glyph d="M444 1126q-266 0 -284 277q0 31 30 31h37q25 0 31 -31q6 -96 47 -141t135 -45h80q94 0 135 45t50 141q4 31 30 31h35q31 0 31 -31q-14 -276 -283 -277h-74zM889 1024q35 0 20 -37l-536 -1362q-14 -35 -43 -35h-45q-35 0 -21 37l164 416l-373 944q-14 37 19 37h47 q27 0 41 -35l319 -809l320 809q14 35 43 35h45z" glyph-name="afii10110" horiz-adv-x="964" unicode="ў"/><glyph d="M948 1618q31 0 31 -31v-219q0 -31 -31 -31h-710v-1306q0 -31 -31 -31h-43q-31 0 -31 31v1372q0 31 31 31h710v153q0 31 31 31h43z" glyph-name="afii10050" horiz-adv-x="1060" unicode="Ґ"/><glyph d="M745 1147q31 0 31 -31v-219q0 -31 -31 -31h-512v-835q0 -31 -30 -31h-39q-31 0 -31 31v901q0 31 31 31h512v153q0 31 31 31h38z" glyph-name="afii10098" horiz-adv-x="909" unicode="ґ"/><glyph d="M133 1403q0 31 31 31h43q31 0 31 -31v-1372q0 -31 -31 -31h-43q-31 0 -31 31v1372z" glyph-name="uni04C0" horiz-adv-x="370" unicode="Ӏ"/><glyph d="M262 1741q-31 0 -31 31v40q0 31 31 31h664q31 0 30 -31v-40q0 -31 -30 -31h-664zM164 1434h43q31 0 31 -31v-1307l639 1315q12 23 36 23h109q31 0 31 -31v-1372q0 -31 -31 -31h-43q-31 0 -31 31v1306l-639 -1314q-10 -23 -37 -23h-108q-31 0 -31 31v1372q0 31 31 31z" glyph-name="uni04E2" unicode="Ӣ"/><glyph d="M184 1331q-31 0 -30 31v41q0 31 30 31h664q31 0 31 -31v-41q0 -31 -31 -31h-664zM164 1024h43q31 0 31 -31v-903l479 911q12 23 37 23h112q31 0 31 -31v-962q0 -31 -31 -31h-43q-31 0 -30 31v903l-478 -911q-12 -23 -36 -23h-115q-31 0 -31 31v962q0 31 31 31z" glyph-name="uni04E3" horiz-adv-x="1030" unicode="ӣ"/><glyph d="M662 1444q197 0 304 -110.5t107 -315.5v-602q0 -205 -107.5 -315.5t-303.5 -110.5h-138q-197 0 -304 110.5t-107 315.5v602q0 205 107.5 315.5t303.5 110.5h138zM524 1346q-162 0 -234.5 -78t-72.5 -250v-252h752v252q0 172 -73 250t-234 78h-138zM662 88q162 0 234.5 78 t72.5 250v254h-752v-254q0 -172 72.5 -250t234.5 -78h138z" glyph-name="uni04E8" unicode="Ө"/><glyph d="M911 317q0 -221 -101 -352t-265 -131h-88q-164 0 -264.5 131t-100.5 352v209l-26 33l26 2v139q0 219 101.5 353.5t263.5 134.5h88q164 0 265 -134t101 -354v-161l62 -76l-62 -2v-144zM193 711v-146l616 25v121q0 170 -67.5 261t-196.5 91h-88q-127 0 -195.5 -91 t-68.5 -261zM809 326v131l-616 -27v-104q0 -367 264 -367h88q264 0 264 367z" glyph-name="uni04E9" horiz-adv-x="1003" unicode="ө"/><glyph d="M276 1737q-31 0 -30 30v45q0 31 30 31h33q31 0 31 -31v-45q0 -31 -31 -30h-33zM850 1737q-31 0 -31 30v45q0 31 31 31h31q31 0 30 -31v-45q0 -31 -30 -30h-31zM641 1444q197 0 304.5 -110.5t107.5 -315.5v-602q0 -205 -107.5 -315.5t-304.5 -110.5h-127 q-190 0 -296.5 106.5t-115.5 311.5q0 29 29 28h47q29 0 29 -28q6 -170 77.5 -245t229.5 -75h127q164 0 235.5 78t71.5 250v276h-399q-31 0 -31 31v41q0 31 31 31h399v223q0 172 -71.5 250t-235.5 78h-127q-158 0 -229.5 -75t-77.5 -245q0 -29 -29 -29h-47q-29 0 -29 29 q8 205 115 311.5t297 106.5h127z" glyph-name="uni04EC" horiz-adv-x="1167" unicode="Ӭ"/><glyph d="M176 1327q-31 0 -31 31v45q0 31 31 31h33q31 0 31 -31v-45q0 -31 -31 -31h-33zM750 1327q-31 0 -31 31v45q0 31 31 31h30q31 0 31 -31v-45q0 -31 -31 -31h-30zM498 1030q164 0 266 -100.5t102 -270.5v-305q0 -162 -103.5 -263t-264.5 -101h-68q-82 0 -148.5 28.5 t-99 59.5t-80.5 88q-18 27 7 43l28 22q20 14 41 -8q47 -51 66.5 -70.5t70 -42t115.5 -22.5h68q127 0 195.5 67.5t68.5 192.5v127h-291q-31 0 -31 31v35q0 31 31 30h291v84q0 276 -264 277h-68q-92 0 -158.5 -48t-87.5 -141q-6 -27 -30 -26h-45q-31 0 -25 31 q29 127 128 204.5t218 77.5h68z" glyph-name="uni04ED" horiz-adv-x="958" unicode="ӭ"/><glyph d="M242 1741q-31 0 -31 31v40q0 31 31 31h663q31 0 31 -31v-40q0 -31 -31 -31h-663zM1034 1434q37 0 19 -37l-635 -1362q-14 -35 -45 -35h-47q-39 0 -21 37l230 493l-447 867q-18 37 18 37h50q25 0 43 -35l387 -762l354 762q14 35 45 35h49z" glyph-name="uni04EE" horiz-adv-x="1140" unicode="Ӯ"/><glyph d="M127 1331q-31 0 -31 31v41q0 31 31 31h664q31 0 30 -31v-41q0 -31 -30 -31h-664zM889 1024q35 0 20 -37l-536 -1362q-14 -35 -43 -35h-45q-35 0 -21 37l164 416l-373 944q-14 37 19 37h47q27 0 41 -35l319 -809l320 809q14 35 43 35h45z" glyph-name="uni04EF" horiz-adv-x="999" unicode="ӯ"/><glyph d="M874 1843h78q18 0 25.5 -10t-4.5 -27l-187 -235q-6 -5 -16 -21t-27 -16h-43q-16 0 -23 10t3 27l151 235q20 37 43 37zM1286 1434q31 0 31 -31v-1372q0 -31 -31 -31h-43q-31 0 -31 31v1308l-424 -1308q-10 -31 -38 -31h-50q-29 0 -38 31l-424 1308v-1308q0 -31 -31 -31 h-43q-31 0 -31 31v1372q0 31 31 31h117q31 0 41 -31l403 -1247l405 1247q8 31 41 31h115z" glyph-name="uni1E3E" horiz-adv-x="1449" unicode="Ḿ"/><glyph d="M807 1124q-16 0 -23.5 10.5t2.5 26.5l152 236q20 37 43 37h78q18 0 25.5 -10.5t-5.5 -26.5l-186 -236q-6 -5 -17 -21t-26 -16h-43zM1217 1032q174 0 248.5 -92t74.5 -270v-639q0 -31 -31 -31h-39q-31 0 -30 31v633q0 143 -46 207.5t-177 64.5h-33q-115 0 -192 -52.5 t-109 -109.5v-743q0 -31 -31 -31h-39q-31 0 -31 31v633q0 143 -47 207.5t-176 64.5h-35q-113 0 -189.5 -52.5t-111.5 -109.5v-743q0 -31 -30 -31h-39q-31 0 -31 31v962q0 31 31 31h39q31 0 30 -31v-129q117 168 318 168h16q250 0 307 -205l19 37q115 168 317 168h17z" glyph-name="uni1E3F" horiz-adv-x="1662" unicode="ḿ"/><glyph d="M946 1649h-43q-16 0 -26.5 15t-16.5 22l-186 235q-12 16 -5 26.5t25 10.5h78q23 0 43 -37l152 -235q10 -16 3 -26.5t-24 -10.5zM1745 1434q37 0 27 -31l-347 -1372q-8 -31 -39 -31h-49q-31 0 -39 31l-374 1243l-377 -1243q-8 -31 -39 -31h-47q-31 0 -39 31l-348 1372 q-6 31 24 31h47q31 0 37 -31l303 -1247l371 1247q8 31 39 31h55q29 0 39 -31l373 -1247l301 1247q6 31 35 31h47z" glyph-name="Wgrave" horiz-adv-x="1845" unicode="Ẁ"/><glyph d="M768 1186h-43q-16 0 -26.5 15.5t-16.5 21.5l-186 235q-12 16 -5 26.5t25 10.5h78q20 0 43 -37l151 -235q10 -16 3 -26.5t-23 -10.5zM1382 1024q35 0 25 -35l-279 -952q-10 -37 -45 -37h-45q-35 0 -45 37q-18 61 -96 309t-152 528q-80 -300 -154.5 -538t-92.5 -299 q-10 -37 -45 -37h-45q-14 0 -27.5 10t-15.5 27l-281 952q-10 35 25 35h43q27 0 36 -35q27 -96 98 -363t146 -503q121 377 256 866q10 35 37 35h41q27 0 37 -35q117 -422 256 -866q75 236 146 503t98 363q10 35 36 35h43z" glyph-name="wgrave" horiz-adv-x="1490" unicode="ẁ"/><glyph d="M1149 1896q18 0 25.5 -10t-5.5 -26l-186 -236q-6 -6 -16 -21.5t-27 -15.5h-43q-16 0 -23.5 10.5t3.5 26.5l151 236q20 37 43 36h78zM1745 1434q37 0 27 -31l-347 -1372q-8 -31 -39 -31h-49q-31 0 -39 31l-374 1243l-377 -1243q-8 -31 -39 -31h-47q-31 0 -39 31l-348 1372 q-6 31 24 31h47q31 0 37 -31l303 -1247l371 1247q8 31 39 31h55q29 0 39 -31l373 -1247l301 1247q6 31 35 31h47z" glyph-name="Wacute" horiz-adv-x="1845" unicode="Ẃ"/><glyph d="M895 1434h78q18 0 25.5 -10.5t-5.5 -26.5l-186 -236q-6 -5 -17 -21t-26 -16h-43q-16 0 -23.5 10.5t2.5 26.5l152 236q20 37 43 37zM1382 1024q35 0 25 -35l-279 -952q-10 -37 -45 -37h-45q-35 0 -45 37q-18 61 -96 309t-152 528q-80 -300 -154.5 -538t-92.5 -299 q-10 -37 -45 -37h-45q-14 0 -27.5 10t-15.5 27l-281 952q-10 35 25 35h43q27 0 36 -35q27 -96 98 -363t146 -503q121 377 256 866q10 35 37 35h41q27 0 37 -35q117 -422 256 -866q75 236 146 503t98 363q10 35 36 35h43z" glyph-name="wacute" horiz-adv-x="1490" unicode="ẃ"/><glyph d="M590 1866q0 31 31 30h32q31 0 31 -30v-45q0 -31 -31 -31h-32q-31 0 -31 31v45zM1163 1866q0 31 31 30h31q31 0 30 -30v-45q0 -31 -30 -31h-31q-31 0 -31 31v45zM1745 1434q37 0 27 -31l-347 -1372q-8 -31 -39 -31h-49q-31 0 -39 31l-374 1243l-377 -1243q-8 -31 -39 -31 h-47q-31 0 -39 31l-348 1372q-6 31 24 31h47q31 0 37 -31l303 -1247l371 1247q8 31 39 31h55q29 0 39 -31l373 -1247l301 1247q6 31 35 31h47z" glyph-name="Wdieresis" horiz-adv-x="1845" unicode="Ẅ"/><glyph d="M412 1403q0 31 30 31h33q31 0 31 -31v-45q0 -31 -31 -31h-33q-31 0 -30 31v45zM985 1403q0 31 31 31h31q31 0 30 -31v-45q0 -31 -30 -31h-31q-31 0 -31 31v45zM1382 1024q35 0 25 -35l-279 -952q-10 -37 -45 -37h-45q-35 0 -45 37q-18 61 -96 309t-152 528 q-80 -300 -154.5 -538t-92.5 -299q-10 -37 -45 -37h-45q-14 0 -27.5 10t-15.5 27l-281 952q-10 35 25 35h43q27 0 36 -35q27 -96 98 -363t146 -503q121 377 256 866q10 35 37 35h41q27 0 37 -35q117 -422 256 -866q75 236 146 503t98 363q10 35 36 35h43z" glyph-name="wdieresis" horiz-adv-x="1490" unicode="ẅ"/><glyph d="M590 1595h-43q-16 0 -26.5 15.5t-16.5 21.5l-187 236q-12 16 -5 26.5t26 10.5h78q23 0 43 -37l151 -236q10 -16 3 -26.5t-23 -10.5zM1047 1434q39 0 20 -31l-449 -772v-600q0 -31 -30 -31h-43q-31 0 -31 31v600l-446 772q-18 31 20 31h59q23 0 41 -31l379 -668l379 668 q18 31 41 31h60z" glyph-name="Ygrave" horiz-adv-x="1134" unicode="Ỳ"/><glyph d="M252 1495h78q23 0 43 -37l151 -235q10 -16 3 -26.5t-23 -10.5h-43q-17 0 -27 15.5t-16 21.5l-187 235q-12 16 -5 26.5t26 10.5zM889 1024q35 0 20 -37l-536 -1362q-14 -35 -43 -35h-45q-35 0 -21 37l164 416l-373 944q-14 37 19 37h47q27 0 41 -35l319 -809l320 809 q14 35 43 35h45z" glyph-name="ygrave" horiz-adv-x="964" unicode="ỳ"/><glyph d="M154 428q-31 0 -31 31v35q0 31 31 30h964q31 0 31 -30v-35q0 -31 -31 -31h-964z" glyph-name="endash" horiz-adv-x="1271" unicode="–"/><glyph d="M154 428q-31 0 -31 31v35q0 31 31 30h1116q31 0 30 -30v-35q0 -31 -30 -31h-1116z" glyph-name="emdash" horiz-adv-x="1423" unicode="—"/><glyph d="M133 975q-31 0 -31 31v120q0 201 86 308q10 10 25 2l18 -15q16 -13 0 -35t-32.5 -87.5t-16.5 -129.5l-10 -20h68q31 0 30 -31v-112q0 -31 -30 -31h-107z" glyph-name="quoteleft" horiz-adv-x="372" unicode="‘"/><glyph d="M219 1413q31 0 31 -31v-120q0 -203 -88 -308q-2 -4 -10.5 -5t-12.5 3l-18 15q-16 15 1 37t32.5 86.5t15.5 128.5l8 20h-65q-31 0 -31 31v112q0 31 31 31h106z" glyph-name="quoteright" horiz-adv-x="354" unicode="’"/><glyph d="M209 174q31 0 31 -31v-120q0 -203 -88 -308q-2 -4 -10.5 -5t-12.5 3l-18 15q-16 14 0 36t32.5 87t16.5 129l8 20h-66q-31 0 -30 31v112q0 31 30 31h107z" glyph-name="quotesinglbase" horiz-adv-x="399" unicode="‚"/><glyph d="M123 969q-31 0 -31 30v123q0 199 86 305q12 14 25 3l18 -15q14 -10 -2 -35t-31.5 -89t-15.5 -128l-10 -20h67q31 0 31 -31v-113q0 -31 -31 -30h-106zM414 969q-31 0 -31 30v123q0 199 86 305q12 14 25 3l18 -15q14 -10 -2 -35t-31.5 -89t-15.5 -128l-10 -20h67 q31 0 31 -31v-113q0 -31 -31 -30h-106z" glyph-name="quotedblleft" horiz-adv-x="643" unicode="“"/><glyph d="M240 1409q31 0 30 -31v-121q0 -203 -88 -307q-2 -4 -10 -5t-12 3l-19 15q-16 13 0 35t32.5 87.5t16.5 128.5l9 21h-66q-31 0 -31 31v112q0 31 31 31h107zM543 1409q31 0 30 -31v-121q0 -201 -86 -307q-2 -4 -11 -5t-13 3l-19 15q-16 13 0 35t33 87.5t17 128.5l10 21h-66 q-31 0 -30 31v112q0 31 30 31h105z" glyph-name="quotedblright" horiz-adv-x="681" unicode="”"/><glyph d="M229 174q31 0 31 -31v-120q0 -203 -88 -308q-2 -4 -10 -5t-12 3l-19 15q-16 14 0 36t32.5 87t16.5 129l8 20h-65q-31 0 -31 31v112q0 31 31 31h106zM532 174q31 0 31 -31v-120q0 -201 -86 -308q-2 -4 -11 -5t-13 3l-19 15q-16 14 0 36t32.5 87t16.5 129l11 20h-66 q-31 0 -31 31v112q0 31 31 31h104z" glyph-name="quotedblbase" horiz-adv-x="655" unicode="„"/><glyph d="M774 963q31 0 31 -31v-43q0 -31 -31 -31h-276v-1094q0 -31 -31 -30h-43q-31 0 -31 30v1094h-280q-31 0 -31 31v43q0 31 31 31h280v501q0 31 31 31h43q31 0 31 -31v-501h276z" glyph-name="dagger" horiz-adv-x="886" unicode="†"/><glyph d="M774 858h-276v-487h276q31 0 31 -33v-41q0 -31 -31 -31h-276v-502q0 -31 -31 -30h-43q-31 0 -31 30v502h-280q-31 0 -31 31v43q0 31 31 31h280v487h-280q-31 0 -31 31v43q0 31 31 31h280v501q0 31 31 31h43q31 0 31 -31v-501h276q31 0 31 -31v-43q0 -31 -31 -31z" glyph-name="daggerdbl" horiz-adv-x="886" unicode="‡"/><glyph d="M164 766q0 68 65 68h117q70 0 70 -68v-107q0 -68 -70 -67h-117q-66 0 -65 67v107z" glyph-name="bullet" horiz-adv-x="579" unicode="•"/><glyph d="M102 80q0 31 31 31h51q31 0 31 -31v-49q0 -31 -31 -31h-51q-31 0 -31 31v49zM377 80q0 31 31 31h53q31 0 31 -31v-49q0 -31 -31 -31h-53q-31 0 -31 31v49zM651 80q0 31 31 31h53q31 0 31 -31v-49q0 -31 -31 -31h-53q-31 0 -31 31v49z" glyph-name="ellipsis" horiz-adv-x="868" unicode="…"/><glyph d="M297 1487q82 0 135 -54.5t53 -136.5v-22q0 -82 -52 -135.5t-136 -53.5h-27q-82 0 -135 53.5t-53 135.5v22q0 82 53 136.5t135 54.5h27zM1040 1487h68q39 0 20 -31l-827 -1425q-18 -31 -41 -31h-67q-39 0 -21 31l827 1425q18 31 41 31zM383 1292q0 90 -92 90h-17 q-90 0 -90 -90v-14q0 -41 23.5 -65.5t66.5 -24.5h17q92 0 92 90v14zM1020 401q82 0 135 -54t53 -136v-23q0 -82 -53 -135t-135 -53h-27q-84 0 -136 53t-52 135v23q0 82 53 136t135 54h27zM1651 401q82 0 135 -54t53 -136v-23q0 -82 -53 -135t-135 -53h-27q-84 0 -136 53 t-52 135v23q0 82 53 136t135 54h27zM1106 207q0 90 -92 90h-17q-90 0 -90 -90v-14q0 -41 23.5 -66t66.5 -25h17q92 0 92 91v14zM1737 207q0 90 -92 90h-17q-90 0 -90 -90v-14q0 -41 23.5 -66t66.5 -25h17q92 0 92 91v14z" glyph-name="perthousand" horiz-adv-x="1931" unicode="‰"/><glyph d="M565 872v-98q0 -18 -37 -45l-268 -203l268 -200q4 -4 10.5 -8.5t9.5 -7.5t10 -8.5t7 -20.5v-101q0 -16 -11 -21t-26 5l-385 291q-30 15 -30 39v65q0 24 30 39l385 291q14 10 25.5 5t11.5 -22z" glyph-name="guilsinglleft" horiz-adv-x="677" unicode="‹"/><glyph d="M565 559v-65q0 -24 -30 -39l-385 -291q-14 -10 -25.5 -5t-11.5 21v101q0 17 8 22.5t16 12t13 10.5l270 200l-270 203q-37 27 -37 45v98q0 16 11.5 21.5t25.5 -4.5l385 -291q30 -15 30 -39z" glyph-name="guilsinglright" horiz-adv-x="677" unicode="›"/><glyph d="M467 1487h78q39 0 20 -31l-827 -1425q-18 -31 -41 -31h-78q-39 0 -20 31l827 1425q18 31 41 31z" glyph-name="fraction" horiz-adv-x="204" unicode="⁄"/><glyph d="M1266 436q29 0 28 -28q-8 -205 -114.5 -311.5t-296.5 -106.5h-127q-197 0 -304.5 110.5t-107.5 315.5v157h-201q-31 0 -30 31v43q0 31 30 31h201v125h-201q-31 0 -30 31v40q0 31 30 31h201v113q0 205 107.5 315.5t304.5 110.5h127q190 0 296.5 -106.5t114.5 -311.5 q0 -29 -28 -29h-47q-29 0 -29 29q-6 170 -78 245t-229 75h-127q-164 0 -235.5 -78t-71.5 -250v-113h339q31 0 31 -31v-40q0 -31 -31 -31h-339v-125h339q31 0 31 -31v-43q0 -31 -31 -31h-339v-157q0 -172 71.5 -250t235.5 -78h127q158 0 229.5 75t77.5 245q0 29 29 28h47z " glyph-name="Euro" horiz-adv-x="1396" unicode="€"/><glyph d="M1036 475q31 0 31 -31v-59q0 -176 -130 -295t-300 -119h-94q-176 0 -303 119t-127 301q0 92 37 170h-7q-31 0 -30 31v59q0 31 30 31h107q100 76 285 115l30 6h-422q-31 0 -30 31v57q0 31 30 31h742q69 66 69 196t-83 209.5t-216 79.5h-106q-127 0 -220 -91t-93 -237v-39 q0 -31 -31 -30h-45q-31 0 -31 30v39q-2 184 126 308t294 124h106q170 0 287 -113.5t117 -291.5q0 -106 -47 -184h22q31 0 31 -31v-57q0 -31 -31 -31h-143q-94 -63 -252 -90l-107 -21q-33 -8 -47 -10h549q31 0 31 -31v-59q0 -31 -31 -31h-768q-49 -66 -49 -170 q0 -143 94.5 -229t231.5 -86h94q131 0 224 85t97 224l3 59q0 31 30 31h45z" glyph-name="uni20B4" horiz-adv-x="1179" unicode="₴"/><glyph d="M1022 1434q31 0 31 -31v-1372q0 -31 -31 -31h-109q-25 0 -36 23l-639 1314v-1306q0 -31 -31 -31h-43q-31 0 -31 31v1372q0 31 31 31h108q27 0 37 -23l639 -1315v1307q0 31 31 31h43zM1790 1434q164 0 255 -99.5t91 -257.5v-143q0 -158 -91 -258.5t-255 -100.5h-59 q-166 0 -256.5 99.5t-90.5 259.5v143q0 158 90.5 257.5t256.5 99.5h59zM2030 1077q0 260 -238 260h-63q-238 0 -238 -260v-143q0 -260 238 -260h63q238 0 238 260v143zM1384 354q0 31 31 31h692q31 0 31 -31v-35q0 -31 -31 -30h-692q-31 0 -31 30v35z" glyph-name="afii61352" horiz-adv-x="2230" unicode="№"/><glyph d="M584 1062q0 -79 -65.5 -121t-185.5 -42t-184.5 44t-66.5 112q0 16 18 16h82q18 0 19 -16q1 -39 109 -39t133.5 7t25.5 38t-22.5 40t-136.5 14q-228 10 -228 171q0 90 59.5 125t186.5 35q248 0 252 -164q0 -18 -15 -18h-82q-18 0 -19 22t-27.5 32.5t-109.5 10.5 t-105.5 -8.5t-22.5 -30.5t8.5 -38.5t137.5 -22.5q128 -6 183.5 -47t55.5 -120zM1460 1434q31 0 31 -31v-463q0 -31 -31 -31h-61q-31 0 -31 31v340l-201 -340q-18 -31 -39 -31h-43q-20 0 -38 31l-201 340v-340q0 -31 -31 -31h-61q-31 0 -31 31v463q0 31 31 31h123 q25 0 41 -31l188 -338l190 338q18 31 41 31h123z" glyph-name="uni2120" horiz-adv-x="1572" unicode="℠"/><glyph d="M602 1434q31 0 31 -31v-62q0 -31 -31 -30h-182v-371q0 -31 -31 -31h-61q-31 0 -31 31v371h-184q-31 0 -31 30v62q0 31 31 31h489zM1483 1434q31 0 30 -31v-463q0 -31 -30 -31h-62q-31 0 -30 31v340l-201 -340q-18 -31 -39 -31h-43q-20 0 -39 31l-201 340v-340 q0 -31 -30 -31h-62q-31 0 -31 31v463q0 31 31 31h123q25 0 41 -31l188 -338l191 338q18 31 41 31h123z" glyph-name="trademark" horiz-adv-x="1595" unicode="™"/><glyph d="M1085 1487h78q39 0 21 -31l-828 -1425q-18 -31 -41 -31h-77q-39 0 -21 31l827 1425q18 31 41 31zM246 1456q0 31 30 31h66q31 0 31 -31v-571q0 -31 -31 -31h-66q-31 0 -30 31v571zM1358 183q0 -71 -50.5 -127t-129.5 -56h-52q-80 0 -130 57t-50 127t70 133 q-70 63 -70 135t50.5 127.5t129.5 55.5h52q80 0 130 -56.5t50 -127.5t-70 -134q70 -63 70 -134zM1155 371q33 0 55.5 21.5t22.5 54t-23.5 52t-58.5 19.5t-57.5 -19.5t-22.5 -52t22.5 -54t55.5 -21.5h6zM1151 117q35 0 58.5 19.5t23.5 52t-22.5 54t-55.5 21.5h-6 q-33 0 -55.5 -21.5t-22.5 -54t22.5 -52t57.5 -19.5z" glyph-name="oneeighth" horiz-adv-x="1480" unicode="⅛"/><glyph d="M350 854h-51q-74 0 -125 51t-51 119v27q0 31 31 30h61q31 0 31 -30v-15q0 -27 21.5 -46t56.5 -19t58.5 19.5t23.5 52t-23 54t-55 21.5h-47q-31 0 -31 31v45q0 31 31 31h47q33 0 55.5 21.5t22.5 54t-24 52t-58 19.5t-56 -19.5t-22 -45.5v-15q0 -31 -31 -30h-61 q-31 0 -31 30v27q0 68 51 119t125 51h51q80 0 130 -56.5t50 -127.5t-69 -134q69 -63 69 -134t-50 -127t-130 -56zM1120 1487h78q39 0 21 -31l-828 -1425q-18 -31 -41 -31h-78q-39 0 -20 31l827 1425q18 31 41 31zM1393 183q0 -71 -50.5 -127t-130.5 -56h-51q-80 0 -130 57 t-50 127t70 133q-70 63 -70 135t50 127.5t130 55.5h51q80 0 130.5 -56.5t50.5 -127.5t-70 -134q70 -63 70 -134zM1190 371q33 0 55.5 21.5t22.5 54t-23.5 52t-58.5 19.5t-57.5 -19.5t-22.5 -52t22.5 -54t55.5 -21.5h6zM1186 117q35 0 58.5 19.5t23.5 52t-22.5 54t-55.5 21.5 h-6q-33 0 -55.5 -21.5t-22.5 -54t22.5 -52t57.5 -19.5z" glyph-name="threeeighths" horiz-adv-x="1515" unicode="⅜"/><glyph d="M530 1044q0 -78 -50 -135t-130 -57h-51q-74 0 -125 51t-51 119v27q0 31 31 30h61q31 0 31 -30v-15q0 -27 21.5 -46t54.5 -19q80 0 84 86q6 128 -70 115t-96 -31h-86q-31 0 -31 30v287q0 31 31 31h325q31 0 31 -31v-57q0 -31 -31 -31h-237v-117q45 23 166.5 11t121.5 -218 zM1120 1487h78q39 0 21 -31l-828 -1425q-18 -31 -41 -31h-78q-39 0 -20 31l827 1425q18 31 41 31zM1393 183q0 -71 -50.5 -127t-130.5 -56h-51q-80 0 -130 57t-50 127t70 133q-70 63 -70 135t50 127.5t130 55.5h51q80 0 130.5 -56.5t50.5 -127.5t-70 -134q70 -63 70 -134z M1190 371q33 0 55.5 21.5t22.5 54t-23.5 52t-58.5 19.5t-57.5 -19.5t-22.5 -52t22.5 -54t55.5 -21.5h6zM1186 117q35 0 58.5 19.5t23.5 52t-22.5 54t-55.5 21.5h-6q-33 0 -55.5 -21.5t-22.5 -54t22.5 -52t57.5 -19.5z" glyph-name="fiveeighths" horiz-adv-x="1515" unicode="⅝"/><glyph d="M510 1397q0 -18 -8 -35l-221 -481q-16 -29 -33 -29h-86q-31 0 -19 29l219 483h-208q-31 0 -31 31v61q0 31 31 31h325q31 0 31 -31v-59zM1100 1487h78q39 0 20 -31l-827 -1425q-18 -31 -41 -31h-78q-39 0 -21 31l828 1425q18 31 41 31zM1192 0h-51q-80 0 -130 57t-50 127 t69 133q-70 63 -70 135t50.5 127.5t130.5 55.5h51q80 0 130 -56.5t50 -127.5t-69 -134q69 -63 69 -134t-50 -127t-130 -56zM1169 371q33 0 55.5 21.5t22.5 54t-23.5 52t-58.5 19.5t-57.5 -19.5t-22.5 -52t22.5 -54t55.5 -21.5h6zM1165 117q35 0 58.5 19.5t23.5 52t-22.5 54 t-55.5 21.5h-6q-33 0 -55.5 -21.5t-22.5 -54t22.5 -52t57.5 -19.5z" glyph-name="seveneighths" horiz-adv-x="1495" unicode="⅞"/><glyph d="M528 1509h90q180 0 292 -116.5t130 -296.5q39 -352 9 -682q-18 -205 -130 -319.5t-288 -114.5h-84q-182 0 -309 114.5t-136 327.5q-16 493 488 493q250 0 362 -122q14 145 -20 337q-20 119 -97 199t-217 80h-90q-141 0 -229 -89t-88 -239v-34q0 -31 -31 -31h-45 q-31 0 -31 31v34q0 186 123 307t301 121zM547 84h84q278 0 311 330q18 199 -64 291t-296 94t-294.5 -91.5t-77.5 -274.5t97 -265t240 -84z" glyph-name="partialdiff" horiz-adv-x="1163" unicode="∂"/><glyph d="M1073 1018v-602q0 -205 -107.5 -315.5t-303.5 -110.5h-138q-102 0 -182 30l-18 -40q-12 -31 -41 -31h-56q-33 0 -20 31l41 94q-135 111 -135 342v602q0 205 107.5 315.5t303.5 110.5h138q94 0 174 -29l18 41q12 31 41 31h55q33 0 21 -31l-41 -92q143 -111 143 -346z M217 416q0 -170 72 -248l508 1159q-55 18 -135 19h-138q-162 0 -234.5 -78t-72.5 -250v-602zM969 416v602q0 176 -78 254l-510 -1163q55 -20 143 -21h138q162 0 234.5 78t72.5 250z" glyph-name="emptyset" unicode="∅"/><glyph d="M901 963q29 0 29 -31v-901q0 -31 -31 -31h-43q-31 0 -31 31v827h-598v-827q0 -31 -30 -31h-43q-31 0 -31 31v901q0 31 31 31h747z" glyph-name="product" horiz-adv-x="1052" unicode="∏"/><glyph d="M123 1456q0 31 31 31h813q31 0 30 -33v-41q0 -31 -30 -31h-748l504 -569q29 -33 29 -49v-43q0 -16 -29 -49l-504 -566l748 -2q29 0 30 -30l-2 -43q0 -31 -28 -31h-813q-31 0 -31 31v106q0 18 31 58l485 546l-485 551q-31 39 -31 58v106z" glyph-name="summation" horiz-adv-x="1120" unicode="∑"/><glyph d="M901 723q29 0 29 -31v-43q0 -31 -31 -31h-745q-31 0 -31 31v43q0 31 31 31h747z" glyph-name="minus" horiz-adv-x="1052" unicode="−"/><glyph d="M131 688h68q18 0 23.5 -11.5t13.5 -21.5l264 -487l516 1286q12 33 37 33h63q37 0 25 -33l-582 -1421q-12 -33 -39 -33h-43q-23 0 -39 33l-332 622q-14 33 25 33z" glyph-name="radical" horiz-adv-x="1245" unicode="√"/><glyph d="M1260 963q156 0 264 -101.5t108 -275.5v-62q0 -172 -108.5 -273t-263.5 -101h-76q-96 0 -180 46t-136 126q-49 -80 -134 -126t-183 -46h-76q-152 0 -262.5 102t-110.5 272v62q0 172 111 274.5t262 102.5h76q98 0 183 -46.5t134 -125.5q51 80 135 126t181 46h76zM551 252 q102 0 176 60.5t88 166.5q-2 14 -2 43v66q0 31 2 45q-14 106 -88 165.5t-176 59.5h-78q-115 0 -191.5 -66.5t-76.5 -203.5v-66q0 -137 76.5 -203.5t191.5 -66.5h78zM1532 522v66q0 139 -76 204.5t-194 65.5h-78q-98 0 -174 -60.5t-90 -164.5q2 -16 2 -45v-66q0 -29 -2 -43 q14 -104 89.5 -165.5t174.5 -61.5h78q119 0 194.5 66.5t75.5 203.5z" glyph-name="infinity" horiz-adv-x="1734" unicode="∞"/><glyph d="M696 1487q31 0 31 -31v-43q0 -31 -31 -31h-18q-102 0 -156.5 -72.5t-54.5 -197.5v-1137q0 -174 -91 -279.5t-243 -105.5q-31 0 -31 31v43q0 31 31 31h19q102 0 156 72.5t54 197.5v1137q0 174 91 279.5t243 105.5z" glyph-name="integral" horiz-adv-x="829" unicode="∫"/><glyph d="M958 752q12 -23 -20 -45q-203 -147 -418 -9q-98 61 -175 60.5t-181 -72.5q-20 -14 -35 16l-23 43q-12 23 21 46q201 145 418 8q98 -61 175 -60.5t181 72.5q20 12 35 -16zM958 457q12 -23 -20 -45q-199 -150 -418 -11q-100 61 -175 60.5t-181 -72.5q-20 -12 -35 17l-23 43 q-12 23 21 45q199 150 418 10q100 -61 175 -60.5t181 72.5q20 12 35 -16z" glyph-name="approxequal" horiz-adv-x="1064" unicode="≈"/><glyph d="M799 1409q33 0 20 -31l-215 -491h146q31 0 30 -31v-45q0 -31 -30 -31h-193l-98 -223h291q31 0 30 -31v-45q0 -31 -30 -30h-336l-242 -551q-12 -31 -41 -31h-55q-33 0 -21 31l242 551h-170q-31 0 -31 30v45q0 31 31 31h215l98 223h-313q-31 0 -31 31v45q0 31 31 31h360 l215 491q12 31 41 31h56z" glyph-name="notequal" horiz-adv-x="874" unicode="≠"/><glyph d="M860 1075q0 -37 -20 -49l-555 -324l555 -323q20 -12 20 -49v-51q0 -12 -9 -17.5t-24 0.5l-688 404q-16 10 -16 36.5t16 36.5l688 404q14 6 23.5 1t9.5 -18v-51zM156 104h673q31 0 31 -30v-43q0 -31 -31 -31h-671q-31 0 -31 31v43q0 30 29 30z" glyph-name="lessequal" horiz-adv-x="983" unicode="≤"/><glyph d="M123 1075v51q0 12 9 17.5t24 -0.5l688 -404q16 -10 16 -36.5t-16 -36.5l-688 -404q-14 -6 -23.5 -1t-9.5 18v51q0 37 20 49l555 323l-555 324q-20 12 -20 49zM827 104q29 0 29 -30v-43q0 -31 -31 -31h-671q-31 0 -31 31v43q0 31 31 30h673z" glyph-name="greaterequal" horiz-adv-x="983" unicode="≥"/><glyph d="M498 0h-64q-27 0 -39 33l-311 774q-4 12 0 24l311 775q10 33 39 32h64q27 0 39 -32l311 -775q4 -12 0 -24l-311 -774q-10 -33 -39 -33zM733 807q6 14 0 24l-266 646l-268 -646q-6 -12 0 -24l266 -645z" glyph-name="lozenge" horiz-adv-x="931" unicode="◊"/><glyph d="M170 1403q0 31 31 31h32q31 0 31 -31v-45q0 -31 -31 -31h-32q-31 0 -31 31v45zM164 993q0 31 31 31h38q31 0 31 -31v-962q0 -31 -31 -31h-38q-31 0 -31 31v962z" glyph-name="i.aalt" horiz-adv-x="428"/><glyph d="M662 1444q197 0 304 -110.5t107 -315.5v-602q0 -205 -107.5 -315.5t-303.5 -110.5h-138q-197 0 -304 110.5t-107 315.5v602q0 205 107.5 315.5t303.5 110.5h138zM969 416v602q0 172 -73 250t-234 78h-138q-162 0 -234.5 -78t-72.5 -250v-602q0 -172 72.5 -250t234.5 -78 h138q162 0 234.5 78t72.5 250zM539 926q0 29 30 28h49q29 0 29 -28v-418q0 -29 -29 -29h-49q-31 0 -30 29v418z" glyph-name="zero.oldstyle.case"/><glyph d="M406 1434q31 0 30 -31v-1372q0 -31 -30 -31h-39q-31 0 -31 31v1243l-109 -109q-20 -23 -43 0l-30 31q-20 20 0 43l186 184q11 11 27 11h39z" glyph-name="one.oldstyle.case" horiz-adv-x="722"/><glyph d="M995 98q31 0 31 -30v-37q0 -31 -31 -31h-872q-31 0 -31 31q2 252 57.5 381t229.5 206l272 119q88 39 127 59.5t80 57.5t54.5 82t13.5 117q0 147 -73 220t-235 73h-98q-158 0 -229.5 -75t-77.5 -245q0 -29 -29 -29h-47q-29 0 -28 29q8 205 113.5 311.5t297.5 106.5h98 q195 0 303.5 -104.5t108.5 -286.5q0 -216 -117.5 -291.5t-255.5 -132.5l-225 -94q-148 -62 -186.5 -178.5t-38.5 -258.5h788z" glyph-name="two.oldstyle.case" horiz-adv-x="1122"/><glyph d="M1042 401q0 -195 -107.5 -303t-303.5 -108h-127q-190 0 -297 106.5t-115 311.5q0 29 29 28h47q29 0 29 -28q6 -170 77.5 -246t229.5 -76h127q162 0 234.5 77t72.5 231q0 300 -348 315h-125q-31 0 -31 30v33q0 31 31 31h125q172 6 245.5 68.5t73.5 224.5q0 252 -307 252 h-74q-158 0 -229.5 -76t-77.5 -246q0 -29 -28 -29h-48q-29 0 -28 29q8 205 114.5 311.5t296.5 106.5h74q190 0 301 -99t111 -253t-54.5 -220.5t-185.5 -113.5q131 -43 199.5 -125t68.5 -232z" glyph-name="three.oldstyle.case" horiz-adv-x="1134"/><glyph d="M725 555v279q0 31 31 30h43q31 0 30 -30v-279h150q31 0 31 -31v-35q0 -31 -31 -30h-150v-428q0 -31 -30 -31h-43q-31 0 -31 31v428h-596q-25 0 -33 20l-18 37q-10 20 4 43l496 852q14 23 40 23h46q43 0 20 -37l-491 -842h532z" glyph-name="four.oldstyle.case" horiz-adv-x="1101"/><glyph d="M645 928q190 0 293.5 -121t103.5 -355t-107.5 -348t-303.5 -114h-127q-193 0 -298.5 105.5t-113.5 312.5q0 29 29 28h47q29 0 29 -28q6 -172 76.5 -247t230.5 -75h127q162 0 234.5 83t72.5 269t-72.5 289.5t-220.5 103.5h-96q-75 0 -112.5 -13t-63.5 -21.5t-66 -38.5 t-88 -62h-76q-31 0 -30 31v39l63 637q4 31 31 31h731q31 0 31 -31v-35q0 -31 -31 -31h-668l-55 -526q80 57 149.5 86t184.5 31h96z" glyph-name="five.oldstyle.case" horiz-adv-x="1144"/><glyph d="M678 879q211 0 306 -102.5t95 -324.5t-105.5 -342t-297.5 -120h-168q-80 0 -138.5 15t-163 102.5t-104.5 574.5q0 345 48 489t142.5 208.5t254.5 64.5h82q393 0 413 -371q2 -31 -30 -31h-43q-27 0 -31 31q-14 139 -79.5 208t-229.5 69h-80q-197 0 -270.5 -130t-77.5 -466 q98 125 303 125h174zM676 86q299 0 299 348q0 180 -64.5 264t-232.5 84h-168q-299 0 -299 -223q0 -248 70.5 -360.5t226.5 -112.5h168z" glyph-name="six.oldstyle.case" horiz-adv-x="1181"/><glyph d="M1040 1368q0 -31 -8 -47q-276 -309 -451 -607t-284 -679q-12 -35 -41 -35h-43q-8 0 -14 7t-6 16.5t2 19.5q197 690 729 1294h-801q-31 0 -31 31v35q0 31 31 31h887q31 0 30 -31v-35z" glyph-name="seven.oldstyle.case" horiz-adv-x="1132"/><glyph d="M1102 442q0 -453 -438 -452h-134q-438 0 -438 452q0 287 213 377q-150 74 -149 281q0 166 96 255t283 89h129q184 0 279 -88t95 -256q0 -211 -147 -281q211 -90 211 -377zM535 1350q-147 0 -210 -59.5t-63 -189.5t57.5 -186.5t210.5 -56.5h138q152 0 208 55.5t56 186.5 t-61.5 190.5t-206.5 59.5h-129zM668 88q164 0 246.5 84t82.5 262t-74.5 256t-238.5 78h-170q-164 0 -240.5 -78t-76.5 -255q0 -347 331 -347h140z" glyph-name="eight.oldstyle.case" horiz-adv-x="1193"/><glyph d="M506 555q-213 0 -308.5 102.5t-95.5 323.5t106.5 342t299.5 121h168q100 0 168.5 -26.5t151.5 -133.5t83 -495q0 -387 -48 -529.5t-142.5 -206t-253.5 -63.5h-82q-389 0 -414 370q-4 31 31 31h43q29 0 31 -31q14 -139 79.5 -207.5t229.5 -68.5h80q197 0 270.5 130 t77.5 466q-98 -125 -301 -125h-174zM508 1348q-301 0 -301 -349q0 -180 64.5 -264t234.5 -84h168q297 0 297 223q0 248 -70 361t-225 113h-168z" glyph-name="nine.oldstyle.case" horiz-adv-x="1181"/><glyph d="M600 969q150 0 258.5 -117t108.5 -272v-195q0 -156 -108.5 -273.5t-258.5 -117.5h-121q-154 0 -260 117.5t-106 273.5v195q0 156 106.5 272.5t259.5 116.5h121zM862 578q0 119 -74.5 203.5t-187.5 84.5h-121q-115 0 -188.5 -85t-73.5 -203v-193q0 -119 74 -204t188 -85 h121q113 0 187.5 85t74.5 204v193z" glyph-name="zero.oldstyle" horiz-adv-x="1079"/><glyph d="M508 102q31 0 31 -30v-41q0 -31 -31 -31h-309q-31 0 -31 31v41q0 31 31 30h106v701l-108 -109q-20 -23 -43 0l-31 31q-20 20 0 43l186 184q9 9 27 11h43q31 0 31 -31v-830h98z" glyph-name="one.oldstyle" horiz-adv-x="645"/><glyph d="M598 967q152 0 266.5 -99.5t114.5 -212.5t-36.5 -167t-123 -78.5t-180.5 -47.5l-213 -51q-203 -47 -203 -209h719q31 0 31 -30v-41q0 -31 -31 -31h-803q-31 0 -30 31q2 168 57 251t209 119l233 58q75 15 105 24l60 18t39 16t37 27t28 104t-82 150t-197 66h-96 q-117 0 -194 -70.5t-77 -172.5v-25q0 -31 -30 -31h-43q-31 0 -31 31v25q0 139 109.5 242.5t265.5 103.5h96z" glyph-name="two.oldstyle" horiz-adv-x="1095"/><glyph d="M1042 -150q0 -195 -107.5 -303t-303.5 -108h-127q-190 0 -297 106.5t-115 311.5q0 29 29 28h47q29 0 29 -28q6 -170 77.5 -246t229.5 -76h127q162 0 234.5 77t72.5 231q0 303 -348 315h-125q-31 0 -31 30v33q0 31 31 31h125q172 6 245.5 68.5t73.5 224.5q0 252 -307 252 h-74q-158 0 -229.5 -76t-77.5 -246q0 -29 -28 -29h-48q-29 0 -28 29q8 205 114.5 311.5t296.5 106.5h74q190 0 301 -98.5t111 -252.5t-54.5 -221t-185.5 -114q131 -43 199.5 -125t68.5 -232z" glyph-name="three.oldstyle" horiz-adv-x="1148"/><glyph d="M725 49v277q0 31 31 30h43q31 0 30 -30v-277h150q31 0 31 -31v-36q0 -31 -31 -31h-150v-428q0 -31 -30 -31h-43q-31 0 -31 31v428h-596q-25 0 -33 20l-18 37q-10 23 4 45l496 852q14 23 40 23h46q43 0 20 -37l-491 -842h532z" glyph-name="four.oldstyle" horiz-adv-x="1128"/><glyph d="M645 406q190 0 293.5 -121t103.5 -355t-107.5 -348t-303.5 -114h-127q-193 0 -298.5 105t-113.5 312q0 29 29 29h47q29 0 29 -29q6 -172 76.5 -246.5t230.5 -74.5h127q162 0 234.5 83t72.5 269t-72.5 289.5t-220.5 103.5h-96q-90 0 -133 -19.5t-62 -26t-65 -41t-70 -50.5 h-76q-31 0 -30 31v39l63 639q4 31 31 30h731q31 0 31 -30v-35q0 -31 -31 -31h-668l-55 -526q80 57 149.5 85.5t184.5 31.5h96z" glyph-name="five.oldstyle" horiz-adv-x="1187"/><glyph d="M678 879q211 0 306 -102.5t95 -324.5t-105.5 -342t-297.5 -120h-168q-80 0 -138.5 15t-163 102.5t-104.5 574.5q0 345 48 489t142.5 208.5t254.5 64.5h82q393 0 413 -371q2 -31 -30 -31h-43q-27 0 -31 31q-14 139 -79.5 208t-229.5 69h-80q-197 0 -270.5 -130t-77.5 -466 q98 125 303 125h174zM676 86q299 0 299 348q0 180 -64.5 264t-232.5 84h-168q-299 0 -299 -223q0 -248 70.5 -360.5t226.5 -112.5h168z" glyph-name="six.oldstyle" horiz-adv-x="1181"/><glyph d="M1040 844q0 -31 -8 -47q-276 -309 -451 -607.5t-284 -678.5q-12 -35 -41 -35h-43q-8 0 -14 7t-6 16t2 20q197 690 729 1294h-801q-31 0 -31 31v35q0 31 31 30h887q31 0 30 -30v-35z" glyph-name="seven.oldstyle" horiz-adv-x="1165"/><glyph d="M1102 442q0 -453 -438 -452h-134q-438 0 -438 452q0 287 213 377q-150 74 -149 281q0 166 96 255t283 89h129q184 0 279 -88t95 -256q0 -211 -147 -281q211 -90 211 -377zM535 1350q-147 0 -210 -59.5t-63 -189.5t57.5 -186.5t210.5 -56.5h138q152 0 208 55.5t56 186.5 t-61.5 190.5t-206.5 59.5h-129zM668 88q164 0 246.5 84t82.5 262t-74.5 256t-238.5 78h-170q-164 0 -240.5 -78t-76.5 -255q0 -347 331 -347h140z" glyph-name="eight.oldstyle" horiz-adv-x="1193"/><glyph d="M506 12q-213 0 -308.5 102t-95.5 324t106.5 342.5t299.5 120.5h168q100 0 168.5 -26.5t151.5 -133.5t83 -494q0 -386 -48 -529.5t-142.5 -207t-253.5 -63.5h-82q-389 0 -414 371q-4 31 31 30h43q29 0 31 -30q14 -139 79.5 -208t229.5 -69h80q197 0 270.5 130t77.5 466 q-98 -125 -301 -125h-174zM508 805q-301 0 -301 -348q0 -180 64.5 -264t234.5 -84h168q297 0 297 223q0 248 -70 360.5t-225 112.5h-168z" glyph-name="nine.oldstyle" horiz-adv-x="1165"/><glyph d="M778 1444q197 0 304.5 -110.5t107.5 -315.5v-602q0 -205 -107.5 -315.5t-304.5 -110.5h-137q-197 0 -304.5 110.5t-107.5 315.5v602q0 205 107.5 315.5t304.5 110.5h137zM1085 416v602q0 172 -72.5 250t-234.5 78h-137q-162 0 -234.5 -78t-72.5 -250v-602 q0 -172 72.5 -250t234.5 -78h137q162 0 234.5 78t72.5 250z" glyph-name="zero.tnum" horiz-adv-x="1433"/><glyph d="M735 1434q31 0 31 -31v-1372q0 -31 -31 -31h-39q-31 0 -30 31v1243l-111 -109q-20 -23 -43 0l-29 31q-20 20 -2 43l189 184l6 7q12 4 20 4h39z" glyph-name="one.tnum" horiz-adv-x="1433"/><glyph d="M1133 98q31 0 30 -30v-37q0 -31 -30 -31h-873q-31 0 -31 31q2 252 57.5 381t229.5 206l272 119q88 39 127 59.5t80 57.5t54.5 82t13.5 117q0 147 -72.5 220t-234.5 73h-99q-158 0 -229.5 -75t-77.5 -245q0 -29 -28 -29h-48q-29 0 -28 29q8 205 113.5 311.5t297.5 106.5 h99q195 0 303 -104.5t108 -286.5q0 -216 -117.5 -291.5t-254.5 -132.5l-226 -94q-148 -62 -186.5 -178.5t-38.5 -258.5h789z" glyph-name="two.tnum" horiz-adv-x="1433"/><glyph d="M1186 401q0 -195 -107.5 -303t-304.5 -108h-127q-190 0 -296.5 106.5t-114.5 311.5q0 29 28 28h47q29 0 29 -28q6 -170 77.5 -246t229.5 -76h127q162 0 234.5 77t72.5 231q0 300 -348 315h-125q-31 0 -30 30v33q0 31 30 31h125q172 6 246 68.5t74 224.5q0 252 -308 252 h-73q-158 0 -229.5 -76t-77.5 -246q0 -29 -29 -29h-47q-29 0 -29 29q8 205 114.5 311.5t297.5 106.5h73q190 0 301 -99t111 -253t-54 -220.5t-185 -113.5q131 -43 199.5 -125t68.5 -232z" glyph-name="three.tnum" horiz-adv-x="1433"/><glyph d="M887 555v279q0 31 31 30h43q31 0 30 -30v-279h150q31 0 30 -31v-35q0 -31 -30 -30h-150v-428q0 -31 -30 -31h-43q-31 0 -31 31v428h-594q-25 0 -33 20l-18 37q-12 23 4 43l493 852q16 23 41 23h45q43 0 21 -37l-490 -842h531z" glyph-name="four.tnum" horiz-adv-x="1433"/><glyph d="M778 928q190 0 294 -121t104 -355t-107.5 -348t-304.5 -114h-127q-193 0 -298.5 105.5t-113.5 312.5q0 29 29 28h47q29 0 29 -28q6 -172 76.5 -247t230.5 -75h127q162 0 234.5 84t72.5 269t-72.5 288.5t-220.5 103.5h-96q-75 0 -112.5 -13t-64 -22t-66 -38.5t-87.5 -61.5 h-76q-31 0 -30 31v39l63 637q2 31 31 31h731q31 0 31 -31v-35q0 -31 -31 -31h-670l-53 -526q80 57 149.5 86t184.5 31h96z" glyph-name="five.tnum" horiz-adv-x="1433"/><glyph d="M813 879q211 0 306 -102.5t95 -324.5t-105 -342t-298 -120h-168q-80 0 -138.5 15t-162.5 102.5t-104 574.5q0 348 47.5 490.5t142 207t254.5 64.5h82q393 0 414 -371q2 -31 -31 -31h-43q-27 0 -31 31q-14 139 -79.5 208t-229.5 69h-80q-197 0 -270.5 -130t-77.5 -466 q98 125 303 125h174zM811 86q299 0 299 348q0 180 -64.5 264t-232.5 84h-168q-299 0 -299 -223q0 -250 70.5 -361.5t226.5 -111.5h168z" glyph-name="six.tnum" horiz-adv-x="1433"/><glyph d="M1174 1368q0 -31 -9 -47q-276 -309 -451 -607t-284 -679q-12 -35 -41 -35h-43q-8 0 -14 7t-6 16.5t2 19.5q197 690 729 1294h-801q-31 0 -31 31v35q0 31 31 31h887q31 0 31 -31v-35z" glyph-name="seven.tnum" horiz-adv-x="1433"/><glyph d="M1231 442q0 -453 -438 -452h-134q-438 0 -438 452q0 287 213 377q-150 74 -149 281q0 166 96 255t283 89h129q184 0 279 -88t95 -256q0 -211 -147 -281q211 -90 211 -377zM664 1350q-147 0 -210 -59.5t-63 -189.5t57.5 -186.5t210.5 -56.5h138q152 0 208 55.5t56 186.5 t-61.5 190.5t-206.5 59.5h-129zM797 88q164 0 246.5 84t82.5 262t-74.5 256t-238.5 78h-170q-164 0 -240.5 -78t-76.5 -255q0 -347 331 -347h140z" glyph-name="eight.tnum" horiz-adv-x="1433"/><glyph d="M631 555q-213 0 -308.5 102.5t-95.5 323.5t106.5 342t299.5 121h168q100 0 168.5 -26.5t151.5 -133.5t83 -495q0 -387 -48 -529.5t-142.5 -206t-253.5 -63.5h-82q-389 0 -414 370q-2 31 31 31h43q27 0 31 -31q14 -139 79.5 -207.5t229.5 -68.5h80q197 0 270.5 130 t77.5 466q-98 -125 -301 -125h-174zM633 1348q-301 0 -301 -349q0 -180 64.5 -264t234.5 -84h168q297 0 297 223q0 248 -70 361t-225 113h-168z" glyph-name="nine.tnum" horiz-adv-x="1433"/><glyph d="M350 635q80 0 130 -53.5t50 -124.5v-279q0 -72 -50 -125t-130 -53h-51q-72 0 -124 54.5t-52 123.5v279q0 70 52 124t124 54h51zM406 449q0 31 -24 50t-58 19t-56 -19.5t-22 -49.5v-263q0 -31 21.5 -50t56.5 -19t58.5 19.5t23.5 49.5v263z" glyph-name="zero.dnom" horiz-adv-x="653"/><glyph d="M246 602q0 31 30 31h66q31 0 31 -31v-571q0 -31 -31 -31h-66q-31 0 -30 31v571z" glyph-name="one.dnom" horiz-adv-x="618"/><glyph d="M532 31q0 -31 -30 -31h-344q-31 0 -31 31v49q0 30 11 46.5t44 49.5l144 154q4 4 42 38t38 68q0 35 -24 58.5t-58 23.5t-56 -19.5t-22 -45.5v-15q0 -31 -31 -30h-61q-31 0 -31 30v27q0 68 51 119t125 51h51q80 0 130 -60.5t50 -126.5t-33.5 -114.5t-97.5 -112.5l-104 -104 l207 4q31 0 30 -31v-59z" glyph-name="two.dnom" horiz-adv-x="655"/><glyph d="M350 0h-51q-74 0 -125 51t-51 119v27q0 31 31 30h61q31 0 31 -30v-15q0 -27 21.5 -46t56.5 -19t58.5 19.5t23.5 52t-23 54t-55 21.5h-47q-31 0 -31 31v45q0 31 31 31h47q33 0 55.5 21.5t22.5 54t-24 52t-58 19.5t-56 -19.5t-22 -45.5v-15q0 -31 -31 -30h-61q-31 0 -31 30 v27q0 68 51 119t125 51h51q80 0 130 -56.5t50 -127.5t-69 -134q69 -63 69 -134t-50 -127t-130 -56z" glyph-name="three.dnom" horiz-adv-x="653"/><glyph d="M535 242q31 0 30 -31v-61q0 -31 -30 -31h-29v-88q0 -31 -31 -31h-61q-31 0 -31 31v88h-223q-29 0 -31 31l-6 59q0 8 8 24l217 388q8 14 29 14h98q31 0 31 -31v-362h29zM383 246v205l-104 -205h104z" glyph-name="four.dnom" horiz-adv-x="688"/><glyph d="M530 193q0 -78 -50 -135.5t-130 -57.5h-51q-74 0 -125 51t-51 119v27q0 31 31 30h61q31 0 31 -30v-15q0 -27 21.5 -46t54.5 -19q80 0 84 86q6 128 -70 115t-96 -31h-86q-31 0 -31 30v287q0 31 31 31h325q31 0 31 -31v-57q0 -31 -31 -31h-237v-117q45 23 166.5 11 t121.5 -217z" glyph-name="five.dnom" horiz-adv-x="653"/><glyph d="M530 193q0 -78 -50 -135.5t-130 -57.5h-51q-70 0 -113 48t-53 110t-10 194q0 209 113 260q133 61 264 -24q23 -16 12 -41l-12 -41q-8 -33 -41 -14q-68 45 -158 28q-55 -12 -59 -67l-2 -54q45 23 167.5 11t122.5 -217zM325 117q81 0 81 95t-81 95t-81 -95t81 -95z" glyph-name="six.dnom" horiz-adv-x="653"/><glyph d="M510 545q0 -18 -8 -35l-221 -481q-16 -29 -33 -29h-86q-31 0 -19 29l219 483h-208q-31 0 -31 31v61q0 31 31 31h325q31 0 31 -31v-59z" glyph-name="seven.dnom" horiz-adv-x="632"/><glyph d="M535 183q0 -71 -50.5 -127t-130.5 -56h-51q-80 0 -130 57t-50 127t70 133q-70 63 -70 135t50 127.5t130 55.5h51q80 0 130.5 -56.5t50.5 -127.5t-70 -134q70 -63 70 -134zM332 371q33 0 55.5 21.5t22.5 54t-24 52t-58 19.5t-57 -19.5t-23 -52t22.5 -54t55.5 -21.5h6z M328 117q35 0 58.5 19.5t23.5 52t-22.5 54t-55.5 21.5h-6q-33 0 -55.5 -21.5t-22.5 -54t22.5 -52t57.5 -19.5z" glyph-name="eight.dnom" horiz-adv-x="657"/><glyph d="M123 442q0 78 50 135.5t130 57.5h51q70 0 113 -47.5t53 -109.5t10 -195q0 -209 -112 -260q-133 -61 -264 24q-23 16 -13 41l13 41q8 33 41 14q68 -45 157 -28q55 12 60 67l2 54q-45 -23 -168 -11t-123 217zM329 518q-81 0 -81 -95t81 -95t81 95t-81 95z" glyph-name="nine.dnom" horiz-adv-x="653"/><glyph d="M350 1487q80 0 130 -53.5t50 -124.5v-279q0 -72 -50 -125t-130 -53h-51q-72 0 -124 54.5t-52 123.5v279q0 70 52 124t124 54h51zM406 1300q0 31 -24 50.5t-58 19.5t-56 -19.5t-22 -50.5v-262q0 -31 21.5 -50t56.5 -19t58.5 19.5t23.5 49.5v262z" glyph-name="zero.numr" horiz-adv-x="653"/><glyph d="M246 1456q0 31 30 31h66q31 0 31 -31v-571q0 -31 -31 -31h-66q-31 0 -30 31v571z" glyph-name="one.numr" horiz-adv-x="618"/><glyph d="M532 883q0 -31 -30 -31h-344q-31 0 -31 31v49q0 30 11 46.5t44 49.5l144 154q4 4 42 38t38 68q0 35 -24 58.5t-58 23.5t-56 -19.5t-22 -45.5v-15q0 -31 -31 -30h-61q-31 0 -31 30v27q0 68 51 119t125 51h51q80 0 130 -60.5t50 -126.5t-33.5 -114.5t-97.5 -112.5 l-104 -104l207 4q31 0 30 -31v-59z" glyph-name="two.numr" horiz-adv-x="655"/><glyph d="M350 854h-51q-74 0 -125 51t-51 119v27q0 31 31 30h61q31 0 31 -30v-15q0 -27 21.5 -46t56.5 -19t58.5 19.5t23.5 52t-23 54t-55 21.5h-47q-31 0 -31 31v45q0 31 31 31h47q33 0 55.5 21.5t22.5 54t-24 52t-58 19.5t-56 -19.5t-22 -45.5v-15q0 -31 -31 -30h-61 q-31 0 -31 30v27q0 68 51 119t125 51h51q80 0 130 -56.5t50 -127.5t-69 -134q69 -63 69 -134t-50 -127t-130 -56z" glyph-name="three.numr" horiz-adv-x="653"/><glyph d="M535 1094q31 0 30 -31v-62q0 -31 -30 -30h-29v-88q0 -31 -31 -31h-61q-31 0 -31 31v88h-223q-29 0 -31 30l-6 60q0 8 8 24l217 388q8 14 29 14h98q31 0 31 -31v-362h29zM383 1098v205l-104 -205h104z" glyph-name="four.numr" horiz-adv-x="688"/><glyph d="M530 1044q0 -78 -50 -135t-130 -57h-51q-74 0 -125 51t-51 119v27q0 31 31 30h61q31 0 31 -30v-15q0 -27 21.5 -46t54.5 -19q80 0 84 86q6 128 -70 115t-96 -31h-86q-31 0 -31 30v287q0 31 31 31h325q31 0 31 -31v-57q0 -31 -31 -31h-237v-117q45 23 166.5 11t121.5 -218 z" glyph-name="five.numr" horiz-adv-x="653"/><glyph d="M530 1044q0 -78 -50 -135t-130 -57h-51q-70 0 -113 48t-53 110t-10 194q0 209 113 260q133 61 264 -24q23 -16 12 -41l-12 -41q-8 -33 -41 -15q-68 45 -158 29q-55 -12 -59 -67l-2 -54q45 23 167.5 11t122.5 -218zM325 969q81 0 81 95t-81 95t-81 -95t81 -95z" glyph-name="six.numr" horiz-adv-x="653"/><glyph d="M510 1397q0 -18 -8 -35l-221 -481q-16 -29 -33 -29h-86q-31 0 -19 29l219 483h-208q-31 0 -31 31v61q0 31 31 31h325q31 0 31 -31v-59z" glyph-name="seven.numr" horiz-adv-x="632"/><glyph d="M535 1035q0 -71 -50.5 -127t-130.5 -56h-51q-80 0 -130 57t-50 127t70 133q-70 63 -70 134t50 127.5t130 56.5h51q80 0 130.5 -56.5t50.5 -127.5t-70 -134q70 -63 70 -134zM332 1223q33 0 55.5 21.5t22.5 54t-24 52t-58 19.5t-57 -19.5t-23 -52t22.5 -54t55.5 -21.5h6z M328 969q35 0 58.5 19.5t23.5 52t-22.5 54t-55.5 21.5h-6q-33 0 -55.5 -21.5t-22.5 -54t22.5 -52t57.5 -19.5z" glyph-name="eight.numr" horiz-adv-x="657"/><glyph d="M123 1296q0 78 50 135.5t130 57.5h51q70 0 113 -47.5t53 -109.5t10 -195q0 -209 -112 -260q-133 -61 -264 24q-23 16 -13 41l13 41q8 33 41 14q68 -45 157 -28q55 12 60 67l2 54q-45 -23 -168 -11t-123 217zM329 1372q-81 0 -81 -95t81 -95t81 95t-81 95z" glyph-name="nine.numr" horiz-adv-x="653"/></font>
</defs>
</svg>
