<svg xmlns="http://www.w3.org/2000/svg" viewBox="0 0 612 1224"><defs><style>.cls-1{fill:#fff}</style></defs><g id="Layer_2" data-name="Layer 2"><g id="Layer_1-2" data-name="Layer 1"><path class="cls-1" d="M0 0v612h235.66v3.3a70.17 70.17 0 00140.34 0V612h236V0z"/><path d="M306 523.52l-5.85 3.48 1.1.47 4.75-2.69v5.38l195.37-112.63v-12.18L306 517.98v5.54zm0-37.02l-37.97 21.99 1.9.95L306 488.71v4.43l195.37-112.63v-11.39L306 481.91v4.59zm0-37.02l-69.92 40.34 2.53 1.58L306 452.49v3.64l195.37-112.64v-10.44L306 445.84v3.64zm63.44-152.97l-21.36-12.34 153.45-88.59-.16-3.8-2.85-1.58-156.45 90.17-20.25-11.55 47.46-27.52v-7L472.1 175l-5.1-2.83-97.92 56.47v-5.85l-63.59 36.7-22-12.81L440 156.35l-4.28-2.35-156.14 90.3-21.35-12.3 34.64-20.09-6.49-3.79L408 137.84l-3.48-2.06-121.62 70.56-6.17-3.48-34.8 20.14v7.12l-32.59 18.82-2.34-1.47L110.47 303v9.65l104.73-60.59-2.38-1.43 29.11-16.77v7.44l21.52 12.34-22.63 13.13-1.58-.95-128.61 74.35v8.54l136.05-78.46-1.58-.95 22.62-13.13 22 12.81-47.62 27.37v5.06l-131.47 75.94v7.59L242.09 309v5.85l20.41 11.71-151.87 87.8v3.33l3 1.74 154.72-89.23 21 12.18-47.3 27.06v6.17l-102.19 59 5.06 2.85 97.13-56.16v7.12l63.75-36.86 19.2 11.07-18.82 10.92v1.9L171.85 453l4.27 2.38 129.88-75v1.9l26.42-15.19 20.88 12-34 19.77 3 1.74-16.13 9.33v2.69l-102.2 59 3.48 2.06 98.72-56.95v2.69l24.36-14.08 4.75 2.84 34-19.61v-5.7l132.25-76.25V297l-132.09 76.39v-3.48l-20.89-12 153-88.27v-8.55l-160.27 92.53-19.14-11.08 47.3-27.54v-6.33l132.09-76.07V225l-132.09 76.25zm-111.21 9L305.68 278l20.25 11.71-22.62 13.13-24.84 14.23zm47.14 27.36l-21.2-12.18L306 308.06l25.63-14.87 21.51 12.34zM180.71 232.28l195.21-112.79-2.53-1.58L178.02 230.7l-3.16-1.9-64.39 37.18v10.44l73.4-42.4-3.16-1.74zm-32.11-18.51l195.37-112.79-1.9-1.11L146.7 212.66l-3.96-2.37-32.27 18.67v11.23l42.08-24.2-3.95-2.22zm-32.12-18.51L311.85 82.47l-1.1-.63-195.37 112.79-4.75-2.85-.16.16v12.18l10.76-6.17-4.75-2.69z" fill="#282828"/><path d="M376 612v3.3a70.17 70.17 0 01-140.34 0V612H0v612h612V612z"/><path class="cls-1" d="M142.16 941.81h40.56l27.69 147.47h.5l33.28-147.47h37.94l30.06 149.28h.59l31.56-149.28h39.78l-51.69 216.69h-40.25L262.37 1011h-.78l-31.91 147.5h-41zm287.69 0h63.94l63.5 216.69h-41.84l-13.81-48.22H428.8l-10.66 48.22h-40.75zm24.34 53.41l-17.69 79.5h55.06l-20.31-79.5z"/></g></g></svg>