<svg width="80" height="80" viewBox="0 0 80 80" xmlns="http://www.w3.org/2000/svg"><path d="M40 0a1.74 1.74 0 100 3.478A1.74 1.74 0 0040 0zm-7.48.696a1.74 1.74 0 100 3.479 1.74 1.74 0 000-3.479zm14.96 0a1.74 1.74 0 100 3.479 1.74 1.74 0 000-3.479zm-22.09 2.26a1.74 1.74 0 100 3.477 1.74 1.74 0 000-3.478zm29.22 0a1.74 1.74 0 100 3.477 1.74 1.74 0 000-3.478zM18.783 6.432a1.74 1.74 0 100 3.479 1.74 1.74 0 000-3.479zm42.432 0a1.74 1.74 0 100 3.479 1.74 1.74 0 000-3.479zM40 10.435c-16.298 0-29.565 13.267-29.565 29.565 0 16.298 13.267 29.565 29.565 29.565 16.298 0 29.565-13.267 29.565-29.565 0-16.298-13.267-29.565-29.565-29.565zm-27.13.696a1.74 1.74 0 100 3.478 1.74 1.74 0 000-3.478zm54.26 0a1.74 1.74 0 100 3.478 1.74 1.74 0 000-3.478zM40 15.652c13.478 0 24.348 10.87 24.348 24.348S53.478 64.348 40 64.348 15.652 53.478 15.652 40 26.522 15.652 40 15.652zM8.173 17.045a1.74 1.74 0 100 3.478 1.74 1.74 0 000-3.478zm63.654 0a1.74 1.74 0 100 3.478 1.74 1.74 0 000-3.478zM40 22.609c-9.543 0-17.391 7.848-17.391 17.391S30.457 57.391 40 57.391 57.391 49.543 57.391 40 49.543 22.609 40 22.609zM4.694 23.65a1.74 1.74 0 100 3.479 1.74 1.74 0 000-3.479zm70.612 0a1.74 1.74 0 100 3.479 1.74 1.74 0 000-3.479zm-72.87 7.13a1.74 1.74 0 100 3.479 1.74 1.74 0 000-3.479zm75.129 0a1.74 1.74 0 100 3.479 1.74 1.74 0 000-3.479zM40 33.043c3.904 0 6.957 3.053 6.957 6.957S43.904 46.957 40 46.957 33.043 43.904 33.043 40s3.053-6.957 6.957-6.957zM1.74 38.261a1.74 1.74 0 100 3.478 1.74 1.74 0 000-3.478zm76.52 0a1.74 1.74 0 100 3.478 1.74 1.74 0 000-3.478zM2.436 45.74a1.74 1.74 0 100 3.478 1.74 1.74 0 000-3.479zm75.13 0a1.74 1.74 0 100 3.478 1.74 1.74 0 000-3.479zm-72.87 7.13a1.74 1.74 0 100 3.478 1.74 1.74 0 000-3.479zm70.61 0a1.74 1.74 0 100 3.478 1.74 1.74 0 000-3.479zM8.174 59.476a1.74 1.74 0 100 3.478 1.74 1.74 0 000-3.478zm63.654 0a1.74 1.74 0 100 3.478 1.74 1.74 0 000-3.478zM12.87 65.39a1.74 1.74 0 100 3.478 1.74 1.74 0 000-3.478zm54.26 0a1.74 1.74 0 100 3.478 1.74 1.74 0 000-3.478zm-48.346 4.697a1.74 1.74 0 100 3.479 1.74 1.74 0 000-3.479zm42.432 0a1.74 1.74 0 100 3.479 1.74 1.74 0 000-3.479zm-35.825 3.479a1.74 1.74 0 100 3.478 1.74 1.74 0 000-3.478zm29.218 0a1.74 1.74 0 100 3.478 1.74 1.74 0 000-3.478zM32.52 75.825a1.74 1.74 0 100 3.479 1.74 1.74 0 000-3.479zm14.96 0a1.74 1.74 0 100 3.479 1.74 1.74 0 000-3.479zm-7.48.697A1.74 1.74 0 1040 80a1.74 1.74 0 000-3.478z" fill="#ff1864"/></svg>