<svg width="85" height="81" viewBox="0 0 85 81" xmlns="http://www.w3.org/2000/svg"><path d="M18.803 0C9.563 0 2.025 7.537 2.025 16.778c0 9.24 7.537 16.778 16.778 16.778s16.778-7.537 16.778-16.778S28.044 0 18.803 0zM52.36 1.864v29.828h29.827V1.864H52.36zM18.803 3.728a13.02 13.02 0 0113.05 13.05 13.02 13.02 0 01-13.05 13.05 13.019 13.019 0 01-13.05-13.05 13.02 13.02 0 0113.05-13.05zM56.88 46.61h20.788l6.505 21.04-16.9 12.912L50.375 67.65l6.505-21.039zm2.55 3.724l-4.907 15.875 12.75 9.743 12.752-9.743-4.908-15.875H59.43zM18.8 46.346L.531 78.296H36.84L18.8 46.347zm.003 7.745l11.703 20.477H7.108l11.695-20.477z" fill="#ff1864"/></svg>