<svg width="80" height="80" viewBox="0 0 80 80" xmlns="http://www.w3.org/2000/svg"><path d="M11.429 0C5.139 0 0 5.14 0 11.429c0 6.289 5.14 11.428 11.429 11.428 6.289 0 11.428-5.14 11.428-11.428C22.857 5.139 17.717 0 11.43 0zM40 0c-6.29 0-11.429 5.14-11.429 11.429 0 6.289 5.14 11.428 11.429 11.428 6.29 0 11.429-5.14 11.429-11.428C51.429 5.139 46.289 0 40 0zm28.571 0c-6.289 0-11.428 5.14-11.428 11.429 0 6.289 5.14 11.428 11.428 11.428 6.29 0 11.429-5.14 11.429-11.428C80 5.139 74.86 0 68.571 0zM40 3.81a7.59 7.59 0 017.619 7.619A7.59 7.59 0 0140 19.048a7.59 7.59 0 01-7.619-7.62A7.59 7.59 0 0140 3.81zm28.571 0a7.59 7.59 0 017.62 7.619 7.59 7.59 0 01-7.62 7.619 7.59 7.59 0 01-7.619-7.62 7.59 7.59 0 017.62-7.618zM11.43 28.57C5.139 28.571 0 33.711 0 40c0 6.29 5.14 11.429 11.429 11.429 6.289 0 11.428-5.14 11.428-11.429 0-6.29-5.14-11.429-11.428-11.429zm28.571 0c-6.29 0-11.429 5.14-11.429 11.429 0 6.29 5.14 11.429 11.429 11.429 6.29 0 11.429-5.14 11.429-11.429 0-6.29-5.14-11.429-11.429-11.429zm28.571 0c-6.289 0-11.428 5.14-11.428 11.429 0 6.29 5.14 11.429 11.428 11.429C74.861 51.429 80 46.289 80 40c0-6.29-5.14-11.429-11.429-11.429zM11.43 32.38A7.59 7.59 0 0119.048 40a7.59 7.59 0 01-7.62 7.619A7.59 7.59 0 013.81 40a7.59 7.59 0 017.619-7.619zm57.142 0A7.59 7.59 0 0176.191 40a7.59 7.59 0 01-7.62 7.619A7.59 7.59 0 0160.952 40a7.59 7.59 0 017.62-7.619zM11.43 57.143C5.139 57.143 0 62.283 0 68.57 0 74.861 5.14 80 11.429 80c6.289 0 11.428-5.14 11.428-11.429 0-6.289-5.14-11.428-11.428-11.428zm28.571 0c-6.29 0-11.429 5.14-11.429 11.428C28.571 74.861 33.711 80 40 80c6.29 0 11.429-5.14 11.429-11.429 0-6.289-5.14-11.428-11.429-11.428zm28.571 0c-6.289 0-11.428 5.14-11.428 11.428 0 6.29 5.14 11.429 11.428 11.429C74.861 80 80 74.86 80 68.571c0-6.289-5.14-11.428-11.429-11.428zm-57.142 3.81a7.59 7.59 0 017.619 7.618 7.59 7.59 0 01-7.62 7.62 7.59 7.59 0 01-7.618-7.62 7.59 7.59 0 017.619-7.619zm28.571 0a7.59 7.59 0 017.619 7.618 7.59 7.59 0 01-7.62 7.62 7.59 7.59 0 01-7.619-7.62A7.59 7.59 0 0140 60.952z" fill="#ff1864"/></svg>