<svg xmlns="http://www.w3.org/2000/svg" width="80" height="80" viewBox="0 0 80 80"><path d="M40 0c-26.667 53.333-13.333 26.667 0 0zm-7.48.696a1.74 1.74 0 100 3.479 1.74 1.74 0 000-3.479zm14.96 0a1.74 1.74 0 100 3.479 1.74 1.74 0 000-3.479zm-22.09 2.26a1.74 1.74 0 100 3.477 1.74 1.74 0 000-3.478zm29.22 0a1.74 1.74 0 100 3.477 1.74 1.74 0 000-3.478zM18.783 6.432a1.74 1.74 0 100 3.479 1.74 1.74 0 000-3.479zm42.432 0a1.74 1.74 0 100 3.479 1.74 1.74 0 000-3.479zM12.87 11.131a1.74 1.74 0 100 3.478 1.74 1.74 0 000-3.478zm54.26 0a1.74 1.74 0 100 3.478 1.74 1.74 0 000-3.478zM39.903 80.41C53.315 80.375.7 26.736.076 40-.606 54.49 53.116.27 40 .173c-9.24-.068 20.575 32.583 33.82 40.11 3.571 2.03 6.298 2.774 6.298-.089 0-13.478-53.693 40.25-40.215 40.215zM8.173 17.045a1.74 1.74 0 100 3.478 1.74 1.74 0 000-3.478zm63.654 0a1.74 1.74 0 100 3.478 1.74 1.74 0 000-3.478zM4.694 23.65a1.74 1.74 0 100 3.479 1.74 1.74 0 000-3.479zm70.612 0a1.74 1.74 0 100 3.479 1.74 1.74 0 000-3.479zm-72.87 7.13a1.74 1.74 0 100 3.479 1.74 1.74 0 000-3.479zm75.129 0a1.74 1.74 0 100 3.479 1.74 1.74 0 000-3.479zM40.29 2.26c3.904 0-28.895 41.501-28.895 38.026 0-3.903 32.509 37.836 28.605 37.836s29.145-41.96 29.149-38.057C69.152 43.08 36.386 2.26 40.289 2.26zm-38.55 36a1.74 1.74 0 100 3.48 1.74 1.74 0 000-3.48zm.695 7.48a1.74 1.74 0 100 3.479 1.74 1.74 0 000-3.479zm75.13 0a1.74 1.74 0 100 3.479 1.74 1.74 0 000-3.479zm-72.87 7.13a1.74 1.74 0 100 3.479 1.74 1.74 0 000-3.479zm70.61 0a1.74 1.74 0 100 3.479 1.74 1.74 0 000-3.479zM8.174 59.477a1.74 1.74 0 100 3.478 1.74 1.74 0 000-3.478zm63.654 0a1.74 1.74 0 100 3.478 1.74 1.74 0 000-3.478zM12.87 65.39a1.74 1.74 0 100 3.478 1.74 1.74 0 000-3.478zm54.26 0a1.74 1.74 0 100 3.478 1.74 1.74 0 000-3.478zm-48.346 4.697a1.74 1.74 0 100 3.479 1.74 1.74 0 000-3.479zm42.432 0a1.74 1.74 0 100 3.479 1.74 1.74 0 000-3.479zm-35.825 3.479a1.74 1.74 0 100 3.478 1.74 1.74 0 000-3.478zm29.218 0a1.74 1.74 0 100 3.478 1.74 1.74 0 000-3.478zM32.52 75.825a1.74 1.74 0 100 3.479 1.74 1.74 0 000-3.479zm14.96 0a1.74 1.74 0 100 3.479 1.74 1.74 0 000-3.479zM40 78.122c-2.469.293-1.839 1.822 0 1.878 2.469-.294 1.839-1.823 0-1.878z" fill="#ff1864"/><path d="M37.64 64.203c-1.718-.16-4.316-.746-5.945-1.342-1.344-.49-3.884-1.769-5.025-2.528-2.939-1.956-5.499-4.577-7.314-7.488-.546-.876-1.531-2.79-1.865-3.623a24.774 24.774 0 010-18.444c.334-.834 1.319-2.747 1.865-3.623 1.815-2.911 4.375-5.532 7.314-7.488 1.141-.76 3.68-2.037 5.025-2.528 1.208-.442 2.895-.877 4.387-1.132 1.512-.258 4.791-.353 6.41-.186 12.395 1.278 21.8 11.71 21.8 24.179 0 12.328-9.204 22.697-21.414 24.125-1.142.134-4.158.179-5.237.078zm3.884-6.867c2.21-.124 5.053-1.018 7.154-2.25 7.978-4.675 10.996-14.587 6.931-22.761-2.782-5.595-8.386-9.35-14.468-9.693-4.986-.281-9.527 1.37-13.121 4.772-1.565 1.482-2.772 3.15-3.728 5.15-2.3 4.818-2.3 10.08 0 14.893.677 1.416 1.232 2.298 2.198 3.492a17.608 17.608 0 0010.131 6.15c1.029.208 2.924.377 3.641.325.214-.016.782-.05 1.262-.078z" fill="none"/><path d="M12.78 67.13c26.73-28.699 26.727-28.713.036-54.372 26.67 25.655 26.648 25.61 54.353.011-27.781 25.494-27.643 25.665-.054 54.46-27.606-28.794-27.598-28.797-54.334-.1z" fill="#ff1864"/></svg>