<svg xmlns="http://www.w3.org/2000/svg" xmlns:xlink="http://www.w3.org/1999/xlink" version="1.1" fill-rule="evenodd" fill="none" stroke="none" stroke-linecap="square" stroke-miterlimit="10" overflow="hidden" viewBox="54864 6477 421767 236601"><rect fill="#ffffff" fill-opacity="0" width="100%" height="100%"></rect><g transform="translate(6477 32004) scale(0.903125)"><defs cursor="default"></defs><g id="editor-g5995eafb7f_0_0"><path fill="#fff" fill-opacity="1" d="M 0 0 L 365760 0 365760 205740 0 205740 Z"></path><g id="editor-g5995eafb7f_0_0-bg"><g><g><path d="M 0 0 L 365760 0 365760 205740 0 205740 Z"></path></g></g></g><g id="editor-g5995eafb7f_0_2"><g><g></g><g><path stroke="#303030" stroke-opacity="1" stroke-width="381" stroke-linecap="butt" stroke-linejoin="round" stroke-miterlimit="8" d="M 118029.2164 32606 L 293541.21640000003 32606 293541.21640000003 180482 118029.2164 180482 Z"></path></g><g><path fill="#000" fill-opacity="0" stroke="#000" stroke-opacity="0" stroke-width="4218.685121107266" stroke-linecap="round" stroke-linejoin="round" stroke-miterlimit="10" pointer-events="visiblePainted" d="M 118029.2164 32606 L 293541.21640000003 32606 293541.21640000003 180482 118029.2164 180482 Z"></path></g><g><g direction="ltr" style="opacity: 1;"><g transform="matrix(381,0,0,381.0000000000002,121686.2164,36263)"><g pointer-events="none"><g id="editor-g5995eafb7f_0_2-paragraph-0"><g><g class="sketchy-text-background" visibility="visible"></g><g></g><g class="sketchy-text-content" visibility="visible"><g class="sketchy-text-content-text" transform="translate(0 17.919999999999998)"><text x="0px" style="font-family:docs-Roboto;font-size:18.666666666666664px;fill:#303030;white-space:pre;" y="0px" text-rendering="geometricPrecision">Substrate</text><text x="84.22633361816406px" style="font-family:docs-Roboto;font-size:18.666666666666664px;fill:#303030;white-space:pre;" y="0px" text-rendering="geometricPrecision">Node</text></g></g></g></g></g><rect style="opacity: 0;"></rect><rect style="opacity: 1;"></rect></g><g><path d="M 121686.2164 36263 L 170671.90660080567 36263 170671.90660080567 44797.4 121686.2164 44797.4 Z" pointer-events="visiblePainted" fill="#000000" stroke="#000000" opacity="0"></path></g><g transform="matrix(381,0,0,381.0000000000002,121686.2164,36263)"></g></g></g></g></g><g id="editor-g5995eafb7f_0_41"><g><g></g><g><path d="M 193428.8741 79925.868 L 225552.8741 79925.868 225552.8741 109301.868 193428.8741 109301.868 Z"></path></g><g><path fill="#000" fill-opacity="0" stroke="#000" stroke-opacity="0" stroke-width="4218.685121107266" stroke-linecap="round" stroke-linejoin="round" stroke-miterlimit="10" pointer-events="visiblePainted" d="M 193428.8741 79925.868 L 225552.8741 79925.868 225552.8741 109301.868 193428.8741 109301.868 Z"></path></g><g><g direction="ltr" style="opacity: 1;"><g transform="matrix(381,0,0,381,197085.8741,83582.868)"><g pointer-events="none"><g id="editor-g5995eafb7f_0_41-paragraph-0"><g><g class="sketchy-text-background" visibility="visible"></g><g></g><g class="sketchy-text-content" visibility="visible"><g class="sketchy-text-content-text" transform="translate(0 12.799999999999999)"><text x="3.2409210205078125px" style="font-family:docs-Roboto;font-size:13.333333333333332px;fill:#303030;font-weight:300;white-space:pre;" y="0px" text-rendering="geometricPrecision">Extrinsics</text></g></g></g></g><g id="editor-g5995eafb7f_0_41-paragraph-1" transform="translate(0, 16)"><g><g class="sketchy-text-background" visibility="visible"></g><g></g><g class="sketchy-text-content" visibility="visible"><g class="sketchy-text-content-text" transform="translate(0 12.799999999999999)"><text x="0px" style="font-family:docs-Roboto;font-size:13.333333333333332px;fill:#303030;font-weight:300;white-space:pre;" y="0px" text-rendering="geometricPrecision">(Signed</text></g></g></g></g><g id="editor-g5995eafb7f_0_41-paragraph-2" transform="translate(0, 32)"><g><g class="sketchy-text-background" visibility="visible"></g><g></g><g class="sketchy-text-content" visibility="visible"><g class="sketchy-text-content-text" transform="translate(0 12.799999999999999)"><text x="3.2409210205078125px" style="font-family:docs-Roboto;font-size:13.333333333333332px;fill:#303030;font-weight:300;white-space:pre;" y="0px" text-rendering="geometricPrecision">or</text></g></g></g></g><g id="editor-g5995eafb7f_0_41-paragraph-3" transform="translate(0, 48)"><g><g class="sketchy-text-background" visibility="visible"></g><g></g><g class="sketchy-text-content" visibility="visible"><g class="sketchy-text-content-text" transform="translate(0 12.799999999999999)"><text x="3.2409210205078125px" style="font-family:docs-Roboto;font-size:13.333333333333332px;fill:#303030;font-weight:300;white-space:pre;" y="0px" text-rendering="geometricPrecision">Inherents)</text></g></g></g></g></g><rect style="opacity: 0;"></rect><rect style="opacity: 1;"></rect></g><g><path d="M 197085.8741 83582.868 L 220802.29856899413 83582.868 220802.29856899413 107966.868 197085.8741 107966.868 Z" pointer-events="visiblePainted" fill="#000000" stroke="#000000" opacity="0"></path></g><g transform="matrix(381,0,0,381,197085.8741,83582.868)"></g></g></g></g></g><g id="editor-g5995eafb7f_0_1"><g><g></g><g><path stroke="#303030" stroke-opacity="1" stroke-width="381" stroke-linecap="butt" stroke-linejoin="round" stroke-miterlimit="8" stroke-dasharray="1524,1143" d="M 319100.085 69344.7345 L 356324.085 69344.7345 356324.085 123140.7345 319100.085 123140.7345 Z"></path></g><g><path fill="#000" fill-opacity="0" stroke="#000" stroke-opacity="0" stroke-width="4218.685121107266" stroke-linecap="round" stroke-linejoin="round" stroke-miterlimit="10" pointer-events="visiblePainted" d="M 319100.085 69344.7345 L 356324.085 69344.7345 356324.085 123140.7345 319100.085 123140.7345 Z"></path></g><g><g direction="ltr" style="opacity: 1;"><g transform="matrix(381,0,0,381,322757.085,105005.7345)"><g pointer-events="none"><g id="editor-g5995eafb7f_0_1-paragraph-0"><g><g class="sketchy-text-background" visibility="visible"></g><g></g><g class="sketchy-text-content" visibility="visible"><g class="sketchy-text-content-text" transform="translate(0 15.36)"><text x="0px" style="font-family:docs-Roboto;font-size:16px;fill:#303030;white-space:pre;" y="0px" text-rendering="geometricPrecision">External</text></g></g></g><g transform="translate(0 19)"><g class="sketchy-text-background" visibility="visible"></g><g></g><g class="sketchy-text-content" visibility="visible"><g class="sketchy-text-content-text" transform="translate(0 15.36)"><text x="0px" style="font-family:docs-Roboto;font-size:16px;fill:#303030;white-space:pre;" y="0px" text-rendering="geometricPrecision">Services</text></g></g></g></g></g><rect style="opacity: 0;"></rect><rect style="opacity: 1;"></rect></g><g><path d="M 322757.085 105005.7345 L 345715.3115625 105005.7345 345715.3115625 119559.9345 322757.085 119559.9345 Z" pointer-events="visiblePainted" fill="#000000" stroke="#000000" opacity="0"></path></g><g transform="matrix(381,0,0,381,322757.085,105005.7345)"></g></g></g></g></g><g id="editor-g5995eafb7f_0_4"><g><g></g><g><path stroke="#303030" stroke-opacity="1" stroke-width="381" stroke-linecap="butt" stroke-linejoin="round" stroke-miterlimit="8" stroke-dasharray="1524,1143" d="M 150336.4336 53088.4057 L 193668.4336 53088.4057 193668.4336 128808.4057 150336.4336 128808.4057 Z"></path></g><g><path fill="#000" fill-opacity="0" stroke="#000" stroke-opacity="0" stroke-width="4218.685121107266" stroke-linecap="round" stroke-linejoin="round" stroke-miterlimit="10" pointer-events="visiblePainted" d="M 150336.4336 53088.4057 L 193668.4336 53088.4057 193668.4336 128808.4057 150336.4336 128808.4057 Z"></path></g><g><g direction="ltr" style="opacity: 1;"><g transform="matrix(381,0,0,381,153993.4336,82566.4057)"><g pointer-events="none"><g id="editor-g5995eafb7f_0_4-paragraph-0"><g><g class="sketchy-text-background" visibility="visible"></g><g></g><g class="sketchy-text-content" visibility="visible"><g class="sketchy-text-content-text" transform="translate(0 17.919999999999998)"><text x="0px" style="font-family:docs-Roboto;font-size:18.666666666666664px;fill:#303030;white-space:pre;" y="0px" text-rendering="geometricPrecision">Substrate</text></g></g></g><g transform="translate(0 22)"><g class="sketchy-text-background" visibility="visible"></g><g></g><g class="sketchy-text-content" visibility="visible"><g class="sketchy-text-content-text" transform="translate(0 17.919999999999998)"><text x="0px" style="font-family:docs-Roboto;font-size:18.666666666666664px;fill:#303030;white-space:pre;" y="0px" text-rendering="geometricPrecision">Runtime</text></g></g></g></g></g><rect style="opacity: 0;"></rect><rect style="opacity: 1;"></rect></g><g><path d="M 153993.4336 82566.4057 L 184324.01248793944 82566.4057 184324.01248793944 99482.8057 153993.4336 99482.8057 Z" pointer-events="visiblePainted" fill="#000000" stroke="#000000" opacity="0"></path></g><g transform="matrix(381,0,0,381,153993.4336,82566.4057)"></g></g></g></g></g><g id="editor-g5995eafb7f_0_5"><g><g></g><g><path stroke="#303030" stroke-opacity="1" stroke-width="381" stroke-linecap="butt" stroke-linejoin="round" stroke-miterlimit="8" d="M 56675 74325.3561 L 94151 74325.3561 94151 126105.3561 56675 126105.3561 Z"></path></g><g><path fill="#000" fill-opacity="0" stroke="#000" stroke-opacity="0" stroke-width="4218.685121107266" stroke-linecap="round" stroke-linejoin="round" stroke-miterlimit="10" pointer-events="visiblePainted" d="M 56675 74325.3561 L 94151 74325.3561 94151 126105.3561 56675 126105.3561 Z"></path></g><g><g direction="ltr" style="opacity: 1;"><g transform="matrix(381,0,0,381,60332,115209.3561)"><g pointer-events="none"><g id="editor-g5995eafb7f_0_5-paragraph-0"><g><g class="sketchy-text-background" visibility="visible"></g><g></g><g class="sketchy-text-content" visibility="visible"><g class="sketchy-text-content-text" transform="translate(0 15.36)"><text x="0px" style="font-family:docs-Roboto;font-size:16px;fill:#303030;white-space:pre;" y="0px" text-rendering="geometricPrecision">DApp</text></g></g></g></g></g><rect style="opacity: 0;"></rect><rect style="opacity: 1;"></rect></g><g><path d="M 60332 115209.3561 L 75083.84375 115209.3561 75083.84375 122524.5561 60332 122524.5561 Z" pointer-events="visiblePainted" fill="#000000" stroke="#000000" opacity="0"></path></g><g transform="matrix(381,0,0,381,60332,115209.3561)"></g></g></g></g></g><g id="editor-g5995eafb7f_0_6"><g><g></g><g><path stroke="#FE1864" stroke-opacity="1" stroke-width="381" stroke-linecap="butt" stroke-linejoin="round" stroke-miterlimit="8" stroke-dasharray="1524,1143" d="M 223505.5861 53088.4507 L 288713.58609999996 53088.4507 288713.58609999996 173772.4507 223505.5861 173772.4507 Z"></path></g><g><path fill="#000" fill-opacity="0" stroke="#000" stroke-opacity="0" stroke-width="4218.685121107266" stroke-linecap="round" stroke-linejoin="round" stroke-miterlimit="10" pointer-events="visiblePainted" d="M 223505.5861 53088.4507 L 288713.58609999996 53088.4507 288713.58609999996 173772.4507 223505.5861 173772.4507 Z"></path></g><g><g direction="ltr" style="opacity: 1;"><g transform="matrix(381,0,0,381.00000000000017,227162.5861,56745.4507)"><g pointer-events="none"><g id="editor-g5995eafb7f_0_6-paragraph-0"><g><g class="sketchy-text-background" visibility="visible"></g><g></g><g class="sketchy-text-content" visibility="visible"><g class="sketchy-text-content-text" transform="translate(0 17.919999999999998)"><text x="0px" style="font-family:docs-Roboto;font-size:18.666666666666664px;fill:#303030;white-space:pre;" y="0px" text-rendering="geometricPrecision">Off-chain</text></g></g></g></g><g id="editor-g5995eafb7f_0_6-paragraph-1" transform="translate(0, 22)"><g><g class="sketchy-text-background" visibility="visible"></g><g></g><g class="sketchy-text-content" visibility="visible"><g class="sketchy-text-content-text" transform="translate(0 17.919999999999998)"><text x="0px" style="font-family:docs-Roboto;font-size:18.666666666666664px;fill:#303030;white-space:pre;" y="0px" text-rendering="geometricPrecision">Workers</text></g></g></g></g></g><rect style="opacity: 0;"></rect><rect style="opacity: 1;"></rect></g><g><path d="M 227162.5861 56745.4507 L 256094.4945472656 56745.4507 256094.4945472656 73661.85070000001 227162.5861 73661.85070000001 Z" pointer-events="visiblePainted" fill="#000000" stroke="#000000" opacity="0"></path></g><g transform="matrix(381,0,0,381.00000000000017,227162.5861,56745.4507)"></g></g></g></g></g><g id="editor-g5995eafb7f_0_11"><g><g></g><g><path fill="#ADADAD" fill-opacity="1" stroke="#303030" stroke-opacity="1" stroke-width="381" stroke-linecap="butt" stroke-linejoin="round" stroke-miterlimit="8" d="M 345653.0297 80563.921 L 345901.9065 80640.4048 346214.6841 80801.8706 346466.9241 81039.8202 346655.2633 81354.2536 346779.7017 81749.4199 346843.6025 82068.1024 346843.6025 82463.2687 346779.7017 82781.9512 346719.1641 83096.3846 346591.3625 83334.3342 346403.0233 83572.2838 346214.6841 83810.2334 346026.34489999997 83967.4501 345777.4681 84048.183 345525.2281 84128.91589999999 345276.3513 84128.91589999999 344963.5737 84048.183 344711.3337 83890.9663 344398.5561 83653.0167 344210.2169 83257.8504 344085.7785 82939.1679 344021.8777 82544.0016 344021.8777 82225.3191 344085.7785 81910.8857 344146.3161 81592.2032 344274.1177 81277.7698 344459.09369999997 81039.8202 344647.4329 80878.3544 344835.7721 80721.13769999999 345088.0121 80563.921 Z M 344085.7785 77079.659 L 343897.43929999997 77156.1428 343268.5209 77555.5582 342642.9657 78027.2083 342518.5273 78188.6741 342454.6265 78426.6237 342454.6265 78660.3242 342518.5273 78821.79 342831.3049 79535.6388 342518.5273 80168.7547 342266.28729999997 80878.3544 341576.8313 80878.3544 341452.3929 80959.0873 341264.0537 81039.8202 341200.1529 81197.0369 341139.6153 81434.9865 341075.7145 82306.052 341139.6153 83257.8504 341200.1529 83415.0671 341264.0537 83572.2838 341452.3929 83729.5005 342266.28729999997 83729.5005 342518.5273 84443.3493 342831.3049 85076.4652 342518.5273 85790.314 342454.6265 86028.2636 342454.6265 86266.2132 342518.5273 86423.4299 342642.9657 86580.64660000001 343268.5209 87137.2787 343897.43929999997 87532.445 344210.2169 87532.445 344398.5561 87375.2283 344522.9945 87218.0116 344835.7721 86504.1628 345464.69049999997 86580.64660000001 346026.34489999997 86504.1628 346403.0233 87218.0116 346466.9241 87375.2283 346655.2633 87532.445 346968.0409 87532.445 347657.49689999997 87137.2787 348222.5145 86580.64660000001 348346.9529 86423.4299 348410.8537 86266.2132 348410.8537 86028.2636 348346.9529 85790.314 348034.1753 85076.4652 348346.9529 84443.3493 348659.7305 83729.5005 349476.9881 83729.5005 349601.4265 83572.2838 349725.8649 83415.0671 349789.7657 83257.8504 349850.30329999997 82306.052 349789.7657 81434.9865 349725.8649 81197.0369 349601.4265 81039.8202 349476.9881 80959.0873 349288.6489 80878.3544 348659.7305 80878.3544 348346.9529 80168.7547 348034.1753 79535.6388 348346.9529 78821.79 348410.8537 78660.3242 348410.8537 78426.6237 348346.9529 78188.6741 348222.5145 78027.2083 347657.49689999997 77555.5582 346968.0409 77156.1428 346779.7017 77079.659 346655.2633 77156.1428 346466.9241 77236.8757 346403.0233 77394.0924 346026.34489999997 78107.9412 345464.69049999997 78027.2083 344835.7721 78107.9412 344522.9945 77394.0924 344398.5561 77236.8757 344210.2169 77156.1428 344085.7785 77079.659 Z M 333427.7977 86108.9965 L 333928.9145 86185.4803 334430.0313 86423.4299 334870.6105 86742.1124 335243.9257 87137.2787 335560.0665 87613.1779 335808.9433 88165.5609 335997.2825 88798.6768 336061.1833 89436.0418 336061.1833 90145.6415 335933.38169999997 90859.4903 335684.5049 91573.3391 335307.82649999997 92287.1879 334742.8089 92758.838 334181.1545 92996.7876 333616.1369 93158.2534 333115.02009999997 93234.7372 332550.0025 93077.5205 332109.42329999997 92920.3038 331672.2073 92601.6213 331295.5289 92206.455 330918.8505 91649.8229 330669.9737 91097.4399 330542.17209999997 90540.8078 330417.7337 89907.6919 330481.6345 89198.0922 330606.07289999997 88484.2434 330858.3129 87770.3946 331171.0905 87056.54579999999 331736.1081 86580.64660000001 332361.6633 86266.2132 332862.7801 86108.9965 Z M 345653.0297 95295.55069999999 L 345901.9065 95372.03450000001 346214.6841 95533.5003 346466.9241 95771.4499 346655.2633 96085.8833 346779.7017 96481.0496 346843.6025 96799.7321 346843.6025 97194.8984 346779.7017 97513.5809 346719.1641 97828.0143 346591.3625 98065.9639 346403.0233 98303.9135 346214.6841 98541.8631 346026.34489999997 98699.0798 345777.4681 98779.8127 345525.2281 98860.5456 345276.3513 98860.5456 344963.5737 98779.8127 344711.3337 98622.596 344398.5561 98384.6464 344210.2169 97989.4801 344085.7785 97670.7976 344021.8777 97275.63130000001 344021.8777 96956.9488 344085.7785 96642.5154 344146.3161 96323.83290000001 344274.1177 96009.3995 344459.09369999997 95771.4499 344647.4329 95609.9841 344835.7721 95452.7674 345088.0121 95295.55069999999 Z M 332486.1017 78583.8404 L 331796.6457 78741.0571 331483.86809999996 78898.2738 331231.6281 79136.2234 331046.6521 79454.9059 330982.7513 79930.8051 330982.7513 81592.2032 330417.7337 81830.1528 329852.7161 82225.3191 329351.5993 82620.4854 328850.4825 83096.3846 327723.8105 82306.052 327407.66969999997 82148.8353 327094.8921 82148.8353 326782.11449999997 82306.052 326529.8745 82544.0016 326028.7577 83334.3342 325591.5417 84128.91589999999 325214.86329999997 84919.2485 324902.0857 85790.314 324838.1849 86266.2132 324902.0857 86661.3795 325026.5241 86980.062 325278.7641 87218.0116 326593.7753 88089.0771 326529.8745 88879.4097 326469.3369 89669.7423 326529.8745 90464.324 326593.7753 91254.6566 325278.7641 92049.2383 325026.5241 92363.6717 324902.0857 92682.3542 324838.1849 93077.5205 324902.0857 93472.6868 325214.86329999997 94343.7523 325591.5417 95214.8178 326028.7577 96009.3995 326529.8745 96718.9992 326782.11449999997 97037.6817 327094.8921 97118.4146 327407.66969999997 97118.4146 327723.8105 97037.6817 328850.4825 96166.6162 329351.5993 96642.5154 329852.7161 97118.4146 330417.7337 97432.848 330982.7513 97751.5305 330982.7513 99412.9286 331046.6521 99808.0949 331231.6281 100207.5103 331483.86809999996 100441.2108 331796.6457 100602.6766 332550.0025 100679.1604 333303.3593 100759.8933 334053.3529 100679.1604 334742.8089 100602.6766 335055.5865 100441.2108 335307.82649999997 100207.5103 335496.1657 99808.0949 335560.0665 99412.9286 335560.0665 97751.5305 336121.7209 97432.848 336686.7385 97118.4146 337187.8553 96642.5154 337688.9721 96166.6162 338819.0073 97037.6817 339131.78489999997 97118.4146 339444.5625 97118.4146 339757.3401 97037.6817 340009.5801 96718.9992 340510.6969 96009.3995 340951.2761 95214.8178 341324.5913 94343.7523 341640.7321 93472.6868 341701.2697 93077.5205 341701.2697 92682.3542 341512.9305 92287.1879 341264.0537 92049.2383 339945.6793 91254.6566 340009.5801 90464.324 340073.48089999997 89669.7423 340009.5801 88879.4097 339945.6793 88089.0771 341264.0537 87218.0116 341512.9305 86980.062 341640.7321 86661.3795 341701.2697 86185.4803 341640.7321 85790.314 341324.5913 84919.2485 340951.2761 84128.91589999999 340450.1593 83334.3342 340009.5801 82544.0016 339757.3401 82306.052 339444.5625 82148.8353 339131.78489999997 82148.8353 338819.0073 82306.052 337688.9721 83096.3846 337187.8553 82620.4854 336686.7385 82225.3191 336121.7209 81830.1528 335560.0665 81592.2032 335560.0665 79930.8051 335496.1657 79454.9059 335307.82649999997 79136.2234 335055.5865 78898.2738 334742.8089 78741.0571 333992.8153 78583.8404 Z M 344085.7785 91811.2887 L 343897.43929999997 91887.77249999999 343268.5209 92287.1879 342642.9657 92758.838 342518.5273 92920.3038 342454.6265 93158.2534 342454.6265 93396.203 342518.5273 93553.4197 342831.3049 94267.2685 342518.5273 94900.3844 342266.28729999997 95609.9841 341576.8313 95609.9841 341452.3929 95690.717 341264.0537 95771.4499 341200.1529 95928.6666 341139.6153 96166.6162 341075.7145 97037.6817 341139.6153 97989.4801 341200.1529 98227.42970000001 341264.0537 98384.6464 341452.3929 98461.1302 342266.28729999997 98461.1302 342518.5273 99174.97899999999 342831.3049 99808.0949 342518.5273 100521.9437 342454.6265 100759.8933 342454.6265 100997.8429 342518.5273 101155.05960000001 342642.9657 101312.2763 343268.5209 101868.9084 343897.43929999997 102264.0747 344210.2169 102264.0747 344398.5561 102187.5909 344522.9945 101949.6413 344835.7721 101312.2763 346026.34489999997 101312.2763 346403.0233 101949.6413 346466.9241 102187.5909 346655.2633 102264.0747 346968.0409 102264.0747 347657.49689999997 101868.9084 348222.5145 101312.2763 348346.9529 101155.05960000001 348410.8537 100997.8429 348410.8537 100759.8933 348346.9529 100521.9437 348034.1753 99808.0949 348346.9529 99174.97899999999 348659.7305 98461.1302 349476.9881 98461.1302 349601.4265 98384.6464 349725.8649 98146.6968 349789.7657 97989.4801 349850.30329999997 97037.6817 349789.7657 96166.6162 349725.8649 95928.6666 349601.4265 95771.4499 349476.9881 95690.717 349288.6489 95609.9841 348659.7305 95609.9841 348346.9529 94900.3844 348034.1753 94267.2685 348346.9529 93553.4197 348410.8537 93396.203 348410.8537 93158.2534 348346.9529 92920.3038 348222.5145 92758.838 347657.49689999997 92287.1879 346968.0409 91887.77249999999 346779.7017 91811.2887 346655.2633 91887.77249999999 346466.9241 91968.5054 346403.0233 92125.7221 346026.34489999997 92839.5709 345464.69049999997 92758.838 344835.7721 92839.5709 344522.9945 92125.7221 344398.5561 91968.5054 344210.2169 91887.77249999999 344085.7785 91811.2887 Z"></path></g><g><path fill="#000" fill-opacity="0" stroke="#000" stroke-opacity="0" stroke-width="4218.685121107266" stroke-linecap="round" stroke-linejoin="round" stroke-miterlimit="10" pointer-events="visiblePainted" d="M 345653.0297 80563.921 L 345901.9065 80640.4048 346214.6841 80801.8706 346466.9241 81039.8202 346655.2633 81354.2536 346779.7017 81749.4199 346843.6025 82068.1024 346843.6025 82463.2687 346779.7017 82781.9512 346719.1641 83096.3846 346591.3625 83334.3342 346403.0233 83572.2838 346214.6841 83810.2334 346026.34489999997 83967.4501 345777.4681 84048.183 345525.2281 84128.91589999999 345276.3513 84128.91589999999 344963.5737 84048.183 344711.3337 83890.9663 344398.5561 83653.0167 344210.2169 83257.8504 344085.7785 82939.1679 344021.8777 82544.0016 344021.8777 82225.3191 344085.7785 81910.8857 344146.3161 81592.2032 344274.1177 81277.7698 344459.09369999997 81039.8202 344647.4329 80878.3544 344835.7721 80721.13769999999 345088.0121 80563.921 Z M 344085.7785 77079.659 L 343897.43929999997 77156.1428 343268.5209 77555.5582 342642.9657 78027.2083 342518.5273 78188.6741 342454.6265 78426.6237 342454.6265 78660.3242 342518.5273 78821.79 342831.3049 79535.6388 342518.5273 80168.7547 342266.28729999997 80878.3544 341576.8313 80878.3544 341452.3929 80959.0873 341264.0537 81039.8202 341200.1529 81197.0369 341139.6153 81434.9865 341075.7145 82306.052 341139.6153 83257.8504 341200.1529 83415.0671 341264.0537 83572.2838 341452.3929 83729.5005 342266.28729999997 83729.5005 342518.5273 84443.3493 342831.3049 85076.4652 342518.5273 85790.314 342454.6265 86028.2636 342454.6265 86266.2132 342518.5273 86423.4299 342642.9657 86580.64660000001 343268.5209 87137.2787 343897.43929999997 87532.445 344210.2169 87532.445 344398.5561 87375.2283 344522.9945 87218.0116 344835.7721 86504.1628 345464.69049999997 86580.64660000001 346026.34489999997 86504.1628 346403.0233 87218.0116 346466.9241 87375.2283 346655.2633 87532.445 346968.0409 87532.445 347657.49689999997 87137.2787 348222.5145 86580.64660000001 348346.9529 86423.4299 348410.8537 86266.2132 348410.8537 86028.2636 348346.9529 85790.314 348034.1753 85076.4652 348346.9529 84443.3493 348659.7305 83729.5005 349476.9881 83729.5005 349601.4265 83572.2838 349725.8649 83415.0671 349789.7657 83257.8504 349850.30329999997 82306.052 349789.7657 81434.9865 349725.8649 81197.0369 349601.4265 81039.8202 349476.9881 80959.0873 349288.6489 80878.3544 348659.7305 80878.3544 348346.9529 80168.7547 348034.1753 79535.6388 348346.9529 78821.79 348410.8537 78660.3242 348410.8537 78426.6237 348346.9529 78188.6741 348222.5145 78027.2083 347657.49689999997 77555.5582 346968.0409 77156.1428 346779.7017 77079.659 346655.2633 77156.1428 346466.9241 77236.8757 346403.0233 77394.0924 346026.34489999997 78107.9412 345464.69049999997 78027.2083 344835.7721 78107.9412 344522.9945 77394.0924 344398.5561 77236.8757 344210.2169 77156.1428 344085.7785 77079.659 Z M 333427.7977 86108.9965 L 333928.9145 86185.4803 334430.0313 86423.4299 334870.6105 86742.1124 335243.9257 87137.2787 335560.0665 87613.1779 335808.9433 88165.5609 335997.2825 88798.6768 336061.1833 89436.0418 336061.1833 90145.6415 335933.38169999997 90859.4903 335684.5049 91573.3391 335307.82649999997 92287.1879 334742.8089 92758.838 334181.1545 92996.7876 333616.1369 93158.2534 333115.02009999997 93234.7372 332550.0025 93077.5205 332109.42329999997 92920.3038 331672.2073 92601.6213 331295.5289 92206.455 330918.8505 91649.8229 330669.9737 91097.4399 330542.17209999997 90540.8078 330417.7337 89907.6919 330481.6345 89198.0922 330606.07289999997 88484.2434 330858.3129 87770.3946 331171.0905 87056.54579999999 331736.1081 86580.64660000001 332361.6633 86266.2132 332862.7801 86108.9965 Z M 345653.0297 95295.55069999999 L 345901.9065 95372.03450000001 346214.6841 95533.5003 346466.9241 95771.4499 346655.2633 96085.8833 346779.7017 96481.0496 346843.6025 96799.7321 346843.6025 97194.8984 346779.7017 97513.5809 346719.1641 97828.0143 346591.3625 98065.9639 346403.0233 98303.9135 346214.6841 98541.8631 346026.34489999997 98699.0798 345777.4681 98779.8127 345525.2281 98860.5456 345276.3513 98860.5456 344963.5737 98779.8127 344711.3337 98622.596 344398.5561 98384.6464 344210.2169 97989.4801 344085.7785 97670.7976 344021.8777 97275.63130000001 344021.8777 96956.9488 344085.7785 96642.5154 344146.3161 96323.83290000001 344274.1177 96009.3995 344459.09369999997 95771.4499 344647.4329 95609.9841 344835.7721 95452.7674 345088.0121 95295.55069999999 Z M 332486.1017 78583.8404 L 331796.6457 78741.0571 331483.86809999996 78898.2738 331231.6281 79136.2234 331046.6521 79454.9059 330982.7513 79930.8051 330982.7513 81592.2032 330417.7337 81830.1528 329852.7161 82225.3191 329351.5993 82620.4854 328850.4825 83096.3846 327723.8105 82306.052 327407.66969999997 82148.8353 327094.8921 82148.8353 326782.11449999997 82306.052 326529.8745 82544.0016 326028.7577 83334.3342 325591.5417 84128.91589999999 325214.86329999997 84919.2485 324902.0857 85790.314 324838.1849 86266.2132 324902.0857 86661.3795 325026.5241 86980.062 325278.7641 87218.0116 326593.7753 88089.0771 326529.8745 88879.4097 326469.3369 89669.7423 326529.8745 90464.324 326593.7753 91254.6566 325278.7641 92049.2383 325026.5241 92363.6717 324902.0857 92682.3542 324838.1849 93077.5205 324902.0857 93472.6868 325214.86329999997 94343.7523 325591.5417 95214.8178 326028.7577 96009.3995 326529.8745 96718.9992 326782.11449999997 97037.6817 327094.8921 97118.4146 327407.66969999997 97118.4146 327723.8105 97037.6817 328850.4825 96166.6162 329351.5993 96642.5154 329852.7161 97118.4146 330417.7337 97432.848 330982.7513 97751.5305 330982.7513 99412.9286 331046.6521 99808.0949 331231.6281 100207.5103 331483.86809999996 100441.2108 331796.6457 100602.6766 332550.0025 100679.1604 333303.3593 100759.8933 334053.3529 100679.1604 334742.8089 100602.6766 335055.5865 100441.2108 335307.82649999997 100207.5103 335496.1657 99808.0949 335560.0665 99412.9286 335560.0665 97751.5305 336121.7209 97432.848 336686.7385 97118.4146 337187.8553 96642.5154 337688.9721 96166.6162 338819.0073 97037.6817 339131.78489999997 97118.4146 339444.5625 97118.4146 339757.3401 97037.6817 340009.5801 96718.9992 340510.6969 96009.3995 340951.2761 95214.8178 341324.5913 94343.7523 341640.7321 93472.6868 341701.2697 93077.5205 341701.2697 92682.3542 341512.9305 92287.1879 341264.0537 92049.2383 339945.6793 91254.6566 340009.5801 90464.324 340073.48089999997 89669.7423 340009.5801 88879.4097 339945.6793 88089.0771 341264.0537 87218.0116 341512.9305 86980.062 341640.7321 86661.3795 341701.2697 86185.4803 341640.7321 85790.314 341324.5913 84919.2485 340951.2761 84128.91589999999 340450.1593 83334.3342 340009.5801 82544.0016 339757.3401 82306.052 339444.5625 82148.8353 339131.78489999997 82148.8353 338819.0073 82306.052 337688.9721 83096.3846 337187.8553 82620.4854 336686.7385 82225.3191 336121.7209 81830.1528 335560.0665 81592.2032 335560.0665 79930.8051 335496.1657 79454.9059 335307.82649999997 79136.2234 335055.5865 78898.2738 334742.8089 78741.0571 333992.8153 78583.8404 Z M 344085.7785 91811.2887 L 343897.43929999997 91887.77249999999 343268.5209 92287.1879 342642.9657 92758.838 342518.5273 92920.3038 342454.6265 93158.2534 342454.6265 93396.203 342518.5273 93553.4197 342831.3049 94267.2685 342518.5273 94900.3844 342266.28729999997 95609.9841 341576.8313 95609.9841 341452.3929 95690.717 341264.0537 95771.4499 341200.1529 95928.6666 341139.6153 96166.6162 341075.7145 97037.6817 341139.6153 97989.4801 341200.1529 98227.42970000001 341264.0537 98384.6464 341452.3929 98461.1302 342266.28729999997 98461.1302 342518.5273 99174.97899999999 342831.3049 99808.0949 342518.5273 100521.9437 342454.6265 100759.8933 342454.6265 100997.8429 342518.5273 101155.05960000001 342642.9657 101312.2763 343268.5209 101868.9084 343897.43929999997 102264.0747 344210.2169 102264.0747 344398.5561 102187.5909 344522.9945 101949.6413 344835.7721 101312.2763 346026.34489999997 101312.2763 346403.0233 101949.6413 346466.9241 102187.5909 346655.2633 102264.0747 346968.0409 102264.0747 347657.49689999997 101868.9084 348222.5145 101312.2763 348346.9529 101155.05960000001 348410.8537 100997.8429 348410.8537 100759.8933 348346.9529 100521.9437 348034.1753 99808.0949 348346.9529 99174.97899999999 348659.7305 98461.1302 349476.9881 98461.1302 349601.4265 98384.6464 349725.8649 98146.6968 349789.7657 97989.4801 349850.30329999997 97037.6817 349789.7657 96166.6162 349725.8649 95928.6666 349601.4265 95771.4499 349476.9881 95690.717 349288.6489 95609.9841 348659.7305 95609.9841 348346.9529 94900.3844 348034.1753 94267.2685 348346.9529 93553.4197 348410.8537 93396.203 348410.8537 93158.2534 348346.9529 92920.3038 348222.5145 92758.838 347657.49689999997 92287.1879 346968.0409 91887.77249999999 346779.7017 91811.2887 346655.2633 91887.77249999999 346466.9241 91968.5054 346403.0233 92125.7221 346026.34489999997 92839.5709 345464.69049999997 92758.838 344835.7721 92839.5709 344522.9945 92125.7221 344398.5561 91968.5054 344210.2169 91887.77249999999 344085.7785 91811.2887 Z"></path></g></g></g><g id="editor-g5995eafb7f_0_14"><g><g></g><g><path stroke="#303030" stroke-opacity="1" stroke-width="381" stroke-linecap="butt" stroke-linejoin="round" stroke-miterlimit="8" stroke-dasharray="1524,1143" d="M 123380.0612 53088 L 146672.0612 53088 146672.0612 128808 123380.0612 128808 Z"></path></g><g><path fill="#000" fill-opacity="0" stroke="#000" stroke-opacity="0" stroke-width="4218.685121107266" stroke-linecap="round" stroke-linejoin="round" stroke-miterlimit="10" pointer-events="visiblePainted" d="M 123380.0612 53088 L 146672.0612 53088 146672.0612 128808 123380.0612 128808 Z"></path></g><g><g direction="ltr" style="opacity: 1;"><g transform="matrix(381,0,0,381.00000000000006,127037.0612,82566)"><g pointer-events="none"><g id="editor-g5995eafb7f_0_14-paragraph-0"><g><g class="sketchy-text-background" visibility="visible"></g><g></g><g class="sketchy-text-content" visibility="visible"><g class="sketchy-text-content-text" transform="translate(0 17.919999999999998)"><text x="0px" style="font-family:docs-Roboto;font-size:18.666666666666664px;fill:#303030;white-space:pre;" y="0px" text-rendering="geometricPrecision">RPC</text></g></g></g><g transform="translate(0 22)"><g class="sketchy-text-background" visibility="visible"></g><g></g><g class="sketchy-text-content" visibility="visible"><g class="sketchy-text-content-text" transform="translate(0 17.919999999999998)"><text x="0px" style="font-family:docs-Roboto;font-size:18.666666666666664px;fill:#303030;white-space:pre;" y="0px" text-rendering="geometricPrecision">API</text></g></g></g></g></g><rect style="opacity: 0;" x="12.425697096753424" y="22.133560800180703" width="1.7335473515248796" height="22.399999999999995" fill="#303030" transform="" shape-rendering="crispEdges" class=""></rect><rect style="opacity: 0;"></rect></g><g><path d="M 127037.0612 82566 L 140524.2728394043 82566 140524.2728394043 99482.4 127037.0612 99482.4 Z" pointer-events="visiblePainted" fill="#000000" stroke="#000000" opacity="0"></path></g><g transform="matrix(381,0,0,381.00000000000006,127037.0612,82566)"></g></g></g></g></g><g id="editor-g5995eafb7f_0_18"><g><g></g><g><path stroke="#666666" stroke-opacity="1" stroke-width="381" stroke-linecap="butt" stroke-linejoin="round" stroke-miterlimit="8" d="M 94735.9453 106704.7133 L 114503.77434196636 106572.31671187762"></path><path fill="#666666" fill-opacity="1" stroke="#666666" stroke-opacity="1" stroke-width="381" stroke-linecap="butt" stroke-linejoin="miter" stroke-miterlimit="10" d="M 114511.0080509163 107652.36510201734 L 117470.94024894363 106552.44388509209 114496.54063301643 105492.2683217379 Z"></path></g><g><path stroke="#000" stroke-opacity="0" stroke-width="4218.685121107266" stroke-linecap="round" stroke-linejoin="round" stroke-miterlimit="10" pointer-events="visiblePainted" d="M 94735.9453 106704.7133 L 114503.77434196636 106572.31671187762"></path></g></g></g><g id="editor-g5995eafb7f_0_27"><g><g></g><g><path fill="#ADADAD" fill-opacity="1" stroke="#303030" stroke-opacity="1" stroke-width="381" stroke-linecap="butt" stroke-linejoin="round" stroke-miterlimit="8" d="M 69125.6544 90373.9752 L 68751.3846 90454.7195 68373.743 90531.21410000001 67682.524 90769.1973 67051.99740000001 91245.1637 66488.9068 91801.8744 66047.201 92511.57430000001 65669.5594 93306.2682 65480.738600000004 94177.45670000001 65420.046200000004 94653.4231 65420.046200000004 95125.1398 65420.046200000004 95601.10620000001 65480.738600000004 96077.0726 65669.5594 96948.2611 66047.201 97742.955 66488.9068 98452.65490000001 67051.99740000001 99085.86020000001 67682.524 99485.33200000001 68373.743 99799.8098 68751.3846 99799.8098 69125.6544 99880.55410000001 69503.296 99799.8098 69880.9376 99799.8098 70636.2208 99485.33200000001 71263.3756 99085.86020000001 71765.7738 98452.65490000001 72268.172 97742.955 72585.1212 96948.2611 72834.6344 96077.0726 72898.6986 95601.10620000001 72898.6986 95125.1398 72898.6986 94653.4231 72834.6344 94177.45670000001 72585.1212 93306.2682 72268.172 92511.57430000001 71765.7738 91801.8744 71263.3756 91245.1637 70636.2208 90769.1973 69880.9376 90531.21410000001 69503.296 90454.7195 69125.6544 90373.9752 Z M 70636.2208 84114.1671 L 70322.6434 84275.6557 70005.6942 84513.6389 69692.1168 84828.11670000001 69442.6036 85146.8442 69314.4752 85542.0663 69189.71860000001 86018.03270000001 69125.6544 86493.9991 69125.6544 88788.8371 69816.8734 88869.58140000001 70447.4 89026.8203 71074.5548 89345.5478 71641.0172 89660.02560000001 71641.0172 87203.69900000001 85404.7048 87203.69900000001 85404.7048 101465.6922 82892.7138 101465.6922 82892.7138 98295.416 77926.0524 98295.416 77926.0524 101465.6922 74908.2914 101465.6922 75474.7538 102098.8975 75916.4596 102889.3417 76230.037 103684.0356 76479.5502 104631.7187 86035.2314 104631.7187 86409.5012 104555.2241 86787.1428 104393.73550000001 87100.7202 104155.75230000001 87353.6052 103841.2745 87606.4902 103522.547 87791.9392 103127.3249 87856.0034 102651.3585 87920.06760000001 102175.3921 87920.06760000001 86493.9991 87856.0034 86018.03270000001 87791.9392 85542.0663 87606.4902 85146.8442 87353.6052 84828.11670000001 87100.7202 84513.6389 86787.1428 84275.6557 86409.5012 84114.1671 Z M 66802.4842 101465.6922 L 66360.7784 101542.18680000001 65983.13680000001 101703.67540000001 65544.8028 101860.9143 65167.1612 102098.8975 64789.5196 102413.37530000001 64475.942200000005 102732.10280000001 64162.3648 103046.5806 63848.7874 103446.0524 63595.9024 103917.7691 63407.081600000005 104317.2409 63218.260800000004 104869.7019 63093.5042 105345.6683 62968.7476 105898.1293 62904.6834 106454.84 62904.6834 107007.301 62904.6834 107483.26740000001 63029.44 107878.4895 63218.260800000004 108277.96130000001 63471.1458 108673.18340000001 63720.659 108911.1666 64037.6082 109149.14980000001 64411.878000000004 109306.38870000001 73903.495 109306.38870000001 74281.1366 109149.14980000001 74594.714 108911.1666 74847.599 108673.18340000001 75097.1122 108277.96130000001 75221.8688 107878.4895 75349.9972 107483.26740000001 75410.6896 107007.301 75410.6896 106454.84 75285.933 105898.1293 75221.8688 105345.6683 75036.4198 104869.7019 74908.2914 104317.2409 74658.7782 103917.7691 74405.8932 103446.0524 74156.38 103046.5806 73839.4308 102732.10280000001 73465.16100000001 102413.37530000001 73087.5194 102098.8975 72709.8778 101860.9143 72332.2362 101703.67540000001 71893.9022 101542.18680000001 71452.1964 101465.6922 70760.9774 101465.6922 69945.0018 101780.17000000001 69125.6544 101860.9143 68309.6788 101780.17000000001 67554.3956 101465.6922 Z"></path></g><g><path fill="#000" fill-opacity="0" stroke="#000" stroke-opacity="0" stroke-width="4218.685121107266" stroke-linecap="round" stroke-linejoin="round" stroke-miterlimit="10" pointer-events="visiblePainted" d="M 69125.6544 90373.9752 L 68751.3846 90454.7195 68373.743 90531.21410000001 67682.524 90769.1973 67051.99740000001 91245.1637 66488.9068 91801.8744 66047.201 92511.57430000001 65669.5594 93306.2682 65480.738600000004 94177.45670000001 65420.046200000004 94653.4231 65420.046200000004 95125.1398 65420.046200000004 95601.10620000001 65480.738600000004 96077.0726 65669.5594 96948.2611 66047.201 97742.955 66488.9068 98452.65490000001 67051.99740000001 99085.86020000001 67682.524 99485.33200000001 68373.743 99799.8098 68751.3846 99799.8098 69125.6544 99880.55410000001 69503.296 99799.8098 69880.9376 99799.8098 70636.2208 99485.33200000001 71263.3756 99085.86020000001 71765.7738 98452.65490000001 72268.172 97742.955 72585.1212 96948.2611 72834.6344 96077.0726 72898.6986 95601.10620000001 72898.6986 95125.1398 72898.6986 94653.4231 72834.6344 94177.45670000001 72585.1212 93306.2682 72268.172 92511.57430000001 71765.7738 91801.8744 71263.3756 91245.1637 70636.2208 90769.1973 69880.9376 90531.21410000001 69503.296 90454.7195 69125.6544 90373.9752 Z M 70636.2208 84114.1671 L 70322.6434 84275.6557 70005.6942 84513.6389 69692.1168 84828.11670000001 69442.6036 85146.8442 69314.4752 85542.0663 69189.71860000001 86018.03270000001 69125.6544 86493.9991 69125.6544 88788.8371 69816.8734 88869.58140000001 70447.4 89026.8203 71074.5548 89345.5478 71641.0172 89660.02560000001 71641.0172 87203.69900000001 85404.7048 87203.69900000001 85404.7048 101465.6922 82892.7138 101465.6922 82892.7138 98295.416 77926.0524 98295.416 77926.0524 101465.6922 74908.2914 101465.6922 75474.7538 102098.8975 75916.4596 102889.3417 76230.037 103684.0356 76479.5502 104631.7187 86035.2314 104631.7187 86409.5012 104555.2241 86787.1428 104393.73550000001 87100.7202 104155.75230000001 87353.6052 103841.2745 87606.4902 103522.547 87791.9392 103127.3249 87856.0034 102651.3585 87920.06760000001 102175.3921 87920.06760000001 86493.9991 87856.0034 86018.03270000001 87791.9392 85542.0663 87606.4902 85146.8442 87353.6052 84828.11670000001 87100.7202 84513.6389 86787.1428 84275.6557 86409.5012 84114.1671 Z M 66802.4842 101465.6922 L 66360.7784 101542.18680000001 65983.13680000001 101703.67540000001 65544.8028 101860.9143 65167.1612 102098.8975 64789.5196 102413.37530000001 64475.942200000005 102732.10280000001 64162.3648 103046.5806 63848.7874 103446.0524 63595.9024 103917.7691 63407.081600000005 104317.2409 63218.260800000004 104869.7019 63093.5042 105345.6683 62968.7476 105898.1293 62904.6834 106454.84 62904.6834 107007.301 62904.6834 107483.26740000001 63029.44 107878.4895 63218.260800000004 108277.96130000001 63471.1458 108673.18340000001 63720.659 108911.1666 64037.6082 109149.14980000001 64411.878000000004 109306.38870000001 73903.495 109306.38870000001 74281.1366 109149.14980000001 74594.714 108911.1666 74847.599 108673.18340000001 75097.1122 108277.96130000001 75221.8688 107878.4895 75349.9972 107483.26740000001 75410.6896 107007.301 75410.6896 106454.84 75285.933 105898.1293 75221.8688 105345.6683 75036.4198 104869.7019 74908.2914 104317.2409 74658.7782 103917.7691 74405.8932 103446.0524 74156.38 103046.5806 73839.4308 102732.10280000001 73465.16100000001 102413.37530000001 73087.5194 102098.8975 72709.8778 101860.9143 72332.2362 101703.67540000001 71893.9022 101542.18680000001 71452.1964 101465.6922 70760.9774 101465.6922 69945.0018 101780.17000000001 69125.6544 101860.9143 68309.6788 101780.17000000001 67554.3956 101465.6922 Z"></path></g></g></g><g id="editor-g5995eafb7f_0_31"><g><g></g><g><path stroke="#666666" stroke-opacity="1" stroke-width="381" stroke-linecap="butt" stroke-linejoin="round" stroke-miterlimit="8" d="M 289263.1411 109307.0291 L 315558.8911 109307.0291"></path><path fill="#666666" fill-opacity="1" stroke="#666666" stroke-opacity="1" stroke-width="381" stroke-linecap="butt" stroke-linejoin="miter" stroke-miterlimit="10" d="M 315558.8911 110387.10171403509 L 318526.12355614034 109307.0291 315558.8911 108226.95648596491 Z"></path></g><g><path stroke="#000" stroke-opacity="0" stroke-width="4218.685121107266" stroke-linecap="round" stroke-linejoin="round" stroke-miterlimit="10" pointer-events="visiblePainted" d="M 289263.1411 109307.0291 L 315558.8911 109307.0291"></path></g></g></g><g id="editor-g5995eafb7f_0_33"><g><g></g><g><path stroke="#666666" stroke-opacity="1" stroke-width="381" stroke-linecap="butt" stroke-linejoin="round" stroke-miterlimit="8" d="M 319097.1707 92258.7084 L 292765.4207 92258.7084"></path><path fill="#666666" fill-opacity="1" stroke="#666666" stroke-opacity="1" stroke-width="381" stroke-linecap="butt" stroke-linejoin="miter" stroke-miterlimit="10" d="M 292765.4207 91178.63578596491 L 289798.1882438597 92258.7084 292765.4207 93338.78101403509 Z"></path></g><g><path stroke="#000" stroke-opacity="0" stroke-width="4218.685121107266" stroke-linecap="round" stroke-linejoin="round" stroke-miterlimit="10" pointer-events="visiblePainted" d="M 319097.1707 92258.7084 L 292765.4207 92258.7084"></path></g></g></g><g id="editor-g5995eafb7f_0_34"><g><g></g><g><path stroke="#FE1864" stroke-opacity="1" stroke-width="381" stroke-linecap="butt" stroke-linejoin="round" stroke-miterlimit="8" stroke-dasharray="1524,1143" d="M 228090.3865 89671.7733 L 283506.3865 89671.7733 283506.3865 114871.7733 228090.3865 114871.7733 Z"></path></g><g><path fill="#000" fill-opacity="0" stroke="#000" stroke-opacity="0" stroke-width="4218.685121107266" stroke-linecap="round" stroke-linejoin="round" stroke-miterlimit="10" pointer-events="visiblePainted" d="M 228090.3865 89671.7733 L 283506.3865 89671.7733 283506.3865 114871.7733 228090.3865 114871.7733 Z"></path></g><g><g direction="ltr" style="opacity: 1;"><g transform="matrix(380.99999999999994,0,0,381,231747.3865,95032.7733)"><g pointer-events="none"><g id="editor-g5995eafb7f_0_34-paragraph-0"><g><g class="sketchy-text-background" visibility="visible"></g><g></g><g class="sketchy-text-content" visibility="visible"><g class="sketchy-text-content-text" transform="translate(0 15.36)"><text x="0px" style="font-family:docs-Roboto;font-size:16px;fill:#303030;white-space:pre;" y="0px" text-rendering="geometricPrecision">Long</text><text x="39.5px" style="font-family:docs-Roboto;font-size:16px;fill:#303030;white-space:pre;" y="0px" text-rendering="geometricPrecision">Running</text></g></g></g><g transform="translate(0 19)"><g class="sketchy-text-background" visibility="visible"></g><g></g><g class="sketchy-text-content" visibility="visible"><g class="sketchy-text-content-text" transform="translate(0 15.36)"><text x="0px" style="font-family:docs-Roboto;font-size:16px;fill:#303030;white-space:pre;" y="0px" text-rendering="geometricPrecision">Task</text></g></g></g></g></g><rect style="opacity: 0;"></rect><rect style="opacity: 1;"></rect></g><g><path d="M 231747.3865 95032.7733 L 268900.83962499996 95032.7733 268900.83962499996 109586.9733 231747.3865 109586.9733 Z" pointer-events="visiblePainted" fill="#000000" stroke="#000000" opacity="0"></path></g><g transform="matrix(380.99999999999994,0,0,381,231747.3865,95032.7733)"></g></g></g></g></g><g id="editor-g5995eafb7f_0_38"><g><g></g><g><path stroke="#FE1864" stroke-opacity="1" stroke-width="381" stroke-linecap="butt" stroke-linejoin="round" stroke-miterlimit="8" stroke-dasharray="1524,1143" d="M 228090.3865 119652.5704 L 283506.3865 119652.5704 283506.3865 141264.5704 228090.3865 141264.5704 Z"></path></g><g><path fill="#000" fill-opacity="0" stroke="#000" stroke-opacity="0" stroke-width="4218.685121107266" stroke-linecap="round" stroke-linejoin="round" stroke-miterlimit="10" pointer-events="visiblePainted" d="M 228090.3865 119652.5704 L 283506.3865 119652.5704 283506.3865 141264.5704 228090.3865 141264.5704 Z"></path></g><g><g direction="ltr" style="opacity: 1;"><g transform="matrix(380.99999999999994,0,0,381,231747.3865,123219.5704)"><g pointer-events="none"><g id="editor-g5995eafb7f_0_38-paragraph-0"><g><g class="sketchy-text-background" visibility="visible"></g><g></g><g class="sketchy-text-content" visibility="visible"><g class="sketchy-text-content-text" transform="translate(0 15.36)"><text x="0px" style="font-family:docs-Roboto;font-size:16px;fill:#303030;white-space:pre;" y="0px" text-rendering="geometricPrecision">External</text><text x="61.515625px" style="font-family:docs-Roboto;font-size:16px;fill:#303030;white-space:pre;" y="0px" text-rendering="geometricPrecision">Service</text></g></g></g><g transform="translate(0 19)"><g class="sketchy-text-background" visibility="visible"></g><g></g><g class="sketchy-text-content" visibility="visible"><g class="sketchy-text-content-text" transform="translate(0 15.36)"><text x="0px" style="font-family:docs-Roboto;font-size:16px;fill:#303030;white-space:pre;" y="0px" text-rendering="geometricPrecision">Call</text><text x="30.84375px" style="font-family:docs-Roboto;font-size:16px;fill:#303030;white-space:pre;" y="0px" text-rendering="geometricPrecision">(HTTP)</text></g></g></g></g></g><rect style="opacity: 0;"></rect><rect style="opacity: 1;"></rect></g><g><path d="M 231747.3865 123219.5704 L 274999.81618749996 123219.5704 274999.81618749996 137773.7704 231747.3865 137773.7704 Z" pointer-events="visiblePainted" fill="#000000" stroke="#000000" opacity="0"></path></g><g transform="matrix(380.99999999999994,0,0,381,231747.3865,123219.5704)"></g></g></g></g></g><g id="editor-g5995eafb7f_0_39"><g><g></g><g><path stroke="#666666" stroke-opacity="1" stroke-width="381" stroke-linecap="butt" stroke-linejoin="round" stroke-miterlimit="8" d="M 194284.566 69604.8646 L 221180.44870937648 69371.44865538213"></path><path fill="#666666" fill-opacity="1" stroke="#666666" stroke-opacity="1" stroke-width="381" stroke-linecap="butt" stroke-linejoin="miter" stroke-miterlimit="10" d="M 221189.82176765677 70451.48059813524 L 224147.56943122568 69345.69849527141 221171.07565109618 68291.41671262903 Z"></path></g><g><path stroke="#000" stroke-opacity="0" stroke-width="4218.685121107266" stroke-linecap="round" stroke-linejoin="round" stroke-miterlimit="10" pointer-events="visiblePainted" d="M 194284.566 69604.8646 L 221180.44870937648 69371.44865538213"></path></g></g></g><g id="editor-g5995eafb7f_0_40"><g><g></g><g><path stroke="#666666" stroke-opacity="1" stroke-width="381" stroke-linecap="butt" stroke-linejoin="round" stroke-miterlimit="8" d="M 224288.8979 109306.9382 L 198221.1479 109306.9382"></path><path fill="#666666" fill-opacity="1" stroke="#666666" stroke-opacity="1" stroke-width="381" stroke-linecap="butt" stroke-linejoin="miter" stroke-miterlimit="10" d="M 198221.1479 108226.86558596492 L 195253.91544385965 109306.9382 198221.1479 110387.0108140351 Z"></path></g><g><path stroke="#000" stroke-opacity="0" stroke-width="4218.685121107266" stroke-linecap="round" stroke-linejoin="round" stroke-miterlimit="10" pointer-events="visiblePainted" d="M 224288.8979 109306.9382 L 198221.1479 109306.9382"></path></g></g></g><g id="editor-g59a6b53284_0_0"><g><g></g><g><path stroke="#FE1864" stroke-opacity="1" stroke-width="381" stroke-linecap="butt" stroke-linejoin="round" stroke-miterlimit="8" stroke-dasharray="1524,1143" d="M 228090.3865 146047.2378 L 283506.3865 146047.2378 283506.3865 167659.2378 228090.3865 167659.2378 Z"></path></g><g><path fill="#000" fill-opacity="0" stroke="#000" stroke-opacity="0" stroke-width="4218.685121107266" stroke-linecap="round" stroke-linejoin="round" stroke-miterlimit="10" pointer-events="visiblePainted" d="M 228090.3865 146047.2378 L 283506.3865 146047.2378 283506.3865 167659.2378 228090.3865 167659.2378 Z"></path></g><g><g direction="ltr" style="opacity: 1;"><g transform="matrix(380.99999999999994,0,0,381,231747.3865,149614.2378)"><g pointer-events="none"><g id="editor-g59a6b53284_0_0-paragraph-0"><g><g class="sketchy-text-background" visibility="visible"></g><g></g><g class="sketchy-text-content" visibility="visible"><g class="sketchy-text-content-text" transform="translate(0 15.36)"><text x="0px" style="font-family:docs-Roboto;font-size:16px;fill:#303030;white-space:pre;" y="0px" text-rendering="geometricPrecision">Encryption</text><text x="79.421875px" style="font-family:docs-Roboto;font-size:16px;fill:#303030;white-space:pre;" y="0px" text-rendering="geometricPrecision">/</text></g></g></g></g><g id="editor-g59a6b53284_0_0-paragraph-1" transform="translate(0, 19)"><g><g class="sketchy-text-background" visibility="visible"></g><g></g><g class="sketchy-text-content" visibility="visible"><g class="sketchy-text-content-text" transform="translate(0 15.36)"><text x="0px" style="font-family:docs-Roboto;font-size:16px;fill:#303030;white-space:pre;" y="0px" text-rendering="geometricPrecision">Decryption</text></g></g></g></g></g><rect style="opacity: 0;"></rect><rect style="opacity: 1;"></rect></g><g><path d="M 231747.3865 149614.2378 L 264519.33962499996 149614.2378 264519.33962499996 164168.4378 231747.3865 164168.4378 Z" pointer-events="visiblePainted" fill="#000000" stroke="#000000" opacity="0"></path></g><g transform="matrix(380.99999999999994,0,0,381,231747.3865,149614.2378)"></g></g></g></g></g><g id="editor-g59a6b53284_0_1"><g><g></g><g><path stroke="#303030" stroke-opacity="1" stroke-width="381" stroke-linecap="butt" stroke-linejoin="round" stroke-miterlimit="8" stroke-dasharray="1524,1143" d="M 217626.0439 134430.5687 L 122802.04389999999 134430.5687 122802.04389999999 173778.5687 217626.0439 173778.5687 Z"></path></g><g><path fill="#000" fill-opacity="0" stroke="#000" stroke-opacity="0" stroke-width="4218.685121107266" stroke-linecap="round" stroke-linejoin="round" stroke-miterlimit="10" pointer-events="visiblePainted" d="M 217626.0439 134430.5687 L 122802.04389999999 134430.5687 122802.04389999999 173778.5687 217626.0439 173778.5687 Z"></path></g><g><g direction="ltr" style="opacity: 1;"><g transform="matrix(380.99999999999994,0,0,381,126459.04389999999,146294.0687)"><g pointer-events="none"><g id="editor-g59a6b53284_0_1-paragraph-0"><g><g class="sketchy-text-background" visibility="visible"></g><g></g><g class="sketchy-text-content" visibility="visible"><g class="sketchy-text-content-text" transform="translate(0 17.919999999999998)"><text x="0px" style="font-family:docs-Roboto;font-size:18.666666666666664px;fill:#303030;white-space:pre;" y="0px" text-rendering="geometricPrecision">Core</text><text x="43.42494201660156px" style="font-family:docs-Roboto;font-size:18.666666666666664px;fill:#303030;white-space:pre;" y="0px" text-rendering="geometricPrecision">Infrastructure</text></g></g></g></g><g id="editor-g59a6b53284_0_1-paragraph-1" transform="translate(0, 22)"><g><g class="sketchy-text-background" visibility="visible"></g><g></g><g class="sketchy-text-content" visibility="visible"><g class="sketchy-text-content-text" transform="translate(0 15.36)"><text x="0px" style="font-family:docs-Roboto;font-size:16px;fill:#303030;white-space:pre;" y="0px" text-rendering="geometricPrecision">(Storage,</text><text x="67.515625px" style="font-family:docs-Roboto;font-size:16px;fill:#303030;white-space:pre;" y="0px" text-rendering="geometricPrecision">Networking,</text><text x="156.0859375px" style="font-family:docs-Roboto;font-size:16px;fill:#303030;white-space:pre;" y="0px" text-rendering="geometricPrecision">etc.)</text></g></g></g></g></g><rect style="opacity: 0;"></rect><rect style="opacity: 1;"></rect></g><g><path d="M 126459.04389999999 146294.0687 L 198063.2314 146294.0687 198063.2314 161991.26870000002 126459.04389999999 161991.26870000002 Z" pointer-events="visiblePainted" fill="#000000" stroke="#000000" opacity="0"></path></g><g transform="matrix(380.99999999999994,0,0,381,126459.04389999999,146294.0687)"></g></g></g></g></g></g></g></svg>