<svg xmlns="http://www.w3.org/2000/svg" xmlns:xlink="http://www.w3.org/1999/xlink" viewBox="0 0 2533.56 2106.36"><script/><defs><linearGradient id="linear-gradient" x1="1999.44" y1="1515.72" x2="2438.73" y2="754.86" gradientUnits="userSpaceOnUse"><stop offset="0" stop-color="#ff1864"/><stop offset="1" stop-color="#d400a0"/></linearGradient><linearGradient id="linear-gradient-2" x1="1703.44" y1="1851.72" x2="2142.73" y2="1090.86" xlink:href="#linear-gradient"/><linearGradient id="linear-gradient-3" x1="2018.69" y1="1011.02" x2="2459.48" y2="247.56" xlink:href="#linear-gradient"/><linearGradient id="linear-gradient-4" x1="1704.69" y1="2021.02" x2="2145.48" y2="1257.56" xlink:href="#linear-gradient"/><linearGradient id="linear-gradient-5" x1="73.44" y1="847.72" x2="512.73" y2="86.86" xlink:href="#linear-gradient"/><linearGradient id="linear-gradient-6" x1="90.69" y1="1005.02" x2="531.48" y2="241.56" xlink:href="#linear-gradient"/><style>.cls-1{opacity:.22}</style></defs><g id="Layer_2" data-name="Layer 2"><g id="Layer_1-2" data-name="Layer 1"><path d="M1944.51 850.38l145 83.74c24.68 14.25 24.69 49.87 0 64.13l-145 83.73a37 37 0 00-18.51 32.07v42.23a37 37 0 0018.52 32.07l143.49 82.77c24.75 14.28 24.68 50-.12 64.22l-143.14 81.85a37 37 0 00-18.65 32.14v2.72c0 28.5 30.86 46.31 55.54 32.06l219.1-126.5a37 37 0 0137 0l144.74 83.54c24.69 14.25 24.69 49.88 0 64.14l-45.79 26.44c-24.66 14.24-24.69 49.82-.06 64.1h.07a37 37 0 0037.05.05l119.77-68.88a37 37 0 0018.54-32.08v-43a37 37 0 00-18.52-32.07l-144.73-83.54c-24.68-14.25-24.69-49.88 0-64.13l144.64-83.53a37 37 0 0018.51-32.06v-42.77a37 37 0 00-18.51-32.06l-144.66-83.54c-24.68-14.25-24.68-49.88 0-64.13l144.66-83.53a37 37 0 0018.55-32.05c0-28.5-30.86-46.32-55.55-32.06l-218.71 126.28a37.05 37.05 0 01-37 0l-144.66-83.53c-24.68-14.25-24.68-49.88 0-64.13l48.45-28c24.69-14.24 24.7-49.88 0-64.13a37.05 37.05 0 00-37 0l-122.94 70.77a37 37 0 00-18.56 32v42.52a37 37 0 0018.48 32.15zm111.57 252.77l144.63-83.52a37 37 0 0137 0l144.42 83.37c24.74 14.29 24.67 50-.13 64.2l-145.25 83.11a37 37 0 01-36.89-.07l-143.77-83c-24.69-14.24-24.69-49.84-.01-64.09z" fill="url(#linear-gradient)"/><path d="M1648.51 1186.38l145 83.74c24.68 14.25 24.69 49.87 0 64.13l-145 83.73a37 37 0 00-18.51 32.07v42.23a37 37 0 0018.52 32.07l143.49 82.77c24.75 14.28 24.68 50-.12 64.22l-143.14 81.85a37 37 0 00-18.65 32.14v2.72c0 28.5 30.86 46.31 55.54 32.06l219.1-126.5a37 37 0 0137 0l144.74 83.54c24.69 14.25 24.69 49.88 0 64.14l-45.79 26.44c-24.66 14.24-24.69 49.82-.06 64.1h.07a37 37 0 0037.05.05l119.77-68.88a37 37 0 0018.54-32.08v-43a37 37 0 00-18.52-32.07l-144.73-83.54c-24.68-14.25-24.69-49.88 0-64.13l144.64-83.53a37 37 0 0018.51-32.06v-42.77a37 37 0 00-18.51-32.06l-144.66-83.54c-24.68-14.25-24.68-49.88 0-64.13l144.66-83.53a37 37 0 0018.51-32.07c0-28.5-30.86-46.32-55.55-32.06l-218.67 126.28a37.05 37.05 0 01-37 0l-144.63-83.53c-24.68-14.25-24.68-49.88 0-64.13l48.45-28c24.69-14.24 24.7-49.88 0-64.13a37.05 37.05 0 00-37 0l-122.94 70.77a37 37 0 00-18.56 32v42.52a37 37 0 0018.45 32.17zm111.57 252.77l144.63-83.52a37 37 0 0137 0l144.42 83.37c24.74 14.29 24.67 50-.13 64.2l-145.25 83.11a37 37 0 01-36.89-.07l-143.77-83c-24.69-14.24-24.69-49.84-.01-64.09z" fill="url(#linear-gradient-2)"/><path d="M1964.51 344.38l145 83.74c24.68 14.25 24.69 49.87 0 64.13l-145 83.73a37 37 0 00-18.51 32.07v42.23a37 37 0 0018.52 32.07l143.49 82.77c24.75 14.28 24.68 50-.12 64.22l-143.14 81.85a37 37 0 00-18.65 32.14v2.72c0 28.5 30.86 46.31 55.54 32.06l219.1-126.5a37 37 0 0137 0l144.74 83.54c24.69 14.25 24.69 49.88 0 64.14l-45.79 26.44c-24.66 14.24-24.69 49.82-.06 64.1h.07a37 37 0 0037.05.05l119.77-68.88a37 37 0 0018.54-32.08v-42.98a37 37 0 00-18.52-32.07l-144.73-83.54c-24.68-14.25-24.69-49.88 0-64.13l144.64-83.53a37 37 0 0018.55-32.06v-42.77a37 37 0 00-18.51-32.06l-144.66-83.54c-24.68-14.25-24.68-49.88 0-64.13l144.66-83.53a37 37 0 0018.51-32.07h0c0-28.5-30.86-46.32-55.55-32.06l-218.71 126.28a37.05 37.05 0 01-37 0l-144.66-83.53c-24.68-14.25-24.68-49.88 0-64.13l48.45-28c24.69-14.24 24.7-49.88 0-64.13h0a37.05 37.05 0 00-37 0l-122.94 70.77a37 37 0 00-18.56 32v42.52a37 37 0 0018.48 32.15zm111.57 252.77l144.63-83.52a37 37 0 0137 0L2402.13 597c24.74 14.29 24.67 50-.13 64.2l-145.25 83.11a37 37 0 01-36.89-.07l-143.77-83c-24.69-14.24-24.69-49.84-.01-64.09z" stroke="url(#linear-gradient-3)" fill="none" stroke-miterlimit="10" stroke-width="3"/><path d="M1650.51 1354.38l145 83.74c24.68 14.25 24.69 49.87 0 64.13l-145 83.73a37 37 0 00-18.51 32.07v42.23a37 37 0 0018.52 32.07l143.49 82.77c24.75 14.28 24.68 50-.12 64.22l-143.14 81.85a37 37 0 00-18.65 32.14v2.72c0 28.5 30.86 46.31 55.54 32.06l219.1-126.5a37 37 0 0137 0l144.74 83.54c24.69 14.25 24.69 49.88 0 64.14l-45.79 26.44c-24.66 14.24-24.69 49.82-.06 64.1h.07a37 37 0 0037.05 0l119.77-68.83a37 37 0 0018.54-32.08v-43a37 37 0 00-18.52-32.07l-144.73-83.54c-24.68-14.25-24.69-49.88 0-64.13l144.64-83.53a37 37 0 0018.51-32.06v-42.77a37 37 0 00-18.51-32.06l-144.66-83.54c-24.68-14.25-24.68-49.88 0-64.13l144.66-83.53a37 37 0 0018.51-32.07h0c0-28.5-30.86-46.32-55.55-32.06l-218.67 126.28a37.05 37.05 0 01-37 0l-144.63-83.53c-24.68-14.25-24.68-49.88 0-64.13l48.45-28c24.69-14.24 24.7-49.88 0-64.13h0a37.05 37.05 0 00-37 0l-122.94 70.77a37 37 0 00-18.56 32v42.52a37 37 0 0018.45 32.17zm111.57 252.77l144.63-83.52a37 37 0 0137 0l144.42 83.37c24.74 14.29 24.67 50-.13 64.2l-145.25 83.11a37 37 0 01-36.89-.07l-143.77-83c-24.69-14.24-24.69-49.84-.01-64.09z" stroke="url(#linear-gradient-4)" fill="none" stroke-miterlimit="10" stroke-width="3"/><path d="M18.51 182.38l145 83.74c24.68 14.25 24.69 49.87 0 64.13L18.59 414A37 37 0 00.08 446.05v42.23a37 37 0 0018.52 32.07l143.49 82.77c24.75 14.28 24.68 50-.12 64.22L18.83 749.19A37 37 0 00.18 781.33v2.72c0 28.5 30.86 46.31 55.54 32.06l219.1-126.5a37 37 0 0137 0l144.74 83.54c24.69 14.25 24.69 49.88 0 64.14l-45.76 26.44c-24.66 14.24-24.69 49.82-.06 64.1h.07a37 37 0 0037.05 0L567.52 859a37 37 0 0018.54-32.08v-42.98a37 37 0 00-18.52-32.07l-144.73-83.54c-24.68-14.25-24.69-49.88 0-64.13l144.64-83.53A37 37 0 00586 488.61v-42.77a37 37 0 00-18.51-32.06l-144.7-83.54c-24.68-14.25-24.68-49.88 0-64.13l144.66-83.53A37 37 0 00586 150.51c0-28.5-30.86-46.32-55.55-32.06L311.74 244.73a37.05 37.05 0 01-37 0L130.08 161.2c-24.68-14.25-24.68-49.88 0-64.13l48.45-28c24.69-14.24 24.7-49.88 0-64.13a37.05 37.05 0 00-37 0L18.61 75.71a37 37 0 00-18.56 32v42.52a37 37 0 0018.46 32.15zm111.57 252.77l144.63-83.52a37 37 0 0137 0L456.13 435c24.74 14.29 24.67 50-.13 64.2l-145.25 83.12a37 37 0 01-36.89-.07l-143.77-83c-24.69-14.25-24.69-49.85-.01-64.1z" fill="url(#linear-gradient-5)"/><path d="M36.51 338.38l145 83.74c24.68 14.25 24.69 49.87 0 64.13L36.59 570a37 37 0 00-18.51 32.07v42.23a37 37 0 0018.52 32.05l143.49 82.77c24.75 14.28 24.68 50-.12 64.22L36.83 905.19a37 37 0 00-18.65 32.14v2.72c0 28.5 30.86 46.31 55.54 32.06l219.1-126.5a37 37 0 0137 0l144.74 83.54c24.69 14.25 24.69 49.88 0 64.14l-45.79 26.44c-24.66 14.24-24.69 49.82-.06 64.1h.07a37 37 0 0037.05.05L585.52 1015a37 37 0 0018.54-32.08v-42.98a37 37 0 00-18.52-32.07l-144.73-83.54c-24.68-14.25-24.69-49.88 0-64.13l144.64-83.53A37 37 0 00604 644.61v-42.77a37 37 0 00-18.51-32.06l-144.7-83.54c-24.68-14.25-24.68-49.88 0-64.13l144.66-83.53A37 37 0 00604 306.51h0c0-28.5-30.86-46.32-55.55-32.06L329.74 400.73a37.05 37.05 0 01-37 0L148.08 317.2c-24.68-14.25-24.68-49.88 0-64.13l48.45-28c24.69-14.24 24.7-49.88 0-64.13h0a37.05 37.05 0 00-37 0L36.61 231.71a37 37 0 00-18.56 32L18 306.27a37 37 0 0018.51 32.11zm111.57 252.77l144.63-83.52a37 37 0 0137 0L474.13 591c24.74 14.29 24.67 50-.13 64.2l-145.25 83.12a37 37 0 01-36.89-.07l-143.77-83c-24.69-14.25-24.69-49.85-.01-64.1z" stroke="url(#linear-gradient-6)" fill="none" stroke-miterlimit="10" stroke-width="3"/></g></g></svg>