<svg viewBox="0 0 100 100" xmlns="http://www.w3.org/2000/svg" fill-rule="evenodd" clip-rule="evenodd" stroke-linejoin="round" stroke-miterlimit="1.414"><path fill="none" d="M0 0h100v100H0z"/><clipPath id="a"><path d="M0 0h100v100H0z"/></clipPath><g clip-path="url(#a)"><path d="M20.559 19.557l15.545 8.998a3.967 3.967 0 010 6.88l-15.539 8.998a3.977 3.977 0 00-1.985 3.44v4.525c0 1.416.758 2.728 1.985 3.435l15.38 8.876a3.969 3.969 0 011.995 3.44 3.97 3.97 0 01-1.995 3.441l-15.349 8.775a3.968 3.968 0 00-2 3.446v.291a3.987 3.987 0 003.969 3.902 3.98 3.98 0 001.964-.52l23.505-13.566a3.974 3.974 0 013.969 0l15.513 8.956a3.973 3.973 0 011.989 3.44c0 1.418-.76 2.733-1.989 3.44l-4.88 2.832a3.967 3.967 0 000 6.88 3.956 3.956 0 003.97 0l12.824-7.409a3.974 3.974 0 001.99-3.441v-4.604a3.972 3.972 0 00-1.985-3.435l-15.539-8.934a3.975 3.975 0 01-1.989-3.441c0-1.418.76-2.732 1.989-3.44l15.502-8.95a3.977 3.977 0 001.985-3.44v-4.584a3.975 3.975 0 00-1.985-3.435l-15.502-8.955a3.967 3.967 0 010-6.88l15.502-8.956a3.977 3.977 0 001.985-3.44c-.001-2.177-1.793-3.967-3.969-3.967-.697 0-1.382.184-1.985.532L51.993 26.22a3.97 3.97 0 01-3.97 0l-15.502-8.934a3.973 3.973 0 01-1.989-3.44c0-1.418.76-2.733 1.989-3.44l5.192-2.996a3.973 3.973 0 001.989-3.44A3.973 3.973 0 0033.749.53L20.57 8.119a3.98 3.98 0 00-1.99 3.435v4.557a3.98 3.98 0 001.979 3.446zM32.521 46.65l15.502-8.955a3.976 3.976 0 013.97 0l15.476 8.939a3.976 3.976 0 011.989 3.441c0 1.418-.76 2.732-1.989 3.44l-15.566 8.908a3.98 3.98 0 01-3.959 0l-15.407-8.892a3.972 3.972 0 01-.016-6.881z" fill-rule="nonzero"/></g></svg>