<svg xmlns="http://www.w3.org/2000/svg" xmlns:xlink="http://www.w3.org/1999/xlink" fill-rule="evenodd" fill="none" stroke-linecap="square" stroke-miterlimit="10" overflow="hidden" viewBox="79629 762 164592 123063"><rect width="100%" height="100%"/><g transform="translate(79629 762) scale(.45139)"><path fill="#fff" d="M0 0h365760v274320H0z"/><path d="M0 0h365760v274320H0z"/><clipPath id="a"><path d="M336608 251871.334h24342.96v10994.847H336608z"/></clipPath><g clip-path="url(#a)"><image fill="#000" width="200" height="92" preserveAspectRatio="none" transform="matrix(121.7148 0 0 121.72012 336608 251770.182)" xlink:href="https://lh6.googleusercontent.com/R6mR5unf0GJ_LmIByKHaMN38FaD4ZHmN94Qzsm7XK-va9Ljp9JlST1NXix3nlK5hpV2Bw5cox-Z5ayZneoBov3PqjtcZlZA720iaCVMmMQCdvq72Kdtg3RZDT6M8tg8v4vH5EHnS8Zk"/></g><path fill="#FF1864" d="M157265.064 223787.202c0-18686.002 15147.998-33834 33834-33834 8973.335 0 17579.145 3564.644 23924.251 9909.75 6345.106 6345.105 9909.75 14950.915 9909.75 23924.25 0 18686.002-15147.999 33834-33834 33834-18686.003 0-33834-15147.998-33834-33834z"/><rect transform="matrix(381 0 0 381 170831.813 216548.202)"/><path fill="#595959" d="M91001.164 116797.061c0-55282.598 44815.4-100098 100098-100098 26547.64 0 52007.958 10546.01 70779.974 29318.026 18772.017 18772.016 29318.026 44232.334 29318.026 70779.974 0 55282.6-44815.401 100098-100098 100098-55282.6 0-100098-44815.4-100098-100098z"/><rect transform="matrix(381 0 0 381 123976.19 109558.061)"/><path fill="#ADADAD" d="M107919.015 99883.061c0-45941.254 37240.06-83184 83178-83184 22060.177 0 43216.827 8764.004 58815.728 24364.03 15598.901 15600.026 24362.272 36758.202 24362.272 58819.97 0 45941.255-37240.059 83184-83178 83184-45937.94 0-83178-37242.745-83178-83184z"/><rect transform="matrix(381 0 0 381 135938.287 92644.061)"/><path d="M157265.064 220575.608h67668v21048h-67668z"/><path pointer-events="visiblePainted" d="M157265.064 220575.608h67668v21048h-67668z"/><text x="34.515" style="white-space:pre" text-rendering="geometricPrecision" font-family="docs-Roboto" font-size="32" fill="#fff" font-weight="700" transform="matrix(381 0 0 381 160922.064 235936.928)" pointer-events="none">libp2p</text><path d="M147541.786 186489.476h87120v21048h-87120z"/><path pointer-events="visiblePainted" d="M147541.786 186489.476h87120v21048h-87120z"/><g transform="matrix(381 0 0 381 151198.786 190146.476)"><text x="11.583" style="white-space:pre" text-rendering="geometricPrecision" font-family="docs-Roboto" font-size="32" fill="#fff" font-weight="700" transform="translate(0 30.72)" pointer-events="none">CONSENSUS</text><rect/></g><path d="M139301.273 149858.5h103608v21048h-103608z"/><path pointer-events="visiblePainted" d="M139301.273 149858.5h103608v21048h-103608z"/><g transform="matrix(381 0 0 381 142958.273 153515.5)"><text x="13.129" style="white-space:pre" text-rendering="geometricPrecision" font-family="docs-Roboto" font-size="32" fill="#303030" font-weight="700" transform="translate(0 30.72)" pointer-events="none">WEBASSEMBLY</text><rect/></g><path fill="#EEE" d="M125781.378 82021.061c0-36076.344 29245.655-65322 65322-65322 17324.471 0 33939.377 6882.12 46189.629 19132.371 12250.251 12250.252 19132.37 28865.158 19132.37 46189.63 0 36076.344-29245.655 65322-65322 65322-36076.344 0-65322-29245.656-65322-65322z"/><g transform="matrix(381 0 0 381 148570.748 74782.061)"><text style="white-space:pre" text-rendering="geometricPrecision" font-family="Arial" font-size="32" fill="#f3f3f3" transform="translate(0 30.72)" pointer-events="none">5</text><rect/></g><path d="M147540.788 64684.562h87120v34668h-87120z"/><path pointer-events="visiblePainted" d="M147540.788 64684.562h87120v34668h-87120z"/><g transform="matrix(381 0 0 381 151197.788 68341.562)"><g pointer-events="none" text-rendering="geometricPrecision" font-family="docs-Roboto" font-size="32" fill="#303030" font-weight="700"><text x="28.952" style="white-space:pre" transform="translate(0 30.72)">MODULAR</text><text x="35.342" style="white-space:pre" transform="translate(0 68.72)">RUNTIME</text></g><rect/></g></g></svg>